solid ais_logo
facet normal -0.0 -0.0 -1.0
  outer loop
    vertex 9.447476125511596 25.426330150068214 0.0
    vertex 13.56582537517053 18.946111869031377 0.0
    vertex 10.835180763983628 9.959072305593452 0.0
  endloop
endfacet
facet normal -0.0 -0.0 -1.0
  outer loop
    vertex 13.56582537517053 18.946111869031377 0.0
    vertex 9.447476125511596 25.426330150068214 0.0
    vertex 17.873891541609822 25.426330150068214 0.0
  endloop
endfacet
facet normal -0.0 -0.0 -1.0
  outer loop
    vertex 13.56582537517053 18.946111869031377 0.0
    vertex 17.873891541609822 25.426330150068214 0.0
    vertex 16.32524727148704 9.959072305593452 0.0
  endloop
endfacet
facet normal -0.0 -0.0 -1.0
  outer loop
    vertex 9.447476125511596 25.426330150068214 0.0
    vertex 7.938800306957708 0.4263301500682128 0.0
    vertex 0.05115961800818554 0.4263301500682128 0.0
  endloop
endfacet
facet normal -0.0 -0.0 -1.0
  outer loop
    vertex 7.938800306957708 0.4263301500682128 0.0
    vertex 9.447476125511596 25.426330150068214 0.0
    vertex 9.157305167121418 4.553206002728513 0.0
  endloop
endfacet
facet normal -0.0 -0.0 -1.0
  outer loop
    vertex 9.157305167121418 4.553206002728513 0.0
    vertex 9.447476125511596 25.426330150068214 0.0
    vertex 10.835180763983628 9.959072305593452 0.0
  endloop
endfacet
facet normal -0.0 -0.0 -1.0
  outer loop
    vertex 9.157305167121418 4.553206002728513 0.0
    vertex 10.835180763983628 9.959072305593452 0.0
    vertex 17.927715723055933 4.553206002728513 0.0
  endloop
endfacet
facet normal -0.0 -0.0 -1.0
  outer loop
    vertex 17.927715723055933 4.553206002728513 0.0
    vertex 10.835180763983628 9.959072305593452 0.0
    vertex 16.32524727148704 9.959072305593452 0.0
  endloop
endfacet
facet normal -0.0 -0.0 -1.0
  outer loop
    vertex 17.927715723055933 4.553206002728513 0.0
    vertex 16.32524727148704 9.959072305593452 0.0
    vertex 17.873891541609822 25.426330150068214 0.0
  endloop
endfacet
facet normal -0.0 -0.0 -1.0
  outer loop
    vertex 17.927715723055933 4.553206002728513 0.0
    vertex 17.873891541609822 25.426330150068214 0.0
    vertex 27.26807639836289 0.4263301500682128 0.0
  endloop
endfacet
facet normal -0.0 -0.0 -1.0
  outer loop
    vertex 17.927715723055933 4.553206002728513 0.0
    vertex 27.26807639836289 0.4263301500682128 0.0
    vertex 19.178461800818553 0.4263301500682128 0.0
  endloop
endfacet
facet normal -0.0 -0.0 -1.0
  outer loop
    vertex 37.772851296043655 25.426330150068214 0.0
    vertex 30.03069577080491 0.4263301500682128 0.0
    vertex 30.03069577080491 25.426330150068214 0.0
  endloop
endfacet
facet normal -0.0 -0.0 -1.0
  outer loop
    vertex 30.03069577080491 0.4263301500682128 0.0
    vertex 37.772851296043655 25.426330150068214 0.0
    vertex 37.772851296043655 0.4263301500682128 0.0
  endloop
endfacet
facet normal -0.0 -0.0 -1.0
  outer loop
    vertex 50.04050136425648 25.6075204638472 0.0
    vertex 50.22169167803548 19.992752387448842 0.0
    vertex 50.051159618008185 19.23601637107776 0.0
  endloop
endfacet
facet normal -0.0 -0.0 -1.0
  outer loop
    vertex 50.22169167803548 19.992752387448842 0.0
    vertex 50.04050136425648 25.6075204638472 0.0
    vertex 53.5300136425648 25.852660300136424 0.0
  endloop
endfacet
facet normal -0.0 -0.0 -1.0
  outer loop
    vertex 50.22169167803548 19.992752387448842 0.0
    vertex 53.5300136425648 25.852660300136424 0.0
    vertex 50.73328785811732 20.625852660300136 0.0
  endloop
endfacet
facet normal -0.0 -0.0 -1.0
  outer loop
    vertex 50.73328785811732 20.625852660300136 0.0
    vertex 53.5300136425648 25.852660300136424 0.0
    vertex 51.58168485675306 21.05431446111869 0.0
  endloop
endfacet
facet normal -0.0 -0.0 -1.0
  outer loop
    vertex 51.58168485675306 21.05431446111869 0.0
    vertex 53.5300136425648 25.852660300136424 0.0
    vertex 52.76261937244202 21.197135061391542 0.0
  endloop
endfacet
facet normal -0.0 -0.0 -1.0
  outer loop
    vertex 52.76261937244202 21.197135061391542 0.0
    vertex 53.5300136425648 25.852660300136424 0.0
    vertex 54.222800136425654 21.005286493860844 0.0
  endloop
endfacet
facet normal -0.0 -0.0 -1.0
  outer loop
    vertex 54.222800136425654 21.005286493860844 0.0
    vertex 53.5300136425648 25.852660300136424 0.0
    vertex 55.78370139836289 25.741281548431104 0.0
  endloop
endfacet
facet normal -0.0 -0.0 -1.0
  outer loop
    vertex 54.222800136425654 21.005286493860844 0.0
    vertex 55.78370139836289 25.741281548431104 0.0
    vertex 55.329126875852666 20.42974079126876 0.0
  endloop
endfacet
facet normal -0.0 -0.0 -1.0
  outer loop
    vertex 55.329126875852666 20.42974079126876 0.0
    vertex 55.78370139836289 25.741281548431104 0.0
    vertex 56.09865279672579 19.43212824010914 0.0
  endloop
endfacet
facet normal -0.0 -0.0 -1.0
  outer loop
    vertex 56.09865279672579 19.43212824010914 0.0
    vertex 55.78370139836289 25.741281548431104 0.0
    vertex 57.75281377899046 25.407145293315143 0.0
  endloop
endfacet
facet normal -0.0 -0.0 -1.0
  outer loop
    vertex 56.09865279672579 19.43212824010914 0.0
    vertex 57.75281377899046 25.407145293315143 0.0
    vertex 56.548431105047754 17.974079126875854 0.0
  endloop
endfacet
facet normal -0.0 -0.0 -1.0
  outer loop
    vertex 56.548431105047754 17.974079126875854 0.0
    vertex 57.75281377899046 25.407145293315143 0.0
    vertex 63.830150068212824 18.400409276944064 0.0
  endloop
endfacet
facet normal -0.0 -0.0 -1.0
  outer loop
    vertex 63.830150068212824 18.400409276944064 0.0
    vertex 57.75281377899046 25.407145293315143 0.0
    vertex 59.43735078444749 24.85025153478854 0.0
  endloop
endfacet
facet normal -0.0 -0.0 -1.0
  outer loop
    vertex 63.830150068212824 18.400409276944064 0.0
    vertex 59.43735078444749 24.85025153478854 0.0
    vertex 60.83731241473397 24.070600272851294 0.0
  endloop
endfacet
facet normal -0.0 -0.0 -1.0
  outer loop
    vertex 63.830150068212824 18.400409276944064 0.0
    vertex 60.83731241473397 24.070600272851294 0.0
    vertex 61.96762022510232 23.047940825375168 0.0
  endloop
endfacet
facet normal -0.0 -0.0 -1.0
  outer loop
    vertex 63.830150068212824 18.400409276944064 0.0
    vertex 61.96762022510232 23.047940825375168 0.0
    vertex 62.84319577080492 21.762022510231922 0.0
  endloop
endfacet
facet normal -0.0 -0.0 -1.0
  outer loop
    vertex 63.830150068212824 18.400409276944064 0.0
    vertex 62.84319577080492 21.762022510231922 0.0
    vertex 63.46403905184175 20.212845327421554 0.0
  endloop
endfacet
facet normal -0.0 -0.0 -1.0
  outer loop
    vertex 43.18511255115962 20.41055593451569 0.0
    vertex 43.042291950886764 17.13527455661664 0.0
    vertex 42.905866302864936 18.53683492496589 0.0
  endloop
endfacet
facet normal -0.0 -0.0 -1.0
  outer loop
    vertex 43.042291950886764 17.13527455661664 0.0
    vertex 43.18511255115962 20.41055593451569 0.0
    vertex 43.45156889495225 15.863744884038198 0.0
  endloop
endfacet
facet normal -0.0 -0.0 -1.0
  outer loop
    vertex 43.45156889495225 15.863744884038198 0.0
    vertex 43.18511255115962 20.41055593451569 0.0
    vertex 44.022851296043655 22.17769440654843 0.0
  endloop
endfacet
facet normal -0.0 -0.0 -1.0
  outer loop
    vertex 43.45156889495225 15.863744884038198 0.0
    vertex 44.022851296043655 22.17769440654843 0.0
    vertex 44.1336971350614 14.72224590723056 0.0
  endloop
endfacet
facet normal -0.0 -0.0 -1.0
  outer loop
    vertex 44.1336971350614 14.72224590723056 0.0
    vertex 44.022851296043655 22.17769440654843 0.0
    vertex 45.42121418826739 23.708219645293312 0.0
  endloop
endfacet
facet normal -0.0 -0.0 -1.0
  outer loop
    vertex 44.1336971350614 14.72224590723056 0.0
    vertex 45.42121418826739 23.708219645293312 0.0
    vertex 45.08867667121419 13.710777626193723 0.0
  endloop
endfacet
facet normal -0.0 -0.0 -1.0
  outer loop
    vertex 45.08867667121419 13.710777626193723 0.0
    vertex 45.42121418826739 23.708219645293312 0.0
    vertex 46.353811391541605 12.811221009549794 0.0
  endloop
endfacet
facet normal -0.0 -0.0 -1.0
  outer loop
    vertex 46.353811391541605 12.811221009549794 0.0
    vertex 45.42121418826739 23.708219645293312 0.0
    vertex 47.382332878581174 24.872100954979537 0.0
  endloop
endfacet
facet normal -0.0 -0.0 -1.0
  outer loop
    vertex 46.353811391541605 12.811221009549794 0.0
    vertex 47.382332878581174 24.872100954979537 0.0
    vertex 47.98345839017735 12.005457025920872 0.0
  endloop
endfacet
facet normal -0.0 -0.0 -1.0
  outer loop
    vertex 47.98345839017735 12.005457025920872 0.0
    vertex 47.382332878581174 24.872100954979537 0.0
    vertex 50.04050136425648 25.6075204638472 0.0
  endloop
endfacet
facet normal -0.0 -0.0 -1.0
  outer loop
    vertex 47.98345839017735 12.005457025920872 0.0
    vertex 50.04050136425648 25.6075204638472 0.0
    vertex 49.977617667121415 11.293485675306957 0.0
  endloop
endfacet
facet normal -0.0 -0.0 -1.0
  outer loop
    vertex 49.977617667121415 11.293485675306957 0.0
    vertex 50.04050136425648 25.6075204638472 0.0
    vertex 50.051159618008185 19.23601637107776 0.0
  endloop
endfacet
facet normal -0.0 -0.0 -1.0
  outer loop
    vertex 49.977617667121415 11.293485675306957 0.0
    vertex 50.051159618008185 19.23601637107776 0.0
    vertex 50.1918485675307 18.66899727148704 0.0
  endloop
endfacet
facet normal -0.0 -0.0 -1.0
  outer loop
    vertex 49.977617667121415 11.293485675306957 0.0
    vertex 50.1918485675307 18.66899727148704 0.0
    vertex 52.3362892223738 10.675306957708049 0.0
  endloop
endfacet
facet normal -0.0 -0.0 -1.0
  outer loop
    vertex 52.3362892223738 10.675306957708049 0.0
    vertex 50.1918485675307 18.66899727148704 0.0
    vertex 50.61391541609822 18.161664392905866 0.0
  endloop
endfacet
facet normal -0.0 -0.0 -1.0
  outer loop
    vertex 52.3362892223738 10.675306957708049 0.0
    vertex 50.61391541609822 18.161664392905866 0.0
    vertex 51.534788540245565 17.684174624829463 0.0
  endloop
endfacet
facet normal -0.0 -0.0 -1.0
  outer loop
    vertex 52.3362892223738 10.675306957708049 0.0
    vertex 51.534788540245565 17.684174624829463 0.0
    vertex 53.20600272851296 17.240791268758525 0.0
  endloop
endfacet
facet normal -0.0 -0.0 -1.0
  outer loop
    vertex 52.3362892223738 10.675306957708049 0.0
    vertex 53.20600272851296 17.240791268758525 0.0
    vertex 54.877216916780355 9.971862210095498 0.0
  endloop
endfacet
facet normal -0.0 -0.0 -1.0
  outer loop
    vertex 54.877216916780355 9.971862210095498 0.0
    vertex 53.20600272851296 17.240791268758525 0.0
    vertex 57.552438608458395 16.142991132332877 0.0
  endloop
endfacet
facet normal -0.0 -0.0 -1.0
  outer loop
    vertex 54.877216916780355 9.971862210095498 0.0
    vertex 57.552438608458395 16.142991132332877 0.0
    vertex 56.29263301500682 9.225784447476126 0.0
  endloop
endfacet
facet normal -0.0 -0.0 -1.0
  outer loop
    vertex 56.29263301500682 9.225784447476126 0.0
    vertex 57.552438608458395 16.142991132332877 0.0
    vertex 56.932128240109144 8.407230559345157 0.0
  endloop
endfacet
facet normal -0.0 -0.0 -1.0
  outer loop
    vertex 56.932128240109144 8.407230559345157 0.0
    vertex 57.552438608458395 16.142991132332877 0.0
    vertex 57.14529331514325 7.486357435197817 0.0
  endloop
endfacet
facet normal -0.0 -0.0 -1.0
  outer loop
    vertex 49.317871759890856 9.157571623465211 0.0
    vertex 42.26317360163711 6.887363574351978 0.0
    vertex 41.967939972714866 8.697135061391542 0.0
  endloop
endfacet
facet normal -0.0 -0.0 -1.0
  outer loop
    vertex 42.26317360163711 6.887363574351978 0.0
    vertex 49.317871759890856 9.157571623465211 0.0
    vertex 42.82486357435198 5.243860845839018 0.0
  endloop
endfacet
facet normal -0.0 -0.0 -1.0
  outer loop
    vertex 42.82486357435198 5.243860845839018 0.0
    vertex 49.317871759890856 9.157571623465211 0.0
    vertex 43.65300989085949 3.7666268758526606 0.0
  endloop
endfacet
facet normal -0.0 -0.0 -1.0
  outer loop
    vertex 43.65300989085949 3.7666268758526606 0.0
    vertex 49.317871759890856 9.157571623465211 0.0
    vertex 44.74761255115962 2.4556616643929057 0.0
  endloop
endfacet
facet normal -0.0 -0.0 -1.0
  outer loop
    vertex 44.74761255115962 2.4556616643929057 0.0
    vertex 49.317871759890856 9.157571623465211 0.0
    vertex 46.22058321964529 1.3813096862210095 0.0
  endloop
endfacet
facet normal -0.0 -0.0 -1.0
  outer loop
    vertex 46.22058321964529 1.3813096862210095 0.0
    vertex 49.317871759890856 9.157571623465211 0.0
    vertex 48.18383356070941 0.6139154160982264 0.0
  endloop
endfacet
facet normal -0.0 -0.0 -1.0
  outer loop
    vertex 48.18383356070941 0.6139154160982264 0.0
    vertex 49.317871759890856 9.157571623465211 0.0
    vertex 50.63736357435198 0.1534788540245566 0.0
  endloop
endfacet
facet normal -0.0 -0.0 -1.0
  outer loop
    vertex 50.63736357435198 0.1534788540245566 0.0
    vertex 49.317871759890856 9.157571623465211 0.0
    vertex 49.68025238744884 7.580150068212823 0.0
  endloop
endfacet
facet normal -0.0 -0.0 -1.0
  outer loop
    vertex 50.63736357435198 0.1534788540245566 0.0
    vertex 49.68025238744884 7.580150068212823 0.0
    vertex 50.28990450204638 6.429058663028648 0.0
  endloop
endfacet
facet normal -0.0 -0.0 -1.0
  outer loop
    vertex 50.63736357435198 0.1534788540245566 0.0
    vertex 50.28990450204638 6.429058663028648 0.0
    vertex 50.950716234652106 5.765049454297407 0.0
  endloop
endfacet
facet normal -0.0 -0.0 -1.0
  outer loop
    vertex 50.63736357435198 0.1534788540245566 0.0
    vertex 50.950716234652106 5.765049454297407 0.0
    vertex 53.58117326057298 0.0 0.0
  endloop
endfacet
facet normal -0.0 -0.0 -1.0
  outer loop
    vertex 53.58117326057298 0.0 0.0
    vertex 50.950716234652106 5.765049454297407 0.0
    vertex 51.739427012278306 5.29075716234652 0.0
  endloop
endfacet
facet normal -0.0 -0.0 -1.0
  outer loop
    vertex 53.58117326057298 0.0 0.0
    vertex 51.739427012278306 5.29075716234652 0.0
    vertex 52.65603683492496 5.006181787175989 0.0
  endloop
endfacet
facet normal -0.0 -0.0 -1.0
  outer loop
    vertex 53.58117326057298 0.0 0.0
    vertex 52.65603683492496 5.006181787175989 0.0
    vertex 53.70054570259209 4.911323328785811 0.0
  endloop
endfacet
facet normal -0.0 -0.0 -1.0
  outer loop
    vertex 53.58117326057298 0.0 0.0
    vertex 53.70054570259209 4.911323328785811 0.0
    vertex 56.902285129604365 0.2621930422919509 0.0
  endloop
endfacet
facet normal -0.0 -0.0 -1.0
  outer loop
    vertex 56.902285129604365 0.2621930422919509 0.0
    vertex 53.70054570259209 4.911323328785811 0.0
    vertex 55.16498976807639 5.105303547066848 0.0
  endloop
endfacet
facet normal -0.0 -0.0 -1.0
  outer loop
    vertex 56.902285129604365 0.2621930422919509 0.0
    vertex 55.16498976807639 5.105303547066848 0.0
    vertex 56.25 5.687244201909959 0.0
  endloop
endfacet
facet normal -0.0 -0.0 -1.0
  outer loop
    vertex 56.902285129604365 0.2621930422919509 0.0
    vertex 56.25 5.687244201909959 0.0
    vertex 56.921469986357444 6.5249829467939975 0.0
  endloop
endfacet
facet normal -0.0 -0.0 -1.0
  outer loop
    vertex 56.902285129604365 0.2621930422919509 0.0
    vertex 56.921469986357444 6.5249829467939975 0.0
    vertex 59.60095497953615 1.0487721691678036 0.0
  endloop
endfacet
facet normal -0.0 -0.0 -1.0
  outer loop
    vertex 59.60095497953615 1.0487721691678036 0.0
    vertex 56.921469986357444 6.5249829467939975 0.0
    vertex 57.14529331514325 7.486357435197817 0.0
  endloop
endfacet
facet normal -0.0 -0.0 -1.0
  outer loop
    vertex 59.60095497953615 1.0487721691678036 0.0
    vertex 57.14529331514325 7.486357435197817 0.0
    vertex 57.552438608458395 16.142991132332877 0.0
  endloop
endfacet
facet normal -0.0 -0.0 -1.0
  outer loop
    vertex 59.60095497953615 1.0487721691678036 0.0
    vertex 57.552438608458395 16.142991132332877 0.0
    vertex 60.46214188267394 15.032401091405184 0.0
  endloop
endfacet
facet normal -0.0 -0.0 -1.0
  outer loop
    vertex 59.60095497953615 1.0487721691678036 0.0
    vertex 60.46214188267394 15.032401091405184 0.0
    vertex 61.72407912687585 2.34268417462483 0.0
  endloop
endfacet
facet normal -0.0 -0.0 -1.0
  outer loop
    vertex 61.72407912687585 2.34268417462483 0.0
    vertex 60.46214188267394 15.032401091405184 0.0
    vertex 62.355047748976816 13.781122100954978 0.0
  endloop
endfacet
facet normal -0.0 -0.0 -1.0
  outer loop
    vertex 61.72407912687585 2.34268417462483 0.0
    vertex 62.355047748976816 13.781122100954978 0.0
    vertex 63.31855388813097 4.1268758526603 0.0
  endloop
endfacet
facet normal -0.0 -0.0 -1.0
  outer loop
    vertex 63.31855388813097 4.1268758526603 0.0
    vertex 62.355047748976816 13.781122100954978 0.0
    vertex 63.65109140518417 12.2612551159618 0.0
  endloop
endfacet
facet normal -0.0 -0.0 -1.0
  outer loop
    vertex 63.31855388813097 4.1268758526603 0.0
    vertex 63.65109140518417 12.2612551159618 0.0
    vertex 64.3161664392906 6.25 0.0
  endloop
endfacet
facet normal -0.0 -0.0 -1.0
  outer loop
    vertex 64.3161664392906 6.25 0.0
    vertex 63.65109140518417 12.2612551159618 0.0
    vertex 64.3993008185539 10.509038199181447 0.0
  endloop
endfacet
facet normal -0.0 -0.0 -1.0
  outer loop
    vertex 64.3161664392906 6.25 0.0
    vertex 64.3993008185539 10.509038199181447 0.0
    vertex 64.6487039563438 8.560709413369713 0.0
  endloop
endfacet
facet normal 0.0 0.0 1.0
  outer loop
    vertex 7.938800306957708 0.4263301500682128 0.8000000000000002
    vertex 9.447476125511596 25.426330150068214 0.8000000000000002
    vertex 0.05115961800818554 0.4263301500682128 0.8000000000000002
  endloop
endfacet
facet normal 0.0 0.0 1.0
  outer loop
    vertex 9.447476125511596 25.426330150068214 0.8000000000000002
    vertex 7.938800306957708 0.4263301500682128 0.8000000000000002
    vertex 9.157305167121418 4.553206002728513 0.8000000000000002
  endloop
endfacet
facet normal 0.0 0.0 1.0
  outer loop
    vertex 9.447476125511596 25.426330150068214 0.8000000000000002
    vertex 9.157305167121418 4.553206002728513 0.8000000000000002
    vertex 10.835180763983628 9.959072305593452 0.8000000000000002
  endloop
endfacet
facet normal 0.0 0.0 1.0
  outer loop
    vertex 10.835180763983628 9.959072305593452 0.8000000000000002
    vertex 9.157305167121418 4.553206002728513 0.8000000000000002
    vertex 17.927715723055933 4.553206002728513 0.8000000000000002
  endloop
endfacet
facet normal 0.0 0.0 1.0
  outer loop
    vertex 10.835180763983628 9.959072305593452 0.8000000000000002
    vertex 17.927715723055933 4.553206002728513 0.8000000000000002
    vertex 16.32524727148704 9.959072305593452 0.8000000000000002
  endloop
endfacet
facet normal 0.0 0.0 1.0
  outer loop
    vertex 16.32524727148704 9.959072305593452 0.8000000000000002
    vertex 17.927715723055933 4.553206002728513 0.8000000000000002
    vertex 17.873891541609822 25.426330150068214 0.8000000000000002
  endloop
endfacet
facet normal 0.0 0.0 1.0
  outer loop
    vertex 17.873891541609822 25.426330150068214 0.8000000000000002
    vertex 17.927715723055933 4.553206002728513 0.8000000000000002
    vertex 27.26807639836289 0.4263301500682128 0.8000000000000002
  endloop
endfacet
facet normal 0.0 0.0 1.0
  outer loop
    vertex 27.26807639836289 0.4263301500682128 0.8000000000000002
    vertex 17.927715723055933 4.553206002728513 0.8000000000000002
    vertex 19.178461800818553 0.4263301500682128 0.8000000000000002
  endloop
endfacet
facet normal 0.0 0.0 1.0
  outer loop
    vertex 9.447476125511596 25.426330150068214 0.8000000000000002
    vertex 13.56582537517053 18.946111869031377 0.8000000000000002
    vertex 17.873891541609822 25.426330150068214 0.8000000000000002
  endloop
endfacet
facet normal 0.0 0.0 1.0
  outer loop
    vertex 13.56582537517053 18.946111869031377 0.8000000000000002
    vertex 9.447476125511596 25.426330150068214 0.8000000000000002
    vertex 10.835180763983628 9.959072305593452 0.8000000000000002
  endloop
endfacet
facet normal 0.0 0.0 1.0
  outer loop
    vertex 17.873891541609822 25.426330150068214 0.8000000000000002
    vertex 13.56582537517053 18.946111869031377 0.8000000000000002
    vertex 16.32524727148704 9.959072305593452 0.8000000000000002
  endloop
endfacet
facet normal 0.0 -1.0 0.0
  outer loop
    vertex 17.927715723055933 4.553206002728513 0.8000000000000002
    vertex 9.157305167121418 4.553206002728513 0.0
    vertex 17.927715723055933 4.553206002728513 0.0
  endloop
endfacet
facet normal 0.0 -1.0 0.0
  outer loop
    vertex 9.157305167121418 4.553206002728513 0.0
    vertex 17.927715723055933 4.553206002728513 0.8000000000000002
    vertex 9.157305167121418 4.553206002728513 0.8000000000000002
  endloop
endfacet
facet normal 0.959068172836611 -0.28317528114552065 0.0
  outer loop
    vertex 9.157305167121418 4.553206002728513 0.0
    vertex 7.938800306957708 0.4263301500682128 0.8000000000000002
    vertex 7.938800306957708 0.4263301500682128 0.0
  endloop
endfacet
facet normal 0.959068172836611 -0.28317528114552065 0.0
  outer loop
    vertex 7.938800306957708 0.4263301500682128 0.8000000000000002
    vertex 9.157305167121418 4.553206002728513 0.0
    vertex 9.157305167121418 4.553206002728513 0.8000000000000002
  endloop
endfacet
facet normal 0.0 -1.0 0.0
  outer loop
    vertex 7.938800306957708 0.4263301500682128 0.8000000000000002
    vertex 0.05115961800818554 0.4263301500682128 0.0
    vertex 7.938800306957708 0.4263301500682128 0.0
  endloop
endfacet
facet normal 0.0 -1.0 0.0
  outer loop
    vertex 0.05115961800818554 0.4263301500682128 0.0
    vertex 7.938800306957708 0.4263301500682128 0.8000000000000002
    vertex 0.05115961800818554 0.4263301500682128 0.8000000000000002
  endloop
endfacet
facet normal -0.9360665116875427 0.35182308863563166 0.0
  outer loop
    vertex 9.447476125511596 25.426330150068214 0.8000000000000002
    vertex 0.05115961800818554 0.4263301500682128 0.0
    vertex 0.05115961800818554 0.4263301500682128 0.8000000000000002
  endloop
endfacet
facet normal -0.9360665116875427 0.35182308863563166 0.0
  outer loop
    vertex 0.05115961800818554 0.4263301500682128 0.0
    vertex 9.447476125511596 25.426330150068214 0.8000000000000002
    vertex 9.447476125511596 25.426330150068214 0.0
  endloop
endfacet
facet normal 0.0 1.0 0.0
  outer loop
    vertex 9.447476125511596 25.426330150068214 0.8000000000000002
    vertex 17.873891541609822 25.426330150068214 0.0
    vertex 9.447476125511596 25.426330150068214 0.0
  endloop
endfacet
facet normal 0.0 1.0 0.0
  outer loop
    vertex 17.873891541609822 25.426330150068214 0.0
    vertex 9.447476125511596 25.426330150068214 0.8000000000000002
    vertex 17.873891541609822 25.426330150068214 0.8000000000000002
  endloop
endfacet
facet normal 0.936092795164907 0.35175315043415273 0.0
  outer loop
    vertex 17.873891541609822 25.426330150068214 0.0
    vertex 27.26807639836289 0.4263301500682128 0.8000000000000002
    vertex 27.26807639836289 0.4263301500682128 0.0
  endloop
endfacet
facet normal 0.936092795164907 0.35175315043415273 0.0
  outer loop
    vertex 27.26807639836289 0.4263301500682128 0.8000000000000002
    vertex 17.873891541609822 25.426330150068214 0.0
    vertex 17.873891541609822 25.426330150068214 0.8000000000000002
  endloop
endfacet
facet normal 0.0 -1.0 0.0
  outer loop
    vertex 27.26807639836289 0.4263301500682128 0.8000000000000002
    vertex 19.178461800818553 0.4263301500682128 0.0
    vertex 27.26807639836289 0.4263301500682128 0.0
  endloop
endfacet
facet normal 0.0 -1.0 0.0
  outer loop
    vertex 19.178461800818553 0.4263301500682128 0.0
    vertex 27.26807639836289 0.4263301500682128 0.8000000000000002
    vertex 19.178461800818553 0.4263301500682128 0.8000000000000002
  endloop
endfacet
facet normal -0.9570129706079827 -0.2900451242273938 0.0
  outer loop
    vertex 17.927715723055933 4.553206002728513 0.8000000000000002
    vertex 19.178461800818553 0.4263301500682128 0.0
    vertex 19.178461800818553 0.4263301500682128 0.8000000000000002
  endloop
endfacet
facet normal -0.9570129706079827 -0.2900451242273938 0.0
  outer loop
    vertex 19.178461800818553 0.4263301500682128 0.0
    vertex 17.927715723055933 4.553206002728513 0.8000000000000002
    vertex 17.927715723055933 4.553206002728513 0.0
  endloop
endfacet
facet normal -0.9559528827224616 -0.29352016287576554 0.0
  outer loop
    vertex 13.56582537517053 18.946111869031377 0.8000000000000002
    vertex 16.32524727148704 9.959072305593452 0.0
    vertex 16.32524727148704 9.959072305593452 0.8000000000000002
  endloop
endfacet
facet normal -0.9559528827224616 -0.29352016287576554 0.0
  outer loop
    vertex 16.32524727148704 9.959072305593452 0.0
    vertex 13.56582537517053 18.946111869031377 0.8000000000000002
    vertex 13.56582537517053 18.946111869031377 0.0
  endloop
endfacet
facet normal 0.9568084542356068 -0.2907190772950218 0.0
  outer loop
    vertex 13.56582537517053 18.946111869031377 0.0
    vertex 10.835180763983628 9.959072305593452 0.8000000000000002
    vertex 10.835180763983628 9.959072305593452 0.0
  endloop
endfacet
facet normal 0.9568084542356068 -0.2907190772950218 0.0
  outer loop
    vertex 10.835180763983628 9.959072305593452 0.8000000000000002
    vertex 13.56582537517053 18.946111869031377 0.0
    vertex 13.56582537517053 18.946111869031377 0.8000000000000002
  endloop
endfacet
facet normal 0.0 1.0 0.0
  outer loop
    vertex 10.835180763983628 9.959072305593452 0.8000000000000002
    vertex 16.32524727148704 9.959072305593452 0.0
    vertex 10.835180763983628 9.959072305593452 0.0
  endloop
endfacet
facet normal 0.0 1.0 0.0
  outer loop
    vertex 16.32524727148704 9.959072305593452 0.0
    vertex 10.835180763983628 9.959072305593452 0.8000000000000002
    vertex 16.32524727148704 9.959072305593452 0.8000000000000002
  endloop
endfacet
facet normal 0.0 0.0 1.0
  outer loop
    vertex 37.772851296043655 0.4263301500682128 0.8000000000000002
    vertex 30.03069577080491 25.426330150068214 0.8000000000000002
    vertex 30.03069577080491 0.4263301500682128 0.8000000000000002
  endloop
endfacet
facet normal 0.0 0.0 1.0
  outer loop
    vertex 30.03069577080491 25.426330150068214 0.8000000000000002
    vertex 37.772851296043655 0.4263301500682128 0.8000000000000002
    vertex 37.772851296043655 25.426330150068214 0.8000000000000002
  endloop
endfacet
facet normal 0.0 1.0 0.0
  outer loop
    vertex 30.03069577080491 25.426330150068214 0.8000000000000002
    vertex 37.772851296043655 25.426330150068214 0.0
    vertex 30.03069577080491 25.426330150068214 0.0
  endloop
endfacet
facet normal 0.0 1.0 0.0
  outer loop
    vertex 37.772851296043655 25.426330150068214 0.0
    vertex 30.03069577080491 25.426330150068214 0.8000000000000002
    vertex 37.772851296043655 25.426330150068214 0.8000000000000002
  endloop
endfacet
facet normal 1.0 0.0 0.0
  outer loop
    vertex 37.772851296043655 25.426330150068214 0.0
    vertex 37.772851296043655 0.4263301500682128 0.8000000000000002
    vertex 37.772851296043655 0.4263301500682128 0.0
  endloop
endfacet
facet normal 1.0 0.0 0.0
  outer loop
    vertex 37.772851296043655 0.4263301500682128 0.8000000000000002
    vertex 37.772851296043655 25.426330150068214 0.0
    vertex 37.772851296043655 25.426330150068214 0.8000000000000002
  endloop
endfacet
facet normal 0.0 -1.0 0.0
  outer loop
    vertex 37.772851296043655 0.4263301500682128 0.8000000000000002
    vertex 30.03069577080491 0.4263301500682128 0.0
    vertex 37.772851296043655 0.4263301500682128 0.0
  endloop
endfacet
facet normal 0.0 -1.0 0.0
  outer loop
    vertex 30.03069577080491 0.4263301500682128 0.0
    vertex 37.772851296043655 0.4263301500682128 0.8000000000000002
    vertex 30.03069577080491 0.4263301500682128 0.8000000000000002
  endloop
endfacet
facet normal -1.0 0.0 0.0
  outer loop
    vertex 30.03069577080491 25.426330150068214 0.8000000000000002
    vertex 30.03069577080491 0.4263301500682128 0.0
    vertex 30.03069577080491 0.4263301500682128 0.8000000000000002
  endloop
endfacet
facet normal -1.0 0.0 0.0
  outer loop
    vertex 30.03069577080491 0.4263301500682128 0.0
    vertex 30.03069577080491 25.426330150068214 0.8000000000000002
    vertex 30.03069577080491 25.426330150068214 0.0
  endloop
endfacet
facet normal 0.0 0.0 1.0
  outer loop
    vertex 42.26317360163711 6.887363574351978 0.8000000000000002
    vertex 49.317871759890856 9.157571623465211 0.8000000000000002
    vertex 41.967939972714866 8.697135061391542 0.8000000000000002
  endloop
endfacet
facet normal 0.0 0.0 1.0
  outer loop
    vertex 49.317871759890856 9.157571623465211 0.8000000000000002
    vertex 42.26317360163711 6.887363574351978 0.8000000000000002
    vertex 42.82486357435198 5.243860845839018 0.8000000000000002
  endloop
endfacet
facet normal 0.0 0.0 1.0
  outer loop
    vertex 49.317871759890856 9.157571623465211 0.8000000000000002
    vertex 42.82486357435198 5.243860845839018 0.8000000000000002
    vertex 43.65300989085949 3.7666268758526606 0.8000000000000002
  endloop
endfacet
facet normal 0.0 0.0 1.0
  outer loop
    vertex 49.317871759890856 9.157571623465211 0.8000000000000002
    vertex 43.65300989085949 3.7666268758526606 0.8000000000000002
    vertex 44.74761255115962 2.4556616643929057 0.8000000000000002
  endloop
endfacet
facet normal 0.0 0.0 1.0
  outer loop
    vertex 49.317871759890856 9.157571623465211 0.8000000000000002
    vertex 44.74761255115962 2.4556616643929057 0.8000000000000002
    vertex 46.22058321964529 1.3813096862210095 0.8000000000000002
  endloop
endfacet
facet normal 0.0 0.0 1.0
  outer loop
    vertex 49.317871759890856 9.157571623465211 0.8000000000000002
    vertex 46.22058321964529 1.3813096862210095 0.8000000000000002
    vertex 48.18383356070941 0.6139154160982264 0.8000000000000002
  endloop
endfacet
facet normal 0.0 0.0 1.0
  outer loop
    vertex 49.317871759890856 9.157571623465211 0.8000000000000002
    vertex 48.18383356070941 0.6139154160982264 0.8000000000000002
    vertex 50.63736357435198 0.1534788540245566 0.8000000000000002
  endloop
endfacet
facet normal 0.0 0.0 1.0
  outer loop
    vertex 49.317871759890856 9.157571623465211 0.8000000000000002
    vertex 50.63736357435198 0.1534788540245566 0.8000000000000002
    vertex 49.68025238744884 7.580150068212823 0.8000000000000002
  endloop
endfacet
facet normal 0.0 0.0 1.0
  outer loop
    vertex 49.68025238744884 7.580150068212823 0.8000000000000002
    vertex 50.63736357435198 0.1534788540245566 0.8000000000000002
    vertex 50.28990450204638 6.429058663028648 0.8000000000000002
  endloop
endfacet
facet normal 0.0 0.0 1.0
  outer loop
    vertex 50.28990450204638 6.429058663028648 0.8000000000000002
    vertex 50.63736357435198 0.1534788540245566 0.8000000000000002
    vertex 50.950716234652106 5.765049454297407 0.8000000000000002
  endloop
endfacet
facet normal 0.0 0.0 1.0
  outer loop
    vertex 50.950716234652106 5.765049454297407 0.8000000000000002
    vertex 50.63736357435198 0.1534788540245566 0.8000000000000002
    vertex 53.58117326057298 0.0 0.8000000000000002
  endloop
endfacet
facet normal 0.0 0.0 1.0
  outer loop
    vertex 50.950716234652106 5.765049454297407 0.8000000000000002
    vertex 53.58117326057298 0.0 0.8000000000000002
    vertex 51.739427012278306 5.29075716234652 0.8000000000000002
  endloop
endfacet
facet normal 0.0 0.0 1.0
  outer loop
    vertex 51.739427012278306 5.29075716234652 0.8000000000000002
    vertex 53.58117326057298 0.0 0.8000000000000002
    vertex 52.65603683492496 5.006181787175989 0.8000000000000002
  endloop
endfacet
facet normal 0.0 0.0 1.0
  outer loop
    vertex 52.65603683492496 5.006181787175989 0.8000000000000002
    vertex 53.58117326057298 0.0 0.8000000000000002
    vertex 53.70054570259209 4.911323328785811 0.8000000000000002
  endloop
endfacet
facet normal 0.0 0.0 1.0
  outer loop
    vertex 53.70054570259209 4.911323328785811 0.8000000000000002
    vertex 53.58117326057298 0.0 0.8000000000000002
    vertex 56.902285129604365 0.2621930422919509 0.8000000000000002
  endloop
endfacet
facet normal 0.0 0.0 1.0
  outer loop
    vertex 53.70054570259209 4.911323328785811 0.8000000000000002
    vertex 56.902285129604365 0.2621930422919509 0.8000000000000002
    vertex 55.16498976807639 5.105303547066848 0.8000000000000002
  endloop
endfacet
facet normal 0.0 0.0 1.0
  outer loop
    vertex 55.16498976807639 5.105303547066848 0.8000000000000002
    vertex 56.902285129604365 0.2621930422919509 0.8000000000000002
    vertex 56.25 5.687244201909959 0.8000000000000002
  endloop
endfacet
facet normal 0.0 0.0 1.0
  outer loop
    vertex 56.25 5.687244201909959 0.8000000000000002
    vertex 56.902285129604365 0.2621930422919509 0.8000000000000002
    vertex 56.921469986357444 6.5249829467939975 0.8000000000000002
  endloop
endfacet
facet normal 0.0 0.0 1.0
  outer loop
    vertex 56.921469986357444 6.5249829467939975 0.8000000000000002
    vertex 56.902285129604365 0.2621930422919509 0.8000000000000002
    vertex 59.60095497953615 1.0487721691678036 0.8000000000000002
  endloop
endfacet
facet normal 0.0 0.0 1.0
  outer loop
    vertex 56.921469986357444 6.5249829467939975 0.8000000000000002
    vertex 59.60095497953615 1.0487721691678036 0.8000000000000002
    vertex 57.14529331514325 7.486357435197817 0.8000000000000002
  endloop
endfacet
facet normal 0.0 0.0 1.0
  outer loop
    vertex 57.14529331514325 7.486357435197817 0.8000000000000002
    vertex 59.60095497953615 1.0487721691678036 0.8000000000000002
    vertex 57.552438608458395 16.142991132332877 0.8000000000000002
  endloop
endfacet
facet normal 0.0 0.0 1.0
  outer loop
    vertex 57.552438608458395 16.142991132332877 0.8000000000000002
    vertex 59.60095497953615 1.0487721691678036 0.8000000000000002
    vertex 60.46214188267394 15.032401091405184 0.8000000000000002
  endloop
endfacet
facet normal 0.0 0.0 1.0
  outer loop
    vertex 60.46214188267394 15.032401091405184 0.8000000000000002
    vertex 59.60095497953615 1.0487721691678036 0.8000000000000002
    vertex 61.72407912687585 2.34268417462483 0.8000000000000002
  endloop
endfacet
facet normal 0.0 0.0 1.0
  outer loop
    vertex 60.46214188267394 15.032401091405184 0.8000000000000002
    vertex 61.72407912687585 2.34268417462483 0.8000000000000002
    vertex 62.355047748976816 13.781122100954978 0.8000000000000002
  endloop
endfacet
facet normal 0.0 0.0 1.0
  outer loop
    vertex 62.355047748976816 13.781122100954978 0.8000000000000002
    vertex 61.72407912687585 2.34268417462483 0.8000000000000002
    vertex 63.31855388813097 4.1268758526603 0.8000000000000002
  endloop
endfacet
facet normal 0.0 0.0 1.0
  outer loop
    vertex 62.355047748976816 13.781122100954978 0.8000000000000002
    vertex 63.31855388813097 4.1268758526603 0.8000000000000002
    vertex 63.65109140518417 12.2612551159618 0.8000000000000002
  endloop
endfacet
facet normal 0.0 0.0 1.0
  outer loop
    vertex 63.65109140518417 12.2612551159618 0.8000000000000002
    vertex 63.31855388813097 4.1268758526603 0.8000000000000002
    vertex 64.3161664392906 6.25 0.8000000000000002
  endloop
endfacet
facet normal 0.0 0.0 1.0
  outer loop
    vertex 63.65109140518417 12.2612551159618 0.8000000000000002
    vertex 64.3161664392906 6.25 0.8000000000000002
    vertex 64.3993008185539 10.509038199181447 0.8000000000000002
  endloop
endfacet
facet normal 0.0 0.0 1.0
  outer loop
    vertex 64.3993008185539 10.509038199181447 0.8000000000000002
    vertex 64.3161664392906 6.25 0.8000000000000002
    vertex 64.6487039563438 8.560709413369713 0.8000000000000002
  endloop
endfacet
facet normal 0.0 0.0 1.0
  outer loop
    vertex 43.042291950886764 17.13527455661664 0.8000000000000002
    vertex 43.18511255115962 20.41055593451569 0.8000000000000002
    vertex 42.905866302864936 18.53683492496589 0.8000000000000002
  endloop
endfacet
facet normal 0.0 0.0 1.0
  outer loop
    vertex 43.18511255115962 20.41055593451569 0.8000000000000002
    vertex 43.042291950886764 17.13527455661664 0.8000000000000002
    vertex 43.45156889495225 15.863744884038198 0.8000000000000002
  endloop
endfacet
facet normal 0.0 0.0 1.0
  outer loop
    vertex 43.18511255115962 20.41055593451569 0.8000000000000002
    vertex 43.45156889495225 15.863744884038198 0.8000000000000002
    vertex 44.022851296043655 22.17769440654843 0.8000000000000002
  endloop
endfacet
facet normal 0.0 0.0 1.0
  outer loop
    vertex 44.022851296043655 22.17769440654843 0.8000000000000002
    vertex 43.45156889495225 15.863744884038198 0.8000000000000002
    vertex 44.1336971350614 14.72224590723056 0.8000000000000002
  endloop
endfacet
facet normal 0.0 0.0 1.0
  outer loop
    vertex 44.022851296043655 22.17769440654843 0.8000000000000002
    vertex 44.1336971350614 14.72224590723056 0.8000000000000002
    vertex 45.42121418826739 23.708219645293312 0.8000000000000002
  endloop
endfacet
facet normal 0.0 0.0 1.0
  outer loop
    vertex 45.42121418826739 23.708219645293312 0.8000000000000002
    vertex 44.1336971350614 14.72224590723056 0.8000000000000002
    vertex 45.08867667121419 13.710777626193723 0.8000000000000002
  endloop
endfacet
facet normal 0.0 0.0 1.0
  outer loop
    vertex 45.42121418826739 23.708219645293312 0.8000000000000002
    vertex 45.08867667121419 13.710777626193723 0.8000000000000002
    vertex 46.353811391541605 12.811221009549794 0.8000000000000002
  endloop
endfacet
facet normal 0.0 0.0 1.0
  outer loop
    vertex 45.42121418826739 23.708219645293312 0.8000000000000002
    vertex 46.353811391541605 12.811221009549794 0.8000000000000002
    vertex 47.382332878581174 24.872100954979537 0.8000000000000002
  endloop
endfacet
facet normal 0.0 0.0 1.0
  outer loop
    vertex 47.382332878581174 24.872100954979537 0.8000000000000002
    vertex 46.353811391541605 12.811221009549794 0.8000000000000002
    vertex 47.98345839017735 12.005457025920872 0.8000000000000002
  endloop
endfacet
facet normal 0.0 0.0 1.0
  outer loop
    vertex 47.382332878581174 24.872100954979537 0.8000000000000002
    vertex 47.98345839017735 12.005457025920872 0.8000000000000002
    vertex 50.04050136425648 25.6075204638472 0.8000000000000002
  endloop
endfacet
facet normal 0.0 0.0 1.0
  outer loop
    vertex 50.04050136425648 25.6075204638472 0.8000000000000002
    vertex 47.98345839017735 12.005457025920872 0.8000000000000002
    vertex 49.977617667121415 11.293485675306957 0.8000000000000002
  endloop
endfacet
facet normal 0.0 0.0 1.0
  outer loop
    vertex 50.04050136425648 25.6075204638472 0.8000000000000002
    vertex 49.977617667121415 11.293485675306957 0.8000000000000002
    vertex 50.051159618008185 19.23601637107776 0.8000000000000002
  endloop
endfacet
facet normal 0.0 0.0 1.0
  outer loop
    vertex 50.051159618008185 19.23601637107776 0.8000000000000002
    vertex 49.977617667121415 11.293485675306957 0.8000000000000002
    vertex 50.1918485675307 18.66899727148704 0.8000000000000002
  endloop
endfacet
facet normal 0.0 0.0 1.0
  outer loop
    vertex 50.1918485675307 18.66899727148704 0.8000000000000002
    vertex 49.977617667121415 11.293485675306957 0.8000000000000002
    vertex 52.3362892223738 10.675306957708049 0.8000000000000002
  endloop
endfacet
facet normal 0.0 0.0 1.0
  outer loop
    vertex 50.1918485675307 18.66899727148704 0.8000000000000002
    vertex 52.3362892223738 10.675306957708049 0.8000000000000002
    vertex 50.61391541609822 18.161664392905866 0.8000000000000002
  endloop
endfacet
facet normal 0.0 0.0 1.0
  outer loop
    vertex 50.61391541609822 18.161664392905866 0.8000000000000002
    vertex 52.3362892223738 10.675306957708049 0.8000000000000002
    vertex 51.534788540245565 17.684174624829463 0.8000000000000002
  endloop
endfacet
facet normal 0.0 0.0 1.0
  outer loop
    vertex 51.534788540245565 17.684174624829463 0.8000000000000002
    vertex 52.3362892223738 10.675306957708049 0.8000000000000002
    vertex 53.20600272851296 17.240791268758525 0.8000000000000002
  endloop
endfacet
facet normal 0.0 0.0 1.0
  outer loop
    vertex 53.20600272851296 17.240791268758525 0.8000000000000002
    vertex 52.3362892223738 10.675306957708049 0.8000000000000002
    vertex 54.877216916780355 9.971862210095498 0.8000000000000002
  endloop
endfacet
facet normal 0.0 0.0 1.0
  outer loop
    vertex 53.20600272851296 17.240791268758525 0.8000000000000002
    vertex 54.877216916780355 9.971862210095498 0.8000000000000002
    vertex 57.552438608458395 16.142991132332877 0.8000000000000002
  endloop
endfacet
facet normal 0.0 0.0 1.0
  outer loop
    vertex 57.552438608458395 16.142991132332877 0.8000000000000002
    vertex 54.877216916780355 9.971862210095498 0.8000000000000002
    vertex 56.29263301500682 9.225784447476126 0.8000000000000002
  endloop
endfacet
facet normal 0.0 0.0 1.0
  outer loop
    vertex 57.552438608458395 16.142991132332877 0.8000000000000002
    vertex 56.29263301500682 9.225784447476126 0.8000000000000002
    vertex 56.932128240109144 8.407230559345157 0.8000000000000002
  endloop
endfacet
facet normal 0.0 0.0 1.0
  outer loop
    vertex 57.552438608458395 16.142991132332877 0.8000000000000002
    vertex 56.932128240109144 8.407230559345157 0.8000000000000002
    vertex 57.14529331514325 7.486357435197817 0.8000000000000002
  endloop
endfacet
facet normal 0.0 0.0 1.0
  outer loop
    vertex 50.04050136425648 25.6075204638472 0.8000000000000002
    vertex 50.22169167803548 19.992752387448842 0.8000000000000002
    vertex 53.5300136425648 25.852660300136424 0.8000000000000002
  endloop
endfacet
facet normal 0.0 0.0 1.0
  outer loop
    vertex 50.22169167803548 19.992752387448842 0.8000000000000002
    vertex 50.04050136425648 25.6075204638472 0.8000000000000002
    vertex 50.051159618008185 19.23601637107776 0.8000000000000002
  endloop
endfacet
facet normal 0.0 0.0 1.0
  outer loop
    vertex 53.5300136425648 25.852660300136424 0.8000000000000002
    vertex 50.22169167803548 19.992752387448842 0.8000000000000002
    vertex 50.73328785811732 20.625852660300136 0.8000000000000002
  endloop
endfacet
facet normal 0.0 0.0 1.0
  outer loop
    vertex 53.5300136425648 25.852660300136424 0.8000000000000002
    vertex 50.73328785811732 20.625852660300136 0.8000000000000002
    vertex 51.58168485675306 21.05431446111869 0.8000000000000002
  endloop
endfacet
facet normal 0.0 0.0 1.0
  outer loop
    vertex 53.5300136425648 25.852660300136424 0.8000000000000002
    vertex 51.58168485675306 21.05431446111869 0.8000000000000002
    vertex 52.76261937244202 21.197135061391542 0.8000000000000002
  endloop
endfacet
facet normal 0.0 0.0 1.0
  outer loop
    vertex 53.5300136425648 25.852660300136424 0.8000000000000002
    vertex 52.76261937244202 21.197135061391542 0.8000000000000002
    vertex 54.222800136425654 21.005286493860844 0.8000000000000002
  endloop
endfacet
facet normal 0.0 0.0 1.0
  outer loop
    vertex 53.5300136425648 25.852660300136424 0.8000000000000002
    vertex 54.222800136425654 21.005286493860844 0.8000000000000002
    vertex 55.78370139836289 25.741281548431104 0.8000000000000002
  endloop
endfacet
facet normal 0.0 0.0 1.0
  outer loop
    vertex 55.78370139836289 25.741281548431104 0.8000000000000002
    vertex 54.222800136425654 21.005286493860844 0.8000000000000002
    vertex 55.329126875852666 20.42974079126876 0.8000000000000002
  endloop
endfacet
facet normal 0.0 0.0 1.0
  outer loop
    vertex 55.78370139836289 25.741281548431104 0.8000000000000002
    vertex 55.329126875852666 20.42974079126876 0.8000000000000002
    vertex 56.09865279672579 19.43212824010914 0.8000000000000002
  endloop
endfacet
facet normal 0.0 0.0 1.0
  outer loop
    vertex 55.78370139836289 25.741281548431104 0.8000000000000002
    vertex 56.09865279672579 19.43212824010914 0.8000000000000002
    vertex 57.75281377899046 25.407145293315143 0.8000000000000002
  endloop
endfacet
facet normal 0.0 0.0 1.0
  outer loop
    vertex 57.75281377899046 25.407145293315143 0.8000000000000002
    vertex 56.09865279672579 19.43212824010914 0.8000000000000002
    vertex 56.548431105047754 17.974079126875854 0.8000000000000002
  endloop
endfacet
facet normal 0.0 0.0 1.0
  outer loop
    vertex 57.75281377899046 25.407145293315143 0.8000000000000002
    vertex 56.548431105047754 17.974079126875854 0.8000000000000002
    vertex 63.830150068212824 18.400409276944064 0.8000000000000002
  endloop
endfacet
facet normal 0.0 0.0 1.0
  outer loop
    vertex 57.75281377899046 25.407145293315143 0.8000000000000002
    vertex 63.830150068212824 18.400409276944064 0.8000000000000002
    vertex 59.43735078444749 24.85025153478854 0.8000000000000002
  endloop
endfacet
facet normal 0.0 0.0 1.0
  outer loop
    vertex 59.43735078444749 24.85025153478854 0.8000000000000002
    vertex 63.830150068212824 18.400409276944064 0.8000000000000002
    vertex 60.83731241473397 24.070600272851294 0.8000000000000002
  endloop
endfacet
facet normal 0.0 0.0 1.0
  outer loop
    vertex 60.83731241473397 24.070600272851294 0.8000000000000002
    vertex 63.830150068212824 18.400409276944064 0.8000000000000002
    vertex 61.96762022510232 23.047940825375168 0.8000000000000002
  endloop
endfacet
facet normal 0.0 0.0 1.0
  outer loop
    vertex 61.96762022510232 23.047940825375168 0.8000000000000002
    vertex 63.830150068212824 18.400409276944064 0.8000000000000002
    vertex 62.84319577080492 21.762022510231922 0.8000000000000002
  endloop
endfacet
facet normal 0.0 0.0 1.0
  outer loop
    vertex 62.84319577080492 21.762022510231922 0.8000000000000002
    vertex 63.830150068212824 18.400409276944064 0.8000000000000002
    vertex 63.46403905184175 20.212845327421554 0.8000000000000002
  endloop
endfacet
facet normal -0.06252245025498161 0.9980435577739649 0.0
  outer loop
    vertex 41.967939972714866 8.697135061391542 0.8000000000000002
    vertex 49.317871759890856 9.157571623465211 0.0
    vertex 41.967939972714866 8.697135061391542 0.0
  endloop
endfacet
facet normal -0.06252245025498161 0.9980435577739649 0.0
  outer loop
    vertex 49.317871759890856 9.157571623465211 0.0
    vertex 41.967939972714866 8.697135061391542 0.8000000000000002
    vertex 49.317871759890856 9.157571623465211 0.8000000000000002
  endloop
endfacet
facet normal 0.9746126946621942 0.22389751093591126 0.0
  outer loop
    vertex 49.317871759890856 9.157571623465211 0.0
    vertex 49.68025238744884 7.580150068212823 0.8000000000000002
    vertex 49.68025238744884 7.580150068212823 0.0
  endloop
endfacet
facet normal 0.9746126946621942 0.22389751093591126 0.0
  outer loop
    vertex 49.68025238744884 7.580150068212823 0.8000000000000002
    vertex 49.317871759890856 9.157571623465211 0.0
    vertex 49.317871759890856 9.157571623465211 0.8000000000000002
  endloop
endfacet
facet normal 0.8837082901935754 0.46803809443585664 0.0
  outer loop
    vertex 49.68025238744884 7.580150068212823 0.0
    vertex 50.28990450204638 6.429058663028648 0.8000000000000002
    vertex 50.28990450204638 6.429058663028648 0.0
  endloop
endfacet
facet normal 0.8837082901935754 0.46803809443585664 0.0
  outer loop
    vertex 50.28990450204638 6.429058663028648 0.8000000000000002
    vertex 49.68025238744884 7.580150068212823 0.0
    vertex 49.68025238744884 7.580150068212823 0.8000000000000002
  endloop
endfacet
facet normal 0.7088113300653932 0.7053981133877012 0.0
  outer loop
    vertex 50.28990450204638 6.429058663028648 0.0
    vertex 50.950716234652106 5.765049454297407 0.8000000000000002
    vertex 50.950716234652106 5.765049454297407 0.0
  endloop
endfacet
facet normal 0.7088113300653932 0.7053981133877012 0.0
  outer loop
    vertex 50.950716234652106 5.765049454297407 0.8000000000000002
    vertex 50.28990450204638 6.429058663028648 0.0
    vertex 50.28990450204638 6.429058663028648 0.8000000000000002
  endloop
endfacet
facet normal 0.5153470335242821 0.8569815838381374 0.0
  outer loop
    vertex 50.950716234652106 5.765049454297407 0.8000000000000002
    vertex 51.739427012278306 5.29075716234652 0.0
    vertex 50.950716234652106 5.765049454297407 0.0
  endloop
endfacet
facet normal 0.5153470335242821 0.8569815838381374 0.0
  outer loop
    vertex 51.739427012278306 5.29075716234652 0.0
    vertex 50.950716234652106 5.765049454297407 0.8000000000000002
    vertex 51.739427012278306 5.29075716234652 0.8000000000000002
  endloop
endfacet
facet normal 0.29650400014155204 0.9550316109428308 0.0
  outer loop
    vertex 51.739427012278306 5.29075716234652 0.8000000000000002
    vertex 52.65603683492496 5.006181787175989 0.0
    vertex 51.739427012278306 5.29075716234652 0.0
  endloop
endfacet
facet normal 0.29650400014155204 0.9550316109428308 0.0
  outer loop
    vertex 52.65603683492496 5.006181787175989 0.0
    vertex 51.739427012278306 5.29075716234652 0.8000000000000002
    vertex 52.65603683492496 5.006181787175989 0.8000000000000002
  endloop
endfacet
facet normal 0.09044411872012366 0.9959015319743918 0.0
  outer loop
    vertex 52.65603683492496 5.006181787175989 0.8000000000000002
    vertex 53.70054570259209 4.911323328785811 0.0
    vertex 52.65603683492496 5.006181787175989 0.0
  endloop
endfacet
facet normal 0.09044411872012366 0.9959015319743918 0.0
  outer loop
    vertex 53.70054570259209 4.911323328785811 0.0
    vertex 52.65603683492496 5.006181787175989 0.8000000000000002
    vertex 53.70054570259209 4.911323328785811 0.8000000000000002
  endloop
endfacet
facet normal -0.13131299459975374 0.9913409592311039 0.0
  outer loop
    vertex 53.70054570259209 4.911323328785811 0.8000000000000002
    vertex 55.16498976807639 5.105303547066848 0.0
    vertex 53.70054570259209 4.911323328785811 0.0
  endloop
endfacet
facet normal -0.13131299459975374 0.9913409592311039 0.0
  outer loop
    vertex 55.16498976807639 5.105303547066848 0.0
    vertex 53.70054570259209 4.911323328785811 0.8000000000000002
    vertex 55.16498976807639 5.105303547066848 0.8000000000000002
  endloop
endfacet
facet normal -0.47265375984048197 0.8812482188967286 0.0
  outer loop
    vertex 55.16498976807639 5.105303547066848 0.8000000000000002
    vertex 56.25 5.687244201909959 0.0
    vertex 55.16498976807639 5.105303547066848 0.0
  endloop
endfacet
facet normal -0.47265375984048197 0.8812482188967286 0.0
  outer loop
    vertex 56.25 5.687244201909959 0.0
    vertex 55.16498976807639 5.105303547066848 0.8000000000000002
    vertex 56.25 5.687244201909959 0.8000000000000002
  endloop
endfacet
facet normal -0.7802873601669065 0.6254211665460008 0.0
  outer loop
    vertex 56.921469986357444 6.5249829467939975 0.8000000000000002
    vertex 56.25 5.687244201909959 0.0
    vertex 56.25 5.687244201909959 0.8000000000000002
  endloop
endfacet
facet normal -0.7802873601669065 0.6254211665460008 0.0
  outer loop
    vertex 56.25 5.687244201909959 0.0
    vertex 56.921469986357444 6.5249829467939975 0.8000000000000002
    vertex 56.921469986357444 6.5249829467939975 0.0
  endloop
endfacet
facet normal -0.9739525966717032 0.22675171319407206 0.0
  outer loop
    vertex 57.14529331514325 7.486357435197817 0.8000000000000002
    vertex 56.921469986357444 6.5249829467939975 0.0
    vertex 56.921469986357444 6.5249829467939975 0.8000000000000002
  endloop
endfacet
facet normal -0.9739525966717032 0.22675171319407206 0.0
  outer loop
    vertex 56.921469986357444 6.5249829467939975 0.0
    vertex 57.14529331514325 7.486357435197817 0.8000000000000002
    vertex 57.14529331514325 7.486357435197817 0.0
  endloop
endfacet
facet normal -0.9742389381801003 -0.22551827272687017 0.0
  outer loop
    vertex 56.932128240109144 8.407230559345157 0.8000000000000002
    vertex 57.14529331514325 7.486357435197817 0.0
    vertex 57.14529331514325 7.486357435197817 0.8000000000000002
  endloop
endfacet
facet normal -0.9742389381801003 -0.22551827272687017 0.0
  outer loop
    vertex 57.14529331514325 7.486357435197817 0.0
    vertex 56.932128240109144 8.407230559345157 0.8000000000000002
    vertex 56.932128240109144 8.407230559345157 0.0
  endloop
endfacet
facet normal -0.7880243737245597 -0.6156440419723198 0.0
  outer loop
    vertex 56.29263301500682 9.225784447476126 0.8000000000000002
    vertex 56.932128240109144 8.407230559345157 0.0
    vertex 56.932128240109144 8.407230559345157 0.8000000000000002
  endloop
endfacet
facet normal -0.7880243737245597 -0.6156440419723198 0.0
  outer loop
    vertex 56.932128240109144 8.407230559345157 0.0
    vertex 56.29263301500682 9.225784447476126 0.8000000000000002
    vertex 56.29263301500682 9.225784447476126 0.0
  endloop
endfacet
facet normal -0.46629543603063606 -0.8846290557838349 0.0
  outer loop
    vertex 56.29263301500682 9.225784447476126 0.8000000000000002
    vertex 54.877216916780355 9.971862210095498 0.0
    vertex 56.29263301500682 9.225784447476126 0.0
  endloop
endfacet
facet normal -0.46629543603063606 -0.8846290557838349 0.0
  outer loop
    vertex 54.877216916780355 9.971862210095498 0.0
    vertex 56.29263301500682 9.225784447476126 0.8000000000000002
    vertex 54.877216916780355 9.971862210095498 0.8000000000000002
  endloop
endfacet
facet normal -0.2668097658187448 -0.9637492147149831 0.0
  outer loop
    vertex 54.877216916780355 9.971862210095498 0.8000000000000002
    vertex 52.3362892223738 10.675306957708049 0.0
    vertex 54.877216916780355 9.971862210095498 0.0
  endloop
endfacet
facet normal -0.2668097658187448 -0.9637492147149831 0.0
  outer loop
    vertex 52.3362892223738 10.675306957708049 0.0
    vertex 54.877216916780355 9.971862210095498 0.8000000000000002
    vertex 52.3362892223738 10.675306957708049 0.8000000000000002
  endloop
endfacet
facet normal -0.25352495733884156 -0.967328845846302 0.0
  outer loop
    vertex 52.3362892223738 10.675306957708049 0.8000000000000002
    vertex 49.977617667121415 11.293485675306957 0.0
    vertex 52.3362892223738 10.675306957708049 0.0
  endloop
endfacet
facet normal -0.25352495733884156 -0.967328845846302 0.0
  outer loop
    vertex 49.977617667121415 11.293485675306957 0.0
    vertex 52.3362892223738 10.675306957708049 0.8000000000000002
    vertex 49.977617667121415 11.293485675306957 0.8000000000000002
  endloop
endfacet
facet normal -0.3362407351519207 -0.9417760710617445 0.0
  outer loop
    vertex 49.977617667121415 11.293485675306957 0.8000000000000002
    vertex 47.98345839017735 12.005457025920872 0.0
    vertex 49.977617667121415 11.293485675306957 0.0
  endloop
endfacet
facet normal -0.3362407351519207 -0.9417760710617445 0.0
  outer loop
    vertex 47.98345839017735 12.005457025920872 0.0
    vertex 49.977617667121415 11.293485675306957 0.8000000000000002
    vertex 47.98345839017735 12.005457025920872 0.8000000000000002
  endloop
endfacet
facet normal -0.4432224957579561 -0.8964116349390434 0.0
  outer loop
    vertex 47.98345839017735 12.005457025920872 0.8000000000000002
    vertex 46.353811391541605 12.811221009549794 0.0
    vertex 47.98345839017735 12.005457025920872 0.0
  endloop
endfacet
facet normal -0.4432224957579561 -0.8964116349390434 0.0
  outer loop
    vertex 46.353811391541605 12.811221009549794 0.0
    vertex 47.98345839017735 12.005457025920872 0.8000000000000002
    vertex 46.353811391541605 12.811221009549794 0.8000000000000002
  endloop
endfacet
facet normal -0.5794832521976162 -0.8149841473442744 0.0
  outer loop
    vertex 46.353811391541605 12.811221009549794 0.8000000000000002
    vertex 45.08867667121419 13.710777626193723 0.0
    vertex 46.353811391541605 12.811221009549794 0.0
  endloop
endfacet
facet normal -0.5794832521976162 -0.8149841473442744 0.0
  outer loop
    vertex 45.08867667121419 13.710777626193723 0.0
    vertex 46.353811391541605 12.811221009549794 0.8000000000000002
    vertex 45.08867667121419 13.710777626193723 0.8000000000000002
  endloop
endfacet
facet normal -0.7271193862687578 -0.6865110327679702 0.0
  outer loop
    vertex 44.1336971350614 14.72224590723056 0.8000000000000002
    vertex 45.08867667121419 13.710777626193723 0.0
    vertex 45.08867667121419 13.710777626193723 0.8000000000000002
  endloop
endfacet
facet normal -0.7271193862687578 -0.6865110327679702 0.0
  outer loop
    vertex 45.08867667121419 13.710777626193723 0.0
    vertex 44.1336971350614 14.72224590723056 0.8000000000000002
    vertex 44.1336971350614 14.72224590723056 0.0
  endloop
endfacet
facet normal -0.8584109290503209 -0.5129626466780649 0.0
  outer loop
    vertex 43.45156889495225 15.863744884038198 0.8000000000000002
    vertex 44.1336971350614 14.72224590723056 0.0
    vertex 44.1336971350614 14.72224590723056 0.8000000000000002
  endloop
endfacet
facet normal -0.8584109290503209 -0.5129626466780649 0.0
  outer loop
    vertex 44.1336971350614 14.72224590723056 0.0
    vertex 43.45156889495225 15.863744884038198 0.8000000000000002
    vertex 43.45156889495225 15.863744884038198 0.0
  endloop
endfacet
facet normal -0.9519039534990011 -0.30639657849423135 0.0
  outer loop
    vertex 43.042291950886764 17.13527455661664 0.8000000000000002
    vertex 43.45156889495225 15.863744884038198 0.0
    vertex 43.45156889495225 15.863744884038198 0.8000000000000002
  endloop
endfacet
facet normal -0.9519039534990011 -0.30639657849423135 0.0
  outer loop
    vertex 43.45156889495225 15.863744884038198 0.0
    vertex 43.042291950886764 17.13527455661664 0.8000000000000002
    vertex 43.042291950886764 17.13527455661664 0.0
  endloop
endfacet
facet normal -0.995296018218731 -0.0968805249672986 0.0
  outer loop
    vertex 42.905866302864936 18.53683492496589 0.8000000000000002
    vertex 43.042291950886764 17.13527455661664 0.0
    vertex 43.042291950886764 17.13527455661664 0.8000000000000002
  endloop
endfacet
facet normal -0.995296018218731 -0.0968805249672986 0.0
  outer loop
    vertex 43.042291950886764 17.13527455661664 0.0
    vertex 42.905866302864936 18.53683492496589 0.8000000000000002
    vertex 42.905866302864936 18.53683492496589 0.0
  endloop
endfacet
facet normal -0.9890762202076107 0.14740498844959918 0.0
  outer loop
    vertex 43.18511255115962 20.41055593451569 0.8000000000000002
    vertex 42.905866302864936 18.53683492496589 0.0
    vertex 42.905866302864936 18.53683492496589 0.8000000000000002
  endloop
endfacet
facet normal -0.9890762202076107 0.14740498844959918 0.0
  outer loop
    vertex 42.905866302864936 18.53683492496589 0.0
    vertex 43.18511255115962 20.41055593451569 0.8000000000000002
    vertex 43.18511255115962 20.41055593451569 0.0
  endloop
endfacet
facet normal -0.9036046285382512 0.42836745357724043 0.0
  outer loop
    vertex 44.022851296043655 22.17769440654843 0.8000000000000002
    vertex 43.18511255115962 20.41055593451569 0.0
    vertex 43.18511255115962 20.41055593451569 0.8000000000000002
  endloop
endfacet
facet normal -0.9036046285382512 0.42836745357724043 0.0
  outer loop
    vertex 43.18511255115962 20.41055593451569 0.0
    vertex 44.022851296043655 22.17769440654843 0.8000000000000002
    vertex 44.022851296043655 22.17769440654843 0.0
  endloop
endfacet
facet normal -0.7382628490850123 0.6745131323116552 0.0
  outer loop
    vertex 45.42121418826739 23.708219645293312 0.8000000000000002
    vertex 44.022851296043655 22.17769440654843 0.0
    vertex 44.022851296043655 22.17769440654843 0.8000000000000002
  endloop
endfacet
facet normal -0.7382628490850123 0.6745131323116552 0.0
  outer loop
    vertex 44.022851296043655 22.17769440654843 0.0
    vertex 45.42121418826739 23.708219645293312 0.8000000000000002
    vertex 45.42121418826739 23.708219645293312 0.0
  endloop
endfacet
facet normal -0.5103659695030296 0.8599573112505254 0.0
  outer loop
    vertex 45.42121418826739 23.708219645293312 0.8000000000000002
    vertex 47.382332878581174 24.872100954979537 0.0
    vertex 45.42121418826739 23.708219645293312 0.0
  endloop
endfacet
facet normal -0.5103659695030296 0.8599573112505254 0.0
  outer loop
    vertex 47.382332878581174 24.872100954979537 0.0
    vertex 45.42121418826739 23.708219645293312 0.8000000000000002
    vertex 47.382332878581174 24.872100954979537 0.8000000000000002
  endloop
endfacet
facet normal -0.26664715718954235 0.9637942174358257 0.0
  outer loop
    vertex 47.382332878581174 24.872100954979537 0.8000000000000002
    vertex 50.04050136425648 25.6075204638472 0.0
    vertex 47.382332878581174 24.872100954979537 0.0
  endloop
endfacet
facet normal -0.26664715718954235 0.9637942174358257 0.0
  outer loop
    vertex 50.04050136425648 25.6075204638472 0.0
    vertex 47.382332878581174 24.872100954979537 0.8000000000000002
    vertex 50.04050136425648 25.6075204638472 0.8000000000000002
  endloop
endfacet
facet normal -0.07007774968469764 0.9975415324682622 0.0
  outer loop
    vertex 50.04050136425648 25.6075204638472 0.8000000000000002
    vertex 53.5300136425648 25.852660300136424 0.0
    vertex 50.04050136425648 25.6075204638472 0.0
  endloop
endfacet
facet normal -0.07007774968469764 0.9975415324682622 0.0
  outer loop
    vertex 53.5300136425648 25.852660300136424 0.0
    vertex 50.04050136425648 25.6075204638472 0.8000000000000002
    vertex 53.5300136425648 25.852660300136424 0.8000000000000002
  endloop
endfacet
facet normal 0.0493604245783349 0.998781031300378 0.0
  outer loop
    vertex 53.5300136425648 25.852660300136424 0.8000000000000002
    vertex 55.78370139836289 25.741281548431104 0.0
    vertex 53.5300136425648 25.852660300136424 0.0
  endloop
endfacet
facet normal 0.0493604245783349 0.998781031300378 0.0
  outer loop
    vertex 55.78370139836289 25.741281548431104 0.0
    vertex 53.5300136425648 25.852660300136424 0.8000000000000002
    vertex 55.78370139836289 25.741281548431104 0.8000000000000002
  endloop
endfacet
facet normal 0.16729725995192413 0.9859065000356668 0.0
  outer loop
    vertex 55.78370139836289 25.741281548431104 0.8000000000000002
    vertex 57.75281377899046 25.407145293315143 0.0
    vertex 55.78370139836289 25.741281548431104 0.0
  endloop
endfacet
facet normal 0.16729725995192413 0.9859065000356668 0.0
  outer loop
    vertex 57.75281377899046 25.407145293315143 0.0
    vertex 55.78370139836289 25.741281548431104 0.8000000000000002
    vertex 57.75281377899046 25.407145293315143 0.8000000000000002
  endloop
endfacet
facet normal 0.3138839359508439 0.9494613603259516 0.0
  outer loop
    vertex 57.75281377899046 25.407145293315143 0.8000000000000002
    vertex 59.43735078444749 24.85025153478854 0.0
    vertex 57.75281377899046 25.407145293315143 0.0
  endloop
endfacet
facet normal 0.3138839359508439 0.9494613603259516 0.0
  outer loop
    vertex 59.43735078444749 24.85025153478854 0.0
    vertex 57.75281377899046 25.407145293315143 0.8000000000000002
    vertex 59.43735078444749 24.85025153478854 0.8000000000000002
  endloop
endfacet
facet normal 0.4865462513567891 0.8736548204472153 0.0
  outer loop
    vertex 59.43735078444749 24.85025153478854 0.8000000000000002
    vertex 60.83731241473397 24.070600272851294 0.0
    vertex 59.43735078444749 24.85025153478854 0.0
  endloop
endfacet
facet normal 0.4865462513567891 0.8736548204472153 0.0
  outer loop
    vertex 60.83731241473397 24.070600272851294 0.0
    vertex 59.43735078444749 24.85025153478854 0.8000000000000002
    vertex 60.83731241473397 24.070600272851294 0.8000000000000002
  endloop
endfacet
facet normal 0.6709133239691257 0.7415357791237717 0.0
  outer loop
    vertex 60.83731241473397 24.070600272851294 0.8000000000000002
    vertex 61.96762022510232 23.047940825375168 0.0
    vertex 60.83731241473397 24.070600272851294 0.0
  endloop
endfacet
facet normal 0.6709133239691257 0.7415357791237717 0.0
  outer loop
    vertex 61.96762022510232 23.047940825375168 0.0
    vertex 60.83731241473397 24.070600272851294 0.8000000000000002
    vertex 61.96762022510232 23.047940825375168 0.8000000000000002
  endloop
endfacet
facet normal 0.8265822943511164 0.5628158763443374 0.0
  outer loop
    vertex 61.96762022510232 23.047940825375168 0.0
    vertex 62.84319577080492 21.762022510231922 0.8000000000000002
    vertex 62.84319577080492 21.762022510231922 0.0
  endloop
endfacet
facet normal 0.8265822943511164 0.5628158763443374 0.0
  outer loop
    vertex 62.84319577080492 21.762022510231922 0.8000000000000002
    vertex 61.96762022510232 23.047940825375168 0.0
    vertex 61.96762022510232 23.047940825375168 0.8000000000000002
  endloop
endfacet
facet normal 0.9282342581959906 0.37199618534514484 0.0
  outer loop
    vertex 62.84319577080492 21.762022510231922 0.0
    vertex 63.46403905184175 20.212845327421554 0.8000000000000002
    vertex 63.46403905184175 20.212845327421554 0.0
  endloop
endfacet
facet normal 0.9282342581959906 0.37199618534514484 0.0
  outer loop
    vertex 63.46403905184175 20.212845327421554 0.8000000000000002
    vertex 62.84319577080492 21.762022510231922 0.0
    vertex 62.84319577080492 21.762022510231922 0.8000000000000002
  endloop
endfacet
facet normal 0.9802019750412259 0.19800022253846172 0.0
  outer loop
    vertex 63.46403905184175 20.212845327421554 0.0
    vertex 63.830150068212824 18.400409276944064 0.8000000000000002
    vertex 63.830150068212824 18.400409276944064 0.0
  endloop
endfacet
facet normal 0.9802019750412259 0.19800022253846172 0.0
  outer loop
    vertex 63.830150068212824 18.400409276944064 0.8000000000000002
    vertex 63.46403905184175 20.212845327421554 0.0
    vertex 63.46403905184175 20.212845327421554 0.8000000000000002
  endloop
endfacet
facet normal 0.05844791915154538 -0.9982904591083972 0.0
  outer loop
    vertex 63.830150068212824 18.400409276944064 0.8000000000000002
    vertex 56.548431105047754 17.974079126875854 0.0
    vertex 63.830150068212824 18.400409276944064 0.0
  endloop
endfacet
facet normal 0.05844791915154538 -0.9982904591083972 0.0
  outer loop
    vertex 56.548431105047754 17.974079126875854 0.0
    vertex 63.830150068212824 18.400409276944064 0.8000000000000002
    vertex 56.548431105047754 17.974079126875854 0.8000000000000002
  endloop
endfacet
facet normal -0.9555673195720416 -0.2947729596925469 0.0
  outer loop
    vertex 56.09865279672579 19.43212824010914 0.8000000000000002
    vertex 56.548431105047754 17.974079126875854 0.0
    vertex 56.548431105047754 17.974079126875854 0.8000000000000002
  endloop
endfacet
facet normal -0.9555673195720416 -0.2947729596925469 0.0
  outer loop
    vertex 56.548431105047754 17.974079126875854 0.0
    vertex 56.09865279672579 19.43212824010914 0.8000000000000002
    vertex 56.09865279672579 19.43212824010914 0.0
  endloop
endfacet
facet normal -0.7918056332303033 -0.6107731487096977 0.0
  outer loop
    vertex 55.329126875852666 20.42974079126876 0.8000000000000002
    vertex 56.09865279672579 19.43212824010914 0.0
    vertex 56.09865279672579 19.43212824010914 0.8000000000000002
  endloop
endfacet
facet normal -0.7918056332303033 -0.6107731487096977 0.0
  outer loop
    vertex 56.09865279672579 19.43212824010914 0.0
    vertex 55.329126875852666 20.42974079126876 0.8000000000000002
    vertex 55.329126875852666 20.42974079126876 0.0
  endloop
endfacet
facet normal -0.461514187926289 -0.8871328279027544 0.0
  outer loop
    vertex 55.329126875852666 20.42974079126876 0.8000000000000002
    vertex 54.222800136425654 21.005286493860844 0.0
    vertex 55.329126875852666 20.42974079126876 0.0
  endloop
endfacet
facet normal -0.461514187926289 -0.8871328279027544 0.0
  outer loop
    vertex 54.222800136425654 21.005286493860844 0.0
    vertex 55.329126875852666 20.42974079126876 0.8000000000000002
    vertex 54.222800136425654 21.005286493860844 0.8000000000000002
  endloop
endfacet
facet normal -0.13026730211175863 -0.9914789105172757 0.0
  outer loop
    vertex 54.222800136425654 21.005286493860844 0.8000000000000002
    vertex 52.76261937244202 21.197135061391542 0.0
    vertex 54.222800136425654 21.005286493860844 0.0
  endloop
endfacet
facet normal -0.13026730211175863 -0.9914789105172757 0.0
  outer loop
    vertex 52.76261937244202 21.197135061391542 0.0
    vertex 54.222800136425654 21.005286493860844 0.8000000000000002
    vertex 52.76261937244202 21.197135061391542 0.8000000000000002
  endloop
endfacet
facet normal 0.12006377992809386 -0.9927661803009701 0.0
  outer loop
    vertex 52.76261937244202 21.197135061391542 0.8000000000000002
    vertex 51.58168485675306 21.05431446111869 0.0
    vertex 52.76261937244202 21.197135061391542 0.0
  endloop
endfacet
facet normal 0.12006377992809386 -0.9927661803009701 0.0
  outer loop
    vertex 51.58168485675306 21.05431446111869 0.0
    vertex 52.76261937244202 21.197135061391542 0.8000000000000002
    vertex 51.58168485675306 21.05431446111869 0.8000000000000002
  endloop
endfacet
facet normal 0.45079844157749965 -0.8926257698897662 0.0
  outer loop
    vertex 51.58168485675306 21.05431446111869 0.8000000000000002
    vertex 50.73328785811732 20.625852660300136 0.0
    vertex 51.58168485675306 21.05431446111869 0.0
  endloop
endfacet
facet normal 0.45079844157749965 -0.8926257698897662 0.0
  outer loop
    vertex 50.73328785811732 20.625852660300136 0.0
    vertex 51.58168485675306 21.05431446111869 0.8000000000000002
    vertex 50.73328785811732 20.625852660300136 0.8000000000000002
  endloop
endfacet
facet normal 0.7777934537048629 -0.6285199625897823 0.0
  outer loop
    vertex 50.73328785811732 20.625852660300136 0.0
    vertex 50.22169167803548 19.992752387448842 0.8000000000000002
    vertex 50.22169167803548 19.992752387448842 0.0
  endloop
endfacet
facet normal 0.7777934537048629 -0.6285199625897823 0.0
  outer loop
    vertex 50.22169167803548 19.992752387448842 0.8000000000000002
    vertex 50.73328785811732 20.625852660300136 0.0
    vertex 50.73328785811732 20.625852660300136 0.8000000000000002
  endloop
endfacet
facet normal 0.9755361382502864 -0.21983912974654496 0.0
  outer loop
    vertex 50.22169167803548 19.992752387448842 0.0
    vertex 50.051159618008185 19.23601637107776 0.8000000000000002
    vertex 50.051159618008185 19.23601637107776 0.0
  endloop
endfacet
facet normal 0.9755361382502864 -0.21983912974654496 0.0
  outer loop
    vertex 50.051159618008185 19.23601637107776 0.8000000000000002
    vertex 50.22169167803548 19.992752387448842 0.0
    vertex 50.22169167803548 19.992752387448842 0.8000000000000002
  endloop
endfacet
facet normal 0.9705702465417683 0.24081818147276887 0.0
  outer loop
    vertex 50.051159618008185 19.23601637107776 0.0
    vertex 50.1918485675307 18.66899727148704 0.8000000000000002
    vertex 50.1918485675307 18.66899727148704 0.0
  endloop
endfacet
facet normal 0.9705702465417683 0.24081818147276887 0.0
  outer loop
    vertex 50.1918485675307 18.66899727148704 0.8000000000000002
    vertex 50.051159618008185 19.23601637107776 0.0
    vertex 50.051159618008185 19.23601637107776 0.8000000000000002
  endloop
endfacet
facet normal 0.7687505322619435 0.6395487621338803 0.0
  outer loop
    vertex 50.1918485675307 18.66899727148704 0.0
    vertex 50.61391541609822 18.161664392905866 0.8000000000000002
    vertex 50.61391541609822 18.161664392905866 0.0
  endloop
endfacet
facet normal 0.7687505322619435 0.6395487621338803 0.0
  outer loop
    vertex 50.61391541609822 18.161664392905866 0.8000000000000002
    vertex 50.1918485675307 18.66899727148704 0.0
    vertex 50.1918485675307 18.66899727148704 0.8000000000000002
  endloop
endfacet
facet normal 0.4603171644550032 0.8877545314489281 0.0
  outer loop
    vertex 50.61391541609822 18.161664392905866 0.8000000000000002
    vertex 51.534788540245565 17.684174624829463 0.0
    vertex 50.61391541609822 18.161664392905866 0.0
  endloop
endfacet
facet normal 0.4603171644550032 0.8877545314489281 0.0
  outer loop
    vertex 51.534788540245565 17.684174624829463 0.0
    vertex 50.61391541609822 18.161664392905866 0.8000000000000002
    vertex 51.534788540245565 17.684174624829463 0.8000000000000002
  endloop
endfacet
facet normal 0.2564346990245508 0.9665615578617784 0.0
  outer loop
    vertex 51.534788540245565 17.684174624829463 0.8000000000000002
    vertex 53.20600272851296 17.240791268758525 0.0
    vertex 51.534788540245565 17.684174624829463 0.0
  endloop
endfacet
facet normal 0.2564346990245508 0.9665615578617784 0.0
  outer loop
    vertex 53.20600272851296 17.240791268758525 0.0
    vertex 51.534788540245565 17.684174624829463 0.8000000000000002
    vertex 53.20600272851296 17.240791268758525 0.8000000000000002
  endloop
endfacet
facet normal 0.24488446198708885 0.9695522679450006 0.0
  outer loop
    vertex 53.20600272851296 17.240791268758525 0.8000000000000002
    vertex 57.552438608458395 16.142991132332877 0.0
    vertex 53.20600272851296 17.240791268758525 0.0
  endloop
endfacet
facet normal 0.24488446198708885 0.9695522679450006 0.0
  outer loop
    vertex 57.552438608458395 16.142991132332877 0.0
    vertex 53.20600272851296 17.240791268758525 0.8000000000000002
    vertex 57.552438608458395 16.142991132332877 0.8000000000000002
  endloop
endfacet
facet normal 0.35659295338388386 0.9342598490767755 0.0
  outer loop
    vertex 57.552438608458395 16.142991132332877 0.8000000000000002
    vertex 60.46214188267394 15.032401091405184 0.0
    vertex 57.552438608458395 16.142991132332877 0.0
  endloop
endfacet
facet normal 0.35659295338388386 0.9342598490767755 0.0
  outer loop
    vertex 60.46214188267394 15.032401091405184 0.0
    vertex 57.552438608458395 16.142991132332877 0.8000000000000002
    vertex 60.46214188267394 15.032401091405184 0.8000000000000002
  endloop
endfacet
facet normal 0.5514440945157949 0.8342118499659755 0.0
  outer loop
    vertex 60.46214188267394 15.032401091405184 0.8000000000000002
    vertex 62.355047748976816 13.781122100954978 0.0
    vertex 60.46214188267394 15.032401091405184 0.0
  endloop
endfacet
facet normal 0.5514440945157949 0.8342118499659755 0.0
  outer loop
    vertex 62.355047748976816 13.781122100954978 0.0
    vertex 60.46214188267394 15.032401091405184 0.8000000000000002
    vertex 62.355047748976816 13.781122100954978 0.8000000000000002
  endloop
endfacet
facet normal 0.7609114345470249 0.648855753442619 0.0
  outer loop
    vertex 62.355047748976816 13.781122100954978 0.0
    vertex 63.65109140518417 12.2612551159618 0.8000000000000002
    vertex 63.65109140518417 12.2612551159618 0.0
  endloop
endfacet
facet normal 0.7609114345470249 0.648855753442619 0.0
  outer loop
    vertex 63.65109140518417 12.2612551159618 0.8000000000000002
    vertex 62.355047748976816 13.781122100954978 0.0
    vertex 62.355047748976816 13.781122100954978 0.8000000000000002
  endloop
endfacet
facet normal 0.919665053803198 0.39270369085757434 0.0
  outer loop
    vertex 63.65109140518417 12.2612551159618 0.0
    vertex 64.3993008185539 10.509038199181447 0.8000000000000002
    vertex 64.3993008185539 10.509038199181447 0.0
  endloop
endfacet
facet normal 0.919665053803198 0.39270369085757434 0.0
  outer loop
    vertex 64.3993008185539 10.509038199181447 0.8000000000000002
    vertex 63.65109140518417 12.2612551159618 0.0
    vertex 63.65109140518417 12.2612551159618 0.8000000000000002
  endloop
endfacet
facet normal 0.9919062149182085 0.12697267740200202 0.0
  outer loop
    vertex 64.3993008185539 10.509038199181447 0.0
    vertex 64.6487039563438 8.560709413369713 0.8000000000000002
    vertex 64.6487039563438 8.560709413369713 0.0
  endloop
endfacet
facet normal 0.9919062149182085 0.12697267740200202 0.0
  outer loop
    vertex 64.6487039563438 8.560709413369713 0.8000000000000002
    vertex 64.3993008185539 10.509038199181447 0.0
    vertex 64.3993008185539 10.509038199181447 0.8000000000000002
  endloop
endfacet
facet normal 0.9898028690558845 -0.1424439553253834 0.0
  outer loop
    vertex 64.6487039563438 8.560709413369713 0.0
    vertex 64.3161664392906 6.25 0.8000000000000002
    vertex 64.3161664392906 6.25 0.0
  endloop
endfacet
facet normal 0.9898028690558845 -0.1424439553253834 0.0
  outer loop
    vertex 64.3161664392906 6.25 0.8000000000000002
    vertex 64.6487039563438 8.560709413369713 0.0
    vertex 64.6487039563438 8.560709413369713 0.8000000000000002
  endloop
endfacet
facet normal 0.9050656751516386 -0.42527182326402596 0.0
  outer loop
    vertex 64.3161664392906 6.25 0.0
    vertex 63.31855388813097 4.1268758526603 0.8000000000000002
    vertex 63.31855388813097 4.1268758526603 0.0
  endloop
endfacet
facet normal 0.9050656751516386 -0.42527182326402596 0.0
  outer loop
    vertex 63.31855388813097 4.1268758526603 0.8000000000000002
    vertex 64.3161664392906 6.25 0.0
    vertex 64.3161664392906 6.25 0.8000000000000002
  endloop
endfacet
facet normal 0.7456372654388349 -0.6663520603921748 0.0
  outer loop
    vertex 63.31855388813097 4.1268758526603 0.0
    vertex 61.72407912687585 2.34268417462483 0.8000000000000002
    vertex 61.72407912687585 2.34268417462483 0.0
  endloop
endfacet
facet normal 0.7456372654388349 -0.6663520603921748 0.0
  outer loop
    vertex 61.72407912687585 2.34268417462483 0.8000000000000002
    vertex 63.31855388813097 4.1268758526603 0.0
    vertex 63.31855388813097 4.1268758526603 0.8000000000000002
  endloop
endfacet
facet normal 0.5204092464890144 -0.853916984354297 0.0
  outer loop
    vertex 61.72407912687585 2.34268417462483 0.8000000000000002
    vertex 59.60095497953615 1.0487721691678036 0.0
    vertex 61.72407912687585 2.34268417462483 0.0
  endloop
endfacet
facet normal 0.5204092464890144 -0.853916984354297 0.0
  outer loop
    vertex 59.60095497953615 1.0487721691678036 0.0
    vertex 61.72407912687585 2.34268417462483 0.8000000000000002
    vertex 59.60095497953615 1.0487721691678036 0.8000000000000002
  endloop
endfacet
facet normal 0.2798252751908046 -0.9600509441505646 0.0
  outer loop
    vertex 59.60095497953615 1.0487721691678036 0.8000000000000002
    vertex 56.902285129604365 0.2621930422919509 0.0
    vertex 59.60095497953615 1.0487721691678036 0.0
  endloop
endfacet
facet normal 0.2798252751908046 -0.9600509441505646 0.0
  outer loop
    vertex 56.902285129604365 0.2621930422919509 0.0
    vertex 59.60095497953615 1.0487721691678036 0.8000000000000002
    vertex 56.902285129604365 0.2621930422919509 0.8000000000000002
  endloop
endfacet
facet normal 0.07870248542001068 -0.9968981486534686 0.0
  outer loop
    vertex 56.902285129604365 0.2621930422919509 0.8000000000000002
    vertex 53.58117326057298 0.0 0.0
    vertex 56.902285129604365 0.2621930422919509 0.0
  endloop
endfacet
facet normal 0.07870248542001068 -0.9968981486534686 0.0
  outer loop
    vertex 53.58117326057298 0.0 0.0
    vertex 56.902285129604365 0.2621930422919509 0.8000000000000002
    vertex 53.58117326057298 0.0 0.8000000000000002
  endloop
endfacet
facet normal -0.05206541975976694 -0.9986436762255292 0.0
  outer loop
    vertex 53.58117326057298 0.0 0.8000000000000002
    vertex 50.63736357435198 0.1534788540245566 0.0
    vertex 53.58117326057298 0.0 0.0
  endloop
endfacet
facet normal -0.05206541975976694 -0.9986436762255292 0.0
  outer loop
    vertex 50.63736357435198 0.1534788540245566 0.0
    vertex 53.58117326057298 0.0 0.8000000000000002
    vertex 50.63736357435198 0.1534788540245566 0.8000000000000002
  endloop
endfacet
facet normal -0.18444320212024062 -0.9828431742610987 0.0
  outer loop
    vertex 50.63736357435198 0.1534788540245566 0.8000000000000002
    vertex 48.18383356070941 0.6139154160982264 0.0
    vertex 50.63736357435198 0.1534788540245566 0.0
  endloop
endfacet
facet normal -0.18444320212024062 -0.9828431742610987 0.0
  outer loop
    vertex 48.18383356070941 0.6139154160982264 0.0
    vertex 50.63736357435198 0.1534788540245566 0.8000000000000002
    vertex 48.18383356070941 0.6139154160982264 0.8000000000000002
  endloop
endfacet
facet normal -0.36405615615035236 -0.9313769994846505 0.0
  outer loop
    vertex 48.18383356070941 0.6139154160982264 0.8000000000000002
    vertex 46.22058321964529 1.3813096862210095 0.0
    vertex 48.18383356070941 0.6139154160982264 0.0
  endloop
endfacet
facet normal -0.36405615615035236 -0.9313769994846505 0.0
  outer loop
    vertex 46.22058321964529 1.3813096862210095 0.0
    vertex 48.18383356070941 0.6139154160982264 0.8000000000000002
    vertex 46.22058321964529 1.3813096862210095 0.8000000000000002
  endloop
endfacet
facet normal -0.5892834739459507 -0.8079263501917684 0.0
  outer loop
    vertex 46.22058321964529 1.3813096862210095 0.8000000000000002
    vertex 44.74761255115962 2.4556616643929057 0.0
    vertex 46.22058321964529 1.3813096862210095 0.0
  endloop
endfacet
facet normal -0.5892834739459507 -0.8079263501917684 0.0
  outer loop
    vertex 44.74761255115962 2.4556616643929057 0.0
    vertex 46.22058321964529 1.3813096862210095 0.8000000000000002
    vertex 44.74761255115962 2.4556616643929057 0.8000000000000002
  endloop
endfacet
facet normal -0.76760708631632 -0.6409207135340296 0.0
  outer loop
    vertex 43.65300989085949 3.7666268758526606 0.8000000000000002
    vertex 44.74761255115962 2.4556616643929057 0.0
    vertex 44.74761255115962 2.4556616643929057 0.8000000000000002
  endloop
endfacet
facet normal -0.76760708631632 -0.6409207135340296 0.0
  outer loop
    vertex 44.74761255115962 2.4556616643929057 0.0
    vertex 43.65300989085949 3.7666268758526606 0.8000000000000002
    vertex 43.65300989085949 3.7666268758526606 0.0
  endloop
endfacet
facet normal -0.872280552600717 -0.48900576433676934 0.0
  outer loop
    vertex 42.82486357435198 5.243860845839018 0.8000000000000002
    vertex 43.65300989085949 3.7666268758526606 0.0
    vertex 43.65300989085949 3.7666268758526606 0.8000000000000002
  endloop
endfacet
facet normal -0.872280552600717 -0.48900576433676934 0.0
  outer loop
    vertex 43.65300989085949 3.7666268758526606 0.0
    vertex 42.82486357435198 5.243860845839018 0.8000000000000002
    vertex 42.82486357435198 5.243860845839018 0.0
  endloop
endfacet
facet normal -0.9462628567410506 -0.3233985249692182 0.0
  outer loop
    vertex 42.26317360163711 6.887363574351978 0.8000000000000002
    vertex 42.82486357435198 5.243860845839018 0.0
    vertex 42.82486357435198 5.243860845839018 0.8000000000000002
  endloop
endfacet
facet normal -0.9462628567410506 -0.3233985249692182 0.0
  outer loop
    vertex 42.82486357435198 5.243860845839018 0.0
    vertex 42.26317360163711 6.887363574351978 0.8000000000000002
    vertex 42.26317360163711 6.887363574351978 0.0
  endloop
endfacet
facet normal -0.986953622912548 -0.16100480185322558 0.0
  outer loop
    vertex 41.967939972714866 8.697135061391542 0.8000000000000002
    vertex 42.26317360163711 6.887363574351978 0.0
    vertex 42.26317360163711 6.887363574351978 0.8000000000000002
  endloop
endfacet
facet normal -0.986953622912548 -0.16100480185322558 0.0
  outer loop
    vertex 42.26317360163711 6.887363574351978 0.0
    vertex 41.967939972714866 8.697135061391542 0.8000000000000002
    vertex 41.967939972714866 8.697135061391542 0.0
  endloop
endfacet
endsolid ais_logo
