solid camera_housing_base
facet normal -1.0 0.0 0.0
  outer loop
    vertex 0.0 -5.500000000000024 -1.9999999999999998
    vertex 0.0 16.744654468354483 0.04932266026995451
    vertex 0.0 41.5 -1.9999999999999998
  endloop
endfacet
facet normal -1.0 0.0 0.0
  outer loop
    vertex 0.0 16.744654468354483 0.04932266026995451
    vertex 0.0 -5.500000000000024 -1.9999999999999998
    vertex 0.0 15.497048559356307 0.19698655047779956
  endloop
endfacet
facet normal -1.0 0.0 0.0
  outer loop
    vertex 0.0 15.497048559356307 0.19698655047779956
    vertex 0.0 -5.500000000000024 -1.9999999999999998
    vertex 0.0 14.264874178305513 0.44208127363717725
  endloop
endfacet
facet normal -1.0 0.0 0.0
  outer loop
    vertex 0.0 14.264874178305513 0.44208127363717725
    vertex 0.0 -5.500000000000024 -1.9999999999999998
    vertex 0.0 13.055728090000844 0.7830957392775477
  endloop
endfacet
facet normal -1.0 0.0 0.0
  outer loop
    vertex 0.0 13.055728090000844 0.7830957392775477
    vertex 0.0 -5.500000000000024 -1.9999999999999998
    vertex 0.0 11.877065082158564 1.217927479819415
  endloop
endfacet
facet normal -1.0 0.0 0.0
  outer loop
    vertex 0.0 11.877065082158564 1.217927479819415
    vertex 0.0 -5.500000000000024 -1.9999999999999998
    vertex 0.0 10.736152004167252 1.7438956129861158
  endloop
endfacet
facet normal -1.0 0.0 0.0
  outer loop
    vertex 0.0 10.736152004167252 1.7438956129861158
    vertex 0.0 -5.500000000000024 -1.9999999999999998
    vertex 0.0 9.64002296454482 2.357757370334525
  endloop
endfacet
facet normal -1.0 0.0 0.0
  outer loop
    vertex 0.0 9.64002296454482 2.357757370334525
    vertex 0.0 -5.500000000000024 -1.9999999999999998
    vertex 0.0 8.595435963320432 3.0557280900008426
  endloop
endfacet
facet normal -1.0 0.0 0.0
  outer loop
    vertex 0.0 8.595435963320432 3.0557280900008426
    vertex 0.0 -5.500000000000024 -1.9999999999999998
    vertex -1.6233060143425088e-15 -5.499999999999999 14.0
  endloop
endfacet
facet normal -1.0 0.0 0.0
  outer loop
    vertex 0.0 8.595435963320432 3.0557280900008426
    vertex -1.6233060143425088e-15 -5.499999999999999 14.0
    vertex 0.0 7.608831226717062 3.8335045503995064
  endloop
endfacet
facet normal -1.0 0.0 0.0
  outer loop
    vertex 0.0 7.608831226717062 3.8335045503995064
    vertex -1.6233060143425088e-15 -5.499999999999999 14.0
    vertex 0.0 6.686291501015241 4.68629150101524
  endloop
endfacet
facet normal -1.0 0.0 0.0
  outer loop
    vertex 0.0 6.686291501015241 4.68629150101524
    vertex -1.6233060143425088e-15 -5.499999999999999 14.0
    vertex 0.0 5.833504550399507 5.608831226717062
  endloop
endfacet
facet normal -1.0 0.0 0.0
  outer loop
    vertex 0.0 5.833504550399507 5.608831226717062
    vertex -1.6233060143425088e-15 -5.499999999999999 14.0
    vertex 0.0 5.055728090000842 6.595435963320431
  endloop
endfacet
facet normal -1.0 0.0 0.0
  outer loop
    vertex 0.0 5.055728090000842 6.595435963320431
    vertex -1.6233060143425088e-15 -5.499999999999999 14.0
    vertex 0.0 4.357757370334527 7.640022964544818
  endloop
endfacet
facet normal -1.0 0.0 0.0
  outer loop
    vertex 0.0 4.357757370334527 7.640022964544818
    vertex -1.6233060143425088e-15 -5.499999999999999 14.0
    vertex 0.0 3.7438956129861176 8.73615200416725
  endloop
endfacet
facet normal -1.0 0.0 0.0
  outer loop
    vertex 0.0 3.7438956129861176 8.73615200416725
    vertex -1.6233060143425088e-15 -5.499999999999999 14.0
    vertex 0.0 3.217927479819414 9.87706508215856
  endloop
endfacet
facet normal -1.0 0.0 0.0
  outer loop
    vertex 0.0 3.217927479819414 9.87706508215856
    vertex -1.6233060143425088e-15 -5.499999999999999 14.0
    vertex 0.0 2.7830957392775466 11.05572809000084
  endloop
endfacet
facet normal -1.0 0.0 0.0
  outer loop
    vertex 0.0 2.7830957392775466 11.05572809000084
    vertex -1.6233060143425088e-15 -5.499999999999999 14.0
    vertex 0.0 2.4420812736371764 12.264874178305512
  endloop
endfacet
facet normal -1.0 0.0 0.0
  outer loop
    vertex 0.0 2.4420812736371764 12.264874178305512
    vertex -1.6233060143425088e-15 -5.499999999999999 14.0
    vertex 0.0 2.196986550477799 13.497048559356305
  endloop
endfacet
facet normal -1.0 0.0 0.0
  outer loop
    vertex 0.0 2.196986550477799 13.497048559356305
    vertex -1.6233060143425088e-15 -5.499999999999999 14.0
    vertex -8.116530071712544e-16 2.137458324637056 14.0
  endloop
endfacet
facet normal -1.0 0.0 0.0
  outer loop
    vertex 0.0 41.5 -1.9999999999999998
    vertex 0.0 16.744654468354483 0.04932266026995451
    vertex 0.0 18.0 0.0
  endloop
endfacet
facet normal -1.0 0.0 0.0
  outer loop
    vertex 0.0 41.5 -1.9999999999999998
    vertex 0.0 18.0 0.0
    vertex 0.0 19.25534553164552 0.04932266026995451
  endloop
endfacet
facet normal -1.0 0.0 0.0
  outer loop
    vertex 0.0 41.5 -1.9999999999999998
    vertex 0.0 19.25534553164552 0.04932266026995451
    vertex 0.0 20.502951440643695 0.19698655047779956
  endloop
endfacet
facet normal -1.0 0.0 0.0
  outer loop
    vertex 0.0 41.5 -1.9999999999999998
    vertex 0.0 20.502951440643695 0.19698655047779956
    vertex 0.0 21.73512582169449 0.44208127363717725
  endloop
endfacet
facet normal -1.0 0.0 0.0
  outer loop
    vertex 0.0 41.5 -1.9999999999999998
    vertex 0.0 21.73512582169449 0.44208127363717725
    vertex 0.0 22.94427190999916 0.7830957392775477
  endloop
endfacet
facet normal -1.0 0.0 0.0
  outer loop
    vertex 0.0 41.5 -1.9999999999999998
    vertex 0.0 22.94427190999916 0.7830957392775477
    vertex 0.0 24.122934917841437 1.217927479819415
  endloop
endfacet
facet normal -1.0 0.0 0.0
  outer loop
    vertex 0.0 41.5 -1.9999999999999998
    vertex 0.0 24.122934917841437 1.217927479819415
    vertex 0.0 25.26384799583275 1.7438956129861158
  endloop
endfacet
facet normal -1.0 0.0 0.0
  outer loop
    vertex 0.0 41.5 -1.9999999999999998
    vertex 0.0 25.26384799583275 1.7438956129861158
    vertex 0.0 26.359977035455184 2.357757370334525
  endloop
endfacet
facet normal -1.0 0.0 0.0
  outer loop
    vertex 0.0 41.5 -1.9999999999999998
    vertex 0.0 26.359977035455184 2.357757370334525
    vertex 0.0 27.40456403667957 3.0557280900008426
  endloop
endfacet
facet normal -1.0 0.0 0.0
  outer loop
    vertex 0.0 41.5 -1.9999999999999998
    vertex 0.0 27.40456403667957 3.0557280900008426
    vertex 0.0 28.39116877328294 3.8335045503995064
  endloop
endfacet
facet normal -1.0 0.0 0.0
  outer loop
    vertex 0.0 41.5 -1.9999999999999998
    vertex 0.0 28.39116877328294 3.8335045503995064
    vertex 0.0 29.313708498984763 4.68629150101524
  endloop
endfacet
facet normal -1.0 0.0 0.0
  outer loop
    vertex 0.0 41.5 -1.9999999999999998
    vertex 0.0 29.313708498984763 4.68629150101524
    vertex 0.0 30.166495449600497 5.608831226717062
  endloop
endfacet
facet normal -1.0 0.0 0.0
  outer loop
    vertex 0.0 41.5 -1.9999999999999998
    vertex 0.0 30.166495449600497 5.608831226717062
    vertex 0.0 30.94427190999916 6.595435963320431
  endloop
endfacet
facet normal -1.0 0.0 0.0
  outer loop
    vertex 0.0 41.5 -1.9999999999999998
    vertex 0.0 30.94427190999916 6.595435963320431
    vertex 0.0 31.64224262966547 7.640022964544818
  endloop
endfacet
facet normal -1.0 0.0 0.0
  outer loop
    vertex 0.0 41.5 -1.9999999999999998
    vertex 0.0 31.64224262966547 7.640022964544818
    vertex 0.0 32.256104387013885 8.73615200416725
  endloop
endfacet
facet normal -1.0 0.0 0.0
  outer loop
    vertex 0.0 41.5 -1.9999999999999998
    vertex 0.0 32.256104387013885 8.73615200416725
    vertex 0.0 32.782072520180584 9.87706508215856
  endloop
endfacet
facet normal -1.0 0.0 0.0
  outer loop
    vertex 0.0 41.5 -1.9999999999999998
    vertex 0.0 32.782072520180584 9.87706508215856
    vertex 0.0 33.21690426072245 11.05572809000084
  endloop
endfacet
facet normal -1.0 0.0 0.0
  outer loop
    vertex 0.0 41.5 -1.9999999999999998
    vertex 0.0 33.21690426072245 11.05572809000084
    vertex 0.0 33.55791872636283 12.264874178305512
  endloop
endfacet
facet normal -1.0 0.0 0.0
  outer loop
    vertex 0.0 41.5 -1.9999999999999998
    vertex 0.0 33.55791872636283 12.264874178305512
    vertex 0.0 33.803013449522204 13.497048559356305
  endloop
endfacet
facet normal -1.0 0.0 0.0
  outer loop
    vertex 0.0 41.5 -1.9999999999999998
    vertex 0.0 33.803013449522204 13.497048559356305
    vertex -9.40682403346941e-16 33.86254167536295 14.0
  endloop
endfacet
facet normal -1.0 0.0 0.0
  outer loop
    vertex 0.0 41.5 -1.9999999999999998
    vertex -9.40682403346941e-16 33.86254167536295 14.0
    vertex -1.881364806693882e-15 41.5 14.0
  endloop
endfacet
facet normal 1.5446514901347433e-18 9.973093597982716e-18 -1.0
  outer loop
    vertex 47.00000000000001 41.49999999999999 -1.999999999999998
    vertex 0.0 -5.500000000000024 -1.9999999999999998
    vertex 0.0 41.5 -1.9999999999999998
  endloop
endfacet
facet normal 1.5446514901347433e-18 9.973093597982716e-18 -1.0
  outer loop
    vertex 0.0 -5.500000000000024 -1.9999999999999998
    vertex 47.00000000000001 41.49999999999999 -1.999999999999998
    vertex 47.0 0.0 -1.9999999999999998
  endloop
endfacet
facet normal 1.5446514901347433e-18 9.973093597982716e-18 -1.0
  outer loop
    vertex 47.0 0.0 -1.9999999999999998
    vertex 47.00000000000001 41.49999999999999 -1.999999999999998
    vertex 47.00000000000001 36.0 -1.9999999999999998
  endloop
endfacet
facet normal 1.5446514901347433e-18 9.973093597982716e-18 -1.0
  outer loop
    vertex 47.0 0.0 -1.9999999999999998
    vertex 47.00000000000001 36.0 -1.9999999999999998
    vertex 126.381915 -9.410368857023488e-18 -1.9999999999999996
  endloop
endfacet
facet normal 1.5446514901347433e-18 9.973093597982716e-18 -1.0
  outer loop
    vertex 126.381915 -9.410368857023488e-18 -1.9999999999999996
    vertex 47.00000000000001 36.0 -1.9999999999999998
    vertex 126.381915 36.0 -1.9999999999999996
  endloop
endfacet
facet normal 1.5446514901347433e-18 9.973093597982716e-18 -1.0
  outer loop
    vertex 47.0 -5.50000000000003 -1.9999999999999998
    vertex 0.0 -5.500000000000024 -1.9999999999999998
    vertex 47.0 0.0 -1.9999999999999998
  endloop
endfacet
facet normal -3.845408839838042e-17 1.602253683265851e-17 1.0
  outer loop
    vertex 74.5 7.0 -2.8199664825478975e-15
    vertex 47.00000000000001 29.000000000000004 -4.229949723821846e-15
    vertex 47.0 7.0 -4.229949723821846e-15
  endloop
endfacet
facet normal -3.845408839838042e-17 1.602253683265851e-17 1.0
  outer loop
    vertex 47.00000000000001 29.000000000000004 -4.229949723821846e-15
    vertex 74.5 7.0 -2.8199664825478975e-15
    vertex 74.5 29.000000000000004 -3.524958103184872e-15
  endloop
endfacet
facet normal -1.6662703448117728e-17 -1.0 1.2754401021750341e-16
  outer loop
    vertex 126.381915 -9.410368857023488e-18 -1.9999999999999996
    vertex 47.0 3.898715797457836e-14 13.999999999999948
    vertex 47.0 0.0 -1.9999999999999998
  endloop
endfacet
facet normal -1.6662703448117728e-17 -1.0 1.2754401021750341e-16
  outer loop
    vertex 47.0 3.898715797457836e-14 13.999999999999948
    vertex 126.381915 -9.410368857023488e-18 -1.9999999999999996
    vertex 126.381915 3.5965765314705603e-14 13.999999999999886
  endloop
endfacet
facet normal -3.09148467038635e-17 1.0 2.3499720687899443e-16
  outer loop
    vertex 47.00000000000001 35.99999999999996 13.999999999999943
    vertex 126.381915 36.0 -1.9999999999999996
    vertex 47.00000000000001 36.0 -1.9999999999999998
  endloop
endfacet
facet normal -3.09148467038635e-17 1.0 2.3499720687899443e-16
  outer loop
    vertex 126.381915 36.0 -1.9999999999999996
    vertex 47.00000000000001 35.99999999999996 13.999999999999943
    vertex 126.381915 35.999999999999964 13.999999999999876
  endloop
endfacet
facet normal 1.0 -0.0 -0.0
  outer loop
    vertex 126.381915 -9.410368857023488e-18 -1.9999999999999996
    vertex 126.381915 1.9999999999999998 0.0
    vertex 126.381915 3.5965765314705603e-14 13.999999999999886
  endloop
endfacet
facet normal 1.0 -0.0 -0.0
  outer loop
    vertex 126.381915 1.9999999999999998 0.0
    vertex 126.381915 -9.410368857023488e-18 -1.9999999999999996
    vertex 126.381915 36.0 -1.9999999999999996
  endloop
endfacet
facet normal 1.0 -0.0 -0.0
  outer loop
    vertex 126.381915 3.5965765314705603e-14 13.999999999999886
    vertex 126.381915 1.9999999999999998 0.0
    vertex 126.381915 1.000000000000036 13.999999999999886
  endloop
endfacet
facet normal 1.0 -0.0 -0.0
  outer loop
    vertex 126.381915 1.9999999999999998 0.0
    vertex 126.381915 36.0 -1.9999999999999996
    vertex 126.381915 34.0 0.0
  endloop
endfacet
facet normal 1.0 -0.0 -0.0
  outer loop
    vertex 126.381915 34.0 0.0
    vertex 126.381915 36.0 -1.9999999999999996
    vertex 126.381915 34.99999999999996 13.999999999999876
  endloop
endfacet
facet normal 1.0 -0.0 -0.0
  outer loop
    vertex 126.381915 34.99999999999996 13.999999999999876
    vertex 126.381915 36.0 -1.9999999999999996
    vertex 126.381915 35.999999999999964 13.999999999999876
  endloop
endfacet
facet normal 1.0 -0.0 -0.0
  outer loop
    vertex 126.381915 34.0 0.0
    vertex 126.381915 34.99999999999996 15.999999999999876
    vertex 126.381915 33.99999999999996 15.999999999999886
  endloop
endfacet
facet normal 1.0 -0.0 -0.0
  outer loop
    vertex 126.381915 34.99999999999996 15.999999999999876
    vertex 126.381915 34.0 0.0
    vertex 126.381915 34.99999999999996 13.999999999999876
  endloop
endfacet
facet normal 1.0 -0.0 -0.0
  outer loop
    vertex 126.381915 1.000000000000036 13.999999999999886
    vertex 126.381915 2.000000000000035 15.999999999999872
    vertex 126.381915 1.000000000000035 15.999999999999886
  endloop
endfacet
facet normal 1.0 -0.0 -0.0
  outer loop
    vertex 126.381915 2.000000000000035 15.999999999999872
    vertex 126.381915 1.000000000000036 13.999999999999886
    vertex 126.381915 1.9999999999999998 0.0
  endloop
endfacet
facet normal 2.225742792864094e-32 -1.0 -9.399888275159659e-16
  outer loop
    vertex 74.5 29.000000000000004 -3.524958103184872e-15
    vertex 47.00000000000001 28.999999999999996 5.9999999999999964
    vertex 47.00000000000001 29.000000000000004 -4.229949723821846e-15
  endloop
endfacet
facet normal 2.225742792864094e-32 -1.0 -9.399888275159659e-16
  outer loop
    vertex 47.00000000000001 28.999999999999996 5.9999999999999964
    vertex 74.5 29.000000000000004 -3.524958103184872e-15
    vertex 74.5 28.999999999999996 5.9999999999999964
  endloop
endfacet
facet normal 2.782178491080116e-32 1.0 -4.699944137579829e-16
  outer loop
    vertex 47.0 7.000000000000003 5.9999999999999964
    vertex 74.5 7.0 -2.8199664825478975e-15
    vertex 47.0 7.0 -4.229949723821846e-15
  endloop
endfacet
facet normal 2.782178491080116e-32 1.0 -4.699944137579829e-16
  outer loop
    vertex 74.5 7.0 -2.8199664825478975e-15
    vertex 47.0 7.000000000000003 5.9999999999999964
    vertex 74.5 7.000000000000003 5.999999999999997
  endloop
endfacet
facet normal 1.0 -0.0 -0.0
  outer loop
    vertex 76.5 34.0 0.0
    vertex 76.5 1.9999999999999998 5.999999999999938
    vertex 76.5 1.9999999999999998 0.0
  endloop
endfacet
facet normal 1.0 -0.0 -0.0
  outer loop
    vertex 76.5 1.9999999999999998 5.999999999999938
    vertex 76.5 34.0 0.0
    vertex 76.5 34.0 5.999999999999938
  endloop
endfacet
facet normal -1.0 0.0 0.0
  outer loop
    vertex 74.5 7.000000000000003 5.999999999999997
    vertex 74.5 29.000000000000004 -3.524958103184872e-15
    vertex 74.5 7.0 -2.8199664825478975e-15
  endloop
endfacet
facet normal -1.0 0.0 0.0
  outer loop
    vertex 74.5 29.000000000000004 -3.524958103184872e-15
    vertex 74.5 7.000000000000003 5.999999999999997
    vertex 74.5 28.999999999999996 5.9999999999999964
  endloop
endfacet
facet normal -1.0 0.0 0.0
  outer loop
    vertex 45.0 -3.499999999999988 15.999999999999979
    vertex 45.0 1.9999999999999998 0.0
    vertex 45.0 -3.500000000000024 0.0
  endloop
endfacet
facet normal -1.0 0.0 0.0
  outer loop
    vertex 45.0 1.9999999999999998 0.0
    vertex 45.0 -3.499999999999988 15.999999999999979
    vertex 45.0 2.0000000000000027 6.000000000000023
  endloop
endfacet
facet normal -1.0 0.0 0.0
  outer loop
    vertex 45.0 2.0000000000000027 6.000000000000023
    vertex 45.0 -3.499999999999988 15.999999999999979
    vertex 45.0 2.0000000000000377 15.999999999999957
  endloop
endfacet
facet normal -1.0 0.0 0.0
  outer loop
    vertex 45.0 39.49999999999995 16.000000000000004
    vertex 45.0 34.0 5.999999999999994
    vertex 45.0 33.99999999999996 15.999999999999943
  endloop
endfacet
facet normal -1.0 0.0 0.0
  outer loop
    vertex 45.0 2.0000000000000027 6.000000000000023
    vertex 45.0 39.49999999999999 1.7669410238749361e-15
    vertex 45.0 1.9999999999999998 0.0
  endloop
endfacet
facet normal -1.0 0.0 0.0
  outer loop
    vertex 45.0 39.49999999999999 1.7669410238749361e-15
    vertex 45.0 2.0000000000000027 6.000000000000023
    vertex 45.0 34.0 5.999999999999994
  endloop
endfacet
facet normal -1.0 0.0 0.0
  outer loop
    vertex 45.0 39.49999999999999 1.7669410238749361e-15
    vertex 45.0 34.0 5.999999999999994
    vertex 45.0 39.49999999999995 16.000000000000004
  endloop
endfacet
facet normal 1.0 -2.563605893225361e-16 -6.375825708725265e-32
  outer loop
    vertex 47.00000000000001 29.000000000000004 -4.229949723821846e-15
    vertex 47.0 7.000000000000003 5.9999999999999964
    vertex 47.0 7.0 -4.229949723821846e-15
  endloop
endfacet
facet normal 1.0 -2.563605893225361e-16 -6.375825708725265e-32
  outer loop
    vertex 47.0 7.000000000000003 5.9999999999999964
    vertex 47.00000000000001 29.000000000000004 -4.229949723821846e-15
    vertex 47.00000000000001 28.999999999999996 5.9999999999999964
  endloop
endfacet
facet normal 1.0 6.07724148186601e-17 -7.279668224572311e-17
  outer loop
    vertex 5.5 -3.500000000000024 0.0
    vertex 5.5 5.833504550399507 5.608831226717062
    vertex 5.500000000000008 -3.499999999999988 15.999999999999979
  endloop
endfacet
facet normal 1.0 6.07724148186601e-17 -7.279668224572311e-17
  outer loop
    vertex 5.5 5.833504550399507 5.608831226717062
    vertex 5.5 -3.500000000000024 0.0
    vertex 5.5 6.686291501015241 4.68629150101524
  endloop
endfacet
facet normal 1.0 6.07724148186601e-17 -7.279668224572311e-17
  outer loop
    vertex 5.5 6.686291501015241 4.68629150101524
    vertex 5.5 -3.500000000000024 0.0
    vertex 5.5 7.608831226717062 3.8335045503995064
  endloop
endfacet
facet normal 1.0 6.07724148186601e-17 -7.279668224572311e-17
  outer loop
    vertex 5.5 7.608831226717062 3.8335045503995064
    vertex 5.5 -3.500000000000024 0.0
    vertex 5.5 8.595435963320432 3.0557280900008426
  endloop
endfacet
facet normal 1.0 6.07724148186601e-17 -7.279668224572311e-17
  outer loop
    vertex 5.5 8.595435963320432 3.0557280900008426
    vertex 5.5 -3.500000000000024 0.0
    vertex 5.5 9.64002296454482 2.357757370334525
  endloop
endfacet
facet normal 1.0 6.07724148186601e-17 -7.279668224572311e-17
  outer loop
    vertex 5.5 9.64002296454482 2.357757370334525
    vertex 5.5 -3.500000000000024 0.0
    vertex 5.5 10.736152004167252 1.7438956129861158
  endloop
endfacet
facet normal 1.0 6.07724148186601e-17 -7.279668224572311e-17
  outer loop
    vertex 5.5 10.736152004167252 1.7438956129861158
    vertex 5.5 -3.500000000000024 0.0
    vertex 5.5 11.877065082158564 1.217927479819415
  endloop
endfacet
facet normal 1.0 6.07724148186601e-17 -7.279668224572311e-17
  outer loop
    vertex 5.5 11.877065082158564 1.217927479819415
    vertex 5.5 -3.500000000000024 0.0
    vertex 5.5 13.055728090000844 0.7830957392775477
  endloop
endfacet
facet normal 1.0 6.07724148186601e-17 -7.279668224572311e-17
  outer loop
    vertex 5.5 13.055728090000844 0.7830957392775477
    vertex 5.5 -3.500000000000024 0.0
    vertex 5.5 14.264874178305513 0.44208127363717725
  endloop
endfacet
facet normal 1.0 6.07724148186601e-17 -7.279668224572311e-17
  outer loop
    vertex 5.5 14.264874178305513 0.44208127363717725
    vertex 5.5 -3.500000000000024 0.0
    vertex 5.5 15.497048559356307 0.19698655047779956
  endloop
endfacet
facet normal 1.0 6.07724148186601e-17 -7.279668224572311e-17
  outer loop
    vertex 5.5 15.497048559356307 0.19698655047779956
    vertex 5.5 -3.500000000000024 0.0
    vertex 5.5 16.744654468354483 0.04932266026995451
  endloop
endfacet
facet normal 1.0 6.07724148186601e-17 -7.279668224572311e-17
  outer loop
    vertex 5.5 16.744654468354483 0.04932266026995451
    vertex 5.5 -3.500000000000024 0.0
    vertex 5.5 18.0 0.0
  endloop
endfacet
facet normal 1.0 6.07724148186601e-17 -7.279668224572311e-17
  outer loop
    vertex 5.500000000000008 -3.499999999999988 15.999999999999979
    vertex 5.5 5.833504550399507 5.608831226717062
    vertex 5.5 5.055728090000842 6.595435963320431
  endloop
endfacet
facet normal 1.0 6.07724148186601e-17 -7.279668224572311e-17
  outer loop
    vertex 5.500000000000008 -3.499999999999988 15.999999999999979
    vertex 5.5 5.055728090000842 6.595435963320431
    vertex 5.5 4.357757370334527 7.640022964544818
  endloop
endfacet
facet normal 1.0 6.07724148186601e-17 -7.279668224572311e-17
  outer loop
    vertex 5.500000000000008 -3.499999999999988 15.999999999999979
    vertex 5.5 4.357757370334527 7.640022964544818
    vertex 5.5 3.7438956129861176 8.73615200416725
  endloop
endfacet
facet normal 1.0 6.07724148186601e-17 -7.279668224572311e-17
  outer loop
    vertex 5.500000000000008 -3.499999999999988 15.999999999999979
    vertex 5.5 3.7438956129861176 8.73615200416725
    vertex 5.5 3.217927479819414 9.87706508215856
  endloop
endfacet
facet normal 1.0 6.07724148186601e-17 -7.279668224572311e-17
  outer loop
    vertex 5.500000000000008 -3.499999999999988 15.999999999999979
    vertex 5.5 3.217927479819414 9.87706508215856
    vertex 5.5 2.7830957392775466 11.05572809000084
  endloop
endfacet
facet normal 1.0 6.07724148186601e-17 -7.279668224572311e-17
  outer loop
    vertex 5.500000000000008 -3.499999999999988 15.999999999999979
    vertex 5.5 2.7830957392775466 11.05572809000084
    vertex 5.5 2.4420812736371764 12.264874178305512
  endloop
endfacet
facet normal 1.0 6.07724148186601e-17 -7.279668224572311e-17
  outer loop
    vertex 5.500000000000008 -3.499999999999988 15.999999999999979
    vertex 5.5 2.4420812736371764 12.264874178305512
    vertex 5.5 2.196986550477799 13.497048559356305
  endloop
endfacet
facet normal 1.0 6.07724148186601e-17 -7.279668224572311e-17
  outer loop
    vertex 5.500000000000008 -3.499999999999988 15.999999999999979
    vertex 5.5 2.196986550477799 13.497048559356305
    vertex 5.5 2.0493226602699535 14.74465446835448
  endloop
endfacet
facet normal 1.0 6.07724148186601e-17 -7.279668224572311e-17
  outer loop
    vertex 5.500000000000008 -3.499999999999988 15.999999999999979
    vertex 5.5 2.0493226602699535 14.74465446835448
    vertex 5.5 2.0000000000000018 15.999999999999998
  endloop
endfacet
facet normal -1.3305834177717523e-15 0.9992290362407229 0.03925981575906804
  outer loop
    vertex 0.9999999999999722 1.999999999999996 15.999999999999998
    vertex 5.5 2.0493226602699535 14.74465446835448
    vertex 0.9999999999999722 2.0493226602699477 14.74465446835448
  endloop
endfacet
facet normal -1.3305834177717523e-15 0.9992290362407229 0.03925981575906804
  outer loop
    vertex 5.5 2.0493226602699535 14.74465446835448
    vertex 0.9999999999999722 1.999999999999996 15.999999999999998
    vertex 5.5 2.0000000000000018 15.999999999999998
  endloop
endfacet
facet normal 0.0 0.9930684569549264 0.11753739745783846
  outer loop
    vertex -8.116530071712544e-16 2.137458324637056 14.0
    vertex 5.5 2.196986550477799 13.497048559356305
    vertex 0.0 2.196986550477799 13.497048559356305
  endloop
endfacet
facet normal 0.0 0.9930684569549264 0.11753739745783846
  outer loop
    vertex 5.5 2.196986550477799 13.497048559356305
    vertex -8.116530071712544e-16 2.137458324637056 14.0
    vertex 0.9999999999999714 2.13745832463705 14.0
  endloop
endfacet
facet normal 0.0 0.9930684569549264 0.11753739745783846
  outer loop
    vertex 5.5 2.196986550477799 13.497048559356305
    vertex 0.9999999999999714 2.13745832463705 14.0
    vertex 5.5 2.0493226602699535 14.74465446835448
  endloop
endfacet
facet normal 0.0 0.9930684569549264 0.11753739745783846
  outer loop
    vertex 5.5 2.0493226602699535 14.74465446835448
    vertex 0.9999999999999714 2.13745832463705 14.0
    vertex 0.9999999999999722 2.0493226602699477 14.74465446835448
  endloop
endfacet
facet normal 0.0 0.9807852804032305 0.19509032201612803
  outer loop
    vertex 0.0 2.196986550477799 13.497048559356305
    vertex 5.5 2.4420812736371764 12.264874178305512
    vertex 0.0 2.4420812736371764 12.264874178305512
  endloop
endfacet
facet normal 0.0 0.9807852804032305 0.19509032201612803
  outer loop
    vertex 5.5 2.4420812736371764 12.264874178305512
    vertex 0.0 2.196986550477799 13.497048559356305
    vertex 5.5 2.196986550477799 13.497048559356305
  endloop
endfacet
facet normal 0.0 0.9624552364536468 0.271440449865076
  outer loop
    vertex 0.0 2.4420812736371764 12.264874178305512
    vertex 5.5 2.7830957392775466 11.05572809000084
    vertex 0.0 2.7830957392775466 11.05572809000084
  endloop
endfacet
facet normal 0.0 0.9624552364536468 0.271440449865076
  outer loop
    vertex 5.5 2.7830957392775466 11.05572809000084
    vertex 0.0 2.4420812736371764 12.264874178305512
    vertex 5.5 2.4420812736371764 12.264874178305512
  endloop
endfacet
facet normal 0.0 0.9381913359224847 0.3461170570774914
  outer loop
    vertex 0.0 2.7830957392775466 11.05572809000084
    vertex 5.5 3.217927479819414 9.87706508215856
    vertex 0.0 3.217927479819414 9.87706508215856
  endloop
endfacet
facet normal 0.0 0.9381913359224847 0.3461170570774914
  outer loop
    vertex 5.5 3.217927479819414 9.87706508215856
    vertex 0.0 2.7830957392775466 11.05572809000084
    vertex 5.5 2.7830957392775466 11.05572809000084
  endloop
endfacet
facet normal 0.0 0.9081431738250807 0.4186597375374294
  outer loop
    vertex 0.0 3.217927479819414 9.87706508215856
    vertex 5.5 3.7438956129861176 8.73615200416725
    vertex 0.0 3.7438956129861176 8.73615200416725
  endloop
endfacet
facet normal 0.0 0.9081431738250807 0.4186597375374294
  outer loop
    vertex 5.5 3.7438956129861176 8.73615200416725
    vertex 0.0 3.217927479819414 9.87706508215856
    vertex 5.5 3.217927479819414 9.87706508215856
  endloop
endfacet
facet normal 0.0 0.8724960070727975 0.48862124149695463
  outer loop
    vertex 0.0 3.7438956129861176 8.73615200416725
    vertex 5.5 4.357757370334527 7.640022964544818
    vertex 0.0 4.357757370334527 7.640022964544818
  endloop
endfacet
facet normal 0.0 0.8724960070727975 0.48862124149695463
  outer loop
    vertex 5.5 4.357757370334527 7.640022964544818
    vertex 0.0 3.7438956129861176 8.73615200416725
    vertex 5.5 3.7438956129861176 8.73615200416725
  endloop
endfacet
facet normal 0.0 0.8314696123025459 0.5555702330196015
  outer loop
    vertex 0.0 4.357757370334527 7.640022964544818
    vertex 5.5 5.055728090000842 6.595435963320431
    vertex 0.0 5.055728090000842 6.595435963320431
  endloop
endfacet
facet normal 0.0 0.8314696123025459 0.5555702330196015
  outer loop
    vertex 5.5 5.055728090000842 6.595435963320431
    vertex 0.0 4.357757370334527 7.640022964544818
    vertex 5.5 4.357757370334527 7.640022964544818
  endloop
endfacet
facet normal 0.0 0.7853169308807446 0.6190939493098345
  outer loop
    vertex 0.0 5.055728090000842 6.595435963320431
    vertex 5.5 5.833504550399507 5.608831226717062
    vertex 0.0 5.833504550399507 5.608831226717062
  endloop
endfacet
facet normal 0.0 0.7853169308807446 0.6190939493098345
  outer loop
    vertex 5.5 5.833504550399507 5.608831226717062
    vertex 0.0 5.055728090000842 6.595435963320431
    vertex 5.5 5.055728090000842 6.595435963320431
  endloop
endfacet
facet normal 0.0 0.7343225094356861 0.6788007455329412
  outer loop
    vertex 0.0 5.833504550399507 5.608831226717062
    vertex 5.5 6.686291501015241 4.68629150101524
    vertex 0.0 6.686291501015241 4.68629150101524
  endloop
endfacet
facet normal 0.0 0.7343225094356861 0.6788007455329412
  outer loop
    vertex 5.5 6.686291501015241 4.68629150101524
    vertex 0.0 5.833504550399507 5.608831226717062
    vertex 5.5 5.833504550399507 5.608831226717062
  endloop
endfacet
facet normal 0.0 0.6788007455329412 0.7343225094356861
  outer loop
    vertex 5.5 6.686291501015241 4.68629150101524
    vertex 0.0 7.608831226717062 3.8335045503995064
    vertex 0.0 6.686291501015241 4.68629150101524
  endloop
endfacet
facet normal 0.0 0.6788007455329412 0.7343225094356861
  outer loop
    vertex 0.0 7.608831226717062 3.8335045503995064
    vertex 5.5 6.686291501015241 4.68629150101524
    vertex 5.5 7.608831226717062 3.8335045503995064
  endloop
endfacet
facet normal 0.0 0.6190939493098339 0.7853169308807452
  outer loop
    vertex 5.5 7.608831226717062 3.8335045503995064
    vertex 0.0 8.595435963320432 3.0557280900008426
    vertex 0.0 7.608831226717062 3.8335045503995064
  endloop
endfacet
facet normal 0.0 0.6190939493098339 0.7853169308807452
  outer loop
    vertex 0.0 8.595435963320432 3.0557280900008426
    vertex 5.5 7.608831226717062 3.8335045503995064
    vertex 5.5 8.595435963320432 3.0557280900008426
  endloop
endfacet
facet normal 0.0 0.5555702330196025 0.8314696123025452
  outer loop
    vertex 5.5 8.595435963320432 3.0557280900008426
    vertex 0.0 9.64002296454482 2.357757370334525
    vertex 0.0 8.595435963320432 3.0557280900008426
  endloop
endfacet
facet normal 0.0 0.5555702330196025 0.8314696123025452
  outer loop
    vertex 0.0 9.64002296454482 2.357757370334525
    vertex 5.5 8.595435963320432 3.0557280900008426
    vertex 5.5 9.64002296454482 2.357757370334525
  endloop
endfacet
facet normal 0.0 0.48862124149695463 0.8724960070727975
  outer loop
    vertex 5.5 9.64002296454482 2.357757370334525
    vertex 0.0 10.736152004167252 1.7438956129861158
    vertex 0.0 9.64002296454482 2.357757370334525
  endloop
endfacet
facet normal 0.0 0.48862124149695463 0.8724960070727975
  outer loop
    vertex 0.0 10.736152004167252 1.7438956129861158
    vertex 5.5 9.64002296454482 2.357757370334525
    vertex 5.5 10.736152004167252 1.7438956129861158
  endloop
endfacet
facet normal 0.0 0.4186597375374272 0.9081431738250818
  outer loop
    vertex 5.5 10.736152004167252 1.7438956129861158
    vertex 0.0 11.877065082158564 1.217927479819415
    vertex 0.0 10.736152004167252 1.7438956129861158
  endloop
endfacet
facet normal 0.0 0.4186597375374272 0.9081431738250818
  outer loop
    vertex 0.0 11.877065082158564 1.217927479819415
    vertex 5.5 10.736152004167252 1.7438956129861158
    vertex 5.5 11.877065082158564 1.217927479819415
  endloop
endfacet
facet normal 0.0 0.3461170570774914 0.9381913359224847
  outer loop
    vertex 5.5 11.877065082158564 1.217927479819415
    vertex 0.0 13.055728090000844 0.7830957392775477
    vertex 0.0 11.877065082158564 1.217927479819415
  endloop
endfacet
facet normal 0.0 0.3461170570774914 0.9381913359224847
  outer loop
    vertex 0.0 13.055728090000844 0.7830957392775477
    vertex 5.5 11.877065082158564 1.217927479819415
    vertex 5.5 13.055728090000844 0.7830957392775477
  endloop
endfacet
facet normal 0.0 0.2714404498650763 0.9624552364536467
  outer loop
    vertex 5.5 13.055728090000844 0.7830957392775477
    vertex 0.0 14.264874178305513 0.44208127363717725
    vertex 0.0 13.055728090000844 0.7830957392775477
  endloop
endfacet
facet normal 0.0 0.2714404498650763 0.9624552364536467
  outer loop
    vertex 0.0 14.264874178305513 0.44208127363717725
    vertex 5.5 13.055728090000844 0.7830957392775477
    vertex 5.5 14.264874178305513 0.44208127363717725
  endloop
endfacet
facet normal 0.0 0.19509032201612803 0.9807852804032305
  outer loop
    vertex 5.5 14.264874178305513 0.44208127363717725
    vertex 0.0 15.497048559356307 0.19698655047779956
    vertex 0.0 14.264874178305513 0.44208127363717725
  endloop
endfacet
facet normal 0.0 0.19509032201612803 0.9807852804032305
  outer loop
    vertex 0.0 15.497048559356307 0.19698655047779956
    vertex 5.5 14.264874178305513 0.44208127363717725
    vertex 5.5 15.497048559356307 0.19698655047779956
  endloop
endfacet
facet normal 0.0 0.11753739745783846 0.9930684569549264
  outer loop
    vertex 5.5 15.497048559356307 0.19698655047779956
    vertex 0.0 16.744654468354483 0.04932266026995451
    vertex 0.0 15.497048559356307 0.19698655047779956
  endloop
endfacet
facet normal 0.0 0.11753739745783846 0.9930684569549264
  outer loop
    vertex 0.0 16.744654468354483 0.04932266026995451
    vertex 5.5 15.497048559356307 0.19698655047779956
    vertex 5.5 16.744654468354483 0.04932266026995451
  endloop
endfacet
facet normal -0.0 0.03925981575907029 0.9992290362407229
  outer loop
    vertex 5.5 16.744654468354483 0.04932266026995451
    vertex 0.0 18.0 0.0
    vertex 0.0 16.744654468354483 0.04932266026995451
  endloop
endfacet
facet normal -0.0 0.03925981575907029 0.9992290362407229
  outer loop
    vertex 0.0 18.0 0.0
    vertex 5.5 16.744654468354483 0.04932266026995451
    vertex 5.5 18.0 0.0
  endloop
endfacet
facet normal 1.0 -9.090261320978452e-17 -4.2637716679627534e-17
  outer loop
    vertex 5.500000000000001 39.499999999999986 8.834705119374681e-16
    vertex 5.5 19.25534553164552 0.04932266026995451
    vertex 5.5 18.0 0.0
  endloop
endfacet
facet normal 1.0 -9.090261320978452e-17 -4.2637716679627534e-17
  outer loop
    vertex 5.5 19.25534553164552 0.04932266026995451
    vertex 5.500000000000001 39.499999999999986 8.834705119374681e-16
    vertex 5.5 20.502951440643695 0.19698655047779956
  endloop
endfacet
facet normal 1.0 -9.090261320978452e-17 -4.2637716679627534e-17
  outer loop
    vertex 5.5 20.502951440643695 0.19698655047779956
    vertex 5.500000000000001 39.499999999999986 8.834705119374681e-16
    vertex 5.5 21.73512582169449 0.44208127363717725
  endloop
endfacet
facet normal 1.0 -9.090261320978452e-17 -4.2637716679627534e-17
  outer loop
    vertex 5.5 21.73512582169449 0.44208127363717725
    vertex 5.500000000000001 39.499999999999986 8.834705119374681e-16
    vertex 5.5 22.94427190999916 0.7830957392775477
  endloop
endfacet
facet normal 1.0 -9.090261320978452e-17 -4.2637716679627534e-17
  outer loop
    vertex 5.5 22.94427190999916 0.7830957392775477
    vertex 5.500000000000001 39.499999999999986 8.834705119374681e-16
    vertex 5.5 24.122934917841437 1.217927479819415
  endloop
endfacet
facet normal 1.0 -9.090261320978452e-17 -4.2637716679627534e-17
  outer loop
    vertex 5.5 24.122934917841437 1.217927479819415
    vertex 5.500000000000001 39.499999999999986 8.834705119374681e-16
    vertex 5.5 25.26384799583275 1.7438956129861158
  endloop
endfacet
facet normal 1.0 -9.090261320978452e-17 -4.2637716679627534e-17
  outer loop
    vertex 5.5 25.26384799583275 1.7438956129861158
    vertex 5.500000000000001 39.499999999999986 8.834705119374681e-16
    vertex 5.5 26.359977035455184 2.357757370334525
  endloop
endfacet
facet normal 1.0 -9.090261320978452e-17 -4.2637716679627534e-17
  outer loop
    vertex 5.5 26.359977035455184 2.357757370334525
    vertex 5.500000000000001 39.499999999999986 8.834705119374681e-16
    vertex 5.5 27.40456403667957 3.0557280900008426
  endloop
endfacet
facet normal 1.0 -9.090261320978452e-17 -4.2637716679627534e-17
  outer loop
    vertex 5.5 27.40456403667957 3.0557280900008426
    vertex 5.500000000000001 39.499999999999986 8.834705119374681e-16
    vertex 5.5 28.39116877328294 3.8335045503995064
  endloop
endfacet
facet normal 1.0 -9.090261320978452e-17 -4.2637716679627534e-17
  outer loop
    vertex 5.5 28.39116877328294 3.8335045503995064
    vertex 5.500000000000001 39.499999999999986 8.834705119374681e-16
    vertex 5.5 29.313708498984763 4.68629150101524
  endloop
endfacet
facet normal 1.0 -9.090261320978452e-17 -4.2637716679627534e-17
  outer loop
    vertex 5.5 29.313708498984763 4.68629150101524
    vertex 5.500000000000001 39.499999999999986 8.834705119374681e-16
    vertex 5.5 30.166495449600497 5.608831226717062
  endloop
endfacet
facet normal 1.0 -9.090261320978452e-17 -4.2637716679627534e-17
  outer loop
    vertex 5.5 30.166495449600497 5.608831226717062
    vertex 5.500000000000001 39.499999999999986 8.834705119374681e-16
    vertex 5.5 30.94427190999916 6.595435963320431
  endloop
endfacet
facet normal 1.0 -9.090261320978452e-17 -4.2637716679627534e-17
  outer loop
    vertex 5.5 30.94427190999916 6.595435963320431
    vertex 5.500000000000001 39.499999999999986 8.834705119374681e-16
    vertex 5.5 31.64224262966547 7.640022964544818
  endloop
endfacet
facet normal 1.0 -9.090261320978452e-17 -4.2637716679627534e-17
  outer loop
    vertex 5.5 31.64224262966547 7.640022964544818
    vertex 5.500000000000001 39.499999999999986 8.834705119374681e-16
    vertex 5.5 32.256104387013885 8.73615200416725
  endloop
endfacet
facet normal 1.0 -9.090261320978452e-17 -4.2637716679627534e-17
  outer loop
    vertex 5.5 32.256104387013885 8.73615200416725
    vertex 5.500000000000001 39.499999999999986 8.834705119374681e-16
    vertex 5.5 32.782072520180584 9.87706508215856
  endloop
endfacet
facet normal 1.0 -9.090261320978452e-17 -4.2637716679627534e-17
  outer loop
    vertex 5.5 32.782072520180584 9.87706508215856
    vertex 5.500000000000001 39.499999999999986 8.834705119374681e-16
    vertex 5.5 33.21690426072245 11.05572809000084
  endloop
endfacet
facet normal 1.0 -9.090261320978452e-17 -4.2637716679627534e-17
  outer loop
    vertex 5.5 33.21690426072245 11.05572809000084
    vertex 5.500000000000001 39.499999999999986 8.834705119374681e-16
    vertex 5.5 33.55791872636283 12.264874178305512
  endloop
endfacet
facet normal 1.0 -9.090261320978452e-17 -4.2637716679627534e-17
  outer loop
    vertex 5.5 33.55791872636283 12.264874178305512
    vertex 5.500000000000001 39.499999999999986 8.834705119374681e-16
    vertex 5.5 33.803013449522204 13.497048559356305
  endloop
endfacet
facet normal 1.0 -9.090261320978452e-17 -4.2637716679627534e-17
  outer loop
    vertex 5.5 33.803013449522204 13.497048559356305
    vertex 5.500000000000001 39.499999999999986 8.834705119374681e-16
    vertex 5.5 33.95067733973005 14.74465446835448
  endloop
endfacet
facet normal 1.0 -9.090261320978452e-17 -4.2637716679627534e-17
  outer loop
    vertex 5.5 33.95067733973005 14.74465446835448
    vertex 5.500000000000001 39.499999999999986 8.834705119374681e-16
    vertex 5.5 34.0 15.999999999999998
  endloop
endfacet
facet normal 1.0 -9.090261320978452e-17 -4.2637716679627534e-17
  outer loop
    vertex 5.5 34.0 15.999999999999998
    vertex 5.500000000000001 39.499999999999986 8.834705119374681e-16
    vertex 5.500000000000008 39.49999999999994 16.000000000000004
  endloop
endfacet
facet normal -0.0 -0.03925981575907029 0.9992290362407229
  outer loop
    vertex 5.5 18.0 0.0
    vertex 0.0 19.25534553164552 0.04932266026995451
    vertex 0.0 18.0 0.0
  endloop
endfacet
facet normal -0.0 -0.03925981575907029 0.9992290362407229
  outer loop
    vertex 0.0 19.25534553164552 0.04932266026995451
    vertex 5.5 18.0 0.0
    vertex 5.5 19.25534553164552 0.04932266026995451
  endloop
endfacet
facet normal 0.0 -0.11753739745783846 0.9930684569549264
  outer loop
    vertex 5.5 19.25534553164552 0.04932266026995451
    vertex 0.0 20.502951440643695 0.19698655047779956
    vertex 0.0 19.25534553164552 0.04932266026995451
  endloop
endfacet
facet normal 0.0 -0.11753739745783846 0.9930684569549264
  outer loop
    vertex 0.0 20.502951440643695 0.19698655047779956
    vertex 5.5 19.25534553164552 0.04932266026995451
    vertex 5.5 20.502951440643695 0.19698655047779956
  endloop
endfacet
facet normal 0.0 -0.19509032201612803 0.9807852804032305
  outer loop
    vertex 5.5 20.502951440643695 0.19698655047779956
    vertex 0.0 21.73512582169449 0.44208127363717725
    vertex 0.0 20.502951440643695 0.19698655047779956
  endloop
endfacet
facet normal 0.0 -0.19509032201612803 0.9807852804032305
  outer loop
    vertex 0.0 21.73512582169449 0.44208127363717725
    vertex 5.5 20.502951440643695 0.19698655047779956
    vertex 5.5 21.73512582169449 0.44208127363717725
  endloop
endfacet
facet normal 0.0 -0.2714404498650763 0.9624552364536467
  outer loop
    vertex 5.5 21.73512582169449 0.44208127363717725
    vertex 0.0 22.94427190999916 0.7830957392775477
    vertex 0.0 21.73512582169449 0.44208127363717725
  endloop
endfacet
facet normal 0.0 -0.2714404498650763 0.9624552364536467
  outer loop
    vertex 0.0 22.94427190999916 0.7830957392775477
    vertex 5.5 21.73512582169449 0.44208127363717725
    vertex 5.5 22.94427190999916 0.7830957392775477
  endloop
endfacet
facet normal 0.0 -0.3461170570774911 0.9381913359224849
  outer loop
    vertex 5.5 22.94427190999916 0.7830957392775477
    vertex 0.0 24.122934917841437 1.217927479819415
    vertex 0.0 22.94427190999916 0.7830957392775477
  endloop
endfacet
facet normal 0.0 -0.3461170570774911 0.9381913359224849
  outer loop
    vertex 0.0 24.122934917841437 1.217927479819415
    vertex 5.5 22.94427190999916 0.7830957392775477
    vertex 5.5 24.122934917841437 1.217927479819415
  endloop
endfacet
facet normal 0.0 -0.4186597375374272 0.9081431738250818
  outer loop
    vertex 5.5 24.122934917841437 1.217927479819415
    vertex 0.0 25.26384799583275 1.7438956129861158
    vertex 0.0 24.122934917841437 1.217927479819415
  endloop
endfacet
facet normal 0.0 -0.4186597375374272 0.9081431738250818
  outer loop
    vertex 0.0 25.26384799583275 1.7438956129861158
    vertex 5.5 24.122934917841437 1.217927479819415
    vertex 5.5 25.26384799583275 1.7438956129861158
  endloop
endfacet
facet normal 0.0 -0.4886212414969541 0.8724960070727976
  outer loop
    vertex 5.5 25.26384799583275 1.7438956129861158
    vertex 0.0 26.359977035455184 2.357757370334525
    vertex 0.0 25.26384799583275 1.7438956129861158
  endloop
endfacet
facet normal 0.0 -0.4886212414969541 0.8724960070727976
  outer loop
    vertex 0.0 26.359977035455184 2.357757370334525
    vertex 5.5 25.26384799583275 1.7438956129861158
    vertex 5.5 26.359977035455184 2.357757370334525
  endloop
endfacet
facet normal 0.0 -0.5555702330196041 0.8314696123025442
  outer loop
    vertex 5.5 26.359977035455184 2.357757370334525
    vertex 0.0 27.40456403667957 3.0557280900008426
    vertex 0.0 26.359977035455184 2.357757370334525
  endloop
endfacet
facet normal 0.0 -0.5555702330196041 0.8314696123025442
  outer loop
    vertex 0.0 27.40456403667957 3.0557280900008426
    vertex 5.5 26.359977035455184 2.357757370334525
    vertex 5.5 27.40456403667957 3.0557280900008426
  endloop
endfacet
facet normal 0.0 -0.6190939493098333 0.7853169308807456
  outer loop
    vertex 5.5 27.40456403667957 3.0557280900008426
    vertex 0.0 28.39116877328294 3.8335045503995064
    vertex 0.0 27.40456403667957 3.0557280900008426
  endloop
endfacet
facet normal 0.0 -0.6190939493098333 0.7853169308807456
  outer loop
    vertex 0.0 28.39116877328294 3.8335045503995064
    vertex 5.5 27.40456403667957 3.0557280900008426
    vertex 5.5 28.39116877328294 3.8335045503995064
  endloop
endfacet
facet normal 0.0 -0.6788007455329412 0.7343225094356861
  outer loop
    vertex 5.5 28.39116877328294 3.8335045503995064
    vertex 0.0 29.313708498984763 4.68629150101524
    vertex 0.0 28.39116877328294 3.8335045503995064
  endloop
endfacet
facet normal 0.0 -0.6788007455329412 0.7343225094356861
  outer loop
    vertex 0.0 29.313708498984763 4.68629150101524
    vertex 5.5 28.39116877328294 3.8335045503995064
    vertex 5.5 29.313708498984763 4.68629150101524
  endloop
endfacet
facet normal 0.0 -0.7343225094356856 0.6788007455329419
  outer loop
    vertex 5.5 30.166495449600497 5.608831226717062
    vertex 0.0 29.313708498984763 4.68629150101524
    vertex 5.5 29.313708498984763 4.68629150101524
  endloop
endfacet
facet normal 0.0 -0.7343225094356856 0.6788007455329419
  outer loop
    vertex 0.0 29.313708498984763 4.68629150101524
    vertex 5.5 30.166495449600497 5.608831226717062
    vertex 0.0 30.166495449600497 5.608831226717062
  endloop
endfacet
facet normal 0.0 -0.7853169308807452 0.6190939493098339
  outer loop
    vertex 5.5 30.94427190999916 6.595435963320431
    vertex 0.0 30.166495449600497 5.608831226717062
    vertex 5.5 30.166495449600497 5.608831226717062
  endloop
endfacet
facet normal 0.0 -0.7853169308807452 0.6190939493098339
  outer loop
    vertex 0.0 30.166495449600497 5.608831226717062
    vertex 5.5 30.94427190999916 6.595435963320431
    vertex 0.0 30.94427190999916 6.595435963320431
  endloop
endfacet
facet normal 0.0 -0.8314696123025469 0.5555702330195998
  outer loop
    vertex 5.5 31.64224262966547 7.640022964544818
    vertex 0.0 30.94427190999916 6.595435963320431
    vertex 5.5 30.94427190999916 6.595435963320431
  endloop
endfacet
facet normal 0.0 -0.8314696123025469 0.5555702330195998
  outer loop
    vertex 0.0 30.94427190999916 6.595435963320431
    vertex 5.5 31.64224262966547 7.640022964544818
    vertex 0.0 31.64224262966547 7.640022964544818
  endloop
endfacet
facet normal 0.0 -0.8724960070727955 0.48862124149695796
  outer loop
    vertex 5.5 32.256104387013885 8.73615200416725
    vertex 0.0 31.64224262966547 7.640022964544818
    vertex 5.5 31.64224262966547 7.640022964544818
  endloop
endfacet
facet normal 0.0 -0.8724960070727955 0.48862124149695796
  outer loop
    vertex 0.0 31.64224262966547 7.640022964544818
    vertex 5.5 32.256104387013885 8.73615200416725
    vertex 0.0 32.256104387013885 8.73615200416725
  endloop
endfacet
facet normal 0.0 -0.9081431738250825 0.41865973753742575
  outer loop
    vertex 5.5 32.782072520180584 9.87706508215856
    vertex 0.0 32.256104387013885 8.73615200416725
    vertex 5.5 32.256104387013885 8.73615200416725
  endloop
endfacet
facet normal 0.0 -0.9081431738250825 0.41865973753742575
  outer loop
    vertex 0.0 32.256104387013885 8.73615200416725
    vertex 5.5 32.782072520180584 9.87706508215856
    vertex 0.0 32.782072520180584 9.87706508215856
  endloop
endfacet
facet normal 0.0 -0.9381913359224847 0.3461170570774914
  outer loop
    vertex 5.5 33.21690426072245 11.05572809000084
    vertex 0.0 32.782072520180584 9.87706508215856
    vertex 5.5 32.782072520180584 9.87706508215856
  endloop
endfacet
facet normal 0.0 -0.9381913359224847 0.3461170570774914
  outer loop
    vertex 0.0 32.782072520180584 9.87706508215856
    vertex 5.5 33.21690426072245 11.05572809000084
    vertex 0.0 33.21690426072245 11.05572809000084
  endloop
endfacet
facet normal 0.0 -0.9624552364536464 0.2714404498650781
  outer loop
    vertex 5.5 33.55791872636283 12.264874178305512
    vertex 0.0 33.21690426072245 11.05572809000084
    vertex 5.5 33.21690426072245 11.05572809000084
  endloop
endfacet
facet normal 0.0 -0.9624552364536464 0.2714404498650781
  outer loop
    vertex 0.0 33.21690426072245 11.05572809000084
    vertex 5.5 33.55791872636283 12.264874178305512
    vertex 0.0 33.55791872636283 12.264874178305512
  endloop
endfacet
facet normal 0.0 -0.9807852804032305 0.19509032201612803
  outer loop
    vertex 5.5 33.803013449522204 13.497048559356305
    vertex 0.0 33.55791872636283 12.264874178305512
    vertex 5.5 33.55791872636283 12.264874178305512
  endloop
endfacet
facet normal 0.0 -0.9807852804032305 0.19509032201612803
  outer loop
    vertex 0.0 33.55791872636283 12.264874178305512
    vertex 5.5 33.803013449522204 13.497048559356305
    vertex 0.0 33.803013449522204 13.497048559356305
  endloop
endfacet
facet normal -2.4045594501419654e-16 -0.9930684569549262 0.11753739745783835
  outer loop
    vertex 5.5 33.95067733973005 14.74465446835448
    vertex 0.0 33.803013449522204 13.497048559356305
    vertex 5.5 33.803013449522204 13.497048559356305
  endloop
endfacet
facet normal -2.4045594501419654e-16 -0.9930684569549262 0.11753739745783835
  outer loop
    vertex 0.0 33.803013449522204 13.497048559356305
    vertex 5.5 33.95067733973005 14.74465446835448
    vertex 0.999999999999998 33.86254167536295 14.0
  endloop
endfacet
facet normal -2.4045594501419654e-16 -0.9930684569549262 0.11753739745783835
  outer loop
    vertex 0.999999999999998 33.86254167536295 14.0
    vertex 5.5 33.95067733973005 14.74465446835448
    vertex 1.000000000000003 33.95067733973005 14.74465446835448
  endloop
endfacet
facet normal -2.4045594501419654e-16 -0.9930684569549262 0.11753739745783835
  outer loop
    vertex -9.40682403346941e-16 33.86254167536295 14.0
    vertex 0.0 33.803013449522204 13.497048559356305
    vertex 0.999999999999998 33.86254167536295 14.0
  endloop
endfacet
facet normal 0.0 -0.9992290362407229 0.03925981575906804
  outer loop
    vertex 5.5 34.0 15.999999999999998
    vertex 1.000000000000003 33.95067733973005 14.74465446835448
    vertex 5.5 33.95067733973005 14.74465446835448
  endloop
endfacet
facet normal 0.0 -0.9992290362407229 0.03925981575906804
  outer loop
    vertex 1.000000000000003 33.95067733973005 14.74465446835448
    vertex 5.5 34.0 15.999999999999998
    vertex 1.000000000000003 34.0 15.999999999999998
  endloop
endfacet
facet normal -1.1895000761011103e-17 -3.288044239014672e-17 1.0
  outer loop
    vertex 45.0 -3.500000000000024 0.0
    vertex 5.5 18.0 0.0
    vertex 5.5 -3.500000000000024 0.0
  endloop
endfacet
facet normal -1.1895000761011103e-17 -3.288044239014672e-17 1.0
  outer loop
    vertex 5.5 18.0 0.0
    vertex 45.0 -3.500000000000024 0.0
    vertex 5.500000000000001 39.499999999999986 8.834705119374681e-16
  endloop
endfacet
facet normal -1.1895000761011103e-17 -3.288044239014672e-17 1.0
  outer loop
    vertex 5.500000000000001 39.499999999999986 8.834705119374681e-16
    vertex 45.0 -3.500000000000024 0.0
    vertex 45.0 39.49999999999999 1.7669410238749361e-15
  endloop
endfacet
facet normal -1.1895000761011103e-17 -3.288044239014672e-17 1.0
  outer loop
    vertex 45.0 39.49999999999999 1.7669410238749361e-15
    vertex 45.0 -3.500000000000024 0.0
    vertex 45.0 1.9999999999999998 0.0
  endloop
endfacet
facet normal 6.581859913905614e-16 1.0 1.0549409549221564e-15
  outer loop
    vertex -1.881364806693882e-15 41.5 14.0
    vertex 47.00000000000001 41.49999999999999 -1.999999999999998
    vertex 0.0 41.5 -1.9999999999999998
  endloop
endfacet
facet normal 6.581859913905614e-16 1.0 1.0549409549221564e-15
  outer loop
    vertex 47.00000000000001 41.49999999999999 -1.999999999999998
    vertex -1.881364806693882e-15 41.5 14.0
    vertex 47.00000000000001 41.49999999999995 13.999999999999943
  endloop
endfacet
facet normal 4.142734265598815e-17 -1.0 1.678372662944854e-15
  outer loop
    vertex 47.0 -5.49999999999999 13.999999999999948
    vertex 0.0 -5.500000000000024 -1.9999999999999998
    vertex 47.0 -5.50000000000003 -1.9999999999999998
  endloop
endfacet
facet normal 4.142734265598815e-17 -1.0 1.678372662944854e-15
  outer loop
    vertex 0.0 -5.500000000000024 -1.9999999999999998
    vertex 47.0 -5.49999999999999 13.999999999999948
    vertex -1.6233060143425088e-15 -5.499999999999999 14.0
  endloop
endfacet
facet normal 1.0 6.949203117707334e-16 -2.624533911475719e-31
  outer loop
    vertex 47.0 0.0 -1.9999999999999998
    vertex 47.0 -5.49999999999999 13.999999999999948
    vertex 47.0 -5.50000000000003 -1.9999999999999998
  endloop
endfacet
facet normal 1.0 6.949203117707334e-16 -2.624533911475719e-31
  outer loop
    vertex 47.0 -5.49999999999999 13.999999999999948
    vertex 47.0 0.0 -1.9999999999999998
    vertex 47.0 3.898715797457836e-14 13.999999999999948
  endloop
endfacet
facet normal 1.0 -1.2971845819720312e-15 -9.145042607097584e-31
  outer loop
    vertex 47.00000000000001 36.0 -1.9999999999999998
    vertex 47.00000000000001 41.49999999999995 13.999999999999943
    vertex 47.00000000000001 35.99999999999996 13.999999999999943
  endloop
endfacet
facet normal 1.0 -1.2971845819720312e-15 -9.145042607097584e-31
  outer loop
    vertex 47.00000000000001 41.49999999999995 13.999999999999943
    vertex 47.00000000000001 36.0 -1.9999999999999998
    vertex 47.00000000000001 41.49999999999999 -1.999999999999998
  endloop
endfacet
facet normal 1.427831130403999e-16 -1.0 -2.4674706722294114e-15
  outer loop
    vertex 45.0 39.49999999999999 1.7669410238749361e-15
    vertex 5.500000000000008 39.49999999999994 16.000000000000004
    vertex 5.500000000000001 39.499999999999986 8.834705119374681e-16
  endloop
endfacet
facet normal 1.427831130403999e-16 -1.0 -2.4674706722294114e-15
  outer loop
    vertex 5.500000000000008 39.49999999999994 16.000000000000004
    vertex 45.0 39.49999999999999 1.7669410238749361e-15
    vertex 45.0 39.49999999999995 16.000000000000004
  endloop
endfacet
facet normal -0.0 -0.0 1.0
  outer loop
    vertex 126.381915 1.9999999999999998 0.0
    vertex 76.5 34.0 0.0
    vertex 76.5 1.9999999999999998 0.0
  endloop
endfacet
facet normal -0.0 -0.0 1.0
  outer loop
    vertex 76.5 34.0 0.0
    vertex 126.381915 1.9999999999999998 0.0
    vertex 126.381915 34.0 0.0
  endloop
endfacet
facet normal -5.949964187758419e-17 1.0 -2.4681104912480774e-15
  outer loop
    vertex 76.5 1.9999999999999998 5.999999999999938
    vertex 126.381915 1.9999999999999998 0.0
    vertex 76.5 1.9999999999999998 0.0
  endloop
endfacet
facet normal -5.949964187758419e-17 1.0 -2.4681104912480774e-15
  outer loop
    vertex 126.381915 1.9999999999999998 0.0
    vertex 76.5 1.9999999999999998 5.999999999999938
    vertex 126.381915 2.000000000000035 15.999999999999872
  endloop
endfacet
facet normal -5.949964187758419e-17 1.0 -2.4681104912480774e-15
  outer loop
    vertex 126.381915 2.000000000000035 15.999999999999872
    vertex 76.5 1.9999999999999998 5.999999999999938
    vertex 45.0 2.0000000000000027 6.000000000000023
  endloop
endfacet
facet normal -5.949964187758419e-17 1.0 -2.4681104912480774e-15
  outer loop
    vertex 126.381915 2.000000000000035 15.999999999999872
    vertex 45.0 2.0000000000000027 6.000000000000023
    vertex 45.0 2.0000000000000377 15.999999999999957
  endloop
endfacet
facet normal 1.970214100475074e-32 1.0 -2.2471607907803565e-15
  outer loop
    vertex 5.500000000000008 -3.499999999999988 15.999999999999979
    vertex 45.0 -3.500000000000024 0.0
    vertex 5.5 -3.500000000000024 0.0
  endloop
endfacet
facet normal 1.970214100475074e-32 1.0 -2.2471607907803565e-15
  outer loop
    vertex 45.0 -3.500000000000024 0.0
    vertex 5.500000000000008 -3.499999999999988 15.999999999999979
    vertex 45.0 -3.499999999999988 15.999999999999979
  endloop
endfacet
facet normal 1.39835812702788e-15 2.559451655053866e-16 1.0
  outer loop
    vertex 45.0 2.0000000000000027 6.000000000000023
    vertex 47.0 7.000000000000003 5.9999999999999964
    vertex 45.0 34.0 5.999999999999994
  endloop
endfacet
facet normal 1.39835812702788e-15 2.559451655053866e-16 1.0
  outer loop
    vertex 47.0 7.000000000000003 5.9999999999999964
    vertex 45.0 2.0000000000000027 6.000000000000023
    vertex 76.5 1.9999999999999998 5.999999999999938
  endloop
endfacet
facet normal 1.39835812702788e-15 2.559451655053866e-16 1.0
  outer loop
    vertex 47.0 7.000000000000003 5.9999999999999964
    vertex 76.5 1.9999999999999998 5.999999999999938
    vertex 74.5 7.000000000000003 5.999999999999997
  endloop
endfacet
facet normal 1.39835812702788e-15 2.559451655053866e-16 1.0
  outer loop
    vertex 74.5 7.000000000000003 5.999999999999997
    vertex 76.5 1.9999999999999998 5.999999999999938
    vertex 74.5 28.999999999999996 5.9999999999999964
  endloop
endfacet
facet normal 1.39835812702788e-15 2.559451655053866e-16 1.0
  outer loop
    vertex 45.0 34.0 5.999999999999994
    vertex 47.00000000000001 28.999999999999996 5.9999999999999964
    vertex 76.5 34.0 5.999999999999938
  endloop
endfacet
facet normal 1.39835812702788e-15 2.559451655053866e-16 1.0
  outer loop
    vertex 47.00000000000001 28.999999999999996 5.9999999999999964
    vertex 45.0 34.0 5.999999999999994
    vertex 47.0 7.000000000000003 5.9999999999999964
  endloop
endfacet
facet normal 1.39835812702788e-15 2.559451655053866e-16 1.0
  outer loop
    vertex 76.5 34.0 5.999999999999938
    vertex 47.00000000000001 28.999999999999996 5.9999999999999964
    vertex 74.5 28.999999999999996 5.9999999999999964
  endloop
endfacet
facet normal 1.39835812702788e-15 2.559451655053866e-16 1.0
  outer loop
    vertex 76.5 34.0 5.999999999999938
    vertex 74.5 28.999999999999996 5.9999999999999964
    vertex 76.5 1.9999999999999998 5.999999999999938
  endloop
endfacet
facet normal -1.0116251852336126e-16 -1.0 -2.766456708958122e-15
  outer loop
    vertex 126.381915 33.99999999999996 15.999999999999886
    vertex 76.5 34.0 0.0
    vertex 126.381915 34.0 0.0
  endloop
endfacet
facet normal -1.0116251852336126e-16 -1.0 -2.766456708958122e-15
  outer loop
    vertex 76.5 34.0 0.0
    vertex 126.381915 33.99999999999996 15.999999999999886
    vertex 76.5 34.0 5.999999999999938
  endloop
endfacet
facet normal -1.0116251852336126e-16 -1.0 -2.766456708958122e-15
  outer loop
    vertex 76.5 34.0 5.999999999999938
    vertex 126.381915 33.99999999999996 15.999999999999886
    vertex 45.0 34.0 5.999999999999994
  endloop
endfacet
facet normal -1.0116251852336126e-16 -1.0 -2.766456708958122e-15
  outer loop
    vertex 45.0 34.0 5.999999999999994
    vertex 126.381915 33.99999999999996 15.999999999999886
    vertex 45.0 33.99999999999996 15.999999999999943
  endloop
endfacet
facet normal 9.159334043947053e-16 -1.4563122579776205e-16 1.0
  outer loop
    vertex 45.0 33.99999999999996 15.999999999999943
    vertex 46.00000000000001 34.99999999999996 15.999999999999876
    vertex 45.0 39.49999999999995 16.000000000000004
  endloop
endfacet
facet normal 9.159334043947053e-16 -1.4563122579776205e-16 1.0
  outer loop
    vertex 46.00000000000001 34.99999999999996 15.999999999999876
    vertex 45.0 33.99999999999996 15.999999999999943
    vertex 126.381915 33.99999999999996 15.999999999999886
  endloop
endfacet
facet normal 9.159334043947053e-16 -1.4563122579776205e-16 1.0
  outer loop
    vertex 45.0 39.49999999999995 16.000000000000004
    vertex 46.00000000000001 34.99999999999996 15.999999999999876
    vertex 46.0 40.49999999999996 15.999999999999902
  endloop
endfacet
facet normal 9.159334043947053e-16 -1.4563122579776205e-16 1.0
  outer loop
    vertex 46.00000000000001 34.99999999999996 15.999999999999876
    vertex 126.381915 33.99999999999996 15.999999999999886
    vertex 126.381915 34.99999999999996 15.999999999999876
  endloop
endfacet
facet normal 9.159334043947053e-16 -1.4563122579776205e-16 1.0
  outer loop
    vertex 0.9999999999999999 40.49999999999996 15.99999999999997
    vertex 5.500000000000008 39.49999999999994 16.000000000000004
    vertex 46.0 40.49999999999996 15.999999999999902
  endloop
endfacet
facet normal 9.159334043947053e-16 -1.4563122579776205e-16 1.0
  outer loop
    vertex 5.500000000000008 39.49999999999994 16.000000000000004
    vertex 0.9999999999999999 40.49999999999996 15.99999999999997
    vertex 1.000000000000003 34.0 15.999999999999998
  endloop
endfacet
facet normal 9.159334043947053e-16 -1.4563122579776205e-16 1.0
  outer loop
    vertex 5.500000000000008 39.49999999999994 16.000000000000004
    vertex 1.000000000000003 34.0 15.999999999999998
    vertex 5.5 34.0 15.999999999999998
  endloop
endfacet
facet normal 9.159334043947053e-16 -1.4563122579776205e-16 1.0
  outer loop
    vertex 46.0 40.49999999999996 15.999999999999902
    vertex 5.500000000000008 39.49999999999994 16.000000000000004
    vertex 45.0 39.49999999999995 16.000000000000004
  endloop
endfacet
facet normal 8.990677798292324e-16 -1.4616972642978337e-15 1.0
  outer loop
    vertex 0.9999999999999981 -4.499999999999992 15.999999999999968
    vertex 5.5 2.0000000000000018 15.999999999999998
    vertex 0.9999999999999722 1.999999999999996 15.999999999999998
  endloop
endfacet
facet normal 8.990677798292324e-16 -1.4616972642978337e-15 1.0
  outer loop
    vertex 5.5 2.0000000000000018 15.999999999999998
    vertex 0.9999999999999981 -4.499999999999992 15.999999999999968
    vertex 5.500000000000008 -3.499999999999988 15.999999999999979
  endloop
endfacet
facet normal 8.990677798292324e-16 -1.4616972642978337e-15 1.0
  outer loop
    vertex 5.500000000000008 -3.499999999999988 15.999999999999979
    vertex 0.9999999999999981 -4.499999999999992 15.999999999999968
    vertex 45.99999999999999 -4.499999999999992 15.999999999999936
  endloop
endfacet
facet normal 8.990677798292324e-16 -1.4616972642978337e-15 1.0
  outer loop
    vertex 5.500000000000008 -3.499999999999988 15.999999999999979
    vertex 45.99999999999999 -4.499999999999992 15.999999999999936
    vertex 45.0 -3.499999999999988 15.999999999999979
  endloop
endfacet
facet normal 8.990677798292324e-16 -1.4616972642978337e-15 1.0
  outer loop
    vertex 45.0 -3.499999999999988 15.999999999999979
    vertex 45.99999999999999 -4.499999999999992 15.999999999999936
    vertex 45.0 2.0000000000000377 15.999999999999957
  endloop
endfacet
facet normal 8.990677798292324e-16 -1.4616972642978337e-15 1.0
  outer loop
    vertex 45.0 2.0000000000000377 15.999999999999957
    vertex 45.99999999999999 -4.499999999999992 15.999999999999936
    vertex 45.99999999999999 1.0000000000000349 15.99999999999993
  endloop
endfacet
facet normal 8.990677798292324e-16 -1.4616972642978337e-15 1.0
  outer loop
    vertex 45.0 2.0000000000000377 15.999999999999957
    vertex 45.99999999999999 1.0000000000000349 15.99999999999993
    vertex 126.381915 2.000000000000035 15.999999999999872
  endloop
endfacet
facet normal 8.990677798292324e-16 -1.4616972642978337e-15 1.0
  outer loop
    vertex 126.381915 2.000000000000035 15.999999999999872
    vertex 45.99999999999999 1.0000000000000349 15.99999999999993
    vertex 126.381915 1.000000000000035 15.999999999999886
  endloop
endfacet
facet normal 1.0066593791118316e-15 1.707866010631345e-15 1.0
  outer loop
    vertex 126.381915 34.99999999999996 13.999999999999876
    vertex 47.00000000000001 35.99999999999996 13.999999999999943
    vertex 46.00000000000001 34.99999999999996 13.999999999999876
  endloop
endfacet
facet normal 1.0066593791118316e-15 1.707866010631345e-15 1.0
  outer loop
    vertex 47.00000000000001 35.99999999999996 13.999999999999943
    vertex 126.381915 34.99999999999996 13.999999999999876
    vertex 126.381915 35.999999999999964 13.999999999999876
  endloop
endfacet
facet normal 1.0066593791118316e-15 1.707866010631345e-15 1.0
  outer loop
    vertex -1.881364806693882e-15 41.5 14.0
    vertex 0.999999999999998 40.49999999999996 13.999999999999972
    vertex 47.00000000000001 41.49999999999995 13.999999999999943
  endloop
endfacet
facet normal 1.0066593791118316e-15 1.707866010631345e-15 1.0
  outer loop
    vertex 0.999999999999998 40.49999999999996 13.999999999999972
    vertex -1.881364806693882e-15 41.5 14.0
    vertex -9.40682403346941e-16 33.86254167536295 14.0
  endloop
endfacet
facet normal 1.0066593791118316e-15 1.707866010631345e-15 1.0
  outer loop
    vertex 0.999999999999998 40.49999999999996 13.999999999999972
    vertex -9.40682403346941e-16 33.86254167536295 14.0
    vertex 0.999999999999998 33.86254167536295 14.0
  endloop
endfacet
facet normal 1.0066593791118316e-15 1.707866010631345e-15 1.0
  outer loop
    vertex 47.00000000000001 41.49999999999995 13.999999999999943
    vertex 0.999999999999998 40.49999999999996 13.999999999999972
    vertex 46.0 40.49999999999996 13.999999999999904
  endloop
endfacet
facet normal 1.0066593791118316e-15 1.707866010631345e-15 1.0
  outer loop
    vertex 47.00000000000001 41.49999999999995 13.999999999999943
    vertex 46.0 40.49999999999996 13.999999999999904
    vertex 46.00000000000001 34.99999999999996 13.999999999999876
  endloop
endfacet
facet normal 1.0066593791118316e-15 1.707866010631345e-15 1.0
  outer loop
    vertex 47.00000000000001 41.49999999999995 13.999999999999943
    vertex 46.00000000000001 34.99999999999996 13.999999999999876
    vertex 47.00000000000001 35.99999999999996 13.999999999999943
  endloop
endfacet
facet normal 9.61823820151008e-31 1.0 6.395181197876201e-16
  outer loop
    vertex 0.999999999999998 40.49999999999996 13.999999999999972
    vertex 46.0 40.49999999999996 15.999999999999902
    vertex 46.0 40.49999999999996 13.999999999999904
  endloop
endfacet
facet normal 9.61823820151008e-31 1.0 6.395181197876201e-16
  outer loop
    vertex 46.0 40.49999999999996 15.999999999999902
    vertex 0.999999999999998 40.49999999999996 13.999999999999972
    vertex 0.9999999999999999 40.49999999999996 15.99999999999997
  endloop
endfacet
facet normal 1.0 1.0254423572901501e-15 -9.406824033469405e-16
  outer loop
    vertex 46.0 40.49999999999996 13.999999999999904
    vertex 46.00000000000001 34.99999999999996 15.999999999999876
    vertex 46.00000000000001 34.99999999999996 13.999999999999876
  endloop
endfacet
facet normal 1.0 1.0254423572901501e-15 -9.406824033469405e-16
  outer loop
    vertex 46.00000000000001 34.99999999999996 15.999999999999876
    vertex 46.0 40.49999999999996 13.999999999999904
    vertex 46.0 40.49999999999996 15.999999999999902
  endloop
endfacet
facet normal -0.0 1.0 -0.0
  outer loop
    vertex 46.00000000000001 34.99999999999996 15.999999999999876
    vertex 126.381915 34.99999999999996 13.999999999999876
    vertex 46.00000000000001 34.99999999999996 13.999999999999876
  endloop
endfacet
facet normal -0.0 1.0 -0.0
  outer loop
    vertex 126.381915 34.99999999999996 13.999999999999876
    vertex 46.00000000000001 34.99999999999996 15.999999999999876
    vertex 126.381915 34.99999999999996 15.999999999999876
  endloop
endfacet
facet normal -1.0 -3.335216282847382e-16 1.9225937783805802e-15
  outer loop
    vertex 1.000000000000003 33.95067733973005 14.74465446835448
    vertex 0.999999999999998 40.49999999999996 13.999999999999972
    vertex 0.999999999999998 33.86254167536295 14.0
  endloop
endfacet
facet normal -1.0 -3.335216282847382e-16 1.9225937783805802e-15
  outer loop
    vertex 0.999999999999998 40.49999999999996 13.999999999999972
    vertex 1.000000000000003 33.95067733973005 14.74465446835448
    vertex 1.000000000000003 34.0 15.999999999999998
  endloop
endfacet
facet normal -1.0 -3.335216282847382e-16 1.9225937783805802e-15
  outer loop
    vertex 0.999999999999998 40.49999999999996 13.999999999999972
    vertex 1.000000000000003 34.0 15.999999999999998
    vertex 0.9999999999999999 40.49999999999996 15.99999999999997
  endloop
endfacet
facet normal 1.0 -8.323033729753218e-31 -8.116530071712545e-16
  outer loop
    vertex 45.99999999999999 -4.499999999999991 13.999999999999938
    vertex 45.99999999999999 1.0000000000000349 15.99999999999993
    vertex 45.99999999999999 -4.499999999999992 15.999999999999936
  endloop
endfacet
facet normal 1.0 -8.323033729753218e-31 -8.116530071712545e-16
  outer loop
    vertex 45.99999999999999 1.0000000000000349 15.99999999999993
    vertex 45.99999999999999 -4.499999999999991 13.999999999999938
    vertex 45.99999999999999 1.0000000000000357 13.999999999999932
  endloop
endfacet
facet normal -2.854405421137066e-31 -1.0 -4.140869460235323e-16
  outer loop
    vertex 45.99999999999999 -4.499999999999992 15.999999999999936
    vertex 0.9999999999999966 -4.499999999999991 13.999999999999968
    vertex 45.99999999999999 -4.499999999999991 13.999999999999938
  endloop
endfacet
facet normal -2.854405421137066e-31 -1.0 -4.140869460235323e-16
  outer loop
    vertex 0.9999999999999966 -4.499999999999991 13.999999999999968
    vertex 45.99999999999999 -4.499999999999992 15.999999999999936
    vertex 0.9999999999999981 -4.499999999999992 15.999999999999968
  endloop
endfacet
facet normal -1.0 -3.1192995743503913e-15 -3.1798173054899017e-15
  outer loop
    vertex 0.9999999999999722 1.999999999999996 15.999999999999998
    vertex 0.9999999999999966 -4.499999999999991 13.999999999999968
    vertex 0.9999999999999981 -4.499999999999992 15.999999999999968
  endloop
endfacet
facet normal -1.0 -3.1192995743503913e-15 -3.1798173054899017e-15
  outer loop
    vertex 0.9999999999999966 -4.499999999999991 13.999999999999968
    vertex 0.9999999999999722 1.999999999999996 15.999999999999998
    vertex 0.9999999999999722 2.0493226602699477 14.74465446835448
  endloop
endfacet
facet normal -1.0 -3.1192995743503913e-15 -3.1798173054899017e-15
  outer loop
    vertex 0.9999999999999966 -4.499999999999991 13.999999999999968
    vertex 0.9999999999999722 2.0493226602699477 14.74465446835448
    vertex 0.9999999999999714 2.13745832463705 14.0
  endloop
endfacet
facet normal 2.1926313295624378e-18 -1.0 -4.140869460235322e-16
  outer loop
    vertex 126.381915 1.000000000000035 15.999999999999886
    vertex 45.99999999999999 1.0000000000000357 13.999999999999932
    vertex 126.381915 1.000000000000036 13.999999999999886
  endloop
endfacet
facet normal 2.1926313295624378e-18 -1.0 -4.140869460235322e-16
  outer loop
    vertex 45.99999999999999 1.0000000000000357 13.999999999999932
    vertex 126.381915 1.000000000000035 15.999999999999886
    vertex 45.99999999999999 1.0000000000000349 15.99999999999993
  endloop
endfacet
facet normal 8.543212797957377e-16 -1.1551922934267614e-15 1.0
  outer loop
    vertex -1.6233060143425088e-15 -5.499999999999999 14.0
    vertex 0.9999999999999966 -4.499999999999991 13.999999999999968
    vertex -8.116530071712544e-16 2.137458324637056 14.0
  endloop
endfacet
facet normal 8.543212797957377e-16 -1.1551922934267614e-15 1.0
  outer loop
    vertex 0.9999999999999966 -4.499999999999991 13.999999999999968
    vertex -1.6233060143425088e-15 -5.499999999999999 14.0
    vertex 47.0 -5.49999999999999 13.999999999999948
  endloop
endfacet
facet normal 8.543212797957377e-16 -1.1551922934267614e-15 1.0
  outer loop
    vertex -8.116530071712544e-16 2.137458324637056 14.0
    vertex 0.9999999999999966 -4.499999999999991 13.999999999999968
    vertex 0.9999999999999714 2.13745832463705 14.0
  endloop
endfacet
facet normal 8.543212797957377e-16 -1.1551922934267614e-15 1.0
  outer loop
    vertex 0.9999999999999966 -4.499999999999991 13.999999999999968
    vertex 47.0 -5.49999999999999 13.999999999999948
    vertex 45.99999999999999 -4.499999999999991 13.999999999999938
  endloop
endfacet
facet normal 8.543212797957377e-16 -1.1551922934267614e-15 1.0
  outer loop
    vertex 45.99999999999999 -4.499999999999991 13.999999999999938
    vertex 47.0 -5.49999999999999 13.999999999999948
    vertex 45.99999999999999 1.0000000000000357 13.999999999999932
  endloop
endfacet
facet normal 8.543212797957377e-16 -1.1551922934267614e-15 1.0
  outer loop
    vertex 45.99999999999999 1.0000000000000357 13.999999999999932
    vertex 47.0 -5.49999999999999 13.999999999999948
    vertex 47.0 3.898715797457836e-14 13.999999999999948
  endloop
endfacet
facet normal 8.543212797957377e-16 -1.1551922934267614e-15 1.0
  outer loop
    vertex 45.99999999999999 1.0000000000000357 13.999999999999932
    vertex 47.0 3.898715797457836e-14 13.999999999999948
    vertex 126.381915 1.000000000000036 13.999999999999886
  endloop
endfacet
facet normal 8.543212797957377e-16 -1.1551922934267614e-15 1.0
  outer loop
    vertex 126.381915 1.000000000000036 13.999999999999886
    vertex 47.0 3.898715797457836e-14 13.999999999999948
    vertex 126.381915 3.5965765314705603e-14 13.999999999999886
  endloop
endfacet
endsolid camera_housing_base
