solid camera_housing_base
facet normal 1.5446514901347433e-18 9.973093597982716e-18 -1.0
  outer loop
    vertex 47.00000000000001 36.0 -1.9999999999999998
    vertex 56.892511680243246 19.05819840433643 -2.0000000000000018
    vertex 56.75430930660248 17.8143770415696 -2.0000000000000018
  endloop
endfacet
facet normal 1.5446514901347433e-18 9.973093597982716e-18 -1.0
  outer loop
    vertex 56.892511680243246 19.05819840433643 -2.0000000000000018
    vertex 47.00000000000001 36.0 -1.9999999999999998
    vertex 57.40831188732331 20.198435934384996 -2.0000000000000018
  endloop
endfacet
facet normal 1.5446514901347433e-18 9.973093597982716e-18 -1.0
  outer loop
    vertex 57.40831188732331 20.198435934384996 -2.0000000000000018
    vertex 47.00000000000001 36.0 -1.9999999999999998
    vertex 58.251219809782306 21.12347523777212 -2.0000000000000018
  endloop
endfacet
facet normal 1.5446514901347433e-18 9.973093597982716e-18 -1.0
  outer loop
    vertex 58.251219809782306 21.12347523777212 -2.0000000000000018
    vertex 47.00000000000001 36.0 -1.9999999999999998
    vertex 59.33872574728513 21.74276702235446 -2.0000000000000018
  endloop
endfacet
facet normal 1.5446514901347433e-18 9.973093597982716e-18 -1.0
  outer loop
    vertex 59.33872574728513 21.74276702235446 -2.0000000000000018
    vertex 47.00000000000001 36.0 -1.9999999999999998
    vertex 126.381915 36.0 -1.9999999999999996
  endloop
endfacet
facet normal 1.5446514901347433e-18 9.973093597982716e-18 -1.0
  outer loop
    vertex 59.33872574728513 21.74276702235446 -2.0000000000000018
    vertex 126.381915 36.0 -1.9999999999999996
    vertex 60.5643770415696 21.995690693397517 -2.0000000000000018
  endloop
endfacet
facet normal 1.5446514901347433e-18 9.973093597982716e-18 -1.0
  outer loop
    vertex 60.5643770415696 21.995690693397517 -2.0000000000000018
    vertex 126.381915 36.0 -1.9999999999999996
    vertex 61.80819840433644 21.857488319756754 -2.0000000000000018
  endloop
endfacet
facet normal 1.5446514901347433e-18 9.973093597982716e-18 -1.0
  outer loop
    vertex 61.80819840433644 21.857488319756754 -2.0000000000000018
    vertex 126.381915 36.0 -1.9999999999999996
    vertex 62.948435934385 21.341688112676696 -2.0000000000000018
  endloop
endfacet
facet normal 1.5446514901347433e-18 9.973093597982716e-18 -1.0
  outer loop
    vertex 62.948435934385 21.341688112676696 -2.0000000000000018
    vertex 126.381915 36.0 -1.9999999999999996
    vertex 63.87347523777212 20.498780190217694 -2.0000000000000018
  endloop
endfacet
facet normal 1.5446514901347433e-18 9.973093597982716e-18 -1.0
  outer loop
    vertex 63.87347523777212 20.498780190217694 -2.0000000000000018
    vertex 126.381915 36.0 -1.9999999999999996
    vertex 64.49276702235446 19.411274252714865 -2.0000000000000018
  endloop
endfacet
facet normal 1.5446514901347433e-18 9.973093597982716e-18 -1.0
  outer loop
    vertex 64.49276702235446 19.411274252714865 -2.0000000000000018
    vertex 126.381915 36.0 -1.9999999999999996
    vertex 64.74569069339752 18.185622958430397 -2.0000000000000018
  endloop
endfacet
facet normal 1.5446514901347433e-18 9.973093597982716e-18 -1.0
  outer loop
    vertex 47.00000000000001 41.49999999999999 -1.999999999999998
    vertex 0.0 -5.500000000000024 -1.9999999999999998
    vertex 0.0 41.5 -1.9999999999999998
  endloop
endfacet
facet normal 1.5446514901347433e-18 9.973093597982716e-18 -1.0
  outer loop
    vertex 0.0 -5.500000000000024 -1.9999999999999998
    vertex 47.00000000000001 41.49999999999999 -1.999999999999998
    vertex 47.0 0.0 -1.9999999999999998
  endloop
endfacet
facet normal 1.5446514901347433e-18 9.973093597982716e-18 -1.0
  outer loop
    vertex 47.0 0.0 -1.9999999999999998
    vertex 47.00000000000001 41.49999999999999 -1.999999999999998
    vertex 47.00000000000001 36.0 -1.9999999999999998
  endloop
endfacet
facet normal 1.5446514901347433e-18 9.973093597982716e-18 -1.0
  outer loop
    vertex 47.0 0.0 -1.9999999999999998
    vertex 47.00000000000001 36.0 -1.9999999999999998
    vertex 57.00723297764554 16.58872574728513 -2.0000000000000018
  endloop
endfacet
facet normal 1.5446514901347433e-18 9.973093597982716e-18 -1.0
  outer loop
    vertex 47.0 0.0 -1.9999999999999998
    vertex 57.00723297764554 16.58872574728513 -2.0000000000000018
    vertex 57.62652476222788 15.501219809782302 -2.0000000000000018
  endloop
endfacet
facet normal 1.5446514901347433e-18 9.973093597982716e-18 -1.0
  outer loop
    vertex 47.0 0.0 -1.9999999999999998
    vertex 57.62652476222788 15.501219809782302 -2.0000000000000018
    vertex 58.551564065615 14.658311887323302 -2.0000000000000018
  endloop
endfacet
facet normal 1.5446514901347433e-18 9.973093597982716e-18 -1.0
  outer loop
    vertex 47.0 0.0 -1.9999999999999998
    vertex 58.551564065615 14.658311887323302 -2.0000000000000018
    vertex 59.69180159566357 14.142511680243242 -2.0000000000000018
  endloop
endfacet
facet normal 1.5446514901347433e-18 9.973093597982716e-18 -1.0
  outer loop
    vertex 47.0 0.0 -1.9999999999999998
    vertex 59.69180159566357 14.142511680243242 -2.0000000000000018
    vertex 126.381915 -9.410368857023488e-18 -1.9999999999999996
  endloop
endfacet
facet normal 1.5446514901347433e-18 9.973093597982716e-18 -1.0
  outer loop
    vertex 57.00723297764554 16.58872574728513 -2.0000000000000018
    vertex 47.00000000000001 36.0 -1.9999999999999998
    vertex 56.75430930660248 17.8143770415696 -2.0000000000000018
  endloop
endfacet
facet normal 1.5446514901347433e-18 9.973093597982716e-18 -1.0
  outer loop
    vertex 126.381915 -9.410368857023488e-18 -1.9999999999999996
    vertex 59.69180159566357 14.142511680243242 -2.0000000000000018
    vertex 60.93562295843041 14.00430930660248 -2.0000000000000018
  endloop
endfacet
facet normal 1.5446514901347433e-18 9.973093597982716e-18 -1.0
  outer loop
    vertex 126.381915 -9.410368857023488e-18 -1.9999999999999996
    vertex 60.93562295843041 14.00430930660248 -2.0000000000000018
    vertex 62.16127425271486 14.257232977645536 -2.0000000000000018
  endloop
endfacet
facet normal 1.5446514901347433e-18 9.973093597982716e-18 -1.0
  outer loop
    vertex 126.381915 -9.410368857023488e-18 -1.9999999999999996
    vertex 62.16127425271486 14.257232977645536 -2.0000000000000018
    vertex 63.248780190217694 14.876524762227877 -2.0000000000000018
  endloop
endfacet
facet normal 1.5446514901347433e-18 9.973093597982716e-18 -1.0
  outer loop
    vertex 126.381915 -9.410368857023488e-18 -1.9999999999999996
    vertex 63.248780190217694 14.876524762227877 -2.0000000000000018
    vertex 64.09168811267669 15.801564065614999 -2.0000000000000018
  endloop
endfacet
facet normal 1.5446514901347433e-18 9.973093597982716e-18 -1.0
  outer loop
    vertex 126.381915 -9.410368857023488e-18 -1.9999999999999996
    vertex 64.09168811267669 15.801564065614999 -2.0000000000000018
    vertex 64.60748831975675 16.941801595663566 -2.0000000000000018
  endloop
endfacet
facet normal 1.5446514901347433e-18 9.973093597982716e-18 -1.0
  outer loop
    vertex 126.381915 -9.410368857023488e-18 -1.9999999999999996
    vertex 64.60748831975675 16.941801595663566 -2.0000000000000018
    vertex 64.74569069339752 18.185622958430397 -2.0000000000000018
  endloop
endfacet
facet normal 1.5446514901347433e-18 9.973093597982716e-18 -1.0
  outer loop
    vertex 126.381915 -9.410368857023488e-18 -1.9999999999999996
    vertex 64.74569069339752 18.185622958430397 -2.0000000000000018
    vertex 126.381915 36.0 -1.9999999999999996
  endloop
endfacet
facet normal 1.5446514901347433e-18 9.973093597982716e-18 -1.0
  outer loop
    vertex 47.0 -5.50000000000003 -1.9999999999999998
    vertex 0.0 -5.500000000000024 -1.9999999999999998
    vertex 47.0 0.0 -1.9999999999999998
  endloop
endfacet
facet normal -1.6662703448117728e-17 -1.0 1.2754401021750341e-16
  outer loop
    vertex 126.381915 -9.410368857023488e-18 -1.9999999999999996
    vertex 47.0 3.898715797457836e-14 13.999999999999948
    vertex 47.0 0.0 -1.9999999999999998
  endloop
endfacet
facet normal -1.6662703448117728e-17 -1.0 1.2754401021750341e-16
  outer loop
    vertex 47.0 3.898715797457836e-14 13.999999999999948
    vertex 126.381915 -9.410368857023488e-18 -1.9999999999999996
    vertex 126.381915 3.5965765314705603e-14 13.999999999999886
  endloop
endfacet
facet normal -3.09148467038635e-17 1.0 2.3499720687899443e-16
  outer loop
    vertex 47.00000000000001 35.99999999999996 13.999999999999943
    vertex 126.381915 36.0 -1.9999999999999996
    vertex 47.00000000000001 36.0 -1.9999999999999998
  endloop
endfacet
facet normal -3.09148467038635e-17 1.0 2.3499720687899443e-16
  outer loop
    vertex 126.381915 36.0 -1.9999999999999996
    vertex 47.00000000000001 35.99999999999996 13.999999999999943
    vertex 126.381915 35.999999999999964 13.999999999999876
  endloop
endfacet
facet normal 1.0 -0.0 -0.0
  outer loop
    vertex 126.381915 -9.410368857023488e-18 -1.9999999999999996
    vertex 126.381915 1.9999999999999998 0.0
    vertex 126.381915 3.5965765314705603e-14 13.999999999999886
  endloop
endfacet
facet normal 1.0 -0.0 -0.0
  outer loop
    vertex 126.381915 1.9999999999999998 0.0
    vertex 126.381915 -9.410368857023488e-18 -1.9999999999999996
    vertex 126.381915 36.0 -1.9999999999999996
  endloop
endfacet
facet normal 1.0 -0.0 -0.0
  outer loop
    vertex 126.381915 3.5965765314705603e-14 13.999999999999886
    vertex 126.381915 1.9999999999999998 0.0
    vertex 126.381915 1.000000000000036 13.999999999999886
  endloop
endfacet
facet normal 1.0 -0.0 -0.0
  outer loop
    vertex 126.381915 1.9999999999999998 0.0
    vertex 126.381915 36.0 -1.9999999999999996
    vertex 126.381915 34.0 0.0
  endloop
endfacet
facet normal 1.0 -0.0 -0.0
  outer loop
    vertex 126.381915 34.0 0.0
    vertex 126.381915 36.0 -1.9999999999999996
    vertex 126.381915 34.99999999999996 13.999999999999876
  endloop
endfacet
facet normal 1.0 -0.0 -0.0
  outer loop
    vertex 126.381915 34.99999999999996 13.999999999999876
    vertex 126.381915 36.0 -1.9999999999999996
    vertex 126.381915 35.999999999999964 13.999999999999876
  endloop
endfacet
facet normal 1.0 -0.0 -0.0
  outer loop
    vertex 126.381915 34.0 0.0
    vertex 126.381915 34.99999999999996 20.499999999999876
    vertex 126.381915 33.99999999999996 20.499999999999886
  endloop
endfacet
facet normal 1.0 -0.0 -0.0
  outer loop
    vertex 126.381915 34.99999999999996 20.499999999999876
    vertex 126.381915 34.0 0.0
    vertex 126.381915 34.99999999999996 13.999999999999876
  endloop
endfacet
facet normal 1.0 -0.0 -0.0
  outer loop
    vertex 126.381915 34.99999999999996 20.499999999999876
    vertex 126.381915 34.99999999999996 13.999999999999876
    vertex 126.381915 34.999999999999964 18.499999999999876
  endloop
endfacet
facet normal 1.0 -0.0 -0.0
  outer loop
    vertex 126.381915 1.0000000000000309 18.499999999999886
    vertex 126.381915 2.0000000000000284 20.499999999999872
    vertex 126.381915 1.0000000000000284 20.499999999999886
  endloop
endfacet
facet normal 1.0 -0.0 -0.0
  outer loop
    vertex 126.381915 2.0000000000000284 20.499999999999872
    vertex 126.381915 1.0000000000000309 18.499999999999886
    vertex 126.381915 1.000000000000036 13.999999999999886
  endloop
endfacet
facet normal 1.0 -0.0 -0.0
  outer loop
    vertex 126.381915 2.0000000000000284 20.499999999999872
    vertex 126.381915 1.000000000000036 13.999999999999886
    vertex 126.381915 1.9999999999999998 0.0
  endloop
endfacet
facet normal 2.225742792864094e-32 -1.0 -9.399888275159659e-16
  outer loop
    vertex 74.5 29.000000000000004 -3.524958103184872e-15
    vertex 47.00000000000001 28.999999999999996 5.9999999999999964
    vertex 47.00000000000001 29.000000000000004 -4.229949723821846e-15
  endloop
endfacet
facet normal 2.225742792864094e-32 -1.0 -9.399888275159659e-16
  outer loop
    vertex 47.00000000000001 28.999999999999996 5.9999999999999964
    vertex 74.5 29.000000000000004 -3.524958103184872e-15
    vertex 74.5 28.999999999999996 5.9999999999999964
  endloop
endfacet
facet normal 2.782178491080116e-32 1.0 -4.699944137579829e-16
  outer loop
    vertex 47.0 7.000000000000003 5.9999999999999964
    vertex 74.5 7.0 -2.8199664825478975e-15
    vertex 47.0 7.0 -4.229949723821846e-15
  endloop
endfacet
facet normal 2.782178491080116e-32 1.0 -4.699944137579829e-16
  outer loop
    vertex 74.5 7.0 -2.8199664825478975e-15
    vertex 47.0 7.000000000000003 5.9999999999999964
    vertex 74.5 7.000000000000003 5.999999999999997
  endloop
endfacet
facet normal 1.0 -0.0 -0.0
  outer loop
    vertex 76.5 34.0 0.0
    vertex 76.5 1.9999999999999998 5.999999999999938
    vertex 76.5 1.9999999999999998 0.0
  endloop
endfacet
facet normal 1.0 -0.0 -0.0
  outer loop
    vertex 76.5 1.9999999999999998 5.999999999999938
    vertex 76.5 34.0 0.0
    vertex 76.5 34.0 5.999999999999938
  endloop
endfacet
facet normal -1.0 0.0 0.0
  outer loop
    vertex 74.5 7.000000000000003 5.999999999999997
    vertex 74.5 29.000000000000004 -3.524958103184872e-15
    vertex 74.5 7.0 -2.8199664825478975e-15
  endloop
endfacet
facet normal -1.0 0.0 0.0
  outer loop
    vertex 74.5 29.000000000000004 -3.524958103184872e-15
    vertex 74.5 7.000000000000003 5.999999999999997
    vertex 74.5 28.999999999999996 5.9999999999999964
  endloop
endfacet
facet normal -1.0 0.0 0.0
  outer loop
    vertex 45.0 -3.4999999999999942 20.49999999999998
    vertex 45.0 1.9999999999999998 0.0
    vertex 45.0 -3.500000000000024 0.0
  endloop
endfacet
facet normal -1.0 0.0 0.0
  outer loop
    vertex 45.0 1.9999999999999998 0.0
    vertex 45.0 -3.4999999999999942 20.49999999999998
    vertex 45.0 2.0000000000000027 6.000000000000023
  endloop
endfacet
facet normal -1.0 0.0 0.0
  outer loop
    vertex 45.0 2.0000000000000027 6.000000000000023
    vertex 45.0 -3.4999999999999942 20.49999999999998
    vertex 45.0 2.000000000000031 20.499999999999957
  endloop
endfacet
facet normal -1.0 0.0 0.0
  outer loop
    vertex 45.0 39.49999999999995 20.500000000000004
    vertex 45.0 34.0 5.999999999999994
    vertex 45.0 33.99999999999996 20.499999999999943
  endloop
endfacet
facet normal -1.0 0.0 0.0
  outer loop
    vertex 45.0 2.0000000000000027 6.000000000000023
    vertex 45.0 39.49999999999999 1.7669410238749361e-15
    vertex 45.0 1.9999999999999998 0.0
  endloop
endfacet
facet normal -1.0 0.0 0.0
  outer loop
    vertex 45.0 39.49999999999999 1.7669410238749361e-15
    vertex 45.0 2.0000000000000027 6.000000000000023
    vertex 45.0 34.0 5.999999999999994
  endloop
endfacet
facet normal -1.0 0.0 0.0
  outer loop
    vertex 45.0 39.49999999999999 1.7669410238749361e-15
    vertex 45.0 34.0 5.999999999999994
    vertex 45.0 39.49999999999995 20.500000000000004
  endloop
endfacet
facet normal 1.0 -2.563605893225361e-16 -6.375825708725265e-32
  outer loop
    vertex 47.00000000000001 29.000000000000004 -4.229949723821846e-15
    vertex 47.0 7.000000000000003 5.9999999999999964
    vertex 47.0 7.0 -4.229949723821846e-15
  endloop
endfacet
facet normal 1.0 -2.563605893225361e-16 -6.375825708725265e-32
  outer loop
    vertex 47.0 7.000000000000003 5.9999999999999964
    vertex 47.00000000000001 29.000000000000004 -4.229949723821846e-15
    vertex 47.00000000000001 28.999999999999996 5.9999999999999964
  endloop
endfacet
facet normal -1.1895000761011103e-17 -3.288044239014672e-17 1.0
  outer loop
    vertex 45.0 -3.500000000000024 0.0
    vertex 5.500000000000001 39.499999999999986 8.834705119374681e-16
    vertex 5.5 -3.500000000000024 0.0
  endloop
endfacet
facet normal -1.1895000761011103e-17 -3.288044239014672e-17 1.0
  outer loop
    vertex 5.500000000000001 39.499999999999986 8.834705119374681e-16
    vertex 45.0 -3.500000000000024 0.0
    vertex 45.0 39.49999999999999 1.7669410238749361e-15
  endloop
endfacet
facet normal -1.1895000761011103e-17 -3.288044239014672e-17 1.0
  outer loop
    vertex 45.0 39.49999999999999 1.7669410238749361e-15
    vertex 45.0 -3.500000000000024 0.0
    vertex 45.0 1.9999999999999998 0.0
  endloop
endfacet
facet normal 6.581859913905614e-16 1.0 1.0549409549221564e-15
  outer loop
    vertex -1.881364806693882e-15 41.5 14.0
    vertex 47.00000000000001 41.49999999999999 -1.999999999999998
    vertex 0.0 41.5 -1.9999999999999998
  endloop
endfacet
facet normal 6.581859913905614e-16 1.0 1.0549409549221564e-15
  outer loop
    vertex 47.00000000000001 41.49999999999999 -1.999999999999998
    vertex -1.881364806693882e-15 41.5 14.0
    vertex 47.00000000000001 41.49999999999995 13.999999999999943
  endloop
endfacet
facet normal 4.142734265598815e-17 -1.0 1.678372662944854e-15
  outer loop
    vertex 47.0 -5.49999999999999 13.999999999999948
    vertex 0.0 -5.500000000000024 -1.9999999999999998
    vertex 47.0 -5.50000000000003 -1.9999999999999998
  endloop
endfacet
facet normal 4.142734265598815e-17 -1.0 1.678372662944854e-15
  outer loop
    vertex 0.0 -5.500000000000024 -1.9999999999999998
    vertex 47.0 -5.49999999999999 13.999999999999948
    vertex -1.6233060143425088e-15 -5.499999999999999 14.0
  endloop
endfacet
facet normal 1.0 6.949203117707334e-16 -2.624533911475719e-31
  outer loop
    vertex 47.0 0.0 -1.9999999999999998
    vertex 47.0 -5.49999999999999 13.999999999999948
    vertex 47.0 -5.50000000000003 -1.9999999999999998
  endloop
endfacet
facet normal 1.0 6.949203117707334e-16 -2.624533911475719e-31
  outer loop
    vertex 47.0 -5.49999999999999 13.999999999999948
    vertex 47.0 0.0 -1.9999999999999998
    vertex 47.0 3.898715797457836e-14 13.999999999999948
  endloop
endfacet
facet normal 1.0 -1.2971845819720312e-15 -9.145042607097584e-31
  outer loop
    vertex 47.00000000000001 36.0 -1.9999999999999998
    vertex 47.00000000000001 41.49999999999995 13.999999999999943
    vertex 47.00000000000001 35.99999999999996 13.999999999999943
  endloop
endfacet
facet normal 1.0 -1.2971845819720312e-15 -9.145042607097584e-31
  outer loop
    vertex 47.00000000000001 41.49999999999995 13.999999999999943
    vertex 47.00000000000001 36.0 -1.9999999999999998
    vertex 47.00000000000001 41.49999999999999 -1.999999999999998
  endloop
endfacet
facet normal 1.427831130403999e-16 -1.0 -2.4674706722294114e-15
  outer loop
    vertex 45.0 39.49999999999999 1.7669410238749361e-15
    vertex 5.500000000000008 39.49999999999994 16.000000000000004
    vertex 5.500000000000001 39.499999999999986 8.834705119374681e-16
  endloop
endfacet
facet normal 1.427831130403999e-16 -1.0 -2.4674706722294114e-15
  outer loop
    vertex 5.500000000000008 39.49999999999994 16.000000000000004
    vertex 45.0 39.49999999999999 1.7669410238749361e-15
    vertex 45.0 39.49999999999995 20.500000000000004
  endloop
endfacet
facet normal 1.427831130403999e-16 -1.0 -2.4674706722294114e-15
  outer loop
    vertex 5.500000000000008 39.49999999999994 16.000000000000004
    vertex 45.0 39.49999999999995 20.500000000000004
    vertex 5.500000000000012 39.49999999999994 20.500000000000004
  endloop
endfacet
facet normal -0.0 -0.0 1.0
  outer loop
    vertex 126.381915 1.9999999999999998 0.0
    vertex 76.5 34.0 0.0
    vertex 76.5 1.9999999999999998 0.0
  endloop
endfacet
facet normal -0.0 -0.0 1.0
  outer loop
    vertex 76.5 34.0 0.0
    vertex 126.381915 1.9999999999999998 0.0
    vertex 126.381915 34.0 0.0
  endloop
endfacet
facet normal -5.949964187758419e-17 1.0 -2.4681104912480774e-15
  outer loop
    vertex 76.5 1.9999999999999998 5.999999999999938
    vertex 126.381915 1.9999999999999998 0.0
    vertex 76.5 1.9999999999999998 0.0
  endloop
endfacet
facet normal -5.949964187758419e-17 1.0 -2.4681104912480774e-15
  outer loop
    vertex 126.381915 1.9999999999999998 0.0
    vertex 76.5 1.9999999999999998 5.999999999999938
    vertex 126.381915 2.0000000000000284 20.499999999999872
  endloop
endfacet
facet normal -5.949964187758419e-17 1.0 -2.4681104912480774e-15
  outer loop
    vertex 126.381915 2.0000000000000284 20.499999999999872
    vertex 76.5 1.9999999999999998 5.999999999999938
    vertex 45.0 2.0000000000000027 6.000000000000023
  endloop
endfacet
facet normal -5.949964187758419e-17 1.0 -2.4681104912480774e-15
  outer loop
    vertex 126.381915 2.0000000000000284 20.499999999999872
    vertex 45.0 2.0000000000000027 6.000000000000023
    vertex 45.0 2.000000000000031 20.499999999999957
  endloop
endfacet
facet normal 1.970214100475074e-32 1.0 -2.2471607907803565e-15
  outer loop
    vertex 5.500000000000008 -3.499999999999988 15.999999999999979
    vertex 45.0 -3.500000000000024 0.0
    vertex 5.5 -3.500000000000024 0.0
  endloop
endfacet
facet normal 1.970214100475074e-32 1.0 -2.2471607907803565e-15
  outer loop
    vertex 45.0 -3.500000000000024 0.0
    vertex 5.500000000000008 -3.499999999999988 15.999999999999979
    vertex 45.0 -3.4999999999999942 20.49999999999998
  endloop
endfacet
facet normal 1.970214100475074e-32 1.0 -2.2471607907803565e-15
  outer loop
    vertex 45.0 -3.4999999999999942 20.49999999999998
    vertex 5.500000000000008 -3.499999999999988 15.999999999999979
    vertex 5.500000000000012 -3.4999999999999942 20.49999999999998
  endloop
endfacet
facet normal 1.39835812702788e-15 2.559451655053866e-16 1.0
  outer loop
    vertex 45.0 2.0000000000000027 6.000000000000023
    vertex 47.0 7.000000000000003 5.9999999999999964
    vertex 45.0 34.0 5.999999999999994
  endloop
endfacet
facet normal 1.39835812702788e-15 2.559451655053866e-16 1.0
  outer loop
    vertex 47.0 7.000000000000003 5.9999999999999964
    vertex 45.0 2.0000000000000027 6.000000000000023
    vertex 76.5 1.9999999999999998 5.999999999999938
  endloop
endfacet
facet normal 1.39835812702788e-15 2.559451655053866e-16 1.0
  outer loop
    vertex 47.0 7.000000000000003 5.9999999999999964
    vertex 76.5 1.9999999999999998 5.999999999999938
    vertex 74.5 7.000000000000003 5.999999999999997
  endloop
endfacet
facet normal 1.39835812702788e-15 2.559451655053866e-16 1.0
  outer loop
    vertex 74.5 7.000000000000003 5.999999999999997
    vertex 76.5 1.9999999999999998 5.999999999999938
    vertex 74.5 28.999999999999996 5.9999999999999964
  endloop
endfacet
facet normal 1.39835812702788e-15 2.559451655053866e-16 1.0
  outer loop
    vertex 45.0 34.0 5.999999999999994
    vertex 47.00000000000001 28.999999999999996 5.9999999999999964
    vertex 76.5 34.0 5.999999999999938
  endloop
endfacet
facet normal 1.39835812702788e-15 2.559451655053866e-16 1.0
  outer loop
    vertex 47.00000000000001 28.999999999999996 5.9999999999999964
    vertex 45.0 34.0 5.999999999999994
    vertex 47.0 7.000000000000003 5.9999999999999964
  endloop
endfacet
facet normal 1.39835812702788e-15 2.559451655053866e-16 1.0
  outer loop
    vertex 76.5 34.0 5.999999999999938
    vertex 47.00000000000001 28.999999999999996 5.9999999999999964
    vertex 74.5 28.999999999999996 5.9999999999999964
  endloop
endfacet
facet normal 1.39835812702788e-15 2.559451655053866e-16 1.0
  outer loop
    vertex 76.5 34.0 5.999999999999938
    vertex 74.5 28.999999999999996 5.9999999999999964
    vertex 76.5 1.9999999999999998 5.999999999999938
  endloop
endfacet
facet normal -1.0116251852336126e-16 -1.0 -2.766456708958122e-15
  outer loop
    vertex 126.381915 33.99999999999996 20.499999999999886
    vertex 76.5 34.0 0.0
    vertex 126.381915 34.0 0.0
  endloop
endfacet
facet normal -1.0116251852336126e-16 -1.0 -2.766456708958122e-15
  outer loop
    vertex 76.5 34.0 0.0
    vertex 126.381915 33.99999999999996 20.499999999999886
    vertex 76.5 34.0 5.999999999999938
  endloop
endfacet
facet normal -1.0116251852336126e-16 -1.0 -2.766456708958122e-15
  outer loop
    vertex 76.5 34.0 5.999999999999938
    vertex 126.381915 33.99999999999996 20.499999999999886
    vertex 45.0 34.0 5.999999999999994
  endloop
endfacet
facet normal -1.0116251852336126e-16 -1.0 -2.766456708958122e-15
  outer loop
    vertex 45.0 34.0 5.999999999999994
    vertex 126.381915 33.99999999999996 20.499999999999886
    vertex 45.0 33.99999999999996 20.499999999999943
  endloop
endfacet
facet normal -3.244694322771204e-31 1.0 -2.1202755507878937e-16
  outer loop
    vertex 1.0000000000000027 40.49999999999996 18.49999999999997
    vertex 46.00000000000001 40.49999999999996 20.499999999999904
    vertex 46.00000000000001 40.49999999999996 18.499999999999904
  endloop
endfacet
facet normal -3.244694322771204e-31 1.0 -2.1202755507878937e-16
  outer loop
    vertex 46.00000000000001 40.49999999999996 20.499999999999904
    vertex 1.0000000000000027 40.49999999999996 18.49999999999997
    vertex 1.000000000000004 40.49999999999996 20.49999999999997
  endloop
endfacet
facet normal 1.0 1.0254423572901497e-15 -9.329212423466732e-16
  outer loop
    vertex 46.000000000000014 34.999999999999964 18.499999999999876
    vertex 46.00000000000001 40.49999999999996 20.499999999999904
    vertex 46.000000000000014 34.99999999999996 20.499999999999876
  endloop
endfacet
facet normal 1.0 1.0254423572901497e-15 -9.329212423466732e-16
  outer loop
    vertex 46.00000000000001 40.49999999999996 20.499999999999904
    vertex 46.000000000000014 34.999999999999964 18.499999999999876
    vertex 46.00000000000001 40.49999999999996 18.499999999999904
  endloop
endfacet
facet normal -7.022597040142505e-34 1.0 -2.1202755507878937e-16
  outer loop
    vertex 46.000000000000014 34.99999999999996 20.499999999999876
    vertex 126.381915 34.999999999999964 18.499999999999876
    vertex 46.000000000000014 34.999999999999964 18.499999999999876
  endloop
endfacet
facet normal -7.022597040142505e-34 1.0 -2.1202755507878937e-16
  outer loop
    vertex 126.381915 34.999999999999964 18.499999999999876
    vertex 46.000000000000014 34.99999999999996 20.499999999999876
    vertex 126.381915 34.99999999999996 20.499999999999876
  endloop
endfacet
facet normal -1.0 -3.8060418998593594e-16 1.2439401432268044e-15
  outer loop
    vertex 1.0000000000000073 33.91235032589237 18.827544587717554
    vertex 1.000000000000004 34.0 18.5
    vertex 1.0000000000000027 33.862541675362955 18.5
  endloop
endfacet
facet normal -1.0 -3.8060418998593594e-16 1.2439401432268044e-15
  outer loop
    vertex 1.000000000000004 34.0 18.5
    vertex 1.0000000000000073 33.91235032589237 18.827544587717554
    vertex 1.000000000000007 34.0 20.5
  endloop
endfacet
facet normal -1.0 -3.8060418998593594e-16 1.2439401432268044e-15
  outer loop
    vertex 1.000000000000004 34.0 18.5
    vertex 1.000000000000007 34.0 20.5
    vertex 1.000000000000004 40.49999999999996 20.49999999999997
  endloop
endfacet
facet normal -1.0 -3.8060418998593594e-16 1.2439401432268044e-15
  outer loop
    vertex 1.000000000000004 34.0 18.5
    vertex 1.000000000000004 40.49999999999996 20.49999999999997
    vertex 1.0000000000000027 40.49999999999996 18.49999999999997
  endloop
endfacet
facet normal 1.0 -9.397683169483404e-31 -9.32921242346673e-16
  outer loop
    vertex 46.0 -4.499999999999996 18.49999999999994
    vertex 46.0 1.0000000000000282 20.499999999999932
    vertex 46.0 -4.499999999999998 20.499999999999936
  endloop
endfacet
facet normal 1.0 -9.397683169483404e-31 -9.32921242346673e-16
  outer loop
    vertex 46.0 1.0000000000000282 20.499999999999932
    vertex 46.0 -4.499999999999996 18.49999999999994
    vertex 46.0 1.0000000000000306 18.499999999999932
  endloop
endfacet
facet normal -7.5348997114302905e-31 -1.0 -1.0866412197787953e-15
  outer loop
    vertex 46.0 -4.499999999999998 20.499999999999936
    vertex 1.0000000000000004 -4.499999999999996 18.499999999999968
    vertex 46.0 -4.499999999999996 18.49999999999994
  endloop
endfacet
facet normal -7.5348997114302905e-31 -1.0 -1.0866412197787953e-15
  outer loop
    vertex 1.0000000000000004 -4.499999999999996 18.499999999999968
    vertex 46.0 -4.499999999999998 20.499999999999936
    vertex 1.0000000000000022 -4.499999999999998 20.499999999999968
  endloop
endfacet
facet normal -1.0 -3.876485507310617e-15 7.892496148134061e-16
  outer loop
    vertex 0.9999999999999752 1.999999999999993 18.5
    vertex 0.9999999999999966 -4.499999999999991 13.999999999999968
    vertex 1.0000000000000004 -4.499999999999996 18.499999999999968
  endloop
endfacet
facet normal -1.0 -3.876485507310617e-15 7.892496148134061e-16
  outer loop
    vertex 0.9999999999999966 -4.499999999999991 13.999999999999968
    vertex 0.9999999999999752 1.999999999999993 18.5
    vertex 0.9999999999999722 1.999999999999996 15.999999999999998
  endloop
endfacet
facet normal -1.0 -3.876485507310617e-15 7.892496148134061e-16
  outer loop
    vertex 0.9999999999999966 -4.499999999999991 13.999999999999968
    vertex 0.9999999999999722 1.999999999999996 15.999999999999998
    vertex 0.9999999999999722 2.0493226602699477 14.74465446835448
  endloop
endfacet
facet normal -1.0 -3.876485507310617e-15 7.892496148134061e-16
  outer loop
    vertex 0.9999999999999966 -4.499999999999991 13.999999999999968
    vertex 0.9999999999999722 2.0493226602699477 14.74465446835448
    vertex 0.9999999999999714 2.13745832463705 14.0
  endloop
endfacet
facet normal 2.1926313295620303e-18 -1.0 -1.13832293632925e-15
  outer loop
    vertex 126.381915 1.0000000000000284 20.499999999999886
    vertex 46.0 1.0000000000000306 18.499999999999932
    vertex 126.381915 1.0000000000000309 18.499999999999886
  endloop
endfacet
facet normal 2.1926313295620303e-18 -1.0 -1.13832293632925e-15
  outer loop
    vertex 46.0 1.0000000000000306 18.499999999999932
    vertex 126.381915 1.0000000000000284 20.499999999999886
    vertex 46.0 1.0000000000000282 20.499999999999932
  endloop
endfacet
facet normal -4.1190635152540844e-17 1.943624008435105e-17 1.0
  outer loop
    vertex 47.0 7.0 -4.229949723821846e-15
    vertex 57.62652476222788 15.501219809782306 -3.95752750877232e-15
    vertex 47.00000000000001 29.000000000000004 -4.229949723821846e-15
  endloop
endfacet
facet normal -4.1190635152540844e-17 1.943624008435105e-17 1.0
  outer loop
    vertex 57.62652476222788 15.501219809782306 -3.95752750877232e-15
    vertex 47.0 7.0 -4.229949723821846e-15
    vertex 58.551564065615 14.658311887323304 -3.883087738111476e-15
  endloop
endfacet
facet normal -4.1190635152540844e-17 1.943624008435105e-17 1.0
  outer loop
    vertex 58.551564065615 14.658311887323304 -3.883087738111476e-15
    vertex 47.0 7.0 -4.229949723821846e-15
    vertex 74.5 7.0 -2.8199664825478975e-15
  endloop
endfacet
facet normal -4.1190635152540844e-17 1.943624008435105e-17 1.0
  outer loop
    vertex 47.00000000000001 29.000000000000004 -4.229949723821846e-15
    vertex 57.62652476222788 15.501219809782306 -3.95752750877232e-15
    vertex 57.00723297764554 16.588725747285135 -4.0241291180226944e-15
  endloop
endfacet
facet normal -4.1190635152540844e-17 1.943624008435105e-17 1.0
  outer loop
    vertex 47.00000000000001 29.000000000000004 -4.229949723821846e-15
    vertex 57.00723297764554 16.588725747285135 -4.0241291180226944e-15
    vertex 56.75430930660248 17.814377041569603 -4.076373136308475e-15
  endloop
endfacet
facet normal -4.1190635152540844e-17 1.943624008435105e-17 1.0
  outer loop
    vertex 58.551564065615 14.658311887323304 -3.883087738111476e-15
    vertex 74.5 7.0 -2.8199664825478975e-15
    vertex 59.69180159566357 14.142511680243246 -3.808096489444825e-15
  endloop
endfacet
facet normal -4.1190635152540844e-17 1.943624008435105e-17 1.0
  outer loop
    vertex 59.69180159566357 14.142511680243246 -3.808096489444825e-15
    vertex 74.5 7.0 -2.8199664825478975e-15
    vertex 60.93562295843041 14.004309306602483 -3.739894428686612e-15
  endloop
endfacet
facet normal -4.1190635152540844e-17 1.943624008435105e-17 1.0
  outer loop
    vertex 60.93562295843041 14.004309306602483 -3.739894428686612e-15
    vertex 74.5 7.0 -2.8199664825478975e-15
    vertex 62.16127425271486 14.257232977645538 -3.68515764873555e-15
  endloop
endfacet
facet normal -4.1190635152540844e-17 1.943624008435105e-17 1.0
  outer loop
    vertex 62.16127425271486 14.257232977645538 -3.68515764873555e-15
    vertex 74.5 7.0 -2.8199664825478975e-15
    vertex 63.248780190217694 14.876524762227879 -3.6492441669868205e-15
  endloop
endfacet
facet normal -4.1190635152540844e-17 1.943624008435105e-17 1.0
  outer loop
    vertex 63.248780190217694 14.876524762227879 -3.6492441669868205e-15
    vertex 74.5 7.0 -2.8199664825478975e-15
    vertex 64.09168811267669 15.801564065615002 -3.6356694452579286e-15
  endloop
endfacet
facet normal -4.1190635152540844e-17 1.943624008435105e-17 1.0
  outer loop
    vertex 64.09168811267669 15.801564065615002 -3.6356694452579286e-15
    vertex 74.5 7.0 -2.8199664825478975e-15
    vertex 64.60748831975675 16.941801595663566 -3.645762271892349e-15
  endloop
endfacet
facet normal -4.1190635152540844e-17 1.943624008435105e-17 1.0
  outer loop
    vertex 64.60748831975675 16.941801595663566 -3.645762271892349e-15
    vertex 74.5 7.0 -2.8199664825478975e-15
    vertex 64.74569069339752 18.1856229584304 -3.678534690698243e-15
  endloop
endfacet
facet normal -4.1190635152540844e-17 1.943624008435105e-17 1.0
  outer loop
    vertex 47.00000000000001 29.000000000000004 -4.229949723821846e-15
    vertex 59.33872574728513 21.742767022354464 -4.0697501782711674e-15
    vertex 74.5 29.000000000000004 -3.524958103184872e-15
  endloop
endfacet
facet normal -4.1190635152540844e-17 1.943624008435105e-17 1.0
  outer loop
    vertex 59.33872574728513 21.742767022354464 -4.0697501782711674e-15
    vertex 47.00000000000001 29.000000000000004 -4.229949723821846e-15
    vertex 58.251219809782306 21.123475237772123 -4.105663660019897e-15
  endloop
endfacet
facet normal -4.1190635152540844e-17 1.943624008435105e-17 1.0
  outer loop
    vertex 58.251219809782306 21.123475237772123 -4.105663660019897e-15
    vertex 47.00000000000001 29.000000000000004 -4.229949723821846e-15
    vertex 57.40831188732331 20.198435934385 -4.119238381748789e-15
  endloop
endfacet
facet normal -4.1190635152540844e-17 1.943624008435105e-17 1.0
  outer loop
    vertex 57.40831188732331 20.198435934385 -4.119238381748789e-15
    vertex 47.00000000000001 29.000000000000004 -4.229949723821846e-15
    vertex 56.892511680243246 19.058198404336434 -4.109145555114369e-15
  endloop
endfacet
facet normal -4.1190635152540844e-17 1.943624008435105e-17 1.0
  outer loop
    vertex 56.892511680243246 19.058198404336434 -4.109145555114369e-15
    vertex 47.00000000000001 29.000000000000004 -4.229949723821846e-15
    vertex 56.75430930660248 17.814377041569603 -4.076373136308475e-15
  endloop
endfacet
facet normal -4.1190635152540844e-17 1.943624008435105e-17 1.0
  outer loop
    vertex 74.5 29.000000000000004 -3.524958103184872e-15
    vertex 59.33872574728513 21.742767022354464 -4.0697501782711674e-15
    vertex 60.5643770415696 21.99569069339752 -4.0150133983201064e-15
  endloop
endfacet
facet normal -4.1190635152540844e-17 1.943624008435105e-17 1.0
  outer loop
    vertex 74.5 29.000000000000004 -3.524958103184872e-15
    vertex 60.5643770415696 21.99569069339752 -4.0150133983201064e-15
    vertex 61.80819840433644 21.857488319756758 -3.946811337561893e-15
  endloop
endfacet
facet normal -4.1190635152540844e-17 1.943624008435105e-17 1.0
  outer loop
    vertex 74.5 29.000000000000004 -3.524958103184872e-15
    vertex 61.80819840433644 21.857488319756758 -3.946811337561893e-15
    vertex 62.948435934385 21.341688112676696 -3.871820088895242e-15
  endloop
endfacet
facet normal -4.1190635152540844e-17 1.943624008435105e-17 1.0
  outer loop
    vertex 74.5 29.000000000000004 -3.524958103184872e-15
    vertex 62.948435934385 21.341688112676696 -3.871820088895242e-15
    vertex 63.87347523777212 20.498780190217698 -3.7973803182343985e-15
  endloop
endfacet
facet normal -4.1190635152540844e-17 1.943624008435105e-17 1.0
  outer loop
    vertex 74.5 29.000000000000004 -3.524958103184872e-15
    vertex 63.87347523777212 20.498780190217698 -3.7973803182343985e-15
    vertex 64.49276702235446 19.41127425271487 -3.730778708984023e-15
  endloop
endfacet
facet normal -4.1190635152540844e-17 1.943624008435105e-17 1.0
  outer loop
    vertex 74.5 29.000000000000004 -3.524958103184872e-15
    vertex 64.49276702235446 19.41127425271487 -3.730778708984023e-15
    vertex 64.74569069339752 18.1856229584304 -3.678534690698243e-15
  endloop
endfacet
facet normal -4.1190635152540844e-17 1.943624008435105e-17 1.0
  outer loop
    vertex 74.5 29.000000000000004 -3.524958103184872e-15
    vertex 64.74569069339752 18.1856229584304 -3.678534690698243e-15
    vertex 74.5 7.0 -2.8199664825478975e-15
  endloop
endfacet
facet normal 0.8689788541987458 0.49484922042520724 2.86969065124921e-17
  outer loop
    vertex 57.00723297764554 16.58872574728513 -2.0000000000000018
    vertex 57.62652476222788 15.501219809782306 -3.95752750877232e-15
    vertex 57.62652476222788 15.501219809782302 -2.0000000000000018
  endloop
endfacet
facet normal 0.8689788541987458 0.49484922042520724 2.86969065124921e-17
  outer loop
    vertex 57.62652476222788 15.501219809782306 -3.95752750877232e-15
    vertex 57.00723297764554 16.58872574728513 -2.0000000000000018
    vertex 57.00723297764554 16.588725747285135 -4.0241291180226944e-15
  endloop
endfacet
facet normal 0.6735311830438327 0.7391588093688495 1.0846971705851613e-17
  outer loop
    vertex 57.62652476222788 15.501219809782306 -3.95752750877232e-15
    vertex 58.551564065615 14.658311887323302 -2.0000000000000018
    vertex 57.62652476222788 15.501219809782302 -2.0000000000000018
  endloop
endfacet
facet normal 0.6735311830438327 0.7391588093688495 1.0846971705851613e-17
  outer loop
    vertex 58.551564065615 14.658311887323302 -2.0000000000000018
    vertex 57.62652476222788 15.501219809782306 -3.95752750877232e-15
    vertex 58.551564065615 14.658311887323304 -3.883087738111476e-15
  endloop
endfacet
facet normal 0.4121535869248884 0.9111143840292221 -8.06474026665404e-18
  outer loop
    vertex 58.551564065615 14.658311887323304 -3.883087738111476e-15
    vertex 59.69180159566357 14.142511680243242 -2.0000000000000018
    vertex 58.551564065615 14.658311887323302 -2.0000000000000018
  endloop
endfacet
facet normal 0.4121535869248884 0.9111143840292221 -8.06474026665404e-18
  outer loop
    vertex 59.69180159566357 14.142511680243242 -2.0000000000000018
    vertex 58.551564065615 14.658311887323304 -3.883087738111476e-15
    vertex 59.69180159566357 14.142511680243246 -3.808096489444825e-15
  endloop
endfacet
facet normal 0.1104315260748483 0.9938837346736188 -2.6187019271509468e-17
  outer loop
    vertex 59.69180159566357 14.142511680243246 -3.808096489444825e-15
    vertex 60.93562295843041 14.00430930660248 -2.0000000000000018
    vertex 59.69180159566357 14.142511680243242 -2.0000000000000018
  endloop
endfacet
facet normal 0.1104315260748483 0.9938837346736188 -2.6187019271509468e-17
  outer loop
    vertex 60.93562295843041 14.00430930660248 -2.0000000000000018
    vertex 59.69180159566357 14.142511680243246 -3.808096489444825e-15
    vertex 60.93562295843041 14.004309306602483 -3.739894428686612e-15
  endloop
endfacet
facet normal -0.20210034196908988 0.9793648205729963 -4.174593037437804e-17
  outer loop
    vertex 60.93562295843041 14.004309306602483 -3.739894428686612e-15
    vertex 62.16127425271486 14.257232977645536 -2.0000000000000018
    vertex 60.93562295843041 14.00430930660248 -2.0000000000000018
  endloop
endfacet
facet normal -0.20210034196908988 0.9793648205729963 -4.174593037437804e-17
  outer loop
    vertex 62.16127425271486 14.257232977645536 -2.0000000000000018
    vertex 60.93562295843041 14.004309306602483 -3.739894428686612e-15
    vertex 62.16127425271486 14.257232977645538 -3.68515764873555e-15
  endloop
endfacet
facet normal -0.49484922042520524 0.8689788541987468 -5.321845895120226e-17
  outer loop
    vertex 62.16127425271486 14.257232977645538 -3.68515764873555e-15
    vertex 63.248780190217694 14.876524762227877 -2.0000000000000018
    vertex 62.16127425271486 14.257232977645536 -2.0000000000000018
  endloop
endfacet
facet normal -0.49484922042520524 0.8689788541987468 -5.321845895120226e-17
  outer loop
    vertex 63.248780190217694 14.876524762227877 -2.0000000000000018
    vertex 62.16127425271486 14.257232977645538 -3.68515764873555e-15
    vertex 63.248780190217694 14.876524762227879 -3.6492441669868205e-15
  endloop
endfacet
facet normal -0.7391588093688526 0.6735311830438294 -5.948159397107629e-17
  outer loop
    vertex 63.248780190217694 14.876524762227879 -3.6492441669868205e-15
    vertex 64.09168811267669 15.801564065614999 -2.0000000000000018
    vertex 63.248780190217694 14.876524762227877 -2.0000000000000018
  endloop
endfacet
facet normal -0.7391588093688526 0.6735311830438294 -5.948159397107629e-17
  outer loop
    vertex 64.09168811267669 15.801564065614999 -2.0000000000000018
    vertex 63.248780190217694 14.876524762227879 -3.6492441669868205e-15
    vertex 64.09168811267669 15.801564065615002 -3.6356694452579286e-15
  endloop
endfacet
facet normal -0.9111143840292212 0.41215358692489 -5.99222561404269e-17
  outer loop
    vertex 64.09168811267669 15.801564065615002 -3.6356694452579286e-15
    vertex 64.60748831975675 16.941801595663566 -2.0000000000000018
    vertex 64.09168811267669 15.801564065614999 -2.0000000000000018
  endloop
endfacet
facet normal -0.9111143840292212 0.41215358692489 -5.99222561404269e-17
  outer loop
    vertex 64.60748831975675 16.941801595663566 -2.0000000000000018
    vertex 64.09168811267669 15.801564065615002 -3.6356694452579286e-15
    vertex 64.60748831975675 16.941801595663566 -3.645762271892349e-15
  endloop
endfacet
facet normal -0.9938837346736186 0.11043152607485102 -5.44973103758444e-17
  outer loop
    vertex 64.60748831975675 16.941801595663566 -3.645762271892349e-15
    vertex 64.74569069339752 18.185622958430397 -2.0000000000000018
    vertex 64.60748831975675 16.941801595663566 -2.0000000000000018
  endloop
endfacet
facet normal -0.9938837346736186 0.11043152607485102 -5.44973103758444e-17
  outer loop
    vertex 64.74569069339752 18.185622958430397 -2.0000000000000018
    vertex 64.60748831975675 16.941801595663566 -3.645762271892349e-15
    vertex 64.74569069339752 18.1856229584304 -3.678534690698243e-15
  endloop
endfacet
facet normal -0.9793648205729958 -0.2021003419690924 -4.3737788166585315e-17
  outer loop
    vertex 64.74569069339752 18.1856229584304 -3.678534690698243e-15
    vertex 64.49276702235446 19.411274252714865 -2.0000000000000018
    vertex 64.74569069339752 18.185622958430397 -2.0000000000000018
  endloop
endfacet
facet normal -0.9793648205729958 -0.2021003419690924 -4.3737788166585315e-17
  outer loop
    vertex 64.49276702235446 19.411274252714865 -2.0000000000000018
    vertex 64.74569069339752 18.1856229584304 -3.678534690698243e-15
    vertex 64.49276702235446 19.41127425271487 -3.730778708984023e-15
  endloop
endfacet
facet normal -0.8689788541987458 -0.49484922042520724 -2.86969065124921e-17
  outer loop
    vertex 64.49276702235446 19.41127425271487 -3.730778708984023e-15
    vertex 63.87347523777212 20.498780190217694 -2.0000000000000018
    vertex 64.49276702235446 19.411274252714865 -2.0000000000000018
  endloop
endfacet
facet normal -0.8689788541987458 -0.49484922042520724 -2.86969065124921e-17
  outer loop
    vertex 63.87347523777212 20.498780190217694 -2.0000000000000018
    vertex 64.49276702235446 19.41127425271487 -3.730778708984023e-15
    vertex 63.87347523777212 20.498780190217698 -3.7973803182343985e-15
  endloop
endfacet
facet normal -0.6735311830438327 -0.7391588093688495 -1.0846971705851613e-17
  outer loop
    vertex 63.87347523777212 20.498780190217698 -3.7973803182343985e-15
    vertex 62.948435934385 21.341688112676696 -2.0000000000000018
    vertex 63.87347523777212 20.498780190217694 -2.0000000000000018
  endloop
endfacet
facet normal -0.6735311830438327 -0.7391588093688495 -1.0846971705851613e-17
  outer loop
    vertex 62.948435934385 21.341688112676696 -2.0000000000000018
    vertex 63.87347523777212 20.498780190217698 -3.7973803182343985e-15
    vertex 62.948435934385 21.341688112676696 -3.871820088895242e-15
  endloop
endfacet
facet normal -0.4121535869248884 -0.9111143840292221 8.06474026665404e-18
  outer loop
    vertex 62.948435934385 21.341688112676696 -3.871820088895242e-15
    vertex 61.80819840433644 21.857488319756754 -2.0000000000000018
    vertex 62.948435934385 21.341688112676696 -2.0000000000000018
  endloop
endfacet
facet normal -0.4121535869248884 -0.9111143840292221 8.06474026665404e-18
  outer loop
    vertex 61.80819840433644 21.857488319756754 -2.0000000000000018
    vertex 62.948435934385 21.341688112676696 -3.871820088895242e-15
    vertex 61.80819840433644 21.857488319756758 -3.946811337561893e-15
  endloop
endfacet
facet normal -0.1104315260748483 -0.9938837346736188 2.6187019271509468e-17
  outer loop
    vertex 61.80819840433644 21.857488319756758 -3.946811337561893e-15
    vertex 60.5643770415696 21.995690693397517 -2.0000000000000018
    vertex 61.80819840433644 21.857488319756754 -2.0000000000000018
  endloop
endfacet
facet normal -0.1104315260748483 -0.9938837346736188 2.6187019271509468e-17
  outer loop
    vertex 60.5643770415696 21.995690693397517 -2.0000000000000018
    vertex 61.80819840433644 21.857488319756758 -3.946811337561893e-15
    vertex 60.5643770415696 21.99569069339752 -4.0150133983201064e-15
  endloop
endfacet
facet normal 0.20210034196908805 -0.9793648205729966 4.1745930374377953e-17
  outer loop
    vertex 60.5643770415696 21.99569069339752 -4.0150133983201064e-15
    vertex 59.33872574728513 21.74276702235446 -2.0000000000000018
    vertex 60.5643770415696 21.995690693397517 -2.0000000000000018
  endloop
endfacet
facet normal 0.20210034196908805 -0.9793648205729966 4.1745930374377953e-17
  outer loop
    vertex 59.33872574728513 21.74276702235446 -2.0000000000000018
    vertex 60.5643770415696 21.99569069339752 -4.0150133983201064e-15
    vertex 59.33872574728513 21.742767022354464 -4.0697501782711674e-15
  endloop
endfacet
facet normal 0.4948492204252092 -0.8689788541987447 5.3218458951202393e-17
  outer loop
    vertex 59.33872574728513 21.742767022354464 -4.0697501782711674e-15
    vertex 58.251219809782306 21.12347523777212 -2.0000000000000018
    vertex 59.33872574728513 21.74276702235446 -2.0000000000000018
  endloop
endfacet
facet normal 0.4948492204252092 -0.8689788541987447 5.3218458951202393e-17
  outer loop
    vertex 58.251219809782306 21.12347523777212 -2.0000000000000018
    vertex 59.33872574728513 21.742767022354464 -4.0697501782711674e-15
    vertex 58.251219809782306 21.123475237772123 -4.105663660019897e-15
  endloop
endfacet
facet normal 0.7391588093688526 -0.6735311830438294 5.948159397107629e-17
  outer loop
    vertex 58.251219809782306 21.12347523777212 -2.0000000000000018
    vertex 57.40831188732331 20.198435934385 -4.119238381748789e-15
    vertex 57.40831188732331 20.198435934384996 -2.0000000000000018
  endloop
endfacet
facet normal 0.7391588093688526 -0.6735311830438294 5.948159397107629e-17
  outer loop
    vertex 57.40831188732331 20.198435934385 -4.119238381748789e-15
    vertex 58.251219809782306 21.12347523777212 -2.0000000000000018
    vertex 58.251219809782306 21.123475237772123 -4.105663660019897e-15
  endloop
endfacet
facet normal 0.9111143840292212 -0.41215358692489 5.99222561404269e-17
  outer loop
    vertex 57.40831188732331 20.198435934384996 -2.0000000000000018
    vertex 56.892511680243246 19.058198404336434 -4.109145555114369e-15
    vertex 56.892511680243246 19.05819840433643 -2.0000000000000018
  endloop
endfacet
facet normal 0.9111143840292212 -0.41215358692489 5.99222561404269e-17
  outer loop
    vertex 56.892511680243246 19.058198404336434 -4.109145555114369e-15
    vertex 57.40831188732331 20.198435934384996 -2.0000000000000018
    vertex 57.40831188732331 20.198435934385 -4.119238381748789e-15
  endloop
endfacet
facet normal 0.9938837346736186 -0.11043152607485102 5.44973103758444e-17
  outer loop
    vertex 56.892511680243246 19.05819840433643 -2.0000000000000018
    vertex 56.75430930660248 17.814377041569603 -4.076373136308475e-15
    vertex 56.75430930660248 17.8143770415696 -2.0000000000000018
  endloop
endfacet
facet normal 0.9938837346736186 -0.11043152607485102 5.44973103758444e-17
  outer loop
    vertex 56.75430930660248 17.814377041569603 -4.076373136308475e-15
    vertex 56.892511680243246 19.05819840433643 -2.0000000000000018
    vertex 56.892511680243246 19.058198404336434 -4.109145555114369e-15
  endloop
endfacet
facet normal 0.9793648205729958 0.2021003419690924 4.3737788166585315e-17
  outer loop
    vertex 56.75430930660248 17.8143770415696 -2.0000000000000018
    vertex 57.00723297764554 16.588725747285135 -4.0241291180226944e-15
    vertex 57.00723297764554 16.58872574728513 -2.0000000000000018
  endloop
endfacet
facet normal 0.9793648205729958 0.2021003419690924 4.3737788166585315e-17
  outer loop
    vertex 57.00723297764554 16.588725747285135 -4.0241291180226944e-15
    vertex 56.75430930660248 17.8143770415696 -2.0000000000000018
    vertex 56.75430930660248 17.814377041569603 -4.076373136308475e-15
  endloop
endfacet
facet normal 8.990677798292324e-16 -1.4616972642978355e-15 1.0
  outer loop
    vertex 1.0000000000000022 -4.499999999999998 20.499999999999968
    vertex 5.500000000000004 1.9999999999999953 20.5
    vertex 0.9999999999999764 1.9999999999999893 20.5
  endloop
endfacet
facet normal 8.990677798292324e-16 -1.4616972642978355e-15 1.0
  outer loop
    vertex 5.500000000000004 1.9999999999999953 20.5
    vertex 1.0000000000000022 -4.499999999999998 20.499999999999968
    vertex 5.500000000000012 -3.4999999999999942 20.49999999999998
  endloop
endfacet
facet normal 8.990677798292324e-16 -1.4616972642978355e-15 1.0
  outer loop
    vertex 5.500000000000012 -3.4999999999999942 20.49999999999998
    vertex 1.0000000000000022 -4.499999999999998 20.499999999999968
    vertex 46.0 -4.499999999999998 20.499999999999936
  endloop
endfacet
facet normal 8.990677798292324e-16 -1.4616972642978355e-15 1.0
  outer loop
    vertex 5.500000000000012 -3.4999999999999942 20.49999999999998
    vertex 46.0 -4.499999999999998 20.499999999999936
    vertex 45.0 -3.4999999999999942 20.49999999999998
  endloop
endfacet
facet normal 8.990677798292324e-16 -1.4616972642978355e-15 1.0
  outer loop
    vertex 45.0 -3.4999999999999942 20.49999999999998
    vertex 46.0 -4.499999999999998 20.499999999999936
    vertex 45.0 2.000000000000031 20.499999999999957
  endloop
endfacet
facet normal 8.990677798292324e-16 -1.4616972642978355e-15 1.0
  outer loop
    vertex 45.0 2.000000000000031 20.499999999999957
    vertex 46.0 -4.499999999999998 20.499999999999936
    vertex 46.0 1.0000000000000282 20.499999999999932
  endloop
endfacet
facet normal 8.990677798292324e-16 -1.4616972642978355e-15 1.0
  outer loop
    vertex 45.0 2.000000000000031 20.499999999999957
    vertex 46.0 1.0000000000000282 20.499999999999932
    vertex 126.381915 2.0000000000000284 20.499999999999872
  endloop
endfacet
facet normal 8.990677798292324e-16 -1.4616972642978355e-15 1.0
  outer loop
    vertex 126.381915 2.0000000000000284 20.499999999999872
    vertex 46.0 1.0000000000000282 20.499999999999932
    vertex 126.381915 1.0000000000000284 20.499999999999886
  endloop
endfacet
facet normal 1.0 1.538163535935223e-15 -9.399888275159637e-16
  outer loop
    vertex 5.500000000000008 -3.499999999999988 15.999999999999979
    vertex 5.500000000000004 1.9999999999999953 20.5
    vertex 5.500000000000012 -3.4999999999999942 20.49999999999998
  endloop
endfacet
facet normal 1.0 1.538163535935223e-15 -9.399888275159637e-16
  outer loop
    vertex 5.500000000000004 1.9999999999999953 20.5
    vertex 5.500000000000008 -3.499999999999988 15.999999999999979
    vertex 5.5 2.0000000000000018 15.999999999999998
  endloop
endfacet
facet normal 9.159334043947051e-16 -1.4563122579776385e-16 1.0
  outer loop
    vertex 45.0 33.99999999999996 20.499999999999943
    vertex 46.000000000000014 34.99999999999996 20.499999999999876
    vertex 45.0 39.49999999999995 20.500000000000004
  endloop
endfacet
facet normal 9.159334043947051e-16 -1.4563122579776385e-16 1.0
  outer loop
    vertex 46.000000000000014 34.99999999999996 20.499999999999876
    vertex 45.0 33.99999999999996 20.499999999999943
    vertex 126.381915 33.99999999999996 20.499999999999886
  endloop
endfacet
facet normal 9.159334043947051e-16 -1.4563122579776385e-16 1.0
  outer loop
    vertex 45.0 39.49999999999995 20.500000000000004
    vertex 46.000000000000014 34.99999999999996 20.499999999999876
    vertex 46.00000000000001 40.49999999999996 20.499999999999904
  endloop
endfacet
facet normal 9.159334043947051e-16 -1.4563122579776385e-16 1.0
  outer loop
    vertex 46.000000000000014 34.99999999999996 20.499999999999876
    vertex 126.381915 33.99999999999996 20.499999999999886
    vertex 126.381915 34.99999999999996 20.499999999999876
  endloop
endfacet
facet normal 9.159334043947051e-16 -1.4563122579776385e-16 1.0
  outer loop
    vertex 1.000000000000004 40.49999999999996 20.49999999999997
    vertex 5.500000000000012 39.49999999999994 20.500000000000004
    vertex 46.00000000000001 40.49999999999996 20.499999999999904
  endloop
endfacet
facet normal 9.159334043947051e-16 -1.4563122579776385e-16 1.0
  outer loop
    vertex 5.500000000000012 39.49999999999994 20.500000000000004
    vertex 1.000000000000004 40.49999999999996 20.49999999999997
    vertex 1.000000000000007 34.0 20.5
  endloop
endfacet
facet normal 9.159334043947051e-16 -1.4563122579776385e-16 1.0
  outer loop
    vertex 5.500000000000012 39.49999999999994 20.500000000000004
    vertex 1.000000000000007 34.0 20.5
    vertex 5.500000000000004 34.0 20.5
  endloop
endfacet
facet normal 9.159334043947051e-16 -1.4563122579776385e-16 1.0
  outer loop
    vertex 46.00000000000001 40.49999999999996 20.499999999999904
    vertex 5.500000000000012 39.49999999999994 20.500000000000004
    vertex 45.0 39.49999999999995 20.500000000000004
  endloop
endfacet
facet normal 1.0 -1.538163535935231e-15 -9.399888275159655e-16
  outer loop
    vertex 5.500000000000008 39.49999999999994 16.000000000000004
    vertex 5.500000000000004 34.0 20.5
    vertex 5.5 34.0 15.999999999999998
  endloop
endfacet
facet normal 1.0 -1.538163535935231e-15 -9.399888275159655e-16
  outer loop
    vertex 5.500000000000004 34.0 20.5
    vertex 5.500000000000008 39.49999999999994 16.000000000000004
    vertex 5.500000000000012 39.49999999999994 20.500000000000004
  endloop
endfacet
facet normal 9.887383030773975e-16 1.4138830914475906e-15 1.0
  outer loop
    vertex 1.000000000000004 34.0 18.5
    vertex 1.0000000000000027 40.49999999999996 18.49999999999997
    vertex 1.0000000000000027 33.862541675362955 18.5
  endloop
endfacet
facet normal 9.887383030773975e-16 1.4138830914475906e-15 1.0
  outer loop
    vertex 126.381915 34.999999999999964 18.499999999999876
    vertex 47.00000000000001 35.999999999999964 18.499999999999943
    vertex 46.000000000000014 34.999999999999964 18.499999999999876
  endloop
endfacet
facet normal 9.887383030773975e-16 1.4138830914475906e-15 1.0
  outer loop
    vertex 47.00000000000001 35.999999999999964 18.499999999999943
    vertex 126.381915 34.999999999999964 18.499999999999876
    vertex 126.381915 35.999999999999964 18.499999999999876
  endloop
endfacet
facet normal 9.887383030773975e-16 1.4138830914475906e-15 1.0
  outer loop
    vertex 2.6486023993093602e-15 41.5 18.5
    vertex 1.0000000000000027 40.49999999999996 18.49999999999997
    vertex 47.00000000000001 41.49999999999996 18.499999999999943
  endloop
endfacet
facet normal 9.887383030773975e-16 1.4138830914475906e-15 1.0
  outer loop
    vertex 1.0000000000000027 40.49999999999996 18.49999999999997
    vertex 2.6486023993093602e-15 41.5 18.5
    vertex 3.589284802656301e-15 33.862541675362955 18.5
  endloop
endfacet
facet normal 9.887383030773975e-16 1.4138830914475906e-15 1.0
  outer loop
    vertex 1.0000000000000027 40.49999999999996 18.49999999999997
    vertex 3.589284802656301e-15 33.862541675362955 18.5
    vertex 1.0000000000000027 33.862541675362955 18.5
  endloop
endfacet
facet normal 9.887383030773975e-16 1.4138830914475906e-15 1.0
  outer loop
    vertex 47.00000000000001 41.49999999999996 18.499999999999943
    vertex 1.0000000000000027 40.49999999999996 18.49999999999997
    vertex 46.00000000000001 40.49999999999996 18.499999999999904
  endloop
endfacet
facet normal 9.887383030773975e-16 1.4138830914475906e-15 1.0
  outer loop
    vertex 47.00000000000001 41.49999999999996 18.499999999999943
    vertex 46.00000000000001 40.49999999999996 18.499999999999904
    vertex 46.000000000000014 34.999999999999964 18.499999999999876
  endloop
endfacet
facet normal 9.887383030773975e-16 1.4138830914475906e-15 1.0
  outer loop
    vertex 47.00000000000001 41.49999999999996 18.499999999999943
    vertex 46.000000000000014 34.999999999999964 18.499999999999876
    vertex 47.00000000000001 35.999999999999964 18.499999999999943
  endloop
endfacet
facet normal -1.0 4.3291926643645e-16 -1.4474243342226807e-16
  outer loop
    vertex 3.0327927519095652e-15 2.137458324637051 18.5
    vertex -1.6233060143425088e-15 -5.499999999999999 14.0
    vertex 2.221139744738311e-15 -5.500000000000004 18.5
  endloop
endfacet
facet normal -1.0 4.3291926643645e-16 -1.4474243342226807e-16
  outer loop
    vertex 2.6486023993093602e-15 41.5 18.5
    vertex -1.881364806693882e-15 41.5 14.0
    vertex 3.589284802656301e-15 33.862541675362955 18.5
  endloop
endfacet
facet normal -1.0 4.3291926643645e-16 -1.4474243342226807e-16
  outer loop
    vertex 0.0 -5.500000000000024 -1.9999999999999998
    vertex 1.0574874309554616e-14 14.673412946915843 4.8496383882591045
    vertex 0.0 41.5 -1.9999999999999998
  endloop
endfacet
facet normal -1.0 4.3291926643645e-16 -1.4474243342226807e-16
  outer loop
    vertex 1.0574874309554616e-14 14.673412946915843 4.8496383882591045
    vertex 0.0 -5.500000000000024 -1.9999999999999998
    vertex 9.164891068280667e-15 13.055728090000835 5.283095739277539
  endloop
endfacet
facet normal -1.0 4.3291926643645e-16 -1.4474243342226807e-16
  outer loop
    vertex 9.164891068280667e-15 13.055728090000835 5.283095739277539
    vertex 0.0 -5.500000000000024 -1.9999999999999998
    vertex 6.3449245857327695e-15 11.492213710787192 5.883272677718381
  endloop
endfacet
facet normal -1.0 4.3291926643645e-16 -1.4474243342226807e-16
  outer loop
    vertex 6.3449245857327695e-15 11.492213710787192 5.883272677718381
    vertex 0.0 -5.500000000000024 -1.9999999999999998
    vertex -1.6233060143425088e-15 -5.499999999999999 14.0
  endloop
endfacet
facet normal -1.0 4.3291926643645e-16 -1.4474243342226807e-16
  outer loop
    vertex 6.3449245857327695e-15 11.492213710787192 5.883272677718381
    vertex -1.6233060143425088e-15 -5.499999999999999 14.0
    vertex 4.93494134445882e-15 9.999999999999996 6.643593539448975
  endloop
endfacet
facet normal -1.0 4.3291926643645e-16 -1.4474243342226807e-16
  outer loop
    vertex 4.93494134445882e-15 9.999999999999996 6.643593539448975
    vertex -1.6233060143425088e-15 -5.499999999999999 14.0
    vertex 3.524958103184872e-15 8.595435963320426 7.555728090000837
  endloop
endfacet
facet normal -1.0 4.3291926643645e-16 -1.4474243342226807e-16
  outer loop
    vertex 3.524958103184872e-15 8.595435963320426 7.555728090000837
    vertex -1.6233060143425088e-15 -5.499999999999999 14.0
    vertex 3.524958103184872e-15 7.293910298258262 8.609682792361689
  endloop
endfacet
facet normal -1.0 4.3291926643645e-16 -1.4474243342226807e-16
  outer loop
    vertex 3.524958103184872e-15 7.293910298258262 8.609682792361689
    vertex -1.6233060143425088e-15 -5.499999999999999 14.0
    vertex 2.114974861910923e-15 6.109682792361684 9.793910298258265
  endloop
endfacet
facet normal -1.0 4.3291926643645e-16 -1.4474243342226807e-16
  outer loop
    vertex 2.114974861910923e-15 6.109682792361684 9.793910298258265
    vertex -1.6233060143425088e-15 -5.499999999999999 14.0
    vertex 7.049916206369744e-16 5.055728090000834 11.095435963320426
  endloop
endfacet
facet normal -1.0 4.3291926643645e-16 -1.4474243342226807e-16
  outer loop
    vertex 7.049916206369744e-16 5.055728090000834 11.095435963320426
    vertex -1.6233060143425088e-15 -5.499999999999999 14.0
    vertex -7.049916206369744e-16 4.143593539448971 12.499999999999998
  endloop
endfacet
facet normal -1.0 4.3291926643645e-16 -1.4474243342226807e-16
  outer loop
    vertex -7.049916206369744e-16 4.143593539448971 12.499999999999998
    vertex -1.6233060143425088e-15 -5.499999999999999 14.0
    vertex -7.049916206369744e-16 3.3832726777183764 13.992213710787194
  endloop
endfacet
facet normal -1.0 4.3291926643645e-16 -1.4474243342226807e-16
  outer loop
    vertex -7.049916206369744e-16 3.3832726777183764 13.992213710787194
    vertex -1.6233060143425088e-15 -5.499999999999999 14.0
    vertex -2.114974861910923e-15 2.7830957392775355 15.555728090000839
  endloop
endfacet
facet normal -1.0 4.3291926643645e-16 -1.4474243342226807e-16
  outer loop
    vertex -2.114974861910923e-15 2.7830957392775355 15.555728090000839
    vertex -1.6233060143425088e-15 -5.499999999999999 14.0
    vertex -2.114974861910923e-15 2.349638388259101 17.17341294691585
  endloop
endfacet
facet normal -1.0 4.3291926643645e-16 -1.4474243342226807e-16
  outer loop
    vertex -2.114974861910923e-15 2.349638388259101 17.17341294691585
    vertex -1.6233060143425088e-15 -5.499999999999999 14.0
    vertex 3.0327927519095652e-15 2.137458324637051 18.5
  endloop
endfacet
facet normal -1.0 4.3291926643645e-16 -1.4474243342226807e-16
  outer loop
    vertex 0.0 41.5 -1.9999999999999998
    vertex 1.0574874309554616e-14 14.673412946915843 4.8496383882591045
    vertex 1.1984857550828564e-14 16.327544587717536 4.58764967410762
  endloop
endfacet
facet normal -1.0 4.3291926643645e-16 -1.4474243342226807e-16
  outer loop
    vertex 0.0 41.5 -1.9999999999999998
    vertex 1.1984857550828564e-14 16.327544587717536 4.58764967410762
    vertex 1.3394840792102513e-14 17.99999999999999 4.499999999999995
  endloop
endfacet
facet normal -1.0 4.3291926643645e-16 -1.4474243342226807e-16
  outer loop
    vertex 0.0 41.5 -1.9999999999999998
    vertex 1.3394840792102513e-14 17.99999999999999 4.499999999999995
    vertex 1.4804824033376462e-14 19.672455412282446 4.58764967410762
  endloop
endfacet
facet normal -1.0 4.3291926643645e-16 -1.4474243342226807e-16
  outer loop
    vertex 0.0 41.5 -1.9999999999999998
    vertex 1.4804824033376462e-14 19.672455412282446 4.58764967410762
    vertex 1.621480727465041e-14 21.32658705308414 4.8496383882591045
  endloop
endfacet
facet normal -1.0 4.3291926643645e-16 -1.4474243342226807e-16
  outer loop
    vertex 0.0 41.5 -1.9999999999999998
    vertex 1.621480727465041e-14 21.32658705308414 4.8496383882591045
    vertex 1.762479051592436e-14 22.944271909999145 5.283095739277534
  endloop
endfacet
facet normal -1.0 4.3291926643645e-16 -1.4474243342226807e-16
  outer loop
    vertex 0.0 41.5 -1.9999999999999998
    vertex 1.762479051592436e-14 22.944271909999145 5.283095739277534
    vertex 1.9034773757198308e-14 24.507786289212792 5.883272677718377
  endloop
endfacet
facet normal -1.0 4.3291926643645e-16 -1.4474243342226807e-16
  outer loop
    vertex 0.0 41.5 -1.9999999999999998
    vertex 1.9034773757198308e-14 24.507786289212792 5.883272677718377
    vertex 2.0444756998472255e-14 25.999999999999993 6.643593539448969
  endloop
endfacet
facet normal -1.0 4.3291926643645e-16 -1.4474243342226807e-16
  outer loop
    vertex 0.0 41.5 -1.9999999999999998
    vertex 2.0444756998472255e-14 25.999999999999993 6.643593539448969
    vertex 2.1854740239746206e-14 27.40456403667957 7.555728090000832
  endloop
endfacet
facet normal -1.0 4.3291926643645e-16 -1.4474243342226807e-16
  outer loop
    vertex 0.0 41.5 -1.9999999999999998
    vertex 2.1854740239746206e-14 27.40456403667957 7.555728090000832
    vertex 2.3264723481020153e-14 28.70608970174173 8.609682792361683
  endloop
endfacet
facet normal -1.0 4.3291926643645e-16 -1.4474243342226807e-16
  outer loop
    vertex 0.0 41.5 -1.9999999999999998
    vertex 2.3264723481020153e-14 28.70608970174173 8.609682792361683
    vertex 2.4674706722294104e-14 29.890317207638308 9.793910298258261
  endloop
endfacet
facet normal -1.0 4.3291926643645e-16 -1.4474243342226807e-16
  outer loop
    vertex 0.0 41.5 -1.9999999999999998
    vertex 2.4674706722294104e-14 29.890317207638308 9.793910298258261
    vertex 2.6084689963568052e-14 30.94427190999916 11.095435963320424
  endloop
endfacet
facet normal -1.0 4.3291926643645e-16 -1.4474243342226807e-16
  outer loop
    vertex 0.0 41.5 -1.9999999999999998
    vertex 2.6084689963568052e-14 30.94427190999916 11.095435963320424
    vertex 2.6084689963568052e-14 31.85640646055102 12.499999999999998
  endloop
endfacet
facet normal -1.0 4.3291926643645e-16 -1.4474243342226807e-16
  outer loop
    vertex 0.0 41.5 -1.9999999999999998
    vertex 2.6084689963568052e-14 31.85640646055102 12.499999999999998
    vertex 2.7494673204842e-14 32.61672732228162 13.992213710787198
  endloop
endfacet
facet normal -1.0 4.3291926643645e-16 -1.4474243342226807e-16
  outer loop
    vertex 0.0 41.5 -1.9999999999999998
    vertex 2.7494673204842e-14 32.61672732228162 13.992213710787198
    vertex 2.7494673204842e-14 33.216904260722465 15.555728090000844
  endloop
endfacet
facet normal -1.0 4.3291926643645e-16 -1.4474243342226807e-16
  outer loop
    vertex 0.0 41.5 -1.9999999999999998
    vertex 2.7494673204842e-14 33.216904260722465 15.555728090000844
    vertex 2.8904656446115947e-14 33.65036161174089 17.173412946915857
  endloop
endfacet
facet normal -1.0 4.3291926643645e-16 -1.4474243342226807e-16
  outer loop
    vertex 0.0 41.5 -1.9999999999999998
    vertex 2.8904656446115947e-14 33.65036161174089 17.173412946915857
    vertex 3.589284802656301e-15 33.862541675362955 18.5
  endloop
endfacet
facet normal -1.0 4.3291926643645e-16 -1.4474243342226807e-16
  outer loop
    vertex 0.0 41.5 -1.9999999999999998
    vertex 3.589284802656301e-15 33.862541675362955 18.5
    vertex -1.881364806693882e-15 41.5 14.0
  endloop
endfacet
facet normal -1.8831795497332857e-30 1.0 -1.2533184366879544e-15
  outer loop
    vertex 0.999999999999998 40.49999999999996 13.999999999999972
    vertex 46.00000000000001 40.49999999999996 18.499999999999904
    vertex 46.0 40.49999999999996 13.999999999999904
  endloop
endfacet
facet normal -1.8831795497332857e-30 1.0 -1.2533184366879544e-15
  outer loop
    vertex 46.00000000000001 40.49999999999996 18.499999999999904
    vertex 0.999999999999998 40.49999999999996 13.999999999999972
    vertex 1.0000000000000027 40.49999999999996 18.49999999999997
  endloop
endfacet
facet normal 1.0 1.0254423572901519e-15 -1.2533184366879558e-15
  outer loop
    vertex 46.0 40.49999999999996 13.999999999999904
    vertex 46.000000000000014 34.999999999999964 18.499999999999876
    vertex 46.00000000000001 34.99999999999996 13.999999999999876
  endloop
endfacet
facet normal 1.0 1.0254423572901519e-15 -1.2533184366879558e-15
  outer loop
    vertex 46.000000000000014 34.999999999999964 18.499999999999876
    vertex 46.0 40.49999999999996 13.999999999999904
    vertex 46.00000000000001 40.49999999999996 18.499999999999904
  endloop
endfacet
facet normal 1.011953148888468e-33 1.0 -1.2533184366879544e-15
  outer loop
    vertex 46.000000000000014 34.999999999999964 18.499999999999876
    vertex 126.381915 34.99999999999996 13.999999999999876
    vertex 46.00000000000001 34.99999999999996 13.999999999999876
  endloop
endfacet
facet normal 1.011953148888468e-33 1.0 -1.2533184366879544e-15
  outer loop
    vertex 126.381915 34.99999999999996 13.999999999999876
    vertex 46.000000000000014 34.999999999999964 18.499999999999876
    vertex 126.381915 34.999999999999964 18.499999999999876
  endloop
endfacet
facet normal 1.0 -0.0 -0.0
  outer loop
    vertex 126.381915 35.999999999999964 13.999999999999876
    vertex 126.381915 34.999999999999964 18.499999999999876
    vertex 126.381915 34.99999999999996 13.999999999999876
  endloop
endfacet
facet normal 1.0 -0.0 -0.0
  outer loop
    vertex 126.381915 34.999999999999964 18.499999999999876
    vertex 126.381915 35.999999999999964 13.999999999999876
    vertex 126.381915 35.999999999999964 18.499999999999876
  endloop
endfacet
facet normal -7.104808400119738e-17 1.0 -1.707866010631345e-15
  outer loop
    vertex 47.00000000000001 35.99999999999996 13.999999999999943
    vertex 126.381915 35.999999999999964 18.499999999999876
    vertex 126.381915 35.999999999999964 13.999999999999876
  endloop
endfacet
facet normal -7.104808400119738e-17 1.0 -1.707866010631345e-15
  outer loop
    vertex 126.381915 35.999999999999964 18.499999999999876
    vertex 47.00000000000001 35.99999999999996 13.999999999999943
    vertex 47.00000000000001 35.999999999999964 18.499999999999943
  endloop
endfacet
facet normal 1.0 0.0 -1.0066593791118316e-15
  outer loop
    vertex 47.00000000000001 41.49999999999995 13.999999999999943
    vertex 47.00000000000001 35.999999999999964 18.499999999999943
    vertex 47.00000000000001 35.99999999999996 13.999999999999943
  endloop
endfacet
facet normal 1.0 0.0 -1.0066593791118316e-15
  outer loop
    vertex 47.00000000000001 35.999999999999964 18.499999999999943
    vertex 47.00000000000001 41.49999999999995 13.999999999999943
    vertex 47.00000000000001 41.49999999999996 18.499999999999943
  endloop
endfacet
facet normal 9.599885898035376e-16 1.0 -1.7078660106313463e-15
  outer loop
    vertex -1.881364806693882e-15 41.5 14.0
    vertex 47.00000000000001 41.49999999999996 18.499999999999943
    vertex 47.00000000000001 41.49999999999995 13.999999999999943
  endloop
endfacet
facet normal 9.599885898035376e-16 1.0 -1.7078660106313463e-15
  outer loop
    vertex 47.00000000000001 41.49999999999996 18.499999999999943
    vertex -1.881364806693882e-15 41.5 14.0
    vertex 2.6486023993093602e-15 41.5 18.5
  endloop
endfacet
facet normal -1.0 -3.3332920010374673e-16 1.0098931815091254e-15
  outer loop
    vertex 1.0000000000000027 40.49999999999996 18.49999999999997
    vertex 1.000000000000003 34.0 15.999999999999998
    vertex 1.000000000000004 34.0 18.5
  endloop
endfacet
facet normal -1.0 -3.3332920010374673e-16 1.0098931815091254e-15
  outer loop
    vertex 1.000000000000003 34.0 15.999999999999998
    vertex 1.0000000000000027 40.49999999999996 18.49999999999997
    vertex 0.999999999999998 40.49999999999996 13.999999999999972
  endloop
endfacet
facet normal -1.0 -3.3332920010374673e-16 1.0098931815091254e-15
  outer loop
    vertex 1.000000000000003 33.95067733973005 14.74465446835448
    vertex 0.999999999999998 40.49999999999996 13.999999999999972
    vertex 0.999999999999998 33.86254167536295 14.0
  endloop
endfacet
facet normal -1.0 -3.3332920010374673e-16 1.0098931815091254e-15
  outer loop
    vertex 0.999999999999998 40.49999999999996 13.999999999999972
    vertex 1.000000000000003 33.95067733973005 14.74465446835448
    vertex 1.000000000000003 34.0 15.999999999999998
  endloop
endfacet
facet normal 8.728044859047922e-16 -1.4694194312654365e-15 1.0
  outer loop
    vertex 2.221139744738311e-15 -5.500000000000004 18.5
    vertex 1.0000000000000004 -4.499999999999996 18.499999999999968
    vertex 3.0327927519095652e-15 2.137458324637051 18.5
  endloop
endfacet
facet normal 8.728044859047922e-16 -1.4694194312654365e-15 1.0
  outer loop
    vertex 1.0000000000000004 -4.499999999999996 18.499999999999968
    vertex 2.221139744738311e-15 -5.500000000000004 18.5
    vertex 47.00000000000001 -5.499999999999996 18.49999999999995
  endloop
endfacet
facet normal 8.728044859047922e-16 -1.4694194312654365e-15 1.0
  outer loop
    vertex 3.0327927519095652e-15 2.137458324637051 18.5
    vertex 1.0000000000000004 -4.499999999999996 18.499999999999968
    vertex 0.9999999999999752 1.999999999999993 18.5
  endloop
endfacet
facet normal 8.728044859047922e-16 -1.4694194312654365e-15 1.0
  outer loop
    vertex 1.0000000000000004 -4.499999999999996 18.499999999999968
    vertex 47.00000000000001 -5.499999999999996 18.49999999999995
    vertex 46.0 -4.499999999999996 18.49999999999994
  endloop
endfacet
facet normal 8.728044859047922e-16 -1.4694194312654365e-15 1.0
  outer loop
    vertex 46.0 -4.499999999999996 18.49999999999994
    vertex 47.00000000000001 -5.499999999999996 18.49999999999995
    vertex 46.0 1.0000000000000306 18.499999999999932
  endloop
endfacet
facet normal 8.728044859047922e-16 -1.4694194312654365e-15 1.0
  outer loop
    vertex 46.0 1.0000000000000306 18.499999999999932
    vertex 47.00000000000001 -5.499999999999996 18.49999999999995
    vertex 47.00000000000001 3.3788792654157936e-14 18.49999999999995
  endloop
endfacet
facet normal 8.728044859047922e-16 -1.4694194312654365e-15 1.0
  outer loop
    vertex 46.0 1.0000000000000306 18.499999999999932
    vertex 47.00000000000001 3.3788792654157936e-14 18.49999999999995
    vertex 126.381915 1.0000000000000309 18.499999999999886
  endloop
endfacet
facet normal 8.728044859047922e-16 -1.4694194312654365e-15 1.0
  outer loop
    vertex 126.381915 1.0000000000000309 18.499999999999886
    vertex 47.00000000000001 3.3788792654157936e-14 18.49999999999995
    vertex 126.381915 3.076739999428518e-14 18.499999999999886
  endloop
endfacet
facet normal 8.728044859047922e-16 -1.4694194312654365e-15 1.0
  outer loop
    vertex 0.9999999999999752 2.137458324637045 18.5
    vertex 3.0327927519095652e-15 2.137458324637051 18.5
    vertex 0.9999999999999752 1.999999999999993 18.5
  endloop
endfacet
facet normal 1.7999786058816242e-16 -1.0 -1.1551922934267616e-15
  outer loop
    vertex 47.00000000000001 -5.499999999999996 18.49999999999995
    vertex -1.6233060143425088e-15 -5.499999999999999 14.0
    vertex 47.0 -5.49999999999999 13.999999999999948
  endloop
endfacet
facet normal 1.7999786058816242e-16 -1.0 -1.1551922934267616e-15
  outer loop
    vertex -1.6233060143425088e-15 -5.499999999999999 14.0
    vertex 47.00000000000001 -5.499999999999996 18.49999999999995
    vertex 2.221139744738311e-15 -5.500000000000004 18.5
  endloop
endfacet
facet normal 1.0 0.0 -8.543212797957377e-16
  outer loop
    vertex 47.0 -5.49999999999999 13.999999999999948
    vertex 47.00000000000001 3.3788792654157936e-14 18.49999999999995
    vertex 47.00000000000001 -5.499999999999996 18.49999999999995
  endloop
endfacet
facet normal 1.0 0.0 -8.543212797957377e-16
  outer loop
    vertex 47.00000000000001 3.3788792654157936e-14 18.49999999999995
    vertex 47.0 -5.49999999999999 13.999999999999948
    vertex 47.0 3.898715797457836e-14 13.999999999999948
  endloop
endfacet
facet normal -3.8061473572070194e-17 -1.0 -1.1551922934267614e-15
  outer loop
    vertex 126.381915 3.076739999428518e-14 18.499999999999886
    vertex 47.0 3.898715797457836e-14 13.999999999999948
    vertex 126.381915 3.5965765314705603e-14 13.999999999999886
  endloop
endfacet
facet normal -3.8061473572070194e-17 -1.0 -1.1551922934267614e-15
  outer loop
    vertex 47.0 3.898715797457836e-14 13.999999999999948
    vertex 126.381915 3.076739999428518e-14 18.499999999999886
    vertex 47.00000000000001 3.3788792654157936e-14 18.49999999999995
  endloop
endfacet
facet normal 1.0 -0.0 -0.0
  outer loop
    vertex 126.381915 3.5965765314705603e-14 13.999999999999886
    vertex 126.381915 1.0000000000000309 18.499999999999886
    vertex 126.381915 3.076739999428518e-14 18.499999999999886
  endloop
endfacet
facet normal 1.0 -0.0 -0.0
  outer loop
    vertex 126.381915 1.0000000000000309 18.499999999999886
    vertex 126.381915 3.5965765314705603e-14 13.999999999999886
    vertex 126.381915 1.000000000000036 13.999999999999886
  endloop
endfacet
facet normal 2.192631329562031e-18 -1.0 -1.1358198332484588e-15
  outer loop
    vertex 126.381915 1.0000000000000309 18.499999999999886
    vertex 45.99999999999999 1.0000000000000357 13.999999999999932
    vertex 126.381915 1.000000000000036 13.999999999999886
  endloop
endfacet
facet normal 2.192631329562031e-18 -1.0 -1.1358198332484588e-15
  outer loop
    vertex 45.99999999999999 1.0000000000000357 13.999999999999932
    vertex 126.381915 1.0000000000000309 18.499999999999886
    vertex 46.0 1.0000000000000306 18.499999999999932
  endloop
endfacet
facet normal 1.0 -1.2727918923760092e-30 -1.2533184366879544e-15
  outer loop
    vertex 45.99999999999999 -4.499999999999991 13.999999999999938
    vertex 46.0 1.0000000000000306 18.499999999999932
    vertex 46.0 -4.499999999999996 18.49999999999994
  endloop
endfacet
facet normal 1.0 -1.2727918923760092e-30 -1.2533184366879544e-15
  outer loop
    vertex 46.0 1.0000000000000306 18.499999999999932
    vertex 45.99999999999999 -4.499999999999991 13.999999999999938
    vertex 45.99999999999999 1.0000000000000357 13.999999999999932
  endloop
endfacet
facet normal -7.614378351562396e-31 -1.0 -1.09665363210196e-15
  outer loop
    vertex 46.0 -4.499999999999996 18.49999999999994
    vertex 0.9999999999999966 -4.499999999999991 13.999999999999968
    vertex 45.99999999999999 -4.499999999999991 13.999999999999938
  endloop
endfacet
facet normal -7.614378351562396e-31 -1.0 -1.09665363210196e-15
  outer loop
    vertex 0.9999999999999966 -4.499999999999991 13.999999999999968
    vertex 46.0 -4.499999999999996 18.49999999999994
    vertex 1.0000000000000004 -4.499999999999996 18.499999999999968
  endloop
endfacet
facet normal -1.0 -3.861547407620265e-15 5.477729390401573e-16
  outer loop
    vertex 0.9999999999999764 1.9999999999999893 20.5
    vertex 1.0000000000000004 -4.499999999999996 18.499999999999968
    vertex 1.0000000000000022 -4.499999999999998 20.499999999999968
  endloop
endfacet
facet normal -1.0 -3.861547407620265e-15 5.477729390401573e-16
  outer loop
    vertex 1.0000000000000004 -4.499999999999996 18.499999999999968
    vertex 0.9999999999999764 1.9999999999999893 20.5
    vertex 0.9999999999999752 1.999999999999993 18.5
  endloop
endfacet
facet normal -1.0 -3.861547407620265e-15 5.477729390401573e-16
  outer loop
    vertex 0.9999999999999752 1.999999999999993 18.5
    vertex 0.9999999999999764 1.9999999999999893 20.5
    vertex 0.9999999999999764 2.0876496741076167 18.827544587717544
  endloop
endfacet
facet normal -1.0 -3.861547407620265e-15 5.477729390401573e-16
  outer loop
    vertex 0.9999999999999752 1.999999999999993 18.5
    vertex 0.9999999999999764 2.0876496741076167 18.827544587717544
    vertex 0.9999999999999752 2.137458324637045 18.5
  endloop
endfacet
facet normal -1.9601119207899002e-16 0.9986295347545742 0.0523359562429413
  outer loop
    vertex 0.9999999999999764 1.9999999999999893 20.5
    vertex 5.500000000000007 2.0876496741076127 18.827544587717544
    vertex 0.9999999999999764 2.0876496741076167 18.827544587717544
  endloop
endfacet
facet normal -1.9601119207899002e-16 0.9986295347545742 0.0523359562429413
  outer loop
    vertex 5.500000000000007 2.0876496741076127 18.827544587717544
    vertex 0.9999999999999764 1.9999999999999893 20.5
    vertex 5.500000000000004 1.9999999999999953 20.5
  endloop
endfacet
facet normal 9.1201903690328e-16 0.9659258262890681 0.25881904510252157
  outer loop
    vertex -2.114974861910923e-15 2.349638388259101 17.17341294691585
    vertex 5.500000000000007 2.7830957392775315 15.555728090000839
    vertex -2.114974861910923e-15 2.7830957392775355 15.555728090000839
  endloop
endfacet
facet normal 9.1201903690328e-16 0.9659258262890681 0.25881904510252157
  outer loop
    vertex 5.500000000000007 2.7830957392775315 15.555728090000839
    vertex -2.114974861910923e-15 2.349638388259101 17.17341294691585
    vertex 5.500000000000007 2.349638388259097 17.17341294691585
  endloop
endfacet
facet normal 8.764009185310366e-16 0.9335804264972023 0.35836794954529927
  outer loop
    vertex -2.114974861910923e-15 2.7830957392775355 15.555728090000839
    vertex 5.500000000000007 3.383272677718373 13.992213710787194
    vertex -7.049916206369744e-16 3.3832726777183764 13.992213710787194
  endloop
endfacet
facet normal 8.764009185310366e-16 0.9335804264972023 0.35836794954529927
  outer loop
    vertex 5.500000000000007 3.383272677718373 13.992213710787194
    vertex -2.114974861910923e-15 2.7830957392775355 15.555728090000839
    vertex 5.500000000000007 2.7830957392775315 15.555728090000839
  endloop
endfacet
facet normal 8.311807682966831e-16 0.891006524188368 0.45399049973954636
  outer loop
    vertex -7.049916206369744e-16 3.3832726777183764 13.992213710787194
    vertex 5.500000000000007 4.143593539448967 12.5
    vertex -7.049916206369744e-16 4.143593539448971 12.499999999999998
  endloop
endfacet
facet normal 8.311807682966831e-16 0.891006524188368 0.45399049973954636
  outer loop
    vertex 5.500000000000007 4.143593539448967 12.5
    vertex -7.049916206369744e-16 3.3832726777183764 13.992213710787194
    vertex 5.500000000000007 3.383272677718373 13.992213710787194
  endloop
endfacet
facet normal 7.768540276291132e-16 0.8386705679454236 0.5446390350150278
  outer loop
    vertex -7.049916206369744e-16 4.143593539448971 12.499999999999998
    vertex 5.500000000000007 5.05572809000083 11.095435963320428
    vertex 7.049916206369744e-16 5.055728090000834 11.095435963320426
  endloop
endfacet
facet normal 7.768540276291132e-16 0.8386705679454236 0.5446390350150278
  outer loop
    vertex 5.500000000000007 5.05572809000083 11.095435963320428
    vertex -7.049916206369744e-16 4.143593539448971 12.499999999999998
    vertex 5.500000000000007 4.143593539448967 12.5
  endloop
endfacet
facet normal 7.140159116676835e-16 0.7771459614569711 0.6293203910498372
  outer loop
    vertex 7.049916206369744e-16 5.055728090000834 11.095435963320426
    vertex 5.500000000000007 6.1096827923616805 9.793910298258266
    vertex 2.114974861910923e-15 6.109682792361684 9.793910298258265
  endloop
endfacet
facet normal 7.140159116676835e-16 0.7771459614569711 0.6293203910498372
  outer loop
    vertex 5.500000000000007 6.1096827923616805 9.793910298258266
    vertex 7.049916206369744e-16 5.055728090000834 11.095435963320426
    vertex 5.500000000000007 5.05572809000083 11.095435963320428
  endloop
endfacet
facet normal 6.433548879605864e-16 0.7071067811865476 0.7071067811865476
  outer loop
    vertex 2.114974861910923e-15 6.109682792361684 9.793910298258265
    vertex 5.50000000000001 7.293910298258262 8.60968279236169
    vertex 3.524958103184872e-15 7.293910298258262 8.609682792361689
  endloop
endfacet
facet normal 6.433548879605864e-16 0.7071067811865476 0.7071067811865476
  outer loop
    vertex 5.50000000000001 7.293910298258262 8.60968279236169
    vertex 2.114974861910923e-15 6.109682792361684 9.793910298258265
    vertex 5.500000000000007 6.1096827923616805 9.793910298258266
  endloop
endfacet
facet normal 5.656451334703269e-16 0.6293203910498368 0.7771459614569715
  outer loop
    vertex 5.50000000000001 7.293910298258262 8.60968279236169
    vertex 3.524958103184872e-15 8.595435963320426 7.555728090000837
    vertex 3.524958103184872e-15 7.293910298258262 8.609682792361689
  endloop
endfacet
facet normal 5.656451334703269e-16 0.6293203910498368 0.7771459614569715
  outer loop
    vertex 3.524958103184872e-15 8.595435963320426 7.555728090000837
    vertex 5.50000000000001 7.293910298258262 8.60968279236169
    vertex 5.500000000000012 8.595435963320426 7.555728090000839
  endloop
endfacet
facet normal 4.817380525289152e-16 0.5446390350150282 0.8386705679454234
  outer loop
    vertex 5.500000000000012 8.595435963320426 7.555728090000839
    vertex 4.93494134445882e-15 9.999999999999996 6.643593539448975
    vertex 3.524958103184872e-15 8.595435963320426 7.555728090000837
  endloop
endfacet
facet normal 4.817380525289152e-16 0.5446390350150282 0.8386705679454234
  outer loop
    vertex 4.93494134445882e-15 9.999999999999996 6.643593539448975
    vertex 5.500000000000012 8.595435963320426 7.555728090000839
    vertex 5.500000000000012 9.999999999999996 6.643593539448976
  endloop
endfacet
facet normal 3.9255294867382473e-16 0.45399049973954636 0.891006524188368
  outer loop
    vertex 5.500000000000012 9.999999999999996 6.643593539448976
    vertex 6.3449245857327695e-15 11.492213710787192 5.883272677718381
    vertex 4.93494134445882e-15 9.999999999999996 6.643593539448975
  endloop
endfacet
facet normal 3.9255294867382473e-16 0.45399049973954636 0.891006524188368
  outer loop
    vertex 6.3449245857327695e-15 11.492213710787192 5.883272677718381
    vertex 5.500000000000012 9.999999999999996 6.643593539448976
    vertex 5.500000000000012 11.492213710787192 5.883272677718381
  endloop
endfacet
facet normal 2.9906695256607923e-16 0.35836794954529927 0.9335804264972023
  outer loop
    vertex 5.500000000000012 11.492213710787192 5.883272677718381
    vertex 9.164891068280667e-15 13.055728090000835 5.283095739277539
    vertex 6.3449245857327695e-15 11.492213710787192 5.883272677718381
  endloop
endfacet
facet normal 2.9906695256607923e-16 0.35836794954529927 0.9335804264972023
  outer loop
    vertex 9.164891068280667e-15 13.055728090000835 5.283095739277539
    vertex 5.500000000000012 11.492213710787192 5.883272677718381
    vertex 5.500000000000015 13.055728090000835 5.283095739277539
  endloop
endfacet
facet normal 2.0230431634223918e-16 0.258819045102522 0.965925826289068
  outer loop
    vertex 5.500000000000015 13.055728090000835 5.283095739277539
    vertex 1.0574874309554616e-14 14.673412946915843 4.8496383882591045
    vertex 9.164891068280667e-15 13.055728090000835 5.283095739277539
  endloop
endfacet
facet normal 2.0230431634223918e-16 0.258819045102522 0.965925826289068
  outer loop
    vertex 1.0574874309554616e-14 14.673412946915843 4.8496383882591045
    vertex 5.500000000000015 13.055728090000835 5.283095739277539
    vertex 5.500000000000018 14.673412946915843 4.8496383882591045
  endloop
endfacet
facet normal 1.0332519169365104e-16 0.15643446504023156 0.9876883405951378
  outer loop
    vertex 5.500000000000018 14.673412946915843 4.8496383882591045
    vertex 1.1984857550828564e-14 16.327544587717536 4.58764967410762
    vertex 1.0574874309554616e-14 14.673412946915843 4.8496383882591045
  endloop
endfacet
facet normal 1.0332519169365104e-16 0.15643446504023156 0.9876883405951378
  outer loop
    vertex 1.1984857550828564e-14 16.327544587717536 4.58764967410762
    vertex 5.500000000000018 14.673412946915843 4.8496383882591045
    vertex 5.500000000000018 16.327544587717536 4.58764967410762
  endloop
endfacet
facet normal 3.2140146226804623e-18 0.05233595624294358 0.9986295347545739
  outer loop
    vertex 5.500000000000018 16.327544587717536 4.58764967410762
    vertex 1.3394840792102513e-14 17.99999999999999 4.499999999999995
    vertex 1.1984857550828564e-14 16.327544587717536 4.58764967410762
  endloop
endfacet
facet normal 3.2140146226804623e-18 0.05233595624294358 0.9986295347545739
  outer loop
    vertex 1.3394840792102513e-14 17.99999999999999 4.499999999999995
    vertex 5.500000000000018 16.327544587717536 4.58764967410762
    vertex 5.500000000000018 17.99999999999999 4.499999999999995
  endloop
endfacet
facet normal -9.693237586507052e-17 -0.05233595624294349 0.9986295347545739
  outer loop
    vertex 5.500000000000018 17.99999999999999 4.499999999999995
    vertex 1.4804824033376462e-14 19.672455412282446 4.58764967410762
    vertex 1.3394840792102513e-14 17.99999999999999 4.499999999999995
  endloop
endfacet
facet normal -9.693237586507052e-17 -0.05233595624294349 0.9986295347545739
  outer loop
    vertex 1.4804824033376462e-14 19.672455412282446 4.58764967410762
    vertex 5.500000000000018 17.99999999999999 4.499999999999995
    vertex 5.500000000000024 19.672455412282446 4.58764967410762
  endloop
endfacet
facet normal -1.9601675495844164e-16 -0.15643446504023156 0.9876883405951378
  outer loop
    vertex 5.500000000000024 19.672455412282446 4.58764967410762
    vertex 1.621480727465041e-14 21.32658705308414 4.8496383882591045
    vertex 1.4804824033376462e-14 19.672455412282446 4.58764967410762
  endloop
endfacet
facet normal -1.9601675495844164e-16 -0.15643446504023156 0.9876883405951378
  outer loop
    vertex 1.621480727465041e-14 21.32658705308414 4.8496383882591045
    vertex 5.500000000000024 19.672455412282446 4.58764967410762
    vertex 5.500000000000024 21.32658705308414 4.8496383882591045
  endloop
endfacet
facet normal -2.9295353346534163e-16 -0.25881904510251885 0.9659258262890689
  outer loop
    vertex 5.500000000000024 21.32658705308414 4.8496383882591045
    vertex 1.762479051592436e-14 22.944271909999145 5.283095739277534
    vertex 1.621480727465041e-14 21.32658705308414 4.8496383882591045
  endloop
endfacet
facet normal -2.9295353346534163e-16 -0.25881904510251885 0.9659258262890689
  outer loop
    vertex 1.762479051592436e-14 22.944271909999145 5.283095739277534
    vertex 5.500000000000024 21.32658705308414 4.8496383882591045
    vertex 5.500000000000024 22.944271909999145 5.283095739277534
  endloop
endfacet
facet normal -3.866806517551318e-16 -0.3583679495453007 0.9335804264972017
  outer loop
    vertex 5.500000000000024 22.944271909999145 5.283095739277534
    vertex 1.9034773757198308e-14 24.507786289212792 5.883272677718377
    vertex 1.762479051592436e-14 22.944271909999145 5.283095739277534
  endloop
endfacet
facet normal -3.866806517551318e-16 -0.3583679495453007 0.9335804264972017
  outer loop
    vertex 1.9034773757198308e-14 24.507786289212792 5.883272677718377
    vertex 5.500000000000024 22.944271909999145 5.283095739277534
    vertex 5.500000000000027 24.507786289212792 5.883272677718377
  endloop
endfacet
facet normal -4.761712159061603e-16 -0.45399049973954536 0.8910065241883686
  outer loop
    vertex 5.500000000000027 24.507786289212792 5.883272677718377
    vertex 2.0444756998472255e-14 25.999999999999993 6.643593539448969
    vertex 1.9034773757198308e-14 24.507786289212792 5.883272677718377
  endloop
endfacet
facet normal -4.761712159061603e-16 -0.45399049973954536 0.8910065241883686
  outer loop
    vertex 2.0444756998472255e-14 25.999999999999993 6.643593539448969
    vertex 5.500000000000027 24.507786289212792 5.883272677718377
    vertex 5.500000000000029 25.999999999999986 6.643593539448971
  endloop
endfacet
facet normal -5.604447485704904e-16 -0.5446390350150263 0.8386705679454247
  outer loop
    vertex 5.500000000000029 25.999999999999986 6.643593539448971
    vertex 2.1854740239746206e-14 27.40456403667957 7.555728090000832
    vertex 2.0444756998472255e-14 25.999999999999993 6.643593539448969
  endloop
endfacet
facet normal -5.604447485704904e-16 -0.5446390350150263 0.8386705679454247
  outer loop
    vertex 2.1854740239746206e-14 27.40456403667957 7.555728090000832
    vertex 5.500000000000029 25.999999999999986 6.643593539448971
    vertex 5.500000000000029 27.404564036679563 7.555728090000833
  endloop
endfacet
facet normal -6.385779312888793e-16 -0.6293203910498381 0.7771459614569705
  outer loop
    vertex 5.500000000000029 27.404564036679563 7.555728090000833
    vertex 2.3264723481020153e-14 28.70608970174173 8.609682792361683
    vertex 2.1854740239746206e-14 27.40456403667957 7.555728090000832
  endloop
endfacet
facet normal -6.385779312888793e-16 -0.6293203910498381 0.7771459614569705
  outer loop
    vertex 2.3264723481020153e-14 28.70608970174173 8.609682792361683
    vertex 5.500000000000029 27.404564036679563 7.555728090000833
    vertex 5.500000000000029 28.706089701741725 8.609682792361685
  endloop
endfacet
facet normal -7.097147205610419e-16 -0.7071067811865471 0.707106781186548
  outer loop
    vertex 5.500000000000029 28.706089701741725 8.609682792361685
    vertex 2.4674706722294104e-14 29.890317207638308 9.793910298258261
    vertex 2.3264723481020153e-14 28.70608970174173 8.609682792361683
  endloop
endfacet
facet normal -7.097147205610419e-16 -0.7071067811865471 0.707106781186548
  outer loop
    vertex 2.4674706722294104e-14 29.890317207638308 9.793910298258261
    vertex 5.500000000000029 28.706089701741725 8.609682792361685
    vertex 5.500000000000032 29.8903172076383 9.793910298258261
  endloop
endfacet
facet normal -7.730757268373858e-16 -0.7771459614569711 0.6293203910498373
  outer loop
    vertex 5.500000000000032 29.8903172076383 9.793910298258261
    vertex 2.6084689963568052e-14 30.94427190999916 11.095435963320424
    vertex 2.4674706722294104e-14 29.890317207638308 9.793910298258261
  endloop
endfacet
facet normal -7.730757268373858e-16 -0.7771459614569711 0.6293203910498373
  outer loop
    vertex 2.6084689963568052e-14 30.94427190999916 11.095435963320424
    vertex 5.500000000000032 29.8903172076383 9.793910298258261
    vertex 5.500000000000032 30.944271909999156 11.095435963320426
  endloop
endfacet
facet normal -8.279667536740024e-16 -0.838670567945424 0.544639035015027
  outer loop
    vertex 5.500000000000032 30.944271909999156 11.095435963320426
    vertex 2.6084689963568052e-14 31.85640646055102 12.499999999999998
    vertex 2.6084689963568052e-14 30.94427190999916 11.095435963320424
  endloop
endfacet
facet normal -8.279667536740024e-16 -0.838670567945424 0.544639035015027
  outer loop
    vertex 2.6084689963568052e-14 31.85640646055102 12.499999999999998
    vertex 5.500000000000032 30.944271909999156 11.095435963320426
    vertex 5.500000000000035 31.856406460551018 12.5
  endloop
endfacet
facet normal -8.73786403494185e-16 -0.8910065241883685 0.4539904997395457
  outer loop
    vertex 5.500000000000035 31.856406460551018 12.5
    vertex 2.7494673204842e-14 32.61672732228162 13.992213710787198
    vertex 2.6084689963568052e-14 31.85640646055102 12.499999999999998
  endloop
endfacet
facet normal -8.73786403494185e-16 -0.8910065241883685 0.4539904997395457
  outer loop
    vertex 2.7494673204842e-14 32.61672732228162 13.992213710787198
    vertex 5.500000000000035 31.856406460551018 12.5
    vertex 5.500000000000035 32.61672732228161 13.992213710787198
  endloop
endfacet
facet normal -9.10032666626124e-16 -0.9335804264972014 0.3583679495453016
  outer loop
    vertex 5.500000000000035 33.21690426072246 15.555728090000844
    vertex 2.7494673204842e-14 32.61672732228162 13.992213710787198
    vertex 5.500000000000035 32.61672732228161 13.992213710787198
  endloop
endfacet
facet normal -9.10032666626124e-16 -0.9335804264972014 0.3583679495453016
  outer loop
    vertex 2.7494673204842e-14 32.61672732228162 13.992213710787198
    vertex 5.500000000000035 33.21690426072246 15.555728090000844
    vertex 2.7494673204842e-14 33.216904260722465 15.555728090000844
  endloop
endfacet
facet normal -9.363084214259303e-16 -0.965925826289069 0.25881904510251796
  outer loop
    vertex 5.500000000000035 33.650361611740884 17.173412946915857
    vertex 2.7494673204842e-14 33.216904260722465 15.555728090000844
    vertex 5.500000000000035 33.21690426072246 15.555728090000844
  endloop
endfacet
facet normal -9.363084214259303e-16 -0.965925826289069 0.25881904510251796
  outer loop
    vertex 2.7494673204842e-14 33.216904260722465 15.555728090000844
    vertex 5.500000000000035 33.650361611740884 17.173412946915857
    vertex 2.8904656446115947e-14 33.65036161174089 17.173412946915857
  endloop
endfacet
facet normal -4.766914197237299e-16 -0.9874492079259292 0.15793689172088662
  outer loop
    vertex 5.500000000000029 33.862541675362955 18.5
    vertex 2.8904656446115947e-14 33.65036161174089 17.173412946915857
    vertex 5.500000000000035 33.650361611740884 17.173412946915857
  endloop
endfacet
facet normal -4.766914197237299e-16 -0.9874492079259292 0.15793689172088662
  outer loop
    vertex 2.8904656446115947e-14 33.65036161174089 17.173412946915857
    vertex 5.500000000000029 33.862541675362955 18.5
    vertex 3.589284802656301e-15 33.862541675362955 18.5
  endloop
endfacet
facet normal -4.766914197237299e-16 -0.9874492079259292 0.15793689172088662
  outer loop
    vertex 3.589284802656301e-15 33.862541675362955 18.5
    vertex 5.500000000000029 33.862541675362955 18.5
    vertex 1.0000000000000027 33.862541675362955 18.5
  endloop
endfacet
facet normal -9.529450732681923e-16 -0.9886345848038193 0.15033847720986146
  outer loop
    vertex 5.500000000000035 33.91235032589237 18.827544587717554
    vertex 1.0000000000000027 33.862541675362955 18.5
    vertex 5.500000000000029 33.862541675362955 18.5
  endloop
endfacet
facet normal -9.529450732681923e-16 -0.9886345848038193 0.15033847720986146
  outer loop
    vertex 1.0000000000000027 33.862541675362955 18.5
    vertex 5.500000000000035 33.91235032589237 18.827544587717554
    vertex 1.0000000000000073 33.91235032589237 18.827544587717554
  endloop
endfacet
facet normal -1.4853947098185808e-20 -0.9986295347545739 0.05233595624294553
  outer loop
    vertex 5.500000000000004 34.0 20.5
    vertex 1.0000000000000073 33.91235032589237 18.827544587717554
    vertex 5.500000000000035 33.91235032589237 18.827544587717554
  endloop
endfacet
facet normal -1.4853947098185808e-20 -0.9986295347545739 0.05233595624294553
  outer loop
    vertex 1.0000000000000073 33.91235032589237 18.827544587717554
    vertex 5.500000000000004 34.0 20.5
    vertex 1.000000000000007 34.0 20.5
  endloop
endfacet
facet normal 9.388362619167892e-16 0.9886345848038136 0.15033847720989876
  outer loop
    vertex 0.9999999999999764 2.0876496741076167 18.827544587717544
    vertex 5.500000000000004 2.137458324637041 18.5
    vertex 0.9999999999999752 2.137458324637045 18.5
  endloop
endfacet
facet normal 9.388362619167892e-16 0.9886345848038136 0.15033847720989876
  outer loop
    vertex 5.500000000000004 2.137458324637041 18.5
    vertex 0.9999999999999764 2.0876496741076167 18.827544587717544
    vertex 5.500000000000007 2.0876496741076127 18.827544587717544
  endloop
endfacet
facet normal 1.1843899263818409e-15 0.9874492079259305 0.15793689172087855
  outer loop
    vertex 3.0327927519095652e-15 2.137458324637051 18.5
    vertex 5.500000000000007 2.349638388259097 17.17341294691585
    vertex -2.114974861910923e-15 2.349638388259101 17.17341294691585
  endloop
endfacet
facet normal 1.1843899263818409e-15 0.9874492079259305 0.15793689172087855
  outer loop
    vertex 5.500000000000007 2.349638388259097 17.17341294691585
    vertex 3.0327927519095652e-15 2.137458324637051 18.5
    vertex 5.500000000000004 2.137458324637041 18.5
  endloop
endfacet
facet normal 1.1843899263818409e-15 0.9874492079259305 0.15793689172087855
  outer loop
    vertex 5.500000000000004 2.137458324637041 18.5
    vertex 3.0327927519095652e-15 2.137458324637051 18.5
    vertex 0.9999999999999752 2.137458324637045 18.5
  endloop
endfacet
endsolid camera_housing_base
