solid cls_oiler_housing
facet normal -0.0 -0.3826834323650895 0.9238795325112868
  outer loop
    vertex -14.499999999999998 -18.249999999999996 16.79903810567665
    vertex -38.5 -17.88822856765378 16.948888739433595
    vertex -38.5 -18.249999999999996 16.799038105676654
  endloop
endfacet
facet normal -0.0 -0.3826834323650895 0.9238795325112868
  outer loop
    vertex -38.5 -17.88822856765378 16.948888739433595
    vertex -14.499999999999998 -18.249999999999996 16.79903810567665
    vertex -14.499999999999998 -17.88822856765378 16.948888739433595
  endloop
endfacet
facet normal 2.2825241635198565e-18 -0.13052619222005166 0.9914448613738105
  outer loop
    vertex -14.499999999999998 -17.88822856765378 16.948888739433595
    vertex -38.5 -17.5 16.999999999999993
    vertex -38.5 -17.88822856765378 16.948888739433595
  endloop
endfacet
facet normal 2.2825241635198565e-18 -0.13052619222005166 0.9914448613738105
  outer loop
    vertex -38.5 -17.5 16.999999999999993
    vertex -14.499999999999998 -17.88822856765378 16.948888739433595
    vertex -14.499999999999998 -17.5 16.999999999999993
  endloop
endfacet
facet normal -0.0 -0.7933533402912326 0.6087614290087243
  outer loop
    vertex -14.499999999999998 -18.56066017177982 16.560660171779812
    vertex -38.5 -18.799038105676658 16.249999999999996
    vertex -14.499999999999998 -18.799038105676658 16.249999999999993
  endloop
endfacet
facet normal -0.0 -0.7933533402912326 0.6087614290087243
  outer loop
    vertex -38.5 -18.799038105676658 16.249999999999996
    vertex -14.499999999999998 -18.56066017177982 16.560660171779812
    vertex -38.5 -18.56066017177982 16.560660171779816
  endloop
endfacet
facet normal -0.0 -0.6087614290087208 0.7933533402912353
  outer loop
    vertex -14.499999999999998 -18.56066017177982 16.560660171779812
    vertex -38.5 -18.249999999999996 16.799038105676654
    vertex -38.5 -18.56066017177982 16.560660171779816
  endloop
endfacet
facet normal -0.0 -0.6087614290087208 0.7933533402912353
  outer loop
    vertex -38.5 -18.249999999999996 16.799038105676654
    vertex -14.499999999999998 -18.56066017177982 16.560660171779812
    vertex -14.499999999999998 -18.249999999999996 16.79903810567665
  endloop
endfacet
facet normal -0.0 -0.923879532511288 0.38268343236508695
  outer loop
    vertex -14.499999999999998 -18.799038105676658 16.249999999999993
    vertex -38.5 -18.948888739433603 15.888228567653776
    vertex -14.499999999999998 -18.948888739433603 15.888228567653773
  endloop
endfacet
facet normal -0.0 -0.923879532511288 0.38268343236508695
  outer loop
    vertex -38.5 -18.948888739433603 15.888228567653776
    vertex -14.499999999999998 -18.799038105676658 16.249999999999993
    vertex -38.5 -18.799038105676658 16.249999999999996
  endloop
endfacet
facet normal 0.0 0.13052619221983985 -0.9914448613738382
  outer loop
    vertex -14.500000000000007 17.88822856765379 -16.948888739433684
    vertex -38.50000000000001 17.49999999999999 -16.999999999999996
    vertex -38.50000000000001 17.88822856765379 -16.94888873943368
  endloop
endfacet
facet normal 0.0 0.13052619221983985 -0.9914448613738382
  outer loop
    vertex -38.50000000000001 17.49999999999999 -16.999999999999996
    vertex -14.500000000000007 17.88822856765379 -16.948888739433684
    vertex -14.500000000000007 17.49999999999999 -17.0
  endloop
endfacet
facet normal 0.0 0.38268343236524266 -0.9238795325112235
  outer loop
    vertex -14.500000000000007 18.25000000000002 -16.799038105676665
    vertex -38.50000000000001 17.88822856765379 -16.94888873943368
    vertex -38.50000000000001 18.25000000000002 -16.79903810567666
  endloop
endfacet
facet normal 0.0 0.38268343236524266 -0.9238795325112235
  outer loop
    vertex -38.50000000000001 17.88822856765379 -16.94888873943368
    vertex -14.500000000000007 18.25000000000002 -16.799038105676665
    vertex -14.500000000000007 17.88822856765379 -16.948888739433684
  endloop
endfacet
facet normal 0.0 0.6087614290086405 -0.7933533402912968
  outer loop
    vertex -14.500000000000007 18.560660171779837 -16.560660171779883
    vertex -38.50000000000001 18.25000000000002 -16.79903810567666
    vertex -38.50000000000001 18.560660171779837 -16.56066017177988
  endloop
endfacet
facet normal 0.0 0.6087614290086405 -0.7933533402912968
  outer loop
    vertex -38.50000000000001 18.25000000000002 -16.79903810567666
    vertex -14.500000000000007 18.560660171779837 -16.560660171779883
    vertex -14.500000000000007 18.25000000000002 -16.799038105676665
  endloop
endfacet
facet normal -0.0 0.9914448613737998 -0.13052619222013198
  outer loop
    vertex -38.50000000000001 18.948888739433592 -15.888228567653767
    vertex -14.500000000000007 19.00000000000001 -15.500000000000082
    vertex -14.500000000000007 18.948888739433592 -15.88822856765377
  endloop
endfacet
facet normal -0.0 0.9914448613737998 -0.13052619222013198
  outer loop
    vertex -14.500000000000007 19.00000000000001 -15.500000000000082
    vertex -38.50000000000001 18.948888739433592 -15.888228567653767
    vertex -38.50000000000001 19.00000000000001 -15.500000000000078
  endloop
endfacet
facet normal -7.098559642504831e-30 1.0 -1.819333214547028e-16
  outer loop
    vertex -15.999999999999998 17.499999999999996 15.499999999999991
    vertex -15.000000000000007 17.49999999999999 -15.500000000000082
    vertex -16.000000000000004 17.49999999999999 -15.500000000000082
  endloop
endfacet
facet normal -7.098559642504831e-30 1.0 -1.819333214547028e-16
  outer loop
    vertex -15.000000000000007 17.49999999999999 -15.500000000000082
    vertex -15.999999999999998 17.499999999999996 15.499999999999991
    vertex -15.0 17.499999999999996 15.499999999999991
  endloop
endfacet
facet normal -0.0 0.7933533402912838 -0.6087614290086575
  outer loop
    vertex -38.50000000000001 18.560660171779837 -16.56066017177988
    vertex -14.500000000000007 18.799038105676665 -16.250000000000025
    vertex -14.500000000000007 18.560660171779837 -16.560660171779883
  endloop
endfacet
facet normal -0.0 0.7933533402912838 -0.6087614290086575
  outer loop
    vertex -14.500000000000007 18.799038105676665 -16.250000000000025
    vertex -38.50000000000001 18.560660171779837 -16.56066017177988
    vertex -38.50000000000001 18.799038105676665 -16.25000000000002
  endloop
endfacet
facet normal -0.0 0.9238795325113134 -0.38268343236502567
  outer loop
    vertex -38.50000000000001 18.799038105676665 -16.25000000000002
    vertex -14.500000000000007 18.948888739433592 -15.88822856765377
    vertex -14.500000000000007 18.799038105676665 -16.250000000000025
  endloop
endfacet
facet normal -0.0 0.9238795325113134 -0.38268343236502567
  outer loop
    vertex -14.500000000000007 18.948888739433592 -15.88822856765377
    vertex -38.50000000000001 18.799038105676665 -16.25000000000002
    vertex -38.50000000000001 18.948888739433592 -15.888228567653767
  endloop
endfacet
facet normal 0.0 -1.0 0.0
  outer loop
    vertex -14.499999999999998 -19.0 15.499999999999991
    vertex -38.50000000000001 -19.0 -15.500000000000078
    vertex -14.500000000000007 -19.0 -15.500000000000082
  endloop
endfacet
facet normal 0.0 -1.0 0.0
  outer loop
    vertex -38.50000000000001 -19.0 -15.500000000000078
    vertex -14.499999999999998 -19.0 15.499999999999991
    vertex -38.5 -19.0 15.499999999999995
  endloop
endfacet
facet normal -0.0 -0.0 1.0
  outer loop
    vertex -15.0 -17.5 15.499999999999991
    vertex -15.999999999999998 17.499999999999996 15.499999999999991
    vertex -15.999999999999998 -17.5 15.499999999999991
  endloop
endfacet
facet normal -0.0 -0.0 1.0
  outer loop
    vertex -15.999999999999998 17.499999999999996 15.499999999999991
    vertex -15.0 -17.5 15.499999999999991
    vertex -15.0 17.499999999999996 15.499999999999991
  endloop
endfacet
facet normal -3.549279821252417e-30 -1.0 -9.096666072735139e-17
  outer loop
    vertex -15.0 -17.5 15.499999999999991
    vertex -16.000000000000004 -17.499999999999996 -15.500000000000082
    vertex -15.000000000000007 -17.499999999999996 -15.500000000000082
  endloop
endfacet
facet normal -3.549279821252417e-30 -1.0 -9.096666072735139e-17
  outer loop
    vertex -16.000000000000004 -17.499999999999996 -15.500000000000082
    vertex -15.0 -17.5 15.499999999999991
    vertex -15.999999999999998 -17.5 15.499999999999991
  endloop
endfacet
facet normal -1.0 1.141075951668346e-17 9.806496458319595e-17
  outer loop
    vertex -15.999999999999998 -17.5 15.499999999999991
    vertex -16.000000000000004 -6.449593469062221 3.2328188876085213
    vertex -16.000000000000004 -17.499999999999996 -15.500000000000082
  endloop
endfacet
facet normal -1.0 1.141075951668346e-17 9.806496458319595e-17
  outer loop
    vertex -16.000000000000004 -6.449593469062221 3.2328188876085213
    vertex -15.999999999999998 -17.5 15.499999999999991
    vertex -16.000000000000004 -5.6802183349737305 4.087296540125586
  endloop
endfacet
facet normal -1.0 1.141075951668346e-17 9.806496458319595e-17
  outer loop
    vertex -16.000000000000004 -5.6802183349737305 4.087296540125586
    vertex -15.999999999999998 -17.5 15.499999999999991
    vertex -16.000000000000004 -4.750000000000011 4.76313972081433
  endloop
endfacet
facet normal -1.0 1.141075951668346e-17 9.806496458319595e-17
  outer loop
    vertex -16.000000000000004 -4.750000000000011 4.76313972081433
    vertex -15.999999999999998 -17.5 15.499999999999991
    vertex -15.999999999999998 17.499999999999996 15.499999999999991
  endloop
endfacet
facet normal -1.0 1.141075951668346e-17 9.806496458319595e-17
  outer loop
    vertex -16.000000000000004 -17.499999999999996 -15.500000000000082
    vertex -16.000000000000004 -6.449593469062221 3.2328188876085213
    vertex -16.000000000000004 -7.024500017034315 2.2370515369168205
  endloop
endfacet
facet normal -1.0 1.141075951668346e-17 9.806496458319595e-17
  outer loop
    vertex -16.000000000000004 -17.499999999999996 -15.500000000000082
    vertex -16.000000000000004 -7.024500017034315 2.2370515369168205
    vertex -16.000000000000004 -7.37981180403594 1.1435142994975969
  endloop
endfacet
facet normal -1.0 1.141075951668346e-17 9.806496458319595e-17
  outer loop
    vertex -16.000000000000004 -17.499999999999996 -15.500000000000082
    vertex -16.000000000000004 -7.37981180403594 1.1435142994975969
    vertex -16.000000000000004 -7.500000000000011 -7.866298160018263e-14
  endloop
endfacet
facet normal -1.0 1.141075951668346e-17 9.806496458319595e-17
  outer loop
    vertex -16.000000000000004 -4.750000000000011 4.76313972081433
    vertex -15.999999999999998 17.499999999999996 15.499999999999991
    vertex -16.000000000000004 -3.699593469062222 5.230810839623262
  endloop
endfacet
facet normal -1.0 1.141075951668346e-17 9.806496458319595e-17
  outer loop
    vertex -16.000000000000004 -3.699593469062222 5.230810839623262
    vertex -15.999999999999998 17.499999999999996 15.499999999999991
    vertex -16.000000000000004 -2.574906547972105 5.469870424525421
  endloop
endfacet
facet normal -1.0 1.141075951668346e-17 9.806496458319595e-17
  outer loop
    vertex -16.000000000000004 -2.574906547972105 5.469870424525421
    vertex -15.999999999999998 17.499999999999996 15.499999999999991
    vertex -16.000000000000004 -1.4250934520279164 5.469870424525421
  endloop
endfacet
facet normal -1.0 1.141075951668346e-17 9.806496458319595e-17
  outer loop
    vertex -16.000000000000004 -1.4250934520279164 5.469870424525421
    vertex -15.999999999999998 17.499999999999996 15.499999999999991
    vertex -16.000000000000004 -0.30040653093779957 5.230810839623262
  endloop
endfacet
facet normal -1.0 1.141075951668346e-17 9.806496458319595e-17
  outer loop
    vertex -16.000000000000004 -0.30040653093779957 5.230810839623262
    vertex -15.999999999999998 17.499999999999996 15.499999999999991
    vertex -16.000000000000004 0.7499999999999901 4.76313972081433
  endloop
endfacet
facet normal -1.0 1.141075951668346e-17 9.806496458319595e-17
  outer loop
    vertex -16.000000000000004 0.7499999999999901 4.76313972081433
    vertex -15.999999999999998 17.499999999999996 15.499999999999991
    vertex -16.000000000000004 1.6802183349737096 4.087296540125585
  endloop
endfacet
facet normal -1.0 1.141075951668346e-17 9.806496458319595e-17
  outer loop
    vertex -16.000000000000004 1.6802183349737096 4.087296540125585
    vertex -15.999999999999998 17.499999999999996 15.499999999999991
    vertex -16.000000000000004 2.4495934690622003 3.2328188876085204
  endloop
endfacet
facet normal -1.0 1.141075951668346e-17 9.806496458319595e-17
  outer loop
    vertex -16.000000000000004 2.4495934690622003 3.2328188876085204
    vertex -15.999999999999998 17.499999999999996 15.499999999999991
    vertex -16.000000000000004 3.0245000170342946 2.237051536916819
  endloop
endfacet
facet normal -1.0 1.141075951668346e-17 9.806496458319595e-17
  outer loop
    vertex -16.000000000000004 3.0245000170342946 2.237051536916819
    vertex -15.999999999999998 17.499999999999996 15.499999999999991
    vertex -16.000000000000004 3.3798118040359206 1.1435142994975944
  endloop
endfacet
facet normal -1.0 1.141075951668346e-17 9.806496458319595e-17
  outer loop
    vertex -16.000000000000004 3.3798118040359206 1.1435142994975944
    vertex -15.999999999999998 17.499999999999996 15.499999999999991
    vertex -16.000000000000004 3.4999999999999893 -8.177902799388902e-14
  endloop
endfacet
facet normal -1.0 1.141075951668346e-17 9.806496458319595e-17
  outer loop
    vertex -16.000000000000004 3.4999999999999893 -8.177902799388902e-14
    vertex -15.999999999999998 17.499999999999996 15.499999999999991
    vertex -16.000000000000004 17.49999999999999 -15.500000000000082
  endloop
endfacet
facet normal -1.0 1.141075951668346e-17 9.806496458319595e-17
  outer loop
    vertex -16.000000000000004 -17.499999999999996 -15.500000000000082
    vertex -16.000000000000004 -4.750000000000017 -4.7631397208144906
    vertex -16.000000000000004 17.49999999999999 -15.500000000000082
  endloop
endfacet
facet normal -1.0 1.141075951668346e-17 9.806496458319595e-17
  outer loop
    vertex -16.000000000000004 -4.750000000000017 -4.7631397208144906
    vertex -16.000000000000004 -17.499999999999996 -15.500000000000082
    vertex -16.000000000000004 -5.680218334973735 -4.087296540125745
  endloop
endfacet
facet normal -1.0 1.141075951668346e-17 9.806496458319595e-17
  outer loop
    vertex -16.000000000000004 -5.680218334973735 -4.087296540125745
    vertex -16.000000000000004 -17.499999999999996 -15.500000000000082
    vertex -16.000000000000004 -6.449593469062224 -3.2328188876086794
  endloop
endfacet
facet normal -1.0 1.141075951668346e-17 9.806496458319595e-17
  outer loop
    vertex -16.000000000000004 -6.449593469062224 -3.2328188876086794
    vertex -16.000000000000004 -17.499999999999996 -15.500000000000082
    vertex -16.000000000000004 -7.024500017034317 -2.2370515369169786
  endloop
endfacet
facet normal -1.0 1.141075951668346e-17 9.806496458319595e-17
  outer loop
    vertex -16.000000000000004 -7.024500017034317 -2.2370515369169786
    vertex -16.000000000000004 -17.499999999999996 -15.500000000000082
    vertex -16.000000000000004 -7.379811804035942 -1.143514299497754
  endloop
endfacet
facet normal -1.0 1.141075951668346e-17 9.806496458319595e-17
  outer loop
    vertex -16.000000000000004 -7.379811804035942 -1.143514299497754
    vertex -16.000000000000004 -17.499999999999996 -15.500000000000082
    vertex -16.000000000000004 -7.500000000000011 -7.866298160018263e-14
  endloop
endfacet
facet normal -1.0 1.141075951668346e-17 9.806496458319595e-17
  outer loop
    vertex -16.000000000000004 17.49999999999999 -15.500000000000082
    vertex -16.000000000000004 -4.750000000000017 -4.7631397208144906
    vertex -16.000000000000004 -3.699593469062227 -5.230810839623424
  endloop
endfacet
facet normal -1.0 1.141075951668346e-17 9.806496458319595e-17
  outer loop
    vertex -16.000000000000004 17.49999999999999 -15.500000000000082
    vertex -16.000000000000004 -3.699593469062227 -5.230810839623424
    vertex -16.000000000000004 -2.574906547972109 -5.469870424525585
  endloop
endfacet
facet normal -1.0 1.141075951668346e-17 9.806496458319595e-17
  outer loop
    vertex -16.000000000000004 17.49999999999999 -15.500000000000082
    vertex -16.000000000000004 -2.574906547972109 -5.469870424525585
    vertex -16.000000000000004 -2.00000000000001 -5.469870424525586
  endloop
endfacet
facet normal -1.0 1.141075951668346e-17 9.806496458319595e-17
  outer loop
    vertex -16.000000000000004 17.49999999999999 -15.500000000000082
    vertex -16.000000000000004 -2.00000000000001 -5.469870424525586
    vertex -16.000000000000004 -1.425093452027919 -5.469870424525586
  endloop
endfacet
facet normal -1.0 1.141075951668346e-17 9.806496458319595e-17
  outer loop
    vertex -16.000000000000004 17.49999999999999 -15.500000000000082
    vertex -16.000000000000004 -1.425093452027919 -5.469870424525586
    vertex -16.000000000000004 -0.3004065309378006 -5.230810839623427
  endloop
endfacet
facet normal -1.0 1.141075951668346e-17 9.806496458319595e-17
  outer loop
    vertex -16.000000000000004 17.49999999999999 -15.500000000000082
    vertex -16.000000000000004 -0.3004065309378006 -5.230810839623427
    vertex -16.000000000000004 0.7499999999999901 -4.763139720814494
  endloop
endfacet
facet normal -1.0 1.141075951668346e-17 9.806496458319595e-17
  outer loop
    vertex -16.000000000000004 17.49999999999999 -15.500000000000082
    vertex -16.000000000000004 0.7499999999999901 -4.763139720814494
    vertex -16.000000000000004 1.680218334973711 -4.087296540125749
  endloop
endfacet
facet normal -1.0 1.141075951668346e-17 9.806496458319595e-17
  outer loop
    vertex -16.000000000000004 17.49999999999999 -15.500000000000082
    vertex -16.000000000000004 1.680218334973711 -4.087296540125749
    vertex -16.000000000000004 2.4495934690622025 -3.2328188876086807
  endloop
endfacet
facet normal -1.0 1.141075951668346e-17 9.806496458319595e-17
  outer loop
    vertex -16.000000000000004 17.49999999999999 -15.500000000000082
    vertex -16.000000000000004 2.4495934690622025 -3.2328188876086807
    vertex -16.000000000000004 3.0245000170342964 -2.237051536916978
  endloop
endfacet
facet normal -1.0 1.141075951668346e-17 9.806496458319595e-17
  outer loop
    vertex -16.000000000000004 17.49999999999999 -15.500000000000082
    vertex -16.000000000000004 3.0245000170342964 -2.237051536916978
    vertex -16.000000000000004 3.379811804035922 -1.1435142994977514
  endloop
endfacet
facet normal -1.0 1.141075951668346e-17 9.806496458319595e-17
  outer loop
    vertex -16.000000000000004 17.49999999999999 -15.500000000000082
    vertex -16.000000000000004 3.379811804035922 -1.1435142994977514
    vertex -16.000000000000004 3.4999999999999893 -8.177902799388902e-14
  endloop
endfacet
facet normal 2.2825241635198565e-18 -0.9914448613738105 0.13052619222005166
  outer loop
    vertex -14.499999999999998 -18.948888739433603 15.888228567653773
    vertex -38.5 -19.0 15.499999999999995
    vertex -14.499999999999998 -19.0 15.499999999999991
  endloop
endfacet
facet normal 2.2825241635198565e-18 -0.9914448613738105 0.13052619222005166
  outer loop
    vertex -38.5 -19.0 15.499999999999995
    vertex -14.499999999999998 -18.948888739433603 15.888228567653773
    vertex -38.5 -18.948888739433603 15.888228567653776
  endloop
endfacet
facet normal 0.0 -0.9914448613738064 -0.13052619222008244
  outer loop
    vertex -14.500000000000007 -19.0 -15.500000000000082
    vertex -38.50000000000001 -18.948888739433603 -15.888228567653767
    vertex -14.500000000000007 -18.948888739433603 -15.88822856765377
  endloop
endfacet
facet normal 0.0 -0.9914448613738064 -0.13052619222008244
  outer loop
    vertex -38.50000000000001 -18.948888739433603 -15.888228567653767
    vertex -14.500000000000007 -19.0 -15.500000000000082
    vertex -38.50000000000001 -19.0 -15.500000000000078
  endloop
endfacet
facet normal 0.0 -0.13052619221984543 -0.9914448613738376
  outer loop
    vertex -14.500000000000007 -17.499999999999996 -17.0
    vertex -38.50000000000001 -17.88822856765378 -16.94888873943368
    vertex -38.50000000000001 -17.499999999999996 -16.999999999999996
  endloop
endfacet
facet normal 0.0 -0.13052619221984543 -0.9914448613738376
  outer loop
    vertex -38.50000000000001 -17.88822856765378 -16.94888873943368
    vertex -14.500000000000007 -17.499999999999996 -17.0
    vertex -14.500000000000007 -17.88822856765378 -16.948888739433684
  endloop
endfacet
facet normal 0.0 0.0 -1.0
  outer loop
    vertex -15.000000000000007 17.49999999999999 -15.500000000000082
    vertex -16.000000000000004 -17.499999999999996 -15.500000000000082
    vertex -16.000000000000004 17.49999999999999 -15.500000000000082
  endloop
endfacet
facet normal 0.0 0.0 -1.0
  outer loop
    vertex -16.000000000000004 -17.499999999999996 -15.500000000000082
    vertex -15.000000000000007 17.49999999999999 -15.500000000000082
    vertex -15.000000000000007 -17.499999999999996 -15.500000000000082
  endloop
endfacet
facet normal 0.0 -0.6087614290086336 -0.7933533402913021
  outer loop
    vertex -14.500000000000007 -18.25 -16.799038105676665
    vertex -38.50000000000001 -18.56066017177982 -16.56066017177988
    vertex -38.50000000000001 -18.25 -16.79903810567666
  endloop
endfacet
facet normal 0.0 -0.6087614290086336 -0.7933533402913021
  outer loop
    vertex -38.50000000000001 -18.56066017177982 -16.56066017177988
    vertex -14.500000000000007 -18.25 -16.799038105676665
    vertex -14.500000000000007 -18.56066017177982 -16.560660171779883
  endloop
endfacet
facet normal 0.0 -0.7933533402912698 -0.6087614290086755
  outer loop
    vertex -14.500000000000007 -18.799038105676658 -16.250000000000025
    vertex -38.50000000000001 -18.56066017177982 -16.56066017177988
    vertex -14.500000000000007 -18.56066017177982 -16.560660171779883
  endloop
endfacet
facet normal 0.0 -0.7933533402912698 -0.6087614290086755
  outer loop
    vertex -38.50000000000001 -18.56066017177982 -16.56066017177988
    vertex -14.500000000000007 -18.799038105676658 -16.250000000000025
    vertex -38.50000000000001 -18.799038105676658 -16.25000000000002
  endloop
endfacet
facet normal 0.0 -0.382683432365253 -0.9238795325112192
  outer loop
    vertex -14.500000000000007 -17.88822856765378 -16.948888739433684
    vertex -38.50000000000001 -18.25 -16.79903810567666
    vertex -38.50000000000001 -17.88822856765378 -16.94888873943368
  endloop
endfacet
facet normal 0.0 -0.382683432365253 -0.9238795325112192
  outer loop
    vertex -38.50000000000001 -18.25 -16.79903810567666
    vertex -14.500000000000007 -17.88822856765378 -16.948888739433684
    vertex -14.500000000000007 -18.25 -16.799038105676665
  endloop
endfacet
facet normal 0.0 -0.9238795325113007 -0.3826834323650565
  outer loop
    vertex -14.500000000000007 -18.948888739433603 -15.88822856765377
    vertex -38.50000000000001 -18.799038105676658 -16.25000000000002
    vertex -14.500000000000007 -18.799038105676658 -16.250000000000025
  endloop
endfacet
facet normal 0.0 -0.9238795325113007 -0.3826834323650565
  outer loop
    vertex -38.50000000000001 -18.799038105676658 -16.25000000000002
    vertex -14.500000000000007 -18.948888739433603 -15.88822856765377
    vertex -38.50000000000001 -18.948888739433603 -15.888228567653767
  endloop
endfacet
facet normal -1.765323751272006e-16 2.6108476291728065e-17 -1.0
  outer loop
    vertex -14.500000000000007 17.49999999999999 -17.0
    vertex -38.5 15.24999999999999 -16.999999999999993
    vertex -38.50000000000001 17.49999999999999 -16.999999999999996
  endloop
endfacet
facet normal -1.765323751272006e-16 2.6108476291728065e-17 -1.0
  outer loop
    vertex -38.5 15.24999999999999 -16.999999999999993
    vertex -14.500000000000007 17.49999999999999 -17.0
    vertex -30.0 15.24999999999999 -16.999999999999993
  endloop
endfacet
facet normal -1.765323751272006e-16 2.6108476291728065e-17 -1.0
  outer loop
    vertex -30.0 15.24999999999999 -16.999999999999993
    vertex -14.500000000000007 17.49999999999999 -17.0
    vertex -29.304711762656368 15.139877161664083 -16.999999999999993
  endloop
endfacet
facet normal -1.765323751272006e-16 2.6108476291728065e-17 -1.0
  outer loop
    vertex -29.304711762656368 15.139877161664083 -16.999999999999993
    vertex -14.500000000000007 17.49999999999999 -17.0
    vertex -28.67748318234194 14.820288237343622 -16.999999999999993
  endloop
endfacet
facet normal -1.765323751272006e-16 2.6108476291728065e-17 -1.0
  outer loop
    vertex -28.67748318234194 14.820288237343622 -16.999999999999993
    vertex -14.500000000000007 17.49999999999999 -17.0
    vertex -28.17971176265637 14.322516817658055 -16.999999999999993
  endloop
endfacet
facet normal -1.765323751272006e-16 2.6108476291728065e-17 -1.0
  outer loop
    vertex -28.17971176265637 14.322516817658055 -16.999999999999993
    vertex -14.500000000000007 17.49999999999999 -17.0
    vertex -27.860122838335904 13.69528823734362 -16.999999999999993
  endloop
endfacet
facet normal -1.765323751272006e-16 2.6108476291728065e-17 -1.0
  outer loop
    vertex -27.860122838335904 13.69528823734362 -16.999999999999993
    vertex -14.500000000000007 17.49999999999999 -17.0
    vertex -27.750000000000007 12.999999999999991 -16.999999999999993
  endloop
endfacet
facet normal -1.765323751272006e-16 2.6108476291728065e-17 -1.0
  outer loop
    vertex -38.5 10.749999999999991 -16.999999999999993
    vertex -14.500000000000007 -17.499999999999996 -17.0
    vertex -38.50000000000001 -17.499999999999996 -16.999999999999996
  endloop
endfacet
facet normal -1.765323751272006e-16 2.6108476291728065e-17 -1.0
  outer loop
    vertex -14.500000000000007 -17.499999999999996 -17.0
    vertex -38.5 10.749999999999991 -16.999999999999993
    vertex -30.0 10.749999999999991 -16.999999999999993
  endloop
endfacet
facet normal -1.765323751272006e-16 2.6108476291728065e-17 -1.0
  outer loop
    vertex -14.500000000000007 -17.499999999999996 -17.0
    vertex -30.0 10.749999999999991 -16.999999999999993
    vertex -29.304711762656368 10.860122838335897 -16.999999999999993
  endloop
endfacet
facet normal -1.765323751272006e-16 2.6108476291728065e-17 -1.0
  outer loop
    vertex -14.500000000000007 -17.499999999999996 -17.0
    vertex -29.304711762656368 10.860122838335897 -16.999999999999993
    vertex -28.67748318234194 11.179711762656359 -16.999999999999993
  endloop
endfacet
facet normal -1.765323751272006e-16 2.6108476291728065e-17 -1.0
  outer loop
    vertex -14.500000000000007 -17.499999999999996 -17.0
    vertex -28.67748318234194 11.179711762656359 -16.999999999999993
    vertex -28.17971176265637 11.677483182341927 -16.999999999999993
  endloop
endfacet
facet normal -1.765323751272006e-16 2.6108476291728065e-17 -1.0
  outer loop
    vertex -14.500000000000007 -17.499999999999996 -17.0
    vertex -28.17971176265637 11.677483182341927 -16.999999999999993
    vertex -27.860122838335904 12.304711762656359 -16.999999999999993
  endloop
endfacet
facet normal -1.765323751272006e-16 2.6108476291728065e-17 -1.0
  outer loop
    vertex -14.500000000000007 -17.499999999999996 -17.0
    vertex -27.860122838335904 12.304711762656359 -16.999999999999993
    vertex -27.750000000000007 12.999999999999991 -16.999999999999993
  endloop
endfacet
facet normal -1.765323751272006e-16 2.6108476291728065e-17 -1.0
  outer loop
    vertex -14.500000000000007 -17.499999999999996 -17.0
    vertex -27.750000000000007 12.999999999999991 -16.999999999999993
    vertex -14.500000000000007 17.49999999999999 -17.0
  endloop
endfacet
facet normal 1.1222878374788927e-31 1.0 3.6386664290940525e-16
  outer loop
    vertex -38.50000000000001 19.00000000000001 -15.500000000000078
    vertex -14.499999999999998 19.0 15.499999999999991
    vertex -14.500000000000007 19.00000000000001 -15.500000000000082
  endloop
endfacet
facet normal 1.1222878374788927e-31 1.0 3.6386664290940525e-16
  outer loop
    vertex -14.499999999999998 19.0 15.499999999999991
    vertex -38.50000000000001 19.00000000000001 -15.500000000000078
    vertex -38.5 19.0 15.499999999999995
  endloop
endfacet
facet normal -9.68199861885633e-30 0.6087614290087241 0.7933533402912325
  outer loop
    vertex -14.499999999999998 18.25 16.79903810567665
    vertex -38.5 18.56066017177982 16.560660171779816
    vertex -38.5 18.25 16.799038105676654
  endloop
endfacet
facet normal -9.68199861885633e-30 0.6087614290087241 0.7933533402912325
  outer loop
    vertex -38.5 18.56066017177982 16.560660171779816
    vertex -14.499999999999998 18.25 16.79903810567665
    vertex -14.499999999999998 18.56066017177982 16.560660171779812
  endloop
endfacet
facet normal -0.0 0.9238795325112905 0.3826834323650809
  outer loop
    vertex -38.5 18.9488887394336 15.888228567653776
    vertex -14.499999999999998 18.799038105676658 16.249999999999993
    vertex -14.499999999999998 18.9488887394336 15.888228567653773
  endloop
endfacet
facet normal -0.0 0.9238795325112905 0.3826834323650809
  outer loop
    vertex -14.499999999999998 18.799038105676658 16.249999999999993
    vertex -38.5 18.9488887394336 15.888228567653776
    vertex -38.5 18.799038105676658 16.249999999999996
  endloop
endfacet
facet normal 2.2825241635120958e-18 0.9914448613738096 0.13052619222005876
  outer loop
    vertex -38.5 19.0 15.499999999999995
    vertex -14.499999999999998 18.9488887394336 15.888228567653773
    vertex -14.499999999999998 19.0 15.499999999999991
  endloop
endfacet
facet normal 2.2825241635120958e-18 0.9914448613738096 0.13052619222005876
  outer loop
    vertex -14.499999999999998 18.9488887394336 15.888228567653773
    vertex -38.5 19.0 15.499999999999995
    vertex -38.5 18.9488887394336 15.888228567653776
  endloop
endfacet
facet normal -0.0 0.7933533402912325 0.6087614290087241
  outer loop
    vertex -38.5 18.799038105676658 16.249999999999996
    vertex -14.499999999999998 18.56066017177982 16.560660171779812
    vertex -14.499999999999998 18.799038105676658 16.249999999999993
  endloop
endfacet
facet normal -0.0 0.7933533402912325 0.6087614290087241
  outer loop
    vertex -14.499999999999998 18.56066017177982 16.560660171779812
    vertex -38.5 18.799038105676658 16.249999999999996
    vertex -38.5 18.56066017177982 16.560660171779816
  endloop
endfacet
facet normal 7.884178695522998e-30 0.1305261922200507 0.9914448613738105
  outer loop
    vertex -14.499999999999998 17.499999999999996 16.999999999999993
    vertex -38.5 17.88822856765378 16.948888739433595
    vertex -38.5 17.499999999999996 16.999999999999993
  endloop
endfacet
facet normal 7.884178695522998e-30 0.1305261922200507 0.9914448613738105
  outer loop
    vertex -38.5 17.88822856765378 16.948888739433595
    vertex -14.499999999999998 17.499999999999996 16.999999999999993
    vertex -14.499999999999998 17.88822856765378 16.948888739433595
  endloop
endfacet
facet normal -7.346884946644453e-30 0.38268343236508706 0.9238795325112881
  outer loop
    vertex -14.499999999999998 17.88822856765378 16.948888739433595
    vertex -38.5 18.25 16.799038105676654
    vertex -38.5 17.88822856765378 16.948888739433595
  endloop
endfacet
facet normal -7.346884946644453e-30 0.38268343236508706 0.9238795325112881
  outer loop
    vertex -38.5 18.25 16.799038105676654
    vertex -14.499999999999998 17.88822856765378 16.948888739433595
    vertex -14.499999999999998 18.25 16.79903810567665
  endloop
endfacet
facet normal -0.0 -0.0 1.0
  outer loop
    vertex -14.499999999999998 -17.5 16.999999999999993
    vertex -38.5 17.499999999999996 16.999999999999993
    vertex -38.5 -17.5 16.999999999999993
  endloop
endfacet
facet normal -0.0 -0.0 1.0
  outer loop
    vertex -38.5 17.499999999999996 16.999999999999993
    vertex -14.499999999999998 -17.5 16.999999999999993
    vertex -14.499999999999998 17.499999999999996 16.999999999999993
  endloop
endfacet
facet normal 1.0 -5.855366274659503e-18 -2.618153211187184e-16
  outer loop
    vertex -14.500000000000007 -17.499999999999996 -17.0
    vertex -14.500000000000007 -7.379811804035942 -1.143514299497754
    vertex -14.500000000000007 -7.500000000000011 -7.866298160018263e-14
  endloop
endfacet
facet normal 1.0 -5.855366274659503e-18 -2.618153211187184e-16
  outer loop
    vertex -14.500000000000007 -7.379811804035942 -1.143514299497754
    vertex -14.500000000000007 -17.499999999999996 -17.0
    vertex -14.500000000000007 -7.024500017034317 -2.2370515369169786
  endloop
endfacet
facet normal 1.0 -5.855366274659503e-18 -2.618153211187184e-16
  outer loop
    vertex -14.500000000000007 -7.024500017034317 -2.2370515369169786
    vertex -14.500000000000007 -17.499999999999996 -17.0
    vertex -14.500000000000007 -6.449593469062224 -3.2328188876086794
  endloop
endfacet
facet normal 1.0 -5.855366274659503e-18 -2.618153211187184e-16
  outer loop
    vertex -14.500000000000007 -6.449593469062224 -3.2328188876086794
    vertex -14.500000000000007 -17.499999999999996 -17.0
    vertex -14.500000000000007 -5.680218334973735 -4.087296540125745
  endloop
endfacet
facet normal 1.0 -5.855366274659503e-18 -2.618153211187184e-16
  outer loop
    vertex -14.500000000000007 -5.680218334973735 -4.087296540125745
    vertex -14.500000000000007 -17.499999999999996 -17.0
    vertex -14.500000000000007 -4.750000000000017 -4.7631397208144906
  endloop
endfacet
facet normal 1.0 -5.855366274659503e-18 -2.618153211187184e-16
  outer loop
    vertex -14.500000000000007 -4.750000000000017 -4.7631397208144906
    vertex -14.500000000000007 -17.499999999999996 -17.0
    vertex -14.500000000000007 17.49999999999999 -17.0
  endloop
endfacet
facet normal 1.0 -5.855366274659503e-18 -2.618153211187184e-16
  outer loop
    vertex -14.500000000000007 -4.750000000000017 -4.7631397208144906
    vertex -14.500000000000007 17.49999999999999 -17.0
    vertex -14.500000000000007 -3.699593469062227 -5.230810839623424
  endloop
endfacet
facet normal 1.0 -5.855366274659503e-18 -2.618153211187184e-16
  outer loop
    vertex -14.500000000000007 -3.699593469062227 -5.230810839623424
    vertex -14.500000000000007 17.49999999999999 -17.0
    vertex -14.500000000000007 -2.574906547972109 -5.469870424525585
  endloop
endfacet
facet normal 1.0 -5.855366274659503e-18 -2.618153211187184e-16
  outer loop
    vertex -14.500000000000007 -2.574906547972109 -5.469870424525585
    vertex -14.500000000000007 17.49999999999999 -17.0
    vertex -14.500000000000007 -2.00000000000001 -5.469870424525586
  endloop
endfacet
facet normal 1.0 -5.855366274659503e-18 -2.618153211187184e-16
  outer loop
    vertex -14.500000000000007 -2.00000000000001 -5.469870424525586
    vertex -14.500000000000007 17.49999999999999 -17.0
    vertex -14.500000000000007 -1.425093452027919 -5.469870424525586
  endloop
endfacet
facet normal 1.0 -5.855366274659503e-18 -2.618153211187184e-16
  outer loop
    vertex -14.500000000000007 -1.425093452027919 -5.469870424525586
    vertex -14.500000000000007 17.49999999999999 -17.0
    vertex -14.500000000000007 -0.3004065309378006 -5.230810839623427
  endloop
endfacet
facet normal 1.0 -5.855366274659503e-18 -2.618153211187184e-16
  outer loop
    vertex -14.500000000000007 -0.3004065309378006 -5.230810839623427
    vertex -14.500000000000007 17.49999999999999 -17.0
    vertex -14.500000000000007 0.7499999999999901 -4.763139720814494
  endloop
endfacet
facet normal 1.0 -5.855366274659503e-18 -2.618153211187184e-16
  outer loop
    vertex -14.500000000000007 0.7499999999999901 -4.763139720814494
    vertex -14.500000000000007 17.49999999999999 -17.0
    vertex -14.500000000000007 1.680218334973711 -4.087296540125749
  endloop
endfacet
facet normal 1.0 -5.855366274659503e-18 -2.618153211187184e-16
  outer loop
    vertex -14.500000000000007 1.680218334973711 -4.087296540125749
    vertex -14.500000000000007 17.49999999999999 -17.0
    vertex -14.500000000000007 2.4495934690622025 -3.2328188876086807
  endloop
endfacet
facet normal 1.0 -5.855366274659503e-18 -2.618153211187184e-16
  outer loop
    vertex -14.500000000000007 2.4495934690622025 -3.2328188876086807
    vertex -14.500000000000007 17.49999999999999 -17.0
    vertex -14.500000000000007 3.0245000170342964 -2.237051536916978
  endloop
endfacet
facet normal 1.0 -5.855366274659503e-18 -2.618153211187184e-16
  outer loop
    vertex -14.500000000000007 3.0245000170342964 -2.237051536916978
    vertex -14.500000000000007 17.49999999999999 -17.0
    vertex -14.500000000000007 3.379811804035922 -1.1435142994977514
  endloop
endfacet
facet normal 1.0 -5.855366274659503e-18 -2.618153211187184e-16
  outer loop
    vertex -14.500000000000007 3.379811804035922 -1.1435142994977514
    vertex -14.500000000000007 17.49999999999999 -17.0
    vertex -14.500000000000007 3.4999999999999893 -8.177902799388902e-14
  endloop
endfacet
facet normal 1.0 -5.855366274659503e-18 -2.618153211187184e-16
  outer loop
    vertex -14.500000000000007 -18.948888739433603 -15.88822856765377
    vertex -14.499999999999998 -19.0 15.499999999999991
    vertex -14.500000000000007 -19.0 -15.500000000000082
  endloop
endfacet
facet normal 1.0 -5.855366274659503e-18 -2.618153211187184e-16
  outer loop
    vertex -14.499999999999998 -19.0 15.499999999999991
    vertex -14.500000000000007 -18.948888739433603 -15.88822856765377
    vertex -14.499999999999998 -18.948888739433603 15.888228567653773
  endloop
endfacet
facet normal 1.0 -5.855366274659503e-18 -2.618153211187184e-16
  outer loop
    vertex -14.499999999999998 -18.948888739433603 15.888228567653773
    vertex -14.500000000000007 -18.948888739433603 -15.88822856765377
    vertex -14.500000000000007 -18.799038105676658 -16.250000000000025
  endloop
endfacet
facet normal 1.0 -5.855366274659503e-18 -2.618153211187184e-16
  outer loop
    vertex -14.499999999999998 -18.948888739433603 15.888228567653773
    vertex -14.500000000000007 -18.799038105676658 -16.250000000000025
    vertex -14.499999999999998 -18.799038105676658 16.249999999999993
  endloop
endfacet
facet normal 1.0 -5.855366274659503e-18 -2.618153211187184e-16
  outer loop
    vertex -14.499999999999998 -18.799038105676658 16.249999999999993
    vertex -14.500000000000007 -18.799038105676658 -16.250000000000025
    vertex -14.500000000000007 -18.56066017177982 -16.560660171779883
  endloop
endfacet
facet normal 1.0 -5.855366274659503e-18 -2.618153211187184e-16
  outer loop
    vertex -14.499999999999998 -18.799038105676658 16.249999999999993
    vertex -14.500000000000007 -18.56066017177982 -16.560660171779883
    vertex -14.499999999999998 -18.56066017177982 16.560660171779812
  endloop
endfacet
facet normal 1.0 -5.855366274659503e-18 -2.618153211187184e-16
  outer loop
    vertex -14.499999999999998 -18.56066017177982 16.560660171779812
    vertex -14.500000000000007 -18.56066017177982 -16.560660171779883
    vertex -14.500000000000007 -18.25 -16.799038105676665
  endloop
endfacet
facet normal 1.0 -5.855366274659503e-18 -2.618153211187184e-16
  outer loop
    vertex -14.499999999999998 -18.56066017177982 16.560660171779812
    vertex -14.500000000000007 -18.25 -16.799038105676665
    vertex -14.499999999999998 -18.249999999999996 16.79903810567665
  endloop
endfacet
facet normal 1.0 -5.855366274659503e-18 -2.618153211187184e-16
  outer loop
    vertex -14.499999999999998 -18.249999999999996 16.79903810567665
    vertex -14.500000000000007 -18.25 -16.799038105676665
    vertex -14.500000000000007 -17.88822856765378 -16.948888739433684
  endloop
endfacet
facet normal 1.0 -5.855366274659503e-18 -2.618153211187184e-16
  outer loop
    vertex -14.499999999999998 -18.249999999999996 16.79903810567665
    vertex -14.500000000000007 -17.88822856765378 -16.948888739433684
    vertex -14.499999999999998 -17.88822856765378 16.948888739433595
  endloop
endfacet
facet normal 1.0 -5.855366274659503e-18 -2.618153211187184e-16
  outer loop
    vertex -14.499999999999998 -17.88822856765378 16.948888739433595
    vertex -14.500000000000007 -17.88822856765378 -16.948888739433684
    vertex -14.500000000000007 -17.499999999999996 -17.0
  endloop
endfacet
facet normal 1.0 -5.855366274659503e-18 -2.618153211187184e-16
  outer loop
    vertex -14.499999999999998 -17.88822856765378 16.948888739433595
    vertex -14.500000000000007 -17.499999999999996 -17.0
    vertex -14.499999999999998 -17.5 16.999999999999993
  endloop
endfacet
facet normal 1.0 -5.855366274659503e-18 -2.618153211187184e-16
  outer loop
    vertex -14.499999999999998 -17.5 16.999999999999993
    vertex -14.500000000000007 -17.499999999999996 -17.0
    vertex -14.500000000000007 -7.024500017034315 2.2370515369168205
  endloop
endfacet
facet normal 1.0 -5.855366274659503e-18 -2.618153211187184e-16
  outer loop
    vertex -14.499999999999998 -17.5 16.999999999999993
    vertex -14.500000000000007 -7.024500017034315 2.2370515369168205
    vertex -14.500000000000007 -6.449593469062221 3.2328188876085213
  endloop
endfacet
facet normal 1.0 -5.855366274659503e-18 -2.618153211187184e-16
  outer loop
    vertex -14.499999999999998 -17.5 16.999999999999993
    vertex -14.500000000000007 -6.449593469062221 3.2328188876085213
    vertex -14.500000000000007 -5.6802183349737305 4.087296540125586
  endloop
endfacet
facet normal 1.0 -5.855366274659503e-18 -2.618153211187184e-16
  outer loop
    vertex -14.499999999999998 -17.5 16.999999999999993
    vertex -14.500000000000007 -5.6802183349737305 4.087296540125586
    vertex -14.500000000000007 -4.750000000000011 4.76313972081433
  endloop
endfacet
facet normal 1.0 -5.855366274659503e-18 -2.618153211187184e-16
  outer loop
    vertex -14.499999999999998 -17.5 16.999999999999993
    vertex -14.500000000000007 -4.750000000000011 4.76313972081433
    vertex -14.499999999999998 17.499999999999996 16.999999999999993
  endloop
endfacet
facet normal 1.0 -5.855366274659503e-18 -2.618153211187184e-16
  outer loop
    vertex -14.500000000000007 -7.024500017034315 2.2370515369168205
    vertex -14.500000000000007 -17.499999999999996 -17.0
    vertex -14.500000000000007 -7.37981180403594 1.1435142994975969
  endloop
endfacet
facet normal 1.0 -5.855366274659503e-18 -2.618153211187184e-16
  outer loop
    vertex -14.500000000000007 -7.37981180403594 1.1435142994975969
    vertex -14.500000000000007 -17.499999999999996 -17.0
    vertex -14.500000000000007 -7.500000000000011 -7.866298160018263e-14
  endloop
endfacet
facet normal 1.0 -5.855366274659503e-18 -2.618153211187184e-16
  outer loop
    vertex -14.499999999999998 17.499999999999996 16.999999999999993
    vertex -14.500000000000007 -4.750000000000011 4.76313972081433
    vertex -14.500000000000007 -3.699593469062222 5.230810839623262
  endloop
endfacet
facet normal 1.0 -5.855366274659503e-18 -2.618153211187184e-16
  outer loop
    vertex -14.499999999999998 17.499999999999996 16.999999999999993
    vertex -14.500000000000007 -3.699593469062222 5.230810839623262
    vertex -14.500000000000007 -2.574906547972105 5.469870424525421
  endloop
endfacet
facet normal 1.0 -5.855366274659503e-18 -2.618153211187184e-16
  outer loop
    vertex -14.499999999999998 17.499999999999996 16.999999999999993
    vertex -14.500000000000007 -2.574906547972105 5.469870424525421
    vertex -14.500000000000007 -1.4250934520279164 5.469870424525421
  endloop
endfacet
facet normal 1.0 -5.855366274659503e-18 -2.618153211187184e-16
  outer loop
    vertex -14.499999999999998 17.499999999999996 16.999999999999993
    vertex -14.500000000000007 -1.4250934520279164 5.469870424525421
    vertex -14.500000000000007 -0.30040653093779957 5.230810839623262
  endloop
endfacet
facet normal 1.0 -5.855366274659503e-18 -2.618153211187184e-16
  outer loop
    vertex -14.499999999999998 17.499999999999996 16.999999999999993
    vertex -14.500000000000007 -0.30040653093779957 5.230810839623262
    vertex -14.500000000000007 0.7499999999999901 4.76313972081433
  endloop
endfacet
facet normal 1.0 -5.855366274659503e-18 -2.618153211187184e-16
  outer loop
    vertex -14.499999999999998 17.499999999999996 16.999999999999993
    vertex -14.500000000000007 0.7499999999999901 4.76313972081433
    vertex -14.500000000000007 1.6802183349737096 4.087296540125585
  endloop
endfacet
facet normal 1.0 -5.855366274659503e-18 -2.618153211187184e-16
  outer loop
    vertex -14.499999999999998 17.499999999999996 16.999999999999993
    vertex -14.500000000000007 1.6802183349737096 4.087296540125585
    vertex -14.500000000000007 2.4495934690622003 3.2328188876085204
  endloop
endfacet
facet normal 1.0 -5.855366274659503e-18 -2.618153211187184e-16
  outer loop
    vertex -14.499999999999998 17.499999999999996 16.999999999999993
    vertex -14.500000000000007 2.4495934690622003 3.2328188876085204
    vertex -14.500000000000007 3.0245000170342946 2.237051536916819
  endloop
endfacet
facet normal 1.0 -5.855366274659503e-18 -2.618153211187184e-16
  outer loop
    vertex -14.499999999999998 17.499999999999996 16.999999999999993
    vertex -14.500000000000007 3.0245000170342946 2.237051536916819
    vertex -14.500000000000007 3.3798118040359206 1.1435142994975944
  endloop
endfacet
facet normal 1.0 -5.855366274659503e-18 -2.618153211187184e-16
  outer loop
    vertex -14.499999999999998 17.499999999999996 16.999999999999993
    vertex -14.500000000000007 3.3798118040359206 1.1435142994975944
    vertex -14.500000000000007 3.4999999999999893 -8.177902799388902e-14
  endloop
endfacet
facet normal 1.0 -5.855366274659503e-18 -2.618153211187184e-16
  outer loop
    vertex -14.499999999999998 17.499999999999996 16.999999999999993
    vertex -14.500000000000007 3.4999999999999893 -8.177902799388902e-14
    vertex -14.500000000000007 17.49999999999999 -17.0
  endloop
endfacet
facet normal 1.0 -5.855366274659503e-18 -2.618153211187184e-16
  outer loop
    vertex -14.499999999999998 17.499999999999996 16.999999999999993
    vertex -14.500000000000007 17.49999999999999 -17.0
    vertex -14.500000000000007 17.88822856765379 -16.948888739433684
  endloop
endfacet
facet normal 1.0 -5.855366274659503e-18 -2.618153211187184e-16
  outer loop
    vertex -14.499999999999998 17.499999999999996 16.999999999999993
    vertex -14.500000000000007 17.88822856765379 -16.948888739433684
    vertex -14.499999999999998 17.88822856765378 16.948888739433595
  endloop
endfacet
facet normal 1.0 -5.855366274659503e-18 -2.618153211187184e-16
  outer loop
    vertex -14.499999999999998 17.88822856765378 16.948888739433595
    vertex -14.500000000000007 17.88822856765379 -16.948888739433684
    vertex -14.499999999999998 18.25 16.79903810567665
  endloop
endfacet
facet normal 1.0 -5.855366274659503e-18 -2.618153211187184e-16
  outer loop
    vertex -14.499999999999998 18.25 16.79903810567665
    vertex -14.500000000000007 17.88822856765379 -16.948888739433684
    vertex -14.500000000000007 18.25000000000002 -16.799038105676665
  endloop
endfacet
facet normal 1.0 -5.855366274659503e-18 -2.618153211187184e-16
  outer loop
    vertex -14.499999999999998 18.25 16.79903810567665
    vertex -14.500000000000007 18.25000000000002 -16.799038105676665
    vertex -14.499999999999998 18.56066017177982 16.560660171779812
  endloop
endfacet
facet normal 1.0 -5.855366274659503e-18 -2.618153211187184e-16
  outer loop
    vertex -14.499999999999998 18.56066017177982 16.560660171779812
    vertex -14.500000000000007 18.25000000000002 -16.799038105676665
    vertex -14.500000000000007 18.560660171779837 -16.560660171779883
  endloop
endfacet
facet normal 1.0 -5.855366274659503e-18 -2.618153211187184e-16
  outer loop
    vertex -14.499999999999998 18.56066017177982 16.560660171779812
    vertex -14.500000000000007 18.560660171779837 -16.560660171779883
    vertex -14.499999999999998 18.799038105676658 16.249999999999993
  endloop
endfacet
facet normal 1.0 -5.855366274659503e-18 -2.618153211187184e-16
  outer loop
    vertex -14.499999999999998 18.799038105676658 16.249999999999993
    vertex -14.500000000000007 18.560660171779837 -16.560660171779883
    vertex -14.500000000000007 18.799038105676665 -16.250000000000025
  endloop
endfacet
facet normal 1.0 -5.855366274659503e-18 -2.618153211187184e-16
  outer loop
    vertex -14.499999999999998 18.799038105676658 16.249999999999993
    vertex -14.500000000000007 18.799038105676665 -16.250000000000025
    vertex -14.499999999999998 18.9488887394336 15.888228567653773
  endloop
endfacet
facet normal 1.0 -5.855366274659503e-18 -2.618153211187184e-16
  outer loop
    vertex -14.499999999999998 18.9488887394336 15.888228567653773
    vertex -14.500000000000007 18.799038105676665 -16.250000000000025
    vertex -14.500000000000007 18.948888739433592 -15.88822856765377
  endloop
endfacet
facet normal 1.0 -5.855366274659503e-18 -2.618153211187184e-16
  outer loop
    vertex -14.499999999999998 18.9488887394336 15.888228567653773
    vertex -14.500000000000007 18.948888739433592 -15.88822856765377
    vertex -14.500000000000007 19.00000000000001 -15.500000000000082
  endloop
endfacet
facet normal 1.0 -5.855366274659503e-18 -2.618153211187184e-16
  outer loop
    vertex -14.499999999999998 18.9488887394336 15.888228567653773
    vertex -14.500000000000007 19.00000000000001 -15.500000000000082
    vertex -14.499999999999998 19.0 15.499999999999991
  endloop
endfacet
facet normal -1.0 -2.741199336834927e-18 2.5818482441600603e-16
  outer loop
    vertex -38.5 -18.948888739433603 15.888228567653776
    vertex -38.50000000000001 -19.0 -15.500000000000078
    vertex -38.5 -19.0 15.499999999999995
  endloop
endfacet
facet normal -1.0 -2.741199336834927e-18 2.5818482441600603e-16
  outer loop
    vertex -38.50000000000001 -19.0 -15.500000000000078
    vertex -38.5 -18.948888739433603 15.888228567653776
    vertex -38.50000000000001 -18.948888739433603 -15.888228567653767
  endloop
endfacet
facet normal -1.0 -2.741199336834927e-18 2.5818482441600603e-16
  outer loop
    vertex -38.50000000000001 -18.948888739433603 -15.888228567653767
    vertex -38.5 -18.948888739433603 15.888228567653776
    vertex -38.5 -18.799038105676658 16.249999999999996
  endloop
endfacet
facet normal -1.0 -2.741199336834927e-18 2.5818482441600603e-16
  outer loop
    vertex -38.50000000000001 -18.948888739433603 -15.888228567653767
    vertex -38.5 -18.799038105676658 16.249999999999996
    vertex -38.50000000000001 -18.799038105676658 -16.25000000000002
  endloop
endfacet
facet normal -1.0 -2.741199336834927e-18 2.5818482441600603e-16
  outer loop
    vertex -38.50000000000001 -18.799038105676658 -16.25000000000002
    vertex -38.5 -18.799038105676658 16.249999999999996
    vertex -38.5 -18.56066017177982 16.560660171779816
  endloop
endfacet
facet normal -1.0 -2.741199336834927e-18 2.5818482441600603e-16
  outer loop
    vertex -38.50000000000001 -18.799038105676658 -16.25000000000002
    vertex -38.5 -18.56066017177982 16.560660171779816
    vertex -38.50000000000001 -18.56066017177982 -16.56066017177988
  endloop
endfacet
facet normal -1.0 -2.741199336834927e-18 2.5818482441600603e-16
  outer loop
    vertex -38.50000000000001 -18.56066017177982 -16.56066017177988
    vertex -38.5 -18.56066017177982 16.560660171779816
    vertex -38.5 -18.249999999999996 16.799038105676654
  endloop
endfacet
facet normal -1.0 -2.741199336834927e-18 2.5818482441600603e-16
  outer loop
    vertex -38.50000000000001 -18.56066017177982 -16.56066017177988
    vertex -38.5 -18.249999999999996 16.799038105676654
    vertex -38.5 -18.25 16.249999999999993
  endloop
endfacet
facet normal -1.0 -2.741199336834927e-18 2.5818482441600603e-16
  outer loop
    vertex -38.5 -18.25 16.249999999999993
    vertex -38.5 -18.249999999999996 16.799038105676654
    vertex -38.5 18.24999999999999 16.249999999999993
  endloop
endfacet
facet normal -1.0 -2.741199336834927e-18 2.5818482441600603e-16
  outer loop
    vertex -38.5 18.24999999999999 16.249999999999993
    vertex -38.5 -18.249999999999996 16.799038105676654
    vertex -38.5 -17.88822856765378 16.948888739433595
  endloop
endfacet
facet normal -1.0 -2.741199336834927e-18 2.5818482441600603e-16
  outer loop
    vertex -38.5 18.24999999999999 16.249999999999993
    vertex -38.5 -17.88822856765378 16.948888739433595
    vertex -38.5 -17.5 16.999999999999993
  endloop
endfacet
facet normal -1.0 -2.741199336834927e-18 2.5818482441600603e-16
  outer loop
    vertex -38.5 18.24999999999999 16.249999999999993
    vertex -38.5 -17.5 16.999999999999993
    vertex -38.5 17.499999999999996 16.999999999999993
  endloop
endfacet
facet normal -1.0 -2.741199336834927e-18 2.5818482441600603e-16
  outer loop
    vertex -38.5 18.24999999999999 16.249999999999993
    vertex -38.5 17.499999999999996 16.999999999999993
    vertex -38.5 17.88822856765378 16.948888739433595
  endloop
endfacet
facet normal -1.0 -2.741199336834927e-18 2.5818482441600603e-16
  outer loop
    vertex -38.5 18.24999999999999 16.249999999999993
    vertex -38.5 17.88822856765378 16.948888739433595
    vertex -38.5 18.25 16.799038105676654
  endloop
endfacet
facet normal -1.0 -2.741199336834927e-18 2.5818482441600603e-16
  outer loop
    vertex -38.5 18.24999999999999 16.249999999999993
    vertex -38.5 18.25 16.799038105676654
    vertex -38.5 18.24999999999999 -16.25000000000004
  endloop
endfacet
facet normal -1.0 -2.741199336834927e-18 2.5818482441600603e-16
  outer loop
    vertex -38.5 18.24999999999999 -16.25000000000004
    vertex -38.5 15.24999999999999 -16.999999999999993
    vertex -38.5 15.24999999999999 -16.25000000000004
  endloop
endfacet
facet normal -1.0 -2.741199336834927e-18 2.5818482441600603e-16
  outer loop
    vertex -38.5 15.24999999999999 -16.999999999999993
    vertex -38.5 18.24999999999999 -16.25000000000004
    vertex -38.50000000000001 17.49999999999999 -16.999999999999996
  endloop
endfacet
facet normal -1.0 -2.741199336834927e-18 2.5818482441600603e-16
  outer loop
    vertex -38.50000000000001 17.49999999999999 -16.999999999999996
    vertex -38.5 18.24999999999999 -16.25000000000004
    vertex -38.50000000000001 17.88822856765379 -16.94888873943368
  endloop
endfacet
facet normal -1.0 -2.741199336834927e-18 2.5818482441600603e-16
  outer loop
    vertex -38.50000000000001 17.88822856765379 -16.94888873943368
    vertex -38.5 18.24999999999999 -16.25000000000004
    vertex -38.50000000000001 18.25000000000002 -16.79903810567666
  endloop
endfacet
facet normal -1.0 -2.741199336834927e-18 2.5818482441600603e-16
  outer loop
    vertex -38.50000000000001 18.25000000000002 -16.79903810567666
    vertex -38.5 18.24999999999999 -16.25000000000004
    vertex -38.5 18.25 16.799038105676654
  endloop
endfacet
facet normal -1.0 -2.741199336834927e-18 2.5818482441600603e-16
  outer loop
    vertex -38.50000000000001 18.25000000000002 -16.79903810567666
    vertex -38.5 18.25 16.799038105676654
    vertex -38.5 18.56066017177982 16.560660171779816
  endloop
endfacet
facet normal -1.0 -2.741199336834927e-18 2.5818482441600603e-16
  outer loop
    vertex -38.50000000000001 18.25000000000002 -16.79903810567666
    vertex -38.5 18.56066017177982 16.560660171779816
    vertex -38.50000000000001 18.560660171779837 -16.56066017177988
  endloop
endfacet
facet normal -1.0 -2.741199336834927e-18 2.5818482441600603e-16
  outer loop
    vertex -38.50000000000001 18.560660171779837 -16.56066017177988
    vertex -38.5 18.56066017177982 16.560660171779816
    vertex -38.5 18.799038105676658 16.249999999999996
  endloop
endfacet
facet normal -1.0 -2.741199336834927e-18 2.5818482441600603e-16
  outer loop
    vertex -38.50000000000001 18.560660171779837 -16.56066017177988
    vertex -38.5 18.799038105676658 16.249999999999996
    vertex -38.50000000000001 18.799038105676665 -16.25000000000002
  endloop
endfacet
facet normal -1.0 -2.741199336834927e-18 2.5818482441600603e-16
  outer loop
    vertex -38.50000000000001 18.799038105676665 -16.25000000000002
    vertex -38.5 18.799038105676658 16.249999999999996
    vertex -38.5 18.9488887394336 15.888228567653776
  endloop
endfacet
facet normal -1.0 -2.741199336834927e-18 2.5818482441600603e-16
  outer loop
    vertex -38.50000000000001 18.799038105676665 -16.25000000000002
    vertex -38.5 18.9488887394336 15.888228567653776
    vertex -38.50000000000001 18.948888739433592 -15.888228567653767
  endloop
endfacet
facet normal -1.0 -2.741199336834927e-18 2.5818482441600603e-16
  outer loop
    vertex -38.50000000000001 18.948888739433592 -15.888228567653767
    vertex -38.5 18.9488887394336 15.888228567653776
    vertex -38.50000000000001 19.00000000000001 -15.500000000000078
  endloop
endfacet
facet normal -1.0 -2.741199336834927e-18 2.5818482441600603e-16
  outer loop
    vertex -38.50000000000001 19.00000000000001 -15.500000000000078
    vertex -38.5 18.9488887394336 15.888228567653776
    vertex -38.5 19.0 15.499999999999995
  endloop
endfacet
facet normal -1.0 -2.741199336834927e-18 2.5818482441600603e-16
  outer loop
    vertex -38.5 -18.25 16.249999999999993
    vertex -38.50000000000001 -18.25 -16.79903810567666
    vertex -38.50000000000001 -18.56066017177982 -16.56066017177988
  endloop
endfacet
facet normal -1.0 -2.741199336834927e-18 2.5818482441600603e-16
  outer loop
    vertex -38.50000000000001 -18.25 -16.79903810567666
    vertex -38.5 -18.25 16.249999999999993
    vertex -38.5 -18.25 -16.250000000000078
  endloop
endfacet
facet normal -1.0 -2.741199336834927e-18 2.5818482441600603e-16
  outer loop
    vertex -38.50000000000001 -18.25 -16.79903810567666
    vertex -38.5 -18.25 -16.250000000000078
    vertex -38.5 10.749999999999991 -16.25000000000004
  endloop
endfacet
facet normal -1.0 -2.741199336834927e-18 2.5818482441600603e-16
  outer loop
    vertex -38.50000000000001 -18.25 -16.79903810567666
    vertex -38.5 10.749999999999991 -16.25000000000004
    vertex -38.50000000000001 -17.88822856765378 -16.94888873943368
  endloop
endfacet
facet normal -1.0 -2.741199336834927e-18 2.5818482441600603e-16
  outer loop
    vertex -38.50000000000001 -17.88822856765378 -16.94888873943368
    vertex -38.5 10.749999999999991 -16.25000000000004
    vertex -38.50000000000001 -17.499999999999996 -16.999999999999996
  endloop
endfacet
facet normal -1.0 -2.741199336834927e-18 2.5818482441600603e-16
  outer loop
    vertex -38.50000000000001 -17.499999999999996 -16.999999999999996
    vertex -38.5 10.749999999999991 -16.25000000000004
    vertex -38.5 10.749999999999991 -16.999999999999993
  endloop
endfacet
facet normal -1.8392697800377644e-32 -1.0 1.8193332145470262e-16
  outer loop
    vertex -15.999999999999998 17.499999999999996 15.499999999999991
    vertex -36.5 17.49999999999999 -15.500000000000078
    vertex -16.000000000000004 17.49999999999999 -15.500000000000082
  endloop
endfacet
facet normal -1.8392697800377644e-32 -1.0 1.8193332145470262e-16
  outer loop
    vertex -36.5 17.49999999999999 -15.500000000000078
    vertex -15.999999999999998 17.499999999999996 15.499999999999991
    vertex -36.49999999999999 17.499999999999996 15.499999999999995
  endloop
endfacet
facet normal -1.7155344585147875e-16 -0.0 -1.0
  outer loop
    vertex -15.999999999999998 17.499999999999996 15.499999999999991
    vertex -36.49999999999999 -17.5 15.499999999999995
    vertex -36.49999999999999 17.499999999999996 15.499999999999995
  endloop
endfacet
facet normal -1.7155344585147875e-16 -0.0 -1.0
  outer loop
    vertex -36.49999999999999 -17.5 15.499999999999995
    vertex -15.999999999999998 17.499999999999996 15.499999999999991
    vertex -15.999999999999998 -17.5 15.499999999999991
  endloop
endfacet
facet normal 6.520963011651615e-32 1.0 9.096666072735131e-17
  outer loop
    vertex -36.5 -17.499999999999996 -15.500000000000078
    vertex -15.999999999999998 -17.5 15.499999999999991
    vertex -16.000000000000004 -17.499999999999996 -15.500000000000082
  endloop
endfacet
facet normal 6.520963011651615e-32 1.0 9.096666072735131e-17
  outer loop
    vertex -15.999999999999998 -17.5 15.499999999999991
    vertex -36.5 -17.499999999999996 -15.500000000000078
    vertex -36.49999999999999 -17.5 15.499999999999995
  endloop
endfacet
facet normal 1.1344251161701107e-16 -2.3075798560294032e-17 1.0
  outer loop
    vertex -16.000000000000004 -17.499999999999996 -15.500000000000082
    vertex -36.5 10.749999999999991 -15.500000000000078
    vertex -36.5 -17.499999999999996 -15.500000000000078
  endloop
endfacet
facet normal 1.1344251161701107e-16 -2.3075798560294032e-17 1.0
  outer loop
    vertex -36.5 10.749999999999991 -15.500000000000078
    vertex -16.000000000000004 -17.499999999999996 -15.500000000000082
    vertex -30.0 10.749999999999991 -15.500000000000078
  endloop
endfacet
facet normal 1.1344251161701107e-16 -2.3075798560294032e-17 1.0
  outer loop
    vertex -30.0 10.749999999999991 -15.500000000000078
    vertex -16.000000000000004 -17.499999999999996 -15.500000000000082
    vertex -29.304711762656368 10.860122838335897 -15.500000000000078
  endloop
endfacet
facet normal 1.1344251161701107e-16 -2.3075798560294032e-17 1.0
  outer loop
    vertex -29.304711762656368 10.860122838335897 -15.500000000000078
    vertex -16.000000000000004 -17.499999999999996 -15.500000000000082
    vertex -28.67748318234194 11.179711762656359 -15.500000000000078
  endloop
endfacet
facet normal 1.1344251161701107e-16 -2.3075798560294032e-17 1.0
  outer loop
    vertex -28.67748318234194 11.179711762656359 -15.500000000000078
    vertex -16.000000000000004 -17.499999999999996 -15.500000000000082
    vertex -28.17971176265637 11.677483182341927 -15.500000000000078
  endloop
endfacet
facet normal 1.1344251161701107e-16 -2.3075798560294032e-17 1.0
  outer loop
    vertex -28.17971176265637 11.677483182341927 -15.500000000000078
    vertex -16.000000000000004 -17.499999999999996 -15.500000000000082
    vertex -27.860122838335904 12.304711762656359 -15.500000000000078
  endloop
endfacet
facet normal 1.1344251161701107e-16 -2.3075798560294032e-17 1.0
  outer loop
    vertex -27.860122838335904 12.304711762656359 -15.500000000000078
    vertex -16.000000000000004 -17.499999999999996 -15.500000000000082
    vertex -27.750000000000007 12.999999999999991 -15.500000000000078
  endloop
endfacet
facet normal 1.1344251161701107e-16 -2.3075798560294032e-17 1.0
  outer loop
    vertex -30.0 15.24999999999999 -15.500000000000078
    vertex -36.5 17.49999999999999 -15.500000000000078
    vertex -36.5 15.24999999999999 -15.500000000000078
  endloop
endfacet
facet normal 1.1344251161701107e-16 -2.3075798560294032e-17 1.0
  outer loop
    vertex -36.5 17.49999999999999 -15.500000000000078
    vertex -30.0 15.24999999999999 -15.500000000000078
    vertex -16.000000000000004 17.49999999999999 -15.500000000000082
  endloop
endfacet
facet normal 1.1344251161701107e-16 -2.3075798560294032e-17 1.0
  outer loop
    vertex -16.000000000000004 17.49999999999999 -15.500000000000082
    vertex -30.0 15.24999999999999 -15.500000000000078
    vertex -29.304711762656368 15.139877161664083 -15.500000000000078
  endloop
endfacet
facet normal 1.1344251161701107e-16 -2.3075798560294032e-17 1.0
  outer loop
    vertex -16.000000000000004 17.49999999999999 -15.500000000000082
    vertex -29.304711762656368 15.139877161664083 -15.500000000000078
    vertex -28.67748318234194 14.820288237343622 -15.500000000000078
  endloop
endfacet
facet normal 1.1344251161701107e-16 -2.3075798560294032e-17 1.0
  outer loop
    vertex -16.000000000000004 17.49999999999999 -15.500000000000082
    vertex -28.67748318234194 14.820288237343622 -15.500000000000078
    vertex -28.17971176265637 14.322516817658055 -15.500000000000078
  endloop
endfacet
facet normal 1.1344251161701107e-16 -2.3075798560294032e-17 1.0
  outer loop
    vertex -16.000000000000004 17.49999999999999 -15.500000000000082
    vertex -28.17971176265637 14.322516817658055 -15.500000000000078
    vertex -27.860122838335904 13.69528823734362 -15.500000000000078
  endloop
endfacet
facet normal 1.1344251161701107e-16 -2.3075798560294032e-17 1.0
  outer loop
    vertex -16.000000000000004 17.49999999999999 -15.500000000000082
    vertex -27.860122838335904 13.69528823734362 -15.500000000000078
    vertex -27.750000000000007 12.999999999999991 -15.500000000000078
  endloop
endfacet
facet normal 1.1344251161701107e-16 -2.3075798560294032e-17 1.0
  outer loop
    vertex -16.000000000000004 17.49999999999999 -15.500000000000082
    vertex -27.750000000000007 12.999999999999991 -15.500000000000078
    vertex -16.000000000000004 -17.499999999999996 -15.500000000000082
  endloop
endfacet
facet normal -0.0 1.0 -0.0
  outer loop
    vertex -38.5 10.749999999999991 -16.25000000000004
    vertex -30.0 10.749999999999991 -16.999999999999993
    vertex -38.5 10.749999999999991 -16.999999999999993
  endloop
endfacet
facet normal -0.0 1.0 -0.0
  outer loop
    vertex -30.0 10.749999999999991 -16.999999999999993
    vertex -38.5 10.749999999999991 -16.25000000000004
    vertex -36.5 10.749999999999991 -16.25000000000004
  endloop
endfacet
facet normal -0.0 1.0 -0.0
  outer loop
    vertex -30.0 10.749999999999991 -16.999999999999993
    vertex -36.5 10.749999999999991 -16.25000000000004
    vertex -30.0 10.749999999999991 -15.500000000000078
  endloop
endfacet
facet normal -0.0 1.0 -0.0
  outer loop
    vertex -30.0 10.749999999999991 -15.500000000000078
    vertex -36.5 10.749999999999991 -16.25000000000004
    vertex -36.5 10.749999999999991 -15.500000000000078
  endloop
endfacet
facet normal -0.15643446504023145 0.9876883405951378 -0.0
  outer loop
    vertex -30.0 10.749999999999991 -15.500000000000078
    vertex -29.304711762656368 10.860122838335897 -16.999999999999993
    vertex -30.0 10.749999999999991 -16.999999999999993
  endloop
endfacet
facet normal -0.15643446504023145 0.9876883405951378 -0.0
  outer loop
    vertex -29.304711762656368 10.860122838335897 -16.999999999999993
    vertex -30.0 10.749999999999991 -15.500000000000078
    vertex -29.304711762656368 10.860122838335897 -15.500000000000078
  endloop
endfacet
facet normal -0.453990499739548 0.8910065241883673 -0.0
  outer loop
    vertex -29.304711762656368 10.860122838335897 -15.500000000000078
    vertex -28.67748318234194 11.179711762656359 -16.999999999999993
    vertex -29.304711762656368 10.860122838335897 -16.999999999999993
  endloop
endfacet
facet normal -0.453990499739548 0.8910065241883673 -0.0
  outer loop
    vertex -28.67748318234194 11.179711762656359 -16.999999999999993
    vertex -29.304711762656368 10.860122838335897 -15.500000000000078
    vertex -28.67748318234194 11.179711762656359 -15.500000000000078
  endloop
endfacet
facet normal -0.7071067811865466 0.7071067811865486 -0.0
  outer loop
    vertex -28.67748318234194 11.179711762656359 -15.500000000000078
    vertex -28.17971176265637 11.677483182341927 -16.999999999999993
    vertex -28.67748318234194 11.179711762656359 -16.999999999999993
  endloop
endfacet
facet normal -0.7071067811865466 0.7071067811865486 -0.0
  outer loop
    vertex -28.17971176265637 11.677483182341927 -16.999999999999993
    vertex -28.67748318234194 11.179711762656359 -15.500000000000078
    vertex -28.17971176265637 11.677483182341927 -15.500000000000078
  endloop
endfacet
facet normal -0.8910065241883666 0.4539904997395496 -0.0
  outer loop
    vertex -27.860122838335904 12.304711762656359 -15.500000000000078
    vertex -28.17971176265637 11.677483182341927 -16.999999999999993
    vertex -28.17971176265637 11.677483182341927 -15.500000000000078
  endloop
endfacet
facet normal -0.8910065241883666 0.4539904997395496 -0.0
  outer loop
    vertex -28.17971176265637 11.677483182341927 -16.999999999999993
    vertex -27.860122838335904 12.304711762656359 -15.500000000000078
    vertex -27.860122838335904 12.304711762656359 -16.999999999999993
  endloop
endfacet
facet normal -0.9876883405951389 0.15643446504022393 -0.0
  outer loop
    vertex -27.750000000000007 12.999999999999991 -15.500000000000078
    vertex -27.860122838335904 12.304711762656359 -16.999999999999993
    vertex -27.860122838335904 12.304711762656359 -15.500000000000078
  endloop
endfacet
facet normal -0.9876883405951389 0.15643446504022393 -0.0
  outer loop
    vertex -27.860122838335904 12.304711762656359 -16.999999999999993
    vertex -27.750000000000007 12.999999999999991 -15.500000000000078
    vertex -27.750000000000007 12.999999999999991 -16.999999999999993
  endloop
endfacet
facet normal -0.9876883405951388 -0.15643446504022426 -0.0
  outer loop
    vertex -27.860122838335904 13.69528823734362 -15.500000000000078
    vertex -27.750000000000007 12.999999999999991 -16.999999999999993
    vertex -27.750000000000007 12.999999999999991 -15.500000000000078
  endloop
endfacet
facet normal -0.9876883405951388 -0.15643446504022426 -0.0
  outer loop
    vertex -27.750000000000007 12.999999999999991 -16.999999999999993
    vertex -27.860122838335904 13.69528823734362 -15.500000000000078
    vertex -27.860122838335904 13.69528823734362 -16.999999999999993
  endloop
endfacet
facet normal -0.8910065241883675 -0.453990499739548 -0.0
  outer loop
    vertex -28.17971176265637 14.322516817658055 -15.500000000000078
    vertex -27.860122838335904 13.69528823734362 -16.999999999999993
    vertex -27.860122838335904 13.69528823734362 -15.500000000000078
  endloop
endfacet
facet normal -0.8910065241883675 -0.453990499739548 -0.0
  outer loop
    vertex -27.860122838335904 13.69528823734362 -16.999999999999993
    vertex -28.17971176265637 14.322516817658055 -15.500000000000078
    vertex -28.17971176265637 14.322516817658055 -16.999999999999993
  endloop
endfacet
facet normal -0.7071067811865456 -0.7071067811865496 -0.0
  outer loop
    vertex -28.17971176265637 14.322516817658055 -15.500000000000078
    vertex -28.67748318234194 14.820288237343622 -16.999999999999993
    vertex -28.17971176265637 14.322516817658055 -16.999999999999993
  endloop
endfacet
facet normal -0.7071067811865456 -0.7071067811865496 -0.0
  outer loop
    vertex -28.67748318234194 14.820288237343622 -16.999999999999993
    vertex -28.17971176265637 14.322516817658055 -15.500000000000078
    vertex -28.67748318234194 14.820288237343622 -15.500000000000078
  endloop
endfacet
facet normal -0.453990499739548 -0.8910065241883673 -0.0
  outer loop
    vertex -28.67748318234194 14.820288237343622 -15.500000000000078
    vertex -29.304711762656368 15.139877161664083 -16.999999999999993
    vertex -28.67748318234194 14.820288237343622 -16.999999999999993
  endloop
endfacet
facet normal -0.453990499739548 -0.8910065241883673 -0.0
  outer loop
    vertex -29.304711762656368 15.139877161664083 -16.999999999999993
    vertex -28.67748318234194 14.820288237343622 -15.500000000000078
    vertex -29.304711762656368 15.139877161664083 -15.500000000000078
  endloop
endfacet
facet normal -0.15643446504023145 -0.9876883405951378 -0.0
  outer loop
    vertex -29.304711762656368 15.139877161664083 -15.500000000000078
    vertex -30.0 15.24999999999999 -16.999999999999993
    vertex -29.304711762656368 15.139877161664083 -16.999999999999993
  endloop
endfacet
facet normal -0.15643446504023145 -0.9876883405951378 -0.0
  outer loop
    vertex -30.0 15.24999999999999 -16.999999999999993
    vertex -29.304711762656368 15.139877161664083 -15.500000000000078
    vertex -30.0 15.24999999999999 -15.500000000000078
  endloop
endfacet
facet normal 0.0 -1.0 0.0
  outer loop
    vertex -30.0 15.24999999999999 -15.500000000000078
    vertex -38.5 15.24999999999999 -16.999999999999993
    vertex -30.0 15.24999999999999 -16.999999999999993
  endloop
endfacet
facet normal 0.0 -1.0 0.0
  outer loop
    vertex -38.5 15.24999999999999 -16.999999999999993
    vertex -30.0 15.24999999999999 -15.500000000000078
    vertex -36.5 15.24999999999999 -16.25000000000004
  endloop
endfacet
facet normal 0.0 -1.0 0.0
  outer loop
    vertex -36.5 15.24999999999999 -16.25000000000004
    vertex -30.0 15.24999999999999 -15.500000000000078
    vertex -36.5 15.24999999999999 -15.500000000000078
  endloop
endfacet
facet normal 0.0 -1.0 0.0
  outer loop
    vertex -38.5 15.24999999999999 -16.25000000000004
    vertex -38.5 15.24999999999999 -16.999999999999993
    vertex -36.5 15.24999999999999 -16.25000000000004
  endloop
endfacet
facet normal -0.0 -0.9945218953682735 -0.10452846326765343
  outer loop
    vertex -14.500000000000007 3.3798118040359206 1.1435142994975944
    vertex -16.000000000000004 3.4999999999999893 -8.177902799388902e-14
    vertex -14.500000000000007 3.4999999999999893 -8.177902799388902e-14
  endloop
endfacet
facet normal -0.0 -0.9945218953682735 -0.10452846326765343
  outer loop
    vertex -16.000000000000004 3.4999999999999893 -8.177902799388902e-14
    vertex -14.500000000000007 3.3798118040359206 1.1435142994975944
    vertex -16.000000000000004 3.3798118040359206 1.1435142994975944
  endloop
endfacet
facet normal -0.0 -0.9945218953682735 0.10452846326765282
  outer loop
    vertex -14.500000000000007 3.4999999999999893 -8.177902799388902e-14
    vertex -16.000000000000004 3.379811804035922 -1.1435142994977514
    vertex -14.500000000000007 3.379811804035922 -1.1435142994977514
  endloop
endfacet
facet normal -0.0 -0.9945218953682735 0.10452846326765282
  outer loop
    vertex -16.000000000000004 3.379811804035922 -1.1435142994977514
    vertex -14.500000000000007 3.4999999999999893 -8.177902799388902e-14
    vertex -16.000000000000004 3.4999999999999893 -8.177902799388902e-14
  endloop
endfacet
facet normal -0.0 -0.951056516295154 0.3090169943749463
  outer loop
    vertex -14.500000000000007 3.379811804035922 -1.1435142994977514
    vertex -16.000000000000004 3.0245000170342964 -2.237051536916978
    vertex -14.500000000000007 3.0245000170342964 -2.237051536916978
  endloop
endfacet
facet normal -0.0 -0.951056516295154 0.3090169943749463
  outer loop
    vertex -16.000000000000004 3.0245000170342964 -2.237051536916978
    vertex -14.500000000000007 3.379811804035922 -1.1435142994977514
    vertex -16.000000000000004 3.379811804035922 -1.1435142994977514
  endloop
endfacet
facet normal -0.0 -0.8660254037844389 0.4999999999999995
  outer loop
    vertex -14.500000000000007 3.0245000170342964 -2.237051536916978
    vertex -16.000000000000004 2.4495934690622025 -3.2328188876086807
    vertex -14.500000000000007 2.4495934690622025 -3.2328188876086807
  endloop
endfacet
facet normal -0.0 -0.8660254037844389 0.4999999999999995
  outer loop
    vertex -16.000000000000004 2.4495934690622025 -3.2328188876086807
    vertex -14.500000000000007 3.0245000170342964 -2.237051536916978
    vertex -16.000000000000004 3.0245000170342964 -2.237051536916978
  endloop
endfacet
facet normal -0.0 -0.7431448254773947 0.6691306063588579
  outer loop
    vertex -14.500000000000007 2.4495934690622025 -3.2328188876086807
    vertex -16.000000000000004 1.680218334973711 -4.087296540125749
    vertex -14.500000000000007 1.680218334973711 -4.087296540125749
  endloop
endfacet
facet normal -0.0 -0.7431448254773947 0.6691306063588579
  outer loop
    vertex -16.000000000000004 1.680218334973711 -4.087296540125749
    vertex -14.500000000000007 2.4495934690622025 -3.2328188876086807
    vertex -16.000000000000004 2.4495934690622025 -3.2328188876086807
  endloop
endfacet
facet normal -0.0 -0.5877852522924735 0.8090169943749473
  outer loop
    vertex -14.500000000000007 0.7499999999999901 -4.763139720814494
    vertex -16.000000000000004 1.680218334973711 -4.087296540125749
    vertex -16.000000000000004 0.7499999999999901 -4.763139720814494
  endloop
endfacet
facet normal -0.0 -0.5877852522924735 0.8090169943749473
  outer loop
    vertex -16.000000000000004 1.680218334973711 -4.087296540125749
    vertex -14.500000000000007 0.7499999999999901 -4.763139720814494
    vertex -14.500000000000007 1.680218334973711 -4.087296540125749
  endloop
endfacet
facet normal -0.0 -0.4067366430758002 0.913545457642601
  outer loop
    vertex -14.500000000000007 -0.3004065309378006 -5.230810839623427
    vertex -16.000000000000004 0.7499999999999901 -4.763139720814494
    vertex -16.000000000000004 -0.3004065309378006 -5.230810839623427
  endloop
endfacet
facet normal -0.0 -0.4067366430758002 0.913545457642601
  outer loop
    vertex -16.000000000000004 0.7499999999999901 -4.763139720814494
    vertex -14.500000000000007 -0.3004065309378006 -5.230810839623427
    vertex -14.500000000000007 0.7499999999999901 -4.763139720814494
  endloop
endfacet
facet normal -0.0 -0.20791169081775918 0.9781476007338057
  outer loop
    vertex -14.500000000000007 -1.425093452027919 -5.469870424525586
    vertex -16.000000000000004 -0.3004065309378006 -5.230810839623427
    vertex -16.000000000000004 -1.425093452027919 -5.469870424525586
  endloop
endfacet
facet normal -0.0 -0.20791169081775918 0.9781476007338057
  outer loop
    vertex -16.000000000000004 -0.3004065309378006 -5.230810839623427
    vertex -14.500000000000007 -1.425093452027919 -5.469870424525586
    vertex -14.500000000000007 -0.3004065309378006 -5.230810839623427
  endloop
endfacet
facet normal 0.0 0.0 1.0
  outer loop
    vertex -14.500000000000007 -2.00000000000001 -5.469870424525586
    vertex -16.000000000000004 -1.425093452027919 -5.469870424525586
    vertex -16.000000000000004 -2.00000000000001 -5.469870424525586
  endloop
endfacet
facet normal 0.0 0.0 1.0
  outer loop
    vertex -16.000000000000004 -1.425093452027919 -5.469870424525586
    vertex -14.500000000000007 -2.00000000000001 -5.469870424525586
    vertex -14.500000000000007 -1.425093452027919 -5.469870424525586
  endloop
endfacet
facet normal 0.0 1.2262716838479797e-15 1.0
  outer loop
    vertex -14.500000000000007 -2.574906547972109 -5.469870424525585
    vertex -16.000000000000004 -2.00000000000001 -5.469870424525586
    vertex -16.000000000000004 -2.574906547972109 -5.469870424525585
  endloop
endfacet
facet normal 0.0 1.2262716838479797e-15 1.0
  outer loop
    vertex -16.000000000000004 -2.00000000000001 -5.469870424525586
    vertex -14.500000000000007 -2.574906547972109 -5.469870424525585
    vertex -14.500000000000007 -2.00000000000001 -5.469870424525586
  endloop
endfacet
facet normal 0.0 0.20791169081776045 0.9781476007338056
  outer loop
    vertex -14.500000000000007 -3.699593469062227 -5.230810839623424
    vertex -16.000000000000004 -2.574906547972109 -5.469870424525585
    vertex -16.000000000000004 -3.699593469062227 -5.230810839623424
  endloop
endfacet
facet normal 0.0 0.20791169081776045 0.9781476007338056
  outer loop
    vertex -16.000000000000004 -2.574906547972109 -5.469870424525585
    vertex -14.500000000000007 -3.699593469062227 -5.230810839623424
    vertex -14.500000000000007 -2.574906547972109 -5.469870424525585
  endloop
endfacet
facet normal 0.0 0.4067366430758016 0.9135454576426003
  outer loop
    vertex -14.500000000000007 -4.750000000000017 -4.7631397208144906
    vertex -16.000000000000004 -3.699593469062227 -5.230810839623424
    vertex -16.000000000000004 -4.750000000000017 -4.7631397208144906
  endloop
endfacet
facet normal 0.0 0.4067366430758016 0.9135454576426003
  outer loop
    vertex -16.000000000000004 -3.699593469062227 -5.230810839623424
    vertex -14.500000000000007 -4.750000000000017 -4.7631397208144906
    vertex -14.500000000000007 -3.699593469062227 -5.230810839623424
  endloop
endfacet
facet normal 0.0 0.5877852522924739 0.8090169943749469
  outer loop
    vertex -14.500000000000007 -5.680218334973735 -4.087296540125745
    vertex -16.000000000000004 -4.750000000000017 -4.7631397208144906
    vertex -16.000000000000004 -5.680218334973735 -4.087296540125745
  endloop
endfacet
facet normal 0.0 0.5877852522924739 0.8090169943749469
  outer loop
    vertex -16.000000000000004 -4.750000000000017 -4.7631397208144906
    vertex -14.500000000000007 -5.680218334973735 -4.087296540125745
    vertex -14.500000000000007 -4.750000000000017 -4.7631397208144906
  endloop
endfacet
facet normal 0.0 0.7431448254773952 0.6691306063588571
  outer loop
    vertex -16.000000000000004 -6.449593469062224 -3.2328188876086794
    vertex -14.500000000000007 -5.680218334973735 -4.087296540125745
    vertex -16.000000000000004 -5.680218334973735 -4.087296540125745
  endloop
endfacet
facet normal 0.0 0.7431448254773952 0.6691306063588571
  outer loop
    vertex -14.500000000000007 -5.680218334973735 -4.087296540125745
    vertex -16.000000000000004 -6.449593469062224 -3.2328188876086794
    vertex -14.500000000000007 -6.449593469062224 -3.2328188876086794
  endloop
endfacet
facet normal 0.0 0.8660254037844392 0.4999999999999992
  outer loop
    vertex -16.000000000000004 -7.024500017034317 -2.2370515369169786
    vertex -14.500000000000007 -6.449593469062224 -3.2328188876086794
    vertex -16.000000000000004 -6.449593469062224 -3.2328188876086794
  endloop
endfacet
facet normal 0.0 0.8660254037844392 0.4999999999999992
  outer loop
    vertex -14.500000000000007 -6.449593469062224 -3.2328188876086794
    vertex -16.000000000000004 -7.024500017034317 -2.2370515369169786
    vertex -14.500000000000007 -7.024500017034317 -2.2370515369169786
  endloop
endfacet
facet normal 0.0 0.9510565162951539 0.30901699437494695
  outer loop
    vertex -16.000000000000004 -7.379811804035942 -1.143514299497754
    vertex -14.500000000000007 -7.024500017034317 -2.2370515369169786
    vertex -16.000000000000004 -7.024500017034317 -2.2370515369169786
  endloop
endfacet
facet normal 0.0 0.9510565162951539 0.30901699437494695
  outer loop
    vertex -14.500000000000007 -7.024500017034317 -2.2370515369169786
    vertex -16.000000000000004 -7.379811804035942 -1.143514299497754
    vertex -14.500000000000007 -7.379811804035942 -1.143514299497754
  endloop
endfacet
facet normal 0.0 0.9945218953682734 0.10452846326765287
  outer loop
    vertex -16.000000000000004 -7.500000000000011 -7.866298160018263e-14
    vertex -14.500000000000007 -7.379811804035942 -1.143514299497754
    vertex -16.000000000000004 -7.379811804035942 -1.143514299497754
  endloop
endfacet
facet normal 0.0 0.9945218953682734 0.10452846326765287
  outer loop
    vertex -14.500000000000007 -7.379811804035942 -1.143514299497754
    vertex -16.000000000000004 -7.500000000000011 -7.866298160018263e-14
    vertex -14.500000000000007 -7.500000000000011 -7.866298160018263e-14
  endloop
endfacet
facet normal -0.0 0.9945218953682733 -0.10452846326765411
  outer loop
    vertex -16.000000000000004 -7.37981180403594 1.1435142994975969
    vertex -14.500000000000007 -7.500000000000011 -7.866298160018263e-14
    vertex -16.000000000000004 -7.500000000000011 -7.866298160018263e-14
  endloop
endfacet
facet normal -0.0 0.9945218953682733 -0.10452846326765411
  outer loop
    vertex -14.500000000000007 -7.500000000000011 -7.866298160018263e-14
    vertex -16.000000000000004 -7.37981180403594 1.1435142994975969
    vertex -14.500000000000007 -7.37981180403594 1.1435142994975969
  endloop
endfacet
facet normal -0.0 0.9510565162951539 -0.3090169943749471
  outer loop
    vertex -16.000000000000004 -7.024500017034315 2.2370515369168205
    vertex -14.500000000000007 -7.37981180403594 1.1435142994975969
    vertex -16.000000000000004 -7.37981180403594 1.1435142994975969
  endloop
endfacet
facet normal -0.0 0.9510565162951539 -0.3090169943749471
  outer loop
    vertex -14.500000000000007 -7.37981180403594 1.1435142994975969
    vertex -16.000000000000004 -7.024500017034315 2.2370515369168205
    vertex -14.500000000000007 -7.024500017034315 2.2370515369168205
  endloop
endfacet
facet normal -0.0 0.8660254037844386 -0.5000000000000001
  outer loop
    vertex -16.000000000000004 -6.449593469062221 3.2328188876085213
    vertex -14.500000000000007 -7.024500017034315 2.2370515369168205
    vertex -16.000000000000004 -7.024500017034315 2.2370515369168205
  endloop
endfacet
facet normal -0.0 0.8660254037844386 -0.5000000000000001
  outer loop
    vertex -14.500000000000007 -7.024500017034315 2.2370515369168205
    vertex -16.000000000000004 -6.449593469062221 3.2328188876085213
    vertex -14.500000000000007 -6.449593469062221 3.2328188876085213
  endloop
endfacet
facet normal -0.0 0.7431448254773938 -0.6691306063588587
  outer loop
    vertex -16.000000000000004 -5.6802183349737305 4.087296540125586
    vertex -14.500000000000007 -6.449593469062221 3.2328188876085213
    vertex -16.000000000000004 -6.449593469062221 3.2328188876085213
  endloop
endfacet
facet normal -0.0 0.7431448254773938 -0.6691306063588587
  outer loop
    vertex -14.500000000000007 -6.449593469062221 3.2328188876085213
    vertex -16.000000000000004 -5.6802183349737305 4.087296540125586
    vertex -14.500000000000007 -5.6802183349737305 4.087296540125586
  endloop
endfacet
facet normal -0.0 0.5877852522924732 -0.8090169943749473
  outer loop
    vertex -14.500000000000007 -4.750000000000011 4.76313972081433
    vertex -16.000000000000004 -5.6802183349737305 4.087296540125586
    vertex -16.000000000000004 -4.750000000000011 4.76313972081433
  endloop
endfacet
facet normal -0.0 0.5877852522924732 -0.8090169943749473
  outer loop
    vertex -16.000000000000004 -5.6802183349737305 4.087296540125586
    vertex -14.500000000000007 -4.750000000000011 4.76313972081433
    vertex -14.500000000000007 -5.6802183349737305 4.087296540125586
  endloop
endfacet
facet normal -0.0 0.40673664307580026 -0.9135454576426009
  outer loop
    vertex -14.500000000000007 -3.699593469062222 5.230810839623262
    vertex -16.000000000000004 -4.750000000000011 4.76313972081433
    vertex -16.000000000000004 -3.699593469062222 5.230810839623262
  endloop
endfacet
facet normal -0.0 0.40673664307580026 -0.9135454576426009
  outer loop
    vertex -16.000000000000004 -4.750000000000011 4.76313972081433
    vertex -14.500000000000007 -3.699593469062222 5.230810839623262
    vertex -14.500000000000007 -4.750000000000011 4.76313972081433
  endloop
endfacet
facet normal -0.0 0.2079116908177594 -0.9781476007338056
  outer loop
    vertex -14.500000000000007 -2.574906547972105 5.469870424525421
    vertex -16.000000000000004 -3.699593469062222 5.230810839623262
    vertex -16.000000000000004 -2.574906547972105 5.469870424525421
  endloop
endfacet
facet normal -0.0 0.2079116908177594 -0.9781476007338056
  outer loop
    vertex -16.000000000000004 -3.699593469062222 5.230810839623262
    vertex -14.500000000000007 -2.574906547972105 5.469870424525421
    vertex -14.500000000000007 -3.699593469062222 5.230810839623262
  endloop
endfacet
facet normal -0.0 0.0 -1.0
  outer loop
    vertex -14.500000000000007 -1.4250934520279164 5.469870424525421
    vertex -16.000000000000004 -2.574906547972105 5.469870424525421
    vertex -16.000000000000004 -1.4250934520279164 5.469870424525421
  endloop
endfacet
facet normal -0.0 0.0 -1.0
  outer loop
    vertex -16.000000000000004 -2.574906547972105 5.469870424525421
    vertex -14.500000000000007 -1.4250934520279164 5.469870424525421
    vertex -14.500000000000007 -2.574906547972105 5.469870424525421
  endloop
endfacet
facet normal -0.0 -0.20791169081775945 -0.9781476007338056
  outer loop
    vertex -14.500000000000007 -0.30040653093779957 5.230810839623262
    vertex -16.000000000000004 -1.4250934520279164 5.469870424525421
    vertex -16.000000000000004 -0.30040653093779957 5.230810839623262
  endloop
endfacet
facet normal -0.0 -0.20791169081775945 -0.9781476007338056
  outer loop
    vertex -16.000000000000004 -1.4250934520279164 5.469870424525421
    vertex -14.500000000000007 -0.30040653093779957 5.230810839623262
    vertex -14.500000000000007 -1.4250934520279164 5.469870424525421
  endloop
endfacet
facet normal -0.0 -0.4067366430758 -0.913545457642601
  outer loop
    vertex -14.500000000000007 0.7499999999999901 4.76313972081433
    vertex -16.000000000000004 -0.30040653093779957 5.230810839623262
    vertex -16.000000000000004 0.7499999999999901 4.76313972081433
  endloop
endfacet
facet normal -0.0 -0.4067366430758 -0.913545457642601
  outer loop
    vertex -16.000000000000004 -0.30040653093779957 5.230810839623262
    vertex -14.500000000000007 0.7499999999999901 4.76313972081433
    vertex -14.500000000000007 -0.30040653093779957 5.230810839623262
  endloop
endfacet
facet normal -0.0 -0.5877852522924736 -0.8090169943749471
  outer loop
    vertex -14.500000000000007 1.6802183349737096 4.087296540125585
    vertex -16.000000000000004 0.7499999999999901 4.76313972081433
    vertex -16.000000000000004 1.6802183349737096 4.087296540125585
  endloop
endfacet
facet normal -0.0 -0.5877852522924736 -0.8090169943749471
  outer loop
    vertex -16.000000000000004 0.7499999999999901 4.76313972081433
    vertex -14.500000000000007 1.6802183349737096 4.087296540125585
    vertex -14.500000000000007 0.7499999999999901 4.76313972081433
  endloop
endfacet
facet normal -0.0 -0.7431448254773938 -0.6691306063588587
  outer loop
    vertex -14.500000000000007 1.6802183349737096 4.087296540125585
    vertex -16.000000000000004 2.4495934690622003 3.2328188876085204
    vertex -14.500000000000007 2.4495934690622003 3.2328188876085204
  endloop
endfacet
facet normal -0.0 -0.7431448254773938 -0.6691306063588587
  outer loop
    vertex -16.000000000000004 2.4495934690622003 3.2328188876085204
    vertex -14.500000000000007 1.6802183349737096 4.087296540125585
    vertex -16.000000000000004 1.6802183349737096 4.087296540125585
  endloop
endfacet
facet normal -0.0 -0.8660254037844388 -0.49999999999999994
  outer loop
    vertex -14.500000000000007 2.4495934690622003 3.2328188876085204
    vertex -16.000000000000004 3.0245000170342946 2.237051536916819
    vertex -14.500000000000007 3.0245000170342946 2.237051536916819
  endloop
endfacet
facet normal -0.0 -0.8660254037844388 -0.49999999999999994
  outer loop
    vertex -16.000000000000004 3.0245000170342946 2.237051536916819
    vertex -14.500000000000007 2.4495934690622003 3.2328188876085204
    vertex -16.000000000000004 2.4495934690622003 3.2328188876085204
  endloop
endfacet
facet normal -0.0 -0.9510565162951538 -0.3090169943749474
  outer loop
    vertex -14.500000000000007 3.0245000170342946 2.237051536916819
    vertex -16.000000000000004 3.3798118040359206 1.1435142994975944
    vertex -14.500000000000007 3.3798118040359206 1.1435142994975944
  endloop
endfacet
facet normal -0.0 -0.9510565162951538 -0.3090169943749474
  outer loop
    vertex -16.000000000000004 3.3798118040359206 1.1435142994975944
    vertex -14.500000000000007 3.0245000170342946 2.237051536916819
    vertex -16.000000000000004 3.0245000170342946 2.237051536916819
  endloop
endfacet
facet normal -1.0 -3.3805926062321706e-19 1.7784486405452926e-16
  outer loop
    vertex -36.49999999999999 -18.25 16.249999999999993
    vertex -36.49999999999999 -17.5 15.499999999999995
    vertex -36.5 -18.25 -16.250000000000078
  endloop
endfacet
facet normal -1.0 -3.3805926062321706e-19 1.7784486405452926e-16
  outer loop
    vertex -36.49999999999999 -17.5 15.499999999999995
    vertex -36.49999999999999 -18.25 16.249999999999993
    vertex -36.49999999999999 18.24999999999999 16.249999999999993
  endloop
endfacet
facet normal -1.0 -3.3805926062321706e-19 1.7784486405452926e-16
  outer loop
    vertex -36.49999999999999 -17.5 15.499999999999995
    vertex -36.49999999999999 18.24999999999999 16.249999999999993
    vertex -36.49999999999999 17.499999999999996 15.499999999999995
  endloop
endfacet
facet normal -1.0 -3.3805926062321706e-19 1.7784486405452926e-16
  outer loop
    vertex -36.5 17.49999999999999 -15.500000000000078
    vertex -36.5 15.24999999999999 -16.25000000000004
    vertex -36.5 15.24999999999999 -15.500000000000078
  endloop
endfacet
facet normal -1.0 -3.3805926062321706e-19 1.7784486405452926e-16
  outer loop
    vertex -36.5 15.24999999999999 -16.25000000000004
    vertex -36.5 17.49999999999999 -15.500000000000078
    vertex -36.5 18.24999999999999 -16.25000000000004
  endloop
endfacet
facet normal -1.0 -3.3805926062321706e-19 1.7784486405452926e-16
  outer loop
    vertex -36.5 18.24999999999999 -16.25000000000004
    vertex -36.5 17.49999999999999 -15.500000000000078
    vertex -36.49999999999999 17.499999999999996 15.499999999999995
  endloop
endfacet
facet normal -1.0 -3.3805926062321706e-19 1.7784486405452926e-16
  outer loop
    vertex -36.5 18.24999999999999 -16.25000000000004
    vertex -36.49999999999999 17.499999999999996 15.499999999999995
    vertex -36.49999999999999 18.24999999999999 16.249999999999993
  endloop
endfacet
facet normal -1.0 -3.3805926062321706e-19 1.7784486405452926e-16
  outer loop
    vertex -36.5 -18.25 -16.250000000000078
    vertex -36.5 -17.499999999999996 -15.500000000000078
    vertex -36.5 10.749999999999991 -16.25000000000004
  endloop
endfacet
facet normal -1.0 -3.3805926062321706e-19 1.7784486405452926e-16
  outer loop
    vertex -36.5 -17.499999999999996 -15.500000000000078
    vertex -36.5 -18.25 -16.250000000000078
    vertex -36.49999999999999 -17.5 15.499999999999995
  endloop
endfacet
facet normal -1.0 -3.3805926062321706e-19 1.7784486405452926e-16
  outer loop
    vertex -36.5 10.749999999999991 -16.25000000000004
    vertex -36.5 -17.499999999999996 -15.500000000000078
    vertex -36.5 10.749999999999991 -15.500000000000078
  endloop
endfacet
facet normal 1.7784486405452926e-16 -1.361363129505882e-15 1.0
  outer loop
    vertex -36.5 -18.25 -16.250000000000078
    vertex -38.5 10.749999999999991 -16.25000000000004
    vertex -38.5 -18.25 -16.250000000000078
  endloop
endfacet
facet normal 1.7784486405452926e-16 -1.361363129505882e-15 1.0
  outer loop
    vertex -38.5 10.749999999999991 -16.25000000000004
    vertex -36.5 -18.25 -16.250000000000078
    vertex -36.5 10.749999999999991 -16.25000000000004
  endloop
endfacet
facet normal -3.3805926062321706e-19 1.0 5.866558671214734e-35
  outer loop
    vertex -38.5 -18.25 16.249999999999993
    vertex -36.5 -18.25 -16.250000000000078
    vertex -38.5 -18.25 -16.250000000000078
  endloop
endfacet
facet normal -3.3805926062321706e-19 1.0 5.866558671214734e-35
  outer loop
    vertex -36.5 -18.25 -16.250000000000078
    vertex -38.5 -18.25 16.249999999999993
    vertex -36.49999999999999 -18.25 16.249999999999993
  endloop
endfacet
facet normal -1.7784486405452926e-16 0.0 -1.0
  outer loop
    vertex -36.49999999999999 18.24999999999999 16.249999999999993
    vertex -38.5 -18.25 16.249999999999993
    vertex -38.5 18.24999999999999 16.249999999999993
  endloop
endfacet
facet normal -1.7784486405452926e-16 0.0 -1.0
  outer loop
    vertex -38.5 -18.25 16.249999999999993
    vertex -36.49999999999999 18.24999999999999 16.249999999999993
    vertex -36.49999999999999 -18.25 16.249999999999993
  endloop
endfacet
facet normal 3.3805926062321706e-19 -1.0 -5.866558671214741e-35
  outer loop
    vertex -36.49999999999999 18.24999999999999 16.249999999999993
    vertex -38.5 18.24999999999999 -16.25000000000004
    vertex -36.5 18.24999999999999 -16.25000000000004
  endloop
endfacet
facet normal 3.3805926062321706e-19 -1.0 -5.866558671214741e-35
  outer loop
    vertex -38.5 18.24999999999999 -16.25000000000004
    vertex -36.49999999999999 18.24999999999999 16.249999999999993
    vertex -38.5 18.24999999999999 16.249999999999993
  endloop
endfacet
facet normal 1.7784486405452928e-16 0.0 1.0
  outer loop
    vertex -36.5 15.24999999999999 -16.25000000000004
    vertex -38.5 18.24999999999999 -16.25000000000004
    vertex -38.5 15.24999999999999 -16.25000000000004
  endloop
endfacet
facet normal 1.7784486405452928e-16 0.0 1.0
  outer loop
    vertex -38.5 18.24999999999999 -16.25000000000004
    vertex -36.5 15.24999999999999 -16.25000000000004
    vertex -36.5 18.24999999999999 -16.25000000000004
  endloop
endfacet
endsolid cls_oiler_housing
