solid motor_controller_bracket
facet normal 3.0561363355137363e-34 1.1661312596991969e-32 1.0
  outer loop
    vertex -1.2499999999999998 -2.165063509461097 0.9999999999999999
    vertex -0.8660254037844382 -0.5000000000000003 0.9999999999999999
    vertex -0.9999999999999998 -1.8369701987210292e-16 0.9999999999999999
  endloop
endfacet
facet normal 3.0561363355137363e-34 1.1661312596991969e-32 1.0
  outer loop
    vertex -0.8660254037844382 -0.5000000000000003 0.9999999999999999
    vertex -1.2499999999999998 -2.165063509461097 0.9999999999999999
    vertex 0.0 -2.5 0.9999999999999999
  endloop
endfacet
facet normal 3.0561363355137363e-34 1.1661312596991969e-32 1.0
  outer loop
    vertex -0.8660254037844382 -0.5000000000000003 0.9999999999999999
    vertex 0.0 -2.5 0.9999999999999999
    vertex -0.49999999999999917 -0.8660254037844388 0.9999999999999999
  endloop
endfacet
facet normal 3.0561363355137363e-34 1.1661312596991969e-32 1.0
  outer loop
    vertex -0.49999999999999917 -0.8660254037844388 0.9999999999999999
    vertex 0.0 -2.5 0.9999999999999999
    vertex 5.665538897647978e-16 -0.9999999999999998 0.9999999999999999
  endloop
endfacet
facet normal 3.0561363355137363e-34 1.1661312596991969e-32 1.0
  outer loop
    vertex 5.665538897647978e-16 -0.9999999999999998 0.9999999999999999
    vertex 0.0 -2.5 0.9999999999999999
    vertex 1.2499999999999991 -2.1650635094610973 0.9999999999999999
  endloop
endfacet
facet normal 3.0561363355137363e-34 1.1661312596991969e-32 1.0
  outer loop
    vertex 5.665538897647978e-16 -0.9999999999999998 0.9999999999999999
    vertex 1.2499999999999991 -2.1650635094610973 0.9999999999999999
    vertex 0.5000000000000002 -0.8660254037844383 0.9999999999999999
  endloop
endfacet
facet normal 3.0561363355137363e-34 1.1661312596991969e-32 1.0
  outer loop
    vertex 0.5000000000000002 -0.8660254037844383 0.9999999999999999
    vertex 1.2499999999999991 -2.1650635094610973 0.9999999999999999
    vertex 0.8660254037844385 -0.4999999999999996 0.9999999999999999
  endloop
endfacet
facet normal 3.0561363355137363e-34 1.1661312596991969e-32 1.0
  outer loop
    vertex 0.8660254037844385 -0.4999999999999996 0.9999999999999999
    vertex 1.2499999999999991 -2.1650635094610973 0.9999999999999999
    vertex 0.9999999999999998 6.123233995736765e-17 0.9999999999999999
  endloop
endfacet
facet normal 3.0561363355137363e-34 1.1661312596991969e-32 1.0
  outer loop
    vertex 0.9999999999999998 6.123233995736765e-17 0.9999999999999999
    vertex 1.2499999999999991 -2.1650635094610973 0.9999999999999999
    vertex 1.2499999999999984 2.1650635094610977 0.9999999999999999
  endloop
endfacet
facet normal 3.0561363355137363e-34 1.1661312596991969e-32 1.0
  outer loop
    vertex 1.2499999999999984 2.1650635094610977 0.9999999999999999
    vertex 1.2499999999999991 -2.1650635094610973 0.9999999999999999
    vertex 2.165063509461096 1.250000000000001 0.9999999999999999
  endloop
endfacet
facet normal 3.0561363355137363e-34 1.1661312596991969e-32 1.0
  outer loop
    vertex 2.165063509461096 1.250000000000001 0.9999999999999999
    vertex 1.2499999999999991 -2.1650635094610973 0.9999999999999999
    vertex 2.1650635094610964 -1.2500000000000004 0.9999999999999999
  endloop
endfacet
facet normal 3.0561363355137363e-34 1.1661312596991969e-32 1.0
  outer loop
    vertex 2.165063509461096 1.250000000000001 0.9999999999999999
    vertex 2.1650635094610964 -1.2500000000000004 0.9999999999999999
    vertex 2.299038105676657 0.7500000000000003 0.9999999999999999
  endloop
endfacet
facet normal 3.0561363355137363e-34 1.1661312596991969e-32 1.0
  outer loop
    vertex 2.299038105676657 0.7500000000000003 0.9999999999999999
    vertex 2.1650635094610964 -1.2500000000000004 0.9999999999999999
    vertex 2.299038105676659 -0.7499999999999999 0.9999999999999999
  endloop
endfacet
facet normal 3.0561363355137363e-34 1.1661312596991969e-32 1.0
  outer loop
    vertex 2.299038105676657 0.7500000000000003 0.9999999999999999
    vertex 2.299038105676659 -0.7499999999999999 0.9999999999999999
    vertex 52.70096189432334 0.7500000000000002 0.9999999999999999
  endloop
endfacet
facet normal 3.0561363355137363e-34 1.1661312596991969e-32 1.0
  outer loop
    vertex 52.70096189432334 0.7500000000000002 0.9999999999999999
    vertex 2.299038105676659 -0.7499999999999999 0.9999999999999999
    vertex 52.70096189432334 -0.7499999999999998 0.9999999999999999
  endloop
endfacet
facet normal 3.0561363355137363e-34 1.1661312596991969e-32 1.0
  outer loop
    vertex 52.70096189432334 0.7500000000000002 0.9999999999999999
    vertex 52.70096189432334 -0.7499999999999998 0.9999999999999999
    vertex 52.83493649053891 -1.2500000000000004 0.9999999999999999
  endloop
endfacet
facet normal 3.0561363355137363e-34 1.1661312596991969e-32 1.0
  outer loop
    vertex 52.70096189432334 0.7500000000000002 0.9999999999999999
    vertex 52.83493649053891 -1.2500000000000004 0.9999999999999999
    vertex 52.83493649053891 1.2499999999999996 0.9999999999999999
  endloop
endfacet
facet normal 3.0561363355137363e-34 1.1661312596991969e-32 1.0
  outer loop
    vertex 52.83493649053891 1.2499999999999996 0.9999999999999999
    vertex 52.83493649053891 -1.2500000000000004 0.9999999999999999
    vertex 53.75 -2.165063509461097 0.9999999999999999
  endloop
endfacet
facet normal 3.0561363355137363e-34 1.1661312596991969e-32 1.0
  outer loop
    vertex 52.83493649053891 1.2499999999999996 0.9999999999999999
    vertex 53.75 -2.165063509461097 0.9999999999999999
    vertex 53.75 2.1650635094610964 0.9999999999999999
  endloop
endfacet
facet normal 3.0561363355137363e-34 1.1661312596991969e-32 1.0
  outer loop
    vertex 53.75 2.1650635094610964 0.9999999999999999
    vertex 53.75 -2.165063509461097 0.9999999999999999
    vertex 54.0 -1.8369701987210292e-16 0.9999999999999999
  endloop
endfacet
facet normal 3.0561363355137363e-34 1.1661312596991969e-32 1.0
  outer loop
    vertex 54.0 -1.8369701987210292e-16 0.9999999999999999
    vertex 53.75 -2.165063509461097 0.9999999999999999
    vertex 54.133974596215566 -0.5000000000000003 0.9999999999999999
  endloop
endfacet
facet normal 3.0561363355137363e-34 1.1661312596991969e-32 1.0
  outer loop
    vertex 54.133974596215566 -0.5000000000000003 0.9999999999999999
    vertex 53.75 -2.165063509461097 0.9999999999999999
    vertex 55.0 -2.5 0.9999999999999999
  endloop
endfacet
facet normal 3.0561363355137363e-34 1.1661312596991969e-32 1.0
  outer loop
    vertex 54.133974596215566 -0.5000000000000003 0.9999999999999999
    vertex 55.0 -2.5 0.9999999999999999
    vertex 54.5 -0.8660254037844388 0.9999999999999999
  endloop
endfacet
facet normal 3.0561363355137363e-34 1.1661312596991969e-32 1.0
  outer loop
    vertex 54.5 -0.8660254037844388 0.9999999999999999
    vertex 55.0 -2.5 0.9999999999999999
    vertex 55.0 -0.9999999999999998 0.9999999999999999
  endloop
endfacet
facet normal 3.0561363355137363e-34 1.1661312596991969e-32 1.0
  outer loop
    vertex 55.0 -0.9999999999999998 0.9999999999999999
    vertex 55.0 -2.5 0.9999999999999999
    vertex 56.25 -2.1650635094610973 0.9999999999999999
  endloop
endfacet
facet normal 3.0561363355137363e-34 1.1661312596991969e-32 1.0
  outer loop
    vertex 55.0 -0.9999999999999998 0.9999999999999999
    vertex 56.25 -2.1650635094610973 0.9999999999999999
    vertex 55.5 -0.8660254037844383 0.9999999999999999
  endloop
endfacet
facet normal 3.0561363355137363e-34 1.1661312596991969e-32 1.0
  outer loop
    vertex 55.5 -0.8660254037844383 0.9999999999999999
    vertex 56.25 -2.1650635094610973 0.9999999999999999
    vertex 55.866025403784434 -0.4999999999999996 0.9999999999999999
  endloop
endfacet
facet normal 3.0561363355137363e-34 1.1661312596991969e-32 1.0
  outer loop
    vertex 55.866025403784434 -0.4999999999999996 0.9999999999999999
    vertex 56.25 -2.1650635094610973 0.9999999999999999
    vertex 56.0 6.123233995736765e-17 0.9999999999999999
  endloop
endfacet
facet normal 3.0561363355137363e-34 1.1661312596991969e-32 1.0
  outer loop
    vertex 53.75 2.1650635094610964 0.9999999999999999
    vertex 54.133974596215566 0.49999999999999994 0.9999999999999999
    vertex 55.0 2.5 0.9999999999999999
  endloop
endfacet
facet normal 3.0561363355137363e-34 1.1661312596991969e-32 1.0
  outer loop
    vertex 54.133974596215566 0.49999999999999994 0.9999999999999999
    vertex 53.75 2.1650635094610964 0.9999999999999999
    vertex 54.0 -1.8369701987210292e-16 0.9999999999999999
  endloop
endfacet
facet normal 3.0561363355137363e-34 1.1661312596991969e-32 1.0
  outer loop
    vertex 55.0 2.5 0.9999999999999999
    vertex 54.133974596215566 0.49999999999999994 0.9999999999999999
    vertex 54.5 0.8660254037844386 0.9999999999999999
  endloop
endfacet
facet normal 3.0561363355137363e-34 1.1661312596991969e-32 1.0
  outer loop
    vertex 55.0 2.5 0.9999999999999999
    vertex 54.5 0.8660254037844386 0.9999999999999999
    vertex 55.0 0.9999999999999998 0.9999999999999999
  endloop
endfacet
facet normal 3.0561363355137363e-34 1.1661312596991969e-32 1.0
  outer loop
    vertex 55.0 2.5 0.9999999999999999
    vertex 55.0 0.9999999999999998 0.9999999999999999
    vertex 55.5 0.8660254037844385 0.9999999999999999
  endloop
endfacet
facet normal 3.0561363355137363e-34 1.1661312596991969e-32 1.0
  outer loop
    vertex 55.0 2.5 0.9999999999999999
    vertex 55.5 0.8660254037844385 0.9999999999999999
    vertex 56.25 2.1650635094610977 0.9999999999999999
  endloop
endfacet
facet normal 3.0561363355137363e-34 1.1661312596991969e-32 1.0
  outer loop
    vertex 56.25 2.1650635094610977 0.9999999999999999
    vertex 55.5 0.8660254037844385 0.9999999999999999
    vertex 55.866025403784434 0.49999999999999994 0.9999999999999999
  endloop
endfacet
facet normal 3.0561363355137363e-34 1.1661312596991969e-32 1.0
  outer loop
    vertex 56.25 2.1650635094610977 0.9999999999999999
    vertex 55.866025403784434 0.49999999999999994 0.9999999999999999
    vertex 56.0 6.123233995736765e-17 0.9999999999999999
  endloop
endfacet
facet normal 3.0561363355137363e-34 1.1661312596991969e-32 1.0
  outer loop
    vertex 56.25 2.1650635094610977 0.9999999999999999
    vertex 56.0 6.123233995736765e-17 0.9999999999999999
    vertex 56.25 -2.1650635094610973 0.9999999999999999
  endloop
endfacet
facet normal 3.0561363355137363e-34 1.1661312596991969e-32 1.0
  outer loop
    vertex 56.25 2.1650635094610977 0.9999999999999999
    vertex 56.25 -2.1650635094610973 0.9999999999999999
    vertex 57.1650635094611 -1.2500000000000004 0.9999999999999999
  endloop
endfacet
facet normal 3.0561363355137363e-34 1.1661312596991969e-32 1.0
  outer loop
    vertex 56.25 2.1650635094610977 0.9999999999999999
    vertex 57.1650635094611 -1.2500000000000004 0.9999999999999999
    vertex 57.1650635094611 1.250000000000001 0.9999999999999999
  endloop
endfacet
facet normal 3.0561363355137363e-34 1.1661312596991969e-32 1.0
  outer loop
    vertex 57.1650635094611 1.250000000000001 0.9999999999999999
    vertex 57.1650635094611 -1.2500000000000004 0.9999999999999999
    vertex 57.49999999999999 4.592425496802574e-16 0.9999999999999999
  endloop
endfacet
facet normal 3.0561363355137363e-34 1.1661312596991969e-32 1.0
  outer loop
    vertex -2.1650635094610964 -1.2500000000000004 0.9999999999999999
    vertex -2.165063509461097 1.2499999999999996 0.9999999999999999
    vertex -2.5 -1.5308084989341916e-16 0.9999999999999999
  endloop
endfacet
facet normal 3.0561363355137363e-34 1.1661312596991969e-32 1.0
  outer loop
    vertex -2.165063509461097 1.2499999999999996 0.9999999999999999
    vertex -2.1650635094610964 -1.2500000000000004 0.9999999999999999
    vertex -1.2500000000000009 2.1650635094610964 0.9999999999999999
  endloop
endfacet
facet normal 3.0561363355137363e-34 1.1661312596991969e-32 1.0
  outer loop
    vertex -1.2500000000000009 2.1650635094610964 0.9999999999999999
    vertex -2.1650635094610964 -1.2500000000000004 0.9999999999999999
    vertex -1.2499999999999998 -2.165063509461097 0.9999999999999999
  endloop
endfacet
facet normal 3.0561363355137363e-34 1.1661312596991969e-32 1.0
  outer loop
    vertex -1.2500000000000009 2.1650635094610964 0.9999999999999999
    vertex -1.2499999999999998 -2.165063509461097 0.9999999999999999
    vertex -0.9999999999999998 -1.8369701987210292e-16 0.9999999999999999
  endloop
endfacet
facet normal 3.0561363355137363e-34 1.1661312596991969e-32 1.0
  outer loop
    vertex -1.2500000000000009 2.1650635094610964 0.9999999999999999
    vertex -0.9999999999999998 -1.8369701987210292e-16 0.9999999999999999
    vertex -0.8660254037844385 0.49999999999999994 0.9999999999999999
  endloop
endfacet
facet normal 3.0561363355137363e-34 1.1661312596991969e-32 1.0
  outer loop
    vertex -1.2500000000000009 2.1650635094610964 0.9999999999999999
    vertex -0.8660254037844385 0.49999999999999994 0.9999999999999999
    vertex -1.416384724411995e-15 2.5 0.9999999999999999
  endloop
endfacet
facet normal 3.0561363355137363e-34 1.1661312596991969e-32 1.0
  outer loop
    vertex -1.416384724411995e-15 2.5 0.9999999999999999
    vertex -0.8660254037844385 0.49999999999999994 0.9999999999999999
    vertex -0.4999999999999995 0.8660254037844386 0.9999999999999999
  endloop
endfacet
facet normal 3.0561363355137363e-34 1.1661312596991969e-32 1.0
  outer loop
    vertex -1.416384724411995e-15 2.5 0.9999999999999999
    vertex -0.4999999999999995 0.8660254037844386 0.9999999999999999
    vertex 0.0 0.9999999999999998 0.9999999999999999
  endloop
endfacet
facet normal 3.0561363355137363e-34 1.1661312596991969e-32 1.0
  outer loop
    vertex -1.416384724411995e-15 2.5 0.9999999999999999
    vertex 0.0 0.9999999999999998 0.9999999999999999
    vertex 1.2499999999999984 2.1650635094610977 0.9999999999999999
  endloop
endfacet
facet normal 3.0561363355137363e-34 1.1661312596991969e-32 1.0
  outer loop
    vertex 1.2499999999999984 2.1650635094610977 0.9999999999999999
    vertex 0.0 0.9999999999999998 0.9999999999999999
    vertex 0.4999999999999998 0.8660254037844385 0.9999999999999999
  endloop
endfacet
facet normal 3.0561363355137363e-34 1.1661312596991969e-32 1.0
  outer loop
    vertex 1.2499999999999984 2.1650635094610977 0.9999999999999999
    vertex 0.4999999999999998 0.8660254037844385 0.9999999999999999
    vertex 0.8660254037844385 0.49999999999999994 0.9999999999999999
  endloop
endfacet
facet normal 3.0561363355137363e-34 1.1661312596991969e-32 1.0
  outer loop
    vertex 1.2499999999999984 2.1650635094610977 0.9999999999999999
    vertex 0.8660254037844385 0.49999999999999994 0.9999999999999999
    vertex 0.9999999999999998 6.123233995736765e-17 0.9999999999999999
  endloop
endfacet
facet normal 1.7484243845365327e-18 -1.0 0.0
  outer loop
    vertex 52.70096189432334 -0.7499999999999998 0.9999999999999999
    vertex 2.299038105676659 -0.7499999999999999 0.0
    vertex 52.70096189432334 -0.7499999999999998 0.0
  endloop
endfacet
facet normal 1.7484243845365327e-18 -1.0 0.0
  outer loop
    vertex 2.299038105676659 -0.7499999999999999 0.0
    vertex 52.70096189432334 -0.7499999999999998 0.9999999999999999
    vertex 2.299038105676659 -0.7499999999999999 0.9999999999999999
  endloop
endfacet
facet normal 3.496848769073065e-18 1.0 -0.0
  outer loop
    vertex 2.299038105676657 0.7500000000000003 0.9999999999999999
    vertex 52.70096189432334 0.7500000000000002 0.0
    vertex 2.299038105676657 0.7500000000000003 0.0
  endloop
endfacet
facet normal 3.496848769073065e-18 1.0 -0.0
  outer loop
    vertex 52.70096189432334 0.7500000000000002 0.0
    vertex 2.299038105676657 0.7500000000000003 0.9999999999999999
    vertex 52.70096189432334 0.7500000000000002 0.9999999999999999
  endloop
endfacet
facet normal 0.2588190451025205 -0.9659258262890684 0.0
  outer loop
    vertex 1.2499999999999991 -2.1650635094610973 0.9999999999999999
    vertex 0.0 -2.5 -3.0
    vertex 1.2499999999999991 -2.1650635094610973 -3.0
  endloop
endfacet
facet normal 0.2588190451025205 -0.9659258262890684 0.0
  outer loop
    vertex 0.0 -2.5 -3.0
    vertex 1.2499999999999991 -2.1650635094610973 0.9999999999999999
    vertex 0.0 -2.5 0.9999999999999999
  endloop
endfacet
facet normal -0.25881904510252063 -0.9659258262890684 -0.0
  outer loop
    vertex 0.0 -2.5 0.9999999999999999
    vertex -1.2499999999999998 -2.165063509461097 -3.0
    vertex 0.0 -2.5 -3.0
  endloop
endfacet
facet normal -0.25881904510252063 -0.9659258262890684 -0.0
  outer loop
    vertex -1.2499999999999998 -2.165063509461097 -3.0
    vertex 0.0 -2.5 0.9999999999999999
    vertex -1.2499999999999998 -2.165063509461097 0.9999999999999999
  endloop
endfacet
facet normal -0.7071067811865475 -0.7071067811865477 -0.0
  outer loop
    vertex -1.2499999999999998 -2.165063509461097 0.9999999999999999
    vertex -2.1650635094610964 -1.2500000000000004 -3.0
    vertex -1.2499999999999998 -2.165063509461097 -3.0
  endloop
endfacet
facet normal -0.7071067811865475 -0.7071067811865477 -0.0
  outer loop
    vertex -2.1650635094610964 -1.2500000000000004 -3.0
    vertex -1.2499999999999998 -2.165063509461097 0.9999999999999999
    vertex -2.1650635094610964 -1.2500000000000004 0.9999999999999999
  endloop
endfacet
facet normal -0.9659258262890683 -0.25881904510252085 -0.0
  outer loop
    vertex -2.5 -1.5308084989341916e-16 0.9999999999999999
    vertex -2.1650635094610964 -1.2500000000000004 -3.0
    vertex -2.1650635094610964 -1.2500000000000004 0.9999999999999999
  endloop
endfacet
facet normal -0.9659258262890683 -0.25881904510252085 -0.0
  outer loop
    vertex -2.1650635094610964 -1.2500000000000004 -3.0
    vertex -2.5 -1.5308084989341916e-16 0.9999999999999999
    vertex -2.5 -1.5308084989341916e-16 -3.0
  endloop
endfacet
facet normal -0.9659258262890683 0.25881904510252063 0.0
  outer loop
    vertex -2.165063509461097 1.2499999999999996 0.9999999999999999
    vertex -2.5 -1.5308084989341916e-16 -3.0
    vertex -2.5 -1.5308084989341916e-16 0.9999999999999999
  endloop
endfacet
facet normal -0.9659258262890683 0.25881904510252063 0.0
  outer loop
    vertex -2.5 -1.5308084989341916e-16 -3.0
    vertex -2.165063509461097 1.2499999999999996 0.9999999999999999
    vertex -2.165063509461097 1.2499999999999996 -3.0
  endloop
endfacet
facet normal -0.7071067811865478 0.7071067811865472 0.0
  outer loop
    vertex -1.2500000000000009 2.1650635094610964 0.9999999999999999
    vertex -2.165063509461097 1.2499999999999996 -3.0
    vertex -2.165063509461097 1.2499999999999996 0.9999999999999999
  endloop
endfacet
facet normal -0.7071067811865478 0.7071067811865472 0.0
  outer loop
    vertex -2.165063509461097 1.2499999999999996 -3.0
    vertex -1.2500000000000009 2.1650635094610964 0.9999999999999999
    vertex -1.2500000000000009 2.1650635094610964 -3.0
  endloop
endfacet
facet normal -0.2588190451025212 0.9659258262890682 0.0
  outer loop
    vertex -1.2500000000000009 2.1650635094610964 0.9999999999999999
    vertex -1.416384724411995e-15 2.5 -3.0
    vertex -1.2500000000000009 2.1650635094610964 -3.0
  endloop
endfacet
facet normal -0.2588190451025212 0.9659258262890682 0.0
  outer loop
    vertex -1.416384724411995e-15 2.5 -3.0
    vertex -1.2500000000000009 2.1650635094610964 0.9999999999999999
    vertex -1.416384724411995e-15 2.5 0.9999999999999999
  endloop
endfacet
facet normal 0.2588190451025201 0.9659258262890684 0.0
  outer loop
    vertex -1.416384724411995e-15 2.5 0.9999999999999999
    vertex 1.2499999999999984 2.1650635094610977 -3.0
    vertex -1.416384724411995e-15 2.5 -3.0
  endloop
endfacet
facet normal 0.2588190451025201 0.9659258262890684 0.0
  outer loop
    vertex 1.2499999999999984 2.1650635094610977 -3.0
    vertex -1.416384724411995e-15 2.5 0.9999999999999999
    vertex 1.2499999999999984 2.1650635094610977 0.9999999999999999
  endloop
endfacet
facet normal 0.7071067811865472 0.7071067811865479 0.0
  outer loop
    vertex 1.2499999999999984 2.1650635094610977 0.9999999999999999
    vertex 2.165063509461096 1.250000000000001 -3.0
    vertex 1.2499999999999984 2.1650635094610977 -3.0
  endloop
endfacet
facet normal 0.7071067811865472 0.7071067811865479 0.0
  outer loop
    vertex 2.165063509461096 1.250000000000001 -3.0
    vertex 1.2499999999999984 2.1650635094610977 0.9999999999999999
    vertex 2.165063509461096 1.250000000000001 0.9999999999999999
  endloop
endfacet
facet normal 0.9659258262890682 0.25881904510252124 1.3611333026243276e-17
  outer loop
    vertex 2.299038105676657 0.7500000000000003 -3.0
    vertex 2.5 4.592425496802574e-16 0.0
    vertex 2.5 4.592425496802574e-16 -3.0
  endloop
endfacet
facet normal 0.9659258262890682 0.25881904510252124 1.3611333026243276e-17
  outer loop
    vertex 2.5 4.592425496802574e-16 0.0
    vertex 2.299038105676657 0.7500000000000003 -3.0
    vertex 2.299038105676657 0.7500000000000003 0.0
  endloop
endfacet
facet normal 0.9659258262890682 0.25881904510252124 1.3611333026243276e-17
  outer loop
    vertex 2.299038105676657 0.7500000000000003 0.0
    vertex 2.299038105676657 0.7500000000000003 -3.0
    vertex 2.165063509461096 1.250000000000001 -3.0
  endloop
endfacet
facet normal 0.9659258262890682 0.25881904510252124 1.3611333026243276e-17
  outer loop
    vertex 2.299038105676657 0.7500000000000003 0.0
    vertex 2.165063509461096 1.250000000000001 -3.0
    vertex 2.299038105676657 0.7500000000000003 0.9999999999999999
  endloop
endfacet
facet normal 0.9659258262890682 0.25881904510252124 1.3611333026243276e-17
  outer loop
    vertex 2.299038105676657 0.7500000000000003 0.9999999999999999
    vertex 2.165063509461096 1.250000000000001 -3.0
    vertex 2.165063509461096 1.250000000000001 0.9999999999999999
  endloop
endfacet
facet normal 0.7071067811865474 -0.7071067811865478 0.0
  outer loop
    vertex 2.1650635094610964 -1.2500000000000004 0.9999999999999999
    vertex 1.2499999999999991 -2.1650635094610973 -3.0
    vertex 2.1650635094610964 -1.2500000000000004 -3.0
  endloop
endfacet
facet normal 0.7071067811865474 -0.7071067811865478 0.0
  outer loop
    vertex 1.2499999999999991 -2.1650635094610973 -3.0
    vertex 2.1650635094610964 -1.2500000000000004 0.9999999999999999
    vertex 1.2499999999999991 -2.1650635094610973 0.9999999999999999
  endloop
endfacet
facet normal -0.7071067811865479 0.7071067811865472 1.4267590106357391e-18
  outer loop
    vertex 0.8660254037844385 -0.4999999999999996 0.9999999999999999
    vertex 0.5000000000000002 -0.8660254037844383 -3.0
    vertex 0.5000000000000002 -0.8660254037844383 0.9999999999999999
  endloop
endfacet
facet normal -0.7071067811865479 0.7071067811865472 1.4267590106357391e-18
  outer loop
    vertex 0.5000000000000002 -0.8660254037844383 -3.0
    vertex 0.8660254037844385 -0.4999999999999996 0.9999999999999999
    vertex 0.8660254037844385 -0.4999999999999996 -3.0
  endloop
endfacet
facet normal -0.9659258262890682 0.25881904510252085 2.01895461274545e-18
  outer loop
    vertex 0.9999999999999998 6.123233995736765e-17 0.9999999999999999
    vertex 0.8660254037844385 -0.4999999999999996 -3.0
    vertex 0.8660254037844385 -0.4999999999999996 0.9999999999999999
  endloop
endfacet
facet normal -0.9659258262890682 0.25881904510252085 2.01895461274545e-18
  outer loop
    vertex 0.8660254037844385 -0.4999999999999996 -3.0
    vertex 0.9999999999999998 6.123233995736765e-17 0.9999999999999999
    vertex 0.9999999999999998 6.123233995736765e-17 -3.0
  endloop
endfacet
facet normal -0.9659258262890684 -0.25881904510252074 1.0444600859420644e-18
  outer loop
    vertex 0.8660254037844385 0.49999999999999994 0.9999999999999999
    vertex 0.9999999999999998 6.123233995736765e-17 -3.0
    vertex 0.9999999999999998 6.123233995736765e-17 0.9999999999999999
  endloop
endfacet
facet normal -0.9659258262890684 -0.25881904510252074 1.0444600859420644e-18
  outer loop
    vertex 0.9999999999999998 6.123233995736765e-17 -3.0
    vertex 0.8660254037844385 0.49999999999999994 0.9999999999999999
    vertex 0.8660254037844385 0.49999999999999994 -3.0
  endloop
endfacet
facet normal -0.7071067811865474 -0.7071067811865477 -1.4267590106357386e-18
  outer loop
    vertex 0.8660254037844385 0.49999999999999994 0.9999999999999999
    vertex 0.4999999999999998 0.8660254037844385 -3.0
    vertex 0.8660254037844385 0.49999999999999994 -3.0
  endloop
endfacet
facet normal -0.7071067811865474 -0.7071067811865477 -1.4267590106357386e-18
  outer loop
    vertex 0.4999999999999998 0.8660254037844385 -3.0
    vertex 0.8660254037844385 0.49999999999999994 0.9999999999999999
    vertex 0.4999999999999998 0.8660254037844385 0.9999999999999999
  endloop
endfacet
facet normal -0.2588190451025208 -0.9659258262890684 9.744945268033853e-19
  outer loop
    vertex 0.4999999999999998 0.8660254037844385 0.9999999999999999
    vertex 0.0 0.9999999999999998 -3.0
    vertex 0.4999999999999998 0.8660254037844385 -3.0
  endloop
endfacet
facet normal -0.2588190451025208 -0.9659258262890684 9.744945268033853e-19
  outer loop
    vertex 0.0 0.9999999999999998 -3.0
    vertex 0.4999999999999998 0.8660254037844385 0.9999999999999999
    vertex 0.0 0.9999999999999998 0.9999999999999999
  endloop
endfacet
facet normal 0.2588190451025206 -0.9659258262890684 -1.0444600859420638e-18
  outer loop
    vertex 0.0 0.9999999999999998 0.9999999999999999
    vertex -0.4999999999999995 0.8660254037844386 -3.0
    vertex 0.0 0.9999999999999998 -3.0
  endloop
endfacet
facet normal 0.2588190451025206 -0.9659258262890684 -1.0444600859420638e-18
  outer loop
    vertex -0.4999999999999995 0.8660254037844386 -3.0
    vertex 0.0 0.9999999999999998 0.9999999999999999
    vertex -0.4999999999999995 0.8660254037844386 0.9999999999999999
  endloop
endfacet
facet normal 0.7071067811865472 -0.7071067811865478 9.932180653597046e-34
  outer loop
    vertex -0.4999999999999995 0.8660254037844386 0.9999999999999999
    vertex -0.8660254037844385 0.49999999999999994 -3.0
    vertex -0.4999999999999995 0.8660254037844386 -3.0
  endloop
endfacet
facet normal 0.7071067811865472 -0.7071067811865478 9.932180653597046e-34
  outer loop
    vertex -0.8660254037844385 0.49999999999999994 -3.0
    vertex -0.4999999999999995 0.8660254037844386 0.9999999999999999
    vertex -0.8660254037844385 0.49999999999999994 0.9999999999999999
  endloop
endfacet
facet normal 0.9659258262890684 -0.25881904510252063 -6.996555913867871e-20
  outer loop
    vertex -0.8660254037844385 0.49999999999999994 -3.0
    vertex -0.9999999999999998 -1.8369701987210292e-16 0.9999999999999999
    vertex -0.9999999999999998 -1.8369701987210292e-16 -3.0
  endloop
endfacet
facet normal 0.9659258262890684 -0.25881904510252063 -6.996555913867871e-20
  outer loop
    vertex -0.9999999999999998 -1.8369701987210292e-16 0.9999999999999999
    vertex -0.8660254037844385 0.49999999999999994 -3.0
    vertex -0.8660254037844385 0.49999999999999994 0.9999999999999999
  endloop
endfacet
facet normal 0.9659258262890682 0.25881904510252124 1.0444600859420665e-18
  outer loop
    vertex -0.9999999999999998 -1.8369701987210292e-16 -3.0
    vertex -0.8660254037844382 -0.5000000000000003 0.9999999999999999
    vertex -0.8660254037844382 -0.5000000000000003 -3.0
  endloop
endfacet
facet normal 0.9659258262890682 0.25881904510252124 1.0444600859420665e-18
  outer loop
    vertex -0.8660254037844382 -0.5000000000000003 0.9999999999999999
    vertex -0.9999999999999998 -1.8369701987210292e-16 -3.0
    vertex -0.9999999999999998 -1.8369701987210292e-16 0.9999999999999999
  endloop
endfacet
facet normal 0.7071067811865472 0.7071067811865479 -1.4267590106357391e-18
  outer loop
    vertex -0.8660254037844382 -0.5000000000000003 0.9999999999999999
    vertex -0.49999999999999917 -0.8660254037844388 -3.0
    vertex -0.8660254037844382 -0.5000000000000003 -3.0
  endloop
endfacet
facet normal 0.7071067811865472 0.7071067811865479 -1.4267590106357391e-18
  outer loop
    vertex -0.49999999999999917 -0.8660254037844388 -3.0
    vertex -0.8660254037844382 -0.5000000000000003 0.9999999999999999
    vertex -0.49999999999999917 -0.8660254037844388 0.9999999999999999
  endloop
endfacet
facet normal 0.2588190451025208 -0.9659258262890684 0.0
  outer loop
    vertex 56.25 -2.1650635094610973 0.9999999999999999
    vertex 55.0 -2.5 -3.0
    vertex 56.25 -2.1650635094610973 -3.0
  endloop
endfacet
facet normal 0.2588190451025208 -0.9659258262890684 0.0
  outer loop
    vertex 55.0 -2.5 -3.0
    vertex 56.25 -2.1650635094610973 0.9999999999999999
    vertex 55.0 -2.5 0.9999999999999999
  endloop
endfacet
facet normal -0.258819045102521 -0.9659258262890682 -0.0
  outer loop
    vertex 55.0 -2.5 0.9999999999999999
    vertex 53.75 -2.165063509461097 -3.0
    vertex 55.0 -2.5 -3.0
  endloop
endfacet
facet normal -0.258819045102521 -0.9659258262890682 -0.0
  outer loop
    vertex 53.75 -2.165063509461097 -3.0
    vertex 55.0 -2.5 0.9999999999999999
    vertex 53.75 -2.165063509461097 0.9999999999999999
  endloop
endfacet
facet normal -0.7071067811865472 -0.7071067811865479 -0.0
  outer loop
    vertex 53.75 -2.165063509461097 0.9999999999999999
    vertex 52.83493649053891 -1.2500000000000004 -3.0
    vertex 53.75 -2.165063509461097 -3.0
  endloop
endfacet
facet normal -0.7071067811865472 -0.7071067811865479 -0.0
  outer loop
    vertex 52.83493649053891 -1.2500000000000004 -3.0
    vertex 53.75 -2.165063509461097 0.9999999999999999
    vertex 52.83493649053891 -1.2500000000000004 0.9999999999999999
  endloop
endfacet
facet normal -0.9659258262890692 -0.25881904510251813 -1.7694732934116293e-16
  outer loop
    vertex 52.70096189432334 -0.7499999999999998 0.9999999999999999
    vertex 52.83493649053891 -1.2500000000000004 -3.0
    vertex 52.83493649053891 -1.2500000000000004 0.9999999999999999
  endloop
endfacet
facet normal -0.9659258262890692 -0.25881904510251813 -1.7694732934116293e-16
  outer loop
    vertex 52.83493649053891 -1.2500000000000004 -3.0
    vertex 52.70096189432334 -0.7499999999999998 0.9999999999999999
    vertex 52.70096189432334 -0.7499999999999998 -3.0
  endloop
endfacet
facet normal -0.9659258262890692 -0.25881904510251813 -1.7694732934116293e-16
  outer loop
    vertex 52.70096189432334 -0.7499999999999998 -3.0
    vertex 52.70096189432334 -0.7499999999999998 0.9999999999999999
    vertex 52.70096189432334 -0.7499999999999998 0.0
  endloop
endfacet
facet normal -0.9659258262890692 -0.25881904510251813 -1.7694732934116293e-16
  outer loop
    vertex 52.70096189432334 -0.7499999999999998 -3.0
    vertex 52.70096189432334 -0.7499999999999998 0.0
    vertex 52.50000000000001 -1.5308084989341916e-16 0.0
  endloop
endfacet
facet normal -0.9659258262890692 -0.25881904510251813 -1.7694732934116293e-16
  outer loop
    vertex 52.70096189432334 -0.7499999999999998 -3.0
    vertex 52.50000000000001 -1.5308084989341916e-16 0.0
    vertex 52.50000000000001 -1.5308084989341916e-16 -3.0
  endloop
endfacet
facet normal -0.7071067811865472 0.7071067811865478 0.0
  outer loop
    vertex 52.83493649053891 1.2499999999999996 0.9999999999999999
    vertex 53.75 2.1650635094610964 -3.0
    vertex 52.83493649053891 1.2499999999999996 -3.0
  endloop
endfacet
facet normal -0.7071067811865472 0.7071067811865478 0.0
  outer loop
    vertex 53.75 2.1650635094610964 -3.0
    vertex 52.83493649053891 1.2499999999999996 0.9999999999999999
    vertex 53.75 2.1650635094610964 0.9999999999999999
  endloop
endfacet
facet normal -0.25881904510252157 0.9659258262890682 0.0
  outer loop
    vertex 53.75 2.1650635094610964 0.9999999999999999
    vertex 55.0 2.5 -3.0
    vertex 53.75 2.1650635094610964 -3.0
  endloop
endfacet
facet normal -0.25881904510252157 0.9659258262890682 0.0
  outer loop
    vertex 55.0 2.5 -3.0
    vertex 53.75 2.1650635094610964 0.9999999999999999
    vertex 55.0 2.5 0.9999999999999999
  endloop
endfacet
facet normal 0.2588190451025205 0.9659258262890684 0.0
  outer loop
    vertex 55.0 2.5 0.9999999999999999
    vertex 56.25 2.1650635094610977 -3.0
    vertex 55.0 2.5 -3.0
  endloop
endfacet
facet normal 0.2588190451025205 0.9659258262890684 0.0
  outer loop
    vertex 56.25 2.1650635094610977 -3.0
    vertex 55.0 2.5 0.9999999999999999
    vertex 56.25 2.1650635094610977 0.9999999999999999
  endloop
endfacet
facet normal 0.7071067811865472 0.7071067811865479 0.0
  outer loop
    vertex 56.25 2.1650635094610977 0.9999999999999999
    vertex 57.1650635094611 1.250000000000001 -3.0
    vertex 56.25 2.1650635094610977 -3.0
  endloop
endfacet
facet normal 0.7071067811865472 0.7071067811865479 0.0
  outer loop
    vertex 57.1650635094611 1.250000000000001 -3.0
    vertex 56.25 2.1650635094610977 0.9999999999999999
    vertex 57.1650635094611 1.250000000000001 0.9999999999999999
  endloop
endfacet
facet normal 0.965925826289069 0.25881904510251846 0.0
  outer loop
    vertex 57.1650635094611 1.250000000000001 -3.0
    vertex 57.49999999999999 4.592425496802574e-16 0.9999999999999999
    vertex 57.49999999999999 4.592425496802574e-16 -3.0
  endloop
endfacet
facet normal 0.965925826289069 0.25881904510251846 0.0
  outer loop
    vertex 57.49999999999999 4.592425496802574e-16 0.9999999999999999
    vertex 57.1650635094611 1.250000000000001 -3.0
    vertex 57.1650635094611 1.250000000000001 0.9999999999999999
  endloop
endfacet
facet normal 0.9659258262890691 -0.2588190451025184 0.0
  outer loop
    vertex 57.49999999999999 4.592425496802574e-16 -3.0
    vertex 57.1650635094611 -1.2500000000000004 0.9999999999999999
    vertex 57.1650635094611 -1.2500000000000004 -3.0
  endloop
endfacet
facet normal 0.9659258262890691 -0.2588190451025184 0.0
  outer loop
    vertex 57.1650635094611 -1.2500000000000004 0.9999999999999999
    vertex 57.49999999999999 4.592425496802574e-16 -3.0
    vertex 57.49999999999999 4.592425496802574e-16 0.9999999999999999
  endloop
endfacet
facet normal 0.7071067811865474 -0.7071067811865478 0.0
  outer loop
    vertex 57.1650635094611 -1.2500000000000004 0.9999999999999999
    vertex 56.25 -2.1650635094610973 -3.0
    vertex 57.1650635094611 -1.2500000000000004 -3.0
  endloop
endfacet
facet normal 0.7071067811865474 -0.7071067811865478 0.0
  outer loop
    vertex 56.25 -2.1650635094610973 -3.0
    vertex 57.1650635094611 -1.2500000000000004 0.9999999999999999
    vertex 56.25 -2.1650635094610973 0.9999999999999999
  endloop
endfacet
facet normal 0.2588190451025206 0.9659258262890684 9.744945268033853e-19
  outer loop
    vertex 54.5 -0.8660254037844388 0.9999999999999999
    vertex 55.0 -0.9999999999999998 -3.0
    vertex 54.5 -0.8660254037844388 -3.0
  endloop
endfacet
facet normal 0.2588190451025206 0.9659258262890684 9.744945268033853e-19
  outer loop
    vertex 55.0 -0.9999999999999998 -3.0
    vertex 54.5 -0.8660254037844388 0.9999999999999999
    vertex 55.0 -0.9999999999999998 0.9999999999999999
  endloop
endfacet
facet normal -0.2588190451025214 0.9659258262890682 -0.0
  outer loop
    vertex 55.0 -0.9999999999999998 0.9999999999999999
    vertex 55.5 -0.8660254037844383 -3.0
    vertex 55.0 -0.9999999999999998 -3.0
  endloop
endfacet
facet normal -0.2588190451025214 0.9659258262890682 -0.0
  outer loop
    vertex 55.5 -0.8660254037844383 -3.0
    vertex 55.0 -0.9999999999999998 0.9999999999999999
    vertex 55.5 -0.8660254037844383 0.9999999999999999
  endloop
endfacet
facet normal -0.7071067811865517 0.7071067811865434 0.0
  outer loop
    vertex 55.866025403784434 -0.4999999999999996 0.9999999999999999
    vertex 55.5 -0.8660254037844383 -3.0
    vertex 55.5 -0.8660254037844383 0.9999999999999999
  endloop
endfacet
facet normal -0.7071067811865517 0.7071067811865434 0.0
  outer loop
    vertex 55.5 -0.8660254037844383 -3.0
    vertex 55.866025403784434 -0.4999999999999996 0.9999999999999999
    vertex 55.866025403784434 -0.4999999999999996 -3.0
  endloop
endfacet
facet normal -0.9659258262890668 0.2588190451025269 1.0444600859420892e-18
  outer loop
    vertex 56.0 6.123233995736765e-17 0.9999999999999999
    vertex 55.866025403784434 -0.4999999999999996 -3.0
    vertex 55.866025403784434 -0.4999999999999996 0.9999999999999999
  endloop
endfacet
facet normal -0.9659258262890668 0.2588190451025269 1.0444600859420892e-18
  outer loop
    vertex 55.866025403784434 -0.4999999999999996 -3.0
    vertex 56.0 6.123233995736765e-17 0.9999999999999999
    vertex 56.0 6.123233995736765e-17 -3.0
  endloop
endfacet
facet normal -0.9659258262890668 -0.2588190451025268 1.0444600859420888e-18
  outer loop
    vertex 55.866025403784434 0.49999999999999994 0.9999999999999999
    vertex 56.0 6.123233995736765e-17 -3.0
    vertex 56.0 6.123233995736765e-17 0.9999999999999999
  endloop
endfacet
facet normal -0.9659258262890668 -0.2588190451025268 1.0444600859420888e-18
  outer loop
    vertex 56.0 6.123233995736765e-17 -3.0
    vertex 55.866025403784434 0.49999999999999994 0.9999999999999999
    vertex 55.866025403784434 0.49999999999999994 -3.0
  endloop
endfacet
facet normal -0.7071067811865515 -0.7071067811865436 1.4267590106357617e-18
  outer loop
    vertex 55.5 0.8660254037844385 0.9999999999999999
    vertex 55.866025403784434 0.49999999999999994 -3.0
    vertex 55.866025403784434 0.49999999999999994 0.9999999999999999
  endloop
endfacet
facet normal -0.7071067811865515 -0.7071067811865436 1.4267590106357617e-18
  outer loop
    vertex 55.866025403784434 0.49999999999999994 -3.0
    vertex 55.5 0.8660254037844385 0.9999999999999999
    vertex 55.5 0.8660254037844385 -3.0
  endloop
endfacet
facet normal -0.2588190451025212 -0.9659258262890682 9.744945268033851e-19
  outer loop
    vertex 55.5 0.8660254037844385 0.9999999999999999
    vertex 55.0 0.9999999999999998 -3.0
    vertex 55.5 0.8660254037844385 -3.0
  endloop
endfacet
facet normal -0.2588190451025212 -0.9659258262890682 9.744945268033851e-19
  outer loop
    vertex 55.0 0.9999999999999998 -3.0
    vertex 55.5 0.8660254037844385 0.9999999999999999
    vertex 55.0 0.9999999999999998 0.9999999999999999
  endloop
endfacet
facet normal 0.2588190451025208 -0.9659258262890682 0.0
  outer loop
    vertex 55.0 0.9999999999999998 0.9999999999999999
    vertex 54.5 0.8660254037844386 -3.0
    vertex 55.0 0.9999999999999998 -3.0
  endloop
endfacet
facet normal 0.2588190451025208 -0.9659258262890682 0.0
  outer loop
    vertex 54.5 0.8660254037844386 -3.0
    vertex 55.0 0.9999999999999998 0.9999999999999999
    vertex 54.5 0.8660254037844386 0.9999999999999999
  endloop
endfacet
facet normal 0.7071067811865516 -0.7071067811865435 1.42675901063573e-18
  outer loop
    vertex 54.5 0.8660254037844386 -3.0
    vertex 54.133974596215566 0.49999999999999994 0.9999999999999999
    vertex 54.133974596215566 0.49999999999999994 -3.0
  endloop
endfacet
facet normal 0.7071067811865516 -0.7071067811865435 1.42675901063573e-18
  outer loop
    vertex 54.133974596215566 0.49999999999999994 0.9999999999999999
    vertex 54.5 0.8660254037844386 -3.0
    vertex 54.5 0.8660254037844386 0.9999999999999999
  endloop
endfacet
facet normal 0.9659258262890668 -0.2588190451025266 -1.044460085942088e-18
  outer loop
    vertex 54.133974596215566 0.49999999999999994 -3.0
    vertex 54.0 -1.8369701987210292e-16 0.9999999999999999
    vertex 54.0 -1.8369701987210292e-16 -3.0
  endloop
endfacet
facet normal 0.9659258262890668 -0.2588190451025266 -1.044460085942088e-18
  outer loop
    vertex 54.0 -1.8369701987210292e-16 0.9999999999999999
    vertex 54.133974596215566 0.49999999999999994 -3.0
    vertex 54.133974596215566 0.49999999999999994 0.9999999999999999
  endloop
endfacet
facet normal 0.9659258262890668 0.25881904510252673 1.0444600859420885e-18
  outer loop
    vertex 54.0 -1.8369701987210292e-16 -3.0
    vertex 54.133974596215566 -0.5000000000000003 0.9999999999999999
    vertex 54.133974596215566 -0.5000000000000003 -3.0
  endloop
endfacet
facet normal 0.9659258262890668 0.25881904510252673 1.0444600859420885e-18
  outer loop
    vertex 54.133974596215566 -0.5000000000000003 0.9999999999999999
    vertex 54.0 -1.8369701987210292e-16 -3.0
    vertex 54.0 -1.8369701987210292e-16 0.9999999999999999
  endloop
endfacet
facet normal 0.7071067811865515 0.7071067811865436 -2.853518021271476e-18
  outer loop
    vertex 54.133974596215566 -0.5000000000000003 -3.0
    vertex 54.5 -0.8660254037844388 0.9999999999999999
    vertex 54.5 -0.8660254037844388 -3.0
  endloop
endfacet
facet normal 0.7071067811865515 0.7071067811865436 -2.853518021271476e-18
  outer loop
    vertex 54.5 -0.8660254037844388 0.9999999999999999
    vertex 54.133974596215566 -0.5000000000000003 -3.0
    vertex 54.133974596215566 -0.5000000000000003 0.9999999999999999
  endloop
endfacet
facet normal 0.0 0.0 -1.0
  outer loop
    vertex -2.165063509461097 1.2499999999999996 -3.0
    vertex -2.1650635094610964 -1.2500000000000004 -3.0
    vertex -2.5 -1.5308084989341916e-16 -3.0
  endloop
endfacet
facet normal 0.0 0.0 -1.0
  outer loop
    vertex -2.1650635094610964 -1.2500000000000004 -3.0
    vertex -2.165063509461097 1.2499999999999996 -3.0
    vertex -1.2500000000000009 2.1650635094610964 -3.0
  endloop
endfacet
facet normal 0.0 0.0 -1.0
  outer loop
    vertex -2.1650635094610964 -1.2500000000000004 -3.0
    vertex -1.2500000000000009 2.1650635094610964 -3.0
    vertex -1.2499999999999998 -2.165063509461097 -3.0
  endloop
endfacet
facet normal 0.0 0.0 -1.0
  outer loop
    vertex -1.2499999999999998 -2.165063509461097 -3.0
    vertex -1.2500000000000009 2.1650635094610964 -3.0
    vertex -0.9999999999999998 -1.8369701987210292e-16 -3.0
  endloop
endfacet
facet normal 0.0 0.0 -1.0
  outer loop
    vertex -0.9999999999999998 -1.8369701987210292e-16 -3.0
    vertex -1.2500000000000009 2.1650635094610964 -3.0
    vertex -0.8660254037844385 0.49999999999999994 -3.0
  endloop
endfacet
facet normal 0.0 0.0 -1.0
  outer loop
    vertex -0.8660254037844385 0.49999999999999994 -3.0
    vertex -1.2500000000000009 2.1650635094610964 -3.0
    vertex -1.416384724411995e-15 2.5 -3.0
  endloop
endfacet
facet normal 0.0 0.0 -1.0
  outer loop
    vertex -0.8660254037844385 0.49999999999999994 -3.0
    vertex -1.416384724411995e-15 2.5 -3.0
    vertex -0.4999999999999995 0.8660254037844386 -3.0
  endloop
endfacet
facet normal 0.0 0.0 -1.0
  outer loop
    vertex -0.4999999999999995 0.8660254037844386 -3.0
    vertex -1.416384724411995e-15 2.5 -3.0
    vertex 0.0 0.9999999999999998 -3.0
  endloop
endfacet
facet normal 0.0 0.0 -1.0
  outer loop
    vertex 0.0 0.9999999999999998 -3.0
    vertex -1.416384724411995e-15 2.5 -3.0
    vertex 1.2499999999999984 2.1650635094610977 -3.0
  endloop
endfacet
facet normal 0.0 0.0 -1.0
  outer loop
    vertex 0.0 0.9999999999999998 -3.0
    vertex 1.2499999999999984 2.1650635094610977 -3.0
    vertex 0.4999999999999998 0.8660254037844385 -3.0
  endloop
endfacet
facet normal 0.0 0.0 -1.0
  outer loop
    vertex 0.4999999999999998 0.8660254037844385 -3.0
    vertex 1.2499999999999984 2.1650635094610977 -3.0
    vertex 0.8660254037844385 0.49999999999999994 -3.0
  endloop
endfacet
facet normal 0.0 0.0 -1.0
  outer loop
    vertex 0.8660254037844385 0.49999999999999994 -3.0
    vertex 1.2499999999999984 2.1650635094610977 -3.0
    vertex 0.9999999999999998 6.123233995736765e-17 -3.0
  endloop
endfacet
facet normal 0.0 0.0 -1.0
  outer loop
    vertex -1.2499999999999998 -2.165063509461097 -3.0
    vertex -0.8660254037844382 -0.5000000000000003 -3.0
    vertex 0.0 -2.5 -3.0
  endloop
endfacet
facet normal 0.0 0.0 -1.0
  outer loop
    vertex -0.8660254037844382 -0.5000000000000003 -3.0
    vertex -1.2499999999999998 -2.165063509461097 -3.0
    vertex -0.9999999999999998 -1.8369701987210292e-16 -3.0
  endloop
endfacet
facet normal 0.0 0.0 -1.0
  outer loop
    vertex 0.0 -2.5 -3.0
    vertex -0.8660254037844382 -0.5000000000000003 -3.0
    vertex -0.49999999999999917 -0.8660254037844388 -3.0
  endloop
endfacet
facet normal 0.0 0.0 -1.0
  outer loop
    vertex 0.0 -2.5 -3.0
    vertex -0.49999999999999917 -0.8660254037844388 -3.0
    vertex 5.665538897647978e-16 -0.9999999999999998 -3.0
  endloop
endfacet
facet normal 0.0 0.0 -1.0
  outer loop
    vertex 0.0 -2.5 -3.0
    vertex 5.665538897647978e-16 -0.9999999999999998 -3.0
    vertex 1.2499999999999991 -2.1650635094610973 -3.0
  endloop
endfacet
facet normal 0.0 0.0 -1.0
  outer loop
    vertex 1.2499999999999991 -2.1650635094610973 -3.0
    vertex 5.665538897647978e-16 -0.9999999999999998 -3.0
    vertex 0.5000000000000002 -0.8660254037844383 -3.0
  endloop
endfacet
facet normal 0.0 0.0 -1.0
  outer loop
    vertex 1.2499999999999991 -2.1650635094610973 -3.0
    vertex 0.5000000000000002 -0.8660254037844383 -3.0
    vertex 0.8660254037844385 -0.4999999999999996 -3.0
  endloop
endfacet
facet normal 0.0 0.0 -1.0
  outer loop
    vertex 1.2499999999999991 -2.1650635094610973 -3.0
    vertex 0.8660254037844385 -0.4999999999999996 -3.0
    vertex 0.9999999999999998 6.123233995736765e-17 -3.0
  endloop
endfacet
facet normal 0.0 0.0 -1.0
  outer loop
    vertex 1.2499999999999991 -2.1650635094610973 -3.0
    vertex 0.9999999999999998 6.123233995736765e-17 -3.0
    vertex 1.2499999999999984 2.1650635094610977 -3.0
  endloop
endfacet
facet normal 0.0 0.0 -1.0
  outer loop
    vertex 1.2499999999999991 -2.1650635094610973 -3.0
    vertex 1.2499999999999984 2.1650635094610977 -3.0
    vertex 2.165063509461096 1.250000000000001 -3.0
  endloop
endfacet
facet normal 0.0 0.0 -1.0
  outer loop
    vertex 1.2499999999999991 -2.1650635094610973 -3.0
    vertex 2.165063509461096 1.250000000000001 -3.0
    vertex 2.1650635094610964 -1.2500000000000004 -3.0
  endloop
endfacet
facet normal 0.0 0.0 -1.0
  outer loop
    vertex 2.1650635094610964 -1.2500000000000004 -3.0
    vertex 2.165063509461096 1.250000000000001 -3.0
    vertex 2.299038105676657 0.7500000000000003 -3.0
  endloop
endfacet
facet normal 0.0 0.0 -1.0
  outer loop
    vertex 2.1650635094610964 -1.2500000000000004 -3.0
    vertex 2.299038105676657 0.7500000000000003 -3.0
    vertex 2.299038105676659 -0.7499999999999999 -3.0
  endloop
endfacet
facet normal 0.0 0.0 -1.0
  outer loop
    vertex 2.299038105676659 -0.7499999999999999 -3.0
    vertex 2.299038105676657 0.7500000000000003 -3.0
    vertex 2.5 4.592425496802574e-16 -3.0
  endloop
endfacet
facet normal 0.9659258262890684 -0.2588190451025206 -4.083399907872983e-17
  outer loop
    vertex 2.5 4.592425496802574e-16 -3.0
    vertex 2.299038105676659 -0.7499999999999999 0.0
    vertex 2.299038105676659 -0.7499999999999999 -3.0
  endloop
endfacet
facet normal 0.9659258262890684 -0.2588190451025206 -4.083399907872983e-17
  outer loop
    vertex 2.299038105676659 -0.7499999999999999 0.0
    vertex 2.5 4.592425496802574e-16 -3.0
    vertex 2.5 4.592425496802574e-16 0.0
  endloop
endfacet
facet normal 0.9659258262890684 -0.2588190451025206 -4.083399907872983e-17
  outer loop
    vertex 2.299038105676659 -0.7499999999999999 -3.0
    vertex 2.1650635094610964 -1.2500000000000004 0.9999999999999999
    vertex 2.1650635094610964 -1.2500000000000004 -3.0
  endloop
endfacet
facet normal 0.9659258262890684 -0.2588190451025206 -4.083399907872983e-17
  outer loop
    vertex 2.1650635094610964 -1.2500000000000004 0.9999999999999999
    vertex 2.299038105676659 -0.7499999999999999 -3.0
    vertex 2.299038105676659 -0.7499999999999999 0.9999999999999999
  endloop
endfacet
facet normal 0.9659258262890684 -0.2588190451025206 -4.083399907872983e-17
  outer loop
    vertex 2.299038105676659 -0.7499999999999999 0.9999999999999999
    vertex 2.299038105676659 -0.7499999999999999 -3.0
    vertex 2.299038105676659 -0.7499999999999999 0.0
  endloop
endfacet
facet normal 0.0 0.0 -1.0
  outer loop
    vertex 52.70096189432334 0.7500000000000002 -3.0
    vertex 52.70096189432334 -0.7499999999999998 -3.0
    vertex 52.50000000000001 -1.5308084989341916e-16 -3.0
  endloop
endfacet
facet normal 0.0 0.0 -1.0
  outer loop
    vertex 52.70096189432334 -0.7499999999999998 -3.0
    vertex 52.70096189432334 0.7500000000000002 -3.0
    vertex 52.83493649053891 1.2499999999999996 -3.0
  endloop
endfacet
facet normal 0.0 0.0 -1.0
  outer loop
    vertex 52.70096189432334 -0.7499999999999998 -3.0
    vertex 52.83493649053891 1.2499999999999996 -3.0
    vertex 52.83493649053891 -1.2500000000000004 -3.0
  endloop
endfacet
facet normal 0.0 0.0 -1.0
  outer loop
    vertex 52.83493649053891 -1.2500000000000004 -3.0
    vertex 52.83493649053891 1.2499999999999996 -3.0
    vertex 53.75 2.1650635094610964 -3.0
  endloop
endfacet
facet normal 0.0 0.0 -1.0
  outer loop
    vertex 52.83493649053891 -1.2500000000000004 -3.0
    vertex 53.75 2.1650635094610964 -3.0
    vertex 53.75 -2.165063509461097 -3.0
  endloop
endfacet
facet normal 0.0 0.0 -1.0
  outer loop
    vertex 53.75 -2.165063509461097 -3.0
    vertex 53.75 2.1650635094610964 -3.0
    vertex 54.0 -1.8369701987210292e-16 -3.0
  endloop
endfacet
facet normal 0.0 0.0 -1.0
  outer loop
    vertex 54.0 -1.8369701987210292e-16 -3.0
    vertex 53.75 2.1650635094610964 -3.0
    vertex 54.133974596215566 0.49999999999999994 -3.0
  endloop
endfacet
facet normal 0.0 0.0 -1.0
  outer loop
    vertex 54.133974596215566 0.49999999999999994 -3.0
    vertex 53.75 2.1650635094610964 -3.0
    vertex 55.0 2.5 -3.0
  endloop
endfacet
facet normal 0.0 0.0 -1.0
  outer loop
    vertex 54.133974596215566 0.49999999999999994 -3.0
    vertex 55.0 2.5 -3.0
    vertex 54.5 0.8660254037844386 -3.0
  endloop
endfacet
facet normal 0.0 0.0 -1.0
  outer loop
    vertex 54.5 0.8660254037844386 -3.0
    vertex 55.0 2.5 -3.0
    vertex 55.0 0.9999999999999998 -3.0
  endloop
endfacet
facet normal 0.0 0.0 -1.0
  outer loop
    vertex 55.0 0.9999999999999998 -3.0
    vertex 55.0 2.5 -3.0
    vertex 56.25 2.1650635094610977 -3.0
  endloop
endfacet
facet normal 0.0 0.0 -1.0
  outer loop
    vertex 55.0 0.9999999999999998 -3.0
    vertex 56.25 2.1650635094610977 -3.0
    vertex 55.5 0.8660254037844385 -3.0
  endloop
endfacet
facet normal 0.0 0.0 -1.0
  outer loop
    vertex 55.5 0.8660254037844385 -3.0
    vertex 56.25 2.1650635094610977 -3.0
    vertex 55.866025403784434 0.49999999999999994 -3.0
  endloop
endfacet
facet normal 0.0 0.0 -1.0
  outer loop
    vertex 55.866025403784434 0.49999999999999994 -3.0
    vertex 56.25 2.1650635094610977 -3.0
    vertex 56.0 6.123233995736765e-17 -3.0
  endloop
endfacet
facet normal 0.0 0.0 -1.0
  outer loop
    vertex 53.75 -2.165063509461097 -3.0
    vertex 54.133974596215566 -0.5000000000000003 -3.0
    vertex 55.0 -2.5 -3.0
  endloop
endfacet
facet normal 0.0 0.0 -1.0
  outer loop
    vertex 54.133974596215566 -0.5000000000000003 -3.0
    vertex 53.75 -2.165063509461097 -3.0
    vertex 54.0 -1.8369701987210292e-16 -3.0
  endloop
endfacet
facet normal 0.0 0.0 -1.0
  outer loop
    vertex 55.0 -2.5 -3.0
    vertex 54.133974596215566 -0.5000000000000003 -3.0
    vertex 54.5 -0.8660254037844388 -3.0
  endloop
endfacet
facet normal 0.0 0.0 -1.0
  outer loop
    vertex 55.0 -2.5 -3.0
    vertex 54.5 -0.8660254037844388 -3.0
    vertex 55.0 -0.9999999999999998 -3.0
  endloop
endfacet
facet normal 0.0 0.0 -1.0
  outer loop
    vertex 55.0 -2.5 -3.0
    vertex 55.0 -0.9999999999999998 -3.0
    vertex 55.5 -0.8660254037844383 -3.0
  endloop
endfacet
facet normal 0.0 0.0 -1.0
  outer loop
    vertex 55.0 -2.5 -3.0
    vertex 55.5 -0.8660254037844383 -3.0
    vertex 56.25 -2.1650635094610973 -3.0
  endloop
endfacet
facet normal 0.0 0.0 -1.0
  outer loop
    vertex 56.25 -2.1650635094610973 -3.0
    vertex 55.5 -0.8660254037844383 -3.0
    vertex 55.866025403784434 -0.4999999999999996 -3.0
  endloop
endfacet
facet normal 0.0 0.0 -1.0
  outer loop
    vertex 56.25 -2.1650635094610973 -3.0
    vertex 55.866025403784434 -0.4999999999999996 -3.0
    vertex 56.0 6.123233995736765e-17 -3.0
  endloop
endfacet
facet normal 0.0 0.0 -1.0
  outer loop
    vertex 56.25 -2.1650635094610973 -3.0
    vertex 56.0 6.123233995736765e-17 -3.0
    vertex 56.25 2.1650635094610977 -3.0
  endloop
endfacet
facet normal 0.0 0.0 -1.0
  outer loop
    vertex 56.25 -2.1650635094610973 -3.0
    vertex 56.25 2.1650635094610977 -3.0
    vertex 57.1650635094611 1.250000000000001 -3.0
  endloop
endfacet
facet normal 0.0 0.0 -1.0
  outer loop
    vertex 56.25 -2.1650635094610973 -3.0
    vertex 57.1650635094611 1.250000000000001 -3.0
    vertex 57.1650635094611 -1.2500000000000004 -3.0
  endloop
endfacet
facet normal 0.0 0.0 -1.0
  outer loop
    vertex 57.1650635094611 -1.2500000000000004 -3.0
    vertex 57.1650635094611 1.250000000000001 -3.0
    vertex 57.49999999999999 4.592425496802574e-16 -3.0
  endloop
endfacet
facet normal -0.965925826289069 0.25881904510251813 -1.905586623674063e-16
  outer loop
    vertex 52.83493649053891 1.2499999999999996 0.9999999999999999
    vertex 52.70096189432334 0.7500000000000002 0.0
    vertex 52.70096189432334 0.7500000000000002 0.9999999999999999
  endloop
endfacet
facet normal -0.965925826289069 0.25881904510251813 -1.905586623674063e-16
  outer loop
    vertex 52.70096189432334 0.7500000000000002 0.0
    vertex 52.83493649053891 1.2499999999999996 0.9999999999999999
    vertex 52.70096189432334 0.7500000000000002 -3.0
  endloop
endfacet
facet normal -0.965925826289069 0.25881904510251813 -1.905586623674063e-16
  outer loop
    vertex 52.70096189432334 0.7500000000000002 -3.0
    vertex 52.83493649053891 1.2499999999999996 0.9999999999999999
    vertex 52.83493649053891 1.2499999999999996 -3.0
  endloop
endfacet
facet normal -0.965925826289069 0.25881904510251813 -1.905586623674063e-16
  outer loop
    vertex 52.70096189432334 0.7500000000000002 0.0
    vertex 52.50000000000001 -1.5308084989341916e-16 -3.0
    vertex 52.50000000000001 -1.5308084989341916e-16 0.0
  endloop
endfacet
facet normal -0.965925826289069 0.25881904510251813 -1.905586623674063e-16
  outer loop
    vertex 52.50000000000001 -1.5308084989341916e-16 -3.0
    vertex 52.70096189432334 0.7500000000000002 0.0
    vertex 52.70096189432334 0.7500000000000002 -3.0
  endloop
endfacet
facet normal 0.0 0.0 -1.0
  outer loop
    vertex 52.70096189432334 0.7500000000000002 0.0
    vertex 2.5 4.592425496802574e-16 0.0
    vertex 2.299038105676657 0.7500000000000003 0.0
  endloop
endfacet
facet normal 0.0 0.0 -1.0
  outer loop
    vertex 2.5 4.592425496802574e-16 0.0
    vertex 52.70096189432334 0.7500000000000002 0.0
    vertex 52.50000000000001 -1.5308084989341916e-16 0.0
  endloop
endfacet
facet normal 0.0 0.0 -1.0
  outer loop
    vertex 2.5 4.592425496802574e-16 0.0
    vertex 52.70096189432334 -0.7499999999999998 0.0
    vertex 2.299038105676659 -0.7499999999999999 0.0
  endloop
endfacet
facet normal 0.0 0.0 -1.0
  outer loop
    vertex 52.70096189432334 -0.7499999999999998 0.0
    vertex 2.5 4.592425496802574e-16 0.0
    vertex 52.50000000000001 -1.5308084989341916e-16 0.0
  endloop
endfacet
facet normal 0.25881904510252013 0.9659258262890685 9.744945268033855e-19
  outer loop
    vertex -0.49999999999999917 -0.8660254037844388 0.9999999999999999
    vertex 5.665538897647978e-16 -0.9999999999999998 -3.0
    vertex -0.49999999999999917 -0.8660254037844388 -3.0
  endloop
endfacet
facet normal 0.25881904510252013 0.9659258262890685 9.744945268033855e-19
  outer loop
    vertex 5.665538897647978e-16 -0.9999999999999998 -3.0
    vertex -0.49999999999999917 -0.8660254037844388 0.9999999999999999
    vertex 5.665538897647978e-16 -0.9999999999999998 0.9999999999999999
  endloop
endfacet
facet normal -0.25881904510252113 0.9659258262890682 1.044460085942066e-18
  outer loop
    vertex 5.665538897647978e-16 -0.9999999999999998 0.9999999999999999
    vertex 0.5000000000000002 -0.8660254037844383 -3.0
    vertex 5.665538897647978e-16 -0.9999999999999998 -3.0
  endloop
endfacet
facet normal -0.25881904510252113 0.9659258262890682 1.044460085942066e-18
  outer loop
    vertex 0.5000000000000002 -0.8660254037844383 -3.0
    vertex 5.665538897647978e-16 -0.9999999999999998 0.9999999999999999
    vertex 0.5000000000000002 -0.8660254037844383 0.9999999999999999
  endloop
endfacet
endsolid motor_controller_bracket
