solid motor_controller_bracket
facet normal -0.0 -0.0 1.0
  outer loop
    vertex -3.000000000000002 -5.196152422706631 3.0
    vertex -2.5980762113533156 -1.5000000000000002 3.0
    vertex -3.0 5.510910596163089e-16 3.0
  endloop
endfacet
facet normal -0.0 -0.0 1.0
  outer loop
    vertex -2.5980762113533156 -1.5000000000000002 3.0
    vertex -3.000000000000002 -5.196152422706631 3.0
    vertex -3.3993233385887878e-15 -6.0 3.0
  endloop
endfacet
facet normal -0.0 -0.0 1.0
  outer loop
    vertex -2.5980762113533156 -1.5000000000000002 3.0
    vertex -3.3993233385887878e-15 -6.0 3.0
    vertex -1.499999999999999 -2.598076211353316 3.0
  endloop
endfacet
facet normal -0.0 -0.0 1.0
  outer loop
    vertex -1.499999999999999 -2.598076211353316 3.0
    vertex -3.3993233385887878e-15 -6.0 3.0
    vertex 0.0 -3.0 3.0
  endloop
endfacet
facet normal -0.0 -0.0 1.0
  outer loop
    vertex 0.0 -3.0 3.0
    vertex -3.3993233385887878e-15 -6.0 3.0
    vertex 2.9999999999999964 -5.196152422706634 3.0
  endloop
endfacet
facet normal -0.0 -0.0 1.0
  outer loop
    vertex 0.0 -3.0 3.0
    vertex 2.9999999999999964 -5.196152422706634 3.0
    vertex 1.4999999999999998 -2.598076211353316 3.0
  endloop
endfacet
facet normal -0.0 -0.0 1.0
  outer loop
    vertex 1.4999999999999998 -2.598076211353316 3.0
    vertex 2.9999999999999964 -5.196152422706634 3.0
    vertex 2.5980762113533156 -1.5000000000000002 3.0
  endloop
endfacet
facet normal -0.0 -0.0 1.0
  outer loop
    vertex 2.5980762113533156 -1.5000000000000002 3.0
    vertex 2.9999999999999964 -5.196152422706634 3.0
    vertex 3.0 -1.8369701987210297e-16 3.0
  endloop
endfacet
facet normal -0.0 -0.0 1.0
  outer loop
    vertex 3.0 -1.8369701987210297e-16 3.0
    vertex 2.9999999999999964 -5.196152422706634 3.0
    vertex 5.196152422706631 -3.0000000000000027 3.0
  endloop
endfacet
facet normal -0.0 -0.0 1.0
  outer loop
    vertex 52.00000000000001 -5.196152422706631 3.0
    vertex 51.99999999999999 1.8369701987210297e-16 3.0
    vertex 49.80384757729337 -3.0000000000000004 3.0
  endloop
endfacet
facet normal -0.0 -0.0 1.0
  outer loop
    vertex 51.99999999999999 1.8369701987210297e-16 3.0
    vertex 52.00000000000001 -5.196152422706631 3.0
    vertex 52.40192378864669 -1.4999999999999991 3.0
  endloop
endfacet
facet normal -0.0 -0.0 1.0
  outer loop
    vertex 52.40192378864669 -1.4999999999999991 3.0
    vertex 52.00000000000001 -5.196152422706631 3.0
    vertex 55.0 -6.0 3.0
  endloop
endfacet
facet normal -0.0 -0.0 1.0
  outer loop
    vertex 52.40192378864669 -1.4999999999999991 3.0
    vertex 55.0 -6.0 3.0
    vertex 53.5 -2.5980762113533156 3.0
  endloop
endfacet
facet normal -0.0 -0.0 1.0
  outer loop
    vertex 53.5 -2.5980762113533156 3.0
    vertex 55.0 -6.0 3.0
    vertex 55.0 -3.0 3.0
  endloop
endfacet
facet normal -0.0 -0.0 1.0
  outer loop
    vertex 55.0 -3.0 3.0
    vertex 55.0 -6.0 3.0
    vertex 57.99999999999999 -5.196152422706632 3.0
  endloop
endfacet
facet normal -0.0 -0.0 1.0
  outer loop
    vertex 55.0 -3.0 3.0
    vertex 57.99999999999999 -5.196152422706632 3.0
    vertex 56.5 -2.598076211353317 3.0
  endloop
endfacet
facet normal -0.0 -0.0 1.0
  outer loop
    vertex 56.5 -2.598076211353317 3.0
    vertex 57.99999999999999 -5.196152422706632 3.0
    vertex 57.598076211353316 -1.5000000000000013 3.0
  endloop
endfacet
facet normal -0.0 -0.0 1.0
  outer loop
    vertex 57.598076211353316 -1.5000000000000013 3.0
    vertex 57.99999999999999 -5.196152422706632 3.0
    vertex 58.00000000000001 -5.510910596163089e-16 3.0
  endloop
endfacet
facet normal -0.0 -0.0 1.0
  outer loop
    vertex 58.00000000000001 -5.510910596163089e-16 3.0
    vertex 57.99999999999999 -5.196152422706632 3.0
    vertex 60.19615242270664 -3.0000000000000004 3.0
  endloop
endfacet
facet normal -0.0 -0.0 1.0
  outer loop
    vertex -5.196152422706632 -2.9999999999999982 3.0
    vertex -5.196152422706631 3.0000000000000004 3.0
    vertex -6.0 3.6739403974420594e-16 3.0
  endloop
endfacet
facet normal -0.0 -0.0 1.0
  outer loop
    vertex -5.196152422706631 3.0000000000000004 3.0
    vertex -5.196152422706632 -2.9999999999999982 3.0
    vertex -3.000000000000002 -5.196152422706631 3.0
  endloop
endfacet
facet normal -0.0 -0.0 1.0
  outer loop
    vertex -5.196152422706631 3.0000000000000004 3.0
    vertex -3.000000000000002 -5.196152422706631 3.0
    vertex -3.0 5.196152422706631 3.0
  endloop
endfacet
facet normal -0.0 -0.0 1.0
  outer loop
    vertex -3.0 5.196152422706631 3.0
    vertex -3.000000000000002 -5.196152422706631 3.0
    vertex -3.0 5.510910596163089e-16 3.0
  endloop
endfacet
facet normal -0.0 -0.0 1.0
  outer loop
    vertex -3.0 5.196152422706631 3.0
    vertex -3.0 5.510910596163089e-16 3.0
    vertex -2.598076211353315 1.5000000000000013 3.0
  endloop
endfacet
facet normal -0.0 -0.0 1.0
  outer loop
    vertex -3.0 5.196152422706631 3.0
    vertex -2.598076211353315 1.5000000000000013 3.0
    vertex 0.0 6.0 3.0
  endloop
endfacet
facet normal -0.0 -0.0 1.0
  outer loop
    vertex 0.0 6.0 3.0
    vertex -2.598076211353315 1.5000000000000013 3.0
    vertex -1.499999999999998 2.598076211353317 3.0
  endloop
endfacet
facet normal -0.0 -0.0 1.0
  outer loop
    vertex 0.0 6.0 3.0
    vertex -1.499999999999998 2.598076211353317 3.0
    vertex 1.6996616692943939e-15 3.0 3.0
  endloop
endfacet
facet normal -0.0 -0.0 1.0
  outer loop
    vertex 0.0 6.0 3.0
    vertex 1.6996616692943939e-15 3.0 3.0
    vertex 2.9999999999999982 5.196152422706632 3.0
  endloop
endfacet
facet normal -0.0 -0.0 1.0
  outer loop
    vertex 2.9999999999999982 5.196152422706632 3.0
    vertex 1.6996616692943939e-15 3.0 3.0
    vertex 1.5000000000000009 2.5980762113533156 3.0
  endloop
endfacet
facet normal -0.0 -0.0 1.0
  outer loop
    vertex 2.9999999999999982 5.196152422706632 3.0
    vertex 1.5000000000000009 2.5980762113533156 3.0
    vertex 2.598076211353316 1.4999999999999991 3.0
  endloop
endfacet
facet normal -0.0 -0.0 1.0
  outer loop
    vertex 2.9999999999999982 5.196152422706632 3.0
    vertex 2.598076211353316 1.4999999999999991 3.0
    vertex 3.0 -1.8369701987210297e-16 3.0
  endloop
endfacet
facet normal -0.0 -0.0 1.0
  outer loop
    vertex 2.9999999999999982 5.196152422706632 3.0
    vertex 3.0 -1.8369701987210297e-16 3.0
    vertex 5.196152422706631 3.0000000000000004 3.0
  endloop
endfacet
facet normal -0.0 -0.0 1.0
  outer loop
    vertex 5.196152422706631 3.0000000000000004 3.0
    vertex 3.0 -1.8369701987210297e-16 3.0
    vertex 5.196152422706631 -3.0000000000000027 3.0
  endloop
endfacet
facet normal -0.0 -0.0 1.0
  outer loop
    vertex 5.196152422706631 3.0000000000000004 3.0
    vertex 5.196152422706631 -3.0000000000000027 3.0
    vertex 5.598076211353315 -1.5000000000000007 3.0
  endloop
endfacet
facet normal -0.0 -0.0 1.0
  outer loop
    vertex 5.196152422706631 3.0000000000000004 3.0
    vertex 5.598076211353315 -1.5000000000000007 3.0
    vertex 5.598076211353318 1.4999999999999993 3.0
  endloop
endfacet
facet normal -0.0 -0.0 1.0
  outer loop
    vertex 5.598076211353318 1.4999999999999993 3.0
    vertex 5.598076211353315 -1.5000000000000007 3.0
    vertex 49.401923788646684 -1.5000000000000007 3.0
  endloop
endfacet
facet normal -0.0 -0.0 1.0
  outer loop
    vertex 5.598076211353318 1.4999999999999993 3.0
    vertex 49.401923788646684 -1.5000000000000007 3.0
    vertex 49.401923788646684 1.4999999999999991 3.0
  endloop
endfacet
facet normal -0.0 -0.0 1.0
  outer loop
    vertex 49.401923788646684 1.4999999999999991 3.0
    vertex 49.401923788646684 -1.5000000000000007 3.0
    vertex 49.80384757729337 -3.0000000000000004 3.0
  endloop
endfacet
facet normal -0.0 -0.0 1.0
  outer loop
    vertex 49.401923788646684 1.4999999999999991 3.0
    vertex 49.80384757729337 -3.0000000000000004 3.0
    vertex 49.80384757729337 2.9999999999999982 3.0
  endloop
endfacet
facet normal -0.0 -0.0 1.0
  outer loop
    vertex 49.80384757729337 2.9999999999999982 3.0
    vertex 49.80384757729337 -3.0000000000000004 3.0
    vertex 51.99999999999999 5.196152422706631 3.0
  endloop
endfacet
facet normal -0.0 -0.0 1.0
  outer loop
    vertex 51.99999999999999 5.196152422706631 3.0
    vertex 49.80384757729337 -3.0000000000000004 3.0
    vertex 51.99999999999999 1.8369701987210297e-16 3.0
  endloop
endfacet
facet normal -0.0 -0.0 1.0
  outer loop
    vertex 51.99999999999999 5.196152422706631 3.0
    vertex 51.99999999999999 1.8369701987210297e-16 3.0
    vertex 52.40192378864669 1.5000000000000002 3.0
  endloop
endfacet
facet normal -0.0 -0.0 1.0
  outer loop
    vertex 51.99999999999999 5.196152422706631 3.0
    vertex 52.40192378864669 1.5000000000000002 3.0
    vertex 55.0 6.0 3.0
  endloop
endfacet
facet normal -0.0 -0.0 1.0
  outer loop
    vertex 55.0 6.0 3.0
    vertex 52.40192378864669 1.5000000000000002 3.0
    vertex 53.5 2.5980762113533156 3.0
  endloop
endfacet
facet normal -0.0 -0.0 1.0
  outer loop
    vertex 55.0 6.0 3.0
    vertex 53.5 2.5980762113533156 3.0
    vertex 55.0 3.0 3.0
  endloop
endfacet
facet normal -0.0 -0.0 1.0
  outer loop
    vertex 55.0 6.0 3.0
    vertex 55.0 3.0 3.0
    vertex 56.5 2.598076211353316 3.0
  endloop
endfacet
facet normal -0.0 -0.0 1.0
  outer loop
    vertex 55.0 6.0 3.0
    vertex 56.5 2.598076211353316 3.0
    vertex 57.99999999999999 5.196152422706634 3.0
  endloop
endfacet
facet normal -0.0 -0.0 1.0
  outer loop
    vertex 57.99999999999999 5.196152422706634 3.0
    vertex 56.5 2.598076211353316 3.0
    vertex 57.598076211353316 1.5000000000000002 3.0
  endloop
endfacet
facet normal -0.0 -0.0 1.0
  outer loop
    vertex 57.99999999999999 5.196152422706634 3.0
    vertex 57.598076211353316 1.5000000000000002 3.0
    vertex 58.00000000000001 -5.510910596163089e-16 3.0
  endloop
endfacet
facet normal -0.0 -0.0 1.0
  outer loop
    vertex 57.99999999999999 5.196152422706634 3.0
    vertex 58.00000000000001 -5.510910596163089e-16 3.0
    vertex 60.19615242270664 3.0000000000000027 3.0
  endloop
endfacet
facet normal -0.0 -0.0 1.0
  outer loop
    vertex 60.19615242270664 3.0000000000000027 3.0
    vertex 58.00000000000001 -5.510910596163089e-16 3.0
    vertex 60.19615242270664 -3.0000000000000004 3.0
  endloop
endfacet
facet normal -0.0 -0.0 1.0
  outer loop
    vertex 60.19615242270664 3.0000000000000027 3.0
    vertex 60.19615242270664 -3.0000000000000004 3.0
    vertex 61.0 1.1021821192326177e-15 3.0
  endloop
endfacet
facet normal 0.2588190451025212 -0.9659258262890682 0.0
  outer loop
    vertex 57.99999999999999 -5.196152422706632 3.0
    vertex 55.0 -6.0 -1.9999999999999998
    vertex 57.99999999999999 -5.196152422706632 -1.9999999999999998
  endloop
endfacet
facet normal 0.2588190451025212 -0.9659258262890682 0.0
  outer loop
    vertex 55.0 -6.0 -1.9999999999999998
    vertex 57.99999999999999 -5.196152422706632 3.0
    vertex 55.0 -6.0 3.0
  endloop
endfacet
facet normal -0.2588190451025214 -0.9659258262890682 -0.0
  outer loop
    vertex 55.0 -6.0 3.0
    vertex 52.00000000000001 -5.196152422706631 -1.9999999999999998
    vertex 55.0 -6.0 -1.9999999999999998
  endloop
endfacet
facet normal -0.2588190451025214 -0.9659258262890682 -0.0
  outer loop
    vertex 52.00000000000001 -5.196152422706631 -1.9999999999999998
    vertex 55.0 -6.0 3.0
    vertex 52.00000000000001 -5.196152422706631 3.0
  endloop
endfacet
facet normal -0.7071067811865469 -0.7071067811865481 -0.0
  outer loop
    vertex 52.00000000000001 -5.196152422706631 3.0
    vertex 49.80384757729337 -3.0000000000000004 -1.9999999999999998
    vertex 52.00000000000001 -5.196152422706631 -1.9999999999999998
  endloop
endfacet
facet normal -0.7071067811865469 -0.7071067811865481 -0.0
  outer loop
    vertex 49.80384757729337 -3.0000000000000004 -1.9999999999999998
    vertex 52.00000000000001 -5.196152422706631 3.0
    vertex 49.80384757729337 -3.0000000000000004 3.0
  endloop
endfacet
facet normal -0.9659258262890678 -0.25881904510252335 -0.0
  outer loop
    vertex 49.401923788646684 -1.5000000000000007 3.0
    vertex 49.80384757729337 -3.0000000000000004 -1.9999999999999998
    vertex 49.80384757729337 -3.0000000000000004 3.0
  endloop
endfacet
facet normal -0.9659258262890678 -0.25881904510252335 -0.0
  outer loop
    vertex 49.80384757729337 -3.0000000000000004 -1.9999999999999998
    vertex 49.401923788646684 -1.5000000000000007 3.0
    vertex 49.401923788646684 -1.5000000000000007 -1.9999999999999998
  endloop
endfacet
facet normal 0.0 -1.0 0.0
  outer loop
    vertex 49.401923788646684 -1.5000000000000007 3.0
    vertex 47.401923788646684 -1.5000000000000007 0.0
    vertex 49.401923788646684 -1.5000000000000007 -1.9999999999999998
  endloop
endfacet
facet normal 0.0 -1.0 0.0
  outer loop
    vertex 47.401923788646684 -1.5000000000000007 0.0
    vertex 49.401923788646684 -1.5000000000000007 3.0
    vertex 7.598076211353315 -1.5000000000000007 0.0
  endloop
endfacet
facet normal 0.0 -1.0 0.0
  outer loop
    vertex 7.598076211353315 -1.5000000000000007 0.0
    vertex 5.598076211353315 -1.5000000000000007 3.0
    vertex 5.598076211353315 -1.5000000000000007 -1.9999999999999998
  endloop
endfacet
facet normal 0.0 -1.0 0.0
  outer loop
    vertex 5.598076211353315 -1.5000000000000007 3.0
    vertex 7.598076211353315 -1.5000000000000007 0.0
    vertex 49.401923788646684 -1.5000000000000007 3.0
  endloop
endfacet
facet normal 0.9659258262890683 -0.25881904510252085 0.0
  outer loop
    vertex 5.598076211353315 -1.5000000000000007 -1.9999999999999998
    vertex 5.196152422706631 -3.0000000000000027 3.0
    vertex 5.196152422706631 -3.0000000000000027 -1.9999999999999998
  endloop
endfacet
facet normal 0.9659258262890683 -0.25881904510252085 0.0
  outer loop
    vertex 5.196152422706631 -3.0000000000000027 3.0
    vertex 5.598076211353315 -1.5000000000000007 -1.9999999999999998
    vertex 5.598076211353315 -1.5000000000000007 3.0
  endloop
endfacet
facet normal 0.707106781186547 -0.7071067811865481 0.0
  outer loop
    vertex 5.196152422706631 -3.0000000000000027 3.0
    vertex 2.9999999999999964 -5.196152422706634 -1.9999999999999998
    vertex 5.196152422706631 -3.0000000000000027 -1.9999999999999998
  endloop
endfacet
facet normal 0.707106781186547 -0.7071067811865481 0.0
  outer loop
    vertex 2.9999999999999964 -5.196152422706634 -1.9999999999999998
    vertex 5.196152422706631 -3.0000000000000027 3.0
    vertex 2.9999999999999964 -5.196152422706634 3.0
  endloop
endfacet
facet normal 0.25881904510252013 -0.9659258262890684 0.0
  outer loop
    vertex 2.9999999999999964 -5.196152422706634 3.0
    vertex -3.3993233385887878e-15 -6.0 -1.9999999999999998
    vertex 2.9999999999999964 -5.196152422706634 -1.9999999999999998
  endloop
endfacet
facet normal 0.25881904510252013 -0.9659258262890684 0.0
  outer loop
    vertex -3.3993233385887878e-15 -6.0 -1.9999999999999998
    vertex 2.9999999999999964 -5.196152422706634 3.0
    vertex -3.3993233385887878e-15 -6.0 3.0
  endloop
endfacet
facet normal -0.2588190451025211 -0.9659258262890683 -0.0
  outer loop
    vertex -3.3993233385887878e-15 -6.0 3.0
    vertex -3.000000000000002 -5.196152422706631 -1.9999999999999998
    vertex -3.3993233385887878e-15 -6.0 -1.9999999999999998
  endloop
endfacet
facet normal -0.2588190451025211 -0.9659258262890683 -0.0
  outer loop
    vertex -3.000000000000002 -5.196152422706631 -1.9999999999999998
    vertex -3.3993233385887878e-15 -6.0 3.0
    vertex -3.000000000000002 -5.196152422706631 3.0
  endloop
endfacet
facet normal -0.7071067811865479 -0.7071067811865471 -0.0
  outer loop
    vertex -5.196152422706632 -2.9999999999999982 3.0
    vertex -3.000000000000002 -5.196152422706631 -1.9999999999999998
    vertex -3.000000000000002 -5.196152422706631 3.0
  endloop
endfacet
facet normal -0.7071067811865479 -0.7071067811865471 -0.0
  outer loop
    vertex -3.000000000000002 -5.196152422706631 -1.9999999999999998
    vertex -5.196152422706632 -2.9999999999999982 3.0
    vertex -5.196152422706632 -2.9999999999999982 -1.9999999999999998
  endloop
endfacet
facet normal -0.9659258262890683 -0.25881904510252085 -0.0
  outer loop
    vertex -6.0 3.6739403974420594e-16 3.0
    vertex -5.196152422706632 -2.9999999999999982 -1.9999999999999998
    vertex -5.196152422706632 -2.9999999999999982 3.0
  endloop
endfacet
facet normal -0.9659258262890683 -0.25881904510252085 -0.0
  outer loop
    vertex -5.196152422706632 -2.9999999999999982 -1.9999999999999998
    vertex -6.0 3.6739403974420594e-16 3.0
    vertex -6.0 3.6739403974420594e-16 -1.9999999999999998
  endloop
endfacet
facet normal -0.9659258262890683 0.25881904510252096 0.0
  outer loop
    vertex -5.196152422706631 3.0000000000000004 3.0
    vertex -6.0 3.6739403974420594e-16 -1.9999999999999998
    vertex -6.0 3.6739403974420594e-16 3.0
  endloop
endfacet
facet normal -0.9659258262890683 0.25881904510252096 0.0
  outer loop
    vertex -6.0 3.6739403974420594e-16 -1.9999999999999998
    vertex -5.196152422706631 3.0000000000000004 3.0
    vertex -5.196152422706631 3.0000000000000004 -1.9999999999999998
  endloop
endfacet
facet normal -0.7071067811865475 0.7071067811865477 0.0
  outer loop
    vertex -5.196152422706631 3.0000000000000004 3.0
    vertex -3.0 5.196152422706631 -1.9999999999999998
    vertex -5.196152422706631 3.0000000000000004 -1.9999999999999998
  endloop
endfacet
facet normal -0.7071067811865475 0.7071067811865477 0.0
  outer loop
    vertex -3.0 5.196152422706631 -1.9999999999999998
    vertex -5.196152422706631 3.0000000000000004 3.0
    vertex -3.0 5.196152422706631 3.0
  endloop
endfacet
facet normal -0.25881904510252096 0.9659258262890682 5.0117510153680025e-18
  outer loop
    vertex -3.0 5.196152422706631 3.0
    vertex 0.0 6.0 -1.9999999999999998
    vertex -3.0 5.196152422706631 -1.9999999999999998
  endloop
endfacet
facet normal -0.25881904510252096 0.9659258262890682 5.0117510153680025e-18
  outer loop
    vertex 0.0 6.0 -1.9999999999999998
    vertex -3.0 5.196152422706631 3.0
    vertex 0.0 6.0 3.0
  endloop
endfacet
facet normal 0.2588190451025209 0.9659258262890682 1.2529377538420022e-18
  outer loop
    vertex 0.0 6.0 3.0
    vertex 2.9999999999999982 5.196152422706632 -1.9999999999999998
    vertex 0.0 6.0 -1.9999999999999998
  endloop
endfacet
facet normal 0.2588190451025209 0.9659258262890682 1.2529377538420022e-18
  outer loop
    vertex 2.9999999999999982 5.196152422706632 -1.9999999999999998
    vertex 0.0 6.0 3.0
    vertex 2.9999999999999982 5.196152422706632 3.0
  endloop
endfacet
facet normal 0.7071067811865472 0.7071067811865478 0.0
  outer loop
    vertex 2.9999999999999982 5.196152422706632 3.0
    vertex 5.196152422706631 3.0000000000000004 -1.9999999999999998
    vertex 2.9999999999999982 5.196152422706632 -1.9999999999999998
  endloop
endfacet
facet normal 0.7071067811865472 0.7071067811865478 0.0
  outer loop
    vertex 5.196152422706631 3.0000000000000004 -1.9999999999999998
    vertex 2.9999999999999982 5.196152422706632 3.0
    vertex 5.196152422706631 3.0000000000000004 3.0
  endloop
endfacet
facet normal 0.965925826289068 0.25881904510252185 0.0
  outer loop
    vertex 5.196152422706631 3.0000000000000004 -1.9999999999999998
    vertex 5.598076211353318 1.4999999999999993 3.0
    vertex 5.598076211353318 1.4999999999999993 -1.9999999999999998
  endloop
endfacet
facet normal 0.965925826289068 0.25881904510252185 0.0
  outer loop
    vertex 5.598076211353318 1.4999999999999993 3.0
    vertex 5.196152422706631 3.0000000000000004 -1.9999999999999998
    vertex 5.196152422706631 3.0000000000000004 3.0
  endloop
endfacet
facet normal 6.3103192357655455e-18 1.0 3.455841277632225e-18
  outer loop
    vertex 5.598076211353318 1.4999999999999993 3.0
    vertex 7.598076211353315 1.4999999999999993 0.0
    vertex 5.598076211353318 1.4999999999999993 -1.9999999999999998
  endloop
endfacet
facet normal 6.3103192357655455e-18 1.0 3.455841277632225e-18
  outer loop
    vertex 7.598076211353315 1.4999999999999993 0.0
    vertex 5.598076211353318 1.4999999999999993 3.0
    vertex 47.401923788646684 1.4999999999999993 0.0
  endloop
endfacet
facet normal 6.3103192357655455e-18 1.0 3.455841277632225e-18
  outer loop
    vertex 47.401923788646684 1.4999999999999993 0.0
    vertex 49.401923788646684 1.4999999999999991 3.0
    vertex 49.401923788646684 1.4999999999999991 -1.9999999999999998
  endloop
endfacet
facet normal 6.3103192357655455e-18 1.0 3.455841277632225e-18
  outer loop
    vertex 49.401923788646684 1.4999999999999991 3.0
    vertex 47.401923788646684 1.4999999999999993 0.0
    vertex 5.598076211353318 1.4999999999999993 3.0
  endloop
endfacet
facet normal -0.9659258262890685 0.25881904510252 0.0
  outer loop
    vertex 49.80384757729337 2.9999999999999982 3.0
    vertex 49.401923788646684 1.4999999999999991 -1.9999999999999998
    vertex 49.401923788646684 1.4999999999999991 3.0
  endloop
endfacet
facet normal -0.9659258262890685 0.25881904510252 0.0
  outer loop
    vertex 49.401923788646684 1.4999999999999991 -1.9999999999999998
    vertex 49.80384757729337 2.9999999999999982 3.0
    vertex 49.80384757729337 2.9999999999999982 -1.9999999999999998
  endloop
endfacet
facet normal -0.707106781186548 0.707106781186547 0.0
  outer loop
    vertex 51.99999999999999 5.196152422706631 3.0
    vertex 49.80384757729337 2.9999999999999982 -1.9999999999999998
    vertex 49.80384757729337 2.9999999999999982 3.0
  endloop
endfacet
facet normal -0.707106781186548 0.707106781186547 0.0
  outer loop
    vertex 49.80384757729337 2.9999999999999982 -1.9999999999999998
    vertex 51.99999999999999 5.196152422706631 3.0
    vertex 51.99999999999999 5.196152422706631 -1.9999999999999998
  endloop
endfacet
facet normal -0.2588190451025205 0.9659258262890685 0.0
  outer loop
    vertex 51.99999999999999 5.196152422706631 3.0
    vertex 55.0 6.0 -1.9999999999999998
    vertex 51.99999999999999 5.196152422706631 -1.9999999999999998
  endloop
endfacet
facet normal -0.2588190451025205 0.9659258262890685 0.0
  outer loop
    vertex 55.0 6.0 -1.9999999999999998
    vertex 51.99999999999999 5.196152422706631 3.0
    vertex 55.0 6.0 3.0
  endloop
endfacet
facet normal 0.2588190451025206 0.9659258262890684 0.0
  outer loop
    vertex 55.0 6.0 3.0
    vertex 57.99999999999999 5.196152422706634 -1.9999999999999998
    vertex 55.0 6.0 -1.9999999999999998
  endloop
endfacet
facet normal 0.2588190451025206 0.9659258262890684 0.0
  outer loop
    vertex 57.99999999999999 5.196152422706634 -1.9999999999999998
    vertex 55.0 6.0 3.0
    vertex 57.99999999999999 5.196152422706634 3.0
  endloop
endfacet
facet normal 0.707106781186546 0.707106781186549 0.0
  outer loop
    vertex 57.99999999999999 5.196152422706634 3.0
    vertex 60.19615242270664 3.0000000000000027 -1.9999999999999998
    vertex 57.99999999999999 5.196152422706634 -1.9999999999999998
  endloop
endfacet
facet normal 0.707106781186546 0.707106781186549 0.0
  outer loop
    vertex 60.19615242270664 3.0000000000000027 -1.9999999999999998
    vertex 57.99999999999999 5.196152422706634 3.0
    vertex 60.19615242270664 3.0000000000000027 3.0
  endloop
endfacet
facet normal 0.9659258262890685 0.2588190451025198 0.0
  outer loop
    vertex 60.19615242270664 3.0000000000000027 -1.9999999999999998
    vertex 61.0 1.1021821192326177e-15 3.0
    vertex 61.0 1.1021821192326177e-15 -1.9999999999999998
  endloop
endfacet
facet normal 0.9659258262890685 0.2588190451025198 0.0
  outer loop
    vertex 61.0 1.1021821192326177e-15 3.0
    vertex 60.19615242270664 3.0000000000000027 -1.9999999999999998
    vertex 60.19615242270664 3.0000000000000027 3.0
  endloop
endfacet
facet normal 0.9659258262890685 -0.2588190451025198 0.0
  outer loop
    vertex 61.0 1.1021821192326177e-15 -1.9999999999999998
    vertex 60.19615242270664 -3.0000000000000004 3.0
    vertex 60.19615242270664 -3.0000000000000004 -1.9999999999999998
  endloop
endfacet
facet normal 0.9659258262890685 -0.2588190451025198 0.0
  outer loop
    vertex 60.19615242270664 -3.0000000000000004 3.0
    vertex 61.0 1.1021821192326177e-15 -1.9999999999999998
    vertex 61.0 1.1021821192326177e-15 3.0
  endloop
endfacet
facet normal 0.7071067811865461 -0.7071067811865489 0.0
  outer loop
    vertex 60.19615242270664 -3.0000000000000004 3.0
    vertex 57.99999999999999 -5.196152422706632 -1.9999999999999998
    vertex 60.19615242270664 -3.0000000000000004 -1.9999999999999998
  endloop
endfacet
facet normal 0.7071067811865461 -0.7071067811865489 0.0
  outer loop
    vertex 57.99999999999999 -5.196152422706632 -1.9999999999999998
    vertex 60.19615242270664 -3.0000000000000004 3.0
    vertex 57.99999999999999 -5.196152422706632 3.0
  endloop
endfacet
facet normal -0.2588190451025211 -0.9659258262890682 -6.264688769210008e-19
  outer loop
    vertex 1.5000000000000009 2.5980762113533156 3.0
    vertex 1.6996616692943939e-15 3.0 -1.9999999999999998
    vertex 1.5000000000000009 2.5980762113533156 -1.9999999999999998
  endloop
endfacet
facet normal -0.2588190451025211 -0.9659258262890682 -6.264688769210008e-19
  outer loop
    vertex 1.6996616692943939e-15 3.0 -1.9999999999999998
    vertex 1.5000000000000009 2.5980762113533156 3.0
    vertex 1.6996616692943939e-15 3.0 3.0
  endloop
endfacet
facet normal 0.25881904510252013 -0.9659258262890684 4.385282138447005e-18
  outer loop
    vertex 1.6996616692943939e-15 3.0 3.0
    vertex -1.499999999999998 2.598076211353317 -1.9999999999999998
    vertex 1.6996616692943939e-15 3.0 -1.9999999999999998
  endloop
endfacet
facet normal 0.25881904510252013 -0.9659258262890684 4.385282138447005e-18
  outer loop
    vertex -1.499999999999998 2.598076211353317 -1.9999999999999998
    vertex 1.6996616692943939e-15 3.0 3.0
    vertex -1.499999999999998 2.598076211353317 3.0
  endloop
endfacet
facet normal 0.707106781186547 -0.707106781186548 0.0
  outer loop
    vertex -1.499999999999998 2.598076211353317 3.0
    vertex -2.598076211353315 1.5000000000000013 -1.9999999999999998
    vertex -1.499999999999998 2.598076211353317 -1.9999999999999998
  endloop
endfacet
facet normal 0.707106781186547 -0.707106781186548 0.0
  outer loop
    vertex -2.598076211353315 1.5000000000000013 -1.9999999999999998
    vertex -1.499999999999998 2.598076211353317 3.0
    vertex -2.598076211353315 1.5000000000000013 3.0
  endloop
endfacet
facet normal 0.9659258262890682 -0.258819045102521 0.0
  outer loop
    vertex -2.598076211353315 1.5000000000000013 -1.9999999999999998
    vertex -3.0 5.510910596163089e-16 3.0
    vertex -3.0 5.510910596163089e-16 -1.9999999999999998
  endloop
endfacet
facet normal 0.9659258262890682 -0.258819045102521 0.0
  outer loop
    vertex -3.0 5.510910596163089e-16 3.0
    vertex -2.598076211353315 1.5000000000000013 -1.9999999999999998
    vertex -2.598076211353315 1.5000000000000013 3.0
  endloop
endfacet
facet normal 0.9659258262890683 0.25881904510252063 0.0
  outer loop
    vertex -3.0 5.510910596163089e-16 -1.9999999999999998
    vertex -2.5980762113533156 -1.5000000000000002 3.0
    vertex -2.5980762113533156 -1.5000000000000002 -1.9999999999999998
  endloop
endfacet
facet normal 0.9659258262890683 0.25881904510252063 0.0
  outer loop
    vertex -2.5980762113533156 -1.5000000000000002 3.0
    vertex -3.0 5.510910596163089e-16 -1.9999999999999998
    vertex -3.0 5.510910596163089e-16 3.0
  endloop
endfacet
facet normal 0.7071067811865472 0.7071067811865479 0.0
  outer loop
    vertex -2.5980762113533156 -1.5000000000000002 3.0
    vertex -1.499999999999999 -2.598076211353316 -1.9999999999999998
    vertex -2.5980762113533156 -1.5000000000000002 -1.9999999999999998
  endloop
endfacet
facet normal 0.7071067811865472 0.7071067811865479 0.0
  outer loop
    vertex -1.499999999999999 -2.598076211353316 -1.9999999999999998
    vertex -2.5980762113533156 -1.5000000000000002 3.0
    vertex -1.499999999999999 -2.598076211353316 3.0
  endloop
endfacet
facet normal 0.25881904510252074 0.9659258262890684 0.0
  outer loop
    vertex -1.499999999999999 -2.598076211353316 3.0
    vertex 0.0 -3.0 -1.9999999999999998
    vertex -1.499999999999999 -2.598076211353316 -1.9999999999999998
  endloop
endfacet
facet normal 0.25881904510252074 0.9659258262890684 0.0
  outer loop
    vertex 0.0 -3.0 -1.9999999999999998
    vertex -1.499999999999999 -2.598076211353316 3.0
    vertex 0.0 -3.0 3.0
  endloop
endfacet
facet normal -0.2588190451025206 0.9659258262890683 0.0
  outer loop
    vertex 0.0 -3.0 3.0
    vertex 1.4999999999999998 -2.598076211353316 -1.9999999999999998
    vertex 0.0 -3.0 -1.9999999999999998
  endloop
endfacet
facet normal -0.2588190451025206 0.9659258262890683 0.0
  outer loop
    vertex 1.4999999999999998 -2.598076211353316 -1.9999999999999998
    vertex 0.0 -3.0 3.0
    vertex 1.4999999999999998 -2.598076211353316 3.0
  endloop
endfacet
facet normal -0.7071067811865475 0.7071067811865476 0.0
  outer loop
    vertex 1.4999999999999998 -2.598076211353316 3.0
    vertex 2.5980762113533156 -1.5000000000000002 -1.9999999999999998
    vertex 1.4999999999999998 -2.598076211353316 -1.9999999999999998
  endloop
endfacet
facet normal -0.7071067811865475 0.7071067811865476 0.0
  outer loop
    vertex 2.5980762113533156 -1.5000000000000002 -1.9999999999999998
    vertex 1.4999999999999998 -2.598076211353316 3.0
    vertex 2.5980762113533156 -1.5000000000000002 3.0
  endloop
endfacet
facet normal -0.9659258262890683 0.25881904510252074 0.0
  outer loop
    vertex 3.0 -1.8369701987210297e-16 3.0
    vertex 2.5980762113533156 -1.5000000000000002 -1.9999999999999998
    vertex 2.5980762113533156 -1.5000000000000002 3.0
  endloop
endfacet
facet normal -0.9659258262890683 0.25881904510252074 0.0
  outer loop
    vertex 2.5980762113533156 -1.5000000000000002 -1.9999999999999998
    vertex 3.0 -1.8369701987210297e-16 3.0
    vertex 3.0 -1.8369701987210297e-16 -1.9999999999999998
  endloop
endfacet
facet normal -0.9659258262890683 -0.25881904510252063 -0.0
  outer loop
    vertex 2.598076211353316 1.4999999999999991 3.0
    vertex 3.0 -1.8369701987210297e-16 -1.9999999999999998
    vertex 3.0 -1.8369701987210297e-16 3.0
  endloop
endfacet
facet normal -0.9659258262890683 -0.25881904510252063 -0.0
  outer loop
    vertex 3.0 -1.8369701987210297e-16 -1.9999999999999998
    vertex 2.598076211353316 1.4999999999999991 3.0
    vertex 2.598076211353316 1.4999999999999991 -1.9999999999999998
  endloop
endfacet
facet normal -0.7071067811865479 -0.7071067811865472 -0.0
  outer loop
    vertex 1.5000000000000009 2.5980762113533156 3.0
    vertex 2.598076211353316 1.4999999999999991 -1.9999999999999998
    vertex 2.598076211353316 1.4999999999999991 3.0
  endloop
endfacet
facet normal -0.7071067811865479 -0.7071067811865472 -0.0
  outer loop
    vertex 2.598076211353316 1.4999999999999991 -1.9999999999999998
    vertex 1.5000000000000009 2.5980762113533156 3.0
    vertex 1.5000000000000009 2.5980762113533156 -1.9999999999999998
  endloop
endfacet
facet normal 0.2588190451025214 0.9659258262890682 0.0
  outer loop
    vertex 53.5 -2.5980762113533156 3.0
    vertex 55.0 -3.0 -1.9999999999999998
    vertex 53.5 -2.5980762113533156 -1.9999999999999998
  endloop
endfacet
facet normal 0.2588190451025214 0.9659258262890682 0.0
  outer loop
    vertex 55.0 -3.0 -1.9999999999999998
    vertex 53.5 -2.5980762113533156 3.0
    vertex 55.0 -3.0 3.0
  endloop
endfacet
facet normal -0.2588190451025206 0.9659258262890684 0.0
  outer loop
    vertex 55.0 -3.0 3.0
    vertex 56.5 -2.598076211353317 -1.9999999999999998
    vertex 55.0 -3.0 -1.9999999999999998
  endloop
endfacet
facet normal -0.2588190451025206 0.9659258262890684 0.0
  outer loop
    vertex 56.5 -2.598076211353317 -1.9999999999999998
    vertex 55.0 -3.0 3.0
    vertex 56.5 -2.598076211353317 3.0
  endloop
endfacet
facet normal -0.7071067811865479 0.7071067811865472 0.0
  outer loop
    vertex 57.598076211353316 -1.5000000000000013 3.0
    vertex 56.5 -2.598076211353317 -1.9999999999999998
    vertex 56.5 -2.598076211353317 3.0
  endloop
endfacet
facet normal -0.7071067811865479 0.7071067811865472 0.0
  outer loop
    vertex 56.5 -2.598076211353317 -1.9999999999999998
    vertex 57.598076211353316 -1.5000000000000013 3.0
    vertex 57.598076211353316 -1.5000000000000013 -1.9999999999999998
  endloop
endfacet
facet normal -0.9659258262890669 0.2588190451025266 0.0
  outer loop
    vertex 58.00000000000001 -5.510910596163089e-16 3.0
    vertex 57.598076211353316 -1.5000000000000013 -1.9999999999999998
    vertex 57.598076211353316 -1.5000000000000013 3.0
  endloop
endfacet
facet normal -0.9659258262890669 0.2588190451025266 0.0
  outer loop
    vertex 57.598076211353316 -1.5000000000000013 -1.9999999999999998
    vertex 58.00000000000001 -5.510910596163089e-16 3.0
    vertex 58.00000000000001 -5.510910596163089e-16 -1.9999999999999998
  endloop
endfacet
facet normal -0.9659258262890669 -0.2588190451025266 -0.0
  outer loop
    vertex 57.598076211353316 1.5000000000000002 3.0
    vertex 58.00000000000001 -5.510910596163089e-16 -1.9999999999999998
    vertex 58.00000000000001 -5.510910596163089e-16 3.0
  endloop
endfacet
facet normal -0.9659258262890669 -0.2588190451025266 -0.0
  outer loop
    vertex 58.00000000000001 -5.510910596163089e-16 -1.9999999999999998
    vertex 57.598076211353316 1.5000000000000002 3.0
    vertex 57.598076211353316 1.5000000000000002 -1.9999999999999998
  endloop
endfacet
facet normal -0.7071067811865479 -0.7071067811865471 -0.0
  outer loop
    vertex 56.5 2.598076211353316 3.0
    vertex 57.598076211353316 1.5000000000000002 -1.9999999999999998
    vertex 57.598076211353316 1.5000000000000002 3.0
  endloop
endfacet
facet normal -0.7071067811865479 -0.7071067811865471 -0.0
  outer loop
    vertex 57.598076211353316 1.5000000000000002 -1.9999999999999998
    vertex 56.5 2.598076211353316 3.0
    vertex 56.5 2.598076211353316 -1.9999999999999998
  endloop
endfacet
facet normal -0.2588190451025212 -0.9659258262890682 -0.0
  outer loop
    vertex 56.5 2.598076211353316 3.0
    vertex 55.0 3.0 -1.9999999999999998
    vertex 56.5 2.598076211353316 -1.9999999999999998
  endloop
endfacet
facet normal -0.2588190451025212 -0.9659258262890682 -0.0
  outer loop
    vertex 55.0 3.0 -1.9999999999999998
    vertex 56.5 2.598076211353316 3.0
    vertex 55.0 3.0 3.0
  endloop
endfacet
facet normal 0.2588190451025214 -0.9659258262890682 0.0
  outer loop
    vertex 55.0 3.0 3.0
    vertex 53.5 2.5980762113533156 -1.9999999999999998
    vertex 55.0 3.0 -1.9999999999999998
  endloop
endfacet
facet normal 0.2588190451025214 -0.9659258262890682 0.0
  outer loop
    vertex 53.5 2.5980762113533156 -1.9999999999999998
    vertex 55.0 3.0 3.0
    vertex 53.5 2.5980762113533156 3.0
  endloop
endfacet
facet normal 0.7071067811865479 -0.7071067811865472 0.0
  outer loop
    vertex 53.5 2.5980762113533156 -1.9999999999999998
    vertex 52.40192378864669 1.5000000000000002 3.0
    vertex 52.40192378864669 1.5000000000000002 -1.9999999999999998
  endloop
endfacet
facet normal 0.7071067811865479 -0.7071067811865472 0.0
  outer loop
    vertex 52.40192378864669 1.5000000000000002 3.0
    vertex 53.5 2.5980762113533156 -1.9999999999999998
    vertex 53.5 2.5980762113533156 3.0
  endloop
endfacet
facet normal 0.9659258262890669 -0.25881904510252673 0.0
  outer loop
    vertex 52.40192378864669 1.5000000000000002 -1.9999999999999998
    vertex 51.99999999999999 1.8369701987210297e-16 3.0
    vertex 51.99999999999999 1.8369701987210297e-16 -1.9999999999999998
  endloop
endfacet
facet normal 0.9659258262890669 -0.25881904510252673 0.0
  outer loop
    vertex 51.99999999999999 1.8369701987210297e-16 3.0
    vertex 52.40192378864669 1.5000000000000002 -1.9999999999999998
    vertex 52.40192378864669 1.5000000000000002 3.0
  endloop
endfacet
facet normal 0.9659258262890666 0.2588190451025268 0.0
  outer loop
    vertex 51.99999999999999 1.8369701987210297e-16 -1.9999999999999998
    vertex 52.40192378864669 -1.4999999999999991 3.0
    vertex 52.40192378864669 -1.4999999999999991 -1.9999999999999998
  endloop
endfacet
facet normal 0.9659258262890666 0.2588190451025268 0.0
  outer loop
    vertex 52.40192378864669 -1.4999999999999991 3.0
    vertex 51.99999999999999 1.8369701987210297e-16 -1.9999999999999998
    vertex 51.99999999999999 1.8369701987210297e-16 3.0
  endloop
endfacet
facet normal 0.707106781186548 0.707106781186547 0.0
  outer loop
    vertex 52.40192378864669 -1.4999999999999991 -1.9999999999999998
    vertex 53.5 -2.5980762113533156 3.0
    vertex 53.5 -2.5980762113533156 -1.9999999999999998
  endloop
endfacet
facet normal 0.707106781186548 0.707106781186547 0.0
  outer loop
    vertex 53.5 -2.5980762113533156 3.0
    vertex 52.40192378864669 -1.4999999999999991 -1.9999999999999998
    vertex 52.40192378864669 -1.4999999999999991 3.0
  endloop
endfacet
facet normal 0.0 0.0 -1.0
  outer loop
    vertex -3.0 5.196152422706631 -1.9999999999999998
    vertex -2.598076211353315 1.5000000000000013 -1.9999999999999998
    vertex -3.0 5.510910596163089e-16 -1.9999999999999998
  endloop
endfacet
facet normal 0.0 0.0 -1.0
  outer loop
    vertex -2.598076211353315 1.5000000000000013 -1.9999999999999998
    vertex -3.0 5.196152422706631 -1.9999999999999998
    vertex 0.0 6.0 -1.9999999999999998
  endloop
endfacet
facet normal 0.0 0.0 -1.0
  outer loop
    vertex -2.598076211353315 1.5000000000000013 -1.9999999999999998
    vertex 0.0 6.0 -1.9999999999999998
    vertex -1.499999999999998 2.598076211353317 -1.9999999999999998
  endloop
endfacet
facet normal 0.0 0.0 -1.0
  outer loop
    vertex -1.499999999999998 2.598076211353317 -1.9999999999999998
    vertex 0.0 6.0 -1.9999999999999998
    vertex 1.6996616692943939e-15 3.0 -1.9999999999999998
  endloop
endfacet
facet normal 0.0 0.0 -1.0
  outer loop
    vertex 1.6996616692943939e-15 3.0 -1.9999999999999998
    vertex 0.0 6.0 -1.9999999999999998
    vertex 2.9999999999999982 5.196152422706632 -1.9999999999999998
  endloop
endfacet
facet normal 0.0 0.0 -1.0
  outer loop
    vertex 1.6996616692943939e-15 3.0 -1.9999999999999998
    vertex 2.9999999999999982 5.196152422706632 -1.9999999999999998
    vertex 1.5000000000000009 2.5980762113533156 -1.9999999999999998
  endloop
endfacet
facet normal 0.0 0.0 -1.0
  outer loop
    vertex 1.5000000000000009 2.5980762113533156 -1.9999999999999998
    vertex 2.9999999999999982 5.196152422706632 -1.9999999999999998
    vertex 2.598076211353316 1.4999999999999991 -1.9999999999999998
  endloop
endfacet
facet normal 0.0 0.0 -1.0
  outer loop
    vertex 2.598076211353316 1.4999999999999991 -1.9999999999999998
    vertex 2.9999999999999982 5.196152422706632 -1.9999999999999998
    vertex 3.0 -1.8369701987210297e-16 -1.9999999999999998
  endloop
endfacet
facet normal 0.0 0.0 -1.0
  outer loop
    vertex 3.0 -1.8369701987210297e-16 -1.9999999999999998
    vertex 2.9999999999999982 5.196152422706632 -1.9999999999999998
    vertex 5.196152422706631 3.0000000000000004 -1.9999999999999998
  endloop
endfacet
facet normal 0.0 0.0 -1.0
  outer loop
    vertex 3.0 -1.8369701987210297e-16 -1.9999999999999998
    vertex 5.196152422706631 3.0000000000000004 -1.9999999999999998
    vertex 5.196152422706631 -3.0000000000000027 -1.9999999999999998
  endloop
endfacet
facet normal 0.0 0.0 -1.0
  outer loop
    vertex 5.196152422706631 -3.0000000000000027 -1.9999999999999998
    vertex 5.196152422706631 3.0000000000000004 -1.9999999999999998
    vertex 5.598076211353315 -1.5000000000000007 -1.9999999999999998
  endloop
endfacet
facet normal 0.0 0.0 -1.0
  outer loop
    vertex 5.598076211353315 -1.5000000000000007 -1.9999999999999998
    vertex 5.196152422706631 3.0000000000000004 -1.9999999999999998
    vertex 5.598076211353318 1.4999999999999993 -1.9999999999999998
  endloop
endfacet
facet normal 0.0 0.0 -1.0
  outer loop
    vertex -5.196152422706631 3.0000000000000004 -1.9999999999999998
    vertex -5.196152422706632 -2.9999999999999982 -1.9999999999999998
    vertex -6.0 3.6739403974420594e-16 -1.9999999999999998
  endloop
endfacet
facet normal 0.0 0.0 -1.0
  outer loop
    vertex -5.196152422706632 -2.9999999999999982 -1.9999999999999998
    vertex -5.196152422706631 3.0000000000000004 -1.9999999999999998
    vertex -3.000000000000002 -5.196152422706631 -1.9999999999999998
  endloop
endfacet
facet normal 0.0 0.0 -1.0
  outer loop
    vertex -3.000000000000002 -5.196152422706631 -1.9999999999999998
    vertex -5.196152422706631 3.0000000000000004 -1.9999999999999998
    vertex -3.0 5.196152422706631 -1.9999999999999998
  endloop
endfacet
facet normal 0.0 0.0 -1.0
  outer loop
    vertex -3.000000000000002 -5.196152422706631 -1.9999999999999998
    vertex -3.0 5.196152422706631 -1.9999999999999998
    vertex -3.0 5.510910596163089e-16 -1.9999999999999998
  endloop
endfacet
facet normal 0.0 0.0 -1.0
  outer loop
    vertex -3.000000000000002 -5.196152422706631 -1.9999999999999998
    vertex -3.0 5.510910596163089e-16 -1.9999999999999998
    vertex -2.5980762113533156 -1.5000000000000002 -1.9999999999999998
  endloop
endfacet
facet normal 0.0 0.0 -1.0
  outer loop
    vertex -3.000000000000002 -5.196152422706631 -1.9999999999999998
    vertex -2.5980762113533156 -1.5000000000000002 -1.9999999999999998
    vertex -3.3993233385887878e-15 -6.0 -1.9999999999999998
  endloop
endfacet
facet normal 0.0 0.0 -1.0
  outer loop
    vertex -3.3993233385887878e-15 -6.0 -1.9999999999999998
    vertex -2.5980762113533156 -1.5000000000000002 -1.9999999999999998
    vertex -1.499999999999999 -2.598076211353316 -1.9999999999999998
  endloop
endfacet
facet normal 0.0 0.0 -1.0
  outer loop
    vertex -3.3993233385887878e-15 -6.0 -1.9999999999999998
    vertex -1.499999999999999 -2.598076211353316 -1.9999999999999998
    vertex 0.0 -3.0 -1.9999999999999998
  endloop
endfacet
facet normal 0.0 0.0 -1.0
  outer loop
    vertex -3.3993233385887878e-15 -6.0 -1.9999999999999998
    vertex 0.0 -3.0 -1.9999999999999998
    vertex 2.9999999999999964 -5.196152422706634 -1.9999999999999998
  endloop
endfacet
facet normal 0.0 0.0 -1.0
  outer loop
    vertex 2.9999999999999964 -5.196152422706634 -1.9999999999999998
    vertex 0.0 -3.0 -1.9999999999999998
    vertex 1.4999999999999998 -2.598076211353316 -1.9999999999999998
  endloop
endfacet
facet normal 0.0 0.0 -1.0
  outer loop
    vertex 2.9999999999999964 -5.196152422706634 -1.9999999999999998
    vertex 1.4999999999999998 -2.598076211353316 -1.9999999999999998
    vertex 2.5980762113533156 -1.5000000000000002 -1.9999999999999998
  endloop
endfacet
facet normal 0.0 0.0 -1.0
  outer loop
    vertex 2.9999999999999964 -5.196152422706634 -1.9999999999999998
    vertex 2.5980762113533156 -1.5000000000000002 -1.9999999999999998
    vertex 3.0 -1.8369701987210297e-16 -1.9999999999999998
  endloop
endfacet
facet normal 0.0 0.0 -1.0
  outer loop
    vertex 2.9999999999999964 -5.196152422706634 -1.9999999999999998
    vertex 3.0 -1.8369701987210297e-16 -1.9999999999999998
    vertex 5.196152422706631 -3.0000000000000027 -1.9999999999999998
  endloop
endfacet
facet normal 0.0 0.0 -1.0
  outer loop
    vertex 51.99999999999999 5.196152422706631 -1.9999999999999998
    vertex 52.40192378864669 1.5000000000000002 -1.9999999999999998
    vertex 51.99999999999999 1.8369701987210297e-16 -1.9999999999999998
  endloop
endfacet
facet normal 0.0 0.0 -1.0
  outer loop
    vertex 52.40192378864669 1.5000000000000002 -1.9999999999999998
    vertex 51.99999999999999 5.196152422706631 -1.9999999999999998
    vertex 55.0 6.0 -1.9999999999999998
  endloop
endfacet
facet normal 0.0 0.0 -1.0
  outer loop
    vertex 52.40192378864669 1.5000000000000002 -1.9999999999999998
    vertex 55.0 6.0 -1.9999999999999998
    vertex 53.5 2.5980762113533156 -1.9999999999999998
  endloop
endfacet
facet normal 0.0 0.0 -1.0
  outer loop
    vertex 53.5 2.5980762113533156 -1.9999999999999998
    vertex 55.0 6.0 -1.9999999999999998
    vertex 55.0 3.0 -1.9999999999999998
  endloop
endfacet
facet normal 0.0 0.0 -1.0
  outer loop
    vertex 55.0 3.0 -1.9999999999999998
    vertex 55.0 6.0 -1.9999999999999998
    vertex 57.99999999999999 5.196152422706634 -1.9999999999999998
  endloop
endfacet
facet normal 0.0 0.0 -1.0
  outer loop
    vertex 55.0 3.0 -1.9999999999999998
    vertex 57.99999999999999 5.196152422706634 -1.9999999999999998
    vertex 56.5 2.598076211353316 -1.9999999999999998
  endloop
endfacet
facet normal 0.0 0.0 -1.0
  outer loop
    vertex 56.5 2.598076211353316 -1.9999999999999998
    vertex 57.99999999999999 5.196152422706634 -1.9999999999999998
    vertex 57.598076211353316 1.5000000000000002 -1.9999999999999998
  endloop
endfacet
facet normal 0.0 0.0 -1.0
  outer loop
    vertex 57.598076211353316 1.5000000000000002 -1.9999999999999998
    vertex 57.99999999999999 5.196152422706634 -1.9999999999999998
    vertex 58.00000000000001 -5.510910596163089e-16 -1.9999999999999998
  endloop
endfacet
facet normal 0.0 0.0 -1.0
  outer loop
    vertex 58.00000000000001 -5.510910596163089e-16 -1.9999999999999998
    vertex 57.99999999999999 5.196152422706634 -1.9999999999999998
    vertex 60.19615242270664 3.0000000000000027 -1.9999999999999998
  endloop
endfacet
facet normal 0.0 0.0 -1.0
  outer loop
    vertex 49.80384757729337 2.9999999999999982 -1.9999999999999998
    vertex 49.401923788646684 -1.5000000000000007 -1.9999999999999998
    vertex 49.401923788646684 1.4999999999999991 -1.9999999999999998
  endloop
endfacet
facet normal 0.0 0.0 -1.0
  outer loop
    vertex 49.401923788646684 -1.5000000000000007 -1.9999999999999998
    vertex 49.80384757729337 2.9999999999999982 -1.9999999999999998
    vertex 49.80384757729337 -3.0000000000000004 -1.9999999999999998
  endloop
endfacet
facet normal 0.0 0.0 -1.0
  outer loop
    vertex 49.80384757729337 -3.0000000000000004 -1.9999999999999998
    vertex 49.80384757729337 2.9999999999999982 -1.9999999999999998
    vertex 51.99999999999999 5.196152422706631 -1.9999999999999998
  endloop
endfacet
facet normal 0.0 0.0 -1.0
  outer loop
    vertex 49.80384757729337 -3.0000000000000004 -1.9999999999999998
    vertex 51.99999999999999 5.196152422706631 -1.9999999999999998
    vertex 51.99999999999999 1.8369701987210297e-16 -1.9999999999999998
  endloop
endfacet
facet normal 0.0 0.0 -1.0
  outer loop
    vertex 49.80384757729337 -3.0000000000000004 -1.9999999999999998
    vertex 51.99999999999999 1.8369701987210297e-16 -1.9999999999999998
    vertex 52.00000000000001 -5.196152422706631 -1.9999999999999998
  endloop
endfacet
facet normal 0.0 0.0 -1.0
  outer loop
    vertex 52.00000000000001 -5.196152422706631 -1.9999999999999998
    vertex 51.99999999999999 1.8369701987210297e-16 -1.9999999999999998
    vertex 52.40192378864669 -1.4999999999999991 -1.9999999999999998
  endloop
endfacet
facet normal 0.0 0.0 -1.0
  outer loop
    vertex 52.00000000000001 -5.196152422706631 -1.9999999999999998
    vertex 52.40192378864669 -1.4999999999999991 -1.9999999999999998
    vertex 55.0 -6.0 -1.9999999999999998
  endloop
endfacet
facet normal 0.0 0.0 -1.0
  outer loop
    vertex 55.0 -6.0 -1.9999999999999998
    vertex 52.40192378864669 -1.4999999999999991 -1.9999999999999998
    vertex 53.5 -2.5980762113533156 -1.9999999999999998
  endloop
endfacet
facet normal 0.0 0.0 -1.0
  outer loop
    vertex 55.0 -6.0 -1.9999999999999998
    vertex 53.5 -2.5980762113533156 -1.9999999999999998
    vertex 55.0 -3.0 -1.9999999999999998
  endloop
endfacet
facet normal 0.0 0.0 -1.0
  outer loop
    vertex 55.0 -6.0 -1.9999999999999998
    vertex 55.0 -3.0 -1.9999999999999998
    vertex 56.5 -2.598076211353317 -1.9999999999999998
  endloop
endfacet
facet normal 0.0 0.0 -1.0
  outer loop
    vertex 55.0 -6.0 -1.9999999999999998
    vertex 56.5 -2.598076211353317 -1.9999999999999998
    vertex 57.99999999999999 -5.196152422706632 -1.9999999999999998
  endloop
endfacet
facet normal 0.0 0.0 -1.0
  outer loop
    vertex 57.99999999999999 -5.196152422706632 -1.9999999999999998
    vertex 56.5 -2.598076211353317 -1.9999999999999998
    vertex 57.598076211353316 -1.5000000000000013 -1.9999999999999998
  endloop
endfacet
facet normal 0.0 0.0 -1.0
  outer loop
    vertex 57.99999999999999 -5.196152422706632 -1.9999999999999998
    vertex 57.598076211353316 -1.5000000000000013 -1.9999999999999998
    vertex 58.00000000000001 -5.510910596163089e-16 -1.9999999999999998
  endloop
endfacet
facet normal 0.0 0.0 -1.0
  outer loop
    vertex 57.99999999999999 -5.196152422706632 -1.9999999999999998
    vertex 58.00000000000001 -5.510910596163089e-16 -1.9999999999999998
    vertex 60.19615242270664 -3.0000000000000004 -1.9999999999999998
  endloop
endfacet
facet normal 0.0 0.0 -1.0
  outer loop
    vertex 60.19615242270664 -3.0000000000000004 -1.9999999999999998
    vertex 58.00000000000001 -5.510910596163089e-16 -1.9999999999999998
    vertex 60.19615242270664 3.0000000000000027 -1.9999999999999998
  endloop
endfacet
facet normal 0.0 0.0 -1.0
  outer loop
    vertex 60.19615242270664 -3.0000000000000004 -1.9999999999999998
    vertex 60.19615242270664 3.0000000000000027 -1.9999999999999998
    vertex 61.0 1.1021821192326177e-15 -1.9999999999999998
  endloop
endfacet
facet normal 0.7071067811865478 -2.4180923083959784e-16 -0.7071067811865474
  outer loop
    vertex 5.598076211353318 1.4999999999999993 -1.9999999999999998
    vertex 7.598076211353315 -1.5000000000000007 0.0
    vertex 5.598076211353315 -1.5000000000000007 -1.9999999999999998
  endloop
endfacet
facet normal 0.7071067811865478 -2.4180923083959784e-16 -0.7071067811865474
  outer loop
    vertex 7.598076211353315 -1.5000000000000007 0.0
    vertex 5.598076211353318 1.4999999999999993 -1.9999999999999998
    vertex 7.598076211353315 1.4999999999999993 0.0
  endloop
endfacet
facet normal 0.0 0.0 -1.0
  outer loop
    vertex 47.401923788646684 1.4999999999999993 0.0
    vertex 7.598076211353315 -1.5000000000000007 0.0
    vertex 7.598076211353315 1.4999999999999993 0.0
  endloop
endfacet
facet normal 0.0 0.0 -1.0
  outer loop
    vertex 7.598076211353315 -1.5000000000000007 0.0
    vertex 47.401923788646684 1.4999999999999993 0.0
    vertex 47.401923788646684 -1.5000000000000007 0.0
  endloop
endfacet
facet normal -0.7071067811865471 -2.198265734905431e-17 -0.7071067811865479
  outer loop
    vertex 49.401923788646684 1.4999999999999991 -1.9999999999999998
    vertex 47.401923788646684 -1.5000000000000007 0.0
    vertex 47.401923788646684 1.4999999999999993 0.0
  endloop
endfacet
facet normal -0.7071067811865471 -2.198265734905431e-17 -0.7071067811865479
  outer loop
    vertex 47.401923788646684 -1.5000000000000007 0.0
    vertex 49.401923788646684 1.4999999999999991 -1.9999999999999998
    vertex 49.401923788646684 -1.5000000000000007 -1.9999999999999998
  endloop
endfacet
endsolid motor_controller_bracket
