solid ais_logo
facet normal -0.0 -0.0 -1.0
  outer loop
    vertex 15.503275297664514 31.838357089511582 0.0
    vertex 19.621624712057418 25.358138549266016 0.0
    vertex 16.89097999164473 16.371098626346505 0.0
  endloop
endfacet
facet normal -0.0 -0.0 -1.0
  outer loop
    vertex 19.621624712057418 25.358138549266016 0.0
    vertex 15.503275297664514 31.838357089511582 0.0
    vertex 23.929691050819358 31.838357089511582 0.0
  endloop
endfacet
facet normal -0.0 -0.0 -1.0
  outer loop
    vertex 19.621624712057418 25.358138549266016 0.0
    vertex 23.929691050819358 31.838357089511582 0.0
    vertex 22.381046718750802 16.371098626346505 0.0
  endloop
endfacet
facet normal -0.0 -0.0 -1.0
  outer loop
    vertex 15.503275297664514 31.838357089511582 0.0
    vertex 13.994599418763594 6.8383560895115805 0.0
    vertex 6.106958414308442 6.8383560895115805 0.0
  endloop
endfacet
facet normal -0.0 -0.0 -1.0
  outer loop
    vertex 13.994599418763594 6.8383560895115805 0.0
    vertex 15.503275297664514 31.838357089511582 0.0
    vertex 15.213104327667498 10.965232107246916 0.0
  endloop
endfacet
facet normal -0.0 -0.0 -1.0
  outer loop
    vertex 15.213104327667498 10.965232107246916 0.0
    vertex 15.503275297664514 31.838357089511582 0.0
    vertex 16.89097999164473 16.371098626346505 0.0
  endloop
endfacet
facet normal -0.0 -0.0 -1.0
  outer loop
    vertex 15.213104327667498 10.965232107246916 0.0
    vertex 16.89097999164473 16.371098626346505 0.0
    vertex 23.983515234418437 10.965232107246916 0.0
  endloop
endfacet
facet normal -0.0 -0.0 -1.0
  outer loop
    vertex 23.983515234418437 10.965232107246916 0.0
    vertex 16.89097999164473 16.371098626346505 0.0
    vertex 22.381046718750802 16.371098626346505 0.0
  endloop
endfacet
facet normal -0.0 -0.0 -1.0
  outer loop
    vertex 23.983515234418437 10.965232107246916 0.0
    vertex 22.381046718750802 16.371098626346505 0.0
    vertex 23.929691050819358 31.838357089511582 0.0
  endloop
endfacet
facet normal -0.0 -0.0 -1.0
  outer loop
    vertex 23.983515234418437 10.965232107246916 0.0
    vertex 23.929691050819358 31.838357089511582 0.0
    vertex 33.32387628333982 6.8383560895115805 0.0
  endloop
endfacet
facet normal -0.0 -0.0 -1.0
  outer loop
    vertex 23.983515234418437 10.965232107246916 0.0
    vertex 33.32387628333982 6.8383560895115805 0.0
    vertex 25.234261362210898 6.8383560895115805 0.0
  endloop
endfacet
facet normal -0.0 -0.0 -1.0
  outer loop
    vertex 43.82865160121158 31.838357089511582 0.0
    vertex 36.08649576628662 6.8383560895115805 0.0
    vertex 36.08649576628662 31.838357089511582 0.0
  endloop
endfacet
facet normal -0.0 -0.0 -1.0
  outer loop
    vertex 36.08649576628662 6.8383560895115805 0.0
    vertex 43.82865160121158 31.838357089511582 0.0
    vertex 43.82865160121158 6.8383560895115805 0.0
  endloop
endfacet
facet normal -0.0 -0.0 -1.0
  outer loop
    vertex 56.096302160130406 32.01954741053819 0.0
    vertex 56.27749248115701 26.4047791095491 0.0
    vertex 56.106960414308446 25.648043062908577 0.0
  endloop
endfacet
facet normal -0.0 -0.0 -1.0
  outer loop
    vertex 56.27749248115701 26.4047791095491 0.0
    vertex 56.096302160130406 32.01954741053819 0.0
    vertex 59.585814578019225 32.264687256633 0.0
  endloop
endfacet
facet normal -0.0 -0.0 -1.0
  outer loop
    vertex 56.27749248115701 26.4047791095491 0.0
    vertex 59.585814578019225 32.264687256633 0.0
    vertex 56.78908868170271 27.037879407724407 0.0
  endloop
endfacet
facet normal -0.0 -0.0 -1.0
  outer loop
    vertex 56.78908868170271 27.037879407724407 0.0
    vertex 59.585814578019225 32.264687256633 0.0
    vertex 57.63748571427433 27.466341225681433 0.0
  endloop
endfacet
facet normal -0.0 -0.0 -1.0
  outer loop
    vertex 57.63748571427433 27.466341225681433 0.0
    vertex 59.585814578019225 32.264687256633 0.0
    vertex 58.81842027720067 27.60916183166711 0.0
  endloop
endfacet
facet normal -0.0 -0.0 -1.0
  outer loop
    vertex 58.81842027720067 27.60916183166711 0.0
    vertex 59.585814578019225 32.264687256633 0.0
    vertex 60.278601099591526 27.41731325646247 0.0
  endloop
endfacet
facet normal -0.0 -0.0 -1.0
  outer loop
    vertex 60.278601099591526 27.41731325646247 0.0
    vertex 59.585814578019225 32.264687256633 0.0
    vertex 61.839502423964824 32.15330850047253 0.0
  endloop
endfacet
facet normal -0.0 -0.0 -1.0
  outer loop
    vertex 60.278601099591526 27.41731325646247 0.0
    vertex 61.839502423964824 32.15330850047253 0.0
    vertex 61.3849278832716 26.84176753084855 0.0
  endloop
endfacet
facet normal -0.0 -0.0 -1.0
  outer loop
    vertex 61.3849278832716 26.84176753084855 0.0
    vertex 61.839502423964824 32.15330850047253 0.0
    vertex 62.15445383492576 25.844154939784435 0.0
  endloop
endfacet
facet normal -0.0 -0.0 -1.0
  outer loop
    vertex 62.15445383492576 25.844154939784435 0.0
    vertex 61.839502423964824 32.15330850047253 0.0
    vertex 63.80861488335688 31.819172231991118 0.0
  endloop
endfacet
facet normal -0.0 -0.0 -1.0
  outer loop
    vertex 62.15445383492576 25.844154939784435 0.0
    vertex 63.80861488335688 31.819172231991118 0.0
    vertex 62.60423216123887 24.386105768229182 0.0
  endloop
endfacet
facet normal -0.0 -0.0 -1.0
  outer loop
    vertex 62.60423216123887 24.386105768229182 0.0
    vertex 63.80861488335688 31.819172231991118 0.0
    vertex 69.8859514156727 24.8124359353506 0.0
  endloop
endfacet
facet normal -0.0 -0.0 -1.0
  outer loop
    vertex 69.8859514156727 24.8124359353506 0.0
    vertex 63.80861488335688 31.819172231991118 0.0
    vertex 65.49315195619538 31.262278451188767 0.0
  endloop
endfacet
facet normal -0.0 -0.0 -1.0
  outer loop
    vertex 69.8859514156727 24.8124359353506 0.0
    vertex 65.49315195619538 31.262278451188767 0.0
    vertex 66.89311364248034 30.48262715806547 0.0
  endloop
endfacet
facet normal -0.0 -0.0 -1.0
  outer loop
    vertex 69.8859514156727 24.8124359353506 0.0
    vertex 66.89311364248034 30.48262715806547 0.0
    vertex 68.023421498061 29.459967669682964 0.0
  endloop
endfacet
facet normal -0.0 -0.0 -1.0
  outer loop
    vertex 69.8859514156727 24.8124359353506 0.0
    vertex 68.023421498061 29.459967669682964 0.0
    vertex 68.8989970787866 28.174049303102983 0.0
  endloop
endfacet
facet normal -0.0 -0.0 -1.0
  outer loop
    vertex 69.8859514156727 24.8124359353506 0.0
    vertex 68.8989970787866 28.174049303102983 0.0
    vertex 69.51984038465717 26.624872058325533 0.0
  endloop
endfacet
facet normal -0.0 -0.0 -1.0
  outer loop
    vertex 49.24091307281799 26.82258267332809 0.0
    vertex 49.09809246683232 23.54730116441779 0.0
    vertex 48.96166681335346 24.948861588829455 0.0
  endloop
endfacet
facet normal -0.0 -0.0 -1.0
  outer loop
    vertex 49.09809246683232 23.54730116441779 0.0
    vertex 49.24091307281799 26.82258267332809 0.0
    vertex 49.507369427268884 22.275771440978158 0.0
  endloop
endfacet
facet normal -0.0 -0.0 -1.0
  outer loop
    vertex 49.507369427268884 22.275771440978158 0.0
    vertex 49.24091307281799 26.82258267332809 0.0
    vertex 50.07865185121158 28.58972121604637 0.0
  endloop
endfacet
facet normal -0.0 -0.0 -1.0
  outer loop
    vertex 49.507369427268884 22.275771440978158 0.0
    vertex 50.07865185121158 28.58972121604637 0.0
    vertex 50.18949769466316 21.13427241851056 0.0
  endloop
endfacet
facet normal -0.0 -0.0 -1.0
  outer loop
    vertex 50.18949769466316 21.13427241851056 0.0
    vertex 50.07865185121158 28.58972121604637 0.0
    vertex 51.47701479936984 30.120246516012266 0.0
  endloop
endfacet
facet normal -0.0 -0.0 -1.0
  outer loop
    vertex 50.18949769466316 21.13427241851056 0.0
    vertex 51.47701479936984 30.120246516012266 0.0
    vertex 51.14447726901513 20.122804097014992 0.0
  endloop
endfacet
facet normal -0.0 -0.0 -1.0
  outer loop
    vertex 51.14447726901513 20.122804097014992 0.0
    vertex 51.47701479936984 30.120246516012266 0.0
    vertex 52.40961203994794 19.223247444388797 0.0
  endloop
endfacet
facet normal -0.0 -0.0 -1.0
  outer loop
    vertex 52.40961203994794 19.223247444388797 0.0
    vertex 51.47701479936984 30.120246516012266 0.0
    vertex 53.438133568128364 31.28412787225374 0.0
  endloop
endfacet
facet normal -0.0 -0.0 -1.0
  outer loop
    vertex 52.40961203994794 19.223247444388797 0.0
    vertex 53.438133568128364 31.28412787225374 0.0
    vertex 54.03925910376955 18.417483428529316 0.0
  endloop
endfacet
facet normal -0.0 -0.0 -1.0
  outer loop
    vertex 54.03925910376955 18.417483428529316 0.0
    vertex 53.438133568128364 31.28412787225374 0.0
    vertex 56.096302160130406 32.01954741053819 0.0
  endloop
endfacet
facet normal -0.0 -0.0 -1.0
  outer loop
    vertex 54.03925910376955 18.417483428529316 0.0
    vertex 56.096302160130406 32.01954741053819 0.0
    vertex 56.033418460479986 17.705512049436546 0.0
  endloop
endfacet
facet normal -0.0 -0.0 -1.0
  outer loop
    vertex 56.033418460479986 17.705512049436546 0.0
    vertex 56.096302160130406 32.01954741053819 0.0
    vertex 56.106960414308446 25.648043062908577 0.0
  endloop
endfacet
facet normal -0.0 -0.0 -1.0
  outer loop
    vertex 56.033418460479986 17.705512049436546 0.0
    vertex 56.106960414308446 25.648043062908577 0.0
    vertex 56.247649369458514 25.081023940637092 0.0
  endloop
endfacet
facet normal -0.0 -0.0 -1.0
  outer loop
    vertex 56.033418460479986 17.705512049436546 0.0
    vertex 56.247649369458514 25.081023940637092 0.0
    vertex 58.39209011007925 17.087333307110487 0.0
  endloop
endfacet
facet normal -0.0 -0.0 -1.0
  outer loop
    vertex 58.39209011007925 17.087333307110487 0.0
    vertex 56.247649369458514 25.081023940637092 0.0
    vertex 56.66971623490872 24.573691041762604 0.0
  endloop
endfacet
facet normal -0.0 -0.0 -1.0
  outer loop
    vertex 58.39209011007925 17.087333307110487 0.0
    vertex 56.66971623490872 24.573691041762604 0.0
    vertex 57.59058939589097 24.096201254586617 0.0
  endloop
endfacet
facet normal -0.0 -0.0 -1.0
  outer loop
    vertex 58.39209011007925 17.087333307110487 0.0
    vertex 57.59058939589097 24.096201254586617 0.0
    vertex 59.26180365100694 23.65281788078034 0.0
  endloop
endfacet
facet normal -0.0 -0.0 -1.0
  outer loop
    vertex 58.39209011007925 17.087333307110487 0.0
    vertex 59.26180365100694 23.65281788078034 0.0
    vertex 60.9330179061229 16.383888531360146 0.0
  endloop
endfacet
facet normal -0.0 -0.0 -1.0
  outer loop
    vertex 60.9330179061229 16.383888531360146 0.0
    vertex 59.26180365100694 23.65281788078034 0.0
    vertex 63.608239704809804 22.555017700442686 0.0
  endloop
endfacet
facet normal -0.0 -0.0 -1.0
  outer loop
    vertex 60.9330179061229 16.383888531360146 0.0
    vertex 63.608239704809804 22.555017700442686 0.0
    vertex 62.348434060966014 15.637810738897665 0.0
  endloop
endfacet
facet normal -0.0 -0.0 -1.0
  outer loop
    vertex 62.348434060966014 15.637810738897665 0.0
    vertex 63.608239704809804 22.555017700442686 0.0
    vertex 62.987929311648145 14.81925681802454 0.0
  endloop
endfacet
facet normal -0.0 -0.0 -1.0
  outer loop
    vertex 62.987929311648145 14.81925681802454 0.0
    vertex 63.608239704809804 22.555017700442686 0.0
    vertex 63.201094395208855 13.898383657042277 0.0
  endloop
endfacet
facet normal -0.0 -0.0 -1.0
  outer loop
    vertex 55.37367252685959 15.569597912158239 0.0
    vertex 48.31897408641793 13.299389772236683 0.0
    vertex 48.02374044568634 15.109161331667107 0.0
  endloop
endfacet
facet normal -0.0 -0.0 -1.0
  outer loop
    vertex 48.31897408641793 13.299389772236683 0.0
    vertex 55.37367252685959 15.569597912158239 0.0
    vertex 48.88066408160039 11.655886977983613 0.0
  endloop
endfacet
facet normal -0.0 -0.0 -1.0
  outer loop
    vertex 48.88066408160039 11.655886977983613 0.0
    vertex 55.37367252685959 15.569597912158239 0.0
    vertex 49.70881043123375 10.178652948907898 0.0
  endloop
endfacet
facet normal -0.0 -0.0 -1.0
  outer loop
    vertex 49.70881043123375 10.178652948907898 0.0
    vertex 55.37367252685959 15.569597912158239 0.0
    vertex 50.803413135317996 8.867687685009534 0.0
  endloop
endfacet
facet normal -0.0 -0.0 -1.0
  outer loop
    vertex 50.803413135317996 8.867687685009534 0.0
    vertex 55.37367252685959 15.569597912158239 0.0
    vertex 52.2763838627225 7.793335663863558 0.0
  endloop
endfacet
facet normal -0.0 -0.0 -1.0
  outer loop
    vertex 52.2763838627225 7.793335663863558 0.0
    vertex 55.37367252685959 15.569597912158239 0.0
    vertex 54.23963428231663 7.025941363045004 0.0
  endloop
endfacet
facet normal -0.0 -0.0 -1.0
  outer loop
    vertex 54.23963428231663 7.025941363045004 0.0
    vertex 55.37367252685959 15.569597912158239 0.0
    vertex 56.69316439410039 6.565504782553872 0.0
  endloop
endfacet
facet normal -0.0 -0.0 -1.0
  outer loop
    vertex 56.69316439410039 6.565504782553872 0.0
    vertex 55.37367252685959 15.569597912158239 0.0
    vertex 55.736053168912804 13.99217629380899 0.0
  endloop
endfacet
facet normal -0.0 -0.0 -1.0
  outer loop
    vertex 56.69316439410039 6.565504782553872 0.0
    vertex 55.736053168912804 13.99217629380899 0.0
    vertex 56.34570530789644 12.841084842581159 0.0
  endloop
endfacet
facet normal -0.0 -0.0 -1.0
  outer loop
    vertex 56.69316439410039 6.565504782553872 0.0
    vertex 56.34570530789644 12.841084842581159 0.0
    vertex 57.006517066934634 12.177075607289549 0.0
  endloop
endfacet
facet normal -0.0 -0.0 -1.0
  outer loop
    vertex 56.69316439410039 6.565504782553872 0.0
    vertex 57.006517066934634 12.177075607289549 0.0
    vertex 59.63697419807379 6.4120259223901614 0.0
  endloop
endfacet
facet normal -0.0 -0.0 -1.0
  outer loop
    vertex 59.63697419807379 6.4120259223901614 0.0
    vertex 57.006517066934634 12.177075607289549 0.0
    vertex 57.79522787610925 11.702783296366968 0.0
  endloop
endfacet
facet normal -0.0 -0.0 -1.0
  outer loop
    vertex 59.63697419807379 6.4120259223901614 0.0
    vertex 57.79522787610925 11.702783296366968 0.0
    vertex 58.71183773542032 11.418207909813423 0.0
  endloop
endfacet
facet normal -0.0 -0.0 -1.0
  outer loop
    vertex 59.63697419807379 6.4120259223901614 0.0
    vertex 58.71183773542032 11.418207909813423 0.0
    vertex 59.75634664486779 11.323349447628907 0.0
  endloop
endfacet
facet normal -0.0 -0.0 -1.0
  outer loop
    vertex 59.63697419807379 6.4120259223901614 0.0
    vertex 59.75634664486779 11.323349447628907 0.0
    vertex 62.95808619994965 6.6742189751698335 0.0
  endloop
endfacet
facet normal -0.0 -0.0 -1.0
  outer loop
    vertex 62.95808619994965 6.6742189751698335 0.0
    vertex 59.75634664486779 11.323349447628907 0.0
    vertex 61.22079076892985 11.517329673669153 0.0
  endloop
endfacet
facet normal -0.0 -0.0 -1.0
  outer loop
    vertex 62.95808619994965 6.6742189751698335 0.0
    vertex 61.22079076892985 11.517329673669153 0.0
    vertex 62.30580104425387 12.099270351789889 0.0
  endloop
endfacet
facet normal -0.0 -0.0 -1.0
  outer loop
    vertex 62.95808619994965 6.6742189751698335 0.0
    vertex 62.30580104425387 12.099270351789889 0.0
    vertex 62.97727105747012 12.937009130183478 0.0
  endloop
endfacet
facet normal -0.0 -0.0 -1.0
  outer loop
    vertex 62.95808619994965 6.6742189751698335 0.0
    vertex 62.97727105747012 12.937009130183478 0.0
    vertex 65.65675615782823 7.460798133508852 0.0
  endloop
endfacet
facet normal -0.0 -0.0 -1.0
  outer loop
    vertex 65.65675615782823 7.460798133508852 0.0
    vertex 62.97727105747012 12.937009130183478 0.0
    vertex 63.201094395208855 13.898383657042277 0.0
  endloop
endfacet
facet normal -0.0 -0.0 -1.0
  outer loop
    vertex 65.65675615782823 7.460798133508852 0.0
    vertex 63.201094395208855 13.898383657042277 0.0
    vertex 63.608239704809804 22.555017700442686 0.0
  endloop
endfacet
facet normal -0.0 -0.0 -1.0
  outer loop
    vertex 65.65675615782823 7.460798133508852 0.0
    vertex 63.608239704809804 22.555017700442686 0.0
    vertex 66.51794309541349 21.44442761509139 0.0
  endloop
endfacet
facet normal -0.0 -0.0 -1.0
  outer loop
    vertex 65.65675615782823 7.460798133508852 0.0
    vertex 66.51794309541349 21.44442761509139 0.0
    vertex 67.77988039009288 8.754710190722358 0.0
  endloop
endfacet
facet normal -0.0 -0.0 -1.0
  outer loop
    vertex 67.77988039009288 8.754710190722358 0.0
    vertex 66.51794309541349 21.44442761509139 0.0
    vertex 68.4108490374326 20.193148574590026 0.0
  endloop
endfacet
facet normal -0.0 -0.0 -1.0
  outer loop
    vertex 67.77988039009288 8.754710190722358 0.0
    vertex 68.4108490374326 20.193148574590026 0.0
    vertex 69.374355215127 10.538901940125497 0.0
  endloop
endfacet
facet normal -0.0 -0.0 -1.0
  outer loop
    vertex 69.374355215127 10.538901940125497 0.0
    vertex 68.4108490374326 20.193148574590026 0.0
    vertex 69.70689274548171 18.673281528802168 0.0
  endloop
endfacet
facet normal -0.0 -0.0 -1.0
  outer loop
    vertex 69.374355215127 10.538901940125497 0.0
    vertex 69.70689274548171 18.673281528802168 0.0
    vertex 70.37196780619111 12.662026172390162 0.0
  endloop
endfacet
facet normal -0.0 -0.0 -1.0
  outer loop
    vertex 70.37196780619111 12.662026172390162 0.0
    vertex 69.70689274548171 18.673281528802168 0.0
    vertex 70.45510218877979 16.921064541933134 0.0
  endloop
endfacet
facet normal -0.0 -0.0 -1.0
  outer loop
    vertex 70.37196780619111 12.662026172390162 0.0
    vertex 70.45510218877979 16.921064541933134 0.0
    vertex 70.70450533654582 14.972735678188252 0.0
  endloop
endfacet
facet normal 0.0 0.0 1.0
  outer loop
    vertex 13.994599418763594 6.8383560895115805 1.9999999999999998
    vertex 15.503275297664514 31.838357089511582 1.9999999999999998
    vertex 6.106958414308442 6.8383560895115805 1.9999999999999998
  endloop
endfacet
facet normal 0.0 0.0 1.0
  outer loop
    vertex 15.503275297664514 31.838357089511582 1.9999999999999998
    vertex 13.994599418763594 6.8383560895115805 1.9999999999999998
    vertex 15.213104327667498 10.965232107246916 1.9999999999999998
  endloop
endfacet
facet normal 0.0 0.0 1.0
  outer loop
    vertex 15.503275297664514 31.838357089511582 1.9999999999999998
    vertex 15.213104327667498 10.965232107246916 1.9999999999999998
    vertex 16.89097999164473 16.371098626346505 1.9999999999999998
  endloop
endfacet
facet normal 0.0 0.0 1.0
  outer loop
    vertex 16.89097999164473 16.371098626346505 1.9999999999999998
    vertex 15.213104327667498 10.965232107246916 1.9999999999999998
    vertex 23.983515234418437 10.965232107246916 1.9999999999999998
  endloop
endfacet
facet normal 0.0 0.0 1.0
  outer loop
    vertex 16.89097999164473 16.371098626346505 1.9999999999999998
    vertex 23.983515234418437 10.965232107246916 1.9999999999999998
    vertex 22.381046718750802 16.371098626346505 1.9999999999999998
  endloop
endfacet
facet normal 0.0 0.0 1.0
  outer loop
    vertex 22.381046718750802 16.371098626346505 1.9999999999999998
    vertex 23.983515234418437 10.965232107246916 1.9999999999999998
    vertex 23.929691050819358 31.838357089511582 1.9999999999999998
  endloop
endfacet
facet normal 0.0 0.0 1.0
  outer loop
    vertex 23.929691050819358 31.838357089511582 1.9999999999999998
    vertex 23.983515234418437 10.965232107246916 1.9999999999999998
    vertex 33.32387628333982 6.8383560895115805 1.9999999999999998
  endloop
endfacet
facet normal 0.0 0.0 1.0
  outer loop
    vertex 33.32387628333982 6.8383560895115805 1.9999999999999998
    vertex 23.983515234418437 10.965232107246916 1.9999999999999998
    vertex 25.234261362210898 6.8383560895115805 1.9999999999999998
  endloop
endfacet
facet normal 0.0 0.0 1.0
  outer loop
    vertex 15.503275297664514 31.838357089511582 1.9999999999999998
    vertex 19.621624712057418 25.358138549266016 1.9999999999999998
    vertex 23.929691050819358 31.838357089511582 1.9999999999999998
  endloop
endfacet
facet normal 0.0 0.0 1.0
  outer loop
    vertex 19.621624712057418 25.358138549266016 1.9999999999999998
    vertex 15.503275297664514 31.838357089511582 1.9999999999999998
    vertex 16.89097999164473 16.371098626346505 1.9999999999999998
  endloop
endfacet
facet normal 0.0 0.0 1.0
  outer loop
    vertex 23.929691050819358 31.838357089511582 1.9999999999999998
    vertex 19.621624712057418 25.358138549266016 1.9999999999999998
    vertex 22.381046718750802 16.371098626346505 1.9999999999999998
  endloop
endfacet
facet normal 0.0 -1.0 0.0
  outer loop
    vertex 23.983515234418437 10.965232107246916 1.9999999999999998
    vertex 15.213104327667498 10.965232107246916 0.0
    vertex 23.983515234418437 10.965232107246916 0.0
  endloop
endfacet
facet normal 0.0 -1.0 0.0
  outer loop
    vertex 15.213104327667498 10.965232107246916 0.0
    vertex 23.983515234418437 10.965232107246916 1.9999999999999998
    vertex 15.213104327667498 10.965232107246916 1.9999999999999998
  endloop
endfacet
facet normal 0.959068172836611 -0.28317528114552043 0.0
  outer loop
    vertex 15.213104327667498 10.965232107246916 0.0
    vertex 13.994599418763594 6.8383560895115805 1.9999999999999998
    vertex 13.994599418763594 6.8383560895115805 0.0
  endloop
endfacet
facet normal 0.959068172836611 -0.28317528114552043 0.0
  outer loop
    vertex 13.994599418763594 6.8383560895115805 1.9999999999999998
    vertex 15.213104327667498 10.965232107246916 0.0
    vertex 15.213104327667498 10.965232107246916 1.9999999999999998
  endloop
endfacet
facet normal 0.0 -1.0 0.0
  outer loop
    vertex 13.994599418763594 6.8383560895115805 1.9999999999999998
    vertex 6.106958414308442 6.8383560895115805 0.0
    vertex 13.994599418763594 6.8383560895115805 0.0
  endloop
endfacet
facet normal 0.0 -1.0 0.0
  outer loop
    vertex 6.106958414308442 6.8383560895115805 0.0
    vertex 13.994599418763594 6.8383560895115805 1.9999999999999998
    vertex 6.106958414308442 6.8383560895115805 1.9999999999999998
  endloop
endfacet
facet normal -0.9360665116875428 0.35182308863563166 0.0
  outer loop
    vertex 15.503275297664514 31.838357089511582 1.9999999999999998
    vertex 6.106958414308442 6.8383560895115805 0.0
    vertex 6.106958414308442 6.8383560895115805 1.9999999999999998
  endloop
endfacet
facet normal -0.9360665116875428 0.35182308863563166 0.0
  outer loop
    vertex 6.106958414308442 6.8383560895115805 0.0
    vertex 15.503275297664514 31.838357089511582 1.9999999999999998
    vertex 15.503275297664514 31.838357089511582 0.0
  endloop
endfacet
facet normal 0.0 1.0 0.0
  outer loop
    vertex 15.503275297664514 31.838357089511582 1.9999999999999998
    vertex 23.929691050819358 31.838357089511582 0.0
    vertex 15.503275297664514 31.838357089511582 0.0
  endloop
endfacet
facet normal 0.0 1.0 0.0
  outer loop
    vertex 23.929691050819358 31.838357089511582 0.0
    vertex 15.503275297664514 31.838357089511582 1.9999999999999998
    vertex 23.929691050819358 31.838357089511582 1.9999999999999998
  endloop
endfacet
facet normal 0.9360927951649068 0.35175315043415284 0.0
  outer loop
    vertex 23.929691050819358 31.838357089511582 0.0
    vertex 33.32387628333982 6.8383560895115805 1.9999999999999998
    vertex 33.32387628333982 6.8383560895115805 0.0
  endloop
endfacet
facet normal 0.9360927951649068 0.35175315043415284 0.0
  outer loop
    vertex 33.32387628333982 6.8383560895115805 1.9999999999999998
    vertex 23.929691050819358 31.838357089511582 0.0
    vertex 23.929691050819358 31.838357089511582 1.9999999999999998
  endloop
endfacet
facet normal 0.0 -1.0 0.0
  outer loop
    vertex 33.32387628333982 6.8383560895115805 1.9999999999999998
    vertex 25.234261362210898 6.8383560895115805 0.0
    vertex 33.32387628333982 6.8383560895115805 0.0
  endloop
endfacet
facet normal 0.0 -1.0 0.0
  outer loop
    vertex 25.234261362210898 6.8383560895115805 0.0
    vertex 33.32387628333982 6.8383560895115805 1.9999999999999998
    vertex 25.234261362210898 6.8383560895115805 1.9999999999999998
  endloop
endfacet
facet normal -0.9570129706079827 -0.2900451242273938 0.0
  outer loop
    vertex 23.983515234418437 10.965232107246916 1.9999999999999998
    vertex 25.234261362210898 6.8383560895115805 0.0
    vertex 25.234261362210898 6.8383560895115805 1.9999999999999998
  endloop
endfacet
facet normal -0.9570129706079827 -0.2900451242273938 0.0
  outer loop
    vertex 25.234261362210898 6.8383560895115805 0.0
    vertex 23.983515234418437 10.965232107246916 1.9999999999999998
    vertex 23.983515234418437 10.965232107246916 0.0
  endloop
endfacet
facet normal -0.9559528827224616 -0.2935201628757654 0.0
  outer loop
    vertex 19.621624712057418 25.358138549266016 1.9999999999999998
    vertex 22.381046718750802 16.371098626346505 0.0
    vertex 22.381046718750802 16.371098626346505 1.9999999999999998
  endloop
endfacet
facet normal -0.9559528827224616 -0.2935201628757654 0.0
  outer loop
    vertex 22.381046718750802 16.371098626346505 0.0
    vertex 19.621624712057418 25.358138549266016 1.9999999999999998
    vertex 19.621624712057418 25.358138549266016 0.0
  endloop
endfacet
facet normal 0.9568084542356069 -0.2907190772950219 0.0
  outer loop
    vertex 19.621624712057418 25.358138549266016 0.0
    vertex 16.89097999164473 16.371098626346505 1.9999999999999998
    vertex 16.89097999164473 16.371098626346505 0.0
  endloop
endfacet
facet normal 0.9568084542356069 -0.2907190772950219 0.0
  outer loop
    vertex 16.89097999164473 16.371098626346505 1.9999999999999998
    vertex 19.621624712057418 25.358138549266016 0.0
    vertex 19.621624712057418 25.358138549266016 1.9999999999999998
  endloop
endfacet
facet normal 0.0 1.0 0.0
  outer loop
    vertex 16.89097999164473 16.371098626346505 1.9999999999999998
    vertex 22.381046718750802 16.371098626346505 0.0
    vertex 16.89097999164473 16.371098626346505 0.0
  endloop
endfacet
facet normal 0.0 1.0 0.0
  outer loop
    vertex 22.381046718750802 16.371098626346505 0.0
    vertex 16.89097999164473 16.371098626346505 1.9999999999999998
    vertex 22.381046718750802 16.371098626346505 1.9999999999999998
  endloop
endfacet
facet normal 0.0 0.0 1.0
  outer loop
    vertex 43.82865160121158 6.8383560895115805 1.9999999999999998
    vertex 36.08649576628662 31.838357089511582 1.9999999999999998
    vertex 36.08649576628662 6.8383560895115805 1.9999999999999998
  endloop
endfacet
facet normal 0.0 0.0 1.0
  outer loop
    vertex 36.08649576628662 31.838357089511582 1.9999999999999998
    vertex 43.82865160121158 6.8383560895115805 1.9999999999999998
    vertex 43.82865160121158 31.838357089511582 1.9999999999999998
  endloop
endfacet
facet normal 0.0 1.0 0.0
  outer loop
    vertex 36.08649576628662 31.838357089511582 1.9999999999999998
    vertex 43.82865160121158 31.838357089511582 0.0
    vertex 36.08649576628662 31.838357089511582 0.0
  endloop
endfacet
facet normal 0.0 1.0 0.0
  outer loop
    vertex 43.82865160121158 31.838357089511582 0.0
    vertex 36.08649576628662 31.838357089511582 1.9999999999999998
    vertex 43.82865160121158 31.838357089511582 1.9999999999999998
  endloop
endfacet
facet normal 1.0 0.0 0.0
  outer loop
    vertex 43.82865160121158 31.838357089511582 0.0
    vertex 43.82865160121158 6.8383560895115805 1.9999999999999998
    vertex 43.82865160121158 6.8383560895115805 0.0
  endloop
endfacet
facet normal 1.0 0.0 0.0
  outer loop
    vertex 43.82865160121158 6.8383560895115805 1.9999999999999998
    vertex 43.82865160121158 31.838357089511582 0.0
    vertex 43.82865160121158 31.838357089511582 1.9999999999999998
  endloop
endfacet
facet normal 0.0 -1.0 0.0
  outer loop
    vertex 43.82865160121158 6.8383560895115805 1.9999999999999998
    vertex 36.08649576628662 6.8383560895115805 0.0
    vertex 43.82865160121158 6.8383560895115805 0.0
  endloop
endfacet
facet normal 0.0 -1.0 0.0
  outer loop
    vertex 36.08649576628662 6.8383560895115805 0.0
    vertex 43.82865160121158 6.8383560895115805 1.9999999999999998
    vertex 36.08649576628662 6.8383560895115805 1.9999999999999998
  endloop
endfacet
facet normal -1.0 0.0 0.0
  outer loop
    vertex 36.08649576628662 31.838357089511582 1.9999999999999998
    vertex 36.08649576628662 6.8383560895115805 0.0
    vertex 36.08649576628662 6.8383560895115805 1.9999999999999998
  endloop
endfacet
facet normal -1.0 0.0 0.0
  outer loop
    vertex 36.08649576628662 6.8383560895115805 0.0
    vertex 36.08649576628662 31.838357089511582 1.9999999999999998
    vertex 36.08649576628662 31.838357089511582 0.0
  endloop
endfacet
facet normal 0.0 0.0 1.0
  outer loop
    vertex 48.31897408641793 13.299389772236683 1.9999999999999998
    vertex 55.37367252685959 15.569597912158239 1.9999999999999998
    vertex 48.02374044568634 15.109161331667107 1.9999999999999998
  endloop
endfacet
facet normal 0.0 0.0 1.0
  outer loop
    vertex 55.37367252685959 15.569597912158239 1.9999999999999998
    vertex 48.31897408641793 13.299389772236683 1.9999999999999998
    vertex 48.88066408160039 11.655886977983613 1.9999999999999998
  endloop
endfacet
facet normal 0.0 0.0 1.0
  outer loop
    vertex 55.37367252685959 15.569597912158239 1.9999999999999998
    vertex 48.88066408160039 11.655886977983613 1.9999999999999998
    vertex 49.70881043123375 10.178652948907898 1.9999999999999998
  endloop
endfacet
facet normal 0.0 0.0 1.0
  outer loop
    vertex 55.37367252685959 15.569597912158239 1.9999999999999998
    vertex 49.70881043123375 10.178652948907898 1.9999999999999998
    vertex 50.803413135317996 8.867687685009534 1.9999999999999998
  endloop
endfacet
facet normal 0.0 0.0 1.0
  outer loop
    vertex 55.37367252685959 15.569597912158239 1.9999999999999998
    vertex 50.803413135317996 8.867687685009534 1.9999999999999998
    vertex 52.2763838627225 7.793335663863558 1.9999999999999998
  endloop
endfacet
facet normal 0.0 0.0 1.0
  outer loop
    vertex 55.37367252685959 15.569597912158239 1.9999999999999998
    vertex 52.2763838627225 7.793335663863558 1.9999999999999998
    vertex 54.23963428231663 7.025941363045004 1.9999999999999998
  endloop
endfacet
facet normal 0.0 0.0 1.0
  outer loop
    vertex 55.37367252685959 15.569597912158239 1.9999999999999998
    vertex 54.23963428231663 7.025941363045004 1.9999999999999998
    vertex 56.69316439410039 6.565504782553872 1.9999999999999998
  endloop
endfacet
facet normal 0.0 0.0 1.0
  outer loop
    vertex 55.37367252685959 15.569597912158239 1.9999999999999998
    vertex 56.69316439410039 6.565504782553872 1.9999999999999998
    vertex 55.736053168912804 13.99217629380899 1.9999999999999998
  endloop
endfacet
facet normal 0.0 0.0 1.0
  outer loop
    vertex 55.736053168912804 13.99217629380899 1.9999999999999998
    vertex 56.69316439410039 6.565504782553872 1.9999999999999998
    vertex 56.34570530789644 12.841084842581159 1.9999999999999998
  endloop
endfacet
facet normal 0.0 0.0 1.0
  outer loop
    vertex 56.34570530789644 12.841084842581159 1.9999999999999998
    vertex 56.69316439410039 6.565504782553872 1.9999999999999998
    vertex 57.006517066934634 12.177075607289549 1.9999999999999998
  endloop
endfacet
facet normal 0.0 0.0 1.0
  outer loop
    vertex 57.006517066934634 12.177075607289549 1.9999999999999998
    vertex 56.69316439410039 6.565504782553872 1.9999999999999998
    vertex 59.63697419807379 6.4120259223901614 1.9999999999999998
  endloop
endfacet
facet normal 0.0 0.0 1.0
  outer loop
    vertex 57.006517066934634 12.177075607289549 1.9999999999999998
    vertex 59.63697419807379 6.4120259223901614 1.9999999999999998
    vertex 57.79522787610925 11.702783296366968 1.9999999999999998
  endloop
endfacet
facet normal 0.0 0.0 1.0
  outer loop
    vertex 57.79522787610925 11.702783296366968 1.9999999999999998
    vertex 59.63697419807379 6.4120259223901614 1.9999999999999998
    vertex 58.71183773542032 11.418207909813423 1.9999999999999998
  endloop
endfacet
facet normal 0.0 0.0 1.0
  outer loop
    vertex 58.71183773542032 11.418207909813423 1.9999999999999998
    vertex 59.63697419807379 6.4120259223901614 1.9999999999999998
    vertex 59.75634664486779 11.323349447628907 1.9999999999999998
  endloop
endfacet
facet normal 0.0 0.0 1.0
  outer loop
    vertex 59.75634664486779 11.323349447628907 1.9999999999999998
    vertex 59.63697419807379 6.4120259223901614 1.9999999999999998
    vertex 62.95808619994965 6.6742189751698335 1.9999999999999998
  endloop
endfacet
facet normal 0.0 0.0 1.0
  outer loop
    vertex 59.75634664486779 11.323349447628907 1.9999999999999998
    vertex 62.95808619994965 6.6742189751698335 1.9999999999999998
    vertex 61.22079076892985 11.517329673669153 1.9999999999999998
  endloop
endfacet
facet normal 0.0 0.0 1.0
  outer loop
    vertex 61.22079076892985 11.517329673669153 1.9999999999999998
    vertex 62.95808619994965 6.6742189751698335 1.9999999999999998
    vertex 62.30580104425387 12.099270351789889 1.9999999999999998
  endloop
endfacet
facet normal 0.0 0.0 1.0
  outer loop
    vertex 62.30580104425387 12.099270351789889 1.9999999999999998
    vertex 62.95808619994965 6.6742189751698335 1.9999999999999998
    vertex 62.97727105747012 12.937009130183478 1.9999999999999998
  endloop
endfacet
facet normal 0.0 0.0 1.0
  outer loop
    vertex 62.97727105747012 12.937009130183478 1.9999999999999998
    vertex 62.95808619994965 6.6742189751698335 1.9999999999999998
    vertex 65.65675615782823 7.460798133508852 1.9999999999999998
  endloop
endfacet
facet normal 0.0 0.0 1.0
  outer loop
    vertex 62.97727105747012 12.937009130183478 1.9999999999999998
    vertex 65.65675615782823 7.460798133508852 1.9999999999999998
    vertex 63.201094395208855 13.898383657042277 1.9999999999999998
  endloop
endfacet
facet normal 0.0 0.0 1.0
  outer loop
    vertex 63.201094395208855 13.898383657042277 1.9999999999999998
    vertex 65.65675615782823 7.460798133508852 1.9999999999999998
    vertex 63.608239704809804 22.555017700442686 1.9999999999999998
  endloop
endfacet
facet normal 0.0 0.0 1.0
  outer loop
    vertex 63.608239704809804 22.555017700442686 1.9999999999999998
    vertex 65.65675615782823 7.460798133508852 1.9999999999999998
    vertex 66.51794309541349 21.44442761509139 1.9999999999999998
  endloop
endfacet
facet normal 0.0 0.0 1.0
  outer loop
    vertex 66.51794309541349 21.44442761509139 1.9999999999999998
    vertex 65.65675615782823 7.460798133508852 1.9999999999999998
    vertex 67.77988039009288 8.754710190722358 1.9999999999999998
  endloop
endfacet
facet normal 0.0 0.0 1.0
  outer loop
    vertex 66.51794309541349 21.44442761509139 1.9999999999999998
    vertex 67.77988039009288 8.754710190722358 1.9999999999999998
    vertex 68.4108490374326 20.193148574590026 1.9999999999999998
  endloop
endfacet
facet normal 0.0 0.0 1.0
  outer loop
    vertex 68.4108490374326 20.193148574590026 1.9999999999999998
    vertex 67.77988039009288 8.754710190722358 1.9999999999999998
    vertex 69.374355215127 10.538901940125497 1.9999999999999998
  endloop
endfacet
facet normal 0.0 0.0 1.0
  outer loop
    vertex 68.4108490374326 20.193148574590026 1.9999999999999998
    vertex 69.374355215127 10.538901940125497 1.9999999999999998
    vertex 69.70689274548171 18.673281528802168 1.9999999999999998
  endloop
endfacet
facet normal 0.0 0.0 1.0
  outer loop
    vertex 69.70689274548171 18.673281528802168 1.9999999999999998
    vertex 69.374355215127 10.538901940125497 1.9999999999999998
    vertex 70.37196780619111 12.662026172390162 1.9999999999999998
  endloop
endfacet
facet normal 0.0 0.0 1.0
  outer loop
    vertex 69.70689274548171 18.673281528802168 1.9999999999999998
    vertex 70.37196780619111 12.662026172390162 1.9999999999999998
    vertex 70.45510218877979 16.921064541933134 1.9999999999999998
  endloop
endfacet
facet normal 0.0 0.0 1.0
  outer loop
    vertex 70.45510218877979 16.921064541933134 1.9999999999999998
    vertex 70.37196780619111 12.662026172390162 1.9999999999999998
    vertex 70.70450533654582 14.972735678188252 1.9999999999999998
  endloop
endfacet
facet normal 0.0 0.0 1.0
  outer loop
    vertex 49.09809246683232 23.54730116441779 1.9999999999999998
    vertex 49.24091307281799 26.82258267332809 1.9999999999999998
    vertex 48.96166681335346 24.948861588829455 1.9999999999999998
  endloop
endfacet
facet normal 0.0 0.0 1.0
  outer loop
    vertex 49.24091307281799 26.82258267332809 1.9999999999999998
    vertex 49.09809246683232 23.54730116441779 1.9999999999999998
    vertex 49.507369427268884 22.275771440978158 1.9999999999999998
  endloop
endfacet
facet normal 0.0 0.0 1.0
  outer loop
    vertex 49.24091307281799 26.82258267332809 1.9999999999999998
    vertex 49.507369427268884 22.275771440978158 1.9999999999999998
    vertex 50.07865185121158 28.58972121604637 1.9999999999999998
  endloop
endfacet
facet normal 0.0 0.0 1.0
  outer loop
    vertex 50.07865185121158 28.58972121604637 1.9999999999999998
    vertex 49.507369427268884 22.275771440978158 1.9999999999999998
    vertex 50.18949769466316 21.13427241851056 1.9999999999999998
  endloop
endfacet
facet normal 0.0 0.0 1.0
  outer loop
    vertex 50.07865185121158 28.58972121604637 1.9999999999999998
    vertex 50.18949769466316 21.13427241851056 1.9999999999999998
    vertex 51.47701479936984 30.120246516012266 1.9999999999999998
  endloop
endfacet
facet normal 0.0 0.0 1.0
  outer loop
    vertex 51.47701479936984 30.120246516012266 1.9999999999999998
    vertex 50.18949769466316 21.13427241851056 1.9999999999999998
    vertex 51.14447726901513 20.122804097014992 1.9999999999999998
  endloop
endfacet
facet normal 0.0 0.0 1.0
  outer loop
    vertex 51.47701479936984 30.120246516012266 1.9999999999999998
    vertex 51.14447726901513 20.122804097014992 1.9999999999999998
    vertex 52.40961203994794 19.223247444388797 1.9999999999999998
  endloop
endfacet
facet normal 0.0 0.0 1.0
  outer loop
    vertex 51.47701479936984 30.120246516012266 1.9999999999999998
    vertex 52.40961203994794 19.223247444388797 1.9999999999999998
    vertex 53.438133568128364 31.28412787225374 1.9999999999999998
  endloop
endfacet
facet normal 0.0 0.0 1.0
  outer loop
    vertex 53.438133568128364 31.28412787225374 1.9999999999999998
    vertex 52.40961203994794 19.223247444388797 1.9999999999999998
    vertex 54.03925910376955 18.417483428529316 1.9999999999999998
  endloop
endfacet
facet normal 0.0 0.0 1.0
  outer loop
    vertex 53.438133568128364 31.28412787225374 1.9999999999999998
    vertex 54.03925910376955 18.417483428529316 1.9999999999999998
    vertex 56.096302160130406 32.01954741053819 1.9999999999999998
  endloop
endfacet
facet normal 0.0 0.0 1.0
  outer loop
    vertex 56.096302160130406 32.01954741053819 1.9999999999999998
    vertex 54.03925910376955 18.417483428529316 1.9999999999999998
    vertex 56.033418460479986 17.705512049436546 1.9999999999999998
  endloop
endfacet
facet normal 0.0 0.0 1.0
  outer loop
    vertex 56.096302160130406 32.01954741053819 1.9999999999999998
    vertex 56.033418460479986 17.705512049436546 1.9999999999999998
    vertex 56.106960414308446 25.648043062908577 1.9999999999999998
  endloop
endfacet
facet normal 0.0 0.0 1.0
  outer loop
    vertex 56.106960414308446 25.648043062908577 1.9999999999999998
    vertex 56.033418460479986 17.705512049436546 1.9999999999999998
    vertex 56.247649369458514 25.081023940637092 1.9999999999999998
  endloop
endfacet
facet normal 0.0 0.0 1.0
  outer loop
    vertex 56.247649369458514 25.081023940637092 1.9999999999999998
    vertex 56.033418460479986 17.705512049436546 1.9999999999999998
    vertex 58.39209011007925 17.087333307110487 1.9999999999999998
  endloop
endfacet
facet normal 0.0 0.0 1.0
  outer loop
    vertex 56.247649369458514 25.081023940637092 1.9999999999999998
    vertex 58.39209011007925 17.087333307110487 1.9999999999999998
    vertex 56.66971623490872 24.573691041762604 1.9999999999999998
  endloop
endfacet
facet normal 0.0 0.0 1.0
  outer loop
    vertex 56.66971623490872 24.573691041762604 1.9999999999999998
    vertex 58.39209011007925 17.087333307110487 1.9999999999999998
    vertex 57.59058939589097 24.096201254586617 1.9999999999999998
  endloop
endfacet
facet normal 0.0 0.0 1.0
  outer loop
    vertex 57.59058939589097 24.096201254586617 1.9999999999999998
    vertex 58.39209011007925 17.087333307110487 1.9999999999999998
    vertex 59.26180365100694 23.65281788078034 1.9999999999999998
  endloop
endfacet
facet normal 0.0 0.0 1.0
  outer loop
    vertex 59.26180365100694 23.65281788078034 1.9999999999999998
    vertex 58.39209011007925 17.087333307110487 1.9999999999999998
    vertex 60.9330179061229 16.383888531360146 1.9999999999999998
  endloop
endfacet
facet normal 0.0 0.0 1.0
  outer loop
    vertex 59.26180365100694 23.65281788078034 1.9999999999999998
    vertex 60.9330179061229 16.383888531360146 1.9999999999999998
    vertex 63.608239704809804 22.555017700442686 1.9999999999999998
  endloop
endfacet
facet normal 0.0 0.0 1.0
  outer loop
    vertex 63.608239704809804 22.555017700442686 1.9999999999999998
    vertex 60.9330179061229 16.383888531360146 1.9999999999999998
    vertex 62.348434060966014 15.637810738897665 1.9999999999999998
  endloop
endfacet
facet normal 0.0 0.0 1.0
  outer loop
    vertex 63.608239704809804 22.555017700442686 1.9999999999999998
    vertex 62.348434060966014 15.637810738897665 1.9999999999999998
    vertex 62.987929311648145 14.81925681802454 1.9999999999999998
  endloop
endfacet
facet normal 0.0 0.0 1.0
  outer loop
    vertex 63.608239704809804 22.555017700442686 1.9999999999999998
    vertex 62.987929311648145 14.81925681802454 1.9999999999999998
    vertex 63.201094395208855 13.898383657042277 1.9999999999999998
  endloop
endfacet
facet normal 0.0 0.0 1.0
  outer loop
    vertex 56.096302160130406 32.01954741053819 1.9999999999999998
    vertex 56.27749248115701 26.4047791095491 1.9999999999999998
    vertex 59.585814578019225 32.264687256633 1.9999999999999998
  endloop
endfacet
facet normal 0.0 0.0 1.0
  outer loop
    vertex 56.27749248115701 26.4047791095491 1.9999999999999998
    vertex 56.096302160130406 32.01954741053819 1.9999999999999998
    vertex 56.106960414308446 25.648043062908577 1.9999999999999998
  endloop
endfacet
facet normal 0.0 0.0 1.0
  outer loop
    vertex 59.585814578019225 32.264687256633 1.9999999999999998
    vertex 56.27749248115701 26.4047791095491 1.9999999999999998
    vertex 56.78908868170271 27.037879407724407 1.9999999999999998
  endloop
endfacet
facet normal 0.0 0.0 1.0
  outer loop
    vertex 59.585814578019225 32.264687256633 1.9999999999999998
    vertex 56.78908868170271 27.037879407724407 1.9999999999999998
    vertex 57.63748571427433 27.466341225681433 1.9999999999999998
  endloop
endfacet
facet normal 0.0 0.0 1.0
  outer loop
    vertex 59.585814578019225 32.264687256633 1.9999999999999998
    vertex 57.63748571427433 27.466341225681433 1.9999999999999998
    vertex 58.81842027720067 27.60916183166711 1.9999999999999998
  endloop
endfacet
facet normal 0.0 0.0 1.0
  outer loop
    vertex 59.585814578019225 32.264687256633 1.9999999999999998
    vertex 58.81842027720067 27.60916183166711 1.9999999999999998
    vertex 60.278601099591526 27.41731325646247 1.9999999999999998
  endloop
endfacet
facet normal 0.0 0.0 1.0
  outer loop
    vertex 59.585814578019225 32.264687256633 1.9999999999999998
    vertex 60.278601099591526 27.41731325646247 1.9999999999999998
    vertex 61.839502423964824 32.15330850047253 1.9999999999999998
  endloop
endfacet
facet normal 0.0 0.0 1.0
  outer loop
    vertex 61.839502423964824 32.15330850047253 1.9999999999999998
    vertex 60.278601099591526 27.41731325646247 1.9999999999999998
    vertex 61.3849278832716 26.84176753084855 1.9999999999999998
  endloop
endfacet
facet normal 0.0 0.0 1.0
  outer loop
    vertex 61.839502423964824 32.15330850047253 1.9999999999999998
    vertex 61.3849278832716 26.84176753084855 1.9999999999999998
    vertex 62.15445383492576 25.844154939784435 1.9999999999999998
  endloop
endfacet
facet normal 0.0 0.0 1.0
  outer loop
    vertex 61.839502423964824 32.15330850047253 1.9999999999999998
    vertex 62.15445383492576 25.844154939784435 1.9999999999999998
    vertex 63.80861488335688 31.819172231991118 1.9999999999999998
  endloop
endfacet
facet normal 0.0 0.0 1.0
  outer loop
    vertex 63.80861488335688 31.819172231991118 1.9999999999999998
    vertex 62.15445383492576 25.844154939784435 1.9999999999999998
    vertex 62.60423216123887 24.386105768229182 1.9999999999999998
  endloop
endfacet
facet normal 0.0 0.0 1.0
  outer loop
    vertex 63.80861488335688 31.819172231991118 1.9999999999999998
    vertex 62.60423216123887 24.386105768229182 1.9999999999999998
    vertex 69.8859514156727 24.8124359353506 1.9999999999999998
  endloop
endfacet
facet normal 0.0 0.0 1.0
  outer loop
    vertex 63.80861488335688 31.819172231991118 1.9999999999999998
    vertex 69.8859514156727 24.8124359353506 1.9999999999999998
    vertex 65.49315195619538 31.262278451188767 1.9999999999999998
  endloop
endfacet
facet normal 0.0 0.0 1.0
  outer loop
    vertex 65.49315195619538 31.262278451188767 1.9999999999999998
    vertex 69.8859514156727 24.8124359353506 1.9999999999999998
    vertex 66.89311364248034 30.48262715806547 1.9999999999999998
  endloop
endfacet
facet normal 0.0 0.0 1.0
  outer loop
    vertex 66.89311364248034 30.48262715806547 1.9999999999999998
    vertex 69.8859514156727 24.8124359353506 1.9999999999999998
    vertex 68.023421498061 29.459967669682964 1.9999999999999998
  endloop
endfacet
facet normal 0.0 0.0 1.0
  outer loop
    vertex 68.023421498061 29.459967669682964 1.9999999999999998
    vertex 69.8859514156727 24.8124359353506 1.9999999999999998
    vertex 68.8989970787866 28.174049303102983 1.9999999999999998
  endloop
endfacet
facet normal 0.0 0.0 1.0
  outer loop
    vertex 68.8989970787866 28.174049303102983 1.9999999999999998
    vertex 69.8859514156727 24.8124359353506 1.9999999999999998
    vertex 69.51984038465717 26.624872058325533 1.9999999999999998
  endloop
endfacet
facet normal -0.06252245025498156 0.9980435577739649 0.0
  outer loop
    vertex 48.02374044568634 15.109161331667107 1.9999999999999998
    vertex 55.37367252685959 15.569597912158239 0.0
    vertex 48.02374044568634 15.109161331667107 0.0
  endloop
endfacet
facet normal -0.06252245025498156 0.9980435577739649 0.0
  outer loop
    vertex 55.37367252685959 15.569597912158239 0.0
    vertex 48.02374044568634 15.109161331667107 1.9999999999999998
    vertex 55.37367252685959 15.569597912158239 1.9999999999999998
  endloop
endfacet
facet normal 0.9746126946621941 0.22389751093591181 0.0
  outer loop
    vertex 55.37367252685959 15.569597912158239 0.0
    vertex 55.736053168912804 13.99217629380899 1.9999999999999998
    vertex 55.736053168912804 13.99217629380899 0.0
  endloop
endfacet
facet normal 0.9746126946621941 0.22389751093591181 0.0
  outer loop
    vertex 55.736053168912804 13.99217629380899 1.9999999999999998
    vertex 55.37367252685959 15.569597912158239 0.0
    vertex 55.37367252685959 15.569597912158239 1.9999999999999998
  endloop
endfacet
facet normal 0.8837082901935762 0.46803809443585515 0.0
  outer loop
    vertex 55.736053168912804 13.99217629380899 0.0
    vertex 56.34570530789644 12.841084842581159 1.9999999999999998
    vertex 56.34570530789644 12.841084842581159 0.0
  endloop
endfacet
facet normal 0.8837082901935762 0.46803809443585515 0.0
  outer loop
    vertex 56.34570530789644 12.841084842581159 1.9999999999999998
    vertex 55.736053168912804 13.99217629380899 0.0
    vertex 55.736053168912804 13.99217629380899 1.9999999999999998
  endloop
endfacet
facet normal 0.708811330065389 0.7053981133877054 0.0
  outer loop
    vertex 56.34570530789644 12.841084842581159 0.0
    vertex 57.006517066934634 12.177075607289549 1.9999999999999998
    vertex 57.006517066934634 12.177075607289549 0.0
  endloop
endfacet
facet normal 0.708811330065389 0.7053981133877054 0.0
  outer loop
    vertex 57.006517066934634 12.177075607289549 1.9999999999999998
    vertex 56.34570530789644 12.841084842581159 0.0
    vertex 56.34570530789644 12.841084842581159 1.9999999999999998
  endloop
endfacet
facet normal 0.515347033524288 0.8569815838381338 0.0
  outer loop
    vertex 57.006517066934634 12.177075607289549 1.9999999999999998
    vertex 57.79522787610925 11.702783296366968 0.0
    vertex 57.006517066934634 12.177075607289549 0.0
  endloop
endfacet
facet normal 0.515347033524288 0.8569815838381338 0.0
  outer loop
    vertex 57.79522787610925 11.702783296366968 0.0
    vertex 57.006517066934634 12.177075607289549 1.9999999999999998
    vertex 57.79522787610925 11.702783296366968 1.9999999999999998
  endloop
endfacet
facet normal 0.2965040001415493 0.9550316109428318 0.0
  outer loop
    vertex 57.79522787610925 11.702783296366968 1.9999999999999998
    vertex 58.71183773542032 11.418207909813423 0.0
    vertex 57.79522787610925 11.702783296366968 0.0
  endloop
endfacet
facet normal 0.2965040001415493 0.9550316109428318 0.0
  outer loop
    vertex 58.71183773542032 11.418207909813423 0.0
    vertex 57.79522787610925 11.702783296366968 1.9999999999999998
    vertex 58.71183773542032 11.418207909813423 1.9999999999999998
  endloop
endfacet
facet normal 0.09044411872012371 0.9959015319743917 0.0
  outer loop
    vertex 58.71183773542032 11.418207909813423 1.9999999999999998
    vertex 59.75634664486779 11.323349447628907 0.0
    vertex 58.71183773542032 11.418207909813423 0.0
  endloop
endfacet
facet normal 0.09044411872012371 0.9959015319743917 0.0
  outer loop
    vertex 59.75634664486779 11.323349447628907 0.0
    vertex 58.71183773542032 11.418207909813423 1.9999999999999998
    vertex 59.75634664486779 11.323349447628907 1.9999999999999998
  endloop
endfacet
facet normal -0.13131299459975468 0.9913409592311038 0.0
  outer loop
    vertex 59.75634664486779 11.323349447628907 1.9999999999999998
    vertex 61.22079076892985 11.517329673669153 0.0
    vertex 59.75634664486779 11.323349447628907 0.0
  endloop
endfacet
facet normal -0.13131299459975468 0.9913409592311038 0.0
  outer loop
    vertex 61.22079076892985 11.517329673669153 0.0
    vertex 59.75634664486779 11.323349447628907 1.9999999999999998
    vertex 61.22079076892985 11.517329673669153 1.9999999999999998
  endloop
endfacet
facet normal -0.4726537598404809 0.8812482188967289 0.0
  outer loop
    vertex 61.22079076892985 11.517329673669153 1.9999999999999998
    vertex 62.30580104425387 12.099270351789889 0.0
    vertex 61.22079076892985 11.517329673669153 0.0
  endloop
endfacet
facet normal -0.4726537598404809 0.8812482188967289 0.0
  outer loop
    vertex 62.30580104425387 12.099270351789889 0.0
    vertex 61.22079076892985 11.517329673669153 1.9999999999999998
    vertex 62.30580104425387 12.099270351789889 1.9999999999999998
  endloop
endfacet
facet normal -0.7802873601669045 0.6254211665460035 0.0
  outer loop
    vertex 62.97727105747012 12.937009130183478 1.9999999999999998
    vertex 62.30580104425387 12.099270351789889 0.0
    vertex 62.30580104425387 12.099270351789889 1.9999999999999998
  endloop
endfacet
facet normal -0.7802873601669045 0.6254211665460035 0.0
  outer loop
    vertex 62.30580104425387 12.099270351789889 0.0
    vertex 62.97727105747012 12.937009130183478 1.9999999999999998
    vertex 62.97727105747012 12.937009130183478 0.0
  endloop
endfacet
facet normal -0.9739525966717036 0.22675171319407017 0.0
  outer loop
    vertex 63.201094395208855 13.898383657042277 1.9999999999999998
    vertex 62.97727105747012 12.937009130183478 0.0
    vertex 62.97727105747012 12.937009130183478 1.9999999999999998
  endloop
endfacet
facet normal -0.9739525966717036 0.22675171319407017 0.0
  outer loop
    vertex 62.97727105747012 12.937009130183478 0.0
    vertex 63.201094395208855 13.898383657042277 1.9999999999999998
    vertex 63.201094395208855 13.898383657042277 0.0
  endloop
endfacet
facet normal -0.974238938180099 -0.22551827272687602 0.0
  outer loop
    vertex 62.987929311648145 14.81925681802454 1.9999999999999998
    vertex 63.201094395208855 13.898383657042277 0.0
    vertex 63.201094395208855 13.898383657042277 1.9999999999999998
  endloop
endfacet
facet normal -0.974238938180099 -0.22551827272687602 0.0
  outer loop
    vertex 63.201094395208855 13.898383657042277 0.0
    vertex 62.987929311648145 14.81925681802454 1.9999999999999998
    vertex 62.987929311648145 14.81925681802454 0.0
  endloop
endfacet
facet normal -0.7880243737245627 -0.6156440419723163 0.0
  outer loop
    vertex 62.348434060966014 15.637810738897665 1.9999999999999998
    vertex 62.987929311648145 14.81925681802454 0.0
    vertex 62.987929311648145 14.81925681802454 1.9999999999999998
  endloop
endfacet
facet normal -0.7880243737245627 -0.6156440419723163 0.0
  outer loop
    vertex 62.987929311648145 14.81925681802454 0.0
    vertex 62.348434060966014 15.637810738897665 1.9999999999999998
    vertex 62.348434060966014 15.637810738897665 0.0
  endloop
endfacet
facet normal -0.46629543603063567 -0.884629055783835 0.0
  outer loop
    vertex 62.348434060966014 15.637810738897665 1.9999999999999998
    vertex 60.9330179061229 16.383888531360146 0.0
    vertex 62.348434060966014 15.637810738897665 0.0
  endloop
endfacet
facet normal -0.46629543603063567 -0.884629055783835 0.0
  outer loop
    vertex 60.9330179061229 16.383888531360146 0.0
    vertex 62.348434060966014 15.637810738897665 1.9999999999999998
    vertex 60.9330179061229 16.383888531360146 1.9999999999999998
  endloop
endfacet
facet normal -0.2668097658187456 -0.9637492147149829 0.0
  outer loop
    vertex 60.9330179061229 16.383888531360146 1.9999999999999998
    vertex 58.39209011007925 17.087333307110487 0.0
    vertex 60.9330179061229 16.383888531360146 0.0
  endloop
endfacet
facet normal -0.2668097658187456 -0.9637492147149829 0.0
  outer loop
    vertex 58.39209011007925 17.087333307110487 0.0
    vertex 60.9330179061229 16.383888531360146 1.9999999999999998
    vertex 58.39209011007925 17.087333307110487 1.9999999999999998
  endloop
endfacet
facet normal -0.2535249573388397 -0.9673288458463025 0.0
  outer loop
    vertex 58.39209011007925 17.087333307110487 1.9999999999999998
    vertex 56.033418460479986 17.705512049436546 0.0
    vertex 58.39209011007925 17.087333307110487 0.0
  endloop
endfacet
facet normal -0.2535249573388397 -0.9673288458463025 0.0
  outer loop
    vertex 56.033418460479986 17.705512049436546 0.0
    vertex 58.39209011007925 17.087333307110487 1.9999999999999998
    vertex 56.033418460479986 17.705512049436546 1.9999999999999998
  endloop
endfacet
facet normal -0.33624073515192254 -0.9417760710617438 0.0
  outer loop
    vertex 56.033418460479986 17.705512049436546 1.9999999999999998
    vertex 54.03925910376955 18.417483428529316 0.0
    vertex 56.033418460479986 17.705512049436546 0.0
  endloop
endfacet
facet normal -0.33624073515192254 -0.9417760710617438 0.0
  outer loop
    vertex 54.03925910376955 18.417483428529316 0.0
    vertex 56.033418460479986 17.705512049436546 1.9999999999999998
    vertex 54.03925910376955 18.417483428529316 1.9999999999999998
  endloop
endfacet
facet normal -0.44322249575795647 -0.8964116349390433 0.0
  outer loop
    vertex 54.03925910376955 18.417483428529316 1.9999999999999998
    vertex 52.40961203994794 19.223247444388797 0.0
    vertex 54.03925910376955 18.417483428529316 0.0
  endloop
endfacet
facet normal -0.44322249575795647 -0.8964116349390433 0.0
  outer loop
    vertex 52.40961203994794 19.223247444388797 0.0
    vertex 54.03925910376955 18.417483428529316 1.9999999999999998
    vertex 52.40961203994794 19.223247444388797 1.9999999999999998
  endloop
endfacet
facet normal -0.5794832521976151 -0.8149841473442753 0.0
  outer loop
    vertex 52.40961203994794 19.223247444388797 1.9999999999999998
    vertex 51.14447726901513 20.122804097014992 0.0
    vertex 52.40961203994794 19.223247444388797 0.0
  endloop
endfacet
facet normal -0.5794832521976151 -0.8149841473442753 0.0
  outer loop
    vertex 51.14447726901513 20.122804097014992 0.0
    vertex 52.40961203994794 19.223247444388797 1.9999999999999998
    vertex 51.14447726901513 20.122804097014992 1.9999999999999998
  endloop
endfacet
facet normal -0.7271193862687605 -0.6865110327679673 0.0
  outer loop
    vertex 50.18949769466316 21.13427241851056 1.9999999999999998
    vertex 51.14447726901513 20.122804097014992 0.0
    vertex 51.14447726901513 20.122804097014992 1.9999999999999998
  endloop
endfacet
facet normal -0.7271193862687605 -0.6865110327679673 0.0
  outer loop
    vertex 51.14447726901513 20.122804097014992 0.0
    vertex 50.18949769466316 21.13427241851056 1.9999999999999998
    vertex 50.18949769466316 21.13427241851056 0.0
  endloop
endfacet
facet normal -0.8584109290503201 -0.512962646678066 0.0
  outer loop
    vertex 49.507369427268884 22.275771440978158 1.9999999999999998
    vertex 50.18949769466316 21.13427241851056 0.0
    vertex 50.18949769466316 21.13427241851056 1.9999999999999998
  endloop
endfacet
facet normal -0.8584109290503201 -0.512962646678066 0.0
  outer loop
    vertex 50.18949769466316 21.13427241851056 0.0
    vertex 49.507369427268884 22.275771440978158 1.9999999999999998
    vertex 49.507369427268884 22.275771440978158 0.0
  endloop
endfacet
facet normal -0.951903953499001 -0.3063965784942314 0.0
  outer loop
    vertex 49.09809246683232 23.54730116441779 1.9999999999999998
    vertex 49.507369427268884 22.275771440978158 0.0
    vertex 49.507369427268884 22.275771440978158 1.9999999999999998
  endloop
endfacet
facet normal -0.951903953499001 -0.3063965784942314 0.0
  outer loop
    vertex 49.507369427268884 22.275771440978158 0.0
    vertex 49.09809246683232 23.54730116441779 1.9999999999999998
    vertex 49.09809246683232 23.54730116441779 0.0
  endloop
endfacet
facet normal -0.9952960182187308 -0.09688052496730168 0.0
  outer loop
    vertex 48.96166681335346 24.948861588829455 1.9999999999999998
    vertex 49.09809246683232 23.54730116441779 0.0
    vertex 49.09809246683232 23.54730116441779 1.9999999999999998
  endloop
endfacet
facet normal -0.9952960182187308 -0.09688052496730168 0.0
  outer loop
    vertex 49.09809246683232 23.54730116441779 0.0
    vertex 48.96166681335346 24.948861588829455 1.9999999999999998
    vertex 48.96166681335346 24.948861588829455 0.0
  endloop
endfacet
facet normal -0.9890762202076107 0.14740498844959823 0.0
  outer loop
    vertex 49.24091307281799 26.82258267332809 1.9999999999999998
    vertex 48.96166681335346 24.948861588829455 0.0
    vertex 48.96166681335346 24.948861588829455 1.9999999999999998
  endloop
endfacet
facet normal -0.9890762202076107 0.14740498844959823 0.0
  outer loop
    vertex 48.96166681335346 24.948861588829455 0.0
    vertex 49.24091307281799 26.82258267332809 1.9999999999999998
    vertex 49.24091307281799 26.82258267332809 0.0
  endloop
endfacet
facet normal -0.9036046285382502 0.4283674535772423 0.0
  outer loop
    vertex 50.07865185121158 28.58972121604637 1.9999999999999998
    vertex 49.24091307281799 26.82258267332809 0.0
    vertex 49.24091307281799 26.82258267332809 1.9999999999999998
  endloop
endfacet
facet normal -0.9036046285382502 0.4283674535772423 0.0
  outer loop
    vertex 49.24091307281799 26.82258267332809 0.0
    vertex 50.07865185121158 28.58972121604637 1.9999999999999998
    vertex 50.07865185121158 28.58972121604637 0.0
  endloop
endfacet
facet normal -0.7382628490850133 0.6745131323116541 0.0
  outer loop
    vertex 51.47701479936984 30.120246516012266 1.9999999999999998
    vertex 50.07865185121158 28.58972121604637 0.0
    vertex 50.07865185121158 28.58972121604637 1.9999999999999998
  endloop
endfacet
facet normal -0.7382628490850133 0.6745131323116541 0.0
  outer loop
    vertex 50.07865185121158 28.58972121604637 0.0
    vertex 51.47701479936984 30.120246516012266 1.9999999999999998
    vertex 51.47701479936984 30.120246516012266 0.0
  endloop
endfacet
facet normal -0.510365969503028 0.8599573112505261 0.0
  outer loop
    vertex 51.47701479936984 30.120246516012266 1.9999999999999998
    vertex 53.438133568128364 31.28412787225374 0.0
    vertex 51.47701479936984 30.120246516012266 0.0
  endloop
endfacet
facet normal -0.510365969503028 0.8599573112505261 0.0
  outer loop
    vertex 53.438133568128364 31.28412787225374 0.0
    vertex 51.47701479936984 30.120246516012266 1.9999999999999998
    vertex 53.438133568128364 31.28412787225374 1.9999999999999998
  endloop
endfacet
facet normal -0.26664715718954385 0.9637942174358254 0.0
  outer loop
    vertex 53.438133568128364 31.28412787225374 1.9999999999999998
    vertex 56.096302160130406 32.01954741053819 0.0
    vertex 53.438133568128364 31.28412787225374 0.0
  endloop
endfacet
facet normal -0.26664715718954385 0.9637942174358254 0.0
  outer loop
    vertex 56.096302160130406 32.01954741053819 0.0
    vertex 53.438133568128364 31.28412787225374 1.9999999999999998
    vertex 56.096302160130406 32.01954741053819 1.9999999999999998
  endloop
endfacet
facet normal -0.07007774968469756 0.9975415324682622 0.0
  outer loop
    vertex 56.096302160130406 32.01954741053819 1.9999999999999998
    vertex 59.585814578019225 32.264687256633 0.0
    vertex 56.096302160130406 32.01954741053819 0.0
  endloop
endfacet
facet normal -0.07007774968469756 0.9975415324682622 0.0
  outer loop
    vertex 59.585814578019225 32.264687256633 0.0
    vertex 56.096302160130406 32.01954741053819 1.9999999999999998
    vertex 59.585814578019225 32.264687256633 1.9999999999999998
  endloop
endfacet
facet normal 0.04936042457833601 0.998781031300378 0.0
  outer loop
    vertex 59.585814578019225 32.264687256633 1.9999999999999998
    vertex 61.839502423964824 32.15330850047253 0.0
    vertex 59.585814578019225 32.264687256633 0.0
  endloop
endfacet
facet normal 0.04936042457833601 0.998781031300378 0.0
  outer loop
    vertex 61.839502423964824 32.15330850047253 0.0
    vertex 59.585814578019225 32.264687256633 1.9999999999999998
    vertex 61.839502423964824 32.15330850047253 1.9999999999999998
  endloop
endfacet
facet normal 0.16729725995192457 0.9859065000356667 0.0
  outer loop
    vertex 61.839502423964824 32.15330850047253 1.9999999999999998
    vertex 63.80861488335688 31.819172231991118 0.0
    vertex 61.839502423964824 32.15330850047253 0.0
  endloop
endfacet
facet normal 0.16729725995192457 0.9859065000356667 0.0
  outer loop
    vertex 63.80861488335688 31.819172231991118 0.0
    vertex 61.839502423964824 32.15330850047253 1.9999999999999998
    vertex 63.80861488335688 31.819172231991118 1.9999999999999998
  endloop
endfacet
facet normal 0.31388393595084607 0.9494613603259511 0.0
  outer loop
    vertex 63.80861488335688 31.819172231991118 1.9999999999999998
    vertex 65.49315195619538 31.262278451188767 0.0
    vertex 63.80861488335688 31.819172231991118 0.0
  endloop
endfacet
facet normal 0.31388393595084607 0.9494613603259511 0.0
  outer loop
    vertex 65.49315195619538 31.262278451188767 0.0
    vertex 63.80861488335688 31.819172231991118 1.9999999999999998
    vertex 65.49315195619538 31.262278451188767 1.9999999999999998
  endloop
endfacet
facet normal 0.4865462513567852 0.8736548204472177 0.0
  outer loop
    vertex 65.49315195619538 31.262278451188767 1.9999999999999998
    vertex 66.89311364248034 30.48262715806547 0.0
    vertex 65.49315195619538 31.262278451188767 0.0
  endloop
endfacet
facet normal 0.4865462513567852 0.8736548204472177 0.0
  outer loop
    vertex 66.89311364248034 30.48262715806547 0.0
    vertex 65.49315195619538 31.262278451188767 1.9999999999999998
    vertex 66.89311364248034 30.48262715806547 1.9999999999999998
  endloop
endfacet
facet normal 0.670913323969127 0.7415357791237706 0.0
  outer loop
    vertex 66.89311364248034 30.48262715806547 1.9999999999999998
    vertex 68.023421498061 29.459967669682964 0.0
    vertex 66.89311364248034 30.48262715806547 0.0
  endloop
endfacet
facet normal 0.670913323969127 0.7415357791237706 0.0
  outer loop
    vertex 68.023421498061 29.459967669682964 0.0
    vertex 66.89311364248034 30.48262715806547 1.9999999999999998
    vertex 68.023421498061 29.459967669682964 1.9999999999999998
  endloop
endfacet
facet normal 0.8265822943511189 0.5628158763443336 0.0
  outer loop
    vertex 68.023421498061 29.459967669682964 0.0
    vertex 68.8989970787866 28.174049303102983 1.9999999999999998
    vertex 68.8989970787866 28.174049303102983 0.0
  endloop
endfacet
facet normal 0.8265822943511189 0.5628158763443336 0.0
  outer loop
    vertex 68.8989970787866 28.174049303102983 1.9999999999999998
    vertex 68.023421498061 29.459967669682964 0.0
    vertex 68.023421498061 29.459967669682964 1.9999999999999998
  endloop
endfacet
facet normal 0.9282342581959935 0.3719961853451377 0.0
  outer loop
    vertex 68.8989970787866 28.174049303102983 0.0
    vertex 69.51984038465717 26.624872058325533 1.9999999999999998
    vertex 69.51984038465717 26.624872058325533 0.0
  endloop
endfacet
facet normal 0.9282342581959935 0.3719961853451377 0.0
  outer loop
    vertex 69.51984038465717 26.624872058325533 1.9999999999999998
    vertex 68.8989970787866 28.174049303102983 0.0
    vertex 68.8989970787866 28.174049303102983 1.9999999999999998
  endloop
endfacet
facet normal 0.980201975041224 0.19800022253847124 0.0
  outer loop
    vertex 69.51984038465717 26.624872058325533 0.0
    vertex 69.8859514156727 24.8124359353506 1.9999999999999998
    vertex 69.8859514156727 24.8124359353506 0.0
  endloop
endfacet
facet normal 0.980201975041224 0.19800022253847124 0.0
  outer loop
    vertex 69.8859514156727 24.8124359353506 1.9999999999999998
    vertex 69.51984038465717 26.624872058325533 0.0
    vertex 69.51984038465717 26.624872058325533 1.9999999999999998
  endloop
endfacet
facet normal 0.058447919151545395 -0.9982904591083972 0.0
  outer loop
    vertex 69.8859514156727 24.8124359353506 1.9999999999999998
    vertex 62.60423216123887 24.386105768229182 0.0
    vertex 69.8859514156727 24.8124359353506 0.0
  endloop
endfacet
facet normal 0.058447919151545395 -0.9982904591083972 0.0
  outer loop
    vertex 62.60423216123887 24.386105768229182 0.0
    vertex 69.8859514156727 24.8124359353506 1.9999999999999998
    vertex 62.60423216123887 24.386105768229182 1.9999999999999998
  endloop
endfacet
facet normal -0.9555673195720404 -0.2947729596925506 0.0
  outer loop
    vertex 62.15445383492576 25.844154939784435 1.9999999999999998
    vertex 62.60423216123887 24.386105768229182 0.0
    vertex 62.60423216123887 24.386105768229182 1.9999999999999998
  endloop
endfacet
facet normal -0.9555673195720404 -0.2947729596925506 0.0
  outer loop
    vertex 62.60423216123887 24.386105768229182 0.0
    vertex 62.15445383492576 25.844154939784435 1.9999999999999998
    vertex 62.15445383492576 25.844154939784435 0.0
  endloop
endfacet
facet normal -0.7918056332303024 -0.6107731487096989 0.0
  outer loop
    vertex 61.3849278832716 26.84176753084855 1.9999999999999998
    vertex 62.15445383492576 25.844154939784435 0.0
    vertex 62.15445383492576 25.844154939784435 1.9999999999999998
  endloop
endfacet
facet normal -0.7918056332303024 -0.6107731487096989 0.0
  outer loop
    vertex 62.15445383492576 25.844154939784435 0.0
    vertex 61.3849278832716 26.84176753084855 1.9999999999999998
    vertex 61.3849278832716 26.84176753084855 0.0
  endloop
endfacet
facet normal -0.46151418792629145 -0.8871328279027533 0.0
  outer loop
    vertex 61.3849278832716 26.84176753084855 1.9999999999999998
    vertex 60.278601099591526 27.41731325646247 0.0
    vertex 61.3849278832716 26.84176753084855 0.0
  endloop
endfacet
facet normal -0.46151418792629145 -0.8871328279027533 0.0
  outer loop
    vertex 60.278601099591526 27.41731325646247 0.0
    vertex 61.3849278832716 26.84176753084855 1.9999999999999998
    vertex 60.278601099591526 27.41731325646247 1.9999999999999998
  endloop
endfacet
facet normal -0.13026730211175896 -0.9914789105172757 0.0
  outer loop
    vertex 60.278601099591526 27.41731325646247 1.9999999999999998
    vertex 58.81842027720067 27.60916183166711 0.0
    vertex 60.278601099591526 27.41731325646247 0.0
  endloop
endfacet
facet normal -0.13026730211175896 -0.9914789105172757 0.0
  outer loop
    vertex 58.81842027720067 27.60916183166711 0.0
    vertex 60.278601099591526 27.41731325646247 1.9999999999999998
    vertex 58.81842027720067 27.60916183166711 1.9999999999999998
  endloop
endfacet
facet normal 0.12006377992809443 -0.9927661803009701 0.0
  outer loop
    vertex 58.81842027720067 27.60916183166711 1.9999999999999998
    vertex 57.63748571427433 27.466341225681433 0.0
    vertex 58.81842027720067 27.60916183166711 0.0
  endloop
endfacet
facet normal 0.12006377992809443 -0.9927661803009701 0.0
  outer loop
    vertex 57.63748571427433 27.466341225681433 0.0
    vertex 58.81842027720067 27.60916183166711 1.9999999999999998
    vertex 57.63748571427433 27.466341225681433 1.9999999999999998
  endloop
endfacet
facet normal 0.45079844157750193 -0.8926257698897652 0.0
  outer loop
    vertex 57.63748571427433 27.466341225681433 1.9999999999999998
    vertex 56.78908868170271 27.037879407724407 0.0
    vertex 57.63748571427433 27.466341225681433 0.0
  endloop
endfacet
facet normal 0.45079844157750193 -0.8926257698897652 0.0
  outer loop
    vertex 56.78908868170271 27.037879407724407 0.0
    vertex 57.63748571427433 27.466341225681433 1.9999999999999998
    vertex 56.78908868170271 27.037879407724407 1.9999999999999998
  endloop
endfacet
facet normal 0.7777934537048584 -0.628519962589788 0.0
  outer loop
    vertex 56.78908868170271 27.037879407724407 0.0
    vertex 56.27749248115701 26.4047791095491 1.9999999999999998
    vertex 56.27749248115701 26.4047791095491 0.0
  endloop
endfacet
facet normal 0.7777934537048584 -0.628519962589788 0.0
  outer loop
    vertex 56.27749248115701 26.4047791095491 1.9999999999999998
    vertex 56.78908868170271 27.037879407724407 0.0
    vertex 56.78908868170271 27.037879407724407 1.9999999999999998
  endloop
endfacet
facet normal 0.9755361382502873 -0.21983912974654055 0.0
  outer loop
    vertex 56.27749248115701 26.4047791095491 0.0
    vertex 56.106960414308446 25.648043062908577 1.9999999999999998
    vertex 56.106960414308446 25.648043062908577 0.0
  endloop
endfacet
facet normal 0.9755361382502873 -0.21983912974654055 0.0
  outer loop
    vertex 56.106960414308446 25.648043062908577 1.9999999999999998
    vertex 56.27749248115701 26.4047791095491 0.0
    vertex 56.27749248115701 26.4047791095491 1.9999999999999998
  endloop
endfacet
facet normal 0.9705702465417678 0.24081818147277007 0.0
  outer loop
    vertex 56.106960414308446 25.648043062908577 0.0
    vertex 56.247649369458514 25.081023940637092 1.9999999999999998
    vertex 56.247649369458514 25.081023940637092 0.0
  endloop
endfacet
facet normal 0.9705702465417678 0.24081818147277007 0.0
  outer loop
    vertex 56.247649369458514 25.081023940637092 1.9999999999999998
    vertex 56.106960414308446 25.648043062908577 0.0
    vertex 56.106960414308446 25.648043062908577 1.9999999999999998
  endloop
endfacet
facet normal 0.7687505322619421 0.6395487621338821 0.0
  outer loop
    vertex 56.247649369458514 25.081023940637092 0.0
    vertex 56.66971623490872 24.573691041762604 1.9999999999999998
    vertex 56.66971623490872 24.573691041762604 0.0
  endloop
endfacet
facet normal 0.7687505322619421 0.6395487621338821 0.0
  outer loop
    vertex 56.66971623490872 24.573691041762604 1.9999999999999998
    vertex 56.247649369458514 25.081023940637092 0.0
    vertex 56.247649369458514 25.081023940637092 1.9999999999999998
  endloop
endfacet
facet normal 0.4603171644550026 0.8877545314489282 0.0
  outer loop
    vertex 56.66971623490872 24.573691041762604 1.9999999999999998
    vertex 57.59058939589097 24.096201254586617 0.0
    vertex 56.66971623490872 24.573691041762604 0.0
  endloop
endfacet
facet normal 0.4603171644550026 0.8877545314489282 0.0
  outer loop
    vertex 57.59058939589097 24.096201254586617 0.0
    vertex 56.66971623490872 24.573691041762604 1.9999999999999998
    vertex 57.59058939589097 24.096201254586617 1.9999999999999998
  endloop
endfacet
facet normal 0.2564346990245531 0.966561557861778 0.0
  outer loop
    vertex 57.59058939589097 24.096201254586617 1.9999999999999998
    vertex 59.26180365100694 23.65281788078034 0.0
    vertex 57.59058939589097 24.096201254586617 0.0
  endloop
endfacet
facet normal 0.2564346990245531 0.966561557861778 0.0
  outer loop
    vertex 59.26180365100694 23.65281788078034 0.0
    vertex 57.59058939589097 24.096201254586617 1.9999999999999998
    vertex 59.26180365100694 23.65281788078034 1.9999999999999998
  endloop
endfacet
facet normal 0.24488446198708894 0.9695522679450005 0.0
  outer loop
    vertex 59.26180365100694 23.65281788078034 1.9999999999999998
    vertex 63.608239704809804 22.555017700442686 0.0
    vertex 59.26180365100694 23.65281788078034 0.0
  endloop
endfacet
facet normal 0.24488446198708894 0.9695522679450005 0.0
  outer loop
    vertex 63.608239704809804 22.555017700442686 0.0
    vertex 59.26180365100694 23.65281788078034 1.9999999999999998
    vertex 63.608239704809804 22.555017700442686 1.9999999999999998
  endloop
endfacet
facet normal 0.3565929533838835 0.9342598490767756 0.0
  outer loop
    vertex 63.608239704809804 22.555017700442686 1.9999999999999998
    vertex 66.51794309541349 21.44442761509139 0.0
    vertex 63.608239704809804 22.555017700442686 0.0
  endloop
endfacet
facet normal 0.3565929533838835 0.9342598490767756 0.0
  outer loop
    vertex 66.51794309541349 21.44442761509139 0.0
    vertex 63.608239704809804 22.555017700442686 1.9999999999999998
    vertex 66.51794309541349 21.44442761509139 1.9999999999999998
  endloop
endfacet
facet normal 0.5514440945157938 0.8342118499659763 0.0
  outer loop
    vertex 66.51794309541349 21.44442761509139 1.9999999999999998
    vertex 68.4108490374326 20.193148574590026 0.0
    vertex 66.51794309541349 21.44442761509139 0.0
  endloop
endfacet
facet normal 0.5514440945157938 0.8342118499659763 0.0
  outer loop
    vertex 68.4108490374326 20.193148574590026 0.0
    vertex 66.51794309541349 21.44442761509139 1.9999999999999998
    vertex 68.4108490374326 20.193148574590026 1.9999999999999998
  endloop
endfacet
facet normal 0.7609114345470229 0.6488557534426214 0.0
  outer loop
    vertex 68.4108490374326 20.193148574590026 0.0
    vertex 69.70689274548171 18.673281528802168 1.9999999999999998
    vertex 69.70689274548171 18.673281528802168 0.0
  endloop
endfacet
facet normal 0.7609114345470229 0.6488557534426214 0.0
  outer loop
    vertex 69.70689274548171 18.673281528802168 1.9999999999999998
    vertex 68.4108490374326 20.193148574590026 0.0
    vertex 68.4108490374326 20.193148574590026 1.9999999999999998
  endloop
endfacet
facet normal 0.919665053803201 0.392703690857567 0.0
  outer loop
    vertex 69.70689274548171 18.673281528802168 0.0
    vertex 70.45510218877979 16.921064541933134 1.9999999999999998
    vertex 70.45510218877979 16.921064541933134 0.0
  endloop
endfacet
facet normal 0.919665053803201 0.392703690857567 0.0
  outer loop
    vertex 70.45510218877979 16.921064541933134 1.9999999999999998
    vertex 69.70689274548171 18.673281528802168 0.0
    vertex 69.70689274548171 18.673281528802168 1.9999999999999998
  endloop
endfacet
facet normal 0.9919062149182083 0.1269726774020032 0.0
  outer loop
    vertex 70.45510218877979 16.921064541933134 0.0
    vertex 70.70450533654582 14.972735678188252 1.9999999999999998
    vertex 70.70450533654582 14.972735678188252 0.0
  endloop
endfacet
facet normal 0.9919062149182083 0.1269726774020032 0.0
  outer loop
    vertex 70.70450533654582 14.972735678188252 1.9999999999999998
    vertex 70.45510218877979 16.921064541933134 0.0
    vertex 70.45510218877979 16.921064541933134 1.9999999999999998
  endloop
endfacet
facet normal 0.9898028690558838 -0.14244395532538773 0.0
  outer loop
    vertex 70.70450533654582 14.972735678188252 0.0
    vertex 70.37196780619111 12.662026172390162 1.9999999999999998
    vertex 70.37196780619111 12.662026172390162 0.0
  endloop
endfacet
facet normal 0.9898028690558838 -0.14244395532538773 0.0
  outer loop
    vertex 70.37196780619111 12.662026172390162 1.9999999999999998
    vertex 70.70450533654582 14.972735678188252 0.0
    vertex 70.70450533654582 14.972735678188252 1.9999999999999998
  endloop
endfacet
facet normal 0.9050656751516408 -0.42527182326402124 0.0
  outer loop
    vertex 70.37196780619111 12.662026172390162 0.0
    vertex 69.374355215127 10.538901940125497 1.9999999999999998
    vertex 69.374355215127 10.538901940125497 0.0
  endloop
endfacet
facet normal 0.9050656751516408 -0.42527182326402124 0.0
  outer loop
    vertex 69.374355215127 10.538901940125497 1.9999999999999998
    vertex 70.37196780619111 12.662026172390162 0.0
    vertex 70.37196780619111 12.662026172390162 1.9999999999999998
  endloop
endfacet
facet normal 0.745637265438835 -0.6663520603921746 0.0
  outer loop
    vertex 69.374355215127 10.538901940125497 0.0
    vertex 67.77988039009288 8.754710190722358 1.9999999999999998
    vertex 67.77988039009288 8.754710190722358 0.0
  endloop
endfacet
facet normal 0.745637265438835 -0.6663520603921746 0.0
  outer loop
    vertex 67.77988039009288 8.754710190722358 1.9999999999999998
    vertex 69.374355215127 10.538901940125497 0.0
    vertex 69.374355215127 10.538901940125497 1.9999999999999998
  endloop
endfacet
facet normal 0.5204092464890154 -0.8539169843542962 0.0
  outer loop
    vertex 67.77988039009288 8.754710190722358 1.9999999999999998
    vertex 65.65675615782823 7.460798133508852 0.0
    vertex 67.77988039009288 8.754710190722358 0.0
  endloop
endfacet
facet normal 0.5204092464890154 -0.8539169843542962 0.0
  outer loop
    vertex 65.65675615782823 7.460798133508852 0.0
    vertex 67.77988039009288 8.754710190722358 1.9999999999999998
    vertex 65.65675615782823 7.460798133508852 1.9999999999999998
  endloop
endfacet
facet normal 0.2798252751908046 -0.9600509441505646 0.0
  outer loop
    vertex 65.65675615782823 7.460798133508852 1.9999999999999998
    vertex 62.95808619994965 6.6742189751698335 0.0
    vertex 65.65675615782823 7.460798133508852 0.0
  endloop
endfacet
facet normal 0.2798252751908046 -0.9600509441505646 0.0
  outer loop
    vertex 62.95808619994965 6.6742189751698335 0.0
    vertex 65.65675615782823 7.460798133508852 1.9999999999999998
    vertex 62.95808619994965 6.6742189751698335 1.9999999999999998
  endloop
endfacet
facet normal 0.07870248542001054 -0.9968981486534685 0.0
  outer loop
    vertex 62.95808619994965 6.6742189751698335 1.9999999999999998
    vertex 59.63697419807379 6.4120259223901614 0.0
    vertex 62.95808619994965 6.6742189751698335 0.0
  endloop
endfacet
facet normal 0.07870248542001054 -0.9968981486534685 0.0
  outer loop
    vertex 59.63697419807379 6.4120259223901614 0.0
    vertex 62.95808619994965 6.6742189751698335 1.9999999999999998
    vertex 59.63697419807379 6.4120259223901614 1.9999999999999998
  endloop
endfacet
facet normal -0.05206541975976694 -0.9986436762255291 0.0
  outer loop
    vertex 59.63697419807379 6.4120259223901614 1.9999999999999998
    vertex 56.69316439410039 6.565504782553872 0.0
    vertex 59.63697419807379 6.4120259223901614 0.0
  endloop
endfacet
facet normal -0.05206541975976694 -0.9986436762255291 0.0
  outer loop
    vertex 56.69316439410039 6.565504782553872 0.0
    vertex 59.63697419807379 6.4120259223901614 1.9999999999999998
    vertex 56.69316439410039 6.565504782553872 1.9999999999999998
  endloop
endfacet
facet normal -0.18444320212024104 -0.9828431742610986 0.0
  outer loop
    vertex 56.69316439410039 6.565504782553872 1.9999999999999998
    vertex 54.23963428231663 7.025941363045004 0.0
    vertex 56.69316439410039 6.565504782553872 0.0
  endloop
endfacet
facet normal -0.18444320212024104 -0.9828431742610986 0.0
  outer loop
    vertex 54.23963428231663 7.025941363045004 0.0
    vertex 56.69316439410039 6.565504782553872 1.9999999999999998
    vertex 54.23963428231663 7.025941363045004 1.9999999999999998
  endloop
endfacet
facet normal -0.3640561561503522 -0.9313769994846504 0.0
  outer loop
    vertex 54.23963428231663 7.025941363045004 1.9999999999999998
    vertex 52.2763838627225 7.793335663863558 0.0
    vertex 54.23963428231663 7.025941363045004 0.0
  endloop
endfacet
facet normal -0.3640561561503522 -0.9313769994846504 0.0
  outer loop
    vertex 52.2763838627225 7.793335663863558 0.0
    vertex 54.23963428231663 7.025941363045004 1.9999999999999998
    vertex 52.2763838627225 7.793335663863558 1.9999999999999998
  endloop
endfacet
facet normal -0.5892834739459502 -0.8079263501917688 0.0
  outer loop
    vertex 52.2763838627225 7.793335663863558 1.9999999999999998
    vertex 50.803413135317996 8.867687685009534 0.0
    vertex 52.2763838627225 7.793335663863558 0.0
  endloop
endfacet
facet normal -0.5892834739459502 -0.8079263501917688 0.0
  outer loop
    vertex 50.803413135317996 8.867687685009534 0.0
    vertex 52.2763838627225 7.793335663863558 1.9999999999999998
    vertex 50.803413135317996 8.867687685009534 1.9999999999999998
  endloop
endfacet
facet normal -0.7676070863163179 -0.6409207135340323 0.0
  outer loop
    vertex 49.70881043123375 10.178652948907898 1.9999999999999998
    vertex 50.803413135317996 8.867687685009534 0.0
    vertex 50.803413135317996 8.867687685009534 1.9999999999999998
  endloop
endfacet
facet normal -0.7676070863163179 -0.6409207135340323 0.0
  outer loop
    vertex 50.803413135317996 8.867687685009534 0.0
    vertex 49.70881043123375 10.178652948907898 1.9999999999999998
    vertex 49.70881043123375 10.178652948907898 0.0
  endloop
endfacet
facet normal -0.8722805526007182 -0.489005764336767 0.0
  outer loop
    vertex 48.88066408160039 11.655886977983613 1.9999999999999998
    vertex 49.70881043123375 10.178652948907898 0.0
    vertex 49.70881043123375 10.178652948907898 1.9999999999999998
  endloop
endfacet
facet normal -0.8722805526007182 -0.489005764336767 0.0
  outer loop
    vertex 49.70881043123375 10.178652948907898 0.0
    vertex 48.88066408160039 11.655886977983613 1.9999999999999998
    vertex 48.88066408160039 11.655886977983613 0.0
  endloop
endfacet
facet normal -0.9462628567410518 -0.3233985249692147 0.0
  outer loop
    vertex 48.31897408641793 13.299389772236683 1.9999999999999998
    vertex 48.88066408160039 11.655886977983613 0.0
    vertex 48.88066408160039 11.655886977983613 1.9999999999999998
  endloop
endfacet
facet normal -0.9462628567410518 -0.3233985249692147 0.0
  outer loop
    vertex 48.88066408160039 11.655886977983613 0.0
    vertex 48.31897408641793 13.299389772236683 1.9999999999999998
    vertex 48.31897408641793 13.299389772236683 0.0
  endloop
endfacet
facet normal -0.9869536229125476 -0.16100480185322724 0.0
  outer loop
    vertex 48.02374044568634 15.109161331667107 1.9999999999999998
    vertex 48.31897408641793 13.299389772236683 0.0
    vertex 48.31897408641793 13.299389772236683 1.9999999999999998
  endloop
endfacet
facet normal -0.9869536229125476 -0.16100480185322724 0.0
  outer loop
    vertex 48.31897408641793 13.299389772236683 0.0
    vertex 48.02374044568634 15.109161331667107 1.9999999999999998
    vertex 48.02374044568634 15.109161331667107 0.0
  endloop
endfacet
endsolid ais_logo
