solid camera_housing_top
facet normal -1.0 0.0 0.0
  outer loop
    vertex 1.9124251890896804e-15 41.5 17.99999999999997
    vertex 0.0 34.0 15.999999999999998
    vertex 1.9124251890896804e-15 34.0 17.99999999999997
  endloop
endfacet
facet normal -1.0 0.0 0.0
  outer loop
    vertex 0.0 -5.500000000000024 -1.9999999999999998
    vertex 0.0 16.744654468354483 0.04932266026995451
    vertex 0.0 41.5 -1.9999999999999998
  endloop
endfacet
facet normal -1.0 0.0 0.0
  outer loop
    vertex 0.0 16.744654468354483 0.04932266026995451
    vertex 0.0 -5.500000000000024 -1.9999999999999998
    vertex 0.0 15.497048559356307 0.19698655047779956
  endloop
endfacet
facet normal -1.0 0.0 0.0
  outer loop
    vertex 0.0 15.497048559356307 0.19698655047779956
    vertex 0.0 -5.500000000000024 -1.9999999999999998
    vertex 0.0 14.264874178305513 0.44208127363717725
  endloop
endfacet
facet normal -1.0 0.0 0.0
  outer loop
    vertex 0.0 14.264874178305513 0.44208127363717725
    vertex 0.0 -5.500000000000024 -1.9999999999999998
    vertex 0.0 13.055728090000844 0.7830957392775477
  endloop
endfacet
facet normal -1.0 0.0 0.0
  outer loop
    vertex 0.0 13.055728090000844 0.7830957392775477
    vertex 0.0 -5.500000000000024 -1.9999999999999998
    vertex 0.0 11.877065082158564 1.217927479819415
  endloop
endfacet
facet normal -1.0 0.0 0.0
  outer loop
    vertex 0.0 11.877065082158564 1.217927479819415
    vertex 0.0 -5.500000000000024 -1.9999999999999998
    vertex 0.0 10.736152004167252 1.7438956129861158
  endloop
endfacet
facet normal -1.0 0.0 0.0
  outer loop
    vertex 0.0 10.736152004167252 1.7438956129861158
    vertex 0.0 -5.500000000000024 -1.9999999999999998
    vertex 0.0 9.64002296454482 2.357757370334525
  endloop
endfacet
facet normal -1.0 0.0 0.0
  outer loop
    vertex 0.0 9.64002296454482 2.357757370334525
    vertex 0.0 -5.500000000000024 -1.9999999999999998
    vertex 0.0 8.595435963320432 3.0557280900008426
  endloop
endfacet
facet normal -1.0 0.0 0.0
  outer loop
    vertex 0.0 8.595435963320432 3.0557280900008426
    vertex 0.0 -5.500000000000024 -1.9999999999999998
    vertex 0.0 7.608831226717062 3.8335045503995064
  endloop
endfacet
facet normal -1.0 0.0 0.0
  outer loop
    vertex 0.0 7.608831226717062 3.8335045503995064
    vertex 0.0 -5.500000000000024 -1.9999999999999998
    vertex 0.0 6.686291501015241 4.68629150101524
  endloop
endfacet
facet normal -1.0 0.0 0.0
  outer loop
    vertex 0.0 6.686291501015241 4.68629150101524
    vertex 0.0 -5.500000000000024 -1.9999999999999998
    vertex 0.0 5.833504550399507 5.608831226717062
  endloop
endfacet
facet normal -1.0 0.0 0.0
  outer loop
    vertex 0.0 5.833504550399507 5.608831226717062
    vertex 0.0 -5.500000000000024 -1.9999999999999998
    vertex 1.6302000632816368e-15 -5.500000000000001 17.999999999999982
  endloop
endfacet
facet normal -1.0 0.0 0.0
  outer loop
    vertex 0.0 5.833504550399507 5.608831226717062
    vertex 1.6302000632816368e-15 -5.500000000000001 17.999999999999982
    vertex 0.0 5.055728090000842 6.595435963320431
  endloop
endfacet
facet normal -1.0 0.0 0.0
  outer loop
    vertex 0.0 5.055728090000842 6.595435963320431
    vertex 1.6302000632816368e-15 -5.500000000000001 17.999999999999982
    vertex 0.0 4.357757370334527 7.640022964544818
  endloop
endfacet
facet normal -1.0 0.0 0.0
  outer loop
    vertex 0.0 4.357757370334527 7.640022964544818
    vertex 1.6302000632816368e-15 -5.500000000000001 17.999999999999982
    vertex 0.0 3.7438956129861176 8.73615200416725
  endloop
endfacet
facet normal -1.0 0.0 0.0
  outer loop
    vertex 0.0 3.7438956129861176 8.73615200416725
    vertex 1.6302000632816368e-15 -5.500000000000001 17.999999999999982
    vertex 0.0 3.217927479819414 9.87706508215856
  endloop
endfacet
facet normal -1.0 0.0 0.0
  outer loop
    vertex 0.0 3.217927479819414 9.87706508215856
    vertex 1.6302000632816368e-15 -5.500000000000001 17.999999999999982
    vertex 0.0 2.7830957392775466 11.05572809000084
  endloop
endfacet
facet normal -1.0 0.0 0.0
  outer loop
    vertex 0.0 2.7830957392775466 11.05572809000084
    vertex 1.6302000632816368e-15 -5.500000000000001 17.999999999999982
    vertex 0.0 2.4420812736371764 12.264874178305512
  endloop
endfacet
facet normal -1.0 0.0 0.0
  outer loop
    vertex 0.0 2.4420812736371764 12.264874178305512
    vertex 1.6302000632816368e-15 -5.500000000000001 17.999999999999982
    vertex 0.0 2.196986550477799 13.497048559356305
  endloop
endfacet
facet normal -1.0 0.0 0.0
  outer loop
    vertex 0.0 2.196986550477799 13.497048559356305
    vertex 1.6302000632816368e-15 -5.500000000000001 17.999999999999982
    vertex 0.0 2.0493226602699535 14.74465446835448
  endloop
endfacet
facet normal -1.0 0.0 0.0
  outer loop
    vertex 0.0 2.0493226602699535 14.74465446835448
    vertex 1.6302000632816368e-15 -5.500000000000001 17.999999999999982
    vertex 0.0 2.0000000000000018 15.999999999999998
  endloop
endfacet
facet normal -1.0 0.0 0.0
  outer loop
    vertex 0.0 2.0000000000000018 15.999999999999998
    vertex 1.6302000632816368e-15 -5.500000000000001 17.999999999999982
    vertex 1.6302000632816368e-15 2.000000000000001 17.999999999999982
  endloop
endfacet
facet normal -1.0 0.0 0.0
  outer loop
    vertex 0.0 41.5 -1.9999999999999998
    vertex 0.0 16.744654468354483 0.04932266026995451
    vertex 0.0 18.0 0.0
  endloop
endfacet
facet normal -1.0 0.0 0.0
  outer loop
    vertex 0.0 41.5 -1.9999999999999998
    vertex 0.0 18.0 0.0
    vertex 0.0 19.25534553164552 0.04932266026995451
  endloop
endfacet
facet normal -1.0 0.0 0.0
  outer loop
    vertex 0.0 41.5 -1.9999999999999998
    vertex 0.0 19.25534553164552 0.04932266026995451
    vertex 0.0 20.502951440643695 0.19698655047779956
  endloop
endfacet
facet normal -1.0 0.0 0.0
  outer loop
    vertex 0.0 41.5 -1.9999999999999998
    vertex 0.0 20.502951440643695 0.19698655047779956
    vertex 0.0 21.73512582169449 0.44208127363717725
  endloop
endfacet
facet normal -1.0 0.0 0.0
  outer loop
    vertex 0.0 41.5 -1.9999999999999998
    vertex 0.0 21.73512582169449 0.44208127363717725
    vertex 0.0 22.94427190999916 0.7830957392775477
  endloop
endfacet
facet normal -1.0 0.0 0.0
  outer loop
    vertex 0.0 41.5 -1.9999999999999998
    vertex 0.0 22.94427190999916 0.7830957392775477
    vertex 0.0 24.122934917841437 1.217927479819415
  endloop
endfacet
facet normal -1.0 0.0 0.0
  outer loop
    vertex 0.0 41.5 -1.9999999999999998
    vertex 0.0 24.122934917841437 1.217927479819415
    vertex 0.0 25.26384799583275 1.7438956129861158
  endloop
endfacet
facet normal -1.0 0.0 0.0
  outer loop
    vertex 0.0 41.5 -1.9999999999999998
    vertex 0.0 25.26384799583275 1.7438956129861158
    vertex 0.0 26.359977035455184 2.357757370334525
  endloop
endfacet
facet normal -1.0 0.0 0.0
  outer loop
    vertex 0.0 41.5 -1.9999999999999998
    vertex 0.0 26.359977035455184 2.357757370334525
    vertex 0.0 27.40456403667957 3.0557280900008426
  endloop
endfacet
facet normal -1.0 0.0 0.0
  outer loop
    vertex 0.0 41.5 -1.9999999999999998
    vertex 0.0 27.40456403667957 3.0557280900008426
    vertex 0.0 28.39116877328294 3.8335045503995064
  endloop
endfacet
facet normal -1.0 0.0 0.0
  outer loop
    vertex 0.0 41.5 -1.9999999999999998
    vertex 0.0 28.39116877328294 3.8335045503995064
    vertex 0.0 29.313708498984763 4.68629150101524
  endloop
endfacet
facet normal -1.0 0.0 0.0
  outer loop
    vertex 0.0 41.5 -1.9999999999999998
    vertex 0.0 29.313708498984763 4.68629150101524
    vertex 0.0 30.166495449600497 5.608831226717062
  endloop
endfacet
facet normal -1.0 0.0 0.0
  outer loop
    vertex 0.0 41.5 -1.9999999999999998
    vertex 0.0 30.166495449600497 5.608831226717062
    vertex 0.0 30.94427190999916 6.595435963320431
  endloop
endfacet
facet normal -1.0 0.0 0.0
  outer loop
    vertex 0.0 41.5 -1.9999999999999998
    vertex 0.0 30.94427190999916 6.595435963320431
    vertex 0.0 31.64224262966547 7.640022964544818
  endloop
endfacet
facet normal -1.0 0.0 0.0
  outer loop
    vertex 0.0 41.5 -1.9999999999999998
    vertex 0.0 31.64224262966547 7.640022964544818
    vertex 0.0 32.256104387013885 8.73615200416725
  endloop
endfacet
facet normal -1.0 0.0 0.0
  outer loop
    vertex 0.0 41.5 -1.9999999999999998
    vertex 0.0 32.256104387013885 8.73615200416725
    vertex 0.0 32.782072520180584 9.87706508215856
  endloop
endfacet
facet normal -1.0 0.0 0.0
  outer loop
    vertex 0.0 41.5 -1.9999999999999998
    vertex 0.0 32.782072520180584 9.87706508215856
    vertex 0.0 33.21690426072245 11.05572809000084
  endloop
endfacet
facet normal -1.0 0.0 0.0
  outer loop
    vertex 0.0 41.5 -1.9999999999999998
    vertex 0.0 33.21690426072245 11.05572809000084
    vertex 0.0 33.55791872636283 12.264874178305512
  endloop
endfacet
facet normal -1.0 0.0 0.0
  outer loop
    vertex 0.0 41.5 -1.9999999999999998
    vertex 0.0 33.55791872636283 12.264874178305512
    vertex 0.0 33.803013449522204 13.497048559356305
  endloop
endfacet
facet normal -1.0 0.0 0.0
  outer loop
    vertex 0.0 41.5 -1.9999999999999998
    vertex 0.0 33.803013449522204 13.497048559356305
    vertex 0.0 33.95067733973005 14.74465446835448
  endloop
endfacet
facet normal -1.0 0.0 0.0
  outer loop
    vertex 0.0 41.5 -1.9999999999999998
    vertex 0.0 33.95067733973005 14.74465446835448
    vertex 0.0 34.0 15.999999999999998
  endloop
endfacet
facet normal -1.0 0.0 0.0
  outer loop
    vertex 0.0 41.5 -1.9999999999999998
    vertex 0.0 34.0 15.999999999999998
    vertex 1.9124251890896804e-15 41.5 17.99999999999997
  endloop
endfacet
facet normal 1.5446514901347433e-18 9.973093597982716e-18 -1.0
  outer loop
    vertex 47.00000000000001 41.49999999999999 -1.999999999999998
    vertex 0.0 -5.500000000000024 -1.9999999999999998
    vertex 0.0 41.5 -1.9999999999999998
  endloop
endfacet
facet normal 1.5446514901347433e-18 9.973093597982716e-18 -1.0
  outer loop
    vertex 0.0 -5.500000000000024 -1.9999999999999998
    vertex 47.00000000000001 41.49999999999999 -1.999999999999998
    vertex 47.0 0.0 -1.9999999999999998
  endloop
endfacet
facet normal 1.5446514901347433e-18 9.973093597982716e-18 -1.0
  outer loop
    vertex 47.0 0.0 -1.9999999999999998
    vertex 47.00000000000001 41.49999999999999 -1.999999999999998
    vertex 47.00000000000001 36.0 -1.9999999999999998
  endloop
endfacet
facet normal 1.5446514901347433e-18 9.973093597982716e-18 -1.0
  outer loop
    vertex 47.0 0.0 -1.9999999999999998
    vertex 47.00000000000001 36.0 -1.9999999999999998
    vertex 126.381915 -9.410368857023488e-18 -1.9999999999999996
  endloop
endfacet
facet normal 1.5446514901347433e-18 9.973093597982716e-18 -1.0
  outer loop
    vertex 126.381915 -9.410368857023488e-18 -1.9999999999999996
    vertex 47.00000000000001 36.0 -1.9999999999999998
    vertex 126.381915 36.0 -1.9999999999999996
  endloop
endfacet
facet normal 1.5446514901347433e-18 9.973093597982716e-18 -1.0
  outer loop
    vertex 47.0 -5.50000000000003 -1.9999999999999998
    vertex 0.0 -5.500000000000024 -1.9999999999999998
    vertex 47.0 0.0 -1.9999999999999998
  endloop
endfacet
facet normal -1.6662703448117728e-17 -1.0 1.2754401021750341e-16
  outer loop
    vertex 126.381915 -9.410368857023488e-18 -1.9999999999999996
    vertex 47.0 3.6927379892199354e-14 17.999999999999932
    vertex 47.0 0.0 -1.9999999999999998
  endloop
endfacet
facet normal -1.6662703448117728e-17 -1.0 1.2754401021750341e-16
  outer loop
    vertex 47.0 3.6927379892199354e-14 17.999999999999932
    vertex 126.381915 -9.410368857023488e-18 -1.9999999999999996
    vertex 126.381915 3.39059872323266e-14 17.999999999999872
  endloop
endfacet
facet normal -3.09148467038635e-17 1.0 2.3499720687899443e-16
  outer loop
    vertex 47.00000000000001 35.99999999999996 17.999999999999915
    vertex 126.381915 36.0 -1.9999999999999996
    vertex 47.00000000000001 36.0 -1.9999999999999998
  endloop
endfacet
facet normal -3.09148467038635e-17 1.0 2.3499720687899443e-16
  outer loop
    vertex 126.381915 36.0 -1.9999999999999996
    vertex 47.00000000000001 35.99999999999996 17.999999999999915
    vertex 126.381915 35.999999999999964 17.999999999999847
  endloop
endfacet
facet normal 1.0 -0.0 -0.0
  outer loop
    vertex 126.381915 -9.410368857023488e-18 -1.9999999999999996
    vertex 126.381915 1.9999999999999998 0.0
    vertex 126.381915 3.39059872323266e-14 17.999999999999872
  endloop
endfacet
facet normal 1.0 -0.0 -0.0
  outer loop
    vertex 126.381915 1.9999999999999998 0.0
    vertex 126.381915 -9.410368857023488e-18 -1.9999999999999996
    vertex 126.381915 36.0 -1.9999999999999996
  endloop
endfacet
facet normal 1.0 -0.0 -0.0
  outer loop
    vertex 126.381915 3.39059872323266e-14 17.999999999999872
    vertex 126.381915 1.9999999999999998 0.0
    vertex 126.381915 1.000000000000036 15.999999999999897
  endloop
endfacet
facet normal 1.0 -0.0 -0.0
  outer loop
    vertex 126.381915 3.39059872323266e-14 17.999999999999872
    vertex 126.381915 1.000000000000036 15.999999999999897
    vertex 126.381915 1.000000000000035 17.999999999999886
  endloop
endfacet
facet normal 1.0 -0.0 -0.0
  outer loop
    vertex 126.381915 1.9999999999999998 0.0
    vertex 126.381915 36.0 -1.9999999999999996
    vertex 126.381915 34.0 0.0
  endloop
endfacet
facet normal 1.0 -0.0 -0.0
  outer loop
    vertex 126.381915 34.0 0.0
    vertex 126.381915 36.0 -1.9999999999999996
    vertex 126.381915 34.99999999999996 15.999999999999906
  endloop
endfacet
facet normal 1.0 -0.0 -0.0
  outer loop
    vertex 126.381915 34.99999999999996 15.999999999999906
    vertex 126.381915 36.0 -1.9999999999999996
    vertex 126.381915 34.99999999999996 17.999999999999876
  endloop
endfacet
facet normal 1.0 -0.0 -0.0
  outer loop
    vertex 126.381915 34.99999999999996 17.999999999999876
    vertex 126.381915 36.0 -1.9999999999999996
    vertex 126.381915 35.999999999999964 17.999999999999847
  endloop
endfacet
facet normal 1.0 -0.0 -0.0
  outer loop
    vertex 126.381915 34.99999999999996 15.999999999999906
    vertex 126.381915 33.99999999999996 15.999999999999906
    vertex 126.381915 34.0 0.0
  endloop
endfacet
facet normal 1.0 -0.0 -0.0
  outer loop
    vertex 126.381915 2.000000000000036 15.999999999999897
    vertex 126.381915 1.000000000000036 15.999999999999897
    vertex 126.381915 1.9999999999999998 0.0
  endloop
endfacet
facet normal -1.0 0.0 0.0
  outer loop
    vertex 45.0 39.49999999999995 16.000000000000025
    vertex 45.0 34.0 -5.287437154777308e-15
    vertex 45.0 33.99999999999996 15.999999999999963
  endloop
endfacet
facet normal -1.0 0.0 0.0
  outer loop
    vertex 45.0 34.0 -5.287437154777308e-15
    vertex 45.0 39.49999999999995 16.000000000000025
    vertex 45.0 39.49999999999999 1.7669410238749361e-15
  endloop
endfacet
facet normal 1.0 5.570804691710473e-17 -6.673029205858006e-17
  outer loop
    vertex 5.5 -3.500000000000024 0.0
    vertex 5.5 5.833504550399507 5.608831226717062
    vertex 5.500000000000007 -3.499999999999987 16.000000000000004
  endloop
endfacet
facet normal 1.0 5.570804691710473e-17 -6.673029205858006e-17
  outer loop
    vertex 5.5 5.833504550399507 5.608831226717062
    vertex 5.5 -3.500000000000024 0.0
    vertex 5.5 6.686291501015241 4.68629150101524
  endloop
endfacet
facet normal 1.0 5.570804691710473e-17 -6.673029205858006e-17
  outer loop
    vertex 5.5 6.686291501015241 4.68629150101524
    vertex 5.5 -3.500000000000024 0.0
    vertex 5.5 7.608831226717062 3.8335045503995064
  endloop
endfacet
facet normal 1.0 5.570804691710473e-17 -6.673029205858006e-17
  outer loop
    vertex 5.5 7.608831226717062 3.8335045503995064
    vertex 5.5 -3.500000000000024 0.0
    vertex 5.5 8.595435963320432 3.0557280900008426
  endloop
endfacet
facet normal 1.0 5.570804691710473e-17 -6.673029205858006e-17
  outer loop
    vertex 5.5 8.595435963320432 3.0557280900008426
    vertex 5.5 -3.500000000000024 0.0
    vertex 5.5 9.64002296454482 2.357757370334525
  endloop
endfacet
facet normal 1.0 5.570804691710473e-17 -6.673029205858006e-17
  outer loop
    vertex 5.5 9.64002296454482 2.357757370334525
    vertex 5.5 -3.500000000000024 0.0
    vertex 5.5 10.736152004167252 1.7438956129861158
  endloop
endfacet
facet normal 1.0 5.570804691710473e-17 -6.673029205858006e-17
  outer loop
    vertex 5.5 10.736152004167252 1.7438956129861158
    vertex 5.5 -3.500000000000024 0.0
    vertex 5.5 11.877065082158564 1.217927479819415
  endloop
endfacet
facet normal 1.0 5.570804691710473e-17 -6.673029205858006e-17
  outer loop
    vertex 5.5 11.877065082158564 1.217927479819415
    vertex 5.5 -3.500000000000024 0.0
    vertex 5.5 13.055728090000844 0.7830957392775477
  endloop
endfacet
facet normal 1.0 5.570804691710473e-17 -6.673029205858006e-17
  outer loop
    vertex 5.5 13.055728090000844 0.7830957392775477
    vertex 5.5 -3.500000000000024 0.0
    vertex 5.5 14.264874178305513 0.44208127363717725
  endloop
endfacet
facet normal 1.0 5.570804691710473e-17 -6.673029205858006e-17
  outer loop
    vertex 5.5 14.264874178305513 0.44208127363717725
    vertex 5.5 -3.500000000000024 0.0
    vertex 5.5 15.497048559356307 0.19698655047779956
  endloop
endfacet
facet normal 1.0 5.570804691710473e-17 -6.673029205858006e-17
  outer loop
    vertex 5.5 15.497048559356307 0.19698655047779956
    vertex 5.5 -3.500000000000024 0.0
    vertex 5.5 16.744654468354483 0.04932266026995451
  endloop
endfacet
facet normal 1.0 5.570804691710473e-17 -6.673029205858006e-17
  outer loop
    vertex 5.5 16.744654468354483 0.04932266026995451
    vertex 5.5 -3.500000000000024 0.0
    vertex 5.5 18.0 0.0
  endloop
endfacet
facet normal 1.0 5.570804691710473e-17 -6.673029205858006e-17
  outer loop
    vertex 5.500000000000007 -3.499999999999987 16.000000000000004
    vertex 5.5 5.833504550399507 5.608831226717062
    vertex 5.5 5.055728090000842 6.595435963320431
  endloop
endfacet
facet normal 1.0 5.570804691710473e-17 -6.673029205858006e-17
  outer loop
    vertex 5.500000000000007 -3.499999999999987 16.000000000000004
    vertex 5.5 5.055728090000842 6.595435963320431
    vertex 5.5 4.357757370334527 7.640022964544818
  endloop
endfacet
facet normal 1.0 5.570804691710473e-17 -6.673029205858006e-17
  outer loop
    vertex 5.500000000000007 -3.499999999999987 16.000000000000004
    vertex 5.5 4.357757370334527 7.640022964544818
    vertex 5.5 3.7438956129861176 8.73615200416725
  endloop
endfacet
facet normal 1.0 5.570804691710473e-17 -6.673029205858006e-17
  outer loop
    vertex 5.500000000000007 -3.499999999999987 16.000000000000004
    vertex 5.5 3.7438956129861176 8.73615200416725
    vertex 5.5 3.217927479819414 9.87706508215856
  endloop
endfacet
facet normal 1.0 5.570804691710473e-17 -6.673029205858006e-17
  outer loop
    vertex 5.500000000000007 -3.499999999999987 16.000000000000004
    vertex 5.5 3.217927479819414 9.87706508215856
    vertex 5.5 2.7830957392775466 11.05572809000084
  endloop
endfacet
facet normal 1.0 5.570804691710473e-17 -6.673029205858006e-17
  outer loop
    vertex 5.500000000000007 -3.499999999999987 16.000000000000004
    vertex 5.5 2.7830957392775466 11.05572809000084
    vertex 5.5 2.4420812736371764 12.264874178305512
  endloop
endfacet
facet normal 1.0 5.570804691710473e-17 -6.673029205858006e-17
  outer loop
    vertex 5.500000000000007 -3.499999999999987 16.000000000000004
    vertex 5.5 2.4420812736371764 12.264874178305512
    vertex 5.5 2.196986550477799 13.497048559356305
  endloop
endfacet
facet normal 1.0 5.570804691710473e-17 -6.673029205858006e-17
  outer loop
    vertex 5.500000000000007 -3.499999999999987 16.000000000000004
    vertex 5.5 2.196986550477799 13.497048559356305
    vertex 5.5 2.0493226602699535 14.74465446835448
  endloop
endfacet
facet normal 1.0 5.570804691710473e-17 -6.673029205858006e-17
  outer loop
    vertex 5.500000000000007 -3.499999999999987 16.000000000000004
    vertex 5.5 2.0493226602699535 14.74465446835448
    vertex 5.5 2.0000000000000018 15.999999999999998
  endloop
endfacet
facet normal -2.433804763428114e-17 0.9992290362407231 0.039259815759068215
  outer loop
    vertex 0.0 2.0000000000000018 15.999999999999998
    vertex 5.5 2.0493226602699535 14.74465446835448
    vertex 0.0 2.0493226602699535 14.74465446835448
  endloop
endfacet
facet normal -2.433804763428114e-17 0.9992290362407231 0.039259815759068215
  outer loop
    vertex 5.5 2.0493226602699535 14.74465446835448
    vertex 0.0 2.0000000000000018 15.999999999999998
    vertex 0.9999999999999981 2.0000000000000018 15.999999999999982
  endloop
endfacet
facet normal -2.433804763428114e-17 0.9992290362407231 0.039259815759068215
  outer loop
    vertex 5.5 2.0000000000000018 15.999999999999998
    vertex 5.5 2.0493226602699535 14.74465446835448
    vertex 0.9999999999999981 2.0000000000000018 15.999999999999982
  endloop
endfacet
facet normal 0.0 0.9930684569549264 0.11753739745783846
  outer loop
    vertex 0.0 2.0493226602699535 14.74465446835448
    vertex 5.5 2.196986550477799 13.497048559356305
    vertex 0.0 2.196986550477799 13.497048559356305
  endloop
endfacet
facet normal 0.0 0.9930684569549264 0.11753739745783846
  outer loop
    vertex 5.5 2.196986550477799 13.497048559356305
    vertex 0.0 2.0493226602699535 14.74465446835448
    vertex 5.5 2.0493226602699535 14.74465446835448
  endloop
endfacet
facet normal 0.0 0.9807852804032305 0.19509032201612803
  outer loop
    vertex 0.0 2.196986550477799 13.497048559356305
    vertex 5.5 2.4420812736371764 12.264874178305512
    vertex 0.0 2.4420812736371764 12.264874178305512
  endloop
endfacet
facet normal 0.0 0.9807852804032305 0.19509032201612803
  outer loop
    vertex 5.5 2.4420812736371764 12.264874178305512
    vertex 0.0 2.196986550477799 13.497048559356305
    vertex 5.5 2.196986550477799 13.497048559356305
  endloop
endfacet
facet normal 0.0 0.9624552364536468 0.271440449865076
  outer loop
    vertex 0.0 2.4420812736371764 12.264874178305512
    vertex 5.5 2.7830957392775466 11.05572809000084
    vertex 0.0 2.7830957392775466 11.05572809000084
  endloop
endfacet
facet normal 0.0 0.9624552364536468 0.271440449865076
  outer loop
    vertex 5.5 2.7830957392775466 11.05572809000084
    vertex 0.0 2.4420812736371764 12.264874178305512
    vertex 5.5 2.4420812736371764 12.264874178305512
  endloop
endfacet
facet normal 0.0 0.9381913359224847 0.3461170570774914
  outer loop
    vertex 0.0 2.7830957392775466 11.05572809000084
    vertex 5.5 3.217927479819414 9.87706508215856
    vertex 0.0 3.217927479819414 9.87706508215856
  endloop
endfacet
facet normal 0.0 0.9381913359224847 0.3461170570774914
  outer loop
    vertex 5.5 3.217927479819414 9.87706508215856
    vertex 0.0 2.7830957392775466 11.05572809000084
    vertex 5.5 2.7830957392775466 11.05572809000084
  endloop
endfacet
facet normal 0.0 0.9081431738250807 0.4186597375374294
  outer loop
    vertex 0.0 3.217927479819414 9.87706508215856
    vertex 5.5 3.7438956129861176 8.73615200416725
    vertex 0.0 3.7438956129861176 8.73615200416725
  endloop
endfacet
facet normal 0.0 0.9081431738250807 0.4186597375374294
  outer loop
    vertex 5.5 3.7438956129861176 8.73615200416725
    vertex 0.0 3.217927479819414 9.87706508215856
    vertex 5.5 3.217927479819414 9.87706508215856
  endloop
endfacet
facet normal 0.0 0.8724960070727975 0.48862124149695463
  outer loop
    vertex 0.0 3.7438956129861176 8.73615200416725
    vertex 5.5 4.357757370334527 7.640022964544818
    vertex 0.0 4.357757370334527 7.640022964544818
  endloop
endfacet
facet normal 0.0 0.8724960070727975 0.48862124149695463
  outer loop
    vertex 5.5 4.357757370334527 7.640022964544818
    vertex 0.0 3.7438956129861176 8.73615200416725
    vertex 5.5 3.7438956129861176 8.73615200416725
  endloop
endfacet
facet normal 0.0 0.8314696123025459 0.5555702330196015
  outer loop
    vertex 0.0 4.357757370334527 7.640022964544818
    vertex 5.5 5.055728090000842 6.595435963320431
    vertex 0.0 5.055728090000842 6.595435963320431
  endloop
endfacet
facet normal 0.0 0.8314696123025459 0.5555702330196015
  outer loop
    vertex 5.5 5.055728090000842 6.595435963320431
    vertex 0.0 4.357757370334527 7.640022964544818
    vertex 5.5 4.357757370334527 7.640022964544818
  endloop
endfacet
facet normal 0.0 0.7853169308807446 0.6190939493098345
  outer loop
    vertex 0.0 5.055728090000842 6.595435963320431
    vertex 5.5 5.833504550399507 5.608831226717062
    vertex 0.0 5.833504550399507 5.608831226717062
  endloop
endfacet
facet normal 0.0 0.7853169308807446 0.6190939493098345
  outer loop
    vertex 5.5 5.833504550399507 5.608831226717062
    vertex 0.0 5.055728090000842 6.595435963320431
    vertex 5.5 5.055728090000842 6.595435963320431
  endloop
endfacet
facet normal 0.0 0.7343225094356861 0.6788007455329412
  outer loop
    vertex 0.0 5.833504550399507 5.608831226717062
    vertex 5.5 6.686291501015241 4.68629150101524
    vertex 0.0 6.686291501015241 4.68629150101524
  endloop
endfacet
facet normal 0.0 0.7343225094356861 0.6788007455329412
  outer loop
    vertex 5.5 6.686291501015241 4.68629150101524
    vertex 0.0 5.833504550399507 5.608831226717062
    vertex 5.5 5.833504550399507 5.608831226717062
  endloop
endfacet
facet normal 0.0 0.6788007455329412 0.7343225094356861
  outer loop
    vertex 5.5 6.686291501015241 4.68629150101524
    vertex 0.0 7.608831226717062 3.8335045503995064
    vertex 0.0 6.686291501015241 4.68629150101524
  endloop
endfacet
facet normal 0.0 0.6788007455329412 0.7343225094356861
  outer loop
    vertex 0.0 7.608831226717062 3.8335045503995064
    vertex 5.5 6.686291501015241 4.68629150101524
    vertex 5.5 7.608831226717062 3.8335045503995064
  endloop
endfacet
facet normal 0.0 0.6190939493098339 0.7853169308807452
  outer loop
    vertex 5.5 7.608831226717062 3.8335045503995064
    vertex 0.0 8.595435963320432 3.0557280900008426
    vertex 0.0 7.608831226717062 3.8335045503995064
  endloop
endfacet
facet normal 0.0 0.6190939493098339 0.7853169308807452
  outer loop
    vertex 0.0 8.595435963320432 3.0557280900008426
    vertex 5.5 7.608831226717062 3.8335045503995064
    vertex 5.5 8.595435963320432 3.0557280900008426
  endloop
endfacet
facet normal 0.0 0.5555702330196025 0.8314696123025452
  outer loop
    vertex 5.5 8.595435963320432 3.0557280900008426
    vertex 0.0 9.64002296454482 2.357757370334525
    vertex 0.0 8.595435963320432 3.0557280900008426
  endloop
endfacet
facet normal 0.0 0.5555702330196025 0.8314696123025452
  outer loop
    vertex 0.0 9.64002296454482 2.357757370334525
    vertex 5.5 8.595435963320432 3.0557280900008426
    vertex 5.5 9.64002296454482 2.357757370334525
  endloop
endfacet
facet normal 0.0 0.48862124149695463 0.8724960070727975
  outer loop
    vertex 5.5 9.64002296454482 2.357757370334525
    vertex 0.0 10.736152004167252 1.7438956129861158
    vertex 0.0 9.64002296454482 2.357757370334525
  endloop
endfacet
facet normal 0.0 0.48862124149695463 0.8724960070727975
  outer loop
    vertex 0.0 10.736152004167252 1.7438956129861158
    vertex 5.5 9.64002296454482 2.357757370334525
    vertex 5.5 10.736152004167252 1.7438956129861158
  endloop
endfacet
facet normal 0.0 0.4186597375374272 0.9081431738250818
  outer loop
    vertex 5.5 10.736152004167252 1.7438956129861158
    vertex 0.0 11.877065082158564 1.217927479819415
    vertex 0.0 10.736152004167252 1.7438956129861158
  endloop
endfacet
facet normal 0.0 0.4186597375374272 0.9081431738250818
  outer loop
    vertex 0.0 11.877065082158564 1.217927479819415
    vertex 5.5 10.736152004167252 1.7438956129861158
    vertex 5.5 11.877065082158564 1.217927479819415
  endloop
endfacet
facet normal 0.0 0.3461170570774914 0.9381913359224847
  outer loop
    vertex 5.5 11.877065082158564 1.217927479819415
    vertex 0.0 13.055728090000844 0.7830957392775477
    vertex 0.0 11.877065082158564 1.217927479819415
  endloop
endfacet
facet normal 0.0 0.3461170570774914 0.9381913359224847
  outer loop
    vertex 0.0 13.055728090000844 0.7830957392775477
    vertex 5.5 11.877065082158564 1.217927479819415
    vertex 5.5 13.055728090000844 0.7830957392775477
  endloop
endfacet
facet normal 0.0 0.2714404498650763 0.9624552364536467
  outer loop
    vertex 5.5 13.055728090000844 0.7830957392775477
    vertex 0.0 14.264874178305513 0.44208127363717725
    vertex 0.0 13.055728090000844 0.7830957392775477
  endloop
endfacet
facet normal 0.0 0.2714404498650763 0.9624552364536467
  outer loop
    vertex 0.0 14.264874178305513 0.44208127363717725
    vertex 5.5 13.055728090000844 0.7830957392775477
    vertex 5.5 14.264874178305513 0.44208127363717725
  endloop
endfacet
facet normal 0.0 0.19509032201612803 0.9807852804032305
  outer loop
    vertex 5.5 14.264874178305513 0.44208127363717725
    vertex 0.0 15.497048559356307 0.19698655047779956
    vertex 0.0 14.264874178305513 0.44208127363717725
  endloop
endfacet
facet normal 0.0 0.19509032201612803 0.9807852804032305
  outer loop
    vertex 0.0 15.497048559356307 0.19698655047779956
    vertex 5.5 14.264874178305513 0.44208127363717725
    vertex 5.5 15.497048559356307 0.19698655047779956
  endloop
endfacet
facet normal 0.0 0.11753739745783846 0.9930684569549264
  outer loop
    vertex 5.5 15.497048559356307 0.19698655047779956
    vertex 0.0 16.744654468354483 0.04932266026995451
    vertex 0.0 15.497048559356307 0.19698655047779956
  endloop
endfacet
facet normal 0.0 0.11753739745783846 0.9930684569549264
  outer loop
    vertex 0.0 16.744654468354483 0.04932266026995451
    vertex 5.5 15.497048559356307 0.19698655047779956
    vertex 5.5 16.744654468354483 0.04932266026995451
  endloop
endfacet
facet normal -0.0 0.03925981575907029 0.9992290362407229
  outer loop
    vertex 5.5 16.744654468354483 0.04932266026995451
    vertex 0.0 18.0 0.0
    vertex 0.0 16.744654468354483 0.04932266026995451
  endloop
endfacet
facet normal -0.0 0.03925981575907029 0.9992290362407229
  outer loop
    vertex 0.0 18.0 0.0
    vertex 5.5 16.744654468354483 0.04932266026995451
    vertex 5.5 18.0 0.0
  endloop
endfacet
facet normal 4.86753871880598e-19 8.158093487878959e-18 1.0
  outer loop
    vertex 126.381915 1.9999999999999998 0.0
    vertex 45.0 34.0 -5.287437154777308e-15
    vertex 45.0 1.9999999999999998 0.0
  endloop
endfacet
facet normal 4.86753871880598e-19 8.158093487878959e-18 1.0
  outer loop
    vertex 45.0 34.0 -5.287437154777308e-15
    vertex 126.381915 1.9999999999999998 0.0
    vertex 126.381915 34.0 0.0
  endloop
endfacet
facet normal 4.86753871880598e-19 8.158093487878959e-18 1.0
  outer loop
    vertex 45.0 -3.500000000000024 0.0
    vertex 5.5 18.0 0.0
    vertex 5.5 -3.500000000000024 0.0
  endloop
endfacet
facet normal 4.86753871880598e-19 8.158093487878959e-18 1.0
  outer loop
    vertex 5.5 18.0 0.0
    vertex 45.0 -3.500000000000024 0.0
    vertex 5.500000000000001 39.499999999999986 8.834705119374681e-16
  endloop
endfacet
facet normal 4.86753871880598e-19 8.158093487878959e-18 1.0
  outer loop
    vertex 5.500000000000001 39.499999999999986 8.834705119374681e-16
    vertex 45.0 -3.500000000000024 0.0
    vertex 45.0 39.49999999999999 1.7669410238749361e-15
  endloop
endfacet
facet normal 4.86753871880598e-19 8.158093487878959e-18 1.0
  outer loop
    vertex 45.0 39.49999999999999 1.7669410238749361e-15
    vertex 45.0 -3.500000000000024 0.0
    vertex 45.0 1.9999999999999998 0.0
  endloop
endfacet
facet normal 4.86753871880598e-19 8.158093487878959e-18 1.0
  outer loop
    vertex 45.0 39.49999999999999 1.7669410238749361e-15
    vertex 45.0 1.9999999999999998 0.0
    vertex 45.0 34.0 -5.287437154777308e-15
  endloop
endfacet
facet normal 6.581859913905614e-16 1.0 1.0549409549221564e-15
  outer loop
    vertex 1.9124251890896804e-15 41.5 17.99999999999997
    vertex 47.00000000000001 41.49999999999999 -1.999999999999998
    vertex 0.0 41.5 -1.9999999999999998
  endloop
endfacet
facet normal 6.581859913905614e-16 1.0 1.0549409549221564e-15
  outer loop
    vertex 47.00000000000001 41.49999999999999 -1.999999999999998
    vertex 1.9124251890896804e-15 41.5 17.99999999999997
    vertex 47.00000000000001 41.49999999999995 17.999999999999915
  endloop
endfacet
facet normal 4.142734265598815e-17 -1.0 1.678372662944854e-15
  outer loop
    vertex 47.0 -5.499999999999992 17.999999999999932
    vertex 0.0 -5.500000000000024 -1.9999999999999998
    vertex 47.0 -5.50000000000003 -1.9999999999999998
  endloop
endfacet
facet normal 4.142734265598815e-17 -1.0 1.678372662944854e-15
  outer loop
    vertex 0.0 -5.500000000000024 -1.9999999999999998
    vertex 47.0 -5.499999999999992 17.999999999999932
    vertex 1.6302000632816368e-15 -5.500000000000001 17.999999999999982
  endloop
endfacet
facet normal 1.0 6.949203117707334e-16 -2.624533911475719e-31
  outer loop
    vertex 47.0 0.0 -1.9999999999999998
    vertex 47.0 -5.499999999999992 17.999999999999932
    vertex 47.0 -5.50000000000003 -1.9999999999999998
  endloop
endfacet
facet normal 1.0 6.949203117707334e-16 -2.624533911475719e-31
  outer loop
    vertex 47.0 -5.499999999999992 17.999999999999932
    vertex 47.0 0.0 -1.9999999999999998
    vertex 47.0 3.6927379892199354e-14 17.999999999999932
  endloop
endfacet
facet normal 1.0 -1.2971845819720312e-15 -9.145042607097584e-31
  outer loop
    vertex 47.00000000000001 36.0 -1.9999999999999998
    vertex 47.00000000000001 41.49999999999995 17.999999999999915
    vertex 47.00000000000001 35.99999999999996 17.999999999999915
  endloop
endfacet
facet normal 1.0 -1.2971845819720312e-15 -9.145042607097584e-31
  outer loop
    vertex 47.00000000000001 41.49999999999995 17.999999999999915
    vertex 47.00000000000001 36.0 -1.9999999999999998
    vertex 47.00000000000001 41.49999999999999 -1.999999999999998
  endloop
endfacet
facet normal 1.427831130403999e-16 -1.0 -2.4674706722294114e-15
  outer loop
    vertex 45.0 39.49999999999999 1.7669410238749361e-15
    vertex 5.500000000000005 39.49999999999994 16.000000000000025
    vertex 5.500000000000001 39.499999999999986 8.834705119374681e-16
  endloop
endfacet
facet normal 1.427831130403999e-16 -1.0 -2.4674706722294114e-15
  outer loop
    vertex 5.500000000000005 39.49999999999994 16.000000000000025
    vertex 45.0 39.49999999999999 1.7669410238749361e-15
    vertex 45.0 39.49999999999995 16.000000000000025
  endloop
endfacet
facet normal 1.7179433242906164e-17 1.0 -2.039566449262557e-15
  outer loop
    vertex 45.0 2.0000000000000386 15.999999999999982
    vertex 126.381915 1.9999999999999998 0.0
    vertex 45.0 1.9999999999999998 0.0
  endloop
endfacet
facet normal 1.7179433242906164e-17 1.0 -2.039566449262557e-15
  outer loop
    vertex 126.381915 1.9999999999999998 0.0
    vertex 45.0 2.0000000000000386 15.999999999999982
    vertex 126.381915 2.000000000000036 15.999999999999897
  endloop
endfacet
facet normal 1.970214100475074e-32 1.0 -2.2471607907803565e-15
  outer loop
    vertex 5.500000000000007 -3.499999999999987 16.000000000000004
    vertex 45.0 -3.500000000000024 0.0
    vertex 5.5 -3.500000000000024 0.0
  endloop
endfacet
facet normal 1.970214100475074e-32 1.0 -2.2471607907803565e-15
  outer loop
    vertex 45.0 -3.500000000000024 0.0
    vertex 5.500000000000007 -3.499999999999987 16.000000000000004
    vertex 45.0 -3.499999999999987 16.000000000000004
  endloop
endfacet
facet normal -6.954064422756704e-31 -1.0 -2.193307264203932e-15
  outer loop
    vertex 126.381915 34.0 0.0
    vertex 45.0 33.99999999999996 15.999999999999963
    vertex 45.0 34.0 -5.287437154777308e-15
  endloop
endfacet
facet normal -6.954064422756704e-31 -1.0 -2.193307264203932e-15
  outer loop
    vertex 45.0 33.99999999999996 15.999999999999963
    vertex 126.381915 34.0 0.0
    vertex 126.381915 33.99999999999996 15.999999999999906
  endloop
endfacet
facet normal -1.0 0.0 0.0
  outer loop
    vertex 45.0 -3.499999999999987 16.000000000000004
    vertex 45.0 1.9999999999999998 0.0
    vertex 45.0 -3.500000000000024 0.0
  endloop
endfacet
facet normal -1.0 0.0 0.0
  outer loop
    vertex 45.0 1.9999999999999998 0.0
    vertex 45.0 -3.499999999999987 16.000000000000004
    vertex 45.0 2.0000000000000386 15.999999999999982
  endloop
endfacet
facet normal 9.522644102389813e-16 2.1154112393380617e-16 1.0
  outer loop
    vertex 126.381915 34.99999999999996 17.999999999999876
    vertex 47.00000000000001 35.99999999999996 17.999999999999915
    vertex 46.00000000000001 34.99999999999996 17.999999999999876
  endloop
endfacet
facet normal 9.522644102389813e-16 2.1154112393380617e-16 1.0
  outer loop
    vertex 47.00000000000001 35.99999999999996 17.999999999999915
    vertex 126.381915 34.99999999999996 17.999999999999876
    vertex 126.381915 35.999999999999964 17.999999999999847
  endloop
endfacet
facet normal 9.522644102389813e-16 2.1154112393380617e-16 1.0
  outer loop
    vertex 1.0000000000000018 34.0 17.999999999999996
    vertex 1.9124251890896804e-15 41.5 17.99999999999997
    vertex 1.9124251890896804e-15 34.0 17.99999999999997
  endloop
endfacet
facet normal 9.522644102389813e-16 2.1154112393380617e-16 1.0
  outer loop
    vertex 1.9124251890896804e-15 41.5 17.99999999999997
    vertex 1.0000000000000018 34.0 17.999999999999996
    vertex 1.0000000000000018 40.49999999999996 17.99999999999997
  endloop
endfacet
facet normal 9.522644102389813e-16 2.1154112393380617e-16 1.0
  outer loop
    vertex 1.9124251890896804e-15 41.5 17.99999999999997
    vertex 1.0000000000000018 40.49999999999996 17.99999999999997
    vertex 47.00000000000001 41.49999999999995 17.999999999999915
  endloop
endfacet
facet normal 9.522644102389813e-16 2.1154112393380617e-16 1.0
  outer loop
    vertex 47.00000000000001 41.49999999999995 17.999999999999915
    vertex 1.0000000000000018 40.49999999999996 17.99999999999997
    vertex 46.0 40.49999999999996 17.9999999999999
  endloop
endfacet
facet normal 9.522644102389813e-16 2.1154112393380617e-16 1.0
  outer loop
    vertex 47.00000000000001 41.49999999999995 17.999999999999915
    vertex 46.0 40.49999999999996 17.9999999999999
    vertex 46.00000000000001 34.99999999999996 17.999999999999876
  endloop
endfacet
facet normal 9.522644102389813e-16 2.1154112393380617e-16 1.0
  outer loop
    vertex 47.00000000000001 41.49999999999995 17.999999999999915
    vertex 46.00000000000001 34.99999999999996 17.999999999999876
    vertex 47.00000000000001 35.99999999999996 17.999999999999915
  endloop
endfacet
facet normal -1.741943918980467e-30 -1.0 -1.158221159117234e-15
  outer loop
    vertex 46.0 40.49999999999996 17.9999999999999
    vertex 0.9999999999999999 40.49999999999996 16.0
    vertex 46.0 40.49999999999996 15.999999999999934
  endloop
endfacet
facet normal -1.741943918980467e-30 -1.0 -1.158221159117234e-15
  outer loop
    vertex 0.9999999999999999 40.49999999999996 16.0
    vertex 46.0 40.49999999999996 17.9999999999999
    vertex 1.0000000000000018 40.49999999999996 17.99999999999997
  endloop
endfacet
facet normal 1.0 -1.8873175054176953e-30 -9.693634783758476e-16
  outer loop
    vertex 0.9999999999999999 40.49999999999996 16.0
    vertex 1.0000000000000018 34.0 17.999999999999996
    vertex 0.9999999999999999 34.0 15.999999999999998
  endloop
endfacet
facet normal 1.0 -1.8873175054176953e-30 -9.693634783758476e-16
  outer loop
    vertex 1.0000000000000018 34.0 17.999999999999996
    vertex 0.9999999999999999 40.49999999999996 16.0
    vertex 1.0000000000000018 40.49999999999996 17.99999999999997
  endloop
endfacet
facet normal 0.0 -1.0 0.0
  outer loop
    vertex 126.381915 34.99999999999996 17.999999999999876
    vertex 46.00000000000001 34.99999999999996 15.999999999999906
    vertex 126.381915 34.99999999999996 15.999999999999906
  endloop
endfacet
facet normal 0.0 -1.0 0.0
  outer loop
    vertex 46.00000000000001 34.99999999999996 15.999999999999906
    vertex 126.381915 34.99999999999996 17.999999999999876
    vertex 46.00000000000001 34.99999999999996 17.999999999999876
  endloop
endfacet
facet normal -1.0 -1.0254423572901501e-15 9.255894577431126e-16
  outer loop
    vertex 46.0 40.49999999999996 17.9999999999999
    vertex 46.00000000000001 34.99999999999996 15.999999999999906
    vertex 46.00000000000001 34.99999999999996 17.999999999999876
  endloop
endfacet
facet normal -1.0 -1.0254423572901501e-15 9.255894577431126e-16
  outer loop
    vertex 46.00000000000001 34.99999999999996 15.999999999999906
    vertex 46.0 40.49999999999996 17.9999999999999
    vertex 46.0 40.49999999999996 15.999999999999934
  endloop
endfacet
facet normal 8.166022366698122e-16 -7.400234992834481e-16 1.0
  outer loop
    vertex 1.6302000632816368e-15 -5.500000000000001 17.999999999999982
    vertex 0.9999999999999998 -4.499999999999992 17.999999999999968
    vertex 1.6302000632816368e-15 2.000000000000001 17.999999999999982
  endloop
endfacet
facet normal 8.166022366698122e-16 -7.400234992834481e-16 1.0
  outer loop
    vertex 0.9999999999999998 -4.499999999999992 17.999999999999968
    vertex 1.6302000632816368e-15 -5.500000000000001 17.999999999999982
    vertex 47.0 -5.499999999999992 17.999999999999932
  endloop
endfacet
facet normal 8.166022366698122e-16 -7.400234992834481e-16 1.0
  outer loop
    vertex 0.9999999999999998 -4.499999999999992 17.999999999999968
    vertex 47.0 -5.499999999999992 17.999999999999932
    vertex 45.99999999999999 -4.499999999999992 17.999999999999936
  endloop
endfacet
facet normal 8.166022366698122e-16 -7.400234992834481e-16 1.0
  outer loop
    vertex 45.99999999999999 -4.499999999999992 17.999999999999936
    vertex 47.0 -5.499999999999992 17.999999999999932
    vertex 45.99999999999999 1.000000000000035 17.99999999999993
  endloop
endfacet
facet normal 8.166022366698122e-16 -7.400234992834481e-16 1.0
  outer loop
    vertex 45.99999999999999 1.000000000000035 17.99999999999993
    vertex 47.0 -5.499999999999992 17.999999999999932
    vertex 47.0 3.6927379892199354e-14 17.999999999999932
  endloop
endfacet
facet normal 8.166022366698122e-16 -7.400234992834481e-16 1.0
  outer loop
    vertex 45.99999999999999 1.000000000000035 17.99999999999993
    vertex 47.0 3.6927379892199354e-14 17.999999999999932
    vertex 126.381915 1.000000000000035 17.999999999999886
  endloop
endfacet
facet normal 8.166022366698122e-16 -7.400234992834481e-16 1.0
  outer loop
    vertex 126.381915 1.000000000000035 17.999999999999886
    vertex 47.0 3.6927379892199354e-14 17.999999999999932
    vertex 126.381915 3.39059872323266e-14 17.999999999999872
  endloop
endfacet
facet normal 8.166022366698122e-16 -7.400234992834481e-16 1.0
  outer loop
    vertex 0.9999999999999998 2.000000000000002 17.999999999999982
    vertex 1.6302000632816368e-15 2.000000000000001 17.999999999999982
    vertex 0.9999999999999998 -4.499999999999992 17.999999999999968
  endloop
endfacet
facet normal -7.04991620636974e-16 1.0 1.7624790515924364e-16
  outer loop
    vertex 0.0 2.0000000000000018 15.999999999999998
    vertex 0.9999999999999998 2.000000000000002 17.999999999999982
    vertex 0.9999999999999981 2.0000000000000018 15.999999999999982
  endloop
endfacet
facet normal -7.04991620636974e-16 1.0 1.7624790515924364e-16
  outer loop
    vertex 0.9999999999999998 2.000000000000002 17.999999999999982
    vertex 0.0 2.0000000000000018 15.999999999999998
    vertex 1.6302000632816368e-15 2.000000000000001 17.999999999999982
  endloop
endfacet
facet normal 0.0 -1.0 0.0
  outer loop
    vertex 1.0000000000000018 34.0 17.999999999999996
    vertex 0.0 34.0 15.999999999999998
    vertex 0.9999999999999999 34.0 15.999999999999998
  endloop
endfacet
facet normal 0.0 -1.0 0.0
  outer loop
    vertex 0.0 34.0 15.999999999999998
    vertex 1.0000000000000018 34.0 17.999999999999996
    vertex 1.9124251890896804e-15 34.0 17.99999999999997
  endloop
endfacet
facet normal 1.0 -7.064514160356478e-17 -1.837215593105289e-17
  outer loop
    vertex 5.500000000000001 39.499999999999986 8.834705119374681e-16
    vertex 5.5 19.25534553164552 0.04932266026995451
    vertex 5.5 18.0 0.0
  endloop
endfacet
facet normal 1.0 -7.064514160356478e-17 -1.837215593105289e-17
  outer loop
    vertex 5.5 19.25534553164552 0.04932266026995451
    vertex 5.500000000000001 39.499999999999986 8.834705119374681e-16
    vertex 5.5 20.502951440643695 0.19698655047779956
  endloop
endfacet
facet normal 1.0 -7.064514160356478e-17 -1.837215593105289e-17
  outer loop
    vertex 5.5 20.502951440643695 0.19698655047779956
    vertex 5.500000000000001 39.499999999999986 8.834705119374681e-16
    vertex 5.5 21.73512582169449 0.44208127363717725
  endloop
endfacet
facet normal 1.0 -7.064514160356478e-17 -1.837215593105289e-17
  outer loop
    vertex 5.5 21.73512582169449 0.44208127363717725
    vertex 5.500000000000001 39.499999999999986 8.834705119374681e-16
    vertex 5.5 22.94427190999916 0.7830957392775477
  endloop
endfacet
facet normal 1.0 -7.064514160356478e-17 -1.837215593105289e-17
  outer loop
    vertex 5.5 22.94427190999916 0.7830957392775477
    vertex 5.500000000000001 39.499999999999986 8.834705119374681e-16
    vertex 5.5 24.122934917841437 1.217927479819415
  endloop
endfacet
facet normal 1.0 -7.064514160356478e-17 -1.837215593105289e-17
  outer loop
    vertex 5.5 24.122934917841437 1.217927479819415
    vertex 5.500000000000001 39.499999999999986 8.834705119374681e-16
    vertex 5.5 25.26384799583275 1.7438956129861158
  endloop
endfacet
facet normal 1.0 -7.064514160356478e-17 -1.837215593105289e-17
  outer loop
    vertex 5.5 25.26384799583275 1.7438956129861158
    vertex 5.500000000000001 39.499999999999986 8.834705119374681e-16
    vertex 5.5 26.359977035455184 2.357757370334525
  endloop
endfacet
facet normal 1.0 -7.064514160356478e-17 -1.837215593105289e-17
  outer loop
    vertex 5.5 26.359977035455184 2.357757370334525
    vertex 5.500000000000001 39.499999999999986 8.834705119374681e-16
    vertex 5.5 27.40456403667957 3.0557280900008426
  endloop
endfacet
facet normal 1.0 -7.064514160356478e-17 -1.837215593105289e-17
  outer loop
    vertex 5.5 27.40456403667957 3.0557280900008426
    vertex 5.500000000000001 39.499999999999986 8.834705119374681e-16
    vertex 5.5 28.39116877328294 3.8335045503995064
  endloop
endfacet
facet normal 1.0 -7.064514160356478e-17 -1.837215593105289e-17
  outer loop
    vertex 5.5 28.39116877328294 3.8335045503995064
    vertex 5.500000000000001 39.499999999999986 8.834705119374681e-16
    vertex 5.5 29.313708498984763 4.68629150101524
  endloop
endfacet
facet normal 1.0 -7.064514160356478e-17 -1.837215593105289e-17
  outer loop
    vertex 5.5 29.313708498984763 4.68629150101524
    vertex 5.500000000000001 39.499999999999986 8.834705119374681e-16
    vertex 5.5 30.166495449600497 5.608831226717062
  endloop
endfacet
facet normal 1.0 -7.064514160356478e-17 -1.837215593105289e-17
  outer loop
    vertex 5.5 30.166495449600497 5.608831226717062
    vertex 5.500000000000001 39.499999999999986 8.834705119374681e-16
    vertex 5.5 30.94427190999916 6.595435963320431
  endloop
endfacet
facet normal 1.0 -7.064514160356478e-17 -1.837215593105289e-17
  outer loop
    vertex 5.5 30.94427190999916 6.595435963320431
    vertex 5.500000000000001 39.499999999999986 8.834705119374681e-16
    vertex 5.5 31.64224262966547 7.640022964544818
  endloop
endfacet
facet normal 1.0 -7.064514160356478e-17 -1.837215593105289e-17
  outer loop
    vertex 5.5 31.64224262966547 7.640022964544818
    vertex 5.500000000000001 39.499999999999986 8.834705119374681e-16
    vertex 5.5 32.256104387013885 8.73615200416725
  endloop
endfacet
facet normal 1.0 -7.064514160356478e-17 -1.837215593105289e-17
  outer loop
    vertex 5.5 32.256104387013885 8.73615200416725
    vertex 5.500000000000001 39.499999999999986 8.834705119374681e-16
    vertex 5.5 32.782072520180584 9.87706508215856
  endloop
endfacet
facet normal 1.0 -7.064514160356478e-17 -1.837215593105289e-17
  outer loop
    vertex 5.5 32.782072520180584 9.87706508215856
    vertex 5.500000000000001 39.499999999999986 8.834705119374681e-16
    vertex 5.5 33.21690426072245 11.05572809000084
  endloop
endfacet
facet normal 1.0 -7.064514160356478e-17 -1.837215593105289e-17
  outer loop
    vertex 5.5 33.21690426072245 11.05572809000084
    vertex 5.500000000000001 39.499999999999986 8.834705119374681e-16
    vertex 5.5 33.55791872636283 12.264874178305512
  endloop
endfacet
facet normal 1.0 -7.064514160356478e-17 -1.837215593105289e-17
  outer loop
    vertex 5.5 33.55791872636283 12.264874178305512
    vertex 5.500000000000001 39.499999999999986 8.834705119374681e-16
    vertex 5.5 33.803013449522204 13.497048559356305
  endloop
endfacet
facet normal 1.0 -7.064514160356478e-17 -1.837215593105289e-17
  outer loop
    vertex 5.5 33.803013449522204 13.497048559356305
    vertex 5.500000000000001 39.499999999999986 8.834705119374681e-16
    vertex 5.5 33.95067733973005 14.74465446835448
  endloop
endfacet
facet normal 1.0 -7.064514160356478e-17 -1.837215593105289e-17
  outer loop
    vertex 5.5 33.95067733973005 14.74465446835448
    vertex 5.500000000000001 39.499999999999986 8.834705119374681e-16
    vertex 5.5 34.0 15.999999999999998
  endloop
endfacet
facet normal 1.0 -7.064514160356478e-17 -1.837215593105289e-17
  outer loop
    vertex 5.5 34.0 15.999999999999998
    vertex 5.500000000000001 39.499999999999986 8.834705119374681e-16
    vertex 5.500000000000005 39.49999999999994 16.000000000000025
  endloop
endfacet
facet normal 0.0 -0.9381913359224847 0.3461170570774914
  outer loop
    vertex 5.5 33.21690426072245 11.05572809000084
    vertex 0.0 32.782072520180584 9.87706508215856
    vertex 5.5 32.782072520180584 9.87706508215856
  endloop
endfacet
facet normal 0.0 -0.9381913359224847 0.3461170570774914
  outer loop
    vertex 0.0 32.782072520180584 9.87706508215856
    vertex 5.5 33.21690426072245 11.05572809000084
    vertex 0.0 33.21690426072245 11.05572809000084
  endloop
endfacet
facet normal 0.0 -0.6190939493098333 0.7853169308807456
  outer loop
    vertex 5.5 27.40456403667957 3.0557280900008426
    vertex 0.0 28.39116877328294 3.8335045503995064
    vertex 0.0 27.40456403667957 3.0557280900008426
  endloop
endfacet
facet normal 0.0 -0.6190939493098333 0.7853169308807456
  outer loop
    vertex 0.0 28.39116877328294 3.8335045503995064
    vertex 5.5 27.40456403667957 3.0557280900008426
    vertex 5.5 28.39116877328294 3.8335045503995064
  endloop
endfacet
facet normal 0.0 -0.3461170570774911 0.9381913359224849
  outer loop
    vertex 5.5 22.94427190999916 0.7830957392775477
    vertex 0.0 24.122934917841437 1.217927479819415
    vertex 0.0 22.94427190999916 0.7830957392775477
  endloop
endfacet
facet normal 0.0 -0.3461170570774911 0.9381913359224849
  outer loop
    vertex 0.0 24.122934917841437 1.217927479819415
    vertex 5.5 22.94427190999916 0.7830957392775477
    vertex 5.5 24.122934917841437 1.217927479819415
  endloop
endfacet
facet normal 0.0 -0.8724960070727955 0.48862124149695796
  outer loop
    vertex 5.5 32.256104387013885 8.73615200416725
    vertex 0.0 31.64224262966547 7.640022964544818
    vertex 5.5 31.64224262966547 7.640022964544818
  endloop
endfacet
facet normal 0.0 -0.8724960070727955 0.48862124149695796
  outer loop
    vertex 0.0 31.64224262966547 7.640022964544818
    vertex 5.5 32.256104387013885 8.73615200416725
    vertex 0.0 32.256104387013885 8.73615200416725
  endloop
endfacet
facet normal 0.0 -0.6788007455329412 0.7343225094356861
  outer loop
    vertex 5.5 28.39116877328294 3.8335045503995064
    vertex 0.0 29.313708498984763 4.68629150101524
    vertex 0.0 28.39116877328294 3.8335045503995064
  endloop
endfacet
facet normal 0.0 -0.6788007455329412 0.7343225094356861
  outer loop
    vertex 0.0 29.313708498984763 4.68629150101524
    vertex 5.5 28.39116877328294 3.8335045503995064
    vertex 5.5 29.313708498984763 4.68629150101524
  endloop
endfacet
facet normal 0.0 -0.9624552364536464 0.2714404498650781
  outer loop
    vertex 5.5 33.55791872636283 12.264874178305512
    vertex 0.0 33.21690426072245 11.05572809000084
    vertex 5.5 33.21690426072245 11.05572809000084
  endloop
endfacet
facet normal 0.0 -0.9624552364536464 0.2714404498650781
  outer loop
    vertex 0.0 33.21690426072245 11.05572809000084
    vertex 5.5 33.55791872636283 12.264874178305512
    vertex 0.0 33.55791872636283 12.264874178305512
  endloop
endfacet
facet normal 0.0 -0.5555702330196041 0.8314696123025442
  outer loop
    vertex 5.5 26.359977035455184 2.357757370334525
    vertex 0.0 27.40456403667957 3.0557280900008426
    vertex 0.0 26.359977035455184 2.357757370334525
  endloop
endfacet
facet normal 0.0 -0.5555702330196041 0.8314696123025442
  outer loop
    vertex 0.0 27.40456403667957 3.0557280900008426
    vertex 5.5 26.359977035455184 2.357757370334525
    vertex 5.5 27.40456403667957 3.0557280900008426
  endloop
endfacet
facet normal 0.0 -0.2714404498650763 0.9624552364536467
  outer loop
    vertex 5.5 21.73512582169449 0.44208127363717725
    vertex 0.0 22.94427190999916 0.7830957392775477
    vertex 0.0 21.73512582169449 0.44208127363717725
  endloop
endfacet
facet normal 0.0 -0.2714404498650763 0.9624552364536467
  outer loop
    vertex 0.0 22.94427190999916 0.7830957392775477
    vertex 5.5 21.73512582169449 0.44208127363717725
    vertex 5.5 22.94427190999916 0.7830957392775477
  endloop
endfacet
facet normal 0.0 -0.9807852804032305 0.19509032201612803
  outer loop
    vertex 5.5 33.803013449522204 13.497048559356305
    vertex 0.0 33.55791872636283 12.264874178305512
    vertex 5.5 33.55791872636283 12.264874178305512
  endloop
endfacet
facet normal 0.0 -0.9807852804032305 0.19509032201612803
  outer loop
    vertex 0.0 33.55791872636283 12.264874178305512
    vertex 5.5 33.803013449522204 13.497048559356305
    vertex 0.0 33.803013449522204 13.497048559356305
  endloop
endfacet
facet normal -0.0 -0.03925981575907029 0.9992290362407229
  outer loop
    vertex 5.5 18.0 0.0
    vertex 0.0 19.25534553164552 0.04932266026995451
    vertex 0.0 18.0 0.0
  endloop
endfacet
facet normal -0.0 -0.03925981575907029 0.9992290362407229
  outer loop
    vertex 0.0 19.25534553164552 0.04932266026995451
    vertex 5.5 18.0 0.0
    vertex 5.5 19.25534553164552 0.04932266026995451
  endloop
endfacet
facet normal 0.0 -0.4186597375374272 0.9081431738250818
  outer loop
    vertex 5.5 24.122934917841437 1.217927479819415
    vertex 0.0 25.26384799583275 1.7438956129861158
    vertex 0.0 24.122934917841437 1.217927479819415
  endloop
endfacet
facet normal 0.0 -0.4186597375374272 0.9081431738250818
  outer loop
    vertex 0.0 25.26384799583275 1.7438956129861158
    vertex 5.5 24.122934917841437 1.217927479819415
    vertex 5.5 25.26384799583275 1.7438956129861158
  endloop
endfacet
facet normal 0.0 -0.9081431738250825 0.41865973753742575
  outer loop
    vertex 5.5 32.782072520180584 9.87706508215856
    vertex 0.0 32.256104387013885 8.73615200416725
    vertex 5.5 32.256104387013885 8.73615200416725
  endloop
endfacet
facet normal 0.0 -0.9081431738250825 0.41865973753742575
  outer loop
    vertex 0.0 32.256104387013885 8.73615200416725
    vertex 5.5 32.782072520180584 9.87706508215856
    vertex 0.0 32.782072520180584 9.87706508215856
  endloop
endfacet
facet normal 0.0 -0.7853169308807452 0.6190939493098339
  outer loop
    vertex 5.5 30.94427190999916 6.595435963320431
    vertex 0.0 30.166495449600497 5.608831226717062
    vertex 5.5 30.166495449600497 5.608831226717062
  endloop
endfacet
facet normal 0.0 -0.7853169308807452 0.6190939493098339
  outer loop
    vertex 0.0 30.166495449600497 5.608831226717062
    vertex 5.5 30.94427190999916 6.595435963320431
    vertex 0.0 30.94427190999916 6.595435963320431
  endloop
endfacet
facet normal 0.0 -0.9930684569549264 0.11753739745783846
  outer loop
    vertex 5.5 33.95067733973005 14.74465446835448
    vertex 0.0 33.803013449522204 13.497048559356305
    vertex 5.5 33.803013449522204 13.497048559356305
  endloop
endfacet
facet normal 0.0 -0.9930684569549264 0.11753739745783846
  outer loop
    vertex 0.0 33.803013449522204 13.497048559356305
    vertex 5.5 33.95067733973005 14.74465446835448
    vertex 0.0 33.95067733973005 14.74465446835448
  endloop
endfacet
facet normal 0.0 -0.11753739745783846 0.9930684569549264
  outer loop
    vertex 5.5 19.25534553164552 0.04932266026995451
    vertex 0.0 20.502951440643695 0.19698655047779956
    vertex 0.0 19.25534553164552 0.04932266026995451
  endloop
endfacet
facet normal 0.0 -0.11753739745783846 0.9930684569549264
  outer loop
    vertex 0.0 20.502951440643695 0.19698655047779956
    vertex 5.5 19.25534553164552 0.04932266026995451
    vertex 5.5 20.502951440643695 0.19698655047779956
  endloop
endfacet
facet normal 0.0 -0.8314696123025469 0.5555702330195998
  outer loop
    vertex 5.5 31.64224262966547 7.640022964544818
    vertex 0.0 30.94427190999916 6.595435963320431
    vertex 5.5 30.94427190999916 6.595435963320431
  endloop
endfacet
facet normal 0.0 -0.8314696123025469 0.5555702330195998
  outer loop
    vertex 0.0 30.94427190999916 6.595435963320431
    vertex 5.5 31.64224262966547 7.640022964544818
    vertex 0.0 31.64224262966547 7.640022964544818
  endloop
endfacet
facet normal 0.0 -0.4886212414969541 0.8724960070727976
  outer loop
    vertex 5.5 25.26384799583275 1.7438956129861158
    vertex 0.0 26.359977035455184 2.357757370334525
    vertex 0.0 25.26384799583275 1.7438956129861158
  endloop
endfacet
facet normal 0.0 -0.4886212414969541 0.8724960070727976
  outer loop
    vertex 0.0 26.359977035455184 2.357757370334525
    vertex 5.5 25.26384799583275 1.7438956129861158
    vertex 5.5 26.359977035455184 2.357757370334525
  endloop
endfacet
facet normal 0.0 -0.7343225094356856 0.6788007455329419
  outer loop
    vertex 5.5 30.166495449600497 5.608831226717062
    vertex 0.0 29.313708498984763 4.68629150101524
    vertex 5.5 29.313708498984763 4.68629150101524
  endloop
endfacet
facet normal 0.0 -0.7343225094356856 0.6788007455329419
  outer loop
    vertex 0.0 29.313708498984763 4.68629150101524
    vertex 5.5 30.166495449600497 5.608831226717062
    vertex 0.0 30.166495449600497 5.608831226717062
  endloop
endfacet
facet normal 0.0 -0.19509032201612803 0.9807852804032305
  outer loop
    vertex 5.5 20.502951440643695 0.19698655047779956
    vertex 0.0 21.73512582169449 0.44208127363717725
    vertex 0.0 20.502951440643695 0.19698655047779956
  endloop
endfacet
facet normal 0.0 -0.19509032201612803 0.9807852804032305
  outer loop
    vertex 0.0 21.73512582169449 0.44208127363717725
    vertex 5.5 20.502951440643695 0.19698655047779956
    vertex 5.5 21.73512582169449 0.44208127363717725
  endloop
endfacet
facet normal -7.211273373120277e-19 -0.9992290362407231 0.039259815759068034
  outer loop
    vertex 5.5 34.0 15.999999999999998
    vertex 0.0 33.95067733973005 14.74465446835448
    vertex 5.5 33.95067733973005 14.74465446835448
  endloop
endfacet
facet normal -7.211273373120277e-19 -0.9992290362407231 0.039259815759068034
  outer loop
    vertex 0.0 33.95067733973005 14.74465446835448
    vertex 5.5 34.0 15.999999999999998
    vertex 0.0 34.0 15.999999999999998
  endloop
endfacet
facet normal -7.211273373120277e-19 -0.9992290362407231 0.039259815759068034
  outer loop
    vertex 0.0 34.0 15.999999999999998
    vertex 5.5 34.0 15.999999999999998
    vertex 0.9999999999999999 34.0 15.999999999999998
  endloop
endfacet
facet normal 7.418077396071805e-16 7.468153886926923e-16 1.0
  outer loop
    vertex 0.9999999999999981 -4.499999999999991 15.999999999999979
    vertex 5.500000000000007 -3.499999999999987 16.000000000000004
    vertex 0.9999999999999981 2.0000000000000018 15.999999999999982
  endloop
endfacet
facet normal 7.418077396071805e-16 7.468153886926923e-16 1.0
  outer loop
    vertex 5.500000000000007 -3.499999999999987 16.000000000000004
    vertex 0.9999999999999981 -4.499999999999991 15.999999999999979
    vertex 45.99999999999999 -4.499999999999991 15.999999999999948
  endloop
endfacet
facet normal 7.418077396071805e-16 7.468153886926923e-16 1.0
  outer loop
    vertex 0.9999999999999981 2.0000000000000018 15.999999999999982
    vertex 5.500000000000007 -3.499999999999987 16.000000000000004
    vertex 5.5 2.0000000000000018 15.999999999999998
  endloop
endfacet
facet normal 7.418077396071805e-16 7.468153886926923e-16 1.0
  outer loop
    vertex 5.500000000000007 -3.499999999999987 16.000000000000004
    vertex 45.99999999999999 -4.499999999999991 15.999999999999948
    vertex 45.0 -3.499999999999987 16.000000000000004
  endloop
endfacet
facet normal 7.418077396071805e-16 7.468153886926923e-16 1.0
  outer loop
    vertex 45.0 -3.499999999999987 16.000000000000004
    vertex 45.99999999999999 -4.499999999999991 15.999999999999948
    vertex 45.0 2.0000000000000386 15.999999999999982
  endloop
endfacet
facet normal 7.418077396071805e-16 7.468153886926923e-16 1.0
  outer loop
    vertex 45.0 2.0000000000000386 15.999999999999982
    vertex 45.99999999999999 -4.499999999999991 15.999999999999948
    vertex 45.99999999999999 1.0000000000000357 15.999999999999943
  endloop
endfacet
facet normal 7.418077396071805e-16 7.468153886926923e-16 1.0
  outer loop
    vertex 45.0 2.0000000000000386 15.999999999999982
    vertex 45.99999999999999 1.0000000000000357 15.999999999999943
    vertex 126.381915 2.000000000000036 15.999999999999897
  endloop
endfacet
facet normal 7.418077396071805e-16 7.468153886926923e-16 1.0
  outer loop
    vertex 126.381915 2.000000000000036 15.999999999999897
    vertex 45.99999999999999 1.0000000000000357 15.999999999999943
    vertex 126.381915 1.000000000000036 15.999999999999897
  endloop
endfacet
facet normal -1.0 8.307088097510465e-31 8.100980068214647e-16
  outer loop
    vertex 45.99999999999999 1.000000000000035 17.99999999999993
    vertex 45.99999999999999 -4.499999999999991 15.999999999999948
    vertex 45.99999999999999 -4.499999999999992 17.999999999999936
  endloop
endfacet
facet normal -1.0 8.307088097510465e-31 8.100980068214647e-16
  outer loop
    vertex 45.99999999999999 -4.499999999999991 15.999999999999948
    vertex 45.99999999999999 1.000000000000035 17.99999999999993
    vertex 45.99999999999999 1.0000000000000357 15.999999999999943
  endloop
endfacet
facet normal -2.1926313295624775e-18 1.0 3.433051101101034e-16
  outer loop
    vertex 45.99999999999999 1.0000000000000357 15.999999999999943
    vertex 126.381915 1.000000000000035 17.999999999999886
    vertex 126.381915 1.000000000000036 15.999999999999897
  endloop
endfacet
facet normal -2.1926313295624775e-18 1.0 3.433051101101034e-16
  outer loop
    vertex 126.381915 1.000000000000035 17.999999999999886
    vertex 45.99999999999999 1.0000000000000357 15.999999999999943
    vertex 45.99999999999999 1.000000000000035 17.99999999999993
  endloop
endfacet
facet normal 1.0 1.0294459120459979e-30 -7.931155732165986e-16
  outer loop
    vertex 0.9999999999999981 -4.499999999999991 15.999999999999979
    vertex 0.9999999999999998 2.000000000000002 17.999999999999982
    vertex 0.9999999999999998 -4.499999999999992 17.999999999999968
  endloop
endfacet
facet normal 1.0 1.0294459120459979e-30 -7.931155732165986e-16
  outer loop
    vertex 0.9999999999999998 2.000000000000002 17.999999999999982
    vertex 0.9999999999999981 -4.499999999999991 15.999999999999979
    vertex 0.9999999999999981 2.0000000000000018 15.999999999999982
  endloop
endfacet
facet normal 2.3664884315059956e-31 1.0 3.433051101101035e-16
  outer loop
    vertex 0.9999999999999981 -4.499999999999991 15.999999999999979
    vertex 45.99999999999999 -4.499999999999992 17.999999999999936
    vertex 45.99999999999999 -4.499999999999991 15.999999999999948
  endloop
endfacet
facet normal 2.3664884315059956e-31 1.0 3.433051101101035e-16
  outer loop
    vertex 45.99999999999999 -4.499999999999992 17.999999999999936
    vertex 0.9999999999999981 -4.499999999999991 15.999999999999979
    vertex 0.9999999999999998 -4.499999999999992 17.999999999999968
  endloop
endfacet
facet normal 7.408824692702295e-16 -3.952127975855064e-15 1.0
  outer loop
    vertex 45.0 33.99999999999996 15.999999999999963
    vertex 46.00000000000001 34.99999999999996 15.999999999999906
    vertex 45.0 39.49999999999995 16.000000000000025
  endloop
endfacet
facet normal 7.408824692702295e-16 -3.952127975855064e-15 1.0
  outer loop
    vertex 46.00000000000001 34.99999999999996 15.999999999999906
    vertex 45.0 33.99999999999996 15.999999999999963
    vertex 126.381915 33.99999999999996 15.999999999999906
  endloop
endfacet
facet normal 7.408824692702295e-16 -3.952127975855064e-15 1.0
  outer loop
    vertex 45.0 39.49999999999995 16.000000000000025
    vertex 46.00000000000001 34.99999999999996 15.999999999999906
    vertex 46.0 40.49999999999996 15.999999999999934
  endloop
endfacet
facet normal 7.408824692702295e-16 -3.952127975855064e-15 1.0
  outer loop
    vertex 46.00000000000001 34.99999999999996 15.999999999999906
    vertex 126.381915 33.99999999999996 15.999999999999906
    vertex 126.381915 34.99999999999996 15.999999999999906
  endloop
endfacet
facet normal 7.408824692702295e-16 -3.952127975855064e-15 1.0
  outer loop
    vertex 5.5 34.0 15.999999999999998
    vertex 0.9999999999999999 40.49999999999996 16.0
    vertex 0.9999999999999999 34.0 15.999999999999998
  endloop
endfacet
facet normal 7.408824692702295e-16 -3.952127975855064e-15 1.0
  outer loop
    vertex 0.9999999999999999 40.49999999999996 16.0
    vertex 5.5 34.0 15.999999999999998
    vertex 5.500000000000005 39.49999999999994 16.000000000000025
  endloop
endfacet
facet normal 7.408824692702295e-16 -3.952127975855064e-15 1.0
  outer loop
    vertex 0.9999999999999999 40.49999999999996 16.0
    vertex 5.500000000000005 39.49999999999994 16.000000000000025
    vertex 46.0 40.49999999999996 15.999999999999934
  endloop
endfacet
facet normal 7.408824692702295e-16 -3.952127975855064e-15 1.0
  outer loop
    vertex 46.0 40.49999999999996 15.999999999999934
    vertex 5.500000000000005 39.49999999999994 16.000000000000025
    vertex 45.0 39.49999999999995 16.000000000000025
  endloop
endfacet
endsolid camera_housing_top
