solid cls_oiler_housing
facet normal -4.489151349915489e-32 1.0 -1.8193332145470262e-16
  outer loop
    vertex -15.999999999999998 17.499999999999996 15.499999999999991
    vertex -15.000000000000007 17.49999999999999 -15.500000000000082
    vertex -16.000000000000004 17.49999999999999 -15.500000000000082
  endloop
endfacet
facet normal -4.489151349915489e-32 1.0 -1.8193332145470262e-16
  outer loop
    vertex -15.000000000000007 17.49999999999999 -15.500000000000082
    vertex -15.999999999999998 17.499999999999996 15.499999999999991
    vertex -15.0 17.499999999999996 15.499999999999991
  endloop
endfacet
facet normal -0.0 -0.0 1.0
  outer loop
    vertex -15.0 -17.5 15.499999999999991
    vertex -15.999999999999998 17.499999999999996 15.499999999999991
    vertex -15.999999999999998 -17.5 15.499999999999991
  endloop
endfacet
facet normal -0.0 -0.0 1.0
  outer loop
    vertex -15.999999999999998 17.499999999999996 15.499999999999991
    vertex -15.0 -17.5 15.499999999999991
    vertex -15.0 17.499999999999996 15.499999999999991
  endloop
endfacet
facet normal -2.2445756749577444e-32 -1.0 -9.096666072735131e-17
  outer loop
    vertex -15.0 -17.5 15.499999999999991
    vertex -16.000000000000004 -17.499999999999996 -15.500000000000082
    vertex -15.000000000000007 -17.499999999999996 -15.500000000000082
  endloop
endfacet
facet normal -2.2445756749577444e-32 -1.0 -9.096666072735131e-17
  outer loop
    vertex -16.000000000000004 -17.499999999999996 -15.500000000000082
    vertex -15.0 -17.5 15.499999999999991
    vertex -15.999999999999998 -17.5 15.499999999999991
  endloop
endfacet
facet normal -1.0 1.172676270996299e-33 1.8193332145470262e-16
  outer loop
    vertex -15.999999999999998 -17.5 15.499999999999991
    vertex -16.000000000000004 -6.449593469062221 3.2328188876085213
    vertex -16.000000000000004 -17.499999999999996 -15.500000000000082
  endloop
endfacet
facet normal -1.0 1.172676270996299e-33 1.8193332145470262e-16
  outer loop
    vertex -16.000000000000004 -6.449593469062221 3.2328188876085213
    vertex -15.999999999999998 -17.5 15.499999999999991
    vertex -16.000000000000004 -5.6802183349737305 4.087296540125586
  endloop
endfacet
facet normal -1.0 1.172676270996299e-33 1.8193332145470262e-16
  outer loop
    vertex -16.000000000000004 -5.6802183349737305 4.087296540125586
    vertex -15.999999999999998 -17.5 15.499999999999991
    vertex -16.000000000000004 -4.750000000000011 4.76313972081433
  endloop
endfacet
facet normal -1.0 1.172676270996299e-33 1.8193332145470262e-16
  outer loop
    vertex -16.000000000000004 -4.750000000000011 4.76313972081433
    vertex -15.999999999999998 -17.5 15.499999999999991
    vertex -15.999999999999998 17.499999999999996 15.499999999999991
  endloop
endfacet
facet normal -1.0 1.172676270996299e-33 1.8193332145470262e-16
  outer loop
    vertex -16.000000000000004 -17.499999999999996 -15.500000000000082
    vertex -16.000000000000004 -6.449593469062221 3.2328188876085213
    vertex -16.000000000000004 -7.024500017034315 2.2370515369168205
  endloop
endfacet
facet normal -1.0 1.172676270996299e-33 1.8193332145470262e-16
  outer loop
    vertex -16.000000000000004 -17.499999999999996 -15.500000000000082
    vertex -16.000000000000004 -7.024500017034315 2.2370515369168205
    vertex -16.000000000000004 -7.37981180403594 1.1435142994975969
  endloop
endfacet
facet normal -1.0 1.172676270996299e-33 1.8193332145470262e-16
  outer loop
    vertex -16.000000000000004 -17.499999999999996 -15.500000000000082
    vertex -16.000000000000004 -7.37981180403594 1.1435142994975969
    vertex -16.000000000000004 -7.500000000000011 -7.866298160018263e-14
  endloop
endfacet
facet normal -1.0 1.172676270996299e-33 1.8193332145470262e-16
  outer loop
    vertex -16.000000000000004 -4.750000000000011 4.76313972081433
    vertex -15.999999999999998 17.499999999999996 15.499999999999991
    vertex -16.000000000000004 -3.699593469062222 5.230810839623262
  endloop
endfacet
facet normal -1.0 1.172676270996299e-33 1.8193332145470262e-16
  outer loop
    vertex -16.000000000000004 -3.699593469062222 5.230810839623262
    vertex -15.999999999999998 17.499999999999996 15.499999999999991
    vertex -16.000000000000004 -2.574906547972105 5.469870424525421
  endloop
endfacet
facet normal -1.0 1.172676270996299e-33 1.8193332145470262e-16
  outer loop
    vertex -16.000000000000004 -2.574906547972105 5.469870424525421
    vertex -15.999999999999998 17.499999999999996 15.499999999999991
    vertex -16.000000000000004 -1.4250934520279164 5.469870424525421
  endloop
endfacet
facet normal -1.0 1.172676270996299e-33 1.8193332145470262e-16
  outer loop
    vertex -16.000000000000004 -1.4250934520279164 5.469870424525421
    vertex -15.999999999999998 17.499999999999996 15.499999999999991
    vertex -16.000000000000004 -0.30040653093779957 5.230810839623262
  endloop
endfacet
facet normal -1.0 1.172676270996299e-33 1.8193332145470262e-16
  outer loop
    vertex -16.000000000000004 -0.30040653093779957 5.230810839623262
    vertex -15.999999999999998 17.499999999999996 15.499999999999991
    vertex -16.000000000000004 0.7499999999999901 4.76313972081433
  endloop
endfacet
facet normal -1.0 1.172676270996299e-33 1.8193332145470262e-16
  outer loop
    vertex -16.000000000000004 0.7499999999999901 4.76313972081433
    vertex -15.999999999999998 17.499999999999996 15.499999999999991
    vertex -16.000000000000004 1.6802183349737096 4.087296540125585
  endloop
endfacet
facet normal -1.0 1.172676270996299e-33 1.8193332145470262e-16
  outer loop
    vertex -16.000000000000004 1.6802183349737096 4.087296540125585
    vertex -15.999999999999998 17.499999999999996 15.499999999999991
    vertex -16.000000000000004 2.4495934690622003 3.2328188876085204
  endloop
endfacet
facet normal -1.0 1.172676270996299e-33 1.8193332145470262e-16
  outer loop
    vertex -16.000000000000004 2.4495934690622003 3.2328188876085204
    vertex -15.999999999999998 17.499999999999996 15.499999999999991
    vertex -16.000000000000004 3.0245000170342946 2.237051536916819
  endloop
endfacet
facet normal -1.0 1.172676270996299e-33 1.8193332145470262e-16
  outer loop
    vertex -16.000000000000004 3.0245000170342946 2.237051536916819
    vertex -15.999999999999998 17.499999999999996 15.499999999999991
    vertex -16.000000000000004 3.3798118040359206 1.1435142994975944
  endloop
endfacet
facet normal -1.0 1.172676270996299e-33 1.8193332145470262e-16
  outer loop
    vertex -16.000000000000004 3.3798118040359206 1.1435142994975944
    vertex -15.999999999999998 17.499999999999996 15.499999999999991
    vertex -16.000000000000004 3.4999999999999893 -8.177902799388902e-14
  endloop
endfacet
facet normal -1.0 1.172676270996299e-33 1.8193332145470262e-16
  outer loop
    vertex -16.000000000000004 3.4999999999999893 -8.177902799388902e-14
    vertex -15.999999999999998 17.499999999999996 15.499999999999991
    vertex -16.000000000000004 17.49999999999999 -15.500000000000082
  endloop
endfacet
facet normal -1.0 1.172676270996299e-33 1.8193332145470262e-16
  outer loop
    vertex -16.000000000000004 -17.499999999999996 -15.500000000000082
    vertex -16.000000000000004 -4.750000000000017 -4.7631397208144906
    vertex -16.000000000000004 17.49999999999999 -15.500000000000082
  endloop
endfacet
facet normal -1.0 1.172676270996299e-33 1.8193332145470262e-16
  outer loop
    vertex -16.000000000000004 -4.750000000000017 -4.7631397208144906
    vertex -16.000000000000004 -17.499999999999996 -15.500000000000082
    vertex -16.000000000000004 -5.680218334973735 -4.087296540125745
  endloop
endfacet
facet normal -1.0 1.172676270996299e-33 1.8193332145470262e-16
  outer loop
    vertex -16.000000000000004 -5.680218334973735 -4.087296540125745
    vertex -16.000000000000004 -17.499999999999996 -15.500000000000082
    vertex -16.000000000000004 -6.449593469062224 -3.2328188876086794
  endloop
endfacet
facet normal -1.0 1.172676270996299e-33 1.8193332145470262e-16
  outer loop
    vertex -16.000000000000004 -6.449593469062224 -3.2328188876086794
    vertex -16.000000000000004 -17.499999999999996 -15.500000000000082
    vertex -16.000000000000004 -7.024500017034317 -2.2370515369169786
  endloop
endfacet
facet normal -1.0 1.172676270996299e-33 1.8193332145470262e-16
  outer loop
    vertex -16.000000000000004 -7.024500017034317 -2.2370515369169786
    vertex -16.000000000000004 -17.499999999999996 -15.500000000000082
    vertex -16.000000000000004 -7.379811804035942 -1.143514299497754
  endloop
endfacet
facet normal -1.0 1.172676270996299e-33 1.8193332145470262e-16
  outer loop
    vertex -16.000000000000004 -7.379811804035942 -1.143514299497754
    vertex -16.000000000000004 -17.499999999999996 -15.500000000000082
    vertex -16.000000000000004 -7.500000000000011 -7.866298160018263e-14
  endloop
endfacet
facet normal -1.0 1.172676270996299e-33 1.8193332145470262e-16
  outer loop
    vertex -16.000000000000004 17.49999999999999 -15.500000000000082
    vertex -16.000000000000004 -4.750000000000017 -4.7631397208144906
    vertex -16.000000000000004 -3.699593469062227 -5.230810839623424
  endloop
endfacet
facet normal -1.0 1.172676270996299e-33 1.8193332145470262e-16
  outer loop
    vertex -16.000000000000004 17.49999999999999 -15.500000000000082
    vertex -16.000000000000004 -3.699593469062227 -5.230810839623424
    vertex -16.000000000000004 -2.574906547972109 -5.469870424525585
  endloop
endfacet
facet normal -1.0 1.172676270996299e-33 1.8193332145470262e-16
  outer loop
    vertex -16.000000000000004 17.49999999999999 -15.500000000000082
    vertex -16.000000000000004 -2.574906547972109 -5.469870424525585
    vertex -16.000000000000004 -2.00000000000001 -5.469870424525586
  endloop
endfacet
facet normal -1.0 1.172676270996299e-33 1.8193332145470262e-16
  outer loop
    vertex -16.000000000000004 17.49999999999999 -15.500000000000082
    vertex -16.000000000000004 -2.00000000000001 -5.469870424525586
    vertex -16.000000000000004 -1.425093452027919 -5.469870424525586
  endloop
endfacet
facet normal -1.0 1.172676270996299e-33 1.8193332145470262e-16
  outer loop
    vertex -16.000000000000004 17.49999999999999 -15.500000000000082
    vertex -16.000000000000004 -1.425093452027919 -5.469870424525586
    vertex -16.000000000000004 -0.3004065309378006 -5.230810839623427
  endloop
endfacet
facet normal -1.0 1.172676270996299e-33 1.8193332145470262e-16
  outer loop
    vertex -16.000000000000004 17.49999999999999 -15.500000000000082
    vertex -16.000000000000004 -0.3004065309378006 -5.230810839623427
    vertex -16.000000000000004 0.7499999999999901 -4.763139720814494
  endloop
endfacet
facet normal -1.0 1.172676270996299e-33 1.8193332145470262e-16
  outer loop
    vertex -16.000000000000004 17.49999999999999 -15.500000000000082
    vertex -16.000000000000004 0.7499999999999901 -4.763139720814494
    vertex -16.000000000000004 1.680218334973711 -4.087296540125749
  endloop
endfacet
facet normal -1.0 1.172676270996299e-33 1.8193332145470262e-16
  outer loop
    vertex -16.000000000000004 17.49999999999999 -15.500000000000082
    vertex -16.000000000000004 1.680218334973711 -4.087296540125749
    vertex -16.000000000000004 2.4495934690622025 -3.2328188876086807
  endloop
endfacet
facet normal -1.0 1.172676270996299e-33 1.8193332145470262e-16
  outer loop
    vertex -16.000000000000004 17.49999999999999 -15.500000000000082
    vertex -16.000000000000004 2.4495934690622025 -3.2328188876086807
    vertex -16.000000000000004 3.0245000170342964 -2.237051536916978
  endloop
endfacet
facet normal -1.0 1.172676270996299e-33 1.8193332145470262e-16
  outer loop
    vertex -16.000000000000004 17.49999999999999 -15.500000000000082
    vertex -16.000000000000004 3.0245000170342964 -2.237051536916978
    vertex -16.000000000000004 3.379811804035922 -1.1435142994977514
  endloop
endfacet
facet normal -1.0 1.172676270996299e-33 1.8193332145470262e-16
  outer loop
    vertex -16.000000000000004 17.49999999999999 -15.500000000000082
    vertex -16.000000000000004 3.379811804035922 -1.1435142994977514
    vertex -16.000000000000004 3.4999999999999893 -8.177902799388902e-14
  endloop
endfacet
facet normal 0.0 0.0 -1.0
  outer loop
    vertex -15.000000000000007 17.49999999999999 -15.500000000000082
    vertex -16.000000000000004 -17.499999999999996 -15.500000000000082
    vertex -16.000000000000004 17.49999999999999 -15.500000000000082
  endloop
endfacet
facet normal 0.0 0.0 -1.0
  outer loop
    vertex -16.000000000000004 -17.499999999999996 -15.500000000000082
    vertex -15.000000000000007 17.49999999999999 -15.500000000000082
    vertex -15.000000000000007 -17.499999999999996 -15.500000000000082
  endloop
endfacet
facet normal 6.018598767412531e-32 -1.0 1.8193332145470265e-16
  outer loop
    vertex -15.999999999999998 17.499999999999996 15.499999999999991
    vertex -36.5 17.49999999999999 -15.500000000000078
    vertex -16.000000000000004 17.49999999999999 -15.500000000000082
  endloop
endfacet
facet normal 6.018598767412531e-32 -1.0 1.8193332145470265e-16
  outer loop
    vertex -36.5 17.49999999999999 -15.500000000000078
    vertex -15.999999999999998 17.499999999999996 15.499999999999991
    vertex -36.49999999999999 17.499999999999996 15.499999999999995
  endloop
endfacet
facet normal -1.375593406120926e-16 0.0 -1.0
  outer loop
    vertex -15.999999999999998 17.499999999999996 15.499999999999991
    vertex -36.49999999999999 -17.5 15.499999999999995
    vertex -36.49999999999999 17.499999999999996 15.499999999999995
  endloop
endfacet
facet normal -1.375593406120926e-16 0.0 -1.0
  outer loop
    vertex -36.49999999999999 -17.5 15.499999999999995
    vertex -15.999999999999998 17.499999999999996 15.499999999999991
    vertex -15.999999999999998 -17.5 15.499999999999991
  endloop
endfacet
facet normal 1.2344950342701755e-16 -2.1383283528507723e-17 1.0
  outer loop
    vertex -16.000000000000004 -17.499999999999996 -15.500000000000082
    vertex -36.5 10.749999999999991 -15.500000000000078
    vertex -36.5 -17.499999999999996 -15.500000000000078
  endloop
endfacet
facet normal 1.2344950342701755e-16 -2.1383283528507723e-17 1.0
  outer loop
    vertex -36.5 10.749999999999991 -15.500000000000078
    vertex -16.000000000000004 -17.499999999999996 -15.500000000000082
    vertex -30.0 10.749999999999991 -15.500000000000078
  endloop
endfacet
facet normal 1.2344950342701755e-16 -2.1383283528507723e-17 1.0
  outer loop
    vertex -30.0 10.749999999999991 -15.500000000000078
    vertex -16.000000000000004 -17.499999999999996 -15.500000000000082
    vertex -29.304711762656368 10.860122838335897 -15.500000000000078
  endloop
endfacet
facet normal 1.2344950342701755e-16 -2.1383283528507723e-17 1.0
  outer loop
    vertex -29.304711762656368 10.860122838335897 -15.500000000000078
    vertex -16.000000000000004 -17.499999999999996 -15.500000000000082
    vertex -28.67748318234194 11.179711762656359 -15.500000000000078
  endloop
endfacet
facet normal 1.2344950342701755e-16 -2.1383283528507723e-17 1.0
  outer loop
    vertex -28.67748318234194 11.179711762656359 -15.500000000000078
    vertex -16.000000000000004 -17.499999999999996 -15.500000000000082
    vertex -28.17971176265637 11.677483182341927 -15.500000000000078
  endloop
endfacet
facet normal 1.2344950342701755e-16 -2.1383283528507723e-17 1.0
  outer loop
    vertex -28.17971176265637 11.677483182341927 -15.500000000000078
    vertex -16.000000000000004 -17.499999999999996 -15.500000000000082
    vertex -27.860122838335904 12.304711762656359 -15.500000000000078
  endloop
endfacet
facet normal 1.2344950342701755e-16 -2.1383283528507723e-17 1.0
  outer loop
    vertex -27.860122838335904 12.304711762656359 -15.500000000000078
    vertex -16.000000000000004 -17.499999999999996 -15.500000000000082
    vertex -27.750000000000007 12.999999999999991 -15.500000000000078
  endloop
endfacet
facet normal 1.2344950342701755e-16 -2.1383283528507723e-17 1.0
  outer loop
    vertex -30.0 15.24999999999999 -15.500000000000078
    vertex -36.5 17.49999999999999 -15.500000000000078
    vertex -36.5 15.24999999999999 -15.500000000000078
  endloop
endfacet
facet normal 1.2344950342701755e-16 -2.1383283528507723e-17 1.0
  outer loop
    vertex -36.5 17.49999999999999 -15.500000000000078
    vertex -30.0 15.24999999999999 -15.500000000000078
    vertex -16.000000000000004 17.49999999999999 -15.500000000000082
  endloop
endfacet
facet normal 1.2344950342701755e-16 -2.1383283528507723e-17 1.0
  outer loop
    vertex -16.000000000000004 17.49999999999999 -15.500000000000082
    vertex -30.0 15.24999999999999 -15.500000000000078
    vertex -29.304711762656368 15.139877161664083 -15.500000000000078
  endloop
endfacet
facet normal 1.2344950342701755e-16 -2.1383283528507723e-17 1.0
  outer loop
    vertex -16.000000000000004 17.49999999999999 -15.500000000000082
    vertex -29.304711762656368 15.139877161664083 -15.500000000000078
    vertex -28.67748318234194 14.820288237343622 -15.500000000000078
  endloop
endfacet
facet normal 1.2344950342701755e-16 -2.1383283528507723e-17 1.0
  outer loop
    vertex -16.000000000000004 17.49999999999999 -15.500000000000082
    vertex -28.67748318234194 14.820288237343622 -15.500000000000078
    vertex -28.17971176265637 14.322516817658055 -15.500000000000078
  endloop
endfacet
facet normal 1.2344950342701755e-16 -2.1383283528507723e-17 1.0
  outer loop
    vertex -16.000000000000004 17.49999999999999 -15.500000000000082
    vertex -28.17971176265637 14.322516817658055 -15.500000000000078
    vertex -27.860122838335904 13.69528823734362 -15.500000000000078
  endloop
endfacet
facet normal 1.2344950342701755e-16 -2.1383283528507723e-17 1.0
  outer loop
    vertex -16.000000000000004 17.49999999999999 -15.500000000000082
    vertex -27.860122838335904 13.69528823734362 -15.500000000000078
    vertex -27.750000000000007 12.999999999999991 -15.500000000000078
  endloop
endfacet
facet normal 1.2344950342701755e-16 -2.1383283528507723e-17 1.0
  outer loop
    vertex -16.000000000000004 17.49999999999999 -15.500000000000082
    vertex -27.750000000000007 12.999999999999991 -15.500000000000078
    vertex -16.000000000000004 -17.499999999999996 -15.500000000000082
  endloop
endfacet
facet normal -0.0 1.0 -0.0
  outer loop
    vertex -38.5 10.749999999999991 -16.25000000000004
    vertex -30.0 10.749999999999991 -17.499999999999993
    vertex -38.5 10.749999999999991 -17.499999999999993
  endloop
endfacet
facet normal -0.0 1.0 -0.0
  outer loop
    vertex -30.0 10.749999999999991 -17.499999999999993
    vertex -38.5 10.749999999999991 -16.25000000000004
    vertex -36.5 10.749999999999991 -16.25000000000004
  endloop
endfacet
facet normal -0.0 1.0 -0.0
  outer loop
    vertex -30.0 10.749999999999991 -17.499999999999993
    vertex -36.5 10.749999999999991 -16.25000000000004
    vertex -30.0 10.749999999999991 -15.500000000000078
  endloop
endfacet
facet normal -0.0 1.0 -0.0
  outer loop
    vertex -30.0 10.749999999999991 -15.500000000000078
    vertex -36.5 10.749999999999991 -16.25000000000004
    vertex -36.5 10.749999999999991 -15.500000000000078
  endloop
endfacet
facet normal -0.15643446504023145 0.9876883405951378 -0.0
  outer loop
    vertex -30.0 10.749999999999991 -15.500000000000078
    vertex -29.304711762656368 10.860122838335897 -17.499999999999993
    vertex -30.0 10.749999999999991 -17.499999999999993
  endloop
endfacet
facet normal -0.15643446504023145 0.9876883405951378 -0.0
  outer loop
    vertex -29.304711762656368 10.860122838335897 -17.499999999999993
    vertex -30.0 10.749999999999991 -15.500000000000078
    vertex -29.304711762656368 10.860122838335897 -15.500000000000078
  endloop
endfacet
facet normal -0.453990499739548 0.8910065241883673 -0.0
  outer loop
    vertex -29.304711762656368 10.860122838335897 -15.500000000000078
    vertex -28.67748318234194 11.179711762656359 -17.499999999999993
    vertex -29.304711762656368 10.860122838335897 -17.499999999999993
  endloop
endfacet
facet normal -0.453990499739548 0.8910065241883673 -0.0
  outer loop
    vertex -28.67748318234194 11.179711762656359 -17.499999999999993
    vertex -29.304711762656368 10.860122838335897 -15.500000000000078
    vertex -28.67748318234194 11.179711762656359 -15.500000000000078
  endloop
endfacet
facet normal -0.7071067811865466 0.7071067811865486 -0.0
  outer loop
    vertex -28.67748318234194 11.179711762656359 -15.500000000000078
    vertex -28.17971176265637 11.677483182341927 -17.499999999999993
    vertex -28.67748318234194 11.179711762656359 -17.499999999999993
  endloop
endfacet
facet normal -0.7071067811865466 0.7071067811865486 -0.0
  outer loop
    vertex -28.17971176265637 11.677483182341927 -17.499999999999993
    vertex -28.67748318234194 11.179711762656359 -15.500000000000078
    vertex -28.17971176265637 11.677483182341927 -15.500000000000078
  endloop
endfacet
facet normal -0.8910065241883666 0.4539904997395496 -0.0
  outer loop
    vertex -27.860122838335904 12.304711762656359 -15.500000000000078
    vertex -28.17971176265637 11.677483182341927 -17.499999999999993
    vertex -28.17971176265637 11.677483182341927 -15.500000000000078
  endloop
endfacet
facet normal -0.8910065241883666 0.4539904997395496 -0.0
  outer loop
    vertex -28.17971176265637 11.677483182341927 -17.499999999999993
    vertex -27.860122838335904 12.304711762656359 -15.500000000000078
    vertex -27.860122838335904 12.304711762656359 -17.499999999999993
  endloop
endfacet
facet normal -0.9876883405951389 0.15643446504022393 -0.0
  outer loop
    vertex -27.750000000000007 12.999999999999991 -15.500000000000078
    vertex -27.860122838335904 12.304711762656359 -17.499999999999993
    vertex -27.860122838335904 12.304711762656359 -15.500000000000078
  endloop
endfacet
facet normal -0.9876883405951389 0.15643446504022393 -0.0
  outer loop
    vertex -27.860122838335904 12.304711762656359 -17.499999999999993
    vertex -27.750000000000007 12.999999999999991 -15.500000000000078
    vertex -27.750000000000007 12.999999999999991 -17.499999999999993
  endloop
endfacet
facet normal -0.9876883405951388 -0.15643446504022426 -0.0
  outer loop
    vertex -27.860122838335904 13.69528823734362 -15.500000000000078
    vertex -27.750000000000007 12.999999999999991 -17.499999999999993
    vertex -27.750000000000007 12.999999999999991 -15.500000000000078
  endloop
endfacet
facet normal -0.9876883405951388 -0.15643446504022426 -0.0
  outer loop
    vertex -27.750000000000007 12.999999999999991 -17.499999999999993
    vertex -27.860122838335904 13.69528823734362 -15.500000000000078
    vertex -27.860122838335904 13.69528823734362 -17.499999999999993
  endloop
endfacet
facet normal -0.8910065241883672 -0.4539904997395479 -0.0
  outer loop
    vertex -28.17971176265637 14.322516817658055 -15.500000000000078
    vertex -27.860122838335904 13.69528823734362 -17.499999999999993
    vertex -27.860122838335904 13.69528823734362 -15.500000000000078
  endloop
endfacet
facet normal -0.8910065241883672 -0.4539904997395479 -0.0
  outer loop
    vertex -27.860122838335904 13.69528823734362 -17.499999999999993
    vertex -28.17971176265637 14.322516817658055 -15.500000000000078
    vertex -28.17971176265637 14.322516817658055 -17.499999999999993
  endloop
endfacet
facet normal -0.7071067811865456 -0.7071067811865496 -0.0
  outer loop
    vertex -28.17971176265637 14.322516817658055 -15.500000000000078
    vertex -28.67748318234194 14.820288237343622 -17.499999999999993
    vertex -28.17971176265637 14.322516817658055 -17.499999999999993
  endloop
endfacet
facet normal -0.7071067811865456 -0.7071067811865496 -0.0
  outer loop
    vertex -28.67748318234194 14.820288237343622 -17.499999999999993
    vertex -28.17971176265637 14.322516817658055 -15.500000000000078
    vertex -28.67748318234194 14.820288237343622 -15.500000000000078
  endloop
endfacet
facet normal -0.453990499739548 -0.8910065241883673 -0.0
  outer loop
    vertex -28.67748318234194 14.820288237343622 -15.500000000000078
    vertex -29.304711762656368 15.139877161664083 -17.499999999999993
    vertex -28.67748318234194 14.820288237343622 -17.499999999999993
  endloop
endfacet
facet normal -0.453990499739548 -0.8910065241883673 -0.0
  outer loop
    vertex -29.304711762656368 15.139877161664083 -17.499999999999993
    vertex -28.67748318234194 14.820288237343622 -15.500000000000078
    vertex -29.304711762656368 15.139877161664083 -15.500000000000078
  endloop
endfacet
facet normal -0.15643446504023145 -0.9876883405951378 -0.0
  outer loop
    vertex -29.304711762656368 15.139877161664083 -15.500000000000078
    vertex -30.0 15.24999999999999 -17.499999999999993
    vertex -29.304711762656368 15.139877161664083 -17.499999999999993
  endloop
endfacet
facet normal -0.15643446504023145 -0.9876883405951378 -0.0
  outer loop
    vertex -30.0 15.24999999999999 -17.499999999999993
    vertex -29.304711762656368 15.139877161664083 -15.500000000000078
    vertex -30.0 15.24999999999999 -15.500000000000078
  endloop
endfacet
facet normal 0.0 -1.0 0.0
  outer loop
    vertex -30.0 15.24999999999999 -15.500000000000078
    vertex -38.5 15.24999999999999 -17.499999999999993
    vertex -30.0 15.24999999999999 -17.499999999999993
  endloop
endfacet
facet normal 0.0 -1.0 0.0
  outer loop
    vertex -38.5 15.24999999999999 -17.499999999999993
    vertex -30.0 15.24999999999999 -15.500000000000078
    vertex -36.5 15.24999999999999 -16.25000000000004
  endloop
endfacet
facet normal 0.0 -1.0 0.0
  outer loop
    vertex -36.5 15.24999999999999 -16.25000000000004
    vertex -30.0 15.24999999999999 -15.500000000000078
    vertex -36.5 15.24999999999999 -15.500000000000078
  endloop
endfacet
facet normal 0.0 -1.0 0.0
  outer loop
    vertex -38.5 15.24999999999999 -16.25000000000004
    vertex -38.5 15.24999999999999 -17.499999999999993
    vertex -36.5 15.24999999999999 -16.25000000000004
  endloop
endfacet
facet normal -0.0 -0.9945218953682733 -0.1045284632676534
  outer loop
    vertex -14.500000000000007 3.3798118040359206 1.1435142994975944
    vertex -16.000000000000004 3.4999999999999893 -8.177902799388902e-14
    vertex -14.500000000000007 3.4999999999999893 -8.177902799388902e-14
  endloop
endfacet
facet normal -0.0 -0.9945218953682733 -0.1045284632676534
  outer loop
    vertex -16.000000000000004 3.4999999999999893 -8.177902799388902e-14
    vertex -14.500000000000007 3.3798118040359206 1.1435142994975944
    vertex -16.000000000000004 3.3798118040359206 1.1435142994975944
  endloop
endfacet
facet normal -0.0 -0.9945218953682735 0.10452846326765282
  outer loop
    vertex -14.500000000000007 3.4999999999999893 -8.177902799388902e-14
    vertex -16.000000000000004 3.379811804035922 -1.1435142994977514
    vertex -14.500000000000007 3.379811804035922 -1.1435142994977514
  endloop
endfacet
facet normal -0.0 -0.9945218953682735 0.10452846326765282
  outer loop
    vertex -16.000000000000004 3.379811804035922 -1.1435142994977514
    vertex -14.500000000000007 3.4999999999999893 -8.177902799388902e-14
    vertex -16.000000000000004 3.4999999999999893 -8.177902799388902e-14
  endloop
endfacet
facet normal -0.0 -0.951056516295154 0.3090169943749463
  outer loop
    vertex -14.500000000000007 3.379811804035922 -1.1435142994977514
    vertex -16.000000000000004 3.0245000170342964 -2.237051536916978
    vertex -14.500000000000007 3.0245000170342964 -2.237051536916978
  endloop
endfacet
facet normal -0.0 -0.951056516295154 0.3090169943749463
  outer loop
    vertex -16.000000000000004 3.0245000170342964 -2.237051536916978
    vertex -14.500000000000007 3.379811804035922 -1.1435142994977514
    vertex -16.000000000000004 3.379811804035922 -1.1435142994977514
  endloop
endfacet
facet normal -0.0 -0.8660254037844389 0.4999999999999995
  outer loop
    vertex -14.500000000000007 3.0245000170342964 -2.237051536916978
    vertex -16.000000000000004 2.4495934690622025 -3.2328188876086807
    vertex -14.500000000000007 2.4495934690622025 -3.2328188876086807
  endloop
endfacet
facet normal -0.0 -0.8660254037844389 0.4999999999999995
  outer loop
    vertex -16.000000000000004 2.4495934690622025 -3.2328188876086807
    vertex -14.500000000000007 3.0245000170342964 -2.237051536916978
    vertex -16.000000000000004 3.0245000170342964 -2.237051536916978
  endloop
endfacet
facet normal -0.0 -0.7431448254773947 0.6691306063588579
  outer loop
    vertex -14.500000000000007 2.4495934690622025 -3.2328188876086807
    vertex -16.000000000000004 1.680218334973711 -4.087296540125749
    vertex -14.500000000000007 1.680218334973711 -4.087296540125749
  endloop
endfacet
facet normal -0.0 -0.7431448254773947 0.6691306063588579
  outer loop
    vertex -16.000000000000004 1.680218334973711 -4.087296540125749
    vertex -14.500000000000007 2.4495934690622025 -3.2328188876086807
    vertex -16.000000000000004 2.4495934690622025 -3.2328188876086807
  endloop
endfacet
facet normal -0.0 -0.5877852522924735 0.8090169943749473
  outer loop
    vertex -14.500000000000007 0.7499999999999901 -4.763139720814494
    vertex -16.000000000000004 1.680218334973711 -4.087296540125749
    vertex -16.000000000000004 0.7499999999999901 -4.763139720814494
  endloop
endfacet
facet normal -0.0 -0.5877852522924735 0.8090169943749473
  outer loop
    vertex -16.000000000000004 1.680218334973711 -4.087296540125749
    vertex -14.500000000000007 0.7499999999999901 -4.763139720814494
    vertex -14.500000000000007 1.680218334973711 -4.087296540125749
  endloop
endfacet
facet normal -0.0 -0.4067366430758002 0.913545457642601
  outer loop
    vertex -14.500000000000007 -0.3004065309378006 -5.230810839623427
    vertex -16.000000000000004 0.7499999999999901 -4.763139720814494
    vertex -16.000000000000004 -0.3004065309378006 -5.230810839623427
  endloop
endfacet
facet normal -0.0 -0.4067366430758002 0.913545457642601
  outer loop
    vertex -16.000000000000004 0.7499999999999901 -4.763139720814494
    vertex -14.500000000000007 -0.3004065309378006 -5.230810839623427
    vertex -14.500000000000007 0.7499999999999901 -4.763139720814494
  endloop
endfacet
facet normal -0.0 -0.20791169081775918 0.9781476007338057
  outer loop
    vertex -14.500000000000007 -1.425093452027919 -5.469870424525586
    vertex -16.000000000000004 -0.3004065309378006 -5.230810839623427
    vertex -16.000000000000004 -1.425093452027919 -5.469870424525586
  endloop
endfacet
facet normal -0.0 -0.20791169081775918 0.9781476007338057
  outer loop
    vertex -16.000000000000004 -0.3004065309378006 -5.230810839623427
    vertex -14.500000000000007 -1.425093452027919 -5.469870424525586
    vertex -14.500000000000007 -0.3004065309378006 -5.230810839623427
  endloop
endfacet
facet normal 0.0 0.0 1.0
  outer loop
    vertex -14.500000000000007 -2.00000000000001 -5.469870424525586
    vertex -16.000000000000004 -1.425093452027919 -5.469870424525586
    vertex -16.000000000000004 -2.00000000000001 -5.469870424525586
  endloop
endfacet
facet normal 0.0 0.0 1.0
  outer loop
    vertex -16.000000000000004 -1.425093452027919 -5.469870424525586
    vertex -14.500000000000007 -2.00000000000001 -5.469870424525586
    vertex -14.500000000000007 -1.425093452027919 -5.469870424525586
  endloop
endfacet
facet normal 0.0 1.2262716838479797e-15 1.0
  outer loop
    vertex -14.500000000000007 -2.574906547972109 -5.469870424525585
    vertex -16.000000000000004 -2.00000000000001 -5.469870424525586
    vertex -16.000000000000004 -2.574906547972109 -5.469870424525585
  endloop
endfacet
facet normal 0.0 1.2262716838479797e-15 1.0
  outer loop
    vertex -16.000000000000004 -2.00000000000001 -5.469870424525586
    vertex -14.500000000000007 -2.574906547972109 -5.469870424525585
    vertex -14.500000000000007 -2.00000000000001 -5.469870424525586
  endloop
endfacet
facet normal 0.0 0.2079116908177604 0.9781476007338054
  outer loop
    vertex -14.500000000000007 -3.699593469062227 -5.230810839623424
    vertex -16.000000000000004 -2.574906547972109 -5.469870424525585
    vertex -16.000000000000004 -3.699593469062227 -5.230810839623424
  endloop
endfacet
facet normal 0.0 0.2079116908177604 0.9781476007338054
  outer loop
    vertex -16.000000000000004 -2.574906547972109 -5.469870424525585
    vertex -14.500000000000007 -3.699593469062227 -5.230810839623424
    vertex -14.500000000000007 -2.574906547972109 -5.469870424525585
  endloop
endfacet
facet normal 0.0 0.4067366430758016 0.9135454576426003
  outer loop
    vertex -14.500000000000007 -4.750000000000017 -4.7631397208144906
    vertex -16.000000000000004 -3.699593469062227 -5.230810839623424
    vertex -16.000000000000004 -4.750000000000017 -4.7631397208144906
  endloop
endfacet
facet normal 0.0 0.4067366430758016 0.9135454576426003
  outer loop
    vertex -16.000000000000004 -3.699593469062227 -5.230810839623424
    vertex -14.500000000000007 -4.750000000000017 -4.7631397208144906
    vertex -14.500000000000007 -3.699593469062227 -5.230810839623424
  endloop
endfacet
facet normal 0.0 0.5877852522924739 0.8090169943749469
  outer loop
    vertex -14.500000000000007 -5.680218334973735 -4.087296540125745
    vertex -16.000000000000004 -4.750000000000017 -4.7631397208144906
    vertex -16.000000000000004 -5.680218334973735 -4.087296540125745
  endloop
endfacet
facet normal 0.0 0.5877852522924739 0.8090169943749469
  outer loop
    vertex -16.000000000000004 -4.750000000000017 -4.7631397208144906
    vertex -14.500000000000007 -5.680218334973735 -4.087296540125745
    vertex -14.500000000000007 -4.750000000000017 -4.7631397208144906
  endloop
endfacet
facet normal 0.0 0.7431448254773952 0.6691306063588571
  outer loop
    vertex -16.000000000000004 -6.449593469062224 -3.2328188876086794
    vertex -14.500000000000007 -5.680218334973735 -4.087296540125745
    vertex -16.000000000000004 -5.680218334973735 -4.087296540125745
  endloop
endfacet
facet normal 0.0 0.7431448254773952 0.6691306063588571
  outer loop
    vertex -14.500000000000007 -5.680218334973735 -4.087296540125745
    vertex -16.000000000000004 -6.449593469062224 -3.2328188876086794
    vertex -14.500000000000007 -6.449593469062224 -3.2328188876086794
  endloop
endfacet
facet normal 0.0 0.8660254037844392 0.4999999999999992
  outer loop
    vertex -16.000000000000004 -7.024500017034317 -2.2370515369169786
    vertex -14.500000000000007 -6.449593469062224 -3.2328188876086794
    vertex -16.000000000000004 -6.449593469062224 -3.2328188876086794
  endloop
endfacet
facet normal 0.0 0.8660254037844392 0.4999999999999992
  outer loop
    vertex -14.500000000000007 -6.449593469062224 -3.2328188876086794
    vertex -16.000000000000004 -7.024500017034317 -2.2370515369169786
    vertex -14.500000000000007 -7.024500017034317 -2.2370515369169786
  endloop
endfacet
facet normal 0.0 0.9510565162951539 0.30901699437494695
  outer loop
    vertex -16.000000000000004 -7.379811804035942 -1.143514299497754
    vertex -14.500000000000007 -7.024500017034317 -2.2370515369169786
    vertex -16.000000000000004 -7.024500017034317 -2.2370515369169786
  endloop
endfacet
facet normal 0.0 0.9510565162951539 0.30901699437494695
  outer loop
    vertex -14.500000000000007 -7.024500017034317 -2.2370515369169786
    vertex -16.000000000000004 -7.379811804035942 -1.143514299497754
    vertex -14.500000000000007 -7.379811804035942 -1.143514299497754
  endloop
endfacet
facet normal 0.0 0.9945218953682734 0.10452846326765287
  outer loop
    vertex -16.000000000000004 -7.500000000000011 -7.866298160018263e-14
    vertex -14.500000000000007 -7.379811804035942 -1.143514299497754
    vertex -16.000000000000004 -7.379811804035942 -1.143514299497754
  endloop
endfacet
facet normal 0.0 0.9945218953682734 0.10452846326765287
  outer loop
    vertex -14.500000000000007 -7.379811804035942 -1.143514299497754
    vertex -16.000000000000004 -7.500000000000011 -7.866298160018263e-14
    vertex -14.500000000000007 -7.500000000000011 -7.866298160018263e-14
  endloop
endfacet
facet normal -0.0 0.9945218953682733 -0.10452846326765411
  outer loop
    vertex -16.000000000000004 -7.37981180403594 1.1435142994975969
    vertex -14.500000000000007 -7.500000000000011 -7.866298160018263e-14
    vertex -16.000000000000004 -7.500000000000011 -7.866298160018263e-14
  endloop
endfacet
facet normal -0.0 0.9945218953682733 -0.10452846326765411
  outer loop
    vertex -14.500000000000007 -7.500000000000011 -7.866298160018263e-14
    vertex -16.000000000000004 -7.37981180403594 1.1435142994975969
    vertex -14.500000000000007 -7.37981180403594 1.1435142994975969
  endloop
endfacet
facet normal -0.0 0.9510565162951536 -0.30901699437494706
  outer loop
    vertex -16.000000000000004 -7.024500017034315 2.2370515369168205
    vertex -14.500000000000007 -7.37981180403594 1.1435142994975969
    vertex -16.000000000000004 -7.37981180403594 1.1435142994975969
  endloop
endfacet
facet normal -0.0 0.9510565162951536 -0.30901699437494706
  outer loop
    vertex -14.500000000000007 -7.37981180403594 1.1435142994975969
    vertex -16.000000000000004 -7.024500017034315 2.2370515369168205
    vertex -14.500000000000007 -7.024500017034315 2.2370515369168205
  endloop
endfacet
facet normal -0.0 0.8660254037844386 -0.5000000000000001
  outer loop
    vertex -16.000000000000004 -6.449593469062221 3.2328188876085213
    vertex -14.500000000000007 -7.024500017034315 2.2370515369168205
    vertex -16.000000000000004 -7.024500017034315 2.2370515369168205
  endloop
endfacet
facet normal -0.0 0.8660254037844386 -0.5000000000000001
  outer loop
    vertex -14.500000000000007 -7.024500017034315 2.2370515369168205
    vertex -16.000000000000004 -6.449593469062221 3.2328188876085213
    vertex -14.500000000000007 -6.449593469062221 3.2328188876085213
  endloop
endfacet
facet normal -0.0 0.7431448254773938 -0.6691306063588587
  outer loop
    vertex -16.000000000000004 -5.6802183349737305 4.087296540125586
    vertex -14.500000000000007 -6.449593469062221 3.2328188876085213
    vertex -16.000000000000004 -6.449593469062221 3.2328188876085213
  endloop
endfacet
facet normal -0.0 0.7431448254773938 -0.6691306063588587
  outer loop
    vertex -14.500000000000007 -6.449593469062221 3.2328188876085213
    vertex -16.000000000000004 -5.6802183349737305 4.087296540125586
    vertex -14.500000000000007 -5.6802183349737305 4.087296540125586
  endloop
endfacet
facet normal -0.0 0.5877852522924732 -0.8090169943749473
  outer loop
    vertex -14.500000000000007 -4.750000000000011 4.76313972081433
    vertex -16.000000000000004 -5.6802183349737305 4.087296540125586
    vertex -16.000000000000004 -4.750000000000011 4.76313972081433
  endloop
endfacet
facet normal -0.0 0.5877852522924732 -0.8090169943749473
  outer loop
    vertex -16.000000000000004 -5.6802183349737305 4.087296540125586
    vertex -14.500000000000007 -4.750000000000011 4.76313972081433
    vertex -14.500000000000007 -5.6802183349737305 4.087296540125586
  endloop
endfacet
facet normal -0.0 0.40673664307580026 -0.9135454576426009
  outer loop
    vertex -14.500000000000007 -3.699593469062222 5.230810839623262
    vertex -16.000000000000004 -4.750000000000011 4.76313972081433
    vertex -16.000000000000004 -3.699593469062222 5.230810839623262
  endloop
endfacet
facet normal -0.0 0.40673664307580026 -0.9135454576426009
  outer loop
    vertex -16.000000000000004 -4.750000000000011 4.76313972081433
    vertex -14.500000000000007 -3.699593469062222 5.230810839623262
    vertex -14.500000000000007 -4.750000000000011 4.76313972081433
  endloop
endfacet
facet normal -0.0 0.2079116908177594 -0.9781476007338056
  outer loop
    vertex -14.500000000000007 -2.574906547972105 5.469870424525421
    vertex -16.000000000000004 -3.699593469062222 5.230810839623262
    vertex -16.000000000000004 -2.574906547972105 5.469870424525421
  endloop
endfacet
facet normal -0.0 0.2079116908177594 -0.9781476007338056
  outer loop
    vertex -16.000000000000004 -3.699593469062222 5.230810839623262
    vertex -14.500000000000007 -2.574906547972105 5.469870424525421
    vertex -14.500000000000007 -3.699593469062222 5.230810839623262
  endloop
endfacet
facet normal -0.0 0.0 -1.0
  outer loop
    vertex -14.500000000000007 -1.4250934520279164 5.469870424525421
    vertex -16.000000000000004 -2.574906547972105 5.469870424525421
    vertex -16.000000000000004 -1.4250934520279164 5.469870424525421
  endloop
endfacet
facet normal -0.0 0.0 -1.0
  outer loop
    vertex -16.000000000000004 -2.574906547972105 5.469870424525421
    vertex -14.500000000000007 -1.4250934520279164 5.469870424525421
    vertex -14.500000000000007 -2.574906547972105 5.469870424525421
  endloop
endfacet
facet normal -0.0 -0.20791169081775945 -0.9781476007338056
  outer loop
    vertex -14.500000000000007 -0.30040653093779957 5.230810839623262
    vertex -16.000000000000004 -1.4250934520279164 5.469870424525421
    vertex -16.000000000000004 -0.30040653093779957 5.230810839623262
  endloop
endfacet
facet normal -0.0 -0.20791169081775945 -0.9781476007338056
  outer loop
    vertex -16.000000000000004 -1.4250934520279164 5.469870424525421
    vertex -14.500000000000007 -0.30040653093779957 5.230810839623262
    vertex -14.500000000000007 -1.4250934520279164 5.469870424525421
  endloop
endfacet
facet normal -0.0 -0.4067366430758 -0.913545457642601
  outer loop
    vertex -14.500000000000007 0.7499999999999901 4.76313972081433
    vertex -16.000000000000004 -0.30040653093779957 5.230810839623262
    vertex -16.000000000000004 0.7499999999999901 4.76313972081433
  endloop
endfacet
facet normal -0.0 -0.4067366430758 -0.913545457642601
  outer loop
    vertex -16.000000000000004 -0.30040653093779957 5.230810839623262
    vertex -14.500000000000007 0.7499999999999901 4.76313972081433
    vertex -14.500000000000007 -0.30040653093779957 5.230810839623262
  endloop
endfacet
facet normal -0.0 -0.5877852522924736 -0.8090169943749471
  outer loop
    vertex -14.500000000000007 1.6802183349737096 4.087296540125585
    vertex -16.000000000000004 0.7499999999999901 4.76313972081433
    vertex -16.000000000000004 1.6802183349737096 4.087296540125585
  endloop
endfacet
facet normal -0.0 -0.5877852522924736 -0.8090169943749471
  outer loop
    vertex -16.000000000000004 0.7499999999999901 4.76313972081433
    vertex -14.500000000000007 1.6802183349737096 4.087296540125585
    vertex -14.500000000000007 0.7499999999999901 4.76313972081433
  endloop
endfacet
facet normal -0.0 -0.7431448254773938 -0.6691306063588587
  outer loop
    vertex -14.500000000000007 1.6802183349737096 4.087296540125585
    vertex -16.000000000000004 2.4495934690622003 3.2328188876085204
    vertex -14.500000000000007 2.4495934690622003 3.2328188876085204
  endloop
endfacet
facet normal -0.0 -0.7431448254773938 -0.6691306063588587
  outer loop
    vertex -16.000000000000004 2.4495934690622003 3.2328188876085204
    vertex -14.500000000000007 1.6802183349737096 4.087296540125585
    vertex -16.000000000000004 1.6802183349737096 4.087296540125585
  endloop
endfacet
facet normal -0.0 -0.8660254037844388 -0.49999999999999994
  outer loop
    vertex -14.500000000000007 2.4495934690622003 3.2328188876085204
    vertex -16.000000000000004 3.0245000170342946 2.237051536916819
    vertex -14.500000000000007 3.0245000170342946 2.237051536916819
  endloop
endfacet
facet normal -0.0 -0.8660254037844388 -0.49999999999999994
  outer loop
    vertex -16.000000000000004 3.0245000170342946 2.237051536916819
    vertex -14.500000000000007 2.4495934690622003 3.2328188876085204
    vertex -16.000000000000004 2.4495934690622003 3.2328188876085204
  endloop
endfacet
facet normal -0.0 -0.9510565162951535 -0.30901699437494734
  outer loop
    vertex -14.500000000000007 3.0245000170342946 2.237051536916819
    vertex -16.000000000000004 3.3798118040359206 1.1435142994975944
    vertex -14.500000000000007 3.3798118040359206 1.1435142994975944
  endloop
endfacet
facet normal -0.0 -0.9510565162951535 -0.30901699437494734
  outer loop
    vertex -16.000000000000004 3.3798118040359206 1.1435142994975944
    vertex -14.500000000000007 3.0245000170342946 2.237051536916819
    vertex -16.000000000000004 3.0245000170342946 2.237051536916819
  endloop
endfacet
facet normal -1.47990830097951e-16 -1.3710414834361882e-15 1.0
  outer loop
    vertex -36.5 -18.25 -16.250000000000078
    vertex -38.5 10.749999999999991 -16.25000000000004
    vertex -38.5 -18.25 -16.250000000000078
  endloop
endfacet
facet normal -1.47990830097951e-16 -1.3710414834361882e-15 1.0
  outer loop
    vertex -38.5 10.749999999999991 -16.25000000000004
    vertex -36.5 -18.25 -16.250000000000078
    vertex -36.5 10.749999999999991 -16.25000000000004
  endloop
endfacet
facet normal 0.0 -1.0 0.0
  outer loop
    vertex -36.49999999999999 18.24999999999999 16.249999999999993
    vertex -38.5 18.24999999999999 -16.25000000000004
    vertex -36.5 18.24999999999999 -16.25000000000004
  endloop
endfacet
facet normal 0.0 -1.0 0.0
  outer loop
    vertex -38.5 18.24999999999999 -16.25000000000004
    vertex -36.49999999999999 18.24999999999999 16.249999999999993
    vertex -38.5 18.24999999999999 16.249999999999993
  endloop
endfacet
facet normal -0.0 -0.0 1.0
  outer loop
    vertex -36.5 15.24999999999999 -16.25000000000004
    vertex -38.5 18.24999999999999 -16.25000000000004
    vertex -38.5 15.24999999999999 -16.25000000000004
  endloop
endfacet
facet normal -0.0 -0.0 1.0
  outer loop
    vertex -38.5 18.24999999999999 -16.25000000000004
    vertex -36.5 15.24999999999999 -16.25000000000004
    vertex -36.5 18.24999999999999 -16.25000000000004
  endloop
endfacet
facet normal 3.491562161039322e-32 1.0 3.6386664290940535e-16
  outer loop
    vertex -38.50000000000001 19.50000000000001 -15.500000000000078
    vertex -14.499999999999998 19.499999999999996 15.499999999999991
    vertex -14.500000000000007 19.50000000000001 -15.500000000000082
  endloop
endfacet
facet normal 3.491562161039322e-32 1.0 3.6386664290940535e-16
  outer loop
    vertex -14.499999999999998 19.499999999999996 15.499999999999991
    vertex -38.50000000000001 19.50000000000001 -15.500000000000078
    vertex -38.5 19.499999999999996 15.499999999999995
  endloop
endfacet
facet normal 0.0 -1.0 0.0
  outer loop
    vertex -14.499999999999998 -19.499999999999996 15.499999999999991
    vertex -38.50000000000001 -19.499999999999996 -15.500000000000078
    vertex -14.500000000000007 -19.499999999999996 -15.500000000000082
  endloop
endfacet
facet normal 0.0 -1.0 0.0
  outer loop
    vertex -38.50000000000001 -19.499999999999996 -15.500000000000078
    vertex -14.499999999999998 -19.499999999999996 15.499999999999991
    vertex -38.5 -19.499999999999996 15.499999999999995
  endloop
endfacet
facet normal -1.3133068155965752e-16 8.348221854100597e-17 -1.0
  outer loop
    vertex -14.500000000000007 17.49999999999999 -17.5
    vertex -38.5 15.24999999999999 -17.499999999999993
    vertex -38.50000000000001 17.49999999999999 -17.499999999999996
  endloop
endfacet
facet normal -1.3133068155965752e-16 8.348221854100597e-17 -1.0
  outer loop
    vertex -38.5 15.24999999999999 -17.499999999999993
    vertex -14.500000000000007 17.49999999999999 -17.5
    vertex -30.0 15.24999999999999 -17.499999999999993
  endloop
endfacet
facet normal -1.3133068155965752e-16 8.348221854100597e-17 -1.0
  outer loop
    vertex -30.0 15.24999999999999 -17.499999999999993
    vertex -14.500000000000007 17.49999999999999 -17.5
    vertex -29.304711762656368 15.139877161664083 -17.499999999999993
  endloop
endfacet
facet normal -1.3133068155965752e-16 8.348221854100597e-17 -1.0
  outer loop
    vertex -29.304711762656368 15.139877161664083 -17.499999999999993
    vertex -14.500000000000007 17.49999999999999 -17.5
    vertex -28.67748318234194 14.820288237343622 -17.499999999999993
  endloop
endfacet
facet normal -1.3133068155965752e-16 8.348221854100597e-17 -1.0
  outer loop
    vertex -28.67748318234194 14.820288237343622 -17.499999999999993
    vertex -14.500000000000007 17.49999999999999 -17.5
    vertex -28.17971176265637 14.322516817658055 -17.499999999999993
  endloop
endfacet
facet normal -1.3133068155965752e-16 8.348221854100597e-17 -1.0
  outer loop
    vertex -28.17971176265637 14.322516817658055 -17.499999999999993
    vertex -14.500000000000007 17.49999999999999 -17.5
    vertex -27.860122838335904 13.69528823734362 -17.499999999999993
  endloop
endfacet
facet normal -1.3133068155965752e-16 8.348221854100597e-17 -1.0
  outer loop
    vertex -27.860122838335904 13.69528823734362 -17.499999999999993
    vertex -14.500000000000007 17.49999999999999 -17.5
    vertex -27.750000000000007 12.999999999999991 -17.499999999999993
  endloop
endfacet
facet normal -1.3133068155965752e-16 8.348221854100597e-17 -1.0
  outer loop
    vertex -38.5 10.749999999999991 -17.499999999999993
    vertex -14.500000000000007 -17.499999999999996 -17.5
    vertex -38.50000000000001 -17.499999999999996 -17.499999999999996
  endloop
endfacet
facet normal -1.3133068155965752e-16 8.348221854100597e-17 -1.0
  outer loop
    vertex -14.500000000000007 -17.499999999999996 -17.5
    vertex -38.5 10.749999999999991 -17.499999999999993
    vertex -30.0 10.749999999999991 -17.499999999999993
  endloop
endfacet
facet normal -1.3133068155965752e-16 8.348221854100597e-17 -1.0
  outer loop
    vertex -14.500000000000007 -17.499999999999996 -17.5
    vertex -30.0 10.749999999999991 -17.499999999999993
    vertex -29.304711762656368 10.860122838335897 -17.499999999999993
  endloop
endfacet
facet normal -1.3133068155965752e-16 8.348221854100597e-17 -1.0
  outer loop
    vertex -14.500000000000007 -17.499999999999996 -17.5
    vertex -29.304711762656368 10.860122838335897 -17.499999999999993
    vertex -28.67748318234194 11.179711762656359 -17.499999999999993
  endloop
endfacet
facet normal -1.3133068155965752e-16 8.348221854100597e-17 -1.0
  outer loop
    vertex -14.500000000000007 -17.499999999999996 -17.5
    vertex -28.67748318234194 11.179711762656359 -17.499999999999993
    vertex -28.17971176265637 11.677483182341927 -17.499999999999993
  endloop
endfacet
facet normal -1.3133068155965752e-16 8.348221854100597e-17 -1.0
  outer loop
    vertex -14.500000000000007 -17.499999999999996 -17.5
    vertex -28.17971176265637 11.677483182341927 -17.499999999999993
    vertex -27.860122838335904 12.304711762656359 -17.499999999999993
  endloop
endfacet
facet normal -1.3133068155965752e-16 8.348221854100597e-17 -1.0
  outer loop
    vertex -14.500000000000007 -17.499999999999996 -17.5
    vertex -27.860122838335904 12.304711762656359 -17.499999999999993
    vertex -27.750000000000007 12.999999999999991 -17.499999999999993
  endloop
endfacet
facet normal -1.3133068155965752e-16 8.348221854100597e-17 -1.0
  outer loop
    vertex -14.500000000000007 -17.499999999999996 -17.5
    vertex -27.750000000000007 12.999999999999991 -17.499999999999993
    vertex -14.500000000000007 17.49999999999999 -17.5
  endloop
endfacet
facet normal 0.0 0.0 -1.0
  outer loop
    vertex -36.49999999999999 18.24999999999999 16.249999999999993
    vertex -38.5 -18.25 16.249999999999993
    vertex -38.5 18.24999999999999 16.249999999999993
  endloop
endfacet
facet normal 0.0 0.0 -1.0
  outer loop
    vertex -38.5 -18.25 16.249999999999993
    vertex -36.49999999999999 18.24999999999999 16.249999999999993
    vertex -36.49999999999999 -18.25 16.249999999999993
  endloop
endfacet
facet normal 1.0 -2.1092322685897793e-32 -2.5242305262795645e-16
  outer loop
    vertex -14.500000000000007 -17.499999999999996 -17.5
    vertex -14.500000000000007 -7.379811804035942 -1.143514299497754
    vertex -14.500000000000007 -7.500000000000011 -7.866298160018263e-14
  endloop
endfacet
facet normal 1.0 -2.1092322685897793e-32 -2.5242305262795645e-16
  outer loop
    vertex -14.500000000000007 -7.379811804035942 -1.143514299497754
    vertex -14.500000000000007 -17.499999999999996 -17.5
    vertex -14.500000000000007 -7.024500017034317 -2.2370515369169786
  endloop
endfacet
facet normal 1.0 -2.1092322685897793e-32 -2.5242305262795645e-16
  outer loop
    vertex -14.500000000000007 -7.024500017034317 -2.2370515369169786
    vertex -14.500000000000007 -17.499999999999996 -17.5
    vertex -14.500000000000007 -6.449593469062224 -3.2328188876086794
  endloop
endfacet
facet normal 1.0 -2.1092322685897793e-32 -2.5242305262795645e-16
  outer loop
    vertex -14.500000000000007 -6.449593469062224 -3.2328188876086794
    vertex -14.500000000000007 -17.499999999999996 -17.5
    vertex -14.500000000000007 -5.680218334973735 -4.087296540125745
  endloop
endfacet
facet normal 1.0 -2.1092322685897793e-32 -2.5242305262795645e-16
  outer loop
    vertex -14.500000000000007 -5.680218334973735 -4.087296540125745
    vertex -14.500000000000007 -17.499999999999996 -17.5
    vertex -14.500000000000007 -4.750000000000017 -4.7631397208144906
  endloop
endfacet
facet normal 1.0 -2.1092322685897793e-32 -2.5242305262795645e-16
  outer loop
    vertex -14.500000000000007 -4.750000000000017 -4.7631397208144906
    vertex -14.500000000000007 -17.499999999999996 -17.5
    vertex -14.500000000000007 17.49999999999999 -17.5
  endloop
endfacet
facet normal 1.0 -2.1092322685897793e-32 -2.5242305262795645e-16
  outer loop
    vertex -14.500000000000007 -4.750000000000017 -4.7631397208144906
    vertex -14.500000000000007 17.49999999999999 -17.5
    vertex -14.500000000000007 -3.699593469062227 -5.230810839623424
  endloop
endfacet
facet normal 1.0 -2.1092322685897793e-32 -2.5242305262795645e-16
  outer loop
    vertex -14.500000000000007 -3.699593469062227 -5.230810839623424
    vertex -14.500000000000007 17.49999999999999 -17.5
    vertex -14.500000000000007 -2.574906547972109 -5.469870424525585
  endloop
endfacet
facet normal 1.0 -2.1092322685897793e-32 -2.5242305262795645e-16
  outer loop
    vertex -14.500000000000007 -2.574906547972109 -5.469870424525585
    vertex -14.500000000000007 17.49999999999999 -17.5
    vertex -14.500000000000007 -2.00000000000001 -5.469870424525586
  endloop
endfacet
facet normal 1.0 -2.1092322685897793e-32 -2.5242305262795645e-16
  outer loop
    vertex -14.500000000000007 -2.00000000000001 -5.469870424525586
    vertex -14.500000000000007 17.49999999999999 -17.5
    vertex -14.500000000000007 -1.425093452027919 -5.469870424525586
  endloop
endfacet
facet normal 1.0 -2.1092322685897793e-32 -2.5242305262795645e-16
  outer loop
    vertex -14.500000000000007 -1.425093452027919 -5.469870424525586
    vertex -14.500000000000007 17.49999999999999 -17.5
    vertex -14.500000000000007 -0.3004065309378006 -5.230810839623427
  endloop
endfacet
facet normal 1.0 -2.1092322685897793e-32 -2.5242305262795645e-16
  outer loop
    vertex -14.500000000000007 -0.3004065309378006 -5.230810839623427
    vertex -14.500000000000007 17.49999999999999 -17.5
    vertex -14.500000000000007 0.7499999999999901 -4.763139720814494
  endloop
endfacet
facet normal 1.0 -2.1092322685897793e-32 -2.5242305262795645e-16
  outer loop
    vertex -14.500000000000007 0.7499999999999901 -4.763139720814494
    vertex -14.500000000000007 17.49999999999999 -17.5
    vertex -14.500000000000007 1.680218334973711 -4.087296540125749
  endloop
endfacet
facet normal 1.0 -2.1092322685897793e-32 -2.5242305262795645e-16
  outer loop
    vertex -14.500000000000007 1.680218334973711 -4.087296540125749
    vertex -14.500000000000007 17.49999999999999 -17.5
    vertex -14.500000000000007 2.4495934690622025 -3.2328188876086807
  endloop
endfacet
facet normal 1.0 -2.1092322685897793e-32 -2.5242305262795645e-16
  outer loop
    vertex -14.500000000000007 2.4495934690622025 -3.2328188876086807
    vertex -14.500000000000007 17.49999999999999 -17.5
    vertex -14.500000000000007 3.0245000170342964 -2.237051536916978
  endloop
endfacet
facet normal 1.0 -2.1092322685897793e-32 -2.5242305262795645e-16
  outer loop
    vertex -14.500000000000007 3.0245000170342964 -2.237051536916978
    vertex -14.500000000000007 17.49999999999999 -17.5
    vertex -14.500000000000007 3.379811804035922 -1.1435142994977514
  endloop
endfacet
facet normal 1.0 -2.1092322685897793e-32 -2.5242305262795645e-16
  outer loop
    vertex -14.500000000000007 3.379811804035922 -1.1435142994977514
    vertex -14.500000000000007 17.49999999999999 -17.5
    vertex -14.500000000000007 3.4999999999999893 -8.177902799388902e-14
  endloop
endfacet
facet normal 1.0 -2.1092322685897793e-32 -2.5242305262795645e-16
  outer loop
    vertex -14.500000000000007 -19.431851652578054 -16.0176380902051
    vertex -14.499999999999998 -19.499999999999996 15.499999999999991
    vertex -14.500000000000007 -19.499999999999996 -15.500000000000082
  endloop
endfacet
facet normal 1.0 -2.1092322685897793e-32 -2.5242305262795645e-16
  outer loop
    vertex -14.499999999999998 -19.499999999999996 15.499999999999991
    vertex -14.500000000000007 -19.431851652578054 -16.0176380902051
    vertex -14.499999999999998 -19.431851652578136 16.017638090205033
  endloop
endfacet
facet normal 1.0 -2.1092322685897793e-32 -2.5242305262795645e-16
  outer loop
    vertex -14.499999999999998 -19.431851652578136 16.017638090205033
    vertex -14.500000000000007 -19.431851652578054 -16.0176380902051
    vertex -14.499999999999998 -19.232050807568875 16.499999999999993
  endloop
endfacet
facet normal 1.0 -2.1092322685897793e-32 -2.5242305262795645e-16
  outer loop
    vertex -14.499999999999998 -19.232050807568875 16.499999999999993
    vertex -14.500000000000007 -19.431851652578054 -16.0176380902051
    vertex -14.500000000000007 -19.2320508075688 -16.50000000000004
  endloop
endfacet
facet normal 1.0 -2.1092322685897793e-32 -2.5242305262795645e-16
  outer loop
    vertex -14.499999999999998 -19.232050807568875 16.499999999999993
    vertex -14.500000000000007 -19.2320508075688 -16.50000000000004
    vertex -14.499999999999998 -18.914213562373096 16.91421356237309
  endloop
endfacet
facet normal 1.0 -2.1092322685897793e-32 -2.5242305262795645e-16
  outer loop
    vertex -14.499999999999998 -18.914213562373096 16.91421356237309
    vertex -14.500000000000007 -19.2320508075688 -16.50000000000004
    vertex -14.500000000000007 -18.914213562373032 -16.914213562373117
  endloop
endfacet
facet normal 1.0 -2.1092322685897793e-32 -2.5242305262795645e-16
  outer loop
    vertex -14.499999999999998 -18.914213562373096 16.91421356237309
    vertex -14.500000000000007 -18.914213562373032 -16.914213562373117
    vertex -14.499999999999998 -18.499999999999996 17.232050807568868
  endloop
endfacet
facet normal 1.0 -2.1092322685897793e-32 -2.5242305262795645e-16
  outer loop
    vertex -14.499999999999998 -18.499999999999996 17.232050807568868
    vertex -14.500000000000007 -18.914213562373032 -16.914213562373117
    vertex -14.500000000000007 -18.499999999999954 -17.232050807568886
  endloop
endfacet
facet normal 1.0 -2.1092322685897793e-32 -2.5242305262795645e-16
  outer loop
    vertex -14.499999999999998 -18.499999999999996 17.232050807568868
    vertex -14.500000000000007 -18.499999999999954 -17.232050807568886
    vertex -14.499999999999998 -18.01763809020504 17.43185165257813
  endloop
endfacet
facet normal 1.0 -2.1092322685897793e-32 -2.5242305262795645e-16
  outer loop
    vertex -14.499999999999998 -18.01763809020504 17.43185165257813
    vertex -14.500000000000007 -18.499999999999954 -17.232050807568886
    vertex -14.500000000000007 -18.017638090205015 -17.43185165257814
  endloop
endfacet
facet normal 1.0 -2.1092322685897793e-32 -2.5242305262795645e-16
  outer loop
    vertex -14.499999999999998 -18.01763809020504 17.43185165257813
    vertex -14.500000000000007 -18.017638090205015 -17.43185165257814
    vertex -14.499999999999998 -17.5 17.49999999999999
  endloop
endfacet
facet normal 1.0 -2.1092322685897793e-32 -2.5242305262795645e-16
  outer loop
    vertex -14.499999999999998 -17.5 17.49999999999999
    vertex -14.500000000000007 -18.017638090205015 -17.43185165257814
    vertex -14.500000000000007 -17.499999999999996 -17.5
  endloop
endfacet
facet normal 1.0 -2.1092322685897793e-32 -2.5242305262795645e-16
  outer loop
    vertex -14.499999999999998 -17.5 17.49999999999999
    vertex -14.500000000000007 -17.499999999999996 -17.5
    vertex -14.500000000000007 -7.024500017034315 2.2370515369168205
  endloop
endfacet
facet normal 1.0 -2.1092322685897793e-32 -2.5242305262795645e-16
  outer loop
    vertex -14.499999999999998 -17.5 17.49999999999999
    vertex -14.500000000000007 -7.024500017034315 2.2370515369168205
    vertex -14.500000000000007 -6.449593469062221 3.2328188876085213
  endloop
endfacet
facet normal 1.0 -2.1092322685897793e-32 -2.5242305262795645e-16
  outer loop
    vertex -14.499999999999998 -17.5 17.49999999999999
    vertex -14.500000000000007 -6.449593469062221 3.2328188876085213
    vertex -14.500000000000007 -5.6802183349737305 4.087296540125586
  endloop
endfacet
facet normal 1.0 -2.1092322685897793e-32 -2.5242305262795645e-16
  outer loop
    vertex -14.499999999999998 -17.5 17.49999999999999
    vertex -14.500000000000007 -5.6802183349737305 4.087296540125586
    vertex -14.500000000000007 -4.750000000000011 4.76313972081433
  endloop
endfacet
facet normal 1.0 -2.1092322685897793e-32 -2.5242305262795645e-16
  outer loop
    vertex -14.499999999999998 -17.5 17.49999999999999
    vertex -14.500000000000007 -4.750000000000011 4.76313972081433
    vertex -14.499999999999998 17.499999999999996 17.49999999999999
  endloop
endfacet
facet normal 1.0 -2.1092322685897793e-32 -2.5242305262795645e-16
  outer loop
    vertex -14.500000000000007 -7.024500017034315 2.2370515369168205
    vertex -14.500000000000007 -17.499999999999996 -17.5
    vertex -14.500000000000007 -7.37981180403594 1.1435142994975969
  endloop
endfacet
facet normal 1.0 -2.1092322685897793e-32 -2.5242305262795645e-16
  outer loop
    vertex -14.500000000000007 -7.37981180403594 1.1435142994975969
    vertex -14.500000000000007 -17.499999999999996 -17.5
    vertex -14.500000000000007 -7.500000000000011 -7.866298160018263e-14
  endloop
endfacet
facet normal 1.0 -2.1092322685897793e-32 -2.5242305262795645e-16
  outer loop
    vertex -14.499999999999998 17.499999999999996 17.49999999999999
    vertex -14.500000000000007 -4.750000000000011 4.76313972081433
    vertex -14.500000000000007 -3.699593469062222 5.230810839623262
  endloop
endfacet
facet normal 1.0 -2.1092322685897793e-32 -2.5242305262795645e-16
  outer loop
    vertex -14.499999999999998 17.499999999999996 17.49999999999999
    vertex -14.500000000000007 -3.699593469062222 5.230810839623262
    vertex -14.500000000000007 -2.574906547972105 5.469870424525421
  endloop
endfacet
facet normal 1.0 -2.1092322685897793e-32 -2.5242305262795645e-16
  outer loop
    vertex -14.499999999999998 17.499999999999996 17.49999999999999
    vertex -14.500000000000007 -2.574906547972105 5.469870424525421
    vertex -14.500000000000007 -1.4250934520279164 5.469870424525421
  endloop
endfacet
facet normal 1.0 -2.1092322685897793e-32 -2.5242305262795645e-16
  outer loop
    vertex -14.499999999999998 17.499999999999996 17.49999999999999
    vertex -14.500000000000007 -1.4250934520279164 5.469870424525421
    vertex -14.500000000000007 -0.30040653093779957 5.230810839623262
  endloop
endfacet
facet normal 1.0 -2.1092322685897793e-32 -2.5242305262795645e-16
  outer loop
    vertex -14.499999999999998 17.499999999999996 17.49999999999999
    vertex -14.500000000000007 -0.30040653093779957 5.230810839623262
    vertex -14.500000000000007 0.7499999999999901 4.76313972081433
  endloop
endfacet
facet normal 1.0 -2.1092322685897793e-32 -2.5242305262795645e-16
  outer loop
    vertex -14.499999999999998 17.499999999999996 17.49999999999999
    vertex -14.500000000000007 0.7499999999999901 4.76313972081433
    vertex -14.500000000000007 1.6802183349737096 4.087296540125585
  endloop
endfacet
facet normal 1.0 -2.1092322685897793e-32 -2.5242305262795645e-16
  outer loop
    vertex -14.499999999999998 17.499999999999996 17.49999999999999
    vertex -14.500000000000007 1.6802183349737096 4.087296540125585
    vertex -14.500000000000007 2.4495934690622003 3.2328188876085204
  endloop
endfacet
facet normal 1.0 -2.1092322685897793e-32 -2.5242305262795645e-16
  outer loop
    vertex -14.499999999999998 17.499999999999996 17.49999999999999
    vertex -14.500000000000007 2.4495934690622003 3.2328188876085204
    vertex -14.500000000000007 3.0245000170342946 2.237051536916819
  endloop
endfacet
facet normal 1.0 -2.1092322685897793e-32 -2.5242305262795645e-16
  outer loop
    vertex -14.499999999999998 17.499999999999996 17.49999999999999
    vertex -14.500000000000007 3.0245000170342946 2.237051536916819
    vertex -14.500000000000007 3.3798118040359206 1.1435142994975944
  endloop
endfacet
facet normal 1.0 -2.1092322685897793e-32 -2.5242305262795645e-16
  outer loop
    vertex -14.499999999999998 17.499999999999996 17.49999999999999
    vertex -14.500000000000007 3.3798118040359206 1.1435142994975944
    vertex -14.500000000000007 3.4999999999999893 -8.177902799388902e-14
  endloop
endfacet
facet normal 1.0 -2.1092322685897793e-32 -2.5242305262795645e-16
  outer loop
    vertex -14.499999999999998 17.499999999999996 17.49999999999999
    vertex -14.500000000000007 3.4999999999999893 -8.177902799388902e-14
    vertex -14.500000000000007 17.49999999999999 -17.5
  endloop
endfacet
facet normal 1.0 -2.1092322685897793e-32 -2.5242305262795645e-16
  outer loop
    vertex -14.499999999999998 17.499999999999996 17.49999999999999
    vertex -14.500000000000007 17.49999999999999 -17.5
    vertex -14.500000000000007 18.01763809020501 -17.43185165257814
  endloop
endfacet
facet normal 1.0 -2.1092322685897793e-32 -2.5242305262795645e-16
  outer loop
    vertex -14.499999999999998 17.499999999999996 17.49999999999999
    vertex -14.500000000000007 18.01763809020501 -17.43185165257814
    vertex -14.499999999999998 18.01763809020504 17.43185165257813
  endloop
endfacet
facet normal 1.0 -2.1092322685897793e-32 -2.5242305262795645e-16
  outer loop
    vertex -14.499999999999998 18.01763809020504 17.43185165257813
    vertex -14.500000000000007 18.01763809020501 -17.43185165257814
    vertex -14.500000000000007 18.49999999999995 -17.232050807568886
  endloop
endfacet
facet normal 1.0 -2.1092322685897793e-32 -2.5242305262795645e-16
  outer loop
    vertex -14.499999999999998 18.01763809020504 17.43185165257813
    vertex -14.500000000000007 18.49999999999995 -17.232050807568886
    vertex -14.499999999999998 18.499999999999996 17.23205080756887
  endloop
endfacet
facet normal 1.0 -2.1092322685897793e-32 -2.5242305262795645e-16
  outer loop
    vertex -14.499999999999998 18.499999999999996 17.23205080756887
    vertex -14.500000000000007 18.49999999999995 -17.232050807568886
    vertex -14.500000000000007 18.91421356237303 -16.914213562373117
  endloop
endfacet
facet normal 1.0 -2.1092322685897793e-32 -2.5242305262795645e-16
  outer loop
    vertex -14.499999999999998 18.499999999999996 17.23205080756887
    vertex -14.500000000000007 18.91421356237303 -16.914213562373117
    vertex -14.499999999999998 18.914213562373092 16.91421356237309
  endloop
endfacet
facet normal 1.0 -2.1092322685897793e-32 -2.5242305262795645e-16
  outer loop
    vertex -14.499999999999998 18.914213562373092 16.91421356237309
    vertex -14.500000000000007 18.91421356237303 -16.914213562373117
    vertex -14.500000000000007 19.232050807568797 -16.50000000000004
  endloop
endfacet
facet normal 1.0 -2.1092322685897793e-32 -2.5242305262795645e-16
  outer loop
    vertex -14.499999999999998 18.914213562373092 16.91421356237309
    vertex -14.500000000000007 19.232050807568797 -16.50000000000004
    vertex -14.499999999999998 19.232050807568875 16.499999999999993
  endloop
endfacet
facet normal 1.0 -2.1092322685897793e-32 -2.5242305262795645e-16
  outer loop
    vertex -14.499999999999998 19.232050807568875 16.499999999999993
    vertex -14.500000000000007 19.232050807568797 -16.50000000000004
    vertex -14.500000000000007 19.431851652578047 -16.0176380902051
  endloop
endfacet
facet normal 1.0 -2.1092322685897793e-32 -2.5242305262795645e-16
  outer loop
    vertex -14.499999999999998 19.232050807568875 16.499999999999993
    vertex -14.500000000000007 19.431851652578047 -16.0176380902051
    vertex -14.499999999999998 19.431851652578136 16.017638090205033
  endloop
endfacet
facet normal 1.0 -2.1092322685897793e-32 -2.5242305262795645e-16
  outer loop
    vertex -14.499999999999998 19.431851652578136 16.017638090205033
    vertex -14.500000000000007 19.431851652578047 -16.0176380902051
    vertex -14.500000000000007 19.50000000000001 -15.500000000000082
  endloop
endfacet
facet normal 1.0 -2.1092322685897793e-32 -2.5242305262795645e-16
  outer loop
    vertex -14.499999999999998 19.431851652578136 16.017638090205033
    vertex -14.500000000000007 19.50000000000001 -15.500000000000082
    vertex -14.499999999999998 19.499999999999996 15.499999999999991
  endloop
endfacet
facet normal 7.571314022618261e-18 0.9914448613738105 0.13052619222005182
  outer loop
    vertex -38.5 19.499999999999996 15.499999999999995
    vertex -14.499999999999998 19.431851652578136 16.017638090205033
    vertex -14.499999999999998 19.499999999999996 15.499999999999991
  endloop
endfacet
facet normal 7.571314022618261e-18 0.9914448613738105 0.13052619222005182
  outer loop
    vertex -14.499999999999998 19.431851652578136 16.017638090205033
    vertex -38.5 19.499999999999996 15.499999999999995
    vertex -38.50000000000003 19.431851652578136 16.017638090205033
  endloop
endfacet
facet normal 0.0 0.9238795325112861 0.3826834323650913
  outer loop
    vertex -38.50000000000003 19.232050807568875 16.499999999999993
    vertex -14.499999999999998 19.431851652578136 16.017638090205033
    vertex -38.50000000000003 19.431851652578136 16.017638090205033
  endloop
endfacet
facet normal 0.0 0.9238795325112861 0.3826834323650913
  outer loop
    vertex -14.499999999999998 19.431851652578136 16.017638090205033
    vertex -38.50000000000003 19.232050807568875 16.499999999999993
    vertex -14.499999999999998 19.232050807568875 16.499999999999993
  endloop
endfacet
facet normal 0.0 0.7933533402912347 0.6087614290087213
  outer loop
    vertex -38.50000000000003 18.914213562373092 16.91421356237309
    vertex -14.499999999999998 19.232050807568875 16.499999999999993
    vertex -38.50000000000003 19.232050807568875 16.499999999999993
  endloop
endfacet
facet normal 0.0 0.7933533402912347 0.6087614290087213
  outer loop
    vertex -14.499999999999998 19.232050807568875 16.499999999999993
    vertex -38.50000000000003 18.914213562373092 16.91421356237309
    vertex -14.499999999999998 18.914213562373092 16.91421356237309
  endloop
endfacet
facet normal 0.0 0.6087614290087213 0.7933533402912347
  outer loop
    vertex -14.499999999999998 18.499999999999996 17.23205080756887
    vertex -38.50000000000003 18.914213562373092 16.91421356237309
    vertex -38.50000000000003 18.499999999999996 17.23205080756887
  endloop
endfacet
facet normal 0.0 0.6087614290087213 0.7933533402912347
  outer loop
    vertex -38.50000000000003 18.914213562373092 16.91421356237309
    vertex -14.499999999999998 18.499999999999996 17.23205080756887
    vertex -14.499999999999998 18.914213562373092 16.91421356237309
  endloop
endfacet
facet normal 0.0 0.3826834323650913 0.9238795325112861
  outer loop
    vertex -14.499999999999998 18.01763809020504 17.43185165257813
    vertex -38.50000000000003 18.499999999999996 17.23205080756887
    vertex -38.50000000000003 18.01763809020504 17.43185165257813
  endloop
endfacet
facet normal 0.0 0.3826834323650913 0.9238795325112861
  outer loop
    vertex -38.50000000000003 18.499999999999996 17.23205080756887
    vertex -14.499999999999998 18.01763809020504 17.43185165257813
    vertex -14.499999999999998 18.499999999999996 17.23205080756887
  endloop
endfacet
facet normal -5.821691522297163e-17 0.13052619222004905 -0.9914448613738107
  outer loop
    vertex -38.499999999999986 18.01763809020501 -17.43185165257814
    vertex -14.500000000000007 17.49999999999999 -17.5
    vertex -38.50000000000001 17.49999999999999 -17.499999999999996
  endloop
endfacet
facet normal -5.821691522297163e-17 0.13052619222004905 -0.9914448613738107
  outer loop
    vertex -14.500000000000007 17.49999999999999 -17.5
    vertex -38.499999999999986 18.01763809020501 -17.43185165257814
    vertex -14.500000000000007 18.01763809020501 -17.43185165257814
  endloop
endfacet
facet normal 0.0 0.38268343236509084 -0.9238795325112863
  outer loop
    vertex -14.500000000000007 18.49999999999995 -17.232050807568886
    vertex -38.499999999999986 18.01763809020501 -17.43185165257814
    vertex -38.499999999999986 18.49999999999995 -17.232050807568886
  endloop
endfacet
facet normal 0.0 0.38268343236509084 -0.9238795325112863
  outer loop
    vertex -38.499999999999986 18.01763809020501 -17.43185165257814
    vertex -14.500000000000007 18.49999999999995 -17.232050807568886
    vertex -14.500000000000007 18.01763809020501 -17.43185165257814
  endloop
endfacet
facet normal 0.0 0.60876142900872 -0.7933533402912356
  outer loop
    vertex -14.500000000000007 18.91421356237303 -16.914213562373117
    vertex -38.499999999999986 18.49999999999995 -17.232050807568886
    vertex -38.499999999999986 18.91421356237303 -16.914213562373117
  endloop
endfacet
facet normal 0.0 0.60876142900872 -0.7933533402912356
  outer loop
    vertex -38.499999999999986 18.49999999999995 -17.232050807568886
    vertex -14.500000000000007 18.91421356237303 -16.914213562373117
    vertex -14.500000000000007 18.49999999999995 -17.232050807568886
  endloop
endfacet
facet normal 0.0 0.7933533402912356 -0.60876142900872
  outer loop
    vertex -38.499999999999986 19.232050807568797 -16.50000000000004
    vertex -14.500000000000007 18.91421356237303 -16.914213562373117
    vertex -38.499999999999986 18.91421356237303 -16.914213562373117
  endloop
endfacet
facet normal 0.0 0.7933533402912356 -0.60876142900872
  outer loop
    vertex -14.500000000000007 18.91421356237303 -16.914213562373117
    vertex -38.499999999999986 19.232050807568797 -16.50000000000004
    vertex -14.500000000000007 19.232050807568797 -16.50000000000004
  endloop
endfacet
facet normal 0.0 0.9238795325112863 -0.38268343236509084
  outer loop
    vertex -38.499999999999986 19.431851652578047 -16.0176380902051
    vertex -14.500000000000007 19.232050807568797 -16.50000000000004
    vertex -38.499999999999986 19.232050807568797 -16.50000000000004
  endloop
endfacet
facet normal 0.0 0.9238795325112863 -0.38268343236509084
  outer loop
    vertex -14.500000000000007 19.232050807568797 -16.50000000000004
    vertex -38.499999999999986 19.431851652578047 -16.0176380902051
    vertex -14.500000000000007 19.431851652578047 -16.0176380902051
  endloop
endfacet
facet normal -7.678897982985447e-18 0.9914448613737854 -0.13052619222024253
  outer loop
    vertex -38.50000000000001 19.50000000000001 -15.500000000000078
    vertex -14.500000000000007 19.431851652578047 -16.0176380902051
    vertex -38.499999999999986 19.431851652578047 -16.0176380902051
  endloop
endfacet
facet normal -7.678897982985447e-18 0.9914448613737854 -0.13052619222024253
  outer loop
    vertex -14.500000000000007 19.431851652578047 -16.0176380902051
    vertex -38.50000000000001 19.50000000000001 -15.500000000000078
    vertex -14.500000000000007 19.50000000000001 -15.500000000000082
  endloop
endfacet
facet normal -7.520052855644749e-18 -0.9914448613737896 -0.13052619222021067
  outer loop
    vertex -14.500000000000007 -19.499999999999996 -15.500000000000082
    vertex -38.5 -19.431851652578054 -16.0176380902051
    vertex -14.500000000000007 -19.431851652578054 -16.0176380902051
  endloop
endfacet
facet normal -7.520052855644749e-18 -0.9914448613737896 -0.13052619222021067
  outer loop
    vertex -38.5 -19.431851652578054 -16.0176380902051
    vertex -14.500000000000007 -19.499999999999996 -15.500000000000082
    vertex -38.50000000000001 -19.499999999999996 -15.500000000000078
  endloop
endfacet
facet normal -0.0 -0.9238795325112863 -0.38268343236509084
  outer loop
    vertex -14.500000000000007 -19.431851652578054 -16.0176380902051
    vertex -38.5 -19.2320508075688 -16.50000000000004
    vertex -14.500000000000007 -19.2320508075688 -16.50000000000004
  endloop
endfacet
facet normal -0.0 -0.9238795325112863 -0.38268343236509084
  outer loop
    vertex -38.5 -19.2320508075688 -16.50000000000004
    vertex -14.500000000000007 -19.431851652578054 -16.0176380902051
    vertex -38.5 -19.431851652578054 -16.0176380902051
  endloop
endfacet
facet normal -0.0 -0.7933533402912356 -0.60876142900872
  outer loop
    vertex -14.500000000000007 -19.2320508075688 -16.50000000000004
    vertex -38.5 -18.914213562373032 -16.914213562373117
    vertex -14.500000000000007 -18.914213562373032 -16.914213562373117
  endloop
endfacet
facet normal -0.0 -0.7933533402912356 -0.60876142900872
  outer loop
    vertex -38.5 -18.914213562373032 -16.914213562373117
    vertex -14.500000000000007 -19.2320508075688 -16.50000000000004
    vertex -38.5 -19.2320508075688 -16.50000000000004
  endloop
endfacet
facet normal -0.0 -0.60876142900872 -0.7933533402912356
  outer loop
    vertex -14.500000000000007 -18.499999999999954 -17.232050807568886
    vertex -38.5 -18.914213562373032 -16.914213562373117
    vertex -38.5 -18.499999999999954 -17.232050807568886
  endloop
endfacet
facet normal -0.0 -0.60876142900872 -0.7933533402912356
  outer loop
    vertex -38.5 -18.914213562373032 -16.914213562373117
    vertex -14.500000000000007 -18.499999999999954 -17.232050807568886
    vertex -14.500000000000007 -18.914213562373032 -16.914213562373117
  endloop
endfacet
facet normal -0.0 -0.38268343236509084 -0.9238795325112863
  outer loop
    vertex -14.500000000000007 -18.017638090205015 -17.43185165257814
    vertex -38.5 -18.499999999999954 -17.232050807568886
    vertex -38.5 -18.017638090205015 -17.43185165257814
  endloop
endfacet
facet normal -0.0 -0.38268343236509084 -0.9238795325112863
  outer loop
    vertex -38.5 -18.499999999999954 -17.232050807568886
    vertex -14.500000000000007 -18.017638090205015 -17.43185165257814
    vertex -14.500000000000007 -18.499999999999954 -17.232050807568886
  endloop
endfacet
facet normal -5.818487699360693e-17 -0.13052619222004908 -0.9914448613738107
  outer loop
    vertex -14.500000000000007 -17.499999999999996 -17.5
    vertex -38.5 -18.017638090205015 -17.43185165257814
    vertex -38.50000000000001 -17.499999999999996 -17.499999999999996
  endloop
endfacet
facet normal -5.818487699360693e-17 -0.13052619222004908 -0.9914448613738107
  outer loop
    vertex -38.5 -18.017638090205015 -17.43185165257814
    vertex -14.500000000000007 -17.499999999999996 -17.5
    vertex -14.500000000000007 -18.017638090205015 -17.43185165257814
  endloop
endfacet
facet normal -1.0 -1.7151172843336924e-16 -2.2922609626542217e-16
  outer loop
    vertex -38.5 -18.499999999999954 -17.232050807568886
    vertex -38.5 -18.25 -16.250000000000078
    vertex -38.5 -18.017638090205015 -17.43185165257814
  endloop
endfacet
facet normal -1.0 -1.7151172843336924e-16 -2.2922609626542217e-16
  outer loop
    vertex -38.5 -18.25 -16.250000000000078
    vertex -38.5 -18.499999999999954 -17.232050807568886
    vertex -38.5 -18.25 16.249999999999993
  endloop
endfacet
facet normal -1.0 -1.7151172843336924e-16 -2.2922609626542217e-16
  outer loop
    vertex -38.5 -18.017638090205015 -17.43185165257814
    vertex -38.5 -18.25 -16.250000000000078
    vertex -38.5 10.749999999999991 -16.25000000000004
  endloop
endfacet
facet normal -1.0 -1.7151172843336924e-16 -2.2922609626542217e-16
  outer loop
    vertex -38.5 -18.017638090205015 -17.43185165257814
    vertex -38.5 10.749999999999991 -16.25000000000004
    vertex -38.50000000000001 -17.499999999999996 -17.499999999999996
  endloop
endfacet
facet normal -1.0 -1.7151172843336924e-16 -2.2922609626542217e-16
  outer loop
    vertex -38.50000000000001 -17.499999999999996 -17.499999999999996
    vertex -38.5 10.749999999999991 -16.25000000000004
    vertex -38.5 10.749999999999991 -17.499999999999993
  endloop
endfacet
facet normal -1.0 -1.7151172843336924e-16 -2.2922609626542217e-16
  outer loop
    vertex -38.5 -19.431851652578136 16.017638090205033
    vertex -38.50000000000001 -19.499999999999996 -15.500000000000078
    vertex -38.5 -19.499999999999996 15.499999999999995
  endloop
endfacet
facet normal -1.0 -1.7151172843336924e-16 -2.2922609626542217e-16
  outer loop
    vertex -38.50000000000001 -19.499999999999996 -15.500000000000078
    vertex -38.5 -19.431851652578136 16.017638090205033
    vertex -38.5 -19.431851652578054 -16.0176380902051
  endloop
endfacet
facet normal -1.0 -1.7151172843336924e-16 -2.2922609626542217e-16
  outer loop
    vertex -38.5 -19.431851652578054 -16.0176380902051
    vertex -38.5 -19.431851652578136 16.017638090205033
    vertex -38.5 -19.232050807568875 16.499999999999993
  endloop
endfacet
facet normal -1.0 -1.7151172843336924e-16 -2.2922609626542217e-16
  outer loop
    vertex -38.5 -19.431851652578054 -16.0176380902051
    vertex -38.5 -19.232050807568875 16.499999999999993
    vertex -38.5 -19.2320508075688 -16.50000000000004
  endloop
endfacet
facet normal -1.0 -1.7151172843336924e-16 -2.2922609626542217e-16
  outer loop
    vertex -38.5 -19.2320508075688 -16.50000000000004
    vertex -38.5 -19.232050807568875 16.499999999999993
    vertex -38.5 -18.914213562373096 16.91421356237309
  endloop
endfacet
facet normal -1.0 -1.7151172843336924e-16 -2.2922609626542217e-16
  outer loop
    vertex -38.5 -19.2320508075688 -16.50000000000004
    vertex -38.5 -18.914213562373096 16.91421356237309
    vertex -38.5 -18.914213562373032 -16.914213562373117
  endloop
endfacet
facet normal -1.0 -1.7151172843336924e-16 -2.2922609626542217e-16
  outer loop
    vertex -38.5 -18.914213562373032 -16.914213562373117
    vertex -38.5 -18.914213562373096 16.91421356237309
    vertex -38.5 -18.499999999999996 17.232050807568868
  endloop
endfacet
facet normal -1.0 -1.7151172843336924e-16 -2.2922609626542217e-16
  outer loop
    vertex -38.5 -18.914213562373032 -16.914213562373117
    vertex -38.5 -18.499999999999996 17.232050807568868
    vertex -38.5 -18.499999999999954 -17.232050807568886
  endloop
endfacet
facet normal -1.0 -1.7151172843336924e-16 -2.2922609626542217e-16
  outer loop
    vertex -38.5 -18.499999999999954 -17.232050807568886
    vertex -38.5 -18.499999999999996 17.232050807568868
    vertex -38.5 -18.25 16.249999999999993
  endloop
endfacet
facet normal -1.0 -1.7151172843336924e-16 -2.2922609626542217e-16
  outer loop
    vertex -38.5 -18.25 16.249999999999993
    vertex -38.5 -18.499999999999996 17.232050807568868
    vertex -38.5 -18.01763809020504 17.43185165257813
  endloop
endfacet
facet normal -1.0 -1.7151172843336924e-16 -2.2922609626542217e-16
  outer loop
    vertex -38.5 -18.25 16.249999999999993
    vertex -38.5 -18.01763809020504 17.43185165257813
    vertex -38.5 18.24999999999999 16.249999999999993
  endloop
endfacet
facet normal -1.0 -1.7151172843336924e-16 -2.2922609626542217e-16
  outer loop
    vertex -38.5 18.24999999999999 16.249999999999993
    vertex -38.5 -18.01763809020504 17.43185165257813
    vertex -38.5 -17.5 17.499999999999993
  endloop
endfacet
facet normal -1.0 -1.7151172843336924e-16 -2.2922609626542217e-16
  outer loop
    vertex -38.5 18.24999999999999 16.249999999999993
    vertex -38.5 -17.5 17.499999999999993
    vertex -38.5 17.499999999999996 17.499999999999993
  endloop
endfacet
facet normal -1.0 -1.7151172843336924e-16 -2.2922609626542217e-16
  outer loop
    vertex -38.5 18.24999999999999 16.249999999999993
    vertex -38.5 17.499999999999996 17.499999999999993
    vertex -38.50000000000003 18.01763809020504 17.43185165257813
  endloop
endfacet
facet normal -1.0 -1.7151172843336924e-16 -2.2922609626542217e-16
  outer loop
    vertex -38.5 18.24999999999999 16.249999999999993
    vertex -38.50000000000003 18.01763809020504 17.43185165257813
    vertex -38.50000000000003 18.499999999999996 17.23205080756887
  endloop
endfacet
facet normal -1.0 -1.7151172843336924e-16 -2.2922609626542217e-16
  outer loop
    vertex -38.5 18.24999999999999 16.249999999999993
    vertex -38.50000000000003 18.499999999999996 17.23205080756887
    vertex -38.5 18.24999999999999 -16.25000000000004
  endloop
endfacet
facet normal -1.0 -1.7151172843336924e-16 -2.2922609626542217e-16
  outer loop
    vertex -38.5 18.24999999999999 -16.25000000000004
    vertex -38.50000000000003 18.499999999999996 17.23205080756887
    vertex -38.499999999999986 18.49999999999995 -17.232050807568886
  endloop
endfacet
facet normal -1.0 -1.7151172843336924e-16 -2.2922609626542217e-16
  outer loop
    vertex -38.499999999999986 18.49999999999995 -17.232050807568886
    vertex -38.50000000000003 18.499999999999996 17.23205080756887
    vertex -38.499999999999986 18.91421356237303 -16.914213562373117
  endloop
endfacet
facet normal -1.0 -1.7151172843336924e-16 -2.2922609626542217e-16
  outer loop
    vertex -38.499999999999986 18.91421356237303 -16.914213562373117
    vertex -38.50000000000003 18.499999999999996 17.23205080756887
    vertex -38.50000000000003 18.914213562373092 16.91421356237309
  endloop
endfacet
facet normal -1.0 -1.7151172843336924e-16 -2.2922609626542217e-16
  outer loop
    vertex -38.499999999999986 18.91421356237303 -16.914213562373117
    vertex -38.50000000000003 18.914213562373092 16.91421356237309
    vertex -38.499999999999986 19.232050807568797 -16.50000000000004
  endloop
endfacet
facet normal -1.0 -1.7151172843336924e-16 -2.2922609626542217e-16
  outer loop
    vertex -38.499999999999986 19.232050807568797 -16.50000000000004
    vertex -38.50000000000003 18.914213562373092 16.91421356237309
    vertex -38.50000000000003 19.232050807568875 16.499999999999993
  endloop
endfacet
facet normal -1.0 -1.7151172843336924e-16 -2.2922609626542217e-16
  outer loop
    vertex -38.499999999999986 19.232050807568797 -16.50000000000004
    vertex -38.50000000000003 19.232050807568875 16.499999999999993
    vertex -38.499999999999986 19.431851652578047 -16.0176380902051
  endloop
endfacet
facet normal -1.0 -1.7151172843336924e-16 -2.2922609626542217e-16
  outer loop
    vertex -38.499999999999986 19.431851652578047 -16.0176380902051
    vertex -38.50000000000003 19.232050807568875 16.499999999999993
    vertex -38.50000000000003 19.431851652578136 16.017638090205033
  endloop
endfacet
facet normal -1.0 -1.7151172843336924e-16 -2.2922609626542217e-16
  outer loop
    vertex -38.499999999999986 19.431851652578047 -16.0176380902051
    vertex -38.50000000000003 19.431851652578136 16.017638090205033
    vertex -38.50000000000001 19.50000000000001 -15.500000000000078
  endloop
endfacet
facet normal -1.0 -1.7151172843336924e-16 -2.2922609626542217e-16
  outer loop
    vertex -38.50000000000001 19.50000000000001 -15.500000000000078
    vertex -38.50000000000003 19.431851652578136 16.017638090205033
    vertex -38.5 19.499999999999996 15.499999999999995
  endloop
endfacet
facet normal -1.0 -1.7151172843336924e-16 -2.2922609626542217e-16
  outer loop
    vertex -38.5 18.24999999999999 -16.25000000000004
    vertex -38.5 15.24999999999999 -17.499999999999993
    vertex -38.5 15.24999999999999 -16.25000000000004
  endloop
endfacet
facet normal -1.0 -1.7151172843336924e-16 -2.2922609626542217e-16
  outer loop
    vertex -38.5 15.24999999999999 -17.499999999999993
    vertex -38.5 18.24999999999999 -16.25000000000004
    vertex -38.50000000000001 17.49999999999999 -17.499999999999996
  endloop
endfacet
facet normal -1.0 -1.7151172843336924e-16 -2.2922609626542217e-16
  outer loop
    vertex -38.50000000000001 17.49999999999999 -17.499999999999996
    vertex -38.5 18.24999999999999 -16.25000000000004
    vertex -38.499999999999986 18.01763809020501 -17.43185165257814
  endloop
endfacet
facet normal -1.0 -1.7151172843336924e-16 -2.2922609626542217e-16
  outer loop
    vertex -38.499999999999986 18.01763809020501 -17.43185165257814
    vertex -38.5 18.24999999999999 -16.25000000000004
    vertex -38.499999999999986 18.49999999999995 -17.232050807568886
  endloop
endfacet
facet normal 5.827323801634197e-17 -0.1305261922200548 0.99144486137381
  outer loop
    vertex -14.499999999999998 -18.01763809020504 17.43185165257813
    vertex -38.5 -17.5 17.499999999999993
    vertex -38.5 -18.01763809020504 17.43185165257813
  endloop
endfacet
facet normal 5.827323801634197e-17 -0.1305261922200548 0.99144486137381
  outer loop
    vertex -38.5 -17.5 17.499999999999993
    vertex -14.499999999999998 -18.01763809020504 17.43185165257813
    vertex -14.499999999999998 -17.5 17.49999999999999
  endloop
endfacet
facet normal 0.0 -0.3826834323650913 0.9238795325112861
  outer loop
    vertex -14.499999999999998 -18.499999999999996 17.232050807568868
    vertex -38.5 -18.01763809020504 17.43185165257813
    vertex -38.5 -18.499999999999996 17.232050807568868
  endloop
endfacet
facet normal 0.0 -0.3826834323650913 0.9238795325112861
  outer loop
    vertex -38.5 -18.01763809020504 17.43185165257813
    vertex -14.499999999999998 -18.499999999999996 17.232050807568868
    vertex -14.499999999999998 -18.01763809020504 17.43185165257813
  endloop
endfacet
facet normal 0.0 -0.6087614290087153 0.7933533402912393
  outer loop
    vertex -14.499999999999998 -18.914213562373096 16.91421356237309
    vertex -38.5 -18.499999999999996 17.232050807568868
    vertex -38.5 -18.914213562373096 16.91421356237309
  endloop
endfacet
facet normal 0.0 -0.6087614290087153 0.7933533402912393
  outer loop
    vertex -38.5 -18.499999999999996 17.232050807568868
    vertex -14.499999999999998 -18.914213562373096 16.91421356237309
    vertex -14.499999999999998 -18.499999999999996 17.232050807568868
  endloop
endfacet
facet normal 0.0 -0.7933533402912374 0.608761429008718
  outer loop
    vertex -14.499999999999998 -18.914213562373096 16.91421356237309
    vertex -38.5 -19.232050807568875 16.499999999999993
    vertex -14.499999999999998 -19.232050807568875 16.499999999999993
  endloop
endfacet
facet normal 0.0 -0.7933533402912374 0.608761429008718
  outer loop
    vertex -38.5 -19.232050807568875 16.499999999999993
    vertex -14.499999999999998 -18.914213562373096 16.91421356237309
    vertex -38.5 -18.914213562373096 16.91421356237309
  endloop
endfacet
facet normal 0.0 -0.9238795325112861 0.3826834323650913
  outer loop
    vertex -14.499999999999998 -19.232050807568875 16.499999999999993
    vertex -38.5 -19.431851652578136 16.017638090205033
    vertex -14.499999999999998 -19.431851652578136 16.017638090205033
  endloop
endfacet
facet normal 0.0 -0.9238795325112861 0.3826834323650913
  outer loop
    vertex -38.5 -19.431851652578136 16.017638090205033
    vertex -14.499999999999998 -19.232050807568875 16.499999999999993
    vertex -38.5 -19.232050807568875 16.499999999999993
  endloop
endfacet
facet normal 7.735220776342631e-18 -0.9914448613738105 0.1305261922200518
  outer loop
    vertex -14.499999999999998 -19.431851652578136 16.017638090205033
    vertex -38.5 -19.499999999999996 15.499999999999995
    vertex -14.499999999999998 -19.499999999999996 15.499999999999991
  endloop
endfacet
facet normal 7.735220776342631e-18 -0.9914448613738105 0.1305261922200518
  outer loop
    vertex -38.5 -19.499999999999996 15.499999999999995
    vertex -14.499999999999998 -19.431851652578136 16.017638090205033
    vertex -38.5 -19.431851652578136 16.017638090205033
  endloop
endfacet
facet normal 3.0092993837062654e-32 1.0 9.096666072735132e-17
  outer loop
    vertex -36.5 -17.499999999999996 -15.500000000000078
    vertex -15.999999999999998 -17.5 15.499999999999991
    vertex -16.000000000000004 -17.499999999999996 -15.500000000000082
  endloop
endfacet
facet normal 3.0092993837062654e-32 1.0 9.096666072735132e-17
  outer loop
    vertex -15.999999999999998 -17.5 15.499999999999991
    vertex -36.5 -17.499999999999996 -15.500000000000078
    vertex -36.49999999999999 -17.5 15.499999999999995
  endloop
endfacet
facet normal -0.0 1.0 -0.0
  outer loop
    vertex -38.5 -18.25 16.249999999999993
    vertex -36.5 -18.25 -16.250000000000078
    vertex -38.5 -18.25 -16.250000000000078
  endloop
endfacet
facet normal -0.0 1.0 -0.0
  outer loop
    vertex -36.5 -18.25 -16.250000000000078
    vertex -38.5 -18.25 16.249999999999993
    vertex -36.49999999999999 -18.25 16.249999999999993
  endloop
endfacet
facet normal -1.0 -2.103524153456752e-20 1.7751993914794708e-16
  outer loop
    vertex -36.49999999999999 -18.25 16.249999999999993
    vertex -36.49999999999999 -17.5 15.499999999999995
    vertex -36.5 -18.25 -16.250000000000078
  endloop
endfacet
facet normal -1.0 -2.103524153456752e-20 1.7751993914794708e-16
  outer loop
    vertex -36.49999999999999 -17.5 15.499999999999995
    vertex -36.49999999999999 -18.25 16.249999999999993
    vertex -36.49999999999999 18.24999999999999 16.249999999999993
  endloop
endfacet
facet normal -1.0 -2.103524153456752e-20 1.7751993914794708e-16
  outer loop
    vertex -36.49999999999999 -17.5 15.499999999999995
    vertex -36.49999999999999 18.24999999999999 16.249999999999993
    vertex -36.49999999999999 17.499999999999996 15.499999999999995
  endloop
endfacet
facet normal -1.0 -2.103524153456752e-20 1.7751993914794708e-16
  outer loop
    vertex -36.5 17.49999999999999 -15.500000000000078
    vertex -36.5 15.24999999999999 -16.25000000000004
    vertex -36.5 15.24999999999999 -15.500000000000078
  endloop
endfacet
facet normal -1.0 -2.103524153456752e-20 1.7751993914794708e-16
  outer loop
    vertex -36.5 15.24999999999999 -16.25000000000004
    vertex -36.5 17.49999999999999 -15.500000000000078
    vertex -36.5 18.24999999999999 -16.25000000000004
  endloop
endfacet
facet normal -1.0 -2.103524153456752e-20 1.7751993914794708e-16
  outer loop
    vertex -36.5 18.24999999999999 -16.25000000000004
    vertex -36.5 17.49999999999999 -15.500000000000078
    vertex -36.49999999999999 17.499999999999996 15.499999999999995
  endloop
endfacet
facet normal -1.0 -2.103524153456752e-20 1.7751993914794708e-16
  outer loop
    vertex -36.5 18.24999999999999 -16.25000000000004
    vertex -36.49999999999999 17.499999999999996 15.499999999999995
    vertex -36.49999999999999 18.24999999999999 16.249999999999993
  endloop
endfacet
facet normal -1.0 -2.103524153456752e-20 1.7751993914794708e-16
  outer loop
    vertex -36.5 -18.25 -16.250000000000078
    vertex -36.5 -17.499999999999996 -15.500000000000078
    vertex -36.5 10.749999999999991 -16.25000000000004
  endloop
endfacet
facet normal -1.0 -2.103524153456752e-20 1.7751993914794708e-16
  outer loop
    vertex -36.5 -17.499999999999996 -15.500000000000078
    vertex -36.5 -18.25 -16.250000000000078
    vertex -36.49999999999999 -17.5 15.499999999999995
  endloop
endfacet
facet normal -1.0 -2.103524153456752e-20 1.7751993914794708e-16
  outer loop
    vertex -36.5 10.749999999999991 -16.25000000000004
    vertex -36.5 -17.499999999999996 -15.500000000000078
    vertex -36.5 10.749999999999991 -15.500000000000078
  endloop
endfacet
facet normal 5.823613816059039e-17 0.13052619222004877 0.9914448613738107
  outer loop
    vertex -38.5 17.499999999999996 17.499999999999993
    vertex -14.499999999999998 18.01763809020504 17.43185165257813
    vertex -38.50000000000003 18.01763809020504 17.43185165257813
  endloop
endfacet
facet normal 5.823613816059039e-17 0.13052619222004877 0.9914448613738107
  outer loop
    vertex -14.499999999999998 18.01763809020504 17.43185165257813
    vertex -38.5 17.499999999999996 17.499999999999993
    vertex -14.499999999999998 17.499999999999996 17.49999999999999
  endloop
endfacet
facet normal 1.1749860343949574e-16 -0.0 1.0
  outer loop
    vertex -14.499999999999998 -17.5 17.49999999999999
    vertex -38.5 17.499999999999996 17.499999999999993
    vertex -38.5 -17.5 17.499999999999993
  endloop
endfacet
facet normal 1.1749860343949574e-16 -0.0 1.0
  outer loop
    vertex -38.5 17.499999999999996 17.499999999999993
    vertex -14.499999999999998 -17.5 17.49999999999999
    vertex -14.499999999999998 17.499999999999996 17.49999999999999
  endloop
endfacet
endsolid cls_oiler_housing
