solid strand_holder
facet normal -0.0 1.0 -0.0
  outer loop
    vertex -15.749999999999996 0.0 1.4509618943233422
    vertex -14.249999999999996 0.0 0.0
    vertex -15.749999999999996 0.0 0.0
  endloop
endfacet
facet normal -0.0 1.0 -0.0
  outer loop
    vertex -14.249999999999996 0.0 0.0
    vertex -15.749999999999996 0.0 1.4509618943233422
    vertex -14.249999999999996 0.0 1.4509618943233422
  endloop
endfacet
facet normal -0.0 1.0 -0.0
  outer loop
    vertex -14.249999999999996 0.0 1.4509618943233422
    vertex -15.749999999999996 0.0 1.4509618943233422
    vertex -15.875 0.0 1.4844555433772326
  endloop
endfacet
facet normal -0.0 1.0 -0.0
  outer loop
    vertex -14.249999999999996 0.0 1.4509618943233422
    vertex -15.875 0.0 1.4844555433772326
    vertex -14.124999999999996 0.0 1.4844555433772324
  endloop
endfacet
facet normal -0.0 1.0 -0.0
  outer loop
    vertex -14.124999999999996 0.0 1.4844555433772324
    vertex -15.875 0.0 1.4844555433772326
    vertex -13.48445554337723 0.0 2.1249999999999996
  endloop
endfacet
facet normal -0.0 1.0 -0.0
  outer loop
    vertex -13.48445554337723 0.0 2.1249999999999996
    vertex -15.875 0.0 1.4844555433772326
    vertex -16.515544456622766 0.0 2.1250000000000004
  endloop
endfacet
facet normal -0.0 1.0 -0.0
  outer loop
    vertex -13.48445554337723 0.0 2.1249999999999996
    vertex -16.515544456622766 0.0 2.1250000000000004
    vertex -13.249999999999998 0.0 3.0
  endloop
endfacet
facet normal -0.0 1.0 -0.0
  outer loop
    vertex -13.249999999999998 0.0 3.0
    vertex -16.515544456622766 0.0 2.1250000000000004
    vertex -16.749999999999996 0.0 3.0
  endloop
endfacet
facet normal -0.0 1.0 -0.0
  outer loop
    vertex -13.249999999999998 0.0 3.0
    vertex -16.749999999999996 0.0 3.0
    vertex -16.515544456622766 0.0 3.875
  endloop
endfacet
facet normal -0.0 1.0 -0.0
  outer loop
    vertex -13.249999999999998 0.0 3.0
    vertex -16.515544456622766 0.0 3.875
    vertex -13.48445554337723 0.0 3.8749999999999987
  endloop
endfacet
facet normal -0.0 1.0 -0.0
  outer loop
    vertex -13.48445554337723 0.0 3.8749999999999987
    vertex -16.515544456622766 0.0 3.875
    vertex -14.124999999999996 0.0 4.515544456622767
  endloop
endfacet
facet normal -0.0 1.0 -0.0
  outer loop
    vertex -14.124999999999996 0.0 4.515544456622767
    vertex -16.515544456622766 0.0 3.875
    vertex -15.875 0.0 4.515544456622767
  endloop
endfacet
facet normal -0.0 1.0 -0.0
  outer loop
    vertex -14.124999999999996 0.0 4.515544456622767
    vertex -15.875 0.0 4.515544456622767
    vertex -14.999999999999998 0.0 4.75
  endloop
endfacet
facet normal -0.0 1.0 -0.0
  outer loop
    vertex -12.0 0.0 1.4509618943233422
    vertex -10.499999999999998 0.0 0.0
    vertex -12.0 0.0 0.0
  endloop
endfacet
facet normal -0.0 1.0 -0.0
  outer loop
    vertex -10.499999999999998 0.0 0.0
    vertex -12.0 0.0 1.4509618943233422
    vertex -10.499999999999998 0.0 1.4509618943233422
  endloop
endfacet
facet normal -0.0 1.0 -0.0
  outer loop
    vertex -10.499999999999998 0.0 1.4509618943233422
    vertex -12.0 0.0 1.4509618943233422
    vertex -12.124999999999998 0.0 1.4844555433772326
  endloop
endfacet
facet normal -0.0 1.0 -0.0
  outer loop
    vertex -10.499999999999998 0.0 1.4509618943233422
    vertex -12.124999999999998 0.0 1.4844555433772326
    vertex -10.375 0.0 1.4844555433772324
  endloop
endfacet
facet normal -0.0 1.0 -0.0
  outer loop
    vertex -10.375 0.0 1.4844555433772324
    vertex -12.124999999999998 0.0 1.4844555433772326
    vertex -9.734455543377232 0.0 2.1249999999999996
  endloop
endfacet
facet normal -0.0 1.0 -0.0
  outer loop
    vertex -9.734455543377232 0.0 2.1249999999999996
    vertex -12.124999999999998 0.0 1.4844555433772326
    vertex -12.765544456622766 0.0 2.1250000000000004
  endloop
endfacet
facet normal -0.0 1.0 -0.0
  outer loop
    vertex -9.734455543377232 0.0 2.1249999999999996
    vertex -12.765544456622766 0.0 2.1250000000000004
    vertex -9.5 0.0 3.0
  endloop
endfacet
facet normal -0.0 1.0 -0.0
  outer loop
    vertex -9.5 0.0 3.0
    vertex -12.765544456622766 0.0 2.1250000000000004
    vertex -12.999999999999998 0.0 3.0
  endloop
endfacet
facet normal -0.0 1.0 -0.0
  outer loop
    vertex -9.5 0.0 3.0
    vertex -12.999999999999998 0.0 3.0
    vertex -12.765544456622766 0.0 3.875
  endloop
endfacet
facet normal -0.0 1.0 -0.0
  outer loop
    vertex -9.5 0.0 3.0
    vertex -12.765544456622766 0.0 3.875
    vertex -9.73445554337723 0.0 3.8749999999999987
  endloop
endfacet
facet normal -0.0 1.0 -0.0
  outer loop
    vertex -9.73445554337723 0.0 3.8749999999999987
    vertex -12.765544456622766 0.0 3.875
    vertex -10.374999999999998 0.0 4.515544456622767
  endloop
endfacet
facet normal -0.0 1.0 -0.0
  outer loop
    vertex -10.374999999999998 0.0 4.515544456622767
    vertex -12.765544456622766 0.0 3.875
    vertex -12.124999999999998 0.0 4.515544456622767
  endloop
endfacet
facet normal -0.0 1.0 -0.0
  outer loop
    vertex -10.374999999999998 0.0 4.515544456622767
    vertex -12.124999999999998 0.0 4.515544456622767
    vertex -11.25 0.0 4.75
  endloop
endfacet
facet normal -0.0 1.0 -0.0
  outer loop
    vertex -8.25 0.0 1.4509618943233422
    vertex -6.75 0.0 0.0
    vertex -8.25 0.0 0.0
  endloop
endfacet
facet normal -0.0 1.0 -0.0
  outer loop
    vertex -6.75 0.0 0.0
    vertex -8.25 0.0 1.4509618943233422
    vertex -6.75 0.0 1.4509618943233422
  endloop
endfacet
facet normal -0.0 1.0 -0.0
  outer loop
    vertex -6.75 0.0 1.4509618943233422
    vertex -8.25 0.0 1.4509618943233422
    vertex -8.375 0.0 1.4844555433772326
  endloop
endfacet
facet normal -0.0 1.0 -0.0
  outer loop
    vertex -6.75 0.0 1.4509618943233422
    vertex -8.375 0.0 1.4844555433772326
    vertex -6.625000000000001 0.0 1.4844555433772324
  endloop
endfacet
facet normal -0.0 1.0 -0.0
  outer loop
    vertex -6.625000000000001 0.0 1.4844555433772324
    vertex -8.375 0.0 1.4844555433772326
    vertex -5.9844555433772335 0.0 2.1249999999999996
  endloop
endfacet
facet normal -0.0 1.0 -0.0
  outer loop
    vertex -5.9844555433772335 0.0 2.1249999999999996
    vertex -8.375 0.0 1.4844555433772326
    vertex -9.015544456622768 0.0 2.1250000000000004
  endloop
endfacet
facet normal -0.0 1.0 -0.0
  outer loop
    vertex -5.9844555433772335 0.0 2.1249999999999996
    vertex -9.015544456622768 0.0 2.1250000000000004
    vertex -5.750000000000001 0.0 3.0
  endloop
endfacet
facet normal -0.0 1.0 -0.0
  outer loop
    vertex -5.750000000000001 0.0 3.0
    vertex -9.015544456622768 0.0 2.1250000000000004
    vertex -9.25 0.0 3.0
  endloop
endfacet
facet normal -0.0 1.0 -0.0
  outer loop
    vertex -5.750000000000001 0.0 3.0
    vertex -9.25 0.0 3.0
    vertex -9.015544456622768 0.0 3.875
  endloop
endfacet
facet normal -0.0 1.0 -0.0
  outer loop
    vertex -5.750000000000001 0.0 3.0
    vertex -9.015544456622768 0.0 3.875
    vertex -5.984455543377232 0.0 3.8749999999999987
  endloop
endfacet
facet normal -0.0 1.0 -0.0
  outer loop
    vertex -5.984455543377232 0.0 3.8749999999999987
    vertex -9.015544456622768 0.0 3.875
    vertex -6.624999999999999 0.0 4.515544456622767
  endloop
endfacet
facet normal -0.0 1.0 -0.0
  outer loop
    vertex -6.624999999999999 0.0 4.515544456622767
    vertex -9.015544456622768 0.0 3.875
    vertex -8.375 0.0 4.515544456622767
  endloop
endfacet
facet normal -0.0 1.0 -0.0
  outer loop
    vertex -6.624999999999999 0.0 4.515544456622767
    vertex -8.375 0.0 4.515544456622767
    vertex -7.5 0.0 4.75
  endloop
endfacet
facet normal -0.0 1.0 -0.0
  outer loop
    vertex -4.5 0.0 1.4509618943233422
    vertex -3.0 0.0 0.0
    vertex -4.5 0.0 0.0
  endloop
endfacet
facet normal -0.0 1.0 -0.0
  outer loop
    vertex -3.0 0.0 0.0
    vertex -4.5 0.0 1.4509618943233422
    vertex -3.0 0.0 1.4509618943233422
  endloop
endfacet
facet normal -0.0 1.0 -0.0
  outer loop
    vertex -3.0 0.0 1.4509618943233422
    vertex -4.5 0.0 1.4509618943233422
    vertex -4.625 0.0 1.4844555433772326
  endloop
endfacet
facet normal -0.0 1.0 -0.0
  outer loop
    vertex -3.0 0.0 1.4509618943233422
    vertex -4.625 0.0 1.4844555433772326
    vertex -2.875 0.0 1.4844555433772324
  endloop
endfacet
facet normal -0.0 1.0 -0.0
  outer loop
    vertex -2.875 0.0 1.4844555433772324
    vertex -4.625 0.0 1.4844555433772326
    vertex -2.234455543377233 0.0 2.1249999999999996
  endloop
endfacet
facet normal -0.0 1.0 -0.0
  outer loop
    vertex -2.234455543377233 0.0 2.1249999999999996
    vertex -4.625 0.0 1.4844555433772326
    vertex -5.265544456622767 0.0 2.1250000000000004
  endloop
endfacet
facet normal -0.0 1.0 -0.0
  outer loop
    vertex -2.234455543377233 0.0 2.1249999999999996
    vertex -5.265544456622767 0.0 2.1250000000000004
    vertex -2.0000000000000004 0.0 3.0
  endloop
endfacet
facet normal -0.0 1.0 -0.0
  outer loop
    vertex -2.0000000000000004 0.0 3.0
    vertex -5.265544456622767 0.0 2.1250000000000004
    vertex -5.5 0.0 3.0
  endloop
endfacet
facet normal -0.0 1.0 -0.0
  outer loop
    vertex -2.0000000000000004 0.0 3.0
    vertex -5.5 0.0 3.0
    vertex -5.265544456622767 0.0 3.875
  endloop
endfacet
facet normal -0.0 1.0 -0.0
  outer loop
    vertex -2.0000000000000004 0.0 3.0
    vertex -5.265544456622767 0.0 3.875
    vertex -2.2344555433772317 0.0 3.8749999999999987
  endloop
endfacet
facet normal -0.0 1.0 -0.0
  outer loop
    vertex -2.2344555433772317 0.0 3.8749999999999987
    vertex -5.265544456622767 0.0 3.875
    vertex -2.874999999999999 0.0 4.515544456622767
  endloop
endfacet
facet normal -0.0 1.0 -0.0
  outer loop
    vertex -2.874999999999999 0.0 4.515544456622767
    vertex -5.265544456622767 0.0 3.875
    vertex -4.625 0.0 4.515544456622767
  endloop
endfacet
facet normal -0.0 1.0 -0.0
  outer loop
    vertex -2.874999999999999 0.0 4.515544456622767
    vertex -4.625 0.0 4.515544456622767
    vertex -3.75 0.0 4.75
  endloop
endfacet
facet normal -0.0 1.0 -0.0
  outer loop
    vertex -0.75 0.0 1.4509618943233422
    vertex 0.75 0.0 0.0
    vertex -0.75 0.0 0.0
  endloop
endfacet
facet normal -0.0 1.0 -0.0
  outer loop
    vertex 0.75 0.0 0.0
    vertex -0.75 0.0 1.4509618943233422
    vertex 0.75 0.0 1.4509618943233422
  endloop
endfacet
facet normal -0.0 1.0 -0.0
  outer loop
    vertex 0.75 0.0 1.4509618943233422
    vertex -0.75 0.0 1.4509618943233422
    vertex -0.8750000000000001 0.0 1.4844555433772326
  endloop
endfacet
facet normal -0.0 1.0 -0.0
  outer loop
    vertex 0.75 0.0 1.4509618943233422
    vertex -0.8750000000000001 0.0 1.4844555433772326
    vertex 0.8749999999999998 0.0 1.4844555433772324
  endloop
endfacet
facet normal -0.0 1.0 -0.0
  outer loop
    vertex 0.8749999999999998 0.0 1.4844555433772324
    vertex -0.8750000000000001 0.0 1.4844555433772326
    vertex 1.5155444566227667 0.0 2.1249999999999996
  endloop
endfacet
facet normal -0.0 1.0 -0.0
  outer loop
    vertex 1.5155444566227667 0.0 2.1249999999999996
    vertex -0.8750000000000001 0.0 1.4844555433772326
    vertex -1.5155444566227678 0.0 2.1250000000000004
  endloop
endfacet
facet normal -0.0 1.0 -0.0
  outer loop
    vertex 1.5155444566227667 0.0 2.1249999999999996
    vertex -1.5155444566227678 0.0 2.1250000000000004
    vertex 1.7499999999999993 0.0 3.0
  endloop
endfacet
facet normal -0.0 1.0 -0.0
  outer loop
    vertex 1.7499999999999993 0.0 3.0
    vertex -1.5155444566227678 0.0 2.1250000000000004
    vertex -1.75 0.0 3.0
  endloop
endfacet
facet normal -0.0 1.0 -0.0
  outer loop
    vertex 1.7499999999999993 0.0 3.0
    vertex -1.75 0.0 3.0
    vertex -1.5155444566227678 0.0 3.875
  endloop
endfacet
facet normal -0.0 1.0 -0.0
  outer loop
    vertex 1.7499999999999993 0.0 3.0
    vertex -1.5155444566227678 0.0 3.875
    vertex 1.5155444566227683 0.0 3.8749999999999987
  endloop
endfacet
facet normal -0.0 1.0 -0.0
  outer loop
    vertex 1.5155444566227683 0.0 3.8749999999999987
    vertex -1.5155444566227678 0.0 3.875
    vertex 0.8750000000000006 0.0 4.515544456622767
  endloop
endfacet
facet normal -0.0 1.0 -0.0
  outer loop
    vertex 0.8750000000000006 0.0 4.515544456622767
    vertex -1.5155444566227678 0.0 3.875
    vertex -0.8750000000000001 0.0 4.515544456622767
  endloop
endfacet
facet normal -0.0 1.0 -0.0
  outer loop
    vertex 0.8750000000000006 0.0 4.515544456622767
    vertex -0.8750000000000001 0.0 4.515544456622767
    vertex 0.0 0.0 4.75
  endloop
endfacet
facet normal -0.0 1.0 -0.0
  outer loop
    vertex 3.0 0.0 1.4509618943233422
    vertex 4.5 0.0 0.0
    vertex 3.0 0.0 0.0
  endloop
endfacet
facet normal -0.0 1.0 -0.0
  outer loop
    vertex 4.5 0.0 0.0
    vertex 3.0 0.0 1.4509618943233422
    vertex 4.5 0.0 1.4509618943233422
  endloop
endfacet
facet normal -0.0 1.0 -0.0
  outer loop
    vertex 4.5 0.0 1.4509618943233422
    vertex 3.0 0.0 1.4509618943233422
    vertex 2.875 0.0 1.4844555433772326
  endloop
endfacet
facet normal -0.0 1.0 -0.0
  outer loop
    vertex 4.5 0.0 1.4509618943233422
    vertex 2.875 0.0 1.4844555433772326
    vertex 4.625 0.0 1.4844555433772324
  endloop
endfacet
facet normal -0.0 1.0 -0.0
  outer loop
    vertex 4.625 0.0 1.4844555433772324
    vertex 2.875 0.0 1.4844555433772326
    vertex 5.265544456622767 0.0 2.1249999999999996
  endloop
endfacet
facet normal -0.0 1.0 -0.0
  outer loop
    vertex 5.265544456622767 0.0 2.1249999999999996
    vertex 2.875 0.0 1.4844555433772326
    vertex 2.234455543377232 0.0 2.1250000000000004
  endloop
endfacet
facet normal -0.0 1.0 -0.0
  outer loop
    vertex 5.265544456622767 0.0 2.1249999999999996
    vertex 2.234455543377232 0.0 2.1250000000000004
    vertex 5.5 0.0 3.0
  endloop
endfacet
facet normal -0.0 1.0 -0.0
  outer loop
    vertex 5.5 0.0 3.0
    vertex 2.234455543377232 0.0 2.1250000000000004
    vertex 2.0 0.0 3.0
  endloop
endfacet
facet normal -0.0 1.0 -0.0
  outer loop
    vertex 5.5 0.0 3.0
    vertex 2.0 0.0 3.0
    vertex 2.234455543377232 0.0 3.875
  endloop
endfacet
facet normal -0.0 1.0 -0.0
  outer loop
    vertex 5.5 0.0 3.0
    vertex 2.234455543377232 0.0 3.875
    vertex 5.265544456622769 0.0 3.8749999999999987
  endloop
endfacet
facet normal -0.0 1.0 -0.0
  outer loop
    vertex 5.265544456622769 0.0 3.8749999999999987
    vertex 2.234455543377232 0.0 3.875
    vertex 4.625000000000001 0.0 4.515544456622767
  endloop
endfacet
facet normal -0.0 1.0 -0.0
  outer loop
    vertex 4.625000000000001 0.0 4.515544456622767
    vertex 2.234455543377232 0.0 3.875
    vertex 2.875 0.0 4.515544456622767
  endloop
endfacet
facet normal -0.0 1.0 -0.0
  outer loop
    vertex 4.625000000000001 0.0 4.515544456622767
    vertex 2.875 0.0 4.515544456622767
    vertex 3.75 0.0 4.75
  endloop
endfacet
facet normal -0.0 1.0 -0.0
  outer loop
    vertex -21.749999999999996 0.0 0.0
    vertex 10.5 0.0 -1.5
    vertex -21.749999999999996 0.0 -1.5
  endloop
endfacet
facet normal -0.0 1.0 -0.0
  outer loop
    vertex 10.5 0.0 -1.5
    vertex -21.749999999999996 0.0 0.0
    vertex 10.5 0.0 0.0
  endloop
endfacet
facet normal -0.0 1.0 -0.0
  outer loop
    vertex 10.5 0.0 0.0
    vertex -21.749999999999996 0.0 0.0
    vertex -15.749999999999996 0.0 0.0
  endloop
endfacet
facet normal -0.0 1.0 -0.0
  outer loop
    vertex 10.5 0.0 0.0
    vertex -15.749999999999996 0.0 0.0
    vertex -14.249999999999996 0.0 0.0
  endloop
endfacet
facet normal -0.0 1.0 -0.0
  outer loop
    vertex 10.5 0.0 0.0
    vertex -14.249999999999996 0.0 0.0
    vertex -12.0 0.0 0.0
  endloop
endfacet
facet normal -0.0 1.0 -0.0
  outer loop
    vertex 10.5 0.0 0.0
    vertex -12.0 0.0 0.0
    vertex -10.499999999999998 0.0 0.0
  endloop
endfacet
facet normal -0.0 1.0 -0.0
  outer loop
    vertex 10.5 0.0 0.0
    vertex -10.499999999999998 0.0 0.0
    vertex -8.25 0.0 0.0
  endloop
endfacet
facet normal -0.0 1.0 -0.0
  outer loop
    vertex 10.5 0.0 0.0
    vertex -8.25 0.0 0.0
    vertex -6.75 0.0 0.0
  endloop
endfacet
facet normal -0.0 1.0 -0.0
  outer loop
    vertex 10.5 0.0 0.0
    vertex -6.75 0.0 0.0
    vertex -4.5 0.0 0.0
  endloop
endfacet
facet normal -0.0 1.0 -0.0
  outer loop
    vertex 10.5 0.0 0.0
    vertex -4.5 0.0 0.0
    vertex -3.0 0.0 0.0
  endloop
endfacet
facet normal -0.0 1.0 -0.0
  outer loop
    vertex 10.5 0.0 0.0
    vertex -3.0 0.0 0.0
    vertex -0.75 0.0 0.0
  endloop
endfacet
facet normal -0.0 1.0 -0.0
  outer loop
    vertex 10.5 0.0 0.0
    vertex -0.75 0.0 0.0
    vertex 0.75 0.0 0.0
  endloop
endfacet
facet normal -0.0 1.0 -0.0
  outer loop
    vertex 10.5 0.0 0.0
    vertex 0.75 0.0 0.0
    vertex 3.0 0.0 0.0
  endloop
endfacet
facet normal -0.0 1.0 -0.0
  outer loop
    vertex 10.5 0.0 0.0
    vertex 3.0 0.0 0.0
    vertex 4.5 0.0 0.0
  endloop
endfacet
facet normal 0.0 -1.0 0.0
  outer loop
    vertex 4.5 -6.0 1.4509618943233422
    vertex 3.0 -6.0 0.0
    vertex 4.5 -6.0 0.0
  endloop
endfacet
facet normal 0.0 -1.0 0.0
  outer loop
    vertex 3.0 -6.0 0.0
    vertex 4.5 -6.0 1.4509618943233422
    vertex 3.0 -6.0 1.4509618943233422
  endloop
endfacet
facet normal 0.0 -1.0 0.0
  outer loop
    vertex 3.0 -6.0 1.4509618943233422
    vertex 4.5 -6.0 1.4509618943233422
    vertex 4.625 -6.0 1.4844555433772324
  endloop
endfacet
facet normal 0.0 -1.0 0.0
  outer loop
    vertex 3.0 -6.0 1.4509618943233422
    vertex 4.625 -6.0 1.4844555433772324
    vertex 2.875 -6.0 1.4844555433772326
  endloop
endfacet
facet normal 0.0 -1.0 0.0
  outer loop
    vertex 2.875 -6.0 1.4844555433772326
    vertex 4.625 -6.0 1.4844555433772324
    vertex 5.265544456622767 -6.0 2.1249999999999996
  endloop
endfacet
facet normal 0.0 -1.0 0.0
  outer loop
    vertex 2.875 -6.0 1.4844555433772326
    vertex 5.265544456622767 -6.0 2.1249999999999996
    vertex 2.234455543377232 -6.0 2.1250000000000004
  endloop
endfacet
facet normal 0.0 -1.0 0.0
  outer loop
    vertex 2.234455543377232 -6.0 2.1250000000000004
    vertex 5.265544456622767 -6.0 2.1249999999999996
    vertex 5.5 -6.0 3.0
  endloop
endfacet
facet normal 0.0 -1.0 0.0
  outer loop
    vertex 2.234455543377232 -6.0 2.1250000000000004
    vertex 5.5 -6.0 3.0
    vertex 2.0 -6.0 3.0
  endloop
endfacet
facet normal 0.0 -1.0 0.0
  outer loop
    vertex 2.0 -6.0 3.0
    vertex 5.5 -6.0 3.0
    vertex 5.265544456622769 -6.0 3.8749999999999987
  endloop
endfacet
facet normal 0.0 -1.0 0.0
  outer loop
    vertex 2.0 -6.0 3.0
    vertex 5.265544456622769 -6.0 3.8749999999999987
    vertex 2.234455543377232 -6.0 3.875
  endloop
endfacet
facet normal 0.0 -1.0 0.0
  outer loop
    vertex 2.234455543377232 -6.0 3.875
    vertex 5.265544456622769 -6.0 3.8749999999999987
    vertex 4.625000000000001 -6.0 4.515544456622767
  endloop
endfacet
facet normal 0.0 -1.0 0.0
  outer loop
    vertex 2.234455543377232 -6.0 3.875
    vertex 4.625000000000001 -6.0 4.515544456622767
    vertex 2.875 -6.0 4.515544456622767
  endloop
endfacet
facet normal 0.0 -1.0 0.0
  outer loop
    vertex 2.875 -6.0 4.515544456622767
    vertex 4.625000000000001 -6.0 4.515544456622767
    vertex 3.75 -6.0 4.75
  endloop
endfacet
facet normal 0.0 -1.0 0.0
  outer loop
    vertex 0.75 -6.0 1.4509618943233422
    vertex -0.75 -6.0 0.0
    vertex 0.75 -6.0 0.0
  endloop
endfacet
facet normal 0.0 -1.0 0.0
  outer loop
    vertex -0.75 -6.0 0.0
    vertex 0.75 -6.0 1.4509618943233422
    vertex -0.75 -6.0 1.4509618943233422
  endloop
endfacet
facet normal 0.0 -1.0 0.0
  outer loop
    vertex -0.75 -6.0 1.4509618943233422
    vertex 0.75 -6.0 1.4509618943233422
    vertex 0.8749999999999998 -6.0 1.4844555433772324
  endloop
endfacet
facet normal 0.0 -1.0 0.0
  outer loop
    vertex -0.75 -6.0 1.4509618943233422
    vertex 0.8749999999999998 -6.0 1.4844555433772324
    vertex -0.8750000000000001 -6.0 1.4844555433772326
  endloop
endfacet
facet normal 0.0 -1.0 0.0
  outer loop
    vertex -0.8750000000000001 -6.0 1.4844555433772326
    vertex 0.8749999999999998 -6.0 1.4844555433772324
    vertex 1.5155444566227667 -6.0 2.1249999999999996
  endloop
endfacet
facet normal 0.0 -1.0 0.0
  outer loop
    vertex -0.8750000000000001 -6.0 1.4844555433772326
    vertex 1.5155444566227667 -6.0 2.1249999999999996
    vertex -1.5155444566227678 -6.0 2.1250000000000004
  endloop
endfacet
facet normal 0.0 -1.0 0.0
  outer loop
    vertex -1.5155444566227678 -6.0 2.1250000000000004
    vertex 1.5155444566227667 -6.0 2.1249999999999996
    vertex 1.7499999999999993 -6.0 3.0
  endloop
endfacet
facet normal 0.0 -1.0 0.0
  outer loop
    vertex -1.5155444566227678 -6.0 2.1250000000000004
    vertex 1.7499999999999993 -6.0 3.0
    vertex -1.75 -6.0 3.0
  endloop
endfacet
facet normal 0.0 -1.0 0.0
  outer loop
    vertex -1.75 -6.0 3.0
    vertex 1.7499999999999993 -6.0 3.0
    vertex 1.5155444566227683 -6.0 3.8749999999999987
  endloop
endfacet
facet normal 0.0 -1.0 0.0
  outer loop
    vertex -1.75 -6.0 3.0
    vertex 1.5155444566227683 -6.0 3.8749999999999987
    vertex -1.5155444566227678 -6.0 3.875
  endloop
endfacet
facet normal 0.0 -1.0 0.0
  outer loop
    vertex -1.5155444566227678 -6.0 3.875
    vertex 1.5155444566227683 -6.0 3.8749999999999987
    vertex 0.8750000000000006 -6.0 4.515544456622767
  endloop
endfacet
facet normal 0.0 -1.0 0.0
  outer loop
    vertex -1.5155444566227678 -6.0 3.875
    vertex 0.8750000000000006 -6.0 4.515544456622767
    vertex -0.8750000000000001 -6.0 4.515544456622767
  endloop
endfacet
facet normal 0.0 -1.0 0.0
  outer loop
    vertex -0.8750000000000001 -6.0 4.515544456622767
    vertex 0.8750000000000006 -6.0 4.515544456622767
    vertex 0.0 -6.0 4.75
  endloop
endfacet
facet normal 0.0 -1.0 0.0
  outer loop
    vertex -3.0 -6.0 1.4509618943233422
    vertex -4.5 -6.0 0.0
    vertex -3.0 -6.0 0.0
  endloop
endfacet
facet normal 0.0 -1.0 0.0
  outer loop
    vertex -4.5 -6.0 0.0
    vertex -3.0 -6.0 1.4509618943233422
    vertex -4.5 -6.0 1.4509618943233422
  endloop
endfacet
facet normal 0.0 -1.0 0.0
  outer loop
    vertex -4.5 -6.0 1.4509618943233422
    vertex -3.0 -6.0 1.4509618943233422
    vertex -2.875 -6.0 1.4844555433772324
  endloop
endfacet
facet normal 0.0 -1.0 0.0
  outer loop
    vertex -4.5 -6.0 1.4509618943233422
    vertex -2.875 -6.0 1.4844555433772324
    vertex -4.625 -6.0 1.4844555433772326
  endloop
endfacet
facet normal 0.0 -1.0 0.0
  outer loop
    vertex -4.625 -6.0 1.4844555433772326
    vertex -2.875 -6.0 1.4844555433772324
    vertex -2.234455543377233 -6.0 2.1249999999999996
  endloop
endfacet
facet normal 0.0 -1.0 0.0
  outer loop
    vertex -4.625 -6.0 1.4844555433772326
    vertex -2.234455543377233 -6.0 2.1249999999999996
    vertex -5.265544456622767 -6.0 2.1250000000000004
  endloop
endfacet
facet normal 0.0 -1.0 0.0
  outer loop
    vertex -5.265544456622767 -6.0 2.1250000000000004
    vertex -2.234455543377233 -6.0 2.1249999999999996
    vertex -2.0000000000000004 -6.0 3.0
  endloop
endfacet
facet normal 0.0 -1.0 0.0
  outer loop
    vertex -5.265544456622767 -6.0 2.1250000000000004
    vertex -2.0000000000000004 -6.0 3.0
    vertex -5.5 -6.0 3.0
  endloop
endfacet
facet normal 0.0 -1.0 0.0
  outer loop
    vertex -5.5 -6.0 3.0
    vertex -2.0000000000000004 -6.0 3.0
    vertex -2.2344555433772317 -6.0 3.8749999999999987
  endloop
endfacet
facet normal 0.0 -1.0 0.0
  outer loop
    vertex -5.5 -6.0 3.0
    vertex -2.2344555433772317 -6.0 3.8749999999999987
    vertex -5.265544456622767 -6.0 3.875
  endloop
endfacet
facet normal 0.0 -1.0 0.0
  outer loop
    vertex -5.265544456622767 -6.0 3.875
    vertex -2.2344555433772317 -6.0 3.8749999999999987
    vertex -2.874999999999999 -6.0 4.515544456622767
  endloop
endfacet
facet normal 0.0 -1.0 0.0
  outer loop
    vertex -5.265544456622767 -6.0 3.875
    vertex -2.874999999999999 -6.0 4.515544456622767
    vertex -4.625 -6.0 4.515544456622767
  endloop
endfacet
facet normal 0.0 -1.0 0.0
  outer loop
    vertex -4.625 -6.0 4.515544456622767
    vertex -2.874999999999999 -6.0 4.515544456622767
    vertex -3.75 -6.0 4.75
  endloop
endfacet
facet normal 0.0 -1.0 0.0
  outer loop
    vertex -6.75 -6.0 1.4509618943233422
    vertex -8.25 -6.0 0.0
    vertex -6.75 -6.0 0.0
  endloop
endfacet
facet normal 0.0 -1.0 0.0
  outer loop
    vertex -8.25 -6.0 0.0
    vertex -6.75 -6.0 1.4509618943233422
    vertex -8.25 -6.0 1.4509618943233422
  endloop
endfacet
facet normal 0.0 -1.0 0.0
  outer loop
    vertex -8.25 -6.0 1.4509618943233422
    vertex -6.75 -6.0 1.4509618943233422
    vertex -6.625000000000001 -6.0 1.4844555433772324
  endloop
endfacet
facet normal 0.0 -1.0 0.0
  outer loop
    vertex -8.25 -6.0 1.4509618943233422
    vertex -6.625000000000001 -6.0 1.4844555433772324
    vertex -8.375 -6.0 1.4844555433772326
  endloop
endfacet
facet normal 0.0 -1.0 0.0
  outer loop
    vertex -8.375 -6.0 1.4844555433772326
    vertex -6.625000000000001 -6.0 1.4844555433772324
    vertex -5.9844555433772335 -6.0 2.1249999999999996
  endloop
endfacet
facet normal 0.0 -1.0 0.0
  outer loop
    vertex -8.375 -6.0 1.4844555433772326
    vertex -5.9844555433772335 -6.0 2.1249999999999996
    vertex -9.015544456622768 -6.0 2.1250000000000004
  endloop
endfacet
facet normal 0.0 -1.0 0.0
  outer loop
    vertex -9.015544456622768 -6.0 2.1250000000000004
    vertex -5.9844555433772335 -6.0 2.1249999999999996
    vertex -5.750000000000001 -6.0 3.0
  endloop
endfacet
facet normal 0.0 -1.0 0.0
  outer loop
    vertex -9.015544456622768 -6.0 2.1250000000000004
    vertex -5.750000000000001 -6.0 3.0
    vertex -9.25 -6.0 3.0
  endloop
endfacet
facet normal 0.0 -1.0 0.0
  outer loop
    vertex -9.25 -6.0 3.0
    vertex -5.750000000000001 -6.0 3.0
    vertex -5.984455543377232 -6.0 3.8749999999999987
  endloop
endfacet
facet normal 0.0 -1.0 0.0
  outer loop
    vertex -9.25 -6.0 3.0
    vertex -5.984455543377232 -6.0 3.8749999999999987
    vertex -9.015544456622768 -6.0 3.875
  endloop
endfacet
facet normal 0.0 -1.0 0.0
  outer loop
    vertex -9.015544456622768 -6.0 3.875
    vertex -5.984455543377232 -6.0 3.8749999999999987
    vertex -6.624999999999999 -6.0 4.515544456622767
  endloop
endfacet
facet normal 0.0 -1.0 0.0
  outer loop
    vertex -9.015544456622768 -6.0 3.875
    vertex -6.624999999999999 -6.0 4.515544456622767
    vertex -8.375 -6.0 4.515544456622767
  endloop
endfacet
facet normal 0.0 -1.0 0.0
  outer loop
    vertex -8.375 -6.0 4.515544456622767
    vertex -6.624999999999999 -6.0 4.515544456622767
    vertex -7.5 -6.0 4.75
  endloop
endfacet
facet normal 0.0 -1.0 0.0
  outer loop
    vertex -10.499999999999998 -6.0 1.4509618943233422
    vertex -12.0 -6.0 0.0
    vertex -10.499999999999998 -6.0 0.0
  endloop
endfacet
facet normal 0.0 -1.0 0.0
  outer loop
    vertex -12.0 -6.0 0.0
    vertex -10.499999999999998 -6.0 1.4509618943233422
    vertex -12.0 -6.0 1.4509618943233422
  endloop
endfacet
facet normal 0.0 -1.0 0.0
  outer loop
    vertex -12.0 -6.0 1.4509618943233422
    vertex -10.499999999999998 -6.0 1.4509618943233422
    vertex -10.375 -6.0 1.4844555433772324
  endloop
endfacet
facet normal 0.0 -1.0 0.0
  outer loop
    vertex -12.0 -6.0 1.4509618943233422
    vertex -10.375 -6.0 1.4844555433772324
    vertex -12.124999999999998 -6.0 1.4844555433772326
  endloop
endfacet
facet normal 0.0 -1.0 0.0
  outer loop
    vertex -12.124999999999998 -6.0 1.4844555433772326
    vertex -10.375 -6.0 1.4844555433772324
    vertex -9.734455543377232 -6.0 2.1249999999999996
  endloop
endfacet
facet normal 0.0 -1.0 0.0
  outer loop
    vertex -12.124999999999998 -6.0 1.4844555433772326
    vertex -9.734455543377232 -6.0 2.1249999999999996
    vertex -12.765544456622766 -6.0 2.1250000000000004
  endloop
endfacet
facet normal 0.0 -1.0 0.0
  outer loop
    vertex -12.765544456622766 -6.0 2.1250000000000004
    vertex -9.734455543377232 -6.0 2.1249999999999996
    vertex -9.5 -6.0 3.0
  endloop
endfacet
facet normal 0.0 -1.0 0.0
  outer loop
    vertex -12.765544456622766 -6.0 2.1250000000000004
    vertex -9.5 -6.0 3.0
    vertex -12.999999999999998 -6.0 3.0
  endloop
endfacet
facet normal 0.0 -1.0 0.0
  outer loop
    vertex -12.999999999999998 -6.0 3.0
    vertex -9.5 -6.0 3.0
    vertex -9.73445554337723 -6.0 3.8749999999999987
  endloop
endfacet
facet normal 0.0 -1.0 0.0
  outer loop
    vertex -12.999999999999998 -6.0 3.0
    vertex -9.73445554337723 -6.0 3.8749999999999987
    vertex -12.765544456622766 -6.0 3.875
  endloop
endfacet
facet normal 0.0 -1.0 0.0
  outer loop
    vertex -12.765544456622766 -6.0 3.875
    vertex -9.73445554337723 -6.0 3.8749999999999987
    vertex -10.374999999999998 -6.0 4.515544456622767
  endloop
endfacet
facet normal 0.0 -1.0 0.0
  outer loop
    vertex -12.765544456622766 -6.0 3.875
    vertex -10.374999999999998 -6.0 4.515544456622767
    vertex -12.124999999999998 -6.0 4.515544456622767
  endloop
endfacet
facet normal 0.0 -1.0 0.0
  outer loop
    vertex -12.124999999999998 -6.0 4.515544456622767
    vertex -10.374999999999998 -6.0 4.515544456622767
    vertex -11.25 -6.0 4.75
  endloop
endfacet
facet normal 0.0 -1.0 0.0
  outer loop
    vertex -14.249999999999996 -6.0 1.4509618943233422
    vertex -15.749999999999996 -6.0 0.0
    vertex -14.249999999999996 -6.0 0.0
  endloop
endfacet
facet normal 0.0 -1.0 0.0
  outer loop
    vertex -15.749999999999996 -6.0 0.0
    vertex -14.249999999999996 -6.0 1.4509618943233422
    vertex -15.749999999999996 -6.0 1.4509618943233422
  endloop
endfacet
facet normal 0.0 -1.0 0.0
  outer loop
    vertex -15.749999999999996 -6.0 1.4509618943233422
    vertex -14.249999999999996 -6.0 1.4509618943233422
    vertex -14.124999999999996 -6.0 1.4844555433772324
  endloop
endfacet
facet normal 0.0 -1.0 0.0
  outer loop
    vertex -15.749999999999996 -6.0 1.4509618943233422
    vertex -14.124999999999996 -6.0 1.4844555433772324
    vertex -15.875 -6.0 1.4844555433772326
  endloop
endfacet
facet normal 0.0 -1.0 0.0
  outer loop
    vertex -15.875 -6.0 1.4844555433772326
    vertex -14.124999999999996 -6.0 1.4844555433772324
    vertex -13.48445554337723 -6.0 2.1249999999999996
  endloop
endfacet
facet normal 0.0 -1.0 0.0
  outer loop
    vertex -15.875 -6.0 1.4844555433772326
    vertex -13.48445554337723 -6.0 2.1249999999999996
    vertex -16.515544456622766 -6.0 2.1250000000000004
  endloop
endfacet
facet normal 0.0 -1.0 0.0
  outer loop
    vertex -16.515544456622766 -6.0 2.1250000000000004
    vertex -13.48445554337723 -6.0 2.1249999999999996
    vertex -13.249999999999998 -6.0 3.0
  endloop
endfacet
facet normal 0.0 -1.0 0.0
  outer loop
    vertex -16.515544456622766 -6.0 2.1250000000000004
    vertex -13.249999999999998 -6.0 3.0
    vertex -16.749999999999996 -6.0 3.0
  endloop
endfacet
facet normal 0.0 -1.0 0.0
  outer loop
    vertex -16.749999999999996 -6.0 3.0
    vertex -13.249999999999998 -6.0 3.0
    vertex -13.48445554337723 -6.0 3.8749999999999987
  endloop
endfacet
facet normal 0.0 -1.0 0.0
  outer loop
    vertex -16.749999999999996 -6.0 3.0
    vertex -13.48445554337723 -6.0 3.8749999999999987
    vertex -16.515544456622766 -6.0 3.875
  endloop
endfacet
facet normal 0.0 -1.0 0.0
  outer loop
    vertex -16.515544456622766 -6.0 3.875
    vertex -13.48445554337723 -6.0 3.8749999999999987
    vertex -14.124999999999996 -6.0 4.515544456622767
  endloop
endfacet
facet normal 0.0 -1.0 0.0
  outer loop
    vertex -16.515544456622766 -6.0 3.875
    vertex -14.124999999999996 -6.0 4.515544456622767
    vertex -15.875 -6.0 4.515544456622767
  endloop
endfacet
facet normal 0.0 -1.0 0.0
  outer loop
    vertex -15.875 -6.0 4.515544456622767
    vertex -14.124999999999996 -6.0 4.515544456622767
    vertex -14.999999999999998 -6.0 4.75
  endloop
endfacet
facet normal 0.0 -1.0 0.0
  outer loop
    vertex 10.5 -6.0 0.0
    vertex -21.749999999999996 -6.0 -1.5
    vertex 10.5 -6.0 -1.5
  endloop
endfacet
facet normal 0.0 -1.0 0.0
  outer loop
    vertex -21.749999999999996 -6.0 -1.5
    vertex 10.5 -6.0 0.0
    vertex -21.749999999999996 -6.0 0.0
  endloop
endfacet
facet normal 0.0 -1.0 0.0
  outer loop
    vertex -21.749999999999996 -6.0 0.0
    vertex 10.5 -6.0 0.0
    vertex 4.5 -6.0 0.0
  endloop
endfacet
facet normal 0.0 -1.0 0.0
  outer loop
    vertex -21.749999999999996 -6.0 0.0
    vertex 4.5 -6.0 0.0
    vertex 3.0 -6.0 0.0
  endloop
endfacet
facet normal 0.0 -1.0 0.0
  outer loop
    vertex -21.749999999999996 -6.0 0.0
    vertex 3.0 -6.0 0.0
    vertex 0.75 -6.0 0.0
  endloop
endfacet
facet normal 0.0 -1.0 0.0
  outer loop
    vertex -21.749999999999996 -6.0 0.0
    vertex 0.75 -6.0 0.0
    vertex -0.75 -6.0 0.0
  endloop
endfacet
facet normal 0.0 -1.0 0.0
  outer loop
    vertex -21.749999999999996 -6.0 0.0
    vertex -0.75 -6.0 0.0
    vertex -3.0 -6.0 0.0
  endloop
endfacet
facet normal 0.0 -1.0 0.0
  outer loop
    vertex -21.749999999999996 -6.0 0.0
    vertex -3.0 -6.0 0.0
    vertex -4.5 -6.0 0.0
  endloop
endfacet
facet normal 0.0 -1.0 0.0
  outer loop
    vertex -21.749999999999996 -6.0 0.0
    vertex -4.5 -6.0 0.0
    vertex -6.75 -6.0 0.0
  endloop
endfacet
facet normal 0.0 -1.0 0.0
  outer loop
    vertex -21.749999999999996 -6.0 0.0
    vertex -6.75 -6.0 0.0
    vertex -8.25 -6.0 0.0
  endloop
endfacet
facet normal 0.0 -1.0 0.0
  outer loop
    vertex -21.749999999999996 -6.0 0.0
    vertex -8.25 -6.0 0.0
    vertex -10.499999999999998 -6.0 0.0
  endloop
endfacet
facet normal 0.0 -1.0 0.0
  outer loop
    vertex -21.749999999999996 -6.0 0.0
    vertex -10.499999999999998 -6.0 0.0
    vertex -12.0 -6.0 0.0
  endloop
endfacet
facet normal 0.0 -1.0 0.0
  outer loop
    vertex -21.749999999999996 -6.0 0.0
    vertex -12.0 -6.0 0.0
    vertex -14.249999999999996 -6.0 0.0
  endloop
endfacet
facet normal 0.0 -1.0 0.0
  outer loop
    vertex -21.749999999999996 -6.0 0.0
    vertex -14.249999999999996 -6.0 0.0
    vertex -15.749999999999996 -6.0 0.0
  endloop
endfacet
facet normal -1.0 -0.0 -0.0
  outer loop
    vertex -0.75 0.0 1.4509618943233422
    vertex -0.75 -6.0 0.0
    vertex -0.75 -6.0 1.4509618943233422
  endloop
endfacet
facet normal -1.0 -0.0 -0.0
  outer loop
    vertex -0.75 -6.0 0.0
    vertex -0.75 0.0 1.4509618943233422
    vertex -0.75 0.0 0.0
  endloop
endfacet
facet normal 0.0 0.0 1.0
  outer loop
    vertex -0.75 -6.0 0.0
    vertex -3.0 0.0 0.0
    vertex -3.0 -6.0 0.0
  endloop
endfacet
facet normal 0.0 0.0 1.0
  outer loop
    vertex -3.0 0.0 0.0
    vertex -0.75 -6.0 0.0
    vertex -0.75 0.0 0.0
  endloop
endfacet
facet normal 1.0 0.0 -0.0
  outer loop
    vertex -3.0 0.0 0.0
    vertex -3.0 -6.0 1.4509618943233422
    vertex -3.0 -6.0 0.0
  endloop
endfacet
facet normal 1.0 0.0 -0.0
  outer loop
    vertex -3.0 -6.0 1.4509618943233422
    vertex -3.0 0.0 0.0
    vertex -3.0 0.0 1.4509618943233422
  endloop
endfacet
facet normal 0.2588190451025208 0.0 -0.9659258262890684
  outer loop
    vertex -2.875 0.0 1.4844555433772324
    vertex -3.0 -6.0 1.4509618943233422
    vertex -3.0 0.0 1.4509618943233422
  endloop
endfacet
facet normal 0.2588190451025208 0.0 -0.9659258262890684
  outer loop
    vertex -3.0 -6.0 1.4509618943233422
    vertex -2.875 0.0 1.4844555433772324
    vertex -2.875 -6.0 1.4844555433772324
  endloop
endfacet
facet normal 0.7071067811865477 0.0 -0.7071067811865475
  outer loop
    vertex -2.875 0.0 1.4844555433772324
    vertex -2.234455543377233 -6.0 2.1249999999999996
    vertex -2.875 -6.0 1.4844555433772324
  endloop
endfacet
facet normal 0.7071067811865477 0.0 -0.7071067811865475
  outer loop
    vertex -2.234455543377233 -6.0 2.1249999999999996
    vertex -2.875 0.0 1.4844555433772324
    vertex -2.234455543377233 0.0 2.1249999999999996
  endloop
endfacet
facet normal 0.9659258262890683 0.0 -0.25881904510252074
  outer loop
    vertex -2.234455543377233 0.0 2.1249999999999996
    vertex -2.0000000000000004 -6.0 3.0
    vertex -2.234455543377233 -6.0 2.1249999999999996
  endloop
endfacet
facet normal 0.9659258262890683 0.0 -0.25881904510252074
  outer loop
    vertex -2.0000000000000004 -6.0 3.0
    vertex -2.234455543377233 0.0 2.1249999999999996
    vertex -2.0000000000000004 0.0 3.0
  endloop
endfacet
facet normal 0.9659258262890685 0.0 0.25881904510251985
  outer loop
    vertex -2.0000000000000004 0.0 3.0
    vertex -2.2344555433772317 -6.0 3.8749999999999987
    vertex -2.0000000000000004 -6.0 3.0
  endloop
endfacet
facet normal 0.9659258262890685 0.0 0.25881904510251985
  outer loop
    vertex -2.2344555433772317 -6.0 3.8749999999999987
    vertex -2.0000000000000004 0.0 3.0
    vertex -2.2344555433772317 0.0 3.8749999999999987
  endloop
endfacet
facet normal 0.7071067811865481 0.0 0.7071067811865469
  outer loop
    vertex -2.2344555433772317 0.0 3.8749999999999987
    vertex -2.874999999999999 -6.0 4.515544456622767
    vertex -2.2344555433772317 -6.0 3.8749999999999987
  endloop
endfacet
facet normal 0.7071067811865481 0.0 0.7071067811865469
  outer loop
    vertex -2.874999999999999 -6.0 4.515544456622767
    vertex -2.2344555433772317 0.0 3.8749999999999987
    vertex -2.874999999999999 0.0 4.515544456622767
  endloop
endfacet
facet normal 0.25881904510252063 0.0 0.9659258262890683
  outer loop
    vertex -2.874999999999999 -6.0 4.515544456622767
    vertex -3.75 0.0 4.75
    vertex -3.75 -6.0 4.75
  endloop
endfacet
facet normal 0.25881904510252063 0.0 0.9659258262890683
  outer loop
    vertex -3.75 0.0 4.75
    vertex -2.874999999999999 -6.0 4.515544456622767
    vertex -2.874999999999999 0.0 4.515544456622767
  endloop
endfacet
facet normal -0.25881904510252096 0.0 0.9659258262890683
  outer loop
    vertex -3.75 -6.0 4.75
    vertex -4.625 0.0 4.515544456622767
    vertex -4.625 -6.0 4.515544456622767
  endloop
endfacet
facet normal -0.25881904510252096 0.0 0.9659258262890683
  outer loop
    vertex -4.625 0.0 4.515544456622767
    vertex -3.75 -6.0 4.75
    vertex -3.75 0.0 4.75
  endloop
endfacet
facet normal -0.7071067811865476 0.0 0.7071067811865476
  outer loop
    vertex -4.625 0.0 4.515544456622767
    vertex -5.265544456622767 -6.0 3.875
    vertex -4.625 -6.0 4.515544456622767
  endloop
endfacet
facet normal -0.7071067811865476 0.0 0.7071067811865476
  outer loop
    vertex -5.265544456622767 -6.0 3.875
    vertex -4.625 0.0 4.515544456622767
    vertex -5.265544456622767 0.0 3.875
  endloop
endfacet
facet normal -0.9659258262890683 0.0 0.25881904510252096
  outer loop
    vertex -5.265544456622767 0.0 3.875
    vertex -5.5 -6.0 3.0
    vertex -5.265544456622767 -6.0 3.875
  endloop
endfacet
facet normal -0.9659258262890683 0.0 0.25881904510252096
  outer loop
    vertex -5.5 -6.0 3.0
    vertex -5.265544456622767 0.0 3.875
    vertex -5.5 0.0 3.0
  endloop
endfacet
facet normal -0.9659258262890683 -0.0 -0.25881904510252096
  outer loop
    vertex -5.5 0.0 3.0
    vertex -5.265544456622767 -6.0 2.1250000000000004
    vertex -5.5 -6.0 3.0
  endloop
endfacet
facet normal -0.9659258262890683 -0.0 -0.25881904510252096
  outer loop
    vertex -5.265544456622767 -6.0 2.1250000000000004
    vertex -5.5 0.0 3.0
    vertex -5.265544456622767 0.0 2.1250000000000004
  endloop
endfacet
facet normal -0.7071067811865477 -0.0 -0.7071067811865474
  outer loop
    vertex -5.265544456622767 0.0 2.1250000000000004
    vertex -4.625 -6.0 1.4844555433772326
    vertex -5.265544456622767 -6.0 2.1250000000000004
  endloop
endfacet
facet normal -0.7071067811865477 -0.0 -0.7071067811865474
  outer loop
    vertex -4.625 -6.0 1.4844555433772326
    vertex -5.265544456622767 0.0 2.1250000000000004
    vertex -4.625 0.0 1.4844555433772326
  endloop
endfacet
facet normal -0.25881904510252207 -0.0 -0.9659258262890681
  outer loop
    vertex -4.5 0.0 1.4509618943233422
    vertex -4.625 -6.0 1.4844555433772326
    vertex -4.625 0.0 1.4844555433772326
  endloop
endfacet
facet normal -0.25881904510252207 -0.0 -0.9659258262890681
  outer loop
    vertex -4.625 -6.0 1.4844555433772326
    vertex -4.5 0.0 1.4509618943233422
    vertex -4.5 -6.0 1.4509618943233422
  endloop
endfacet
facet normal -1.0 -0.0 -0.0
  outer loop
    vertex -4.5 0.0 1.4509618943233422
    vertex -4.5 -6.0 0.0
    vertex -4.5 -6.0 1.4509618943233422
  endloop
endfacet
facet normal -1.0 -0.0 -0.0
  outer loop
    vertex -4.5 -6.0 0.0
    vertex -4.5 0.0 1.4509618943233422
    vertex -4.5 0.0 0.0
  endloop
endfacet
facet normal 0.0 0.0 1.0
  outer loop
    vertex -4.5 -6.0 0.0
    vertex -6.75 0.0 0.0
    vertex -6.75 -6.0 0.0
  endloop
endfacet
facet normal 0.0 0.0 1.0
  outer loop
    vertex -6.75 0.0 0.0
    vertex -4.5 -6.0 0.0
    vertex -4.5 0.0 0.0
  endloop
endfacet
facet normal 1.0 0.0 -0.0
  outer loop
    vertex -6.75 0.0 0.0
    vertex -6.75 -6.0 1.4509618943233422
    vertex -6.75 -6.0 0.0
  endloop
endfacet
facet normal 1.0 0.0 -0.0
  outer loop
    vertex -6.75 -6.0 1.4509618943233422
    vertex -6.75 0.0 0.0
    vertex -6.75 0.0 1.4509618943233422
  endloop
endfacet
facet normal 0.2588190451025208 0.0 -0.9659258262890684
  outer loop
    vertex -6.625000000000001 0.0 1.4844555433772324
    vertex -6.75 -6.0 1.4509618943233422
    vertex -6.75 0.0 1.4509618943233422
  endloop
endfacet
facet normal 0.2588190451025208 0.0 -0.9659258262890684
  outer loop
    vertex -6.75 -6.0 1.4509618943233422
    vertex -6.625000000000001 0.0 1.4844555433772324
    vertex -6.625000000000001 -6.0 1.4844555433772324
  endloop
endfacet
facet normal 0.7071067811865475 0.0 -0.7071067811865476
  outer loop
    vertex -5.9844555433772335 0.0 2.1249999999999996
    vertex -6.625000000000001 -6.0 1.4844555433772324
    vertex -6.625000000000001 0.0 1.4844555433772324
  endloop
endfacet
facet normal 0.7071067811865475 0.0 -0.7071067811865476
  outer loop
    vertex -6.625000000000001 -6.0 1.4844555433772324
    vertex -5.9844555433772335 0.0 2.1249999999999996
    vertex -5.9844555433772335 -6.0 2.1249999999999996
  endloop
endfacet
facet normal 0.9659258262890683 0.0 -0.25881904510252074
  outer loop
    vertex -5.9844555433772335 0.0 2.1249999999999996
    vertex -5.750000000000001 -6.0 3.0
    vertex -5.9844555433772335 -6.0 2.1249999999999996
  endloop
endfacet
facet normal 0.9659258262890683 0.0 -0.25881904510252074
  outer loop
    vertex -5.750000000000001 -6.0 3.0
    vertex -5.9844555433772335 0.0 2.1249999999999996
    vertex -5.750000000000001 0.0 3.0
  endloop
endfacet
facet normal 0.9659258262890685 0.0 0.25881904510251985
  outer loop
    vertex -5.750000000000001 0.0 3.0
    vertex -5.984455543377232 -6.0 3.8749999999999987
    vertex -5.750000000000001 -6.0 3.0
  endloop
endfacet
facet normal 0.9659258262890685 0.0 0.25881904510251985
  outer loop
    vertex -5.984455543377232 -6.0 3.8749999999999987
    vertex -5.750000000000001 0.0 3.0
    vertex -5.984455543377232 0.0 3.8749999999999987
  endloop
endfacet
facet normal 0.7071067811865483 0.0 0.7071067811865468
  outer loop
    vertex -5.984455543377232 0.0 3.8749999999999987
    vertex -6.624999999999999 -6.0 4.515544456622767
    vertex -5.984455543377232 -6.0 3.8749999999999987
  endloop
endfacet
facet normal 0.7071067811865483 0.0 0.7071067811865468
  outer loop
    vertex -6.624999999999999 -6.0 4.515544456622767
    vertex -5.984455543377232 0.0 3.8749999999999987
    vertex -6.624999999999999 0.0 4.515544456622767
  endloop
endfacet
facet normal 0.2588190451025205 0.0 0.9659258262890684
  outer loop
    vertex -6.624999999999999 -6.0 4.515544456622767
    vertex -7.5 0.0 4.75
    vertex -7.5 -6.0 4.75
  endloop
endfacet
facet normal 0.2588190451025205 0.0 0.9659258262890684
  outer loop
    vertex -7.5 0.0 4.75
    vertex -6.624999999999999 -6.0 4.515544456622767
    vertex -6.624999999999999 0.0 4.515544456622767
  endloop
endfacet
facet normal -0.25881904510252096 0.0 0.9659258262890683
  outer loop
    vertex -7.5 -6.0 4.75
    vertex -8.375 0.0 4.515544456622767
    vertex -8.375 -6.0 4.515544456622767
  endloop
endfacet
facet normal -0.25881904510252096 0.0 0.9659258262890683
  outer loop
    vertex -8.375 0.0 4.515544456622767
    vertex -7.5 -6.0 4.75
    vertex -7.5 0.0 4.75
  endloop
endfacet
facet normal -0.7071067811865476 0.0 0.7071067811865476
  outer loop
    vertex -8.375 0.0 4.515544456622767
    vertex -9.015544456622768 -6.0 3.875
    vertex -8.375 -6.0 4.515544456622767
  endloop
endfacet
facet normal -0.7071067811865476 0.0 0.7071067811865476
  outer loop
    vertex -9.015544456622768 -6.0 3.875
    vertex -8.375 0.0 4.515544456622767
    vertex -9.015544456622768 0.0 3.875
  endloop
endfacet
facet normal -0.9659258262890683 0.0 0.25881904510252096
  outer loop
    vertex -9.015544456622768 0.0 3.875
    vertex -9.25 -6.0 3.0
    vertex -9.015544456622768 -6.0 3.875
  endloop
endfacet
facet normal -0.9659258262890683 0.0 0.25881904510252096
  outer loop
    vertex -9.25 -6.0 3.0
    vertex -9.015544456622768 0.0 3.875
    vertex -9.25 0.0 3.0
  endloop
endfacet
facet normal -0.9659258262890683 -0.0 -0.25881904510252096
  outer loop
    vertex -9.25 0.0 3.0
    vertex -9.015544456622768 -6.0 2.1250000000000004
    vertex -9.25 -6.0 3.0
  endloop
endfacet
facet normal -0.9659258262890683 -0.0 -0.25881904510252096
  outer loop
    vertex -9.015544456622768 -6.0 2.1250000000000004
    vertex -9.25 0.0 3.0
    vertex -9.015544456622768 0.0 2.1250000000000004
  endloop
endfacet
facet normal -0.7071067811865477 -0.0 -0.7071067811865474
  outer loop
    vertex -9.015544456622768 0.0 2.1250000000000004
    vertex -8.375 -6.0 1.4844555433772326
    vertex -9.015544456622768 -6.0 2.1250000000000004
  endloop
endfacet
facet normal -0.7071067811865477 -0.0 -0.7071067811865474
  outer loop
    vertex -8.375 -6.0 1.4844555433772326
    vertex -9.015544456622768 0.0 2.1250000000000004
    vertex -8.375 0.0 1.4844555433772326
  endloop
endfacet
facet normal -0.25881904510252207 -0.0 -0.9659258262890681
  outer loop
    vertex -8.25 0.0 1.4509618943233422
    vertex -8.375 -6.0 1.4844555433772326
    vertex -8.375 0.0 1.4844555433772326
  endloop
endfacet
facet normal -0.25881904510252207 -0.0 -0.9659258262890681
  outer loop
    vertex -8.375 -6.0 1.4844555433772326
    vertex -8.25 0.0 1.4509618943233422
    vertex -8.25 -6.0 1.4509618943233422
  endloop
endfacet
facet normal -1.0 -0.0 -0.0
  outer loop
    vertex -8.25 0.0 1.4509618943233422
    vertex -8.25 -6.0 0.0
    vertex -8.25 -6.0 1.4509618943233422
  endloop
endfacet
facet normal -1.0 -0.0 -0.0
  outer loop
    vertex -8.25 -6.0 0.0
    vertex -8.25 0.0 1.4509618943233422
    vertex -8.25 0.0 0.0
  endloop
endfacet
facet normal -0.0 -0.0 1.0
  outer loop
    vertex -8.25 -6.0 0.0
    vertex -10.499999999999998 0.0 0.0
    vertex -10.499999999999998 -6.0 0.0
  endloop
endfacet
facet normal -0.0 -0.0 1.0
  outer loop
    vertex -10.499999999999998 0.0 0.0
    vertex -8.25 -6.0 0.0
    vertex -8.25 0.0 0.0
  endloop
endfacet
facet normal 1.0 0.0 -0.0
  outer loop
    vertex -10.499999999999998 0.0 0.0
    vertex -10.499999999999998 -6.0 1.4509618943233422
    vertex -10.499999999999998 -6.0 0.0
  endloop
endfacet
facet normal 1.0 0.0 -0.0
  outer loop
    vertex -10.499999999999998 -6.0 1.4509618943233422
    vertex -10.499999999999998 0.0 0.0
    vertex -10.499999999999998 0.0 1.4509618943233422
  endloop
endfacet
facet normal 0.2588190451025208 0.0 -0.9659258262890684
  outer loop
    vertex -10.375 0.0 1.4844555433772324
    vertex -10.499999999999998 -6.0 1.4509618943233422
    vertex -10.499999999999998 0.0 1.4509618943233422
  endloop
endfacet
facet normal 0.2588190451025208 0.0 -0.9659258262890684
  outer loop
    vertex -10.499999999999998 -6.0 1.4509618943233422
    vertex -10.375 0.0 1.4844555433772324
    vertex -10.375 -6.0 1.4844555433772324
  endloop
endfacet
facet normal 0.7071067811865475 0.0 -0.7071067811865476
  outer loop
    vertex -9.734455543377232 0.0 2.1249999999999996
    vertex -10.375 -6.0 1.4844555433772324
    vertex -10.375 0.0 1.4844555433772324
  endloop
endfacet
facet normal 0.7071067811865475 0.0 -0.7071067811865476
  outer loop
    vertex -10.375 -6.0 1.4844555433772324
    vertex -9.734455543377232 0.0 2.1249999999999996
    vertex -9.734455543377232 -6.0 2.1249999999999996
  endloop
endfacet
facet normal 0.9659258262890683 0.0 -0.25881904510252074
  outer loop
    vertex -9.734455543377232 0.0 2.1249999999999996
    vertex -9.5 -6.0 3.0
    vertex -9.734455543377232 -6.0 2.1249999999999996
  endloop
endfacet
facet normal 0.9659258262890683 0.0 -0.25881904510252074
  outer loop
    vertex -9.5 -6.0 3.0
    vertex -9.734455543377232 0.0 2.1249999999999996
    vertex -9.5 0.0 3.0
  endloop
endfacet
facet normal 0.9659258262890685 0.0 0.25881904510251985
  outer loop
    vertex -9.5 0.0 3.0
    vertex -9.73445554337723 -6.0 3.8749999999999987
    vertex -9.5 -6.0 3.0
  endloop
endfacet
facet normal 0.9659258262890685 0.0 0.25881904510251985
  outer loop
    vertex -9.73445554337723 -6.0 3.8749999999999987
    vertex -9.5 0.0 3.0
    vertex -9.73445554337723 0.0 3.8749999999999987
  endloop
endfacet
facet normal 0.7071067811865483 0.0 0.7071067811865468
  outer loop
    vertex -9.73445554337723 0.0 3.8749999999999987
    vertex -10.374999999999998 -6.0 4.515544456622767
    vertex -9.73445554337723 -6.0 3.8749999999999987
  endloop
endfacet
facet normal 0.7071067811865483 0.0 0.7071067811865468
  outer loop
    vertex -10.374999999999998 -6.0 4.515544456622767
    vertex -9.73445554337723 0.0 3.8749999999999987
    vertex -10.374999999999998 0.0 4.515544456622767
  endloop
endfacet
facet normal 0.2588190451025205 0.0 0.9659258262890684
  outer loop
    vertex -10.374999999999998 -6.0 4.515544456622767
    vertex -11.25 0.0 4.75
    vertex -11.25 -6.0 4.75
  endloop
endfacet
facet normal 0.2588190451025205 0.0 0.9659258262890684
  outer loop
    vertex -11.25 0.0 4.75
    vertex -10.374999999999998 -6.0 4.515544456622767
    vertex -10.374999999999998 0.0 4.515544456622767
  endloop
endfacet
facet normal -0.25881904510252096 0.0 0.9659258262890683
  outer loop
    vertex -11.25 -6.0 4.75
    vertex -12.124999999999998 0.0 4.515544456622767
    vertex -12.124999999999998 -6.0 4.515544456622767
  endloop
endfacet
facet normal -0.25881904510252096 0.0 0.9659258262890683
  outer loop
    vertex -12.124999999999998 0.0 4.515544456622767
    vertex -11.25 -6.0 4.75
    vertex -11.25 0.0 4.75
  endloop
endfacet
facet normal -0.7071067811865476 0.0 0.7071067811865476
  outer loop
    vertex -12.124999999999998 0.0 4.515544456622767
    vertex -12.765544456622766 -6.0 3.875
    vertex -12.124999999999998 -6.0 4.515544456622767
  endloop
endfacet
facet normal -0.7071067811865476 0.0 0.7071067811865476
  outer loop
    vertex -12.765544456622766 -6.0 3.875
    vertex -12.124999999999998 0.0 4.515544456622767
    vertex -12.765544456622766 0.0 3.875
  endloop
endfacet
facet normal -0.9659258262890683 0.0 0.25881904510252096
  outer loop
    vertex -12.765544456622766 0.0 3.875
    vertex -12.999999999999998 -6.0 3.0
    vertex -12.765544456622766 -6.0 3.875
  endloop
endfacet
facet normal -0.9659258262890683 0.0 0.25881904510252096
  outer loop
    vertex -12.999999999999998 -6.0 3.0
    vertex -12.765544456622766 0.0 3.875
    vertex -12.999999999999998 0.0 3.0
  endloop
endfacet
facet normal -0.9659258262890683 -0.0 -0.25881904510252096
  outer loop
    vertex -12.999999999999998 0.0 3.0
    vertex -12.765544456622766 -6.0 2.1250000000000004
    vertex -12.999999999999998 -6.0 3.0
  endloop
endfacet
facet normal -0.9659258262890683 -0.0 -0.25881904510252096
  outer loop
    vertex -12.765544456622766 -6.0 2.1250000000000004
    vertex -12.999999999999998 0.0 3.0
    vertex -12.765544456622766 0.0 2.1250000000000004
  endloop
endfacet
facet normal -0.7071067811865477 -0.0 -0.7071067811865474
  outer loop
    vertex -12.765544456622766 0.0 2.1250000000000004
    vertex -12.124999999999998 -6.0 1.4844555433772326
    vertex -12.765544456622766 -6.0 2.1250000000000004
  endloop
endfacet
facet normal -0.7071067811865477 -0.0 -0.7071067811865474
  outer loop
    vertex -12.124999999999998 -6.0 1.4844555433772326
    vertex -12.765544456622766 0.0 2.1250000000000004
    vertex -12.124999999999998 0.0 1.4844555433772326
  endloop
endfacet
facet normal -0.25881904510252207 -0.0 -0.9659258262890681
  outer loop
    vertex -12.0 0.0 1.4509618943233422
    vertex -12.124999999999998 -6.0 1.4844555433772326
    vertex -12.124999999999998 0.0 1.4844555433772326
  endloop
endfacet
facet normal -0.25881904510252207 -0.0 -0.9659258262890681
  outer loop
    vertex -12.124999999999998 -6.0 1.4844555433772326
    vertex -12.0 0.0 1.4509618943233422
    vertex -12.0 -6.0 1.4509618943233422
  endloop
endfacet
facet normal -1.0 -0.0 -0.0
  outer loop
    vertex -12.0 0.0 1.4509618943233422
    vertex -12.0 -6.0 0.0
    vertex -12.0 -6.0 1.4509618943233422
  endloop
endfacet
facet normal -1.0 -0.0 -0.0
  outer loop
    vertex -12.0 -6.0 0.0
    vertex -12.0 0.0 1.4509618943233422
    vertex -12.0 0.0 0.0
  endloop
endfacet
facet normal -0.0 -0.0 1.0
  outer loop
    vertex -12.0 -6.0 0.0
    vertex -14.249999999999996 0.0 0.0
    vertex -14.249999999999996 -6.0 0.0
  endloop
endfacet
facet normal -0.0 -0.0 1.0
  outer loop
    vertex -14.249999999999996 0.0 0.0
    vertex -12.0 -6.0 0.0
    vertex -12.0 0.0 0.0
  endloop
endfacet
facet normal 1.0 0.0 -0.0
  outer loop
    vertex -14.249999999999996 0.0 0.0
    vertex -14.249999999999996 -6.0 1.4509618943233422
    vertex -14.249999999999996 -6.0 0.0
  endloop
endfacet
facet normal 1.0 0.0 -0.0
  outer loop
    vertex -14.249999999999996 -6.0 1.4509618943233422
    vertex -14.249999999999996 0.0 0.0
    vertex -14.249999999999996 0.0 1.4509618943233422
  endloop
endfacet
facet normal 0.2588190451025208 0.0 -0.9659258262890684
  outer loop
    vertex -14.124999999999996 0.0 1.4844555433772324
    vertex -14.249999999999996 -6.0 1.4509618943233422
    vertex -14.249999999999996 0.0 1.4509618943233422
  endloop
endfacet
facet normal 0.2588190451025208 0.0 -0.9659258262890684
  outer loop
    vertex -14.249999999999996 -6.0 1.4509618943233422
    vertex -14.124999999999996 0.0 1.4844555433772324
    vertex -14.124999999999996 -6.0 1.4844555433772324
  endloop
endfacet
facet normal 0.7071067811865482 0.0 -0.7071067811865469
  outer loop
    vertex -14.124999999999996 0.0 1.4844555433772324
    vertex -13.48445554337723 -6.0 2.1249999999999996
    vertex -14.124999999999996 -6.0 1.4844555433772324
  endloop
endfacet
facet normal 0.7071067811865482 0.0 -0.7071067811865469
  outer loop
    vertex -13.48445554337723 -6.0 2.1249999999999996
    vertex -14.124999999999996 0.0 1.4844555433772324
    vertex -13.48445554337723 0.0 2.1249999999999996
  endloop
endfacet
facet normal 0.9659258262890683 0.0 -0.25881904510252074
  outer loop
    vertex -13.48445554337723 0.0 2.1249999999999996
    vertex -13.249999999999998 -6.0 3.0
    vertex -13.48445554337723 -6.0 2.1249999999999996
  endloop
endfacet
facet normal 0.9659258262890683 0.0 -0.25881904510252074
  outer loop
    vertex -13.249999999999998 -6.0 3.0
    vertex -13.48445554337723 0.0 2.1249999999999996
    vertex -13.249999999999998 0.0 3.0
  endloop
endfacet
facet normal 0.9659258262890683 0.0 0.25881904510252135
  outer loop
    vertex -13.249999999999998 0.0 3.0
    vertex -13.48445554337723 -6.0 3.8749999999999987
    vertex -13.249999999999998 -6.0 3.0
  endloop
endfacet
facet normal 0.9659258262890683 0.0 0.25881904510252135
  outer loop
    vertex -13.48445554337723 -6.0 3.8749999999999987
    vertex -13.249999999999998 0.0 3.0
    vertex -13.48445554337723 0.0 3.8749999999999987
  endloop
endfacet
facet normal 0.7071067811865491 0.0 0.707106781186546
  outer loop
    vertex -13.48445554337723 0.0 3.8749999999999987
    vertex -14.124999999999996 -6.0 4.515544456622767
    vertex -13.48445554337723 -6.0 3.8749999999999987
  endloop
endfacet
facet normal 0.7071067811865491 0.0 0.707106781186546
  outer loop
    vertex -14.124999999999996 -6.0 4.515544456622767
    vertex -13.48445554337723 0.0 3.8749999999999987
    vertex -14.124999999999996 0.0 4.515544456622767
  endloop
endfacet
facet normal 0.2588190451025205 0.0 0.9659258262890684
  outer loop
    vertex -14.124999999999996 -6.0 4.515544456622767
    vertex -14.999999999999998 0.0 4.75
    vertex -14.999999999999998 -6.0 4.75
  endloop
endfacet
facet normal 0.2588190451025205 0.0 0.9659258262890684
  outer loop
    vertex -14.999999999999998 0.0 4.75
    vertex -14.124999999999996 -6.0 4.515544456622767
    vertex -14.124999999999996 0.0 4.515544456622767
  endloop
endfacet
facet normal -0.2588190451025205 0.0 0.9659258262890684
  outer loop
    vertex -14.999999999999998 -6.0 4.75
    vertex -15.875 0.0 4.515544456622767
    vertex -15.875 -6.0 4.515544456622767
  endloop
endfacet
facet normal -0.2588190451025205 0.0 0.9659258262890684
  outer loop
    vertex -15.875 0.0 4.515544456622767
    vertex -14.999999999999998 -6.0 4.75
    vertex -14.999999999999998 0.0 4.75
  endloop
endfacet
facet normal -0.7071067811865483 0.0 0.7071067811865468
  outer loop
    vertex -15.875 0.0 4.515544456622767
    vertex -16.515544456622766 -6.0 3.875
    vertex -15.875 -6.0 4.515544456622767
  endloop
endfacet
facet normal -0.7071067811865483 0.0 0.7071067811865468
  outer loop
    vertex -16.515544456622766 -6.0 3.875
    vertex -15.875 0.0 4.515544456622767
    vertex -16.515544456622766 0.0 3.875
  endloop
endfacet
facet normal -0.9659258262890683 0.0 0.25881904510252096
  outer loop
    vertex -16.515544456622766 0.0 3.875
    vertex -16.749999999999996 -6.0 3.0
    vertex -16.515544456622766 -6.0 3.875
  endloop
endfacet
facet normal -0.9659258262890683 0.0 0.25881904510252096
  outer loop
    vertex -16.749999999999996 -6.0 3.0
    vertex -16.515544456622766 0.0 3.875
    vertex -16.749999999999996 0.0 3.0
  endloop
endfacet
facet normal -0.9659258262890683 -0.0 -0.25881904510252096
  outer loop
    vertex -16.749999999999996 0.0 3.0
    vertex -16.515544456622766 -6.0 2.1250000000000004
    vertex -16.749999999999996 -6.0 3.0
  endloop
endfacet
facet normal -0.9659258262890683 -0.0 -0.25881904510252096
  outer loop
    vertex -16.515544456622766 -6.0 2.1250000000000004
    vertex -16.749999999999996 0.0 3.0
    vertex -16.515544456622766 0.0 2.1250000000000004
  endloop
endfacet
facet normal -0.7071067811865486 -0.0 -0.7071067811865466
  outer loop
    vertex -16.515544456622766 0.0 2.1250000000000004
    vertex -15.875 -6.0 1.4844555433772326
    vertex -16.515544456622766 -6.0 2.1250000000000004
  endloop
endfacet
facet normal -0.7071067811865486 -0.0 -0.7071067811865466
  outer loop
    vertex -15.875 -6.0 1.4844555433772326
    vertex -16.515544456622766 0.0 2.1250000000000004
    vertex -15.875 0.0 1.4844555433772326
  endloop
endfacet
facet normal -0.25881904510251663 -0.0 -0.9659258262890695
  outer loop
    vertex -15.749999999999996 0.0 1.4509618943233422
    vertex -15.875 -6.0 1.4844555433772326
    vertex -15.875 0.0 1.4844555433772326
  endloop
endfacet
facet normal -0.25881904510251663 -0.0 -0.9659258262890695
  outer loop
    vertex -15.875 -6.0 1.4844555433772326
    vertex -15.749999999999996 0.0 1.4509618943233422
    vertex -15.749999999999996 -6.0 1.4509618943233422
  endloop
endfacet
facet normal -1.0 -0.0 -0.0
  outer loop
    vertex -15.749999999999996 0.0 1.4509618943233422
    vertex -15.749999999999996 -6.0 0.0
    vertex -15.749999999999996 -6.0 1.4509618943233422
  endloop
endfacet
facet normal -1.0 -0.0 -0.0
  outer loop
    vertex -15.749999999999996 -6.0 0.0
    vertex -15.749999999999996 0.0 1.4509618943233422
    vertex -15.749999999999996 0.0 0.0
  endloop
endfacet
facet normal -0.0 -0.0 1.0
  outer loop
    vertex -21.749999999999996 -6.0 0.0
    vertex -20.049038105676654 -3.750000000000001 0.0
    vertex -21.749999999999996 0.0 0.0
  endloop
endfacet
facet normal -0.0 -0.0 1.0
  outer loop
    vertex -20.049038105676654 -3.750000000000001 0.0
    vertex -21.749999999999996 -6.0 0.0
    vertex -19.499999999999996 -4.299038105676659 0.0
  endloop
endfacet
facet normal -0.0 -0.0 1.0
  outer loop
    vertex -19.499999999999996 -4.299038105676659 0.0
    vertex -21.749999999999996 -6.0 0.0
    vertex -15.749999999999996 -6.0 0.0
  endloop
endfacet
facet normal -0.0 -0.0 1.0
  outer loop
    vertex -21.749999999999996 0.0 0.0
    vertex -20.049038105676654 -3.750000000000001 0.0
    vertex -20.249999999999996 -3.0000000000000004 0.0
  endloop
endfacet
facet normal -0.0 -0.0 1.0
  outer loop
    vertex -19.499999999999996 -4.299038105676659 0.0
    vertex -15.749999999999996 -6.0 0.0
    vertex -18.749999999999996 -4.5 0.0
  endloop
endfacet
facet normal -0.0 -0.0 1.0
  outer loop
    vertex -18.749999999999996 -4.5 0.0
    vertex -15.749999999999996 -6.0 0.0
    vertex -17.999999999999996 -4.299038105676657 0.0
  endloop
endfacet
facet normal -0.0 -0.0 1.0
  outer loop
    vertex -17.999999999999996 -4.299038105676657 0.0
    vertex -15.749999999999996 -6.0 0.0
    vertex -17.45096189432334 -3.7499999999999996 0.0
  endloop
endfacet
facet normal -0.0 -0.0 1.0
  outer loop
    vertex -17.45096189432334 -3.7499999999999996 0.0
    vertex -15.749999999999996 -6.0 0.0
    vertex -17.249999999999996 -3.0 0.0
  endloop
endfacet
facet normal -0.0 -0.0 1.0
  outer loop
    vertex -21.749999999999996 0.0 0.0
    vertex -19.499999999999996 -1.700961894323342 0.0
    vertex -15.749999999999996 0.0 0.0
  endloop
endfacet
facet normal -0.0 -0.0 1.0
  outer loop
    vertex -19.499999999999996 -1.700961894323342 0.0
    vertex -21.749999999999996 0.0 0.0
    vertex -20.049038105676654 -2.25 0.0
  endloop
endfacet
facet normal -0.0 -0.0 1.0
  outer loop
    vertex -20.049038105676654 -2.25 0.0
    vertex -21.749999999999996 0.0 0.0
    vertex -20.249999999999996 -3.0000000000000004 0.0
  endloop
endfacet
facet normal -0.0 -0.0 1.0
  outer loop
    vertex -15.749999999999996 0.0 0.0
    vertex -19.499999999999996 -1.700961894323342 0.0
    vertex -18.749999999999996 -1.5 0.0
  endloop
endfacet
facet normal -0.0 -0.0 1.0
  outer loop
    vertex -15.749999999999996 0.0 0.0
    vertex -18.749999999999996 -1.5 0.0
    vertex -17.999999999999996 -1.700961894323342 0.0
  endloop
endfacet
facet normal -0.0 -0.0 1.0
  outer loop
    vertex -15.749999999999996 0.0 0.0
    vertex -17.999999999999996 -1.700961894323342 0.0
    vertex -17.45096189432334 -2.25 0.0
  endloop
endfacet
facet normal -0.0 -0.0 1.0
  outer loop
    vertex -15.749999999999996 0.0 0.0
    vertex -17.45096189432334 -2.25 0.0
    vertex -17.249999999999996 -3.0 0.0
  endloop
endfacet
facet normal -0.0 -0.0 1.0
  outer loop
    vertex -15.749999999999996 0.0 0.0
    vertex -17.249999999999996 -3.0 0.0
    vertex -15.749999999999996 -6.0 0.0
  endloop
endfacet
facet normal -1.0 -0.0 -0.0
  outer loop
    vertex -21.749999999999996 0.0 0.0
    vertex -21.749999999999996 -6.0 -1.5
    vertex -21.749999999999996 -6.0 0.0
  endloop
endfacet
facet normal -1.0 -0.0 -0.0
  outer loop
    vertex -21.749999999999996 -6.0 -1.5
    vertex -21.749999999999996 0.0 0.0
    vertex -21.749999999999996 0.0 -1.5
  endloop
endfacet
facet normal 0.0 0.0 -1.0
  outer loop
    vertex -21.749999999999996 0.0 -1.5
    vertex -20.049038105676654 -2.25 -1.5
    vertex -21.749999999999996 -6.0 -1.5
  endloop
endfacet
facet normal 0.0 0.0 -1.0
  outer loop
    vertex -20.049038105676654 -2.25 -1.5
    vertex -21.749999999999996 0.0 -1.5
    vertex -19.499999999999996 -1.700961894323342 -1.5
  endloop
endfacet
facet normal 0.0 0.0 -1.0
  outer loop
    vertex -19.499999999999996 -1.700961894323342 -1.5
    vertex -21.749999999999996 0.0 -1.5
    vertex -18.749999999999996 -1.5 -1.5
  endloop
endfacet
facet normal 0.0 0.0 -1.0
  outer loop
    vertex -18.749999999999996 -1.5 -1.5
    vertex -21.749999999999996 0.0 -1.5
    vertex 10.5 0.0 -1.5
  endloop
endfacet
facet normal 0.0 0.0 -1.0
  outer loop
    vertex -21.749999999999996 -6.0 -1.5
    vertex -20.049038105676654 -2.25 -1.5
    vertex -20.249999999999996 -3.0000000000000004 -1.5
  endloop
endfacet
facet normal 0.0 0.0 -1.0
  outer loop
    vertex -18.749999999999996 -1.5 -1.5
    vertex 10.5 0.0 -1.5
    vertex -17.999999999999996 -1.700961894323342 -1.5
  endloop
endfacet
facet normal 0.0 0.0 -1.0
  outer loop
    vertex -17.999999999999996 -1.700961894323342 -1.5
    vertex 10.5 0.0 -1.5
    vertex -17.45096189432334 -2.25 -1.5
  endloop
endfacet
facet normal 0.0 0.0 -1.0
  outer loop
    vertex -17.45096189432334 -2.25 -1.5
    vertex 10.5 0.0 -1.5
    vertex -17.249999999999996 -3.0 -1.5
  endloop
endfacet
facet normal 0.0 0.0 -1.0
  outer loop
    vertex -17.249999999999996 -3.0 -1.5
    vertex 10.5 0.0 -1.5
    vertex 6.75 -1.700961894323342 -1.5
  endloop
endfacet
facet normal 0.0 0.0 -1.0
  outer loop
    vertex -17.249999999999996 -3.0 -1.5
    vertex 6.75 -1.700961894323342 -1.5
    vertex 6.200961894323342 -2.25 -1.5
  endloop
endfacet
facet normal 0.0 0.0 -1.0
  outer loop
    vertex -17.249999999999996 -3.0 -1.5
    vertex 6.200961894323342 -2.25 -1.5
    vertex 6.0 -3.0 -1.5
  endloop
endfacet
facet normal 0.0 0.0 -1.0
  outer loop
    vertex 6.75 -1.700961894323342 -1.5
    vertex 10.5 0.0 -1.5
    vertex 7.5 -1.5 -1.5
  endloop
endfacet
facet normal 0.0 0.0 -1.0
  outer loop
    vertex 7.5 -1.5 -1.5
    vertex 10.5 0.0 -1.5
    vertex 8.25 -1.700961894323342 -1.5
  endloop
endfacet
facet normal 0.0 0.0 -1.0
  outer loop
    vertex 8.25 -1.700961894323342 -1.5
    vertex 10.5 0.0 -1.5
    vertex 8.799038105676658 -2.25 -1.5
  endloop
endfacet
facet normal 0.0 0.0 -1.0
  outer loop
    vertex 8.799038105676658 -2.25 -1.5
    vertex 10.5 0.0 -1.5
    vertex 9.0 -3.0000000000000004 -1.5
  endloop
endfacet
facet normal 0.0 0.0 -1.0
  outer loop
    vertex -21.749999999999996 -6.0 -1.5
    vertex -18.749999999999996 -4.5 -1.5
    vertex 10.5 -6.0 -1.5
  endloop
endfacet
facet normal 0.0 0.0 -1.0
  outer loop
    vertex -18.749999999999996 -4.5 -1.5
    vertex -21.749999999999996 -6.0 -1.5
    vertex -19.499999999999996 -4.299038105676659 -1.5
  endloop
endfacet
facet normal 0.0 0.0 -1.0
  outer loop
    vertex -19.499999999999996 -4.299038105676659 -1.5
    vertex -21.749999999999996 -6.0 -1.5
    vertex -20.049038105676654 -3.750000000000001 -1.5
  endloop
endfacet
facet normal 0.0 0.0 -1.0
  outer loop
    vertex -20.049038105676654 -3.750000000000001 -1.5
    vertex -21.749999999999996 -6.0 -1.5
    vertex -20.249999999999996 -3.0000000000000004 -1.5
  endloop
endfacet
facet normal 0.0 0.0 -1.0
  outer loop
    vertex 10.5 -6.0 -1.5
    vertex -18.749999999999996 -4.5 -1.5
    vertex -17.999999999999996 -4.299038105676657 -1.5
  endloop
endfacet
facet normal 0.0 0.0 -1.0
  outer loop
    vertex 10.5 -6.0 -1.5
    vertex -17.999999999999996 -4.299038105676657 -1.5
    vertex -17.45096189432334 -3.7499999999999996 -1.5
  endloop
endfacet
facet normal 0.0 0.0 -1.0
  outer loop
    vertex 10.5 -6.0 -1.5
    vertex -17.45096189432334 -3.7499999999999996 -1.5
    vertex -17.249999999999996 -3.0 -1.5
  endloop
endfacet
facet normal 0.0 0.0 -1.0
  outer loop
    vertex 10.5 -6.0 -1.5
    vertex -17.249999999999996 -3.0 -1.5
    vertex 6.75 -4.299038105676657 -1.5
  endloop
endfacet
facet normal 0.0 0.0 -1.0
  outer loop
    vertex 6.75 -4.299038105676657 -1.5
    vertex -17.249999999999996 -3.0 -1.5
    vertex 6.200961894323342 -3.7499999999999996 -1.5
  endloop
endfacet
facet normal 0.0 0.0 -1.0
  outer loop
    vertex 6.200961894323342 -3.7499999999999996 -1.5
    vertex -17.249999999999996 -3.0 -1.5
    vertex 6.0 -3.0 -1.5
  endloop
endfacet
facet normal 0.0 0.0 -1.0
  outer loop
    vertex 10.5 -6.0 -1.5
    vertex 6.75 -4.299038105676657 -1.5
    vertex 7.499999999999999 -4.5 -1.5
  endloop
endfacet
facet normal 0.0 0.0 -1.0
  outer loop
    vertex 10.5 -6.0 -1.5
    vertex 7.499999999999999 -4.5 -1.5
    vertex 8.249999999999998 -4.299038105676659 -1.5
  endloop
endfacet
facet normal 0.0 0.0 -1.0
  outer loop
    vertex 10.5 -6.0 -1.5
    vertex 8.249999999999998 -4.299038105676659 -1.5
    vertex 8.799038105676658 -3.750000000000001 -1.5
  endloop
endfacet
facet normal 0.0 0.0 -1.0
  outer loop
    vertex 10.5 -6.0 -1.5
    vertex 8.799038105676658 -3.750000000000001 -1.5
    vertex 9.0 -3.0000000000000004 -1.5
  endloop
endfacet
facet normal 0.0 0.0 -1.0
  outer loop
    vertex 10.5 -6.0 -1.5
    vertex 9.0 -3.0000000000000004 -1.5
    vertex 10.5 0.0 -1.5
  endloop
endfacet
facet normal 1.0 0.0 -0.0
  outer loop
    vertex 10.5 0.0 -1.5
    vertex 10.5 -6.0 0.0
    vertex 10.5 -6.0 -1.5
  endloop
endfacet
facet normal 1.0 0.0 -0.0
  outer loop
    vertex 10.5 -6.0 0.0
    vertex 10.5 0.0 -1.5
    vertex 10.5 0.0 0.0
  endloop
endfacet
facet normal -0.0 -0.0 1.0
  outer loop
    vertex 4.5 -6.0 0.0
    vertex 6.200961894323342 -3.7499999999999996 0.0
    vertex 4.5 0.0 0.0
  endloop
endfacet
facet normal -0.0 -0.0 1.0
  outer loop
    vertex 6.200961894323342 -3.7499999999999996 0.0
    vertex 4.5 -6.0 0.0
    vertex 6.75 -4.299038105676657 0.0
  endloop
endfacet
facet normal -0.0 -0.0 1.0
  outer loop
    vertex 6.75 -4.299038105676657 0.0
    vertex 4.5 -6.0 0.0
    vertex 10.5 -6.0 0.0
  endloop
endfacet
facet normal -0.0 -0.0 1.0
  outer loop
    vertex 4.5 0.0 0.0
    vertex 6.200961894323342 -3.7499999999999996 0.0
    vertex 6.0 -3.0 0.0
  endloop
endfacet
facet normal -0.0 -0.0 1.0
  outer loop
    vertex 6.75 -4.299038105676657 0.0
    vertex 10.5 -6.0 0.0
    vertex 7.499999999999999 -4.5 0.0
  endloop
endfacet
facet normal -0.0 -0.0 1.0
  outer loop
    vertex 7.499999999999999 -4.5 0.0
    vertex 10.5 -6.0 0.0
    vertex 8.249999999999998 -4.299038105676659 0.0
  endloop
endfacet
facet normal -0.0 -0.0 1.0
  outer loop
    vertex 8.249999999999998 -4.299038105676659 0.0
    vertex 10.5 -6.0 0.0
    vertex 8.799038105676658 -3.750000000000001 0.0
  endloop
endfacet
facet normal -0.0 -0.0 1.0
  outer loop
    vertex 8.799038105676658 -3.750000000000001 0.0
    vertex 10.5 -6.0 0.0
    vertex 9.0 -3.0000000000000004 0.0
  endloop
endfacet
facet normal -0.0 -0.0 1.0
  outer loop
    vertex 4.5 0.0 0.0
    vertex 6.75 -1.700961894323342 0.0
    vertex 10.5 0.0 0.0
  endloop
endfacet
facet normal -0.0 -0.0 1.0
  outer loop
    vertex 6.75 -1.700961894323342 0.0
    vertex 4.5 0.0 0.0
    vertex 6.200961894323342 -2.25 0.0
  endloop
endfacet
facet normal -0.0 -0.0 1.0
  outer loop
    vertex 6.200961894323342 -2.25 0.0
    vertex 4.5 0.0 0.0
    vertex 6.0 -3.0 0.0
  endloop
endfacet
facet normal -0.0 -0.0 1.0
  outer loop
    vertex 10.5 0.0 0.0
    vertex 6.75 -1.700961894323342 0.0
    vertex 7.5 -1.5 0.0
  endloop
endfacet
facet normal -0.0 -0.0 1.0
  outer loop
    vertex 10.5 0.0 0.0
    vertex 7.5 -1.5 0.0
    vertex 8.25 -1.700961894323342 0.0
  endloop
endfacet
facet normal -0.0 -0.0 1.0
  outer loop
    vertex 10.5 0.0 0.0
    vertex 8.25 -1.700961894323342 0.0
    vertex 8.799038105676658 -2.25 0.0
  endloop
endfacet
facet normal -0.0 -0.0 1.0
  outer loop
    vertex 10.5 0.0 0.0
    vertex 8.799038105676658 -2.25 0.0
    vertex 9.0 -3.0000000000000004 0.0
  endloop
endfacet
facet normal -0.0 -0.0 1.0
  outer loop
    vertex 10.5 0.0 0.0
    vertex 9.0 -3.0000000000000004 0.0
    vertex 10.5 -6.0 0.0
  endloop
endfacet
facet normal 1.0 0.0 -0.0
  outer loop
    vertex 4.5 0.0 0.0
    vertex 4.5 -6.0 1.4509618943233422
    vertex 4.5 -6.0 0.0
  endloop
endfacet
facet normal 1.0 0.0 -0.0
  outer loop
    vertex 4.5 -6.0 1.4509618943233422
    vertex 4.5 0.0 0.0
    vertex 4.5 0.0 1.4509618943233422
  endloop
endfacet
facet normal 0.2588190451025208 0.0 -0.9659258262890684
  outer loop
    vertex 4.625 0.0 1.4844555433772324
    vertex 4.5 -6.0 1.4509618943233422
    vertex 4.5 0.0 1.4509618943233422
  endloop
endfacet
facet normal 0.2588190451025208 0.0 -0.9659258262890684
  outer loop
    vertex 4.5 -6.0 1.4509618943233422
    vertex 4.625 0.0 1.4844555433772324
    vertex 4.625 -6.0 1.4844555433772324
  endloop
endfacet
facet normal 0.7071067811865475 0.0 -0.7071067811865476
  outer loop
    vertex 5.265544456622767 0.0 2.1249999999999996
    vertex 4.625 -6.0 1.4844555433772324
    vertex 4.625 0.0 1.4844555433772324
  endloop
endfacet
facet normal 0.7071067811865475 0.0 -0.7071067811865476
  outer loop
    vertex 4.625 -6.0 1.4844555433772324
    vertex 5.265544456622767 0.0 2.1249999999999996
    vertex 5.265544456622767 -6.0 2.1249999999999996
  endloop
endfacet
facet normal 0.9659258262890683 0.0 -0.25881904510252074
  outer loop
    vertex 5.265544456622767 0.0 2.1249999999999996
    vertex 5.5 -6.0 3.0
    vertex 5.265544456622767 -6.0 2.1249999999999996
  endloop
endfacet
facet normal 0.9659258262890683 0.0 -0.25881904510252074
  outer loop
    vertex 5.5 -6.0 3.0
    vertex 5.265544456622767 0.0 2.1249999999999996
    vertex 5.5 0.0 3.0
  endloop
endfacet
facet normal 0.9659258262890685 0.0 0.25881904510251985
  outer loop
    vertex 5.5 0.0 3.0
    vertex 5.265544456622769 -6.0 3.8749999999999987
    vertex 5.5 -6.0 3.0
  endloop
endfacet
facet normal 0.9659258262890685 0.0 0.25881904510251985
  outer loop
    vertex 5.265544456622769 -6.0 3.8749999999999987
    vertex 5.5 0.0 3.0
    vertex 5.265544456622769 0.0 3.8749999999999987
  endloop
endfacet
facet normal 0.7071067811865479 0.0 0.7071067811865471
  outer loop
    vertex 5.265544456622769 0.0 3.8749999999999987
    vertex 4.625000000000001 -6.0 4.515544456622767
    vertex 5.265544456622769 -6.0 3.8749999999999987
  endloop
endfacet
facet normal 0.7071067811865479 0.0 0.7071067811865471
  outer loop
    vertex 4.625000000000001 -6.0 4.515544456622767
    vertex 5.265544456622769 0.0 3.8749999999999987
    vertex 4.625000000000001 0.0 4.515544456622767
  endloop
endfacet
facet normal 0.25881904510252074 0.0 0.9659258262890683
  outer loop
    vertex 4.625000000000001 -6.0 4.515544456622767
    vertex 3.75 0.0 4.75
    vertex 3.75 -6.0 4.75
  endloop
endfacet
facet normal 0.25881904510252074 0.0 0.9659258262890683
  outer loop
    vertex 3.75 0.0 4.75
    vertex 4.625000000000001 -6.0 4.515544456622767
    vertex 4.625000000000001 0.0 4.515544456622767
  endloop
endfacet
facet normal -0.25881904510252085 0.0 0.9659258262890683
  outer loop
    vertex 3.75 -6.0 4.75
    vertex 2.875 0.0 4.515544456622767
    vertex 2.875 -6.0 4.515544456622767
  endloop
endfacet
facet normal -0.25881904510252085 0.0 0.9659258262890683
  outer loop
    vertex 2.875 0.0 4.515544456622767
    vertex 3.75 -6.0 4.75
    vertex 3.75 0.0 4.75
  endloop
endfacet
facet normal -0.7071067811865474 0.0 0.7071067811865477
  outer loop
    vertex 2.875 -6.0 4.515544456622767
    vertex 2.234455543377232 0.0 3.875
    vertex 2.234455543377232 -6.0 3.875
  endloop
endfacet
facet normal -0.7071067811865474 0.0 0.7071067811865477
  outer loop
    vertex 2.234455543377232 0.0 3.875
    vertex 2.875 -6.0 4.515544456622767
    vertex 2.875 0.0 4.515544456622767
  endloop
endfacet
facet normal -0.9659258262890683 0.0 0.2588190451025206
  outer loop
    vertex 2.234455543377232 0.0 3.875
    vertex 2.0 -6.0 3.0
    vertex 2.234455543377232 -6.0 3.875
  endloop
endfacet
facet normal -0.9659258262890683 0.0 0.2588190451025206
  outer loop
    vertex 2.0 -6.0 3.0
    vertex 2.234455543377232 0.0 3.875
    vertex 2.0 0.0 3.0
  endloop
endfacet
facet normal -0.9659258262890683 -0.0 -0.2588190451025206
  outer loop
    vertex 2.0 0.0 3.0
    vertex 2.234455543377232 -6.0 2.1250000000000004
    vertex 2.0 -6.0 3.0
  endloop
endfacet
facet normal -0.9659258262890683 -0.0 -0.2588190451025206
  outer loop
    vertex 2.234455543377232 -6.0 2.1250000000000004
    vertex 2.0 0.0 3.0
    vertex 2.234455543377232 0.0 2.1250000000000004
  endloop
endfacet
facet normal -0.7071067811865476 -0.0 -0.7071067811865476
  outer loop
    vertex 2.234455543377232 0.0 2.1250000000000004
    vertex 2.875 -6.0 1.4844555433772326
    vertex 2.234455543377232 -6.0 2.1250000000000004
  endloop
endfacet
facet normal -0.7071067811865476 -0.0 -0.7071067811865476
  outer loop
    vertex 2.875 -6.0 1.4844555433772326
    vertex 2.234455543377232 0.0 2.1250000000000004
    vertex 2.875 0.0 1.4844555433772326
  endloop
endfacet
facet normal -0.2588190451025214 -0.0 -0.9659258262890682
  outer loop
    vertex 3.0 0.0 1.4509618943233422
    vertex 2.875 -6.0 1.4844555433772326
    vertex 2.875 0.0 1.4844555433772326
  endloop
endfacet
facet normal -0.2588190451025214 -0.0 -0.9659258262890682
  outer loop
    vertex 2.875 -6.0 1.4844555433772326
    vertex 3.0 0.0 1.4509618943233422
    vertex 3.0 -6.0 1.4509618943233422
  endloop
endfacet
facet normal -1.0 -0.0 -0.0
  outer loop
    vertex 3.0 0.0 1.4509618943233422
    vertex 3.0 -6.0 0.0
    vertex 3.0 -6.0 1.4509618943233422
  endloop
endfacet
facet normal -1.0 -0.0 -0.0
  outer loop
    vertex 3.0 -6.0 0.0
    vertex 3.0 0.0 1.4509618943233422
    vertex 3.0 0.0 0.0
  endloop
endfacet
facet normal 0.0 0.0 1.0
  outer loop
    vertex 3.0 -6.0 0.0
    vertex 0.75 0.0 0.0
    vertex 0.75 -6.0 0.0
  endloop
endfacet
facet normal 0.0 0.0 1.0
  outer loop
    vertex 0.75 0.0 0.0
    vertex 3.0 -6.0 0.0
    vertex 3.0 0.0 0.0
  endloop
endfacet
facet normal 1.0 0.0 -0.0
  outer loop
    vertex 0.75 0.0 0.0
    vertex 0.75 -6.0 1.4509618943233422
    vertex 0.75 -6.0 0.0
  endloop
endfacet
facet normal 1.0 0.0 -0.0
  outer loop
    vertex 0.75 -6.0 1.4509618943233422
    vertex 0.75 0.0 0.0
    vertex 0.75 0.0 1.4509618943233422
  endloop
endfacet
facet normal 0.2588190451025208 0.0 -0.9659258262890684
  outer loop
    vertex 0.8749999999999998 0.0 1.4844555433772324
    vertex 0.75 -6.0 1.4509618943233422
    vertex 0.75 0.0 1.4509618943233422
  endloop
endfacet
facet normal 0.2588190451025208 0.0 -0.9659258262890684
  outer loop
    vertex 0.75 -6.0 1.4509618943233422
    vertex 0.8749999999999998 0.0 1.4844555433772324
    vertex 0.8749999999999998 -6.0 1.4844555433772324
  endloop
endfacet
facet normal 0.7071067811865477 0.0 -0.7071067811865475
  outer loop
    vertex 0.8749999999999998 0.0 1.4844555433772324
    vertex 1.5155444566227667 -6.0 2.1249999999999996
    vertex 0.8749999999999998 -6.0 1.4844555433772324
  endloop
endfacet
facet normal 0.7071067811865477 0.0 -0.7071067811865475
  outer loop
    vertex 1.5155444566227667 -6.0 2.1249999999999996
    vertex 0.8749999999999998 0.0 1.4844555433772324
    vertex 1.5155444566227667 0.0 2.1249999999999996
  endloop
endfacet
facet normal 0.9659258262890683 0.0 -0.25881904510252074
  outer loop
    vertex 1.5155444566227667 0.0 2.1249999999999996
    vertex 1.7499999999999993 -6.0 3.0
    vertex 1.5155444566227667 -6.0 2.1249999999999996
  endloop
endfacet
facet normal 0.9659258262890683 0.0 -0.25881904510252074
  outer loop
    vertex 1.7499999999999993 -6.0 3.0
    vertex 1.5155444566227667 0.0 2.1249999999999996
    vertex 1.7499999999999993 0.0 3.0
  endloop
endfacet
facet normal 0.9659258262890685 0.0 0.25881904510251985
  outer loop
    vertex 1.7499999999999993 0.0 3.0
    vertex 1.5155444566227683 -6.0 3.8749999999999987
    vertex 1.7499999999999993 -6.0 3.0
  endloop
endfacet
facet normal 0.9659258262890685 0.0 0.25881904510251985
  outer loop
    vertex 1.5155444566227683 -6.0 3.8749999999999987
    vertex 1.7499999999999993 0.0 3.0
    vertex 1.5155444566227683 0.0 3.8749999999999987
  endloop
endfacet
facet normal 0.7071067811865481 0.0 0.7071067811865469
  outer loop
    vertex 1.5155444566227683 0.0 3.8749999999999987
    vertex 0.8750000000000006 -6.0 4.515544456622767
    vertex 1.5155444566227683 -6.0 3.8749999999999987
  endloop
endfacet
facet normal 0.7071067811865481 0.0 0.7071067811865469
  outer loop
    vertex 0.8750000000000006 -6.0 4.515544456622767
    vertex 1.5155444566227683 0.0 3.8749999999999987
    vertex 0.8750000000000006 0.0 4.515544456622767
  endloop
endfacet
facet normal 0.25881904510252074 0.0 0.9659258262890683
  outer loop
    vertex 0.8750000000000006 -6.0 4.515544456622767
    vertex 0.0 0.0 4.75
    vertex 0.0 -6.0 4.75
  endloop
endfacet
facet normal 0.25881904510252074 0.0 0.9659258262890683
  outer loop
    vertex 0.0 0.0 4.75
    vertex 0.8750000000000006 -6.0 4.515544456622767
    vertex 0.8750000000000006 0.0 4.515544456622767
  endloop
endfacet
facet normal -0.25881904510252085 0.0 0.9659258262890683
  outer loop
    vertex 0.0 -6.0 4.75
    vertex -0.8750000000000001 0.0 4.515544456622767
    vertex -0.8750000000000001 -6.0 4.515544456622767
  endloop
endfacet
facet normal -0.25881904510252085 0.0 0.9659258262890683
  outer loop
    vertex -0.8750000000000001 0.0 4.515544456622767
    vertex 0.0 -6.0 4.75
    vertex 0.0 0.0 4.75
  endloop
endfacet
facet normal -0.7071067811865474 0.0 0.7071067811865477
  outer loop
    vertex -0.8750000000000001 -6.0 4.515544456622767
    vertex -1.5155444566227678 0.0 3.875
    vertex -1.5155444566227678 -6.0 3.875
  endloop
endfacet
facet normal -0.7071067811865474 0.0 0.7071067811865477
  outer loop
    vertex -1.5155444566227678 0.0 3.875
    vertex -0.8750000000000001 -6.0 4.515544456622767
    vertex -0.8750000000000001 0.0 4.515544456622767
  endloop
endfacet
facet normal -0.9659258262890683 0.0 0.2588190451025206
  outer loop
    vertex -1.5155444566227678 0.0 3.875
    vertex -1.75 -6.0 3.0
    vertex -1.5155444566227678 -6.0 3.875
  endloop
endfacet
facet normal -0.9659258262890683 0.0 0.2588190451025206
  outer loop
    vertex -1.75 -6.0 3.0
    vertex -1.5155444566227678 0.0 3.875
    vertex -1.75 0.0 3.0
  endloop
endfacet
facet normal -0.9659258262890683 -0.0 -0.2588190451025206
  outer loop
    vertex -1.75 0.0 3.0
    vertex -1.5155444566227678 -6.0 2.1250000000000004
    vertex -1.75 -6.0 3.0
  endloop
endfacet
facet normal -0.9659258262890683 -0.0 -0.2588190451025206
  outer loop
    vertex -1.5155444566227678 -6.0 2.1250000000000004
    vertex -1.75 0.0 3.0
    vertex -1.5155444566227678 0.0 2.1250000000000004
  endloop
endfacet
facet normal -0.7071067811865476 -0.0 -0.7071067811865476
  outer loop
    vertex -1.5155444566227678 0.0 2.1250000000000004
    vertex -0.8750000000000001 -6.0 1.4844555433772326
    vertex -1.5155444566227678 -6.0 2.1250000000000004
  endloop
endfacet
facet normal -0.7071067811865476 -0.0 -0.7071067811865476
  outer loop
    vertex -0.8750000000000001 -6.0 1.4844555433772326
    vertex -1.5155444566227678 0.0 2.1250000000000004
    vertex -0.8750000000000001 0.0 1.4844555433772326
  endloop
endfacet
facet normal -0.2588190451025214 -0.0 -0.9659258262890682
  outer loop
    vertex -0.75 0.0 1.4509618943233422
    vertex -0.8750000000000001 -6.0 1.4844555433772326
    vertex -0.8750000000000001 0.0 1.4844555433772326
  endloop
endfacet
facet normal -0.2588190451025214 -0.0 -0.9659258262890682
  outer loop
    vertex -0.8750000000000001 -6.0 1.4844555433772326
    vertex -0.75 0.0 1.4509618943233422
    vertex -0.75 -6.0 1.4509618943233422
  endloop
endfacet
facet normal 0.9659258262890685 -0.2588190451025198 -0.0
  outer loop
    vertex -20.049038105676654 -2.25 -1.5
    vertex -20.249999999999996 -3.0000000000000004 0.0
    vertex -20.249999999999996 -3.0000000000000004 -1.5
  endloop
endfacet
facet normal 0.9659258262890685 -0.2588190451025198 -0.0
  outer loop
    vertex -20.249999999999996 -3.0000000000000004 0.0
    vertex -20.049038105676654 -2.25 -1.5
    vertex -20.049038105676654 -2.25 0.0
  endloop
endfacet
facet normal 0.9659258262890685 0.2588190451025198 0.0
  outer loop
    vertex -20.249999999999996 -3.0000000000000004 -1.5
    vertex -20.049038105676654 -3.750000000000001 0.0
    vertex -20.049038105676654 -3.750000000000001 -1.5
  endloop
endfacet
facet normal 0.9659258262890685 0.2588190451025198 0.0
  outer loop
    vertex -20.049038105676654 -3.750000000000001 0.0
    vertex -20.249999999999996 -3.0000000000000004 -1.5
    vertex -20.249999999999996 -3.0000000000000004 0.0
  endloop
endfacet
facet normal 0.7071067811865461 0.7071067811865489 0.0
  outer loop
    vertex -20.049038105676654 -3.750000000000001 0.0
    vertex -19.499999999999996 -4.299038105676659 -1.5
    vertex -20.049038105676654 -3.750000000000001 -1.5
  endloop
endfacet
facet normal 0.7071067811865461 0.7071067811865489 0.0
  outer loop
    vertex -19.499999999999996 -4.299038105676659 -1.5
    vertex -20.049038105676654 -3.750000000000001 0.0
    vertex -19.499999999999996 -4.299038105676659 0.0
  endloop
endfacet
facet normal 0.25881904510252035 0.9659258262890684 0.0
  outer loop
    vertex -19.499999999999996 -4.299038105676659 0.0
    vertex -18.749999999999996 -4.5 -1.5
    vertex -19.499999999999996 -4.299038105676659 -1.5
  endloop
endfacet
facet normal 0.25881904510252035 0.9659258262890684 0.0
  outer loop
    vertex -18.749999999999996 -4.5 -1.5
    vertex -19.499999999999996 -4.299038105676659 0.0
    vertex -18.749999999999996 -4.5 0.0
  endloop
endfacet
facet normal -0.25881904510252113 0.9659258262890683 -0.0
  outer loop
    vertex -18.749999999999996 -4.5 0.0
    vertex -17.999999999999996 -4.299038105676657 -1.5
    vertex -18.749999999999996 -4.5 -1.5
  endloop
endfacet
facet normal -0.25881904510252113 0.9659258262890683 -0.0
  outer loop
    vertex -17.999999999999996 -4.299038105676657 -1.5
    vertex -18.749999999999996 -4.5 0.0
    vertex -17.999999999999996 -4.299038105676657 0.0
  endloop
endfacet
facet normal -0.707106781186548 0.7071067811865471 -0.0
  outer loop
    vertex -17.45096189432334 -3.7499999999999996 0.0
    vertex -17.999999999999996 -4.299038105676657 -1.5
    vertex -17.999999999999996 -4.299038105676657 0.0
  endloop
endfacet
facet normal -0.707106781186548 0.7071067811865471 -0.0
  outer loop
    vertex -17.999999999999996 -4.299038105676657 -1.5
    vertex -17.45096189432334 -3.7499999999999996 0.0
    vertex -17.45096189432334 -3.7499999999999996 -1.5
  endloop
endfacet
facet normal -0.9659258262890684 0.25881904510252013 -0.0
  outer loop
    vertex -17.249999999999996 -3.0 0.0
    vertex -17.45096189432334 -3.7499999999999996 -1.5
    vertex -17.45096189432334 -3.7499999999999996 0.0
  endloop
endfacet
facet normal -0.9659258262890684 0.25881904510252013 -0.0
  outer loop
    vertex -17.45096189432334 -3.7499999999999996 -1.5
    vertex -17.249999999999996 -3.0 0.0
    vertex -17.249999999999996 -3.0 -1.5
  endloop
endfacet
facet normal -0.9659258262890685 -0.2588190451025199 -0.0
  outer loop
    vertex -17.45096189432334 -2.25 0.0
    vertex -17.249999999999996 -3.0 -1.5
    vertex -17.249999999999996 -3.0 0.0
  endloop
endfacet
facet normal -0.9659258262890685 -0.2588190451025199 -0.0
  outer loop
    vertex -17.249999999999996 -3.0 -1.5
    vertex -17.45096189432334 -2.25 0.0
    vertex -17.45096189432334 -2.25 -1.5
  endloop
endfacet
facet normal -0.7071067811865461 -0.7071067811865489 -0.0
  outer loop
    vertex -17.45096189432334 -2.25 0.0
    vertex -17.999999999999996 -1.700961894323342 -1.5
    vertex -17.45096189432334 -2.25 -1.5
  endloop
endfacet
facet normal -0.7071067811865461 -0.7071067811865489 -0.0
  outer loop
    vertex -17.999999999999996 -1.700961894323342 -1.5
    vertex -17.45096189432334 -2.25 0.0
    vertex -17.999999999999996 -1.700961894323342 0.0
  endloop
endfacet
facet normal -0.2588190451025212 -0.9659258262890682 -0.0
  outer loop
    vertex -17.999999999999996 -1.700961894323342 0.0
    vertex -18.749999999999996 -1.5 -1.5
    vertex -17.999999999999996 -1.700961894323342 -1.5
  endloop
endfacet
facet normal -0.2588190451025212 -0.9659258262890682 -0.0
  outer loop
    vertex -18.749999999999996 -1.5 -1.5
    vertex -17.999999999999996 -1.700961894323342 0.0
    vertex -18.749999999999996 -1.5 0.0
  endloop
endfacet
facet normal 0.2588190451025212 -0.9659258262890682 -0.0
  outer loop
    vertex -18.749999999999996 -1.5 0.0
    vertex -19.499999999999996 -1.700961894323342 -1.5
    vertex -18.749999999999996 -1.5 -1.5
  endloop
endfacet
facet normal 0.2588190451025212 -0.9659258262890682 -0.0
  outer loop
    vertex -19.499999999999996 -1.700961894323342 -1.5
    vertex -18.749999999999996 -1.5 0.0
    vertex -19.499999999999996 -1.700961894323342 0.0
  endloop
endfacet
facet normal 0.7071067811865461 -0.7071067811865489 -0.0
  outer loop
    vertex -19.499999999999996 -1.700961894323342 0.0
    vertex -20.049038105676654 -2.25 -1.5
    vertex -19.499999999999996 -1.700961894323342 -1.5
  endloop
endfacet
facet normal 0.7071067811865461 -0.7071067811865489 -0.0
  outer loop
    vertex -20.049038105676654 -2.25 -1.5
    vertex -19.499999999999996 -1.700961894323342 0.0
    vertex -20.049038105676654 -2.25 0.0
  endloop
endfacet
facet normal -0.9659258262890682 0.2588190451025215 -0.0
  outer loop
    vertex 9.0 -3.0000000000000004 0.0
    vertex 8.799038105676658 -3.750000000000001 -1.5
    vertex 8.799038105676658 -3.750000000000001 0.0
  endloop
endfacet
facet normal -0.9659258262890682 0.2588190451025215 -0.0
  outer loop
    vertex 8.799038105676658 -3.750000000000001 -1.5
    vertex 9.0 -3.0000000000000004 0.0
    vertex 9.0 -3.0000000000000004 -1.5
  endloop
endfacet
facet normal -0.9659258262890682 -0.2588190451025215 -0.0
  outer loop
    vertex 8.799038105676658 -2.25 0.0
    vertex 9.0 -3.0000000000000004 -1.5
    vertex 9.0 -3.0000000000000004 0.0
  endloop
endfacet
facet normal -0.9659258262890682 -0.2588190451025215 -0.0
  outer loop
    vertex 9.0 -3.0000000000000004 -1.5
    vertex 8.799038105676658 -2.25 0.0
    vertex 8.799038105676658 -2.25 -1.5
  endloop
endfacet
facet normal -0.707106781186548 -0.7071067811865471 -0.0
  outer loop
    vertex 8.25 -1.700961894323342 0.0
    vertex 8.799038105676658 -2.25 -1.5
    vertex 8.799038105676658 -2.25 0.0
  endloop
endfacet
facet normal -0.707106781186548 -0.7071067811865471 -0.0
  outer loop
    vertex 8.799038105676658 -2.25 -1.5
    vertex 8.25 -1.700961894323342 0.0
    vertex 8.25 -1.700961894323342 -1.5
  endloop
endfacet
facet normal -0.25881904510252074 -0.9659258262890683 -0.0
  outer loop
    vertex 8.25 -1.700961894323342 0.0
    vertex 7.5 -1.5 -1.5
    vertex 8.25 -1.700961894323342 -1.5
  endloop
endfacet
facet normal -0.25881904510252074 -0.9659258262890683 -0.0
  outer loop
    vertex 7.5 -1.5 -1.5
    vertex 8.25 -1.700961894323342 0.0
    vertex 7.5 -1.5 0.0
  endloop
endfacet
facet normal 0.25881904510252074 -0.9659258262890683 -0.0
  outer loop
    vertex 7.5 -1.5 0.0
    vertex 6.75 -1.700961894323342 -1.5
    vertex 7.5 -1.5 -1.5
  endloop
endfacet
facet normal 0.25881904510252074 -0.9659258262890683 -0.0
  outer loop
    vertex 6.75 -1.700961894323342 -1.5
    vertex 7.5 -1.5 0.0
    vertex 6.75 -1.700961894323342 0.0
  endloop
endfacet
facet normal 0.7071067811865476 -0.7071067811865476 -0.0
  outer loop
    vertex 6.75 -1.700961894323342 -1.5
    vertex 6.200961894323342 -2.25 0.0
    vertex 6.200961894323342 -2.25 -1.5
  endloop
endfacet
facet normal 0.7071067811865476 -0.7071067811865476 -0.0
  outer loop
    vertex 6.200961894323342 -2.25 0.0
    vertex 6.75 -1.700961894323342 -1.5
    vertex 6.75 -1.700961894323342 0.0
  endloop
endfacet
facet normal 0.9659258262890683 -0.25881904510252074 -0.0
  outer loop
    vertex 6.200961894323342 -2.25 -1.5
    vertex 6.0 -3.0 0.0
    vertex 6.0 -3.0 -1.5
  endloop
endfacet
facet normal 0.9659258262890683 -0.25881904510252074 -0.0
  outer loop
    vertex 6.0 -3.0 0.0
    vertex 6.200961894323342 -2.25 -1.5
    vertex 6.200961894323342 -2.25 0.0
  endloop
endfacet
facet normal 0.9659258262890683 0.25881904510252096 0.0
  outer loop
    vertex 6.0 -3.0 -1.5
    vertex 6.200961894323342 -3.7499999999999996 0.0
    vertex 6.200961894323342 -3.7499999999999996 -1.5
  endloop
endfacet
facet normal 0.9659258262890683 0.25881904510252096 0.0
  outer loop
    vertex 6.200961894323342 -3.7499999999999996 0.0
    vertex 6.0 -3.0 -1.5
    vertex 6.0 -3.0 0.0
  endloop
endfacet
facet normal 0.7071067811865476 0.7071067811865476 0.0
  outer loop
    vertex 6.200961894323342 -3.7499999999999996 -1.5
    vertex 6.75 -4.299038105676657 0.0
    vertex 6.75 -4.299038105676657 -1.5
  endloop
endfacet
facet normal 0.7071067811865476 0.7071067811865476 0.0
  outer loop
    vertex 6.75 -4.299038105676657 0.0
    vertex 6.200961894323342 -3.7499999999999996 -1.5
    vertex 6.200961894323342 -3.7499999999999996 0.0
  endloop
endfacet
facet normal 0.25881904510252207 0.965925826289068 0.0
  outer loop
    vertex 6.75 -4.299038105676657 0.0
    vertex 7.499999999999999 -4.5 -1.5
    vertex 6.75 -4.299038105676657 -1.5
  endloop
endfacet
facet normal 0.25881904510252207 0.965925826289068 0.0
  outer loop
    vertex 7.499999999999999 -4.5 -1.5
    vertex 6.75 -4.299038105676657 0.0
    vertex 7.499999999999999 -4.5 0.0
  endloop
endfacet
facet normal -0.2588190451025199 0.9659258262890685 -0.0
  outer loop
    vertex 7.499999999999999 -4.5 0.0
    vertex 8.249999999999998 -4.299038105676659 -1.5
    vertex 7.499999999999999 -4.5 -1.5
  endloop
endfacet
facet normal -0.2588190451025199 0.9659258262890685 -0.0
  outer loop
    vertex 8.249999999999998 -4.299038105676659 -1.5
    vertex 7.499999999999999 -4.5 0.0
    vertex 8.249999999999998 -4.299038105676659 0.0
  endloop
endfacet
facet normal -0.7071067811865471 0.707106781186548 -0.0
  outer loop
    vertex 8.249999999999998 -4.299038105676659 0.0
    vertex 8.799038105676658 -3.750000000000001 -1.5
    vertex 8.249999999999998 -4.299038105676659 -1.5
  endloop
endfacet
facet normal -0.7071067811865471 0.707106781186548 -0.0
  outer loop
    vertex 8.799038105676658 -3.750000000000001 -1.5
    vertex 8.249999999999998 -4.299038105676659 0.0
    vertex 8.799038105676658 -3.750000000000001 0.0
  endloop
endfacet
endsolid strand_holder
