solid amp_mount
facet normal 0.0 0.0 -1.0
  outer loop
    vertex -1.2499999999999996 2.165063509461097 0.0
    vertex -0.8660254037844385 0.49999999999999994 0.0
    vertex -0.9999999999999999 6.123233995736765e-17 0.0
  endloop
endfacet
facet normal 0.0 0.0 -1.0
  outer loop
    vertex -0.8660254037844385 0.49999999999999994 0.0
    vertex -1.2499999999999996 2.165063509461097 0.0
    vertex 1.5308084989341916e-16 2.5 0.0
  endloop
endfacet
facet normal 0.0 0.0 -1.0
  outer loop
    vertex -0.8660254037844385 0.49999999999999994 0.0
    vertex 1.5308084989341916e-16 2.5 0.0
    vertex -0.4999999999999999 0.8660254037844385 0.0
  endloop
endfacet
facet normal 0.0 0.0 -1.0
  outer loop
    vertex -0.4999999999999999 0.8660254037844385 0.0
    vertex 1.5308084989341916e-16 2.5 0.0
    vertex 0.0 0.9999999999999999 0.0
  endloop
endfacet
facet normal 0.0 0.0 -1.0
  outer loop
    vertex 0.0 0.9999999999999999 0.0
    vertex 1.5308084989341916e-16 2.5 0.0
    vertex 0.4999999999999996 0.8660254037844386 0.0
  endloop
endfacet
facet normal 0.0 0.0 -1.0
  outer loop
    vertex 0.4999999999999996 0.8660254037844386 0.0
    vertex 1.5308084989341916e-16 2.5 0.0
    vertex 1.2500000000000004 2.1650635094610964 0.0
  endloop
endfacet
facet normal 0.0 0.0 -1.0
  outer loop
    vertex 0.4999999999999996 0.8660254037844386 0.0
    vertex 1.2500000000000004 2.1650635094610964 0.0
    vertex 0.8660254037844385 0.49999999999999994 0.0
  endloop
endfacet
facet normal 0.0 0.0 -1.0
  outer loop
    vertex 0.8660254037844385 0.49999999999999994 0.0
    vertex 1.2500000000000004 2.1650635094610964 0.0
    vertex 0.9999999999999999 -1.8369701987210292e-16 0.0
  endloop
endfacet
facet normal 0.0 0.0 -1.0
  outer loop
    vertex -2.1650635094610964 1.2500000000000009 0.0
    vertex -2.1650635094610977 -1.2499999999999984 0.0
    vertex -2.5 1.416384724411995e-15 0.0
  endloop
endfacet
facet normal 0.0 0.0 -1.0
  outer loop
    vertex -2.1650635094610977 -1.2499999999999984 0.0
    vertex -2.1650635094610964 1.2500000000000009 0.0
    vertex -1.250000000000001 -2.165063509461096 0.0
  endloop
endfacet
facet normal 0.0 0.0 -1.0
  outer loop
    vertex -1.250000000000001 -2.165063509461096 0.0
    vertex -2.1650635094610964 1.2500000000000009 0.0
    vertex -1.2499999999999996 2.165063509461097 0.0
  endloop
endfacet
facet normal 0.0 0.0 -1.0
  outer loop
    vertex -1.250000000000001 -2.165063509461096 0.0
    vertex -1.2499999999999996 2.165063509461097 0.0
    vertex -0.9999999999999999 6.123233995736765e-17 0.0
  endloop
endfacet
facet normal 0.0 0.0 -1.0
  outer loop
    vertex -1.250000000000001 -2.165063509461096 0.0
    vertex -0.9999999999999999 6.123233995736765e-17 0.0
    vertex -0.8660254037844386 -0.4999999999999996 0.0
  endloop
endfacet
facet normal 0.0 0.0 -1.0
  outer loop
    vertex -1.250000000000001 -2.165063509461096 0.0
    vertex -0.8660254037844386 -0.4999999999999996 0.0
    vertex -4.592425496802574e-16 -2.5 0.0
  endloop
endfacet
facet normal 0.0 0.0 -1.0
  outer loop
    vertex -4.592425496802574e-16 -2.5 0.0
    vertex -0.8660254037844386 -0.4999999999999996 0.0
    vertex -0.5000000000000003 -0.8660254037844383 0.0
  endloop
endfacet
facet normal 0.0 0.0 -1.0
  outer loop
    vertex -4.592425496802574e-16 -2.5 0.0
    vertex -0.5000000000000003 -0.8660254037844383 0.0
    vertex -5.665538897647979e-16 -0.9999999999999998 0.0
  endloop
endfacet
facet normal 0.0 0.0 -1.0
  outer loop
    vertex -4.592425496802574e-16 -2.5 0.0
    vertex -5.665538897647979e-16 -0.9999999999999998 0.0
    vertex 0.4999999999999993 -0.8660254037844388 0.0
  endloop
endfacet
facet normal 0.0 0.0 -1.0
  outer loop
    vertex -4.592425496802574e-16 -2.5 0.0
    vertex 0.4999999999999993 -0.8660254037844388 0.0
    vertex 1.2500000000000004 -2.1650635094610964 0.0
  endloop
endfacet
facet normal 0.0 0.0 -1.0
  outer loop
    vertex 1.2500000000000004 -2.1650635094610964 0.0
    vertex 0.4999999999999993 -0.8660254037844388 0.0
    vertex 0.8660254037844383 -0.5000000000000003 0.0
  endloop
endfacet
facet normal 0.0 0.0 -1.0
  outer loop
    vertex 1.2500000000000004 -2.1650635094610964 0.0
    vertex 0.8660254037844383 -0.5000000000000003 0.0
    vertex 0.9999999999999999 -1.8369701987210292e-16 0.0
  endloop
endfacet
facet normal 0.0 0.0 -1.0
  outer loop
    vertex 1.2500000000000004 -2.1650635094610964 0.0
    vertex 0.9999999999999999 -1.8369701987210292e-16 0.0
    vertex 1.2500000000000004 2.1650635094610964 0.0
  endloop
endfacet
facet normal 0.0 0.0 -1.0
  outer loop
    vertex 1.2500000000000004 -2.1650635094610964 0.0
    vertex 1.2500000000000004 2.1650635094610964 0.0
    vertex 2.165063509461097 1.2499999999999998 0.0
  endloop
endfacet
facet normal 0.0 0.0 -1.0
  outer loop
    vertex 1.2500000000000004 -2.1650635094610964 0.0
    vertex 2.165063509461097 1.2499999999999998 0.0
    vertex 2.1650635094610973 -1.2499999999999991 0.0
  endloop
endfacet
facet normal 0.0 0.0 -1.0
  outer loop
    vertex 2.1650635094610973 -1.2499999999999991 0.0
    vertex 2.165063509461097 1.2499999999999998 0.0
    vertex 2.5 0.0 0.0
  endloop
endfacet
facet normal -0.0 -0.0 1.0
  outer loop
    vertex -2.1650635094610977 -1.2499999999999984 3.9999999999999996
    vertex -2.1650635094610964 1.2500000000000009 3.9999999999999996
    vertex -2.5 1.416384724411995e-15 3.9999999999999996
  endloop
endfacet
facet normal -0.0 -0.0 1.0
  outer loop
    vertex -2.1650635094610964 1.2500000000000009 3.9999999999999996
    vertex -2.1650635094610977 -1.2499999999999984 3.9999999999999996
    vertex -1.250000000000001 -2.165063509461096 3.9999999999999996
  endloop
endfacet
facet normal -0.0 -0.0 1.0
  outer loop
    vertex -2.1650635094610964 1.2500000000000009 3.9999999999999996
    vertex -1.250000000000001 -2.165063509461096 3.9999999999999996
    vertex -1.2499999999999996 2.165063509461097 3.9999999999999996
  endloop
endfacet
facet normal -0.0 -0.0 1.0
  outer loop
    vertex -1.2499999999999996 2.165063509461097 3.9999999999999996
    vertex -1.250000000000001 -2.165063509461096 3.9999999999999996
    vertex -0.9999999999999999 6.123233995736765e-17 3.9999999999999996
  endloop
endfacet
facet normal -0.0 -0.0 1.0
  outer loop
    vertex -0.9999999999999999 6.123233995736765e-17 3.9999999999999996
    vertex -1.250000000000001 -2.165063509461096 3.9999999999999996
    vertex -0.8660254037844386 -0.4999999999999996 3.9999999999999996
  endloop
endfacet
facet normal -0.0 -0.0 1.0
  outer loop
    vertex -0.8660254037844386 -0.4999999999999996 3.9999999999999996
    vertex -1.250000000000001 -2.165063509461096 3.9999999999999996
    vertex -4.592425496802574e-16 -2.5 3.9999999999999996
  endloop
endfacet
facet normal -0.0 -0.0 1.0
  outer loop
    vertex -0.8660254037844386 -0.4999999999999996 3.9999999999999996
    vertex -4.592425496802574e-16 -2.5 3.9999999999999996
    vertex -0.5000000000000003 -0.8660254037844383 3.9999999999999996
  endloop
endfacet
facet normal -0.0 -0.0 1.0
  outer loop
    vertex -0.5000000000000003 -0.8660254037844383 3.9999999999999996
    vertex -4.592425496802574e-16 -2.5 3.9999999999999996
    vertex -5.665538897647979e-16 -0.9999999999999998 3.9999999999999996
  endloop
endfacet
facet normal -0.0 -0.0 1.0
  outer loop
    vertex -5.665538897647979e-16 -0.9999999999999998 3.9999999999999996
    vertex -4.592425496802574e-16 -2.5 3.9999999999999996
    vertex 0.4999999999999993 -0.8660254037844388 3.9999999999999996
  endloop
endfacet
facet normal -0.0 -0.0 1.0
  outer loop
    vertex 0.4999999999999993 -0.8660254037844388 3.9999999999999996
    vertex -4.592425496802574e-16 -2.5 3.9999999999999996
    vertex 1.2500000000000004 -2.1650635094610964 3.9999999999999996
  endloop
endfacet
facet normal -0.0 -0.0 1.0
  outer loop
    vertex 0.4999999999999993 -0.8660254037844388 3.9999999999999996
    vertex 1.2500000000000004 -2.1650635094610964 3.9999999999999996
    vertex 0.8660254037844383 -0.5000000000000003 3.9999999999999996
  endloop
endfacet
facet normal -0.0 -0.0 1.0
  outer loop
    vertex 0.8660254037844383 -0.5000000000000003 3.9999999999999996
    vertex 1.2500000000000004 -2.1650635094610964 3.9999999999999996
    vertex 0.9999999999999999 -1.8369701987210292e-16 3.9999999999999996
  endloop
endfacet
facet normal -0.0 -0.0 1.0
  outer loop
    vertex -1.2499999999999996 2.165063509461097 3.9999999999999996
    vertex -0.8660254037844385 0.49999999999999994 3.9999999999999996
    vertex 1.5308084989341916e-16 2.5 3.9999999999999996
  endloop
endfacet
facet normal -0.0 -0.0 1.0
  outer loop
    vertex -0.8660254037844385 0.49999999999999994 3.9999999999999996
    vertex -1.2499999999999996 2.165063509461097 3.9999999999999996
    vertex -0.9999999999999999 6.123233995736765e-17 3.9999999999999996
  endloop
endfacet
facet normal -0.0 -0.0 1.0
  outer loop
    vertex 1.5308084989341916e-16 2.5 3.9999999999999996
    vertex -0.8660254037844385 0.49999999999999994 3.9999999999999996
    vertex -0.4999999999999999 0.8660254037844385 3.9999999999999996
  endloop
endfacet
facet normal -0.0 -0.0 1.0
  outer loop
    vertex 1.5308084989341916e-16 2.5 3.9999999999999996
    vertex -0.4999999999999999 0.8660254037844385 3.9999999999999996
    vertex 0.0 0.9999999999999999 3.9999999999999996
  endloop
endfacet
facet normal -0.0 -0.0 1.0
  outer loop
    vertex 1.5308084989341916e-16 2.5 3.9999999999999996
    vertex 0.0 0.9999999999999999 3.9999999999999996
    vertex 0.4999999999999996 0.8660254037844386 3.9999999999999996
  endloop
endfacet
facet normal -0.0 -0.0 1.0
  outer loop
    vertex 1.5308084989341916e-16 2.5 3.9999999999999996
    vertex 0.4999999999999996 0.8660254037844386 3.9999999999999996
    vertex 1.2500000000000004 2.1650635094610964 3.9999999999999996
  endloop
endfacet
facet normal -0.0 -0.0 1.0
  outer loop
    vertex 1.2500000000000004 2.1650635094610964 3.9999999999999996
    vertex 0.4999999999999996 0.8660254037844386 3.9999999999999996
    vertex 0.8660254037844385 0.49999999999999994 3.9999999999999996
  endloop
endfacet
facet normal -0.0 -0.0 1.0
  outer loop
    vertex 1.2500000000000004 2.1650635094610964 3.9999999999999996
    vertex 0.8660254037844385 0.49999999999999994 3.9999999999999996
    vertex 0.9999999999999999 -1.8369701987210292e-16 3.9999999999999996
  endloop
endfacet
facet normal -0.0 -0.0 1.0
  outer loop
    vertex 1.2500000000000004 2.1650635094610964 3.9999999999999996
    vertex 0.9999999999999999 -1.8369701987210292e-16 3.9999999999999996
    vertex 1.2500000000000004 -2.1650635094610964 3.9999999999999996
  endloop
endfacet
facet normal -0.0 -0.0 1.0
  outer loop
    vertex 1.2500000000000004 2.1650635094610964 3.9999999999999996
    vertex 1.2500000000000004 -2.1650635094610964 3.9999999999999996
    vertex 2.1650635094610973 -1.2499999999999991 3.9999999999999996
  endloop
endfacet
facet normal -0.0 -0.0 1.0
  outer loop
    vertex 1.2500000000000004 2.1650635094610964 3.9999999999999996
    vertex 2.1650635094610973 -1.2499999999999991 3.9999999999999996
    vertex 2.165063509461097 1.2499999999999998 3.9999999999999996
  endloop
endfacet
facet normal -0.0 -0.0 1.0
  outer loop
    vertex 2.165063509461097 1.2499999999999998 3.9999999999999996
    vertex 2.1650635094610973 -1.2499999999999991 3.9999999999999996
    vertex 2.5 0.0 3.9999999999999996
  endloop
endfacet
facet normal 0.9659258262890684 0.25881904510252063 0.0
  outer loop
    vertex 2.165063509461097 1.2499999999999998 0.0
    vertex 2.5 0.0 3.9999999999999996
    vertex 2.5 0.0 0.0
  endloop
endfacet
facet normal 0.9659258262890684 0.25881904510252063 0.0
  outer loop
    vertex 2.5 0.0 3.9999999999999996
    vertex 2.165063509461097 1.2499999999999998 0.0
    vertex 2.165063509461097 1.2499999999999998 3.9999999999999996
  endloop
endfacet
facet normal 0.9659258262890684 -0.2588190451025205 0.0
  outer loop
    vertex 2.5 0.0 0.0
    vertex 2.1650635094610973 -1.2499999999999991 3.9999999999999996
    vertex 2.1650635094610973 -1.2499999999999991 0.0
  endloop
endfacet
facet normal 0.9659258262890684 -0.2588190451025205 0.0
  outer loop
    vertex 2.1650635094610973 -1.2499999999999991 3.9999999999999996
    vertex 2.5 0.0 0.0
    vertex 2.5 0.0 3.9999999999999996
  endloop
endfacet
facet normal 0.7071067811865478 -0.7071067811865474 0.0
  outer loop
    vertex 2.1650635094610973 -1.2499999999999991 0.0
    vertex 1.2500000000000004 -2.1650635094610964 3.9999999999999996
    vertex 1.2500000000000004 -2.1650635094610964 0.0
  endloop
endfacet
facet normal 0.7071067811865478 -0.7071067811865474 0.0
  outer loop
    vertex 1.2500000000000004 -2.1650635094610964 3.9999999999999996
    vertex 2.1650635094610973 -1.2499999999999991 0.0
    vertex 2.1650635094610973 -1.2499999999999991 3.9999999999999996
  endloop
endfacet
facet normal 0.2588190451025207 -0.9659258262890684 0.0
  outer loop
    vertex 1.2500000000000004 -2.1650635094610964 3.9999999999999996
    vertex -4.592425496802574e-16 -2.5 0.0
    vertex 1.2500000000000004 -2.1650635094610964 0.0
  endloop
endfacet
facet normal 0.2588190451025207 -0.9659258262890684 0.0
  outer loop
    vertex -4.592425496802574e-16 -2.5 0.0
    vertex 1.2500000000000004 -2.1650635094610964 3.9999999999999996
    vertex -4.592425496802574e-16 -2.5 3.9999999999999996
  endloop
endfacet
facet normal -0.2588190451025213 -0.9659258262890683 -0.0
  outer loop
    vertex -4.592425496802574e-16 -2.5 3.9999999999999996
    vertex -1.250000000000001 -2.165063509461096 0.0
    vertex -4.592425496802574e-16 -2.5 0.0
  endloop
endfacet
facet normal -0.2588190451025213 -0.9659258262890683 -0.0
  outer loop
    vertex -1.250000000000001 -2.165063509461096 0.0
    vertex -4.592425496802574e-16 -2.5 3.9999999999999996
    vertex -1.250000000000001 -2.165063509461096 3.9999999999999996
  endloop
endfacet
facet normal -0.7071067811865479 -0.7071067811865472 -0.0
  outer loop
    vertex -2.1650635094610977 -1.2499999999999984 3.9999999999999996
    vertex -1.250000000000001 -2.165063509461096 0.0
    vertex -1.250000000000001 -2.165063509461096 3.9999999999999996
  endloop
endfacet
facet normal -0.7071067811865479 -0.7071067811865472 -0.0
  outer loop
    vertex -1.250000000000001 -2.165063509461096 0.0
    vertex -2.1650635094610977 -1.2499999999999984 3.9999999999999996
    vertex -2.1650635094610977 -1.2499999999999984 0.0
  endloop
endfacet
facet normal -0.9659258262890684 -0.2588190451025201 -0.0
  outer loop
    vertex -2.5 1.416384724411995e-15 3.9999999999999996
    vertex -2.1650635094610977 -1.2499999999999984 0.0
    vertex -2.1650635094610977 -1.2499999999999984 3.9999999999999996
  endloop
endfacet
facet normal -0.9659258262890684 -0.2588190451025201 -0.0
  outer loop
    vertex -2.1650635094610977 -1.2499999999999984 0.0
    vertex -2.5 1.416384724411995e-15 3.9999999999999996
    vertex -2.5 1.416384724411995e-15 0.0
  endloop
endfacet
facet normal -0.9659258262890682 0.2588190451025212 0.0
  outer loop
    vertex -2.1650635094610964 1.2500000000000009 3.9999999999999996
    vertex -2.5 1.416384724411995e-15 0.0
    vertex -2.5 1.416384724411995e-15 3.9999999999999996
  endloop
endfacet
facet normal -0.9659258262890682 0.2588190451025212 0.0
  outer loop
    vertex -2.5 1.416384724411995e-15 0.0
    vertex -2.1650635094610964 1.2500000000000009 3.9999999999999996
    vertex -2.1650635094610964 1.2500000000000009 0.0
  endloop
endfacet
facet normal -0.7071067811865472 0.7071067811865478 0.0
  outer loop
    vertex -2.1650635094610964 1.2500000000000009 3.9999999999999996
    vertex -1.2499999999999996 2.165063509461097 0.0
    vertex -2.1650635094610964 1.2500000000000009 0.0
  endloop
endfacet
facet normal -0.7071067811865472 0.7071067811865478 0.0
  outer loop
    vertex -1.2499999999999996 2.165063509461097 0.0
    vertex -2.1650635094610964 1.2500000000000009 3.9999999999999996
    vertex -1.2499999999999996 2.165063509461097 3.9999999999999996
  endloop
endfacet
facet normal -0.25881904510252063 0.9659258262890683 0.0
  outer loop
    vertex -1.2499999999999996 2.165063509461097 3.9999999999999996
    vertex 1.5308084989341916e-16 2.5 0.0
    vertex -1.2499999999999996 2.165063509461097 0.0
  endloop
endfacet
facet normal -0.25881904510252063 0.9659258262890683 0.0
  outer loop
    vertex 1.5308084989341916e-16 2.5 0.0
    vertex -1.2499999999999996 2.165063509461097 3.9999999999999996
    vertex 1.5308084989341916e-16 2.5 3.9999999999999996
  endloop
endfacet
facet normal 0.25881904510252085 0.9659258262890683 0.0
  outer loop
    vertex 1.5308084989341916e-16 2.5 3.9999999999999996
    vertex 1.2500000000000004 2.1650635094610964 0.0
    vertex 1.5308084989341916e-16 2.5 0.0
  endloop
endfacet
facet normal 0.25881904510252085 0.9659258262890683 0.0
  outer loop
    vertex 1.2500000000000004 2.1650635094610964 0.0
    vertex 1.5308084989341916e-16 2.5 3.9999999999999996
    vertex 1.2500000000000004 2.1650635094610964 3.9999999999999996
  endloop
endfacet
facet normal 0.7071067811865477 0.7071067811865475 0.0
  outer loop
    vertex 1.2500000000000004 2.1650635094610964 0.0
    vertex 2.165063509461097 1.2499999999999998 3.9999999999999996
    vertex 2.165063509461097 1.2499999999999998 0.0
  endloop
endfacet
facet normal 0.7071067811865477 0.7071067811865475 0.0
  outer loop
    vertex 2.165063509461097 1.2499999999999998 3.9999999999999996
    vertex 1.2500000000000004 2.1650635094610964 0.0
    vertex 1.2500000000000004 2.1650635094610964 3.9999999999999996
  endloop
endfacet
facet normal -0.9659258262890682 0.25881904510252124 0.0
  outer loop
    vertex 0.9999999999999999 -1.8369701987210292e-16 3.9999999999999996
    vertex 0.8660254037844383 -0.5000000000000003 0.0
    vertex 0.8660254037844383 -0.5000000000000003 3.9999999999999996
  endloop
endfacet
facet normal -0.9659258262890682 0.25881904510252124 0.0
  outer loop
    vertex 0.8660254037844383 -0.5000000000000003 0.0
    vertex 0.9999999999999999 -1.8369701987210292e-16 3.9999999999999996
    vertex 0.9999999999999999 -1.8369701987210292e-16 0.0
  endloop
endfacet
facet normal -0.9659258262890683 -0.2588190451025209 -0.0
  outer loop
    vertex 0.8660254037844385 0.49999999999999994 3.9999999999999996
    vertex 0.9999999999999999 -1.8369701987210292e-16 0.0
    vertex 0.9999999999999999 -1.8369701987210292e-16 3.9999999999999996
  endloop
endfacet
facet normal -0.9659258262890683 -0.2588190451025209 -0.0
  outer loop
    vertex 0.9999999999999999 -1.8369701987210292e-16 0.0
    vertex 0.8660254037844385 0.49999999999999994 3.9999999999999996
    vertex 0.8660254037844385 0.49999999999999994 0.0
  endloop
endfacet
facet normal -0.7071067811865475 -0.7071067811865478 -0.0
  outer loop
    vertex 0.8660254037844385 0.49999999999999994 3.9999999999999996
    vertex 0.4999999999999996 0.8660254037844386 0.0
    vertex 0.8660254037844385 0.49999999999999994 0.0
  endloop
endfacet
facet normal -0.7071067811865475 -0.7071067811865478 -0.0
  outer loop
    vertex 0.4999999999999996 0.8660254037844386 0.0
    vertex 0.8660254037844385 0.49999999999999994 3.9999999999999996
    vertex 0.4999999999999996 0.8660254037844386 3.9999999999999996
  endloop
endfacet
facet normal -0.25881904510252085 -0.9659258262890683 -0.0
  outer loop
    vertex 0.4999999999999996 0.8660254037844386 3.9999999999999996
    vertex 0.0 0.9999999999999999 0.0
    vertex 0.4999999999999996 0.8660254037844386 0.0
  endloop
endfacet
facet normal -0.25881904510252085 -0.9659258262890683 -0.0
  outer loop
    vertex 0.0 0.9999999999999999 0.0
    vertex 0.4999999999999996 0.8660254037844386 3.9999999999999996
    vertex 0.0 0.9999999999999999 3.9999999999999996
  endloop
endfacet
facet normal 0.258819045102521 -0.9659258262890683 0.0
  outer loop
    vertex 0.0 0.9999999999999999 3.9999999999999996
    vertex -0.4999999999999999 0.8660254037844385 0.0
    vertex 0.0 0.9999999999999999 0.0
  endloop
endfacet
facet normal 0.258819045102521 -0.9659258262890683 0.0
  outer loop
    vertex -0.4999999999999999 0.8660254037844385 0.0
    vertex 0.0 0.9999999999999999 3.9999999999999996
    vertex -0.4999999999999999 0.8660254037844385 3.9999999999999996
  endloop
endfacet
facet normal 0.7071067811865475 -0.7071067811865477 0.0
  outer loop
    vertex -0.4999999999999999 0.8660254037844385 3.9999999999999996
    vertex -0.8660254037844385 0.49999999999999994 0.0
    vertex -0.4999999999999999 0.8660254037844385 0.0
  endloop
endfacet
facet normal 0.7071067811865475 -0.7071067811865477 0.0
  outer loop
    vertex -0.8660254037844385 0.49999999999999994 0.0
    vertex -0.4999999999999999 0.8660254037844385 3.9999999999999996
    vertex -0.8660254037844385 0.49999999999999994 3.9999999999999996
  endloop
endfacet
facet normal 0.9659258262890683 -0.258819045102521 0.0
  outer loop
    vertex -0.8660254037844385 0.49999999999999994 0.0
    vertex -0.9999999999999999 6.123233995736765e-17 3.9999999999999996
    vertex -0.9999999999999999 6.123233995736765e-17 0.0
  endloop
endfacet
facet normal 0.9659258262890683 -0.258819045102521 0.0
  outer loop
    vertex -0.9999999999999999 6.123233995736765e-17 3.9999999999999996
    vertex -0.8660254037844385 0.49999999999999994 0.0
    vertex -0.8660254037844385 0.49999999999999994 3.9999999999999996
  endloop
endfacet
facet normal 0.9659258262890683 0.2588190451025208 0.0
  outer loop
    vertex -0.9999999999999999 6.123233995736765e-17 0.0
    vertex -0.8660254037844386 -0.4999999999999996 3.9999999999999996
    vertex -0.8660254037844386 -0.4999999999999996 0.0
  endloop
endfacet
facet normal 0.9659258262890683 0.2588190451025208 0.0
  outer loop
    vertex -0.8660254037844386 -0.4999999999999996 3.9999999999999996
    vertex -0.9999999999999999 6.123233995736765e-17 0.0
    vertex -0.9999999999999999 6.123233995736765e-17 3.9999999999999996
  endloop
endfacet
facet normal 0.7071067811865479 0.7071067811865472 0.0
  outer loop
    vertex -0.8660254037844386 -0.4999999999999996 0.0
    vertex -0.5000000000000003 -0.8660254037844383 3.9999999999999996
    vertex -0.5000000000000003 -0.8660254037844383 0.0
  endloop
endfacet
facet normal 0.7071067811865479 0.7071067811865472 0.0
  outer loop
    vertex -0.5000000000000003 -0.8660254037844383 3.9999999999999996
    vertex -0.8660254037844386 -0.4999999999999996 0.0
    vertex -0.8660254037844386 -0.4999999999999996 3.9999999999999996
  endloop
endfacet
facet normal 0.2588190451025211 0.9659258262890683 0.0
  outer loop
    vertex -0.5000000000000003 -0.8660254037844383 3.9999999999999996
    vertex -5.665538897647979e-16 -0.9999999999999998 0.0
    vertex -0.5000000000000003 -0.8660254037844383 0.0
  endloop
endfacet
facet normal 0.2588190451025211 0.9659258262890683 0.0
  outer loop
    vertex -5.665538897647979e-16 -0.9999999999999998 0.0
    vertex -0.5000000000000003 -0.8660254037844383 3.9999999999999996
    vertex -5.665538897647979e-16 -0.9999999999999998 3.9999999999999996
  endloop
endfacet
facet normal -0.25881904510252013 0.9659258262890685 0.0
  outer loop
    vertex -5.665538897647979e-16 -0.9999999999999998 3.9999999999999996
    vertex 0.4999999999999993 -0.8660254037844388 0.0
    vertex -5.665538897647979e-16 -0.9999999999999998 0.0
  endloop
endfacet
facet normal -0.25881904510252013 0.9659258262890685 0.0
  outer loop
    vertex 0.4999999999999993 -0.8660254037844388 0.0
    vertex -5.665538897647979e-16 -0.9999999999999998 3.9999999999999996
    vertex 0.4999999999999993 -0.8660254037844388 3.9999999999999996
  endloop
endfacet
facet normal -0.707106781186547 0.707106781186548 0.0
  outer loop
    vertex 0.4999999999999993 -0.8660254037844388 3.9999999999999996
    vertex 0.8660254037844383 -0.5000000000000003 0.0
    vertex 0.4999999999999993 -0.8660254037844388 0.0
  endloop
endfacet
facet normal -0.707106781186547 0.707106781186548 0.0
  outer loop
    vertex 0.8660254037844383 -0.5000000000000003 0.0
    vertex 0.4999999999999993 -0.8660254037844388 3.9999999999999996
    vertex 0.8660254037844383 -0.5000000000000003 3.9999999999999996
  endloop
endfacet
endsolid amp_mount
